<?xml version="1.0" encoding="UTF-8"?>
<svg width="137px" height="137px" viewBox="0 0 137 137" version="1.1" xmlns="http://www.w3.org/2000/svg" xmlns:xlink="http://www.w3.org/1999/xlink">
    <title>Accept Tasks</title>
    <g id="Accept-Tasks" stroke="none" stroke-width="1" fill="none" fill-rule="evenodd">
        <g id="undraw_buy_house_560d-(5)" transform="translate(-765.000000, 87.000000)"></g>
        <g id="undraw_accept_tasks_po1c-(2)" transform="translate(0.000000, 21.000000)" fill-rule="nonzero">
            <path d="M124.682391,49.4848386 C122.835842,54.7056412 120.263058,59.6402975 117.039871,64.1433611 C116.965631,64.2480382 116.890205,64.3504089 116.814224,64.4545322 L107.034852,61.2874513 C107.079075,61.1864912 107.127248,61.0733722 107.178795,60.9498182 C110.258547,53.6647476 128.793549,9.257996 126.825383,0 C127.013384,0.760217911 133.154376,25.9114247 124.682391,49.4848386 Z" id="Path" fill="#E6E6E6"></path>
            <path d="M118.92654,64.7543675 C118.807079,64.844398 118.684147,64.9333058 118.560035,65.0199206 L111.223775,62.6440459 C111.311519,62.56295 111.413585,62.4672854 111.531155,62.359345 C113.451575,60.5643605 119.156793,55.1862519 124.682389,49.4848386 C130.620516,43.3579412 136.352569,36.8588322 136.962463,34.0323241 C136.847752,34.6772114 133.229625,54.2970779 118.92654,64.7543675 Z" id="Path" fill="#E6E6E6"></path>
            <path d="M129.978029,94.9039507 L4.21683968,94.9039507 C1.88794343,94.9039507 0,93.0160073 0,90.6871111 L0,90.6871111 C45.5884068,85.3888655 90.3200295,85.3888655 134.194868,90.6871111 L134.194868,90.6871111 C134.194868,93.0160069 132.306924,94.9039507 129.978029,94.9039507 L129.978029,94.9039507 Z" id="Path" fill="#2F2E41"></path>
            <path d="M134.194868,90.9351556 L-9.62614139e-15,90.687106 L15.5527176,64.517874 L15.6271294,64.3938492 L15.6271294,6.71981274 C15.6270108,5.30601756 16.1885861,3.95009367 17.1882901,2.95038935 C18.1879941,1.95068502 19.5439178,1.3892274 20.957713,1.3892274 L112.493005,1.3892274 C113.906799,1.3892274 115.262722,1.95068691 116.262425,2.95039104 C117.262128,3.95009517 117.823703,5.30601828 117.823585,6.71981274 L117.823585,64.7907089 L134.194868,90.9351556 Z" id="Path" fill="#3F3D56"></path>
            <path d="M20.8361725,5.10997299 C19.8776595,5.11104717 19.1008988,5.88780711 19.0998237,6.84632014 L19.0998237,59.4328489 C19.1009416,60.3913442 19.8776773,61.168079 20.8361725,61.169196 L113.358696,61.169196 C114.317173,61.1680362 115.093884,60.3913264 115.095045,59.4328489 L115.095045,6.84632014 C115.093927,5.88782488 114.317191,5.11109001 113.358696,5.10997299 L20.8361725,5.10997299 Z" id="Path" fill="#FFFFFF"></path>
            <path d="M21.4442374,68.1145897 C21.1537898,68.1150815 20.8900182,68.2840613 20.7681551,68.5477078 L15.9758799,78.9657941 C15.8698599,79.1961818 15.8884788,79.464703 16.0252809,79.6782538 C16.1620829,79.8918046 16.3982289,80.020982 16.6518403,80.020982 L117.430857,80.020982 C117.688764,80.020982 117.928276,79.8874208 118.063837,79.6680152 C118.199399,79.4486097 118.211675,79.1746518 118.096279,78.9440011 L112.887231,68.5259148 C112.761877,68.2732545 112.503856,68.1137644 112.221809,68.1145897 L21.4442374,68.1145897 Z" id="Path" fill="#2F2E41"></path>
            <circle id="Oval" fill="#FFFFFF" cx="66.7253589" cy="3.12557456" r="1.11622316"></circle>
            <path d="M56.8196035,82.0053686 C56.4833201,82.0057913 56.1889754,82.2313621 56.1011308,82.5559697 L54.8990346,87.020864 C54.8387908,87.2444081 54.8860347,87.4832569 55.0268456,87.6670327 C55.1676566,87.8508085 55.3859878,87.9585605 55.6175073,87.9585605 L78.4786499,87.9585605 C78.7193536,87.9585605 78.945186,87.8421142 79.0847705,87.6460162 C79.2243551,87.4499183 79.2604421,87.1984058 79.1816258,86.9709717 L77.6361608,82.506079 C77.5323054,82.2064534 77.2500637,82.0054911 76.9329495,82.0053686 L56.8196035,82.0053686 Z" id="Path" fill="#2F2E41"></path>
            <polygon id="Path" fill="#2F2E41" points="117.823556 63.5256638 117.823556 64.5178554 15.5526329 64.5178554 15.6296848 64.3938949 15.6296848 63.5256638"></polygon>
            <path d="M86.027841,14.4009108 L61.8979497,14.4009108 L61.8979497,14.8416435 L86.027841,14.8416435 C88.5016955,14.8416435 90.5071508,16.8470988 90.5071508,19.3209534 C90.5071508,21.7948079 88.5016955,23.8002632 86.027841,23.8002632 L49.5151581,23.8002632 C47.0413036,23.8002632 45.0358483,21.7948079 45.0358483,19.3209534 C45.0358483,16.8470988 47.0413036,14.8416435 49.5151581,14.8416435 L50.8796425,14.8416435 L50.8796425,14.4009108 L49.5151581,14.4009108 C46.7990213,14.4025051 44.598002,16.6048161 44.598002,19.3209534 C44.598002,22.0370907 46.7990213,24.2394016 49.5151581,24.2409959 L86.027841,24.2409959 C87.7862901,24.2420267 89.4116056,23.3044977 90.2911281,21.7818078 C91.1706506,20.2591179 91.1706506,18.3827888 90.2911281,16.8600989 C89.4116056,15.337409 87.7862901,14.39988 86.027841,14.4009108 L86.027841,14.4009108 Z" id="Path" fill="#E6E6E6"></path>
            <path d="M86.027841,29.6061801 L61.8979497,29.6061801 L61.8979497,30.0469128 L86.027841,30.0469128 C88.50062,30.0484332 90.5043975,32.0534432 90.5043975,34.5262227 C90.5043975,36.9990021 88.50062,39.0040121 86.027841,39.0055325 L49.5151581,39.0055325 C47.0413036,39.0055325 45.0358483,37.0000772 45.0358483,34.5262227 C45.0358483,32.0523681 47.0413036,30.0469128 49.5151581,30.0469128 L50.8796425,30.0469128 L50.8796425,29.6061801 L49.5151581,29.6061801 C46.7990213,29.6077744 44.598002,31.8100854 44.598002,34.5262227 C44.598002,37.2423599 46.7990213,39.4446709 49.5151581,39.4462652 L86.027841,39.4462652 C87.7862901,39.447296 89.4116056,38.509767 90.2911281,36.9870771 C91.1706506,35.4643872 91.1706506,33.5880581 90.2911281,32.0653682 C89.4116056,30.5426783 87.7862901,29.6051493 86.027841,29.6061801 L86.027841,29.6061801 Z" id="Path" fill="#E6E6E6"></path>
            <path d="M86.027841,44.8114502 L61.8979497,44.8114502 L61.8979497,45.2521855 L86.027841,45.2521855 C88.501695,45.2521855 90.50715,47.2576404 90.50715,49.7314945 C90.50715,52.2053485 88.501695,54.2108035 86.027841,54.2108035 L49.5151581,54.2108035 C47.0413041,54.2108035 45.0358491,52.2053485 45.0358491,49.7314945 C45.0358491,47.2576404 47.0413041,45.2521855 49.5151581,45.2521855 L50.8796425,45.2521855 L50.8796425,44.8114502 L49.5151581,44.8114502 C46.7978937,44.8114502 44.5951158,47.0142301 44.5951158,49.7314945 C44.5951158,52.4487589 46.7978937,54.651537 49.5151581,54.651537 L86.027841,54.651537 C88.7451054,54.651537 90.9478835,52.448759 90.9478835,49.7314945 C90.9478835,47.01423 88.7451054,44.8114502 86.027841,44.8114502 L86.027841,44.8114502 Z" id="Path" fill="#E6E6E6"></path>
            <path d="M53.6032686,13.2365691 C52.887901,13.2481852 52.3140665,13.8314132 52.3140665,14.5468751 C52.3140665,15.262337 52.887901,15.845565 53.6032686,15.857181 L59.3516802,15.857181 C59.8198074,15.8648671 60.2564753,15.6222264 60.4971953,15.2206594 C60.7379152,14.8190923 60.7461162,14.3196065 60.5187089,13.9103534 C60.2913015,13.5011003 59.8628346,13.2442552 59.3947074,13.2365691 C59.3803638,13.2363264 59.3660215,13.2363264 59.3516802,13.2365691 L53.6032686,13.2365691 Z" id="ab287899-84e3-434f-b92d-b2aaa12c9990" fill="#3F3D56"></path>
            <path d="M53.6032686,28.6622052 C52.887901,28.6738213 52.3140665,29.2570493 52.3140665,29.9725111 C52.3140665,30.687973 52.887901,31.271201 53.6032686,31.2828171 L59.3516802,31.2828171 C60.0753422,31.2946987 60.671618,30.7176867 60.6834996,29.9940247 C60.6953813,29.2703628 60.1183693,28.6740869 59.3947074,28.6622052 C59.3803638,28.6619614 59.3660215,28.6619614 59.3516802,28.6622052 L53.6032686,28.6622052 Z" id="af2a4b37-a3ed-4662-953e-6f9b285406f1" fill="#3F3D56"></path>
            <path d="M53.6032686,43.6471077 C52.8879415,43.6587799 52.3141689,44.2419913 52.3141689,44.9574137 C52.3141689,45.672836 52.8879415,46.2560474 53.6032686,46.2677196 L59.3516802,46.2677196 C60.0753422,46.2796012 60.6716181,45.7025892 60.6834997,44.9789272 C60.6953813,44.2552652 60.1183693,43.6589893 59.3947074,43.6471077 C59.3803638,43.6468661 59.3660215,43.6468661 59.3516802,43.6471077 L53.6032686,43.6471077 Z" id="ff7e389f-e1f1-4104-a8c8-8a888f7bdbd5" fill="#3F3D56"></path>
            <path d="M51.3232567,18.0106517 C50.6078891,18.0222677 50.0340546,18.6054957 50.0340546,19.3209576 C50.0340546,20.0364195 50.6078891,20.6196475 51.3232567,20.6312635 L84.1767169,20.6312635 C84.6448442,20.6389493 85.0815119,20.3963083 85.3222316,19.9947411 C85.5629513,19.5931739 85.5711519,19.0936881 85.3437443,18.6844352 C85.1163367,18.2751822 84.6878696,18.0183374 84.2197424,18.0106517 C84.2054045,18.0104101 84.1910627,18.0104101 84.1767169,18.0106517 L51.3232567,18.0106517 Z" id="ab3f55ca-45f9-4d6f-a8ad-e44fa73330dd" fill="#AB6ACB"></path>
            <path d="M51.3232567,33.215921 C50.6079296,33.2275931 50.0341569,33.8108046 50.0341569,34.5262269 C50.0341569,35.2416492 50.6079296,35.8248606 51.3232567,35.8365328 L84.1767169,35.8365328 C84.6448442,35.8442186 85.0815119,35.6015776 85.3222316,35.2000104 C85.5629513,34.7984432 85.5711519,34.2989574 85.3437443,33.8897045 C85.1163367,33.4804515 84.6878696,33.2236067 84.2197424,33.215921 C84.2054045,33.2156782 84.1910627,33.2156782 84.1767169,33.215921 L51.3232567,33.215921 Z" id="b755e68c-1f13-420d-a9db-7573ff270e8f" fill="#AB6ACB"></path>
            <path d="M51.3232567,48.4211902 C50.6079296,48.4328624 50.0341569,49.0160739 50.0341569,49.7314962 C50.0341569,50.4469185 50.6079296,51.0301299 51.3232567,51.0418021 L84.1767169,51.0418021 C84.9003789,51.0536833 85.4966545,50.4766709 85.5087158,49.7530089 C85.5204168,49.0293469 84.9434044,48.4330714 84.2197424,48.4211902 C84.2054045,48.4209475 84.1910627,48.4209475 84.1767169,48.4211902 L51.3232567,48.4211902 Z" id="f0f56a0b-ed67-4282-9bfe-4d2fc6a8304e" fill="#E6E6E6"></path>
            <circle id="Oval" fill="#AB6ACB" cx="39.1211256" cy="19.2177334" r="2.62403602"></circle>
            <polygon id="Path" fill="#FFFFFF" points="38.8776873 20.2958133 38.1132645 19.3129357 38.5577948 18.9671335 38.9198541 19.4324932 40.1425241 18.1417466 40.551492 18.5292077"></polygon>
            <circle id="Oval" fill="#AB6ACB" cx="39.1211256" cy="34.4230027" r="2.62403602"></circle>
            <polygon id="Path" fill="#FFFFFF" points="38.8776873 35.5011199 38.1132645 34.5182423 38.5577948 34.17244 38.9198541 34.6377998 40.1425241 33.3470532 40.551492 33.7345142"></polygon>
            <circle id="Oval" fill="#E6E6E6" cx="39.1211256" cy="49.6282737" r="2.62403602"></circle>
            <circle id="Oval" fill="#E6E6E6" cx="96.6367111" cy="19.2177334" r="2.62403602"></circle>
            <circle id="Oval" fill="#E6E6E6" cx="96.6367111" cy="34.4230027" r="2.62403602"></circle>
            <circle id="Oval" fill="#E6E6E6" cx="96.6367111" cy="49.6282737" r="2.62403602"></circle>
            <polygon id="Path" fill="#FFFFFF" points="38.8776873 50.7064265 38.1132645 49.7235488 38.5577948 49.3777466 38.9198541 49.8431063 40.1425241 48.5523597 40.551492 48.9396514"></polygon>
            <polygon id="Rectangle" fill="#FFFFFF" transform="translate(96.598098, 19.217734) rotate(-45.000000) translate(-96.598098, -19.217734) " points="96.443662 18.1801982 96.7525335 18.1801982 96.7525335 20.2552706 96.443662 20.2552706"></polygon>
            <polygon id="Rectangle" fill="#FFFFFF" transform="translate(96.675323, 19.217734) rotate(-45.000000) translate(-96.675323, -19.217734) " points="95.637787 19.0632983 97.7128595 19.0632983 97.7128595 19.3721698 95.637787 19.3721698"></polygon>
            <polygon id="Rectangle" fill="#FFFFFF" transform="translate(96.598097, 34.423003) rotate(-45.000000) translate(-96.598097, -34.423003) " points="96.4436612 33.3854666 96.7525327 33.3854666 96.7525327 35.4605391 96.4436612 35.4605391"></polygon>
            <polygon id="Rectangle" fill="#FFFFFF" transform="translate(96.675322, 34.423003) rotate(-45.000000) translate(-96.675322, -34.423003) " points="95.6377862 34.2685668 97.7128587 34.2685668 97.7128587 34.5774383 95.6377862 34.5774383"></polygon>
            <polygon id="Rectangle" fill="#FFFFFF" transform="translate(96.598096, 49.628273) rotate(-45.000000) translate(-96.598096, -49.628273) " points="96.4436604 48.5907368 96.7525319 48.5907368 96.7525319 50.6658093 96.4436604 50.6658093"></polygon>
            <polygon id="Rectangle" fill="#FFFFFF" transform="translate(96.675323, 49.628274) rotate(-45.000000) translate(-96.675323, -49.628274) " points="95.6377866 49.4738382 97.7128591 49.4738382 97.7128591 49.7827097 95.6377866 49.7827097"></polygon>
            <path d="M39.6259291,48.5771027 L39.6259291,48.5771027 C40.0884592,48.271119 40.3937194,47.7778602 40.4612111,47.2274013 C40.5287027,46.6769424 40.3516498,46.1245474 39.9767422,45.7158856 L37.457678,42.9700195 L35.0381056,44.1950891 L36.8900222,47.8527215 C37.1342418,48.3350678 37.5728784,48.6901166 38.0955184,48.828495 C38.6181584,48.9668734 39.1750196,48.8754009 39.6259291,48.5771027 Z" id="Path" fill="#FFB8B8"></path>
            <path d="M7.06274627,56.7319337 L7.06274627,56.7319337 C7.61361543,56.6678794 8.10876982,56.3657044 8.41763476,55.9050937 C8.72649969,55.4444829 8.81806634,54.87168 8.66818813,54.3377359 L7.66112467,50.7500785 L4.94909536,50.7500785 L4.94909536,54.8498179 C4.94909536,55.3904651 5.18004919,55.9053635 5.58381936,56.2649035 C5.98758952,56.6244436 6.5257174,56.794379 7.06274627,56.7319337 L7.06274627,56.7319337 Z" id="Path" fill="#FFB8B8"></path>
            <polygon id="Path" fill="#FFB8B8" points="22.7279444 83.7967528 27.850796 82.9932114 25.7414363 80.7832608 22.7279444 80.7832608"></polygon>
            <path d="M6.25488995,83.9975975 L11.5785101,85.4038373 C10.5979881,83.3697937 9.99418556,81.5700608 10.3731624,80.3815528 L7.86202019,80.0802154 L6.25488995,83.9975975 Z" id="Path" fill="#FFB8B8"></path>
            <polygon id="Path" fill="#575A88" points="7.35972806 80.5824178 10.4736415 81.1851162 19.0115019 53.6630185 22.6275229 81.0846947 25.9422794 81.0846947 25.6408455 42.3126786 12.7838443 42.3126786"></polygon>
            <path d="M23.7087137,85.0164677 L28.7759288,83.3496197 C29.0479534,83.2601381 29.2676028,83.0567575 29.3777121,82.7924087 C29.4878215,82.5280599 29.4775,82.2288894 29.3494338,81.9727578 L29.3494338,81.9727578 C29.1717365,81.617363 28.7979908,81.4034485 28.4015513,81.4302344 L27.2521111,81.5078994 L26.8016453,81.2543901 C26.704368,81.1996435 26.5830872,81.2125348 26.4994918,81.2865067 C26.4158963,81.3604787 26.3883414,81.4792892 26.4308427,81.5825059 L26.8462558,82.5913662 L22.6275364,82.2900288 L22.4193879,83.9552139 C22.3773803,84.2912999 22.5104277,84.6254849 22.7719355,84.8407339 C23.0334433,85.055983 23.3869725,85.1223028 23.7087137,85.0164677 Z" id="Path" fill="#575A88"></path>
            <path d="M6.58216246,85.7827193 L12.0904092,86.1398677 C12.3861108,86.159041 12.6755285,86.0486428 12.8833399,85.8374049 C13.0911513,85.6261669 13.1968019,85.3349826 13.1727956,85.0396341 L13.1727956,85.0396341 C13.1394878,84.6298253 12.8633281,84.2801076 12.4724089,84.152692 L11.3389752,83.7832594 L11.0044632,83.3658903 C10.9322263,83.27576 10.8108203,83.2412885 10.7019979,83.2800097 C10.5931755,83.3187309 10.5208312,83.4221427 10.5217626,83.537645 L10.5308615,84.6665859 L6.59738826,82.7477663 L5.75436917,84.2659041 C5.58421663,84.5723131 5.58285021,84.9445194 5.75074847,85.2521694 C5.91864673,85.5598195 6.23241372,85.7600435 6.58216246,85.7827193 Z" id="Path" fill="#575A88"></path>
            <circle id="Oval" fill="#FFB8B8" cx="18.3083718" cy="16.8998763" r="3.71648994"></circle>
            <path d="M15.8976747,23.7301849 L21.0204062,23.7301849 L21.0204062,18.8083456 L15.8976747,18.8083456 C16.3210132,20.3283818 16.266281,21.9845847 15.8976747,23.7301849 Z" id="Path" fill="#FFB8B8"></path>
            <path d="M12.0807396,42.8148657 L26.1431376,43.0157562 L27.5493774,28.1592103 C27.5493774,26.1718507 26.2836193,24.4052068 24.4018253,23.7661063 L22.2257556,23.027065 L21.0204079,21.6208252 C19.4985919,21.2919575 17.8428072,21.3716782 16.0985686,21.7212704 L14.792774,23.629738 L13.3866189,24.0785121 C11.4235101,24.7050403 10.1116735,26.5547089 10.1695269,28.61456 C11.2158666,34.0190627 12.0294857,39.0419958 12.0807396,42.8148657 Z" id="Path" fill="#AB6ACB"></path>
            <path d="M4.4468659,50.7500751 L7.9624654,51.1518577 L11.9802927,34.9800999 L12.3820769,24.5337483 L12.2634525,24.5911562 C10.377972,25.5034849 9.03217038,27.2504121 8.63102879,29.3062492 L4.4468659,50.7500751 Z" id="Path" fill="#AB6ACB"></path>
            <path d="M35.1832477,44.7233333 L37.8952821,43.4175387 L29.9405863,28.5742424 C28.7853216,26.4185424 26.9072734,24.7389596 24.6364543,23.8306318 L24.6364543,23.8306318 L26.1431393,33.2725262 L35.1832477,44.7233333 Z" id="Path" fill="#AB6ACB"></path>
            <path d="M16.011339,20.2449235 C16.011339,20.2449235 19.6556914,20.0287887 19.7345841,19.3984312 C19.8134768,18.7680737 20.3455669,17.3301274 20.9759244,17.4090184 C21.6062819,17.4879094 23.3532486,15.3865191 22.9791048,14.5394036 C22.6049611,13.692288 20.8390785,10.5734382 17.2339396,12.0109153 C13.6288006,13.4483925 14.041931,17.053379 14.4160833,17.9004928 C14.7902355,18.7476067 16.011339,20.2449235 16.011339,20.2449235 Z" id="Path" fill="#2F2E41"></path>
            <path d="M105.200226,65.7985277 C105.118336,65.7986312 105.046659,65.8535604 105.025267,65.9326065 L104.732539,67.0198767 C104.717871,67.0743128 104.729376,67.1324749 104.763665,67.1772265 C104.797954,67.221978 104.85112,67.2482197 104.907498,67.2482197 L110.474526,67.2482197 C110.533141,67.2482197 110.588134,67.2198616 110.622125,67.1721085 C110.656115,67.1243554 110.664903,67.0631082 110.64571,67.0077245 L110.269364,65.920456 C110.244075,65.8474925 110.175345,65.798555 110.098123,65.7985277 L105.200226,65.7985277 Z" id="Path" fill="#AB6ACB"></path>
            <path d="M97.0716718,65.7985277 C96.9897822,65.7986312 96.9181054,65.8535604 96.8967131,65.9326065 L96.6039853,67.0198767 C96.589317,67.0743128 96.6008224,67.1324749 96.6351115,67.1772265 C96.6694006,67.221978 96.7225662,67.2482197 96.7789439,67.2482197 L102.345972,67.2482197 C102.404587,67.2482197 102.45958,67.2198616 102.493571,67.1721085 C102.527561,67.1243554 102.536349,67.0631082 102.517156,67.0077245 L102.140811,65.920456 C102.115521,65.8474925 102.046791,65.798555 101.969569,65.7985277 L97.0716718,65.7985277 Z" id="Path" fill="#AB6ACB"></path>
        </g>
    </g>
</svg>