<?xml version="1.0" encoding="UTF-8"?>
<svg width="137px" height="137px" viewBox="0 0 137 137" version="1.1" xmlns="http://www.w3.org/2000/svg" xmlns:xlink="http://www.w3.org/1999/xlink">
    <title>beyond_illustration</title>
    <g id="beyond_illustration" stroke="none" stroke-width="1" fill="none" fill-rule="evenodd">
        <g id="undraw_buy_house_560d-(5)" transform="translate(-765.000000, 87.000000)"></g>
        <g id="undraw_forming_ideas_0pav" transform="translate(0.000000, 19.000000)" fill-rule="nonzero">
            <path d="M49.2484051,27.3671073 C46.6703421,30.0444142 43.0899215,31.5213008 39.3740365,31.4401826 C35.6581515,31.3590643 32.1455923,29.7273371 29.6868215,26.9400754 L0,55.0402493 L41.7455133,99.1428825 L81.5366209,61.4784458 L49.2484051,27.3671073 Z" id="Path" fill="#F2F2F2"></path>
            <path d="M39.6398385,28.6653143 C42.8056033,28.669105 45.8357095,27.3803514 48.0288491,25.0973228 L39.7507705,16.3518295 L30.9063636,24.7235307 C33.1149954,27.2325398 36.2972095,28.6688034 39.6398385,28.6653143 Z" id="Path" fill="#F2F2F2"></path>
            <path d="M104.805918,41.4553762 C104.811535,47.0030928 102.610205,52.325207 98.6873749,56.248037 C94.7645448,60.1708671 89.4424307,62.3721971 83.8947141,62.3665803 C83.7755836,62.3665803 83.6564532,62.3653022 83.5373228,62.3627675 C83.0354541,62.3551635 82.5399222,62.3298166 82.046925,62.2867268 C70.7817864,61.2879432 62.3517941,51.5141855 63.017964,40.224494 C63.6841339,28.9348026 73.2050631,20.2202734 84.5094889,20.5532503 C95.8139147,20.8862271 104.805402,30.1460475 104.805918,41.4553762 L104.805918,41.4553762 Z" id="Path" fill="#AB6ACB"></path>
            <path d="M96.0130675,33.8880564 C97.3239754,31.5763053 98.1795921,29.0346962 98.5336013,26.4008112 C92.8621373,20.9332125 84.5991482,19.116996 77.1576353,21.7023441 C69.7161223,24.2876923 64.3590899,30.8358091 63.299243,38.642016 C66.7337314,41.9621221 71.204913,44.0010412 75.9636586,44.4171603 C76.4566723,44.4602501 76.9521878,44.485597 77.4540564,44.493201 C77.5731944,44.4957357 77.6923274,44.497015 77.8114553,44.497015 C85.3487393,44.505035 92.3053333,40.4503317 96.0130649,33.8880577 L96.0130675,33.8880564 Z" id="Path" fill="#000000" opacity="0.1"></path>
            <rect id="Rectangle" fill="#2F2E41" x="59.5616904" y="61.8596303" width="33.5846438" height="37.5134135"></rect>
            <path d="M103.90229,49.2622179 C101.265355,55.4524615 95.8139106,59.9980822 89.2505143,61.4794242 L93.90674,61.4794242 L93.90674,98.9928377 L62.9302922,98.9928377 L80.3144643,68.8819867 L84.2977298,61.9825602 L84.5879518,61.4794242 L97.7721424,38.6444011 L103.90229,49.2622179 Z" id="Path" fill="#000000" opacity="0.1"></path>
            <polygon id="Path" fill="#3F3D56" points="102.081095 38.8978612 119.538773 69.1354468 136.996451 99.3730324 102.081095 99.3730324 67.1657391 99.3730324 84.6234172 69.1354468"></polygon>
            <rect id="Rectangle" fill="#2F2E41" x="4.68564967" y="99.1195748" width="132.310823" height="1"></rect>
            <polygon id="Path" fill="#9F616A" points="21.7356013 93.3824191 21.5043108 95.3100509 20.1934958 95.9268677 18.728445 95.46416 17.7261018 95.9268677 17.4177567 94.1534718 19.1911526 92.1486586"></polygon>
            <path d="M20.8103228,94.8473597 C20.8103228,94.8473597 22.0057524,93.4537288 22.0248766,94.1505442 C22.0440008,94.8473597 24.6655674,97.2376117 24.6655674,97.2376117 C24.6655674,97.2376117 28.7521216,98.4712898 25.5908257,99.2423387 C22.4295297,100.013388 15.4900856,97.7773461 15.258771,97.314717 C15.0274565,96.8520879 17.1863927,93.3052618 17.4177073,93.6136816 C17.6490218,93.9221015 18.8055984,95.0015702 20.8103228,94.8473597 Z" id="Path" fill="#2F2E41"></path>
            <path d="M23.7403118,71.9472064 C23.7403118,71.9472064 24.2029409,75.5711365 23.7403118,76.1108709 C23.2776827,76.6506053 23.5089972,77.730074 23.7403118,77.8842833 C23.9716263,78.0384926 23.431892,78.655336 23.0463669,78.963752 C22.6608418,79.2721681 22.1211086,80.6600604 22.1211086,80.6600604 C22.1211086,80.6600604 20.0392764,86.1345069 20.0392764,86.6742464 C20.0392764,87.2139858 19.1140182,88.3705548 19.1911222,88.7560786 C19.2682262,89.1416024 18.6513878,90.3752817 18.7284931,90.6065963 C18.8055984,90.8379108 17.7261296,92.9197431 18.0345495,93.2281629 C18.3429693,93.5365827 22.5837378,94.6160502 22.3524232,93.9221065 C22.1211086,93.2281629 21.9668968,92.3800087 22.1211086,92.3800087 C22.2753205,92.3800087 22.9692628,91.5318545 22.8150523,91.2234359 C22.6608418,90.9150174 27.4413459,82.8190017 27.4413459,82.8190017 L23.7403118,71.9472064 Z" id="Path" fill="#2F2E41"></path>
            <path d="M20.8103228,94.8473597 C20.8103228,94.8473597 22.0057524,93.4537288 22.0248766,94.1505442 C22.0440008,94.8473597 24.6655674,97.2376117 24.6655674,97.2376117 C24.6655674,97.2376117 28.7521216,98.4712898 25.5908257,99.2423387 C22.4295297,100.013388 15.4900856,97.7773461 15.258771,97.314717 C15.0274565,96.8520879 17.1863927,93.3052618 17.4177073,93.6136816 C17.6490218,93.9221015 18.8055984,95.0015702 20.8103228,94.8473597 Z" id="Path" fill="#000000" opacity="0.1"></path>
            <path d="M23.7403118,71.9472064 C23.7403118,71.9472064 24.2029409,75.5711365 23.7403118,76.1108709 C23.2776827,76.6506053 23.5089972,77.730074 23.7403118,77.8842833 C23.9716263,78.0384926 23.431892,78.655336 23.0463669,78.963752 C22.6608418,79.2721681 22.1211086,80.6600604 22.1211086,80.6600604 C22.1211086,80.6600604 20.0392764,86.1345069 20.0392764,86.6742464 C20.0392764,87.2139858 19.1140182,88.3705548 19.1911222,88.7560786 C19.2682262,89.1416024 18.6513878,90.3752817 18.7284931,90.6065963 C18.8055984,90.8379108 17.7261296,92.9197431 18.0345495,93.2281629 C18.3429693,93.5365827 22.5837378,94.6160502 22.3524232,93.9221065 C22.1211086,93.2281629 21.9668968,92.3800087 22.1211086,92.3800087 C22.2753205,92.3800087 22.9692628,91.5318545 22.8150523,91.2234359 C22.6608418,90.9150174 27.4413459,82.8190017 27.4413459,82.8190017 L23.7403118,71.9472064 Z" id="Path" fill="#000000" opacity="0.1"></path>
            <polygon id="Path" fill="#9F616A" points="31.6050509 92.4251933 32.4531582 94.5841156 32.0676318 97.5911452 29.6002377 97.4370361 28.2123682 96.2032757 28.2123682 93.5817724"></polygon>
            <path d="M31.1423812,95.0467219 C31.1423812,95.0467219 31.9905354,92.270946 32.4531683,93.0419899 C32.7462318,93.5371954 33.0038926,94.0525145 33.2242211,94.5840878 C33.2242211,94.5840878 37.0023604,97.0514451 38.0047239,97.0514451 C39.0070874,97.0514451 39.9323468,98.2851231 38.6215635,98.7477522 C37.3107802,99.2103813 27.2871442,99.827221 27.1329349,98.7477522 C26.9787256,97.6682835 27.2871442,94.1985639 27.7497733,94.5840878 C28.2124024,94.9696116 30.6026468,95.8177709 31.1423812,95.0467219 Z" id="Path" fill="#2F2E41"></path>
            <path d="M33.0700029,60.8892546 C33.0700029,60.8892546 36.4685344,63.1987603 36.6227437,63.5071801 C36.776953,63.8155999 38.7488848,64.7638795 37.1296817,65.5349322 C35.5104786,66.3059849 31.2194865,61.4289877 31.2194865,61.4289877 L33.0700029,60.8892546 Z" id="Path" fill="#9F616A"></path>
            <path d="M31.3736958,56.4171703 C31.3736958,56.4171703 33.8410518,61.1976744 33.3784227,61.3518837 C32.9157936,61.506093 31.0652759,62.4313524 31.0652759,62.4313524 L30.217123,57.5737456 L31.3736958,56.4171703 Z" id="Path" fill="#575A88"></path>
            <path d="M31.3736958,56.4171703 C31.3736958,56.4171703 33.8410518,61.1976744 33.3784227,61.3518837 C32.9157936,61.506093 31.0652759,62.4313524 31.0652759,62.4313524 L30.217123,57.5737456 L31.3736958,56.4171703 Z" id="Path" fill="#000000" opacity="0.1"></path>
            <path d="M31.2194865,60.4266255 C31.2194865,60.4266255 31.7592209,64.4360794 31.5279051,65.2842323 C31.2965892,66.1323853 31.6821156,78.8546932 31.3736958,79.5486381 C31.0652759,80.242583 30.8339614,84.7146648 30.8339614,85.2543992 C30.8339614,85.7941335 31.450801,90.1891125 31.6050141,90.5746376 C31.7592272,90.9601627 32.2218538,92.2709448 31.9905405,92.8877844 C31.7592272,93.5046241 28.597925,95.0467207 28.1352959,94.5069863 C27.6726668,93.9672519 28.0581906,92.2709448 27.6726655,92.1938395 C27.2871404,92.1167342 26.8245126,88.4928054 26.8245126,88.4928054 L24.2800512,74.3055112 C24.2800512,74.3055112 19.4995471,62.4313575 20.5790159,61.2747835 C21.6584846,60.1182095 31.2194865,60.4266255 31.2194865,60.4266255 Z" id="Path" fill="#2F2E41"></path>
            <circle id="Oval" fill="#9F616A" cx="28.3666053" cy="29.2762473" r="3.77813936"></circle>
            <path d="M29.7544926,32.3604443 C29.7544926,32.3604443 28.5208146,35.5988493 28.6750252,36.2927929 C28.8292357,36.9867366 25.0510951,35.0591149 25.0510951,35.0591149 C25.0510951,35.0591149 25.2824096,31.2809755 25.0510951,30.2786121 C24.8197805,29.2762486 29.7544926,32.3604443 29.7544926,32.3604443 Z" id="Path" fill="#9F616A"></path>
            <path d="M19.3946895,53.4571123 C19.4116327,54.1040235 19.4224368,54.4895486 19.4224368,54.4895486 C19.4224368,54.4895486 19.1911222,58.0363734 19.5766473,59.1929475 C19.9621724,60.3495215 19.9621737,61.1976744 20.1934857,61.9687233 C20.2613292,62.1930966 21.1842961,62.3133791 22.4804098,62.3665822 C23.6693797,62.4151583 25.1721531,62.4082221 26.6147834,62.375062 C29.0034906,62.3195523 31.2302906,62.1915568 31.6050091,62.1229326 C32.4531633,61.9687233 31.4507998,60.65794 31.7592196,59.9639964 C32.0676394,59.2700527 31.2194852,50.4029894 31.2194852,50.4029894 C31.2194852,50.4029894 31.2965892,45.3911708 30.9110654,43.4635491 C30.5255416,41.5359274 29.060549,38.4517355 28.7521292,38.0662091 C28.4437093,37.6806828 28.6750252,37.4493695 29.3689688,36.9867404 C30.0629125,36.5241113 29.3689688,34.7506976 29.3689688,34.7506976 C28.0581855,33.6712301 24.7426753,33.5170196 24.7426753,33.5170196 C24.7426753,33.5170196 19.6537526,38.7601528 19.3453328,39.8396215 C19.1587441,40.491924 19.2258221,45.7026753 19.3075519,49.7260079 C19.3391583,51.2395753 19.3723272,52.5858278 19.3946895,53.4571123 Z" id="Path" fill="#575A88"></path>
            <path d="M25.899248,63.0481921 C25.899248,63.0481921 28.8292344,69.062378 26.5160877,69.4478981 C24.2029409,69.8334181 23.0463669,63.9734503 23.0463669,63.9734503 L25.899248,63.0481921 Z" id="Path" fill="#9F616A"></path>
            <path d="M31.8992993,27.3612129 C32.0329078,26.7132194 31.5376775,26.1074779 31.0160992,25.7004041 C29.880201,24.8194477 28.482722,24.3428964 27.045246,24.3462936 C26.0340923,24.3518045 24.9905261,24.6192853 24.2262714,25.2813869 C23.3348488,26.0536563 22.9282199,27.2921058 23.0030642,28.4691488 C23.0779085,29.6461917 23.5898107,30.762568 24.2802946,31.7187482 C24.6116913,32.1776678 25.1439256,32.652727 25.6734794,32.4527159 C25.8806897,32.3557031 26.0584952,32.2055187 26.1887958,32.0174513 C26.5284623,31.5959957 26.8244366,31.1411252 27.0721606,30.6598447 C27.2616845,30.2915542 27.4258513,29.9033791 27.6944588,29.5880953 C27.9630662,29.2728115 28.3667587,29.0356875 28.7770629,29.0923036 C29.1159877,29.1390686 29.4484504,29.3776577 29.7717045,29.2655649 C30.1313339,29.1408581 30.2182674,28.6809855 30.2468676,28.3014232 C30.2782167,27.8853868 30.256014,27.4034662 30.3715363,27.0101254 C30.4978894,27.0775862 31.8372044,27.6716985 31.8992993,27.3612129 Z" id="Path" fill="#2F2E41"></path>
            <path d="M19.3946895,53.4571123 C20.2582584,56.5713809 22.2390807,61.8199117 22.3524194,62.0458273 C22.3809575,62.1036563 22.4256656,62.2169988 22.4804073,62.3665822 C23.6693772,62.4151583 25.1721506,62.4082221 26.6147809,62.375062 C26.3911642,61.7906107 26.1305588,61.2262023 26.1305588,61.0434626 C26.1305588,60.6579362 24.2800423,50.7114067 24.2800423,50.7114067 C24.2800423,50.7114067 25.7450349,46.316429 27.0558182,42.6153936 C28.3666015,38.9143583 23.1620273,39.6468546 23.1620273,39.6468546 C20.3862514,38.9529109 19.8850697,40.1480363 19.8850697,40.1480363 C19.8850697,40.1480363 19.6406533,46.6479791 19.3075545,49.7260041 C19.2219593,50.5147908 19.1309816,51.0784273 19.0369155,51.2511411 C18.9135369,51.4770593 19.0800965,52.3267559 19.3946895,53.4571123 Z" id="Path" fill="#000000" opacity="0.1"></path>
            <path d="M24.2800462,37.1409471 C24.2800462,37.1409471 27.826871,38.6059397 26.5160877,42.3069751 C25.2053044,46.0080104 23.7403118,50.4029894 23.7403118,50.4029894 C23.7403118,50.4029894 25.5908282,60.3495202 25.5908282,60.7350453 C25.5908282,61.1205704 26.7474073,63.2024014 26.2847731,63.5879252 C25.8221389,63.973449 22.7379483,64.7445043 22.660843,64.3589779 C22.5837378,63.9734516 21.9668994,62.0458311 21.8126888,61.7374126 C21.6584783,61.428994 18.0345495,51.7908805 18.4971786,50.9427276 C18.8376217,50.3185805 19.1363108,44.6003639 19.2703376,41.6234008 C19.3333453,39.8954937 20.3033317,38.3290315 21.8220621,37.5025384 C22.5409446,37.1215301 23.3779183,36.9154155 24.2800462,37.1409471 Z" id="Path" fill="#575A88"></path>
            <rect id="Rectangle" fill="#AB6ACB" x="33.9613203" y="59.7051437" width="4.56244218" height="4.56244218"></rect>
            <circle id="Oval" fill="#3F3D56" cx="36.2425414" cy="58.3110641" r="1.39407956"></circle>
            <circle id="Oval" fill="#FF6584" cx="90.123369" cy="7.09906372" r="6.88360492"></circle>
            <path d="M90.1047048,11.8008239 C90.1047048,16.9944888 87.0171545,18.8079214 83.208467,18.8079214 C79.3997796,18.8079214 76.3122292,16.9944888 76.3122292,11.8008239 C76.3122292,6.60715895 83.208467,1.80100564e-15 83.208467,1.80100564e-15 C83.208467,1.80100564e-15 90.1047048,6.60715641 90.1047048,11.8008239 Z" id="Path" fill="#F2F2F2"></path>
            <polygon id="Path" fill="#3F3D56" points="82.9572387 18.0134089 83.0278298 13.6667956 85.9671832 8.28945051 83.0389824 12.9849639 83.070666 11.0305911 85.0965171 7.14009528 83.0791573 10.5133876 83.0791573 10.5133876 83.1361878 6.99827937 85.3055023 3.90088807 83.1451859 6.44546346 83.1807983 0 82.956605 8.53265402 82.9751082 8.18058557 80.7695476 4.80475856 82.9397493 8.85633395 82.7341859 12.7821887 82.7281027 12.6778862 80.185555 9.12526457 82.7203719 13.04605 82.6946448 13.5370194 82.6900823 13.54437 82.6922368 13.5846716 82.1708511 23.5447364 82.8673839 23.5447364 82.9510287 18.4002026 85.4796355 14.489049"></polygon>
            <path d="M106.721782,19.5637191 C105.073929,24.4890339 101.570539,25.2291482 97.9586423,24.0207182 C94.3467457,22.8122882 91.9940907,20.1129358 93.6419384,15.187621 C95.289786,10.2623063 103.926038,6.18457414 103.926038,6.18457414 C103.926038,6.18457414 108.369634,14.6384031 106.721782,19.5637191 Z" id="Path" fill="#F2F2F2"></path>
            <polygon id="Path" fill="#3F3D56" points="97.9724894 23.1875985 99.4185301 19.0879907 103.912155 14.9209602 99.6453848 18.4448131 100.29566 16.6014598 103.451095 13.5547623 100.467638 16.1136586 100.467638 16.1136586 101.637144 12.798284 104.676998 10.5492535 101.821036 12.2768982 103.899862 6.17577243 100.980026 14.1964191 101.109168 13.8684302 100.088702 9.96728862 100.861149 14.4980472 99.4206846 18.1558585 99.4480592 18.0551045 98.1639852 13.8793293 99.3238594 18.4017234 99.1437697 18.8591082 99.1370527 18.8646846 99.1262803 18.903592 95.4716374 28.1835994 96.1323043 28.4046244 97.8438538 23.5523404 101.482782 20.6455578"></polygon>
            <path d="M72.4909595,15.6005892 C74.3588018,20.4467532 72.1300197,23.2492561 68.5761611,24.6190065 C65.0223025,25.9887568 61.4891587,25.4070606 59.6213164,20.5608966 C57.7534741,15.7147326 61.8121036,7.06949276 61.8121036,7.06949276 C61.8121036,7.06949276 70.6231173,10.754424 72.4909595,15.6005892 Z" id="Path" fill="#F2F2F2"></path>
            <polygon id="Path" fill="#3F3D56" points="68.056049 23.9680296 66.5586809 19.8867983 67.3675005 13.81216 66.3238418 19.2466623 65.6505014 17.4115467 66.1415976 13.0527669 65.4724394 16.9259001 65.4724394 16.9259001 64.2614912 13.6254801 65.1716984 9.95524884 64.071136 13.1065023 61.7863663 7.07938945 64.6457502 15.1218344 64.5363784 14.7867484 61.2643469 12.4298668 64.7463774 15.429926 65.9664505 19.1669463 65.9233608 19.0718955 62.2732803 16.6714172 66.0485745 19.4181341 66.2011628 19.885531 66.1995153 19.8940222 66.2159907 19.9309019 69.311481 29.412037 69.9615023 29.1616096 68.189247 24.331124 69.1421637 19.7723571"></polygon>
            <path d="M57.8447901,56.7775449 C57.4174781,57.4591725 56.863059,57.4431419 56.3631979,57.1297794 C55.8633367,56.8164169 55.6073216,56.3243816 56.0346336,55.6427591 C56.4619456,54.9611366 57.9106325,54.6613854 57.9106325,54.6613854 C57.9106325,54.6613854 58.2721021,56.0959199 57.8447901,56.7775449 Z" id="Path" fill="#AB6ACB"></path>
            <path d="M108.808553,36.348897 C108.887628,37.1494966 108.439294,37.4760458 107.852188,37.5340332 C107.265081,37.5920206 106.761527,37.3594906 106.682453,36.558891 C106.603378,35.7582914 107.565833,34.6348078 107.565833,34.6348078 C107.565833,34.6348078 108.729471,35.5482974 108.808553,36.348897 Z" id="Path" fill="#AB6ACB"></path>
            <path d="M55.5716458,42.2605408 C55.1443338,42.9421684 54.5899147,42.9261378 54.0900548,42.6127753 C53.5901949,42.2994128 53.3341773,41.8073838 53.7614893,41.125755 C54.1888013,40.4441261 55.6374882,40.14438 55.6374882,40.14438 C55.6374882,40.14438 55.9989578,41.5789094 55.5716458,42.2605408 Z" id="Path" fill="#AB6ACB"></path>
        </g>
    </g>
</svg>