<?xml version="1.0" encoding="UTF-8"?>
<svg width="137px" height="137px" viewBox="0 0 137 137" version="1.1" xmlns="http://www.w3.org/2000/svg" xmlns:xlink="http://www.w3.org/1999/xlink">
    <title>Celebrate_illustration</title>
    <defs>
        <linearGradient x1="50%" y1="100%" x2="50%" y2="0%" id="linearGradient-1">
            <stop stop-color="#808080" stop-opacity="0.25" offset="0%"></stop>
            <stop stop-color="#808080" stop-opacity="0.12" offset="54%"></stop>
            <stop stop-color="#808080" stop-opacity="0.1" offset="100%"></stop>
        </linearGradient>
        <linearGradient x1="50%" y1="100%" x2="50%" y2="0%" id="linearGradient-2">
            <stop stop-color="#000000" stop-opacity="0.12" offset="0%"></stop>
            <stop stop-color="#000000" stop-opacity="0.09" offset="55%"></stop>
            <stop stop-color="#000000" stop-opacity="0.02" offset="100%"></stop>
        </linearGradient>
        <linearGradient x1="50%" y1="-512.903226%" x2="50%" y2="-512.903226%" id="linearGradient-3">
            <stop stop-color="#000000" stop-opacity="0.12" offset="0%"></stop>
            <stop stop-color="#000000" stop-opacity="0.09" offset="55%"></stop>
            <stop stop-color="#000000" stop-opacity="0.02" offset="100%"></stop>
        </linearGradient>
        <linearGradient x1="0%" y1="50%" x2="100%" y2="50%" id="linearGradient-4">
            <stop stop-color="#000000" stop-opacity="0.12" offset="0%"></stop>
            <stop stop-color="#000000" stop-opacity="0.09" offset="55%"></stop>
            <stop stop-color="#000000" stop-opacity="0.02" offset="100%"></stop>
        </linearGradient>
        <linearGradient x1="0%" y1="50%" x2="100%" y2="50%" id="linearGradient-5">
            <stop stop-color="#808080" stop-opacity="0.25" offset="0%"></stop>
            <stop stop-color="#808080" stop-opacity="0.12" offset="54%"></stop>
            <stop stop-color="#808080" stop-opacity="0.1" offset="100%"></stop>
        </linearGradient>
        <linearGradient x1="50%" y1="100%" x2="50%" y2="0%" id="linearGradient-6">
            <stop stop-color="#808080" stop-opacity="0.25" offset="0%"></stop>
            <stop stop-color="#808080" stop-opacity="0.12" offset="54%"></stop>
            <stop stop-color="#808080" stop-opacity="0.1" offset="100%"></stop>
        </linearGradient>
        <linearGradient x1="49.9999919%" y1="100%" x2="49.9999919%" y2="0.00754538225%" id="linearGradient-7">
            <stop stop-color="#808080" stop-opacity="0.25" offset="0%"></stop>
            <stop stop-color="#808080" stop-opacity="0.12" offset="54%"></stop>
            <stop stop-color="#808080" stop-opacity="0.1" offset="100%"></stop>
        </linearGradient>
    </defs>
    <g id="Celebrate_illustration" stroke="none" stroke-width="1" fill="none" fill-rule="evenodd">
        <g id="undraw_buy_house_560d-(5)" transform="translate(-765.000000, 87.000000)"></g>
        <g id="undraw_welcome_3gvl" transform="translate(0.000000, 11.000000)" fill-rule="nonzero">
            <rect id="Rectangle" fill="#AB6ACB" opacity="0.2" x="10.890553" y="0" width="115.376728" height="115.376728"></rect>
            <rect id="Rectangle" fill="#AB6ACB" opacity="0.5" x="28.2523041" y="10.7721774" width="80.4953917" height="93.9902074"></rect>
            <rect id="Rectangle" fill="url(#linearGradient-1)" x="93.9112903" y="16.5725806" width="43.0887097" height="82.8629032"></rect>
            <rect id="Rectangle" fill="url(#linearGradient-1)" x="0" y="16.8882488" width="43.0887097" height="82.8629032"></rect>
            <rect id="Rectangle" fill="#AB6ACB" x="95.3317972" y="17.8352535" width="40.2476959" height="79.8640553"></rect>
            <rect id="Rectangle" fill="#AB6ACB" transform="translate(21.544355, 57.767281) rotate(-180.000000) translate(-21.544355, -57.767281) " x="1.42050691" y="17.8352535" width="40.2476959" height="79.8640553"></rect>
            <rect id="Rectangle" fill="url(#linearGradient-2)" x="8.04953917" y="25.0956221" width="26.9896313" height="4.89285714"></rect>
            <rect id="Rectangle" fill="url(#linearGradient-2)" x="102.118664" y="32.5138249" width="26.9896313" height="4.89285714"></rect>
            <rect id="Rectangle" fill="url(#linearGradient-2)" x="101.960829" y="40.0898618" width="26.9896313" height="4.89285714"></rect>
            <rect id="Rectangle" fill="url(#linearGradient-2)" x="101.960829" y="47.6658986" width="26.9896313" height="4.89285714"></rect>
            <rect id="Rectangle" fill="url(#linearGradient-2)" x="101.960829" y="55.2419355" width="26.9896313" height="4.89285714"></rect>
            <rect id="Rectangle" fill="url(#linearGradient-2)" x="101.960829" y="62.8179724" width="26.9896313" height="4.89285714"></rect>
            <rect id="Rectangle" fill="url(#linearGradient-2)" x="101.960829" y="70.3940092" width="26.9896313" height="4.89285714"></rect>
            <rect id="Rectangle" fill="url(#linearGradient-2)" x="101.960829" y="77.9700461" width="26.9896313" height="4.89285714"></rect>
            <rect id="Rectangle" fill="url(#linearGradient-2)" x="101.960829" y="85.5460829" width="26.9896313" height="4.89285714"></rect>
            <rect id="Rectangle" fill="url(#linearGradient-3)" x="101.960829" y="25.0956221" width="26.9896313" height="4.89285714"></rect>
            <rect id="Rectangle" fill="url(#linearGradient-4)" x="8.04953917" y="32.8294931" width="26.9896313" height="4.89285714"></rect>
            <rect id="Rectangle" fill="url(#linearGradient-4)" x="8.04953917" y="40.2476959" width="26.9896313" height="4.89285714"></rect>
            <rect id="Rectangle" fill="url(#linearGradient-4)" x="8.04953917" y="47.6658986" width="26.9896313" height="4.89285714"></rect>
            <rect id="Rectangle" fill="url(#linearGradient-4)" x="8.04953917" y="55.2419355" width="26.9896313" height="4.89285714"></rect>
            <rect id="Rectangle" fill="url(#linearGradient-4)" x="8.04953917" y="62.8179724" width="26.9896313" height="4.89285714"></rect>
            <rect id="Rectangle" fill="#FFFFFF" x="8.68087558" y="25.7269585" width="25.8847926" height="3.78801843"></rect>
            <rect id="Rectangle" fill="#FFFFFF" x="8.60195853" y="33.1451613" width="25.8847926" height="3.78801843"></rect>
            <rect id="Rectangle" fill="#FFFFFF" x="8.60195853" y="40.7211982" width="25.8847926" height="3.78801843"></rect>
            <rect id="Rectangle" fill="#FFFFFF" x="8.60195853" y="48.297235" width="25.8847926" height="3.78801843"></rect>
            <rect id="Rectangle" fill="#FFFFFF" x="8.60195853" y="55.8732719" width="25.8847926" height="3.78801843"></rect>
            <rect id="Rectangle" fill="#FFFFFF" x="8.60195853" y="63.4493088" width="25.8847926" height="3.78801843"></rect>
            <rect id="Rectangle" fill="url(#linearGradient-4)" x="8.04953917" y="70.3940092" width="26.9896313" height="4.89285714"></rect>
            <rect id="Rectangle" fill="#FFFFFF" x="8.60195853" y="71.0253456" width="25.8847926" height="3.78801843"></rect>
            <rect id="Rectangle" fill="#FFFFFF" x="8.60195853" y="71.0253456" width="25.8847926" height="3.78801843"></rect>
            <rect id="Rectangle" fill="#FFFFFF" x="8.60195853" y="78.6013825" width="25.8847926" height="3.78801843"></rect>
            <rect id="Rectangle" fill="#FFFFFF" x="8.60195853" y="86.1774194" width="25.8847926" height="3.78801843"></rect>
            <rect id="Rectangle" fill="#FFFFFF" x="102.592166" y="25.5691244" width="25.8847926" height="3.78801843"></rect>
            <rect id="Rectangle" fill="#FFFFFF" x="102.592166" y="33.1451613" width="25.8847926" height="3.78801843"></rect>
            <rect id="Rectangle" fill="#FFFFFF" x="102.592166" y="40.7211982" width="25.8847926" height="3.78801843"></rect>
            <rect id="Rectangle" fill="#FFFFFF" x="102.592166" y="48.297235" width="25.8847926" height="3.78801843"></rect>
            <rect id="Rectangle" fill="#FFFFFF" x="102.592166" y="55.8732719" width="25.8847926" height="3.78801843"></rect>
            <rect id="Rectangle" fill="#FFFFFF" x="102.592166" y="63.4493088" width="25.8847926" height="3.78801843"></rect>
            <rect id="Rectangle" fill="#FFFFFF" x="102.592166" y="71.0253456" width="25.8847926" height="3.78801843"></rect>
            <rect id="Rectangle" fill="#FFFFFF" x="102.592166" y="78.6013825" width="25.8847926" height="3.78801843"></rect>
            <rect id="Rectangle" fill="#FFFFFF" x="102.592166" y="86.1774194" width="25.8847926" height="3.78801843"></rect>
            <rect id="Rectangle" fill="url(#linearGradient-5)" x="20.8341014" y="101.802995" width="95.1739631" height="5.99769585"></rect>
            <rect id="Rectangle" fill="#AB6ACB" x="21.6232719" y="102.434332" width="93.7534562" height="4.73502304"></rect>
            <rect id="Rectangle" fill="url(#linearGradient-6)" x="21.1497696" y="7.89170507" width="95.016129" height="6.15552995"></rect>
            <rect id="Rectangle" fill="#AB6ACB" x="21.6232719" y="8.36520737" width="93.7534562" height="4.73502304"></rect>
            <rect id="Rectangle" fill="#263238" opacity="0.5" x="45.6140553" y="17.8352535" width="46.0875576" height="79.8640553"></rect>
            <path d="M104.116843,52.5666475 C105.221682,54.0471313 103.567581,55.7959332 103.567581,55.7959332 L103.845369,55.892212 C103.436578,56.3451959 101.821935,58.3891475 95.5969585,67.6350691 C87.6263364,79.4726267 76.8857258,82.4257028 76.8857258,82.4257028 L76.8857258,82.4257028 C75.5806842,81.4060824 74.096161,80.6399978 72.5089862,80.1670968 L72.5089862,79.0496313 C76.6254112,77.8355536 79.8861084,74.6821705 81.237212,70.6086636 C82.187527,68.7275103 82.6817204,66.6490863 82.6798157,64.5415207 C82.6798157,56.9654839 76.4027535,50.819424 68.6609908,50.819424 C60.9192281,50.819424 54.6421659,56.9639055 54.6421659,64.5415207 C54.6402612,66.6490863 55.1344546,68.7275103 56.0847696,70.6086636 C57.4358732,74.6821705 60.6965703,77.8355536 64.8129954,79.0496313 L64.8129954,80.1670968 C63.2258206,80.6399978 61.7412974,81.4060824 60.4362558,82.4257028 L60.4362558,82.4257028 C60.4362558,82.4257028 49.6909101,79.46947 41.720288,67.6319124 C35.4953111,58.3859908 33.8806682,56.3404608 33.4718779,55.8890553 L33.7496659,55.7927765 C33.7496659,55.7927765 32.1002995,54.0439747 33.2004032,52.5634908 C34.3005069,51.0830069 25.9163594,49.3342051 26.8775691,52.5634908 C27.8387788,55.7927765 29.0761982,57.4074194 29.0761982,57.4074194 C29.0761982,57.4074194 46.6273502,85.0883641 55.7896198,89.6623963 C55.5731636,90.6003045 55.4640832,91.5597886 55.4644816,92.5223502 L55.4644816,97.9044931 L81.8511866,97.9044931 L81.8511866,92.5223502 C81.851585,91.5597886 81.7425046,90.6003045 81.5260484,89.6623963 C90.6804263,85.0852074 108.23947,57.4089977 108.23947,57.4089977 C108.23947,57.4089977 109.476889,55.7943548 110.438099,52.5650691 C111.399309,49.3357834 103.01674,51.0861636 104.116843,52.5666475 Z" id="Path" fill="url(#linearGradient-7)"></path>
            <circle id="Oval" fill="#263238" cx="68.6578341" cy="65.2596659" r="13.4253687"></circle>
            <circle id="Oval" fill="#F8C198" cx="68.6578341" cy="67.3667512" r="12.6361982"></circle>
            <circle id="Oval" fill="#263238" cx="63.6560714" cy="64.6014977" r="1.57991935"></circle>
            <circle id="Oval" fill="#263238" cx="73.9231797" cy="64.6014977" r="1.57991935"></circle>
            <path d="M72.3432604,73.156106 C72.3432604,74.1031106 70.693894,75.6577765 68.6578341,75.6577765 C66.6217742,75.6577765 64.9724078,74.1031106 64.9724078,73.156106 C64.9724078,72.2091014 66.6217742,72.2343548 68.6578341,72.2343548 C70.693894,72.2343548 72.3432604,72.2091014 72.3432604,73.156106 Z" id="Path" fill="#FFFFFF"></path>
            <circle id="Oval" fill="#FFFFFF" cx="64.0506567" cy="64.6014977" r="1"></circle>
            <circle id="Oval" fill="#FFFFFF" cx="74.4487673" cy="64.6014977" r="1"></circle>
            <path d="M69.9205069,60.3526037 C69.1502765,60.3526037 68.4589631,59.6833871 68.3768894,58.9178917 C68.3223661,58.1297899 68.7627239,57.3906179 69.4817281,57.063341 C69.553596,57.026217 69.6328886,57.0057196 69.7137442,57.0033641 C69.9789055,57.0033641 70.1099078,57.3190323 70.1951382,57.5699885 C70.4602995,58.3465323 70.9306452,59.1041359 71.6693088,59.4639977 C72.4079724,59.8238594 73.4402074,59.6391935 73.8300576,58.9163134 C72.7851959,58.4507028 72.3385253,56.989159 72.9461866,56.0200576 C73.1813594,55.6459908 73.5475346,55.3287442 73.6217166,54.8931221 C73.7574539,54.1039516 72.892523,53.5294355 72.1270276,53.2926843 C69.9173502,52.6092627 62.2150461,52.5335023 61.7904724,55.8306567 C61.3453802,59.3093203 67.4945968,60.8134793 69.9205069,60.3526037 Z" id="Path" fill="#263238"></path>
            <ellipse id="Oval" fill="#F8C198" transform="translate(56.546028, 67.501547) rotate(-21.530000) translate(-56.546028, -67.501547) " cx="56.5460277" cy="67.5015466" rx="1" ry="2.23808756"></ellipse>
            <ellipse id="Oval" fill="#F8C198" transform="translate(80.765922, 67.493227) rotate(-68.470000) translate(-80.765922, -67.493227) " cx="80.7659225" cy="67.4932273" rx="2.23808756" ry="1"></ellipse>
            <path d="M76.5353341,82.7587327 C76.5353341,82.7587327 86.8213825,79.8703687 94.455818,68.286924 C102.090253,56.7034793 102.484839,56.6719124 102.484839,56.6719124 L106.56485,58.2833986 C106.56485,58.2833986 87.6121313,88.8211406 79.4521083,90.4010599 C71.2920853,91.9809793 76.5353341,82.7587327 76.5353341,82.7587327 Z" id="Path" fill="#FF9800"></path>
            <path d="M102.091832,56.7050576 C102.091832,56.7050576 103.670173,54.9941359 102.618998,53.5483756 C101.567823,52.1026152 109.595265,50.3916935 108.673514,53.5483756 C107.751763,56.7050576 106.568007,58.2833986 106.568007,58.2833986 L102.091832,56.7050576 Z" id="Path" fill="#F8C198"></path>
            <path d="M60.7803341,82.7587327 C60.7803341,82.7587327 50.4942857,79.8703687 42.8598502,68.286924 C35.2254147,56.7034793 34.8308295,56.6719124 34.8308295,56.6719124 L30.750818,58.2833986 C30.750818,58.2833986 49.7051152,88.8211406 57.8667166,90.4010599 C66.028318,91.9809793 60.7803341,82.7587327 60.7803341,82.7587327 Z" id="Path" fill="#FF9800"></path>
            <path d="M35.2238364,56.7050576 C35.2238364,56.7050576 33.6454954,54.9941359 34.6966705,53.5483756 C35.7478456,52.1026152 27.7204032,50.3916935 28.6421544,53.5483756 C29.5639055,56.7050576 30.7476613,58.2833986 30.7476613,58.2833986 L35.2238364,56.7050576 Z" id="Path" fill="#F8C198"></path>
            <g id="Group" opacity="0.2" transform="translate(61.870968, 53.821429)" fill="#FFFFFF">
                <path d="M11.094159,0.279366359 C11.0183986,0.714988479 10.6522235,1.03065668 10.418629,1.40630184 C9.88672811,2.25544931 10.1629378,3.48339862 10.9426382,4.08948157 C10.7154787,3.51381078 10.7649266,2.86575159 11.0767972,2.33120968 C11.31197,1.95714286 11.6781452,1.63989631 11.7523272,1.20427419 C11.8375576,0.710253456 11.5297811,0.299884793 11.1004724,0.00473502304 C11.111727,0.0960990881 11.1096002,0.188615992 11.094159,0.279366359 Z" id="Path"></path>
                <path d="M7.80647465,3.31609447 C7.75596774,3.19771889 7.70861751,3.07776498 7.66758065,2.95781106 C7.58235023,2.70685484 7.45134793,2.39907834 7.18618664,2.39118664 C7.10533095,2.39354217 7.02603842,2.41403956 6.95417051,2.45116359 C6.2351663,2.77844045 5.79480847,3.51761252 5.8493318,4.30571429 C5.90862073,4.77521634 6.16524353,5.19718001 6.55485023,5.46579493 C6.53257691,5.38778006 6.5167404,5.30806963 6.5075,5.22746544 C6.45297668,4.43936367 6.8933345,3.7001916 7.61233871,3.37291475 C7.67344302,3.34331671 7.73905449,3.32411336 7.80647465,3.31609447 L7.80647465,3.31609447 Z" id="Path"></path>
                <path d="M6.69374424,5.81618664 C4.77448157,5.89668203 1.6777765,5.1643318 0.151520737,3.60650922 C1.29108295,6.03084101 5.99927419,7.04571429 8.04322581,6.65586406 C7.47579868,6.63680654 6.96152708,6.31681532 6.69374424,5.81618664 Z" id="Path"></path>
                <path d="M11.1557143,4.51563364 C10.6948387,5.05700461 9.8014977,5.17064516 9.14332949,4.85024194 C8.92834979,4.74426477 8.73129896,4.60526406 8.55934332,4.43829493 C8.81437881,5.00768682 9.25129912,5.47625193 9.8014977,5.77041475 C10.5401613,6.12869816 11.5723963,5.9456106 11.9622465,5.22273041 C11.6302857,5.07059421 11.3499709,4.82483878 11.1557143,4.51563364 Z" id="Path"></path>
            </g>
            <path d="M106.040841,58.2833986 C106.040841,58.2833986 87.0865438,88.8211406 78.9170507,90.4010599 C78.4449807,90.4955641 77.9664233,90.5541307 77.4854954,90.5762558 C78.1430175,90.5949983 78.8004578,90.5361942 79.4442166,90.4010599 C87.605818,88.8227189 106.560115,58.2833986 106.560115,58.2833986 L106.13712,58.1334562 C106.078721,58.2328917 106.040841,58.2833986 106.040841,58.2833986 Z" id="Path" fill="#FFFFFF" opacity="0.2"></path>
            <path d="M31.2748272,58.2833986 C31.2748272,58.2833986 50.2291244,88.8211406 58.3986175,90.4010599 C58.8706875,90.4955641 59.3492449,90.5541307 59.8301728,90.5762558 C59.1726507,90.5949983 58.5152104,90.5361942 57.8714516,90.4010599 C49.7098502,88.8227189 30.755553,58.2833986 30.755553,58.2833986 L31.1785484,58.1334562 C31.236947,58.2328917 31.2748272,58.2833986 31.2748272,58.2833986 Z" id="Path" fill="#FFFFFF" opacity="0.2"></path>
            <path d="M68.6578341,80.0029493 L68.6578341,80.0029493 C72.0091622,80.0029493 75.2232287,81.3342592 77.5929755,83.7040061 C79.9627223,86.0737529 81.2940323,89.2878193 81.2940323,92.6391475 L81.2940323,97.9044931 L56.0216359,97.9044931 L56.0216359,92.6391475 C56.0216359,89.2878193 57.3529459,86.0737529 59.7226927,83.7040061 C62.0924395,81.3342592 65.306506,80.0029493 68.6578341,80.0029493 Z" id="Path" fill="#FF9800"></path>
            <path d="M68.7888364,80.0692395 L68.7888364,80.0692395 C68.3290646,80.0692395 67.8696248,80.0939427 67.412523,80.1434217 C67.5703571,80.1434217 67.7139862,80.1339516 67.8670853,80.1339516 L67.8670853,80.1339516 C74.8458648,80.1339516 80.5032834,85.7913702 80.5032834,92.7701498 L80.5032834,97.9692051 L81.4250346,97.9692051 L81.4250346,92.7054378 C81.4250346,89.3541097 80.0937247,86.1400432 77.7239778,83.7702964 C75.354231,81.4005495 72.1401645,80.0692395 68.7888364,80.0692395 L68.7888364,80.0692395 Z" id="Path" fill="#FFFFFF" opacity="0.2"></path>
            <path d="M68.5268318,80.0692395 L68.5268318,80.0692395 C68.9866036,80.0692395 69.4460434,80.0939427 69.9031452,80.1434217 C69.7453111,80.1434217 69.601682,80.1339516 69.4485829,80.1339516 L69.4485829,80.1339516 C62.4698034,80.1339516 56.8123848,85.7913702 56.8123848,92.7701498 L56.8123848,97.9692051 L55.8906336,97.9692051 L55.8906336,92.7054378 C55.8906336,85.7266583 61.5480523,80.0692395 68.5268318,80.0692395 L68.5268318,80.0692395 Z" id="Path" fill="#FFFFFF" opacity="0.2"></path>
            <rect id="Rectangle" fill="#F8C198" x="64.9724078" y="76.5148157" width="7.37085253" height="8.88448157" rx="3.68542627"></rect>
        </g>
    </g>
</svg>