<?xml version="1.0" encoding="UTF-8"?>
<svg width="137px" height="137px" viewBox="0 0 137 137" version="1.1" xmlns="http://www.w3.org/2000/svg" xmlns:xlink="http://www.w3.org/1999/xlink">
    <title>gift_illustration_2</title>
    <g id="gift_illustration_2" stroke="none" stroke-width="1" fill="none" fill-rule="evenodd">
        <g id="undraw_buy_house_560d-(5)" transform="translate(-765.000000, 87.000000)"></g>
        <g id="undraw_Gift_box_re_vau4-(1)" transform="translate(0.000000, 13.000000)" fill-rule="nonzero">
            <circle id="Oval" fill="#E6E6E6" cx="38.7830882" cy="56.9154412" r="14.6066176"></circle>
            <path d="M34.4361701,80.2913277 L38.2787195,82.6051055 L38.2787195,66.9649539 L33.9716787,64.3714853 C33.6155989,64.1570695 33.3554027,63.8204955 33.2426471,63.4284584 L33.2426471,63.4284584 C33.6541179,63.3520813 34.0800987,63.4286892 34.436183,63.643102 L38.2787323,65.9568798 L38.2787323,59.8920847 C38.2787353,58.7188252 38.426813,57.5499941 38.7196493,56.4117647 C39.0124898,57.5499933 39.160567,58.7188249 39.1605647,59.8920847 L39.1605647,69.7909549 L44.8294104,66.3774937 C45.2820612,66.1049289 45.8057927,65.964525 46.3382353,65.9730023 C46.1090514,66.4400817 45.7465519,66.8333164 45.2939018,67.1058816 L39.1605422,70.7990322 L39.1605422,107.786765 L38.2787147,107.786765 L38.2787147,83.6131905 L33.9716739,81.0197312 C33.6155954,80.8053159 33.3553998,80.4687432 33.2426471,80.0767075 L33.2426471,80.0767075 C33.6541086,80.0003278 34.0800845,80.0769272 34.4361701,80.2913277 Z" id="Path" fill="#CCCCCC"></path>
            <circle id="Oval" fill="#E6E6E6" cx="14.6066176" cy="57.9227941" r="14.6066176"></circle>
            <path d="M19.9608979,80.8659254 L16.1183339,83.2353776 L16.1183339,67.2188909 L20.4253805,64.563021 C20.7814618,64.3434459 21.0416591,63.9987725 21.1544118,63.5973013 L21.1544118,63.5973013 C20.7429434,63.5190881 20.3169625,63.5975393 19.960877,63.8171098 L16.118313,66.1865587 L16.118313,59.9758286 C16.1183115,58.7743378 15.9702336,57.577382 15.6773953,56.4117647 C15.3845556,57.5773817 15.2364788,58.7743378 15.2364807,59.9758286 L15.2364807,70.1128882 L9.56765425,66.6172951 C9.11500141,66.338172 8.59126792,66.1943903 8.05882353,66.2030723 C8.28800864,66.6813911 8.65050994,67.084088 9.10316203,67.3632111 L15.2365065,71.1452347 L15.2365065,107.786765 L16.1183339,107.786765 L16.1183339,84.2677209 L20.4253789,81.6118495 C20.7814599,81.392277 21.0416573,81.0476057 21.1544118,80.6461362 L21.1544118,80.6461362 C20.7429515,80.5679255 20.3169807,80.6463694 19.9608979,80.8659254 Z" id="Path" fill="#CCCCCC"></path>
            <circle id="Oval" fill="#E6E6E6" cx="26.6948529" cy="26.6948529" r="26.6948529"></circle>
            <path d="M34.2448707,66.0183313 L27.742097,70.072538 L27.742097,42.6678035 L35.0309325,38.1235323 C35.6335359,37.7478355 36.073874,37.1580882 36.2647059,36.4711561 L36.2647059,36.4711433 L36.2647059,36.4711433 C35.5683626,36.3373199 34.8474774,36.4715518 34.2448754,36.8472412 L27.7421018,40.9014447 L27.7421018,30.2747009 C27.7420969,28.218911 27.4915041,26.1708806 26.9959347,24.1764706 C26.5003615,26.1708797 26.2497702,28.2189108 26.2497724,30.2747009 L26.2497724,47.6195289 L16.6563416,41.6384438 C15.890313,41.1608601 15.0039987,40.9148434 14.1029412,40.9296893 C14.49079,41.748109 15.1042537,42.4371358 15.8702814,42.9147206 L26.2497677,49.3858813 L26.2497677,108.794118 L27.742097,108.794118 L27.742097,71.8388937 L35.0309357,67.2946209 C35.6335401,66.9189248 36.0738789,66.3291773 36.2647059,65.6422446 L36.2647059,65.6422351 L36.2647059,65.6422351 C35.5683645,65.508409 34.8474756,65.6426404 34.2448707,66.0183313 Z" id="Path" fill="#CCCCCC"></path>
            <rect id="Rectangle" fill="#3F3D56" x="12.0882353" y="107.786765" width="124.911765" height="1.00735294"></rect>
            <polygon id="Rectangle" fill="#39D39F" transform="translate(102.666737, 53.035291) rotate(-30.000000) translate(-102.666737, -53.035291) " points="99.0614321 49.429323 106.273186 49.4281797 106.272042 56.6412582 99.0602888 56.6424015"></polygon>
            <path d="M104.422478,58.4264706 L100.735294,52.0400768 L107.121639,48.3529412 L110.808824,54.7394114 L104.422478,58.4264706 Z M101.161519,52.1543244 L104.536727,58.0002411 L110.382602,54.6251607 L107.007394,48.7791676 L101.161519,52.1543244 Z" id="Shape" fill="#2F2E41"></path>
            <circle id="Oval" fill="#D0CDE1" cx="98.7205882" cy="74.5441176" r="3.02205882"></circle>
            <path d="M100.735294,77.5661765 C99.0662571,77.5661765 97.7132353,76.2131546 97.7132353,74.5441176 C97.7132353,72.8750806 99.0662571,71.5220588 100.735294,71.5220588 C102.404331,71.5220588 103.757353,72.8750806 103.757353,74.5441176 C103.757353,76.2131546 102.404331,77.5661765 100.735294,77.5661765 L100.735294,77.5661765 Z M100.735294,71.8242647 C99.2331608,71.8242647 98.0154412,73.0419843 98.0154412,74.5441176 C98.0154412,76.0462509 99.2331608,77.2639706 100.735294,77.2639706 C102.237427,77.2639706 103.455147,76.0462509 103.455147,74.5441176 C103.455147,73.0419843 102.237427,71.8242647 100.735294,71.8242647 L100.735294,71.8242647 Z" id="Shape" fill="#2F2E41"></path>
            <path d="M117.504463,107.786765 L87.995537,107.786765 C87.243031,107.785924 86.6332208,107.195069 86.6323529,106.465954 L86.6323529,79.8943406 C86.6332208,79.1652253 87.243031,78.5743703 87.995537,78.5735294 L117.504463,78.5735294 C118.256969,78.5743703 118.866779,79.1652253 118.867647,79.8943406 L118.867647,106.465954 C118.866779,107.195069 118.256969,107.785924 117.504463,107.786765 Z" id="Path" fill="#AB6ACB"></path>
            <path d="M104.577291,109.801471 L100.922709,109.801471 C100.263172,109.800623 99.728701,109.204183 99.7279412,108.468177 L99.7279412,79.9068234 C99.728701,79.170817 100.263172,78.5743774 100.922709,78.5735294 L104.577291,78.5735294 C105.236828,78.5743782 105.771298,79.1708173 105.772059,79.9068234 L105.772059,108.468177 C105.771298,109.204183 105.236828,109.800622 104.577291,109.801471 L104.577291,109.801471 Z" id="Path" fill="#3F3D56"></path>
            <path d="M125.912458,77.7867837 C125.724089,80.5685119 121.548645,82.6029412 121.548645,82.6029412 C121.548645,82.6029412 117.678585,80.1272974 117.866954,77.3455692 C118.055323,74.563841 122.230769,72.5294118 122.230769,72.5294118 C122.230769,72.5294118 126.10082,75.0050555 125.912458,77.7867837 Z" id="Path" fill="#3F3D56"></path>
            <path d="M125.709853,86.6263617 C122.928123,86.4476514 120.882353,82.2793607 120.882353,82.2793607 C120.882353,82.2793607 123.346661,78.4008122 126.128383,78.5795207 C128.910104,78.7582292 130.955882,82.9265234 130.955882,82.9265234 C130.955882,82.9265234 128.491578,86.8050702 125.709853,86.6263617 Z" id="Path" fill="#3F3D56"></path>
            <polygon id="Path" fill="#000000" opacity="0.1" points="118.867647 80.9265272 118.867647 91.6691176 108.794118 77.5661765 116.467562 77.5661765"></polygon>
            <path d="M125.626465,100.735294 C125.221278,100.7362 124.839193,100.53371 124.594539,100.188411 L104.019741,71.1570529 C103.812671,70.8648848 103.722646,70.4967427 103.76947,70.1336137 C103.816295,69.7704846 103.996133,69.4421142 104.269423,69.2207403 L107.300218,66.7658111 C107.573499,66.544414 107.917866,66.448171 108.257533,66.4982623 C108.5972,66.5483535 108.904334,66.740674 109.111342,67.0329 L129.686142,96.064105 C129.893212,96.356273 129.983237,96.7244151 129.936412,97.0875442 C129.889588,97.4506732 129.709749,97.7790436 129.43646,98.0004175 L126.405664,100.45534 C126.181583,100.637298 125.907855,100.735643 125.626465,100.735294 L125.626465,100.735294 Z" id="Path" fill="#AB6ACB"></path>
            <polygon id="Rectangle" fill="#3F3D56" transform="translate(118.082647, 82.949227) rotate(-37.150040) translate(-118.082647, -82.949227) " points="114.658376 79.5246163 121.508126 79.5234093 121.506919 86.3738386 114.657169 86.3750457"></polygon>
            <polygon id="Rectangle" fill="#39D39F" transform="translate(93.212011, 61.757422) rotate(-75.000000) translate(-93.212011, -61.757422) " points="89.60556 58.1521165 96.8191216 58.1514565 96.8184616 65.3627268 89.6048999 65.3633868"></polygon>
            <path d="M92.5623945,67.4926471 L84.6176471,65.3639007 L86.7464291,57.4191176 L94.6911765,59.547864 L92.5623945,67.4926471 Z M85.0437775,65.1178779 L92.3163658,67.0665255 L94.265046,59.7938868 L86.992456,57.845241 L85.0437775,65.1178779 Z" id="Shape" fill="#2F2E41"></path>
            <path d="M62.8586356,85.1039248 C63.277822,84.7281803 63.4976077,84.1980033 63.4588532,83.6560529 C63.4200986,83.1141024 63.1267847,82.6160489 62.6578359,82.2959077 L59.4931906,58.4264706 L55.4044118,59.5640071 L59.8186215,82.7930339 C59.2843188,83.5831652 59.4660551,84.6223478 60.2416456,85.2119191 C61.0172361,85.8014903 62.141527,85.7550947 62.8586356,85.1039248 Z" id="Path" fill="#FFB8B8"></path>
            <polygon id="Path" fill="#FFB8B8" points="66.4852941 106.779412 68.5328046 106.779412 69.5073529 98.7205882 66.4852941 98.7205882"></polygon>
            <path d="M65.4779412,104.764706 L71.5220588,104.764706 L71.5220588,107.786765 L67.5995416,107.786765 C66.427814,107.786765 65.4779412,106.557518 65.4779412,105.041165 L65.4779412,104.764706 L65.4779412,104.764706 Z" id="Path" fill="#2F2E41" transform="translate(68.500000, 106.275735) rotate(-180.000000) translate(-68.500000, -106.275735) "></path>
            <polygon id="Path" fill="#FFB8B8" points="50.3676471 103.878698 52.4442997 104.764706 56.4117647 95.9989442 53.3469978 94.6911765"></polygon>
            <path d="M49.4787814,103.59767 L56.4256198,103.598504 L56.4259409,106.283249 L51.9175751,106.28271 C50.5708439,106.282549 49.4789719,105.190374 49.4787814,103.84327 L49.4787814,103.59767 L49.4787814,103.59767 Z" id="Path" fill="#2F2E41" transform="translate(52.952361, 104.940460) rotate(-159.596430) translate(-52.952361, -104.940460) "></path>
            <circle id="Oval" fill="#FFB8B8" cx="62.4558824" cy="47.3455882" r="4.02941176"></circle>
            <path d="M55.1153819,58.6678353 C54.9861258,54.8290225 58.982114,52.1659136 62.3441855,53.9633027 C62.7725434,54.1923066 67.1955113,57.986278 67.3621966,60.3423905 C67.5288819,62.6985031 67.8622493,66.5692581 67.8622493,66.5692581 L72.5294118,101.742647 L62.5283583,101.237766 L63.7361634,90.9771495 L57.235474,101.41136 L49.3602941,98.8816537 L59.0279896,70.7766008 C59.0279896,70.7766008 55.3112639,64.4854088 55.1153819,58.6678353 Z" id="Path" fill="#2F2E41"></path>
            <path d="M55.4056622,57.8354346 L56.1828395,67.1356882 C56.1996727,67.3371114 56.3821359,67.4926471 56.6015981,67.4926471 L60.0211804,67.4926471 C60.1615256,67.4926471 60.2925962,67.4281183 60.3705095,67.320665 C60.4484228,67.2132116 60.4628811,67.0770357 60.4090437,66.9577292 L56.212284,57.6574774 C56.1331201,57.4820397 55.927221,57.3855394 55.7265309,57.4298157 C55.5258408,57.474092 55.3898322,57.6460241 55.4056622,57.8354346 Z" id="Path" fill="#2F2E41"></path>
            <path d="M69.0986224,82.9196794 C69.4354341,82.4944829 69.574026,81.9358241 69.4771056,81.3940269 C69.3801852,80.8522298 69.0577086,80.3829493 68.5964477,80.1124595 L63.0074049,56.4117647 L59.4338235,58.0123038 L66.0815824,80.9288484 C65.6877817,81.7843975 65.9709269,82.8113454 66.7406545,83.3192575 C67.5103821,83.8271697 68.5233928,83.6555027 69.0986224,82.9196712 L69.0986224,82.9196794 Z" id="Path" fill="#FFB8B8"></path>
            <path d="M60.9145582,54.0145673 C60.9145582,54.0145673 59.8494494,56.5663206 60.9145582,61.1230218 C61.9796669,65.6797229 62.7404659,69.5073529 62.7404659,69.5073529 C62.7404659,69.5073529 65.1749991,67.6846725 66.2401078,68.2314763 C67.3052166,68.7782801 64.5552497,56.0845239 64.5552497,56.0845239 C64.5552497,56.0845239 62.8926165,51.8273521 60.9145582,54.0145673 Z" id="Path" fill="#2F2E41"></path>
            <path d="M63.6829208,48.6057039 C63.7415329,47.6698774 64.8774323,47.6378102 65.7796721,47.6289495 C66.6819119,47.6200887 67.76059,47.6535654 68.2711083,46.8803093 C68.6084893,46.3692903 68.5440444,45.6598592 68.2653202,45.1119757 C67.986596,44.5640922 67.5281244,44.142707 67.077088,43.7373261 C65.9126201,42.6907376 64.7124908,41.6524513 63.3144494,40.9825644 C61.9164079,40.3126775 60.2780952,40.0420007 58.8281856,40.5797481 C57.0470866,41.2403221 54.6393647,44.640721 54.4314507,46.5943638 C54.2235366,48.5480067 54.9747165,50.5395952 56.2409626,51.9994868 C57.5072087,53.4593784 60.4054089,52.8703504 62.2292952,53.3897059 C61.1204743,51.7585636 61.8513478,48.7947345 63.6276592,48.0330309 L63.6829208,48.6057039 Z" id="Path" fill="#2F2E41"></path>
        </g>
    </g>
</svg>