<?xml version="1.0" encoding="UTF-8"?>
<svg width="702px" height="482px" viewBox="0 0 702 482" version="1.1" xmlns="http://www.w3.org/2000/svg" xmlns:xlink="http://www.w3.org/1999/xlink">
    <title>gift_illustration_submitted_application</title>
    <g id="gift_illustration_submitted_application" stroke="none" stroke-width="1" fill="none" fill-rule="evenodd">
        <rect id="Rectangle" fill="#FFFFFF" x="0" y="0" width="702" height="480"></rect>
        <g id="undraw_buy_house_560d-(5)" transform="translate(-2691.459854, 306.087591)"></g>
        <g id="undraw_Gift_box_re_vau4-(1)" transform="translate(106.000000, 45.737226)" fill-rule="nonzero">
            <circle id="Oval" fill="#E6E6E6" cx="136.448529" cy="200.242647" r="51.3897059"></circle>
            <path d="M121.154993,282.484817 L134.674035,290.625262 L134.674035,235.599327 L119.520797,226.474861 C118.26802,225.720493 117.352585,224.536342 116.955882,223.157058 L116.955882,223.157058 C118.403539,222.888344 119.902245,223.15787 121.155038,223.912228 L134.67408,232.052672 L134.67408,210.715218 C134.674091,206.587399 135.195065,202.475162 136.225336,198.470588 C137.255621,202.475159 137.776593,206.587399 137.776585,210.715218 L137.776585,245.5419 L157.720991,233.532496 C159.313529,232.573545 161.156147,232.07957 163.029412,232.109395 C162.223086,233.752696 160.947723,235.136194 159.355187,236.095146 L137.776506,249.088566 L137.776506,379.220588 L134.674018,379.220588 L134.674018,294.171955 L119.52078,285.047521 C118.268007,284.293155 117.352575,283.109009 116.955882,281.72973 L116.955882,281.72973 C118.403506,281.461007 119.902195,281.730503 121.154993,282.484817 Z" id="Path" fill="#CCCCCC"></path>
            <circle id="Oval" fill="#E6E6E6" cx="51.3897059" cy="203.786765" r="51.3897059"></circle>
            <path d="M70.2273926,284.506395 L56.7082989,292.842715 L56.7082989,236.49274 L71.8615576,227.148731 C73.11434,226.376211 74.0297787,225.163565 74.4264706,223.751089 L74.4264706,223.751089 C72.9788229,223.475916 71.4801162,223.751927 70.2273191,224.52443 L56.7082253,232.860739 L56.7082253,211.009849 C56.7082201,206.782707 56.1872454,202.571519 55.1569673,198.470588 C54.1266847,202.571518 53.6057136,206.782707 53.6057206,211.009849 L53.6057206,246.674541 L33.6613821,234.376177 C32.0688371,233.394153 30.2262127,232.888293 28.3529412,232.918838 C29.1592713,234.601683 30.4346408,236.01847 32.0271832,237.000495 L53.605811,250.306592 L53.605811,379.220588 L56.7082989,379.220588 L56.7082989,296.474755 L71.8615519,287.130741 C73.1143332,286.35823 74.0297725,285.145591 74.4264706,283.733122 L74.4264706,283.733122 C72.9788512,283.457957 71.4801803,283.733942 70.2273926,284.506395 Z" id="Path" fill="#CCCCCC"></path>
            <circle id="Oval" fill="#E6E6E6" cx="93.9191176" cy="93.9191176" r="93.9191176"></circle>
            <path d="M120.481954,232.268874 L97.6035822,246.532579 L97.6035822,150.115922 L123.247514,134.128048 C125.367623,132.806253 126.916841,130.731376 127.588235,128.314578 L127.588235,128.314534 L127.588235,128.314534 C125.138327,127.84371 122.602074,128.315971 120.481971,129.637739 L97.6035989,143.901433 L97.6035989,106.513911 C97.6035819,99.281132 96.7219341,92.0756528 94.978398,85.0588235 C93.2348484,92.0756499 92.353206,99.2811315 92.3532138,106.513911 L92.3532138,167.537321 L58.6011433,146.494379 C55.9060649,144.814121 52.7877911,143.948573 49.6176471,144.000805 C50.9821954,146.880208 53.140513,149.304376 55.8355884,150.984638 L92.3531972,173.751787 L92.3531972,382.764706 L97.6035822,382.764706 L97.6035822,252.747057 L123.247525,236.759177 C125.367637,235.437385 126.916859,233.362507 127.588235,230.945707 L127.588235,230.945674 L127.588235,230.945674 C125.138333,230.47484 122.602067,230.9471 120.481954,232.268874 Z" id="Path" fill="#CCCCCC"></path>
            <rect id="Rectangle" fill="#3F3D56" x="42.5294118" y="379.220588" width="439.470588" height="3.54411765"></rect>
            <polygon id="Rectangle" fill="#39D39F" transform="translate(361.207061, 186.591314) rotate(-30.000000) translate(-361.207061, -186.591314) " points="348.522703 173.904626 373.895441 173.900603 373.891419 199.278003 348.51868 199.282026"></polygon>
            <path d="M367.384193,205.558824 L354.411765,183.089905 L376.880513,170.117647 L389.852941,192.586834 L367.384193,205.558824 Z M355.911329,183.491857 L367.786147,204.059242 L388.353388,192.184872 L376.47857,171.617217 L355.911329,183.491857 Z" id="Shape" fill="#2F2E41"></path>
            <circle id="Oval" fill="#D0CDE1" cx="347.323529" cy="262.264706" r="10.6323529"></circle>
            <path d="M354.411765,272.897059 C348.539678,272.897059 343.779412,268.136792 343.779412,262.264706 C343.779412,256.392619 348.539678,251.632353 354.411765,251.632353 C360.283851,251.632353 365.044118,256.392619 365.044118,262.264706 C365.044118,268.136792 360.283851,272.897059 354.411765,272.897059 L354.411765,272.897059 Z M354.411765,252.695588 C349.126887,252.695588 344.842647,256.979828 344.842647,262.264706 C344.842647,267.549584 349.126887,271.833824 354.411765,271.833824 C359.696642,271.833824 363.980882,267.549584 363.980882,262.264706 C363.980882,256.979828 359.696642,252.695588 354.411765,252.695588 L354.411765,252.695588 Z" id="Shape" fill="#2F2E41"></path>
            <path d="M413.409862,379.220588 L309.590138,379.220588 C306.942635,379.21763 304.797171,377.138855 304.794118,374.573647 L304.794118,281.088118 C304.797171,278.522909 306.942635,276.444135 309.590138,276.441176 L413.409862,276.441176 C416.057365,276.444135 418.202829,278.522909 418.205882,281.088118 L418.205882,374.573647 C418.202829,377.138855 416.057365,379.21763 413.409862,379.220588 Z" id="Path" fill="#AB6ACB"></path>
            <path d="M367.928865,386.308824 L355.071135,386.308824 C352.750721,386.30584 350.87032,384.207418 350.867647,381.617964 L350.867647,281.132036 C350.87032,278.542582 352.750721,276.44416 355.071135,276.441176 L367.928865,276.441176 C370.249278,276.444163 372.129677,278.542584 372.132353,281.132036 L372.132353,381.617964 C372.129677,384.207416 370.249278,386.305837 367.928865,386.308824 L367.928865,386.308824 Z" id="Path" fill="#3F3D56"></path>
            <path d="M442.991276,273.67321 C442.328548,283.46002 427.638297,290.617647 427.638297,290.617647 C427.638297,290.617647 414.022468,281.907718 414.685196,272.120908 C415.347924,262.334098 430.038181,255.176471 430.038181,255.176471 C430.038181,255.176471 443.65398,263.8864 442.991276,273.67321 Z" id="Path" fill="#3F3D56"></path>
            <path d="M442.27846,304.773039 C432.491645,304.144292 425.294118,289.479211 425.294118,289.479211 C425.294118,289.479211 433.964165,275.833514 443.750952,276.462255 C453.537739,277.090996 460.735294,291.75609 460.735294,291.75609 C460.735294,291.75609 452.065258,305.40178 442.27846,304.773039 Z" id="Path" fill="#3F3D56"></path>
            <polygon id="Path" fill="#000000" opacity="0.1" points="418.205882 284.719607 418.205882 322.514706 382.764706 272.897059 409.761789 272.897059"></polygon>
            <path d="M441.985081,354.411765 C440.559534,354.414953 439.215263,353.702542 438.354508,352.487693 L365.967263,250.348171 C365.238739,249.320252 364.922009,248.025036 365.086749,246.747458 C365.251489,245.46988 365.884205,244.314592 366.845706,243.535743 L377.508797,234.898693 C378.470267,234.119763 379.681833,233.781156 380.876868,233.95739 C382.071902,234.133623 383.152474,234.810255 383.88078,235.838378 L456.268031,337.977362 C456.996555,339.005282 457.313285,340.300497 457.148545,341.578075 C456.983805,342.855653 456.351089,344.010942 455.389588,344.78979 L444.726497,353.426817 C443.938125,354.066989 442.975081,354.412991 441.985081,354.411765 L441.985081,354.411765 Z" id="Path" fill="#AB6ACB"></path>
            <polygon id="Rectangle" fill="#3F3D56" transform="translate(415.444059, 291.835968) rotate(-37.150040) translate(-415.444059, -291.835968) " points="403.396621 279.787336 427.495744 279.78309 427.491497 303.8846 403.392374 303.888847"></polygon>
            <polygon id="Rectangle" fill="#39D39F" transform="translate(327.942987, 217.277936) rotate(-75.000000) translate(-327.942987, -217.277936) " points="315.254598 204.593578 340.633698 204.591256 340.631376 229.962294 315.252276 229.964616"></polygon>
            <path d="M325.657475,237.455882 L297.705882,229.966424 L305.195466,202.014706 L333.147059,209.504164 L325.657475,237.455882 Z M299.205115,229.100855 L324.791885,235.956681 L331.647826,210.369733 L306.06105,203.513914 L299.205115,229.100855 Z" id="Shape" fill="#2F2E41"></path>
            <path d="M221.15228,299.416728 C222.627082,298.094766 223.400342,296.229471 223.263994,294.322755 C223.127646,292.416039 222.095695,290.663763 220.445817,289.537427 L209.311809,205.558824 L194.926471,209.560959 L210.456756,291.286441 C208.576946,294.066318 209.21634,297.722421 211.94506,299.796679 C214.67378,301.870937 218.629314,301.707705 221.15228,299.416728 Z" id="Path" fill="#FFB8B8"></path>
            <polygon id="Path" fill="#FFB8B8" points="233.911765 375.676471 241.115415 375.676471 244.544118 347.323529 233.911765 347.323529"></polygon>
            <path d="M230.367647,368.588235 L251.632353,368.588235 L251.632353,379.220588 L237.831964,379.220588 C233.709536,379.220588 230.367647,374.895792 230.367647,369.560886 L230.367647,368.588235 L230.367647,368.588235 Z" id="Path" fill="#2F2E41" transform="translate(241.000000, 373.904412) rotate(-180.000000) translate(-241.000000, -373.904412) "></path>
            <polygon id="Path" fill="#FFB8B8" points="177.205882 365.471041 184.512062 368.588235 198.470588 337.74811 187.687978 333.147059"></polygon>
            <path d="M174.078632,364.482313 L198.519334,364.485248 L198.520464,373.930848 L182.658914,373.928951 C177.920779,373.928384 174.079303,370.085843 174.078632,365.346395 L174.078632,364.482313 L174.078632,364.482313 Z" id="Path" fill="#2F2E41" transform="translate(186.299548, 369.206580) rotate(-159.596430) translate(-186.299548, -369.206580) "></path>
            <circle id="Oval" fill="#FFB8B8" cx="219.735294" cy="166.573529" r="14.1764706"></circle>
            <path d="M193.909592,206.408004 C193.454837,192.902108 207.513715,183.53263 219.342317,189.856291 C220.849386,190.661984 236.410485,204.010117 236.996925,212.299505 C237.583365,220.588894 238.756235,234.207171 238.756235,234.207171 L255.176471,357.955882 L219.990283,356.179586 L224.239641,320.08019 L201.368602,356.790331 L173.661765,347.890198 L207.675117,249.009647 C207.675117,249.009647 194.598753,226.875672 193.909592,206.408004 Z" id="Path" fill="#2F2E41"></path>
            <path d="M194.93087,203.479412 L197.665173,236.200012 C197.724396,236.908669 198.366347,237.455882 199.138469,237.455882 L211.169408,237.455882 C211.663177,237.455882 212.124317,237.228854 212.398435,236.850807 C212.672553,236.472759 212.723421,235.993658 212.534008,235.573909 L197.768766,202.853315 C197.490247,202.236081 196.765843,201.896569 196.059766,202.052344 C195.353688,202.208119 194.875176,202.813019 194.93087,203.479412 Z" id="Path" fill="#2F2E41"></path>
            <path d="M243.106102,291.732011 C244.291089,290.236064 244.77869,288.270563 244.4377,286.364387 C244.09671,284.45821 242.962157,282.807165 241.339327,281.855514 L221.675687,198.470588 L209.102941,204.101682 L232.491407,284.727773 C231.105918,287.737807 232.102093,291.350865 234.810186,293.137826 C237.518279,294.924787 241.082302,294.32082 243.106102,291.731982 L243.106102,291.732011 Z" id="Path" fill="#FFB8B8"></path>
            <path d="M214.312533,190.036653 C214.312533,190.036653 210.565216,199.014354 214.312533,215.04596 C218.05985,231.077565 220.73653,244.544118 220.73653,244.544118 C220.73653,244.544118 229.301822,238.131475 233.049139,240.055267 C236.796456,241.979058 227.12139,197.319274 227.12139,197.319274 C227.12139,197.319274 221.271833,182.341487 214.312533,190.036653 Z" id="Path" fill="#2F2E41"></path>
            <path d="M224.05232,171.006929 C224.258532,167.714459 228.254908,167.601639 231.429211,167.570465 C234.603515,167.53929 238.398572,167.657069 240.194702,164.936563 C241.381692,163.138671 241.154959,160.642716 240.174338,158.715126 C239.193717,156.787536 237.5807,155.304998 235.993842,153.878768 C231.896955,150.19661 227.674603,146.543661 222.755946,144.186832 C217.837289,141.830004 212.073298,140.877696 206.972156,142.769625 C200.705808,145.093688 192.234845,157.057135 191.503352,163.930536 C190.771859,170.803936 193.414696,177.810839 197.869664,182.9471 C202.324632,188.083361 212.52122,186.011014 218.938104,187.838235 C215.036997,182.099472 217.608392,171.671985 223.857896,168.992123 L224.05232,171.006929 Z" id="Path" fill="#2F2E41"></path>
        </g>
    </g>
</svg>