<?xml version="1.0" encoding="UTF-8"?>
<svg width="137px" height="137px" viewBox="0 0 137 137" version="1.1" xmlns="http://www.w3.org/2000/svg" xmlns:xlink="http://www.w3.org/1999/xlink">
    <title>import_illustration_2</title>
    <g id="import_illustration_2" stroke="none" stroke-width="1" fill="none" fill-rule="evenodd">
        <g id="undraw_buy_house_560d-(5)" transform="translate(-765.000000, 87.000000)"></g>
        <g id="undraw_upload_image_iwej" transform="translate(0.000000, 6.000000)">
            <ellipse id="Oval" fill="#2F2E41" fill-rule="nonzero" cx="33.3486842" cy="44.7953947" rx="9.37368421" ry="11.4467105"></ellipse>
            <path d="M25.5072368,117.801974 L20.0993421,118.342763 C20.0993421,118.342763 18.2967105,121.5875 15.0519737,121.5875 C11.8072368,121.5875 12.8888158,125.192763 17.5756579,124.832237 C22.2625,124.471711 27.3098684,123.209868 27.4901316,122.849342 C27.6703947,122.488816 26.9493421,117.621711 25.5072368,117.801974 Z" id="Path" fill="#3F3D56" fill-rule="nonzero"></path>
            <path d="M25.5072368,117.801974 L20.0993421,118.342763 C20.0993421,118.342763 18.2967105,121.5875 15.0519737,121.5875 C11.8072368,121.5875 12.8888158,125.192763 17.5756579,124.832237 C22.2625,124.471711 27.3098684,123.209868 27.4901316,122.849342 C27.6703947,122.488816 26.9493421,117.621711 25.5072368,117.801974 Z" id="Path" fill="#000000" fill-rule="nonzero" opacity="0.1"></path>
            <path d="M17.9361842,86.2559211 C17.9361842,86.2559211 24.0651316,87.1572368 26.4085526,90.0414474 C28.7519737,92.9256579 27.1296053,79.0453947 27.1296053,79.0453947 L26.4085526,72.7361842 L21.5414474,73.0967105 L17.5756579,81.2085526 L17.9361842,86.2559211 Z" id="Path" fill="#3F3D56" fill-rule="nonzero"></path>
            <path d="M17.9361842,86.2559211 C17.9361842,86.2559211 24.0651316,87.1572368 26.4085526,90.0414474 C28.7519737,92.9256579 27.1296053,79.0453947 27.1296053,79.0453947 L26.4085526,72.7361842 L21.5414474,73.0967105 L17.5756579,81.2085526 L17.9361842,86.2559211 Z" id="Path" fill="#000000" fill-rule="nonzero" opacity="0.1"></path>
            <path d="M38.1256579,50.2032895 C38.1256579,50.2032895 41.0098684,42.2717105 38.1256579,42.0914474 C35.2414474,41.9111842 35.6019737,49.8427632 35.6019737,49.8427632 L38.1256579,50.2032895 Z" id="Path" fill="#A0616A" fill-rule="nonzero"></path>
            <path d="M0.901315789,23.6144737 L6.75844975,23.6144737 C7.00812474,23.6144737 7.21052632,23.8168753 7.21052632,24.0665502 L7.21052632,26.5873953 C7.21052632,26.7072938 7.16289765,26.8222817 7.07811679,26.9070629 C6.99333594,26.9918441 6.87834822,27.0394737 6.75844975,27.0394737 L0.901315789,27.0394737 L0.901315789,23.6144737 Z" id="Path" fill="#AB6ACB" fill-rule="nonzero"></path>
            <path d="M0.476916829,23.6144737 L6.39792343,23.6144737 C6.64759843,23.6144737 6.85,23.8168753 6.85,24.0665502 L6.85,26.5873953 C6.85,26.7072938 6.80237133,26.8222817 6.71759048,26.9070629 C6.63280962,26.9918441 6.51782191,27.0394737 6.39792343,27.0394737 L0.476916829,27.0394737 C0.213522937,27.0394737 0,26.8259507 0,26.5625569 L0,24.0913905 C0,23.8279966 0.213522937,23.6144737 0.476916829,23.6144737 L0.476916829,23.6144737 Z" id="Path" fill="#2F2E41" fill-rule="nonzero"></path>
            <circle id="Oval" fill="#AB6ACB" fill-rule="nonzero" cx="5.40789474" cy="25.2368421" r="1"></circle>
            <path d="M4.95723684,27.6703947 C4.95723684,27.6703947 0.450657895,19.0177632 0.0901315789,23.1638158 C-0.270394737,27.3098684 2.43355263,30.7348684 2.43355263,30.7348684 L4.95723684,27.6703947 Z" id="Path" fill="#A0616A" fill-rule="nonzero"></path>
            <path d="M31.1875344,48.4167914 C31.1875344,48.4167914 35.1513158,48.6710526 35.5118421,50.8342105 C35.8723684,52.9973684 32.6276316,59.6671053 32.6276316,59.6671053 L28.3013158,59.3065789 L27.7605263,54.9802632 L31.1875344,48.4167914 Z" id="Path" fill="#3F3D56" fill-rule="nonzero"></path>
            <path d="M26.2282895,42.0914474 C26.2282895,42.0914474 27.6703947,49.4822368 22.9835526,46.4177632 C18.2967105,43.3532895 24.7861842,51.8256579 24.7861842,51.8256579 C24.7861842,51.8256579 29.8335526,53.0875 31.4559211,51.4651316 C33.0782895,49.8427632 29.0223684,49.5723684 31.2756579,43.1730263 C33.6979855,36.2936128 26.2282895,42.0914474 26.2282895,42.0914474 Z" id="Path" fill="#A0616A" fill-rule="nonzero"></path>
            <path d="M26.2282895,42.0914474 C26.2282895,42.0914474 27.6703947,49.4822368 22.9835526,46.4177632 C18.2967105,43.3532895 24.7861842,51.8256579 24.7861842,51.8256579 C24.7861842,51.8256579 29.8335526,53.0875 31.4559211,51.4651316 C33.0782895,49.8427632 29.0223684,49.5723684 31.2756579,43.1730263 C33.6979855,36.2936128 26.2282895,42.0914474 26.2282895,42.0914474 Z" id="Path" fill="#000000" fill-rule="nonzero" opacity="0.1"></path>
            <path d="M10.275,67.4184211 C10.275,67.4184211 14.3309211,96.8914474 15.5927632,98.6940789 C16.8546053,100.496711 21.1809211,116.720395 21.1809211,116.720395 L25.8677632,115.098026 C25.5333673,113.132959 25.4727034,111.131051 25.6875,109.149342 C26.0480263,105.904605 22.9835526,97.2519737 22.9835526,97.2519737 L18.4769737,70.5730263 L10.275,67.4184211 Z" id="Path" fill="#2F2E41" fill-rule="nonzero"></path>
            <path d="M10.275,67.4184211 C10.275,67.4184211 14.3309211,96.8914474 15.5927632,98.6940789 C16.8546053,100.496711 21.1809211,116.720395 21.1809211,116.720395 L25.8677632,115.098026 C25.5333673,113.132959 25.4727034,111.131051 25.6875,109.149342 C26.0480263,105.904605 22.9835526,97.2519737 22.9835526,97.2519737 L18.4769737,70.5730263 L10.275,67.4184211 Z" id="Path" fill="#000000" fill-rule="nonzero" opacity="0.1"></path>
            <path d="M9.28355263,66.0664474 L13.2493421,77.4230263 C13.2493421,77.4230263 4.95723684,92.3848684 11.8072368,97.2519737 C11.8072368,97.2519737 19.7388158,105.904605 20.4598684,113.475658 C20.4598684,113.475658 24.6059211,113.115132 25.1467105,109.870395 C25.1467105,109.870395 21.3611842,101.578289 21.1809211,98.6940789 C21.0006579,95.8098684 16.8546053,92.3848684 16.8546053,92.3848684 C16.8546053,92.3848684 24.7861842,79.5861842 26.5888158,77.4230263 C28.3914474,75.2598684 28.5717105,66.9677632 24.0651316,66.9677632 C19.5585526,66.9677632 9.28355263,66.0664474 9.28355263,66.0664474 Z" id="Path" fill="#2F2E41" fill-rule="nonzero"></path>
            <path d="M24.7861842,109.870395 C24.7861842,109.870395 21.7217105,113.655921 20.8203947,113.115132 C20.8203947,113.115132 20.0993421,120.866447 18.4769737,123.029605 C16.8546053,125.192763 21.9019737,125.0125 23.7046053,123.029605 C25.5072368,121.046711 28.9322368,113.475658 28.9322368,112.574342 C28.9322368,111.673026 25.8677632,109.329605 24.7861842,109.870395 Z" id="Path" fill="#3F3D56" fill-rule="nonzero"></path>
            <circle id="Oval" fill="#A0616A" fill-rule="nonzero" cx="29.2927632" cy="40.2888158" r="4.86710526"></circle>
            <path d="M24.0651316,46.0572368 C24.0651316,46.0572368 24.2453947,49.1217105 26.9493421,49.8427632 C29.6532895,50.5638158 31.8164474,48.7611842 31.8164474,48.7611842 L32.5375,50.2032895 L30.1940789,55.9717105 L25.8677632,70.0322368 C25.8677632,70.0322368 13.0690789,71.8348684 11.9875,68.7703947 C10.9059211,65.7059211 13.7901316,57.0532895 13.7901316,57.0532895 L17.9361842,51.1046053 L19.5585526,47.1388158 L21.3611842,45.1559211 L24.0651316,46.0572368 Z" id="Path" fill="#AB6ACB" fill-rule="nonzero"></path>
            <path d="M25.1467105,46.7782895 C25.1467105,46.7782895 22.3526316,43.9842105 20.55,43.9842105 C18.7473684,43.9842105 17.2151316,42.8125 17.2151316,42.8125 C17.2151316,42.8125 11.2664474,51.4651316 7.66118421,61.9203947 C4.05592105,72.3756579 -0.991447368,75.6203947 1.53223684,78.1440789 C4.05592105,80.6677632 8.02171053,80.1269737 9.64407895,82.8309211 C11.2664474,85.5348684 11.2664474,85.1743421 12.3480263,81.0282895 C13.4296053,76.8822368 12.1677632,65.5256579 17.3953947,60.6585526 C22.6230263,55.7914474 25.1467105,46.7782895 25.1467105,46.7782895 Z" id="Path" fill="#3F3D56" fill-rule="nonzero"></path>
            <path d="M17.7559211,43.3532895 C17.7559211,43.3532895 10.5453947,36.8638158 9.64407895,34.1598684 C8.74276316,31.4559211 5.31776316,26.4085526 4.59671053,27.1296053 C3.87565789,27.8506579 -0.0901315789,29.4730263 0.811184211,30.7348684 C1.7125,31.9967105 3.87565789,33.6190789 5.1375,38.1256579 C6.39934211,42.6322368 15.2322368,48.4006579 15.2322368,48.4006579 L17.7559211,43.3532895 Z" id="Path" fill="#3F3D56" fill-rule="nonzero"></path>
            <path d="M30.9151316,48.4006579 C30.9151316,48.4006579 27.8506579,48.5809211 26.0480263,58.1348684 C24.2453947,67.6888158 24.4256579,90.0414474 26.0480263,91.8440789 C26.0480263,91.8440789 27.6703947,93.8269737 27.8506579,90.2217105 C28.0309211,86.6164474 30.7348684,69.8519737 30.0138158,65.5256579 C29.2927632,61.1993421 30.9151316,51.8256579 33.2585526,50.2032895 C35.6019737,48.5809211 30.9151316,48.4006579 30.9151316,48.4006579 Z" id="Path" fill="#3F3D56" fill-rule="nonzero"></path>
            <path d="M29.2927632,56.3322368 C29.2927632,56.3322368 35.2414474,59.0361842 35.0611842,61.0190789 C34.8809211,63.0019737 34.7006579,66.9677632 27.3098684,60.4782895 L29.2927632,56.3322368 Z" id="Path" fill="#3F3D56" fill-rule="nonzero"></path>
            <path d="M31.4559211,56.3322368 C31.4559211,56.3322368 28.9322368,62.2809211 32.1769737,63.3625 C35.4217105,64.4440789 36.3230263,58.3151316 36.3230263,58.3151316 C36.3230263,58.3151316 38.8467105,51.4651316 38.6664474,50.0230263 C38.4861842,48.5809211 34.8809211,48.4006579 34.5203947,49.3019737 C34.1598684,50.2032895 31.4559211,56.3322368 31.4559211,56.3322368 Z" id="Path" fill="#3F3D56" fill-rule="nonzero"></path>
            <ellipse id="Oval" fill="#2F2E41" fill-rule="nonzero" cx="33.3486842" cy="45.2460526" rx="2.16315789" ry="7.93157895"></ellipse>
            <ellipse id="Oval" fill="#2F2E41" fill-rule="nonzero" cx="31.7263158" cy="36.3230263" rx="6.48947368" ry="3.15460526"></ellipse>
            <path d="M32.2671053,39.1171053 C28.6830663,39.1171053 25.7776316,37.7047434 25.7776316,35.9625 C25.7776316,35.3481632 26.1401282,34.775276 26.7649852,34.290433 C25.8121015,34.8394749 25.2368421,35.5484463 25.2368421,36.3230263 C25.2368421,38.0652697 28.1422768,39.4776316 31.7263158,39.4776316 C34.0465874,39.4776316 34.2577243,39.1171053 32.2671053,39.1171053 Z" id="Path" fill="#000000" fill-rule="nonzero" opacity="0.1"></path>
            <path d="M40.4894253,102.257011 C41.8957938,103.005897 43.6217806,102.784787 44.7939575,101.705572 C45.9661344,100.626357 46.3287841,98.9244746 45.6983895,97.4611543 C45.0679948,95.9978341 43.5820799,95.0923082 41.9925856,95.2028142 L41.8149147,97.1279292 L41.1422807,95.3613178 C40.1954355,95.6527957 39.4030466,96.3082655 38.9392432,97.1836864 C38.7751624,97.4901067 38.655335,97.818234 38.5833352,98.158281 C38.2316979,99.7969264 39.0097532,101.470005 40.4894252,102.257011 L40.4894253,102.257011 Z" id="Path" fill="#57B894" fill-rule="nonzero"></path>
            <path d="M41.8262622,125.066038 C41.7371203,123.394802 43.3248476,122.149139 44.824235,121.405614 C46.3236225,120.66209 48.0509113,119.967525 48.7423395,118.443417 C49.7360438,116.253007 48.0359567,113.877531 46.7376329,111.852752 C45.774447,110.350188 44.9927476,108.738757 44.4088925,107.05218 C44.1748947,106.375929 43.9711072,105.674775 43.9856058,104.959325 C44.0064874,103.929004 44.4746128,102.967057 44.939261,102.047226 C46.4871398,98.9829795 48.106755,95.9563983 49.7981066,92.9674826" id="Path" stroke="#3F3D56"></path>
            <path d="M40.7120881,101.78642 C42.1184568,102.535304 43.8444427,102.314193 45.0166186,101.234978 C46.1887944,100.155763 46.5514436,98.4538806 45.921049,96.990561 C45.2906545,95.5272413 43.8047404,94.6217157 42.2152467,94.732221 L42.0375775,96.6573378 L41.3649436,94.8907264 C40.4180979,95.1822034 39.6257087,95.8376735 39.1619061,96.713095 C38.9978252,97.0195148 38.8779972,97.3476415 38.8059963,97.6876878 C38.454359,99.3263341 39.2324151,100.999414 40.7120881,101.78642 L40.7120881,101.78642 Z" id="Path" stroke="#3F3D56"></path>
            <path d="M46.0767792,91.7672093 C46.6763994,90.6384844 47.8099529,89.8932078 49.0838985,89.7901209 L49.1324542,91.651055 L49.9697315,89.8223213 C51.5818086,90.0749576 52.8456647,91.34073 53.0958584,92.953188 C53.346052,94.565646 52.5251885,96.1548896 51.0654662,96.8841552 C49.6057438,97.6134209 47.8420251,97.3154142 46.7029373,96.1470406 C45.5638496,94.978667 45.3107013,93.207953 46.0767792,91.7672093 L46.0767792,91.7672093 Z" id="Path" fill="#57B894" fill-rule="nonzero"></path>
            <path d="M46.3736618,91.1397547 C46.9732813,90.0110288 48.106835,89.2657515 49.3807811,89.1626645 L49.4293368,91.0236004 L50.2666141,89.1948649 C51.8786912,89.4475008 53.1425475,90.7132728 53.3927417,92.3257306 C53.6429358,93.9381885 52.8220729,95.5274322 51.3623509,96.2566984 C49.9026289,96.9859645 48.1389101,96.6879585 46.999822,95.5195855 C45.8607338,94.3512124 45.6075847,92.5804987 46.3736618,91.1397547 Z" id="Path" stroke="#3F3D56"></path>
            <path d="M46.0803412,111.797291 C47.7643297,112.692493 49.8519772,112.1817 50.9324074,110.610116 C52.0128375,109.038533 51.74213,106.906421 50.3032346,105.654708 L49.6598555,107.06004 L49.6112205,105.17724 C49.6083709,105.175368 49.6053797,105.173722 49.6022741,105.172315 C48.418733,104.542155 46.9888485,104.591583 45.8516468,105.301965 C44.714445,106.012348 44.042848,107.275665 44.0900287,108.615682 C44.1372094,109.955698 44.8959936,111.168653 46.0803412,111.797296 L46.0803412,111.797291 Z" id="Path" fill="#57B894" fill-rule="nonzero"></path>
            <path d="M46.3511848,111.157515 C48.0351741,112.052722 50.1228252,111.541929 51.2032566,109.970343 C52.2836879,108.398757 52.0129778,106.266643 50.5740782,105.014931 L49.9306973,106.420262 L49.8820641,104.537461 C49.8792138,104.535589 49.876222,104.533942 49.8731159,104.532536 C48.6896032,103.902666 47.259917,103.952259 46.122895,104.662625 C44.9858731,105.372991 44.3143667,106.636139 44.3614615,107.975997 C44.4085564,109.315855 45.167093,110.528738 46.3511848,111.157519 L46.3511848,111.157515 Z" id="Path" stroke="#3F3D56"></path>
            <path d="M41.3399086,117.418736 C41.399016,119.190753 42.6911744,120.679188 44.4373174,120.986635 C46.1834604,121.294081 47.9062932,120.336502 48.5670876,118.691239 C49.2278821,117.045977 48.6460151,115.16275 47.1723053,114.176993 C45.6985954,113.191235 43.7358698,113.372396 42.4674925,114.611249 L43.7698939,117.336545 L41.6956724,115.694281 C41.4406599,116.232302 41.3186477,116.823718 41.3399086,117.418736 L41.3399086,117.418736 Z" id="Path" fill="#57B894" fill-rule="nonzero"></path>
            <path d="M41.5625697,116.948145 C41.621677,118.720162 42.9138355,120.208596 44.6599785,120.516043 C46.4061214,120.82349 48.1289542,119.865911 48.7897487,118.220648 C49.4505431,116.575385 48.8686762,114.692159 47.3949663,113.706401 C45.9212564,112.720644 43.9585308,112.901804 42.6901536,114.140658 L43.9925549,116.865952 L41.9183334,115.223688 C41.6633217,115.76171 41.5413096,116.353126 41.5625697,116.948145 Z" id="Path" stroke="#3F3D56"></path>
            <line x1="0.811184211" y1="124.651974" x2="74.1782895" y2="124.651974" id="Path" stroke="#3F3D56"></line>
            <rect id="Rectangle" fill="#F2F2F2" fill-rule="nonzero" x="62.8217105" y="20.4598684" width="53.7184211" height="35.3315789"></rect>
            <rect id="Rectangle" stroke="#3F3D56" x="49.8427632" y="0.0901315789" width="87.0671053" height="68.6802632"></rect>
            <line x1="49.9328947" y1="4.05592105" x2="137" y2="4.05592105" id="Path" stroke="#3F3D56"></line>
            <circle id="Oval" fill="#F86B75" fill-rule="nonzero" cx="51.6453947" cy="2.25328947" r="1"></circle>
            <circle id="Oval" fill="#FAD375" fill-rule="nonzero" cx="54.1690789" cy="2.25328947" r="1"></circle>
            <circle id="Oval" fill="#8BCC55" fill-rule="nonzero" cx="56.6927632" cy="2.25328947" r="1"></circle>
            <circle id="Oval" stroke="#3F3D56" cx="52.0059211" cy="1.7125" r="1"></circle>
            <circle id="Oval" stroke="#3F3D56" cx="54.5296053" cy="1.7125" r="1"></circle>
            <circle id="Oval" stroke="#3F3D56" cx="57.0532895" cy="1.7125" r="1"></circle>
            <rect id="Rectangle" stroke="#3F3D56" x="67.0578947" y="16.5842105" width="53.7184211" height="35.3315789"></rect>
            <rect id="Rectangle" fill="#AB6ACB" fill-rule="nonzero" x="109.960526" y="59.6671053" width="9.91447368" height="2.70394737"></rect>
            <rect id="Rectangle" stroke="#3F3D56" x="110.861842" y="58.9460526" width="9.91447368" height="2.70394737"></rect>
            <path d="M94.5282316,37.2326504 L90.3804683,32.9579782 C90.1975843,32.773583 89.9467352,32.6727956 89.6871113,32.6793977 L89.6747308,32.6793977 C89.4151064,32.6727959 89.1642569,32.7735833 88.981372,32.9579782 L84.8336105,37.2326504 C84.6484925,37.4057322 84.5434202,37.6478181 84.5434202,37.9012465 C84.5434202,38.1546749 84.6484925,38.3967607 84.8336105,38.5698425 C85.2272431,38.9381887 85.8390723,38.9381887 86.232705,38.5698425 L88.6904129,36.000705 L88.6904129,42.6247451 C88.7141244,43.1545677 89.1505699,43.5719176 89.6809229,43.5719176 C90.2112758,43.5719176 90.6477213,43.1545677 90.6714329,42.6247451 L90.6714329,36.000705 L93.1291407,38.5698425 C93.522774,38.938189 94.1346038,38.938189 94.528237,38.5698425 C94.713355,38.3967607 94.8184273,38.1546749 94.8184273,37.9012465 C94.8184273,37.6478181 94.713355,37.4057322 94.528237,37.2326504 L94.5282316,37.2326504 Z" id="Path" fill="#AB6ACB" fill-rule="nonzero"></path>
        </g>
    </g>
</svg>