<?xml version="1.0" encoding="UTF-8"?>
<svg width="137px" height="137px" viewBox="0 0 137 137" version="1.1" xmlns="http://www.w3.org/2000/svg" xmlns:xlink="http://www.w3.org/1999/xlink">
    <title>import_illustration_1 copy 3</title>
    <g id="import_illustration_1-copy-3" stroke="none" stroke-width="1" fill="none" fill-rule="evenodd">
        <g id="undraw_buy_house_560d-(5)" transform="translate(-765.000000, 87.000000)"></g>
        <g id="undraw_task_list_6x9d-(1)" transform="translate(0.000000, 31.000000)" fill-rule="nonzero">
            <path d="M87.0928571,64.8570036 L11.7428571,64.8570036 C10.8245311,64.8559445 10.0803448,64.1117583 10.0792857,63.1934322 L10.0792857,19.3276292 C10.0803115,18.4092893 10.8245172,17.6650836 11.7428571,17.6640578 L87.0928571,17.6640578 C88.0111832,17.6651169 88.7553695,18.4093032 88.7564286,19.3276292 L88.7564286,63.1934322 C88.755335,64.111744 88.0111689,64.8559101 87.0928571,64.8570036 L87.0928571,64.8570036 Z" id="Path" fill="#E6E6E6"></path>
            <path d="M91.79,70.9962007 L7.04571429,70.9962007 L7.04571429,14.9240578 C7.0468802,13.897686 7.87862818,13.065938 8.905,13.0647721 L89.9307143,13.0647721 C90.9570861,13.065938 91.7888341,13.897686 91.79,14.9240578 L91.79,70.9962007 Z M7.43714286,70.6047721 L91.3985714,70.6047721 L91.3985714,14.9240578 C91.3976869,14.1137493 90.7410228,13.4570852 89.9307143,13.4562007 L8.905,13.4562007 C8.09469153,13.4570852 7.43802734,14.1137493 7.43714286,14.9240578 L7.43714286,70.6047721 Z" id="Shape" fill="#CCCCCC"></path>
            <circle id="Oval" fill="#E6E6E6" cx="49.4178571" cy="15.5112007" r="1"></circle>
            <path d="M68.3042857,55.5477695 L30.5314286,55.5477695 C29.6131025,55.5467104 28.8689162,54.8025241 28.8678571,53.8841981 L28.8678571,28.6370552 C28.8689152,27.7187287 29.613102,26.9745418 30.5314286,26.9734838 L68.3042857,26.9734838 C69.222598,26.9745762 69.9667647,27.718743 69.9678571,28.6370552 L69.9678571,53.8841981 C69.9667636,54.8025098 69.2225975,55.5466759 68.3042857,55.5477695 L68.3042857,55.5477695 Z" id="Path" fill="#FFFFFF"></path>
            <path d="M36.7453571,37.7376736 C35.880637,37.7376736 35.1796429,37.0366794 35.1796429,36.1719593 C35.1796429,35.3072392 35.880637,34.606245 36.7453571,34.606245 C37.6100773,34.606245 38.3110714,35.3072392 38.3110714,36.1719593 C38.3100824,37.0362694 37.6096673,37.7366846 36.7453571,37.7376736 L36.7453571,37.7376736 Z" id="Path" fill="#CCCCCC"></path>
            <path d="M36.7453571,42.826245 C35.880637,42.826245 35.1796429,42.1252509 35.1796429,41.2605307 C35.1796429,40.3958106 35.880637,39.6948164 36.7453571,39.6948164 C37.6100773,39.6948164 38.3110714,40.3958106 38.3110714,41.2605307 C38.3100824,42.1248409 37.6096673,42.825256 36.7453571,42.826245 L36.7453571,42.826245 Z" id="Path" fill="#AB6ACB"></path>
            <path d="M36.7453571,47.9148164 C35.880637,47.9148164 35.1796429,47.2138223 35.1796429,46.3491022 C35.1796429,45.484382 35.880637,44.7833879 36.7453571,44.7833879 C37.6100773,44.7833879 38.3110714,45.484382 38.3110714,46.3491022 C38.3100824,47.2134123 37.6096673,47.9138274 36.7453571,47.9148164 L36.7453571,47.9148164 Z" id="Path" fill="#AB6ACB"></path>
            <path d="M44.1825,34.8998164 C43.4799149,34.8998164 42.9103571,35.4693742 42.9103571,36.1719593 C42.9103571,36.8745444 43.4799149,37.4441022 44.1825,37.4441022 L62.3839286,37.4441022 C63.0865137,37.4441022 63.6560714,36.8745444 63.6560714,36.1719593 C63.6560714,35.4693742 63.0865137,34.8998164 62.3839286,34.8998164 L44.1825,34.8998164 Z" id="Path" fill="#CCCCCC"></path>
            <path d="M44.1825,39.9883879 C43.4799149,39.9883879 42.9103571,40.5579456 42.9103571,41.2605307 C42.9103571,41.9631158 43.4799149,42.5326736 44.1825,42.5326736 L62.3839286,42.5326736 C63.0865137,42.5326736 63.6560714,41.9631158 63.6560714,41.2605307 C63.6560714,40.5579456 63.0865137,39.9883879 62.3839286,39.9883879 L44.1825,39.9883879 Z" id="Path" fill="#AB6ACB"></path>
            <path d="M44.1825,45.0769593 C43.4799149,45.0769593 42.9103571,45.6465171 42.9103571,46.3491022 C42.9103571,47.0516873 43.4799149,47.621245 44.1825,47.621245 L62.3839286,47.621245 C63.0865137,47.621245 63.6560714,47.0516873 63.6560714,46.3491022 C63.6560714,45.6465171 63.0865137,45.0769593 62.3839286,45.0769593 L44.1825,45.0769593 Z" id="Path" fill="#AB6ACB"></path>
            <polygon id="Path" fill="#FFB8B8" points="129.814937 73.4570514 127.415871 73.4167343 126.429667 64.1439871 129.97053 64.2034843"></polygon>
            <path d="M125.689206,72.7166344 L130.316651,72.7166344 L130.316651,75.6302076 L122.775635,75.6302076 L122.775635,75.6302076 C122.775635,74.85748 123.082598,74.1164009 123.628999,73.5699998 C124.1754,73.0235987 124.916479,72.7166344 125.689206,72.7166344 Z" id="Path" fill="#2F2E41" transform="translate(126.546143, 74.173421) rotate(0.962770) translate(-126.546143, -74.173421) "></path>
            <polygon id="Path" fill="#FFB8B8" points="106.006881 73.4351314 103.782784 72.5348457 106.19692 63.5276829 109.47944 64.8565829"></polygon>
            <path d="M101.842074,71.4714411 L106.469523,71.4714411 L106.469523,74.3850162 L98.9285106,74.3850162 L98.9285106,74.3850162 C98.9285106,72.7758973 100.232955,71.4714411 101.842074,71.4714411 L101.842074,71.4714411 Z" id="Path" fill="#2F2E41" transform="translate(102.699017, 72.928229) rotate(22.037930) translate(-102.699017, -72.928229) "></path>
            <path d="M114.025971,38.7368498 L106.980257,57.329707 L104.044542,70.2468498 L107.175971,71.8125641 L121.463114,44.0211355 L126.7474,71.9104212 L129.878828,71.9104212 C129.878828,71.9104212 131.310674,38.8318554 129.224751,36.2400659 L114.025971,38.7368498 Z" id="Path" fill="#2F2E41"></path>
            <circle id="Oval" fill="#AB6ACB" cx="105.291203" cy="53.5799406" r="5.51363937"></circle>
            <polygon id="Path" fill="#FFFFFF" points="104.831617 56.01793 103.081736 53.7678029 104.09945 52.9763343 104.927909 54.0416071 107.727014 51.0869086 108.663116 51.97369"></polygon>
            <circle id="Oval" fill="#2F2E41" cx="117.450971" cy="6.54184981" r="6.45857143"></circle>
            <path d="M108.437557,50.4911504 C108.994619,50.2139425 109.400282,49.7042273 109.545389,49.0991606 C109.690497,48.4940939 109.560143,47.8558307 109.189403,47.3561167 L114.088719,20.2418596 L109.516819,20.181609 L106.114524,46.9940982 C105.298395,47.6877835 105.130088,48.8822556 105.722758,49.7744484 C106.315428,50.6666413 107.481741,50.9745451 108.437563,50.4911504 L108.437557,50.4911504 Z" id="Path" fill="#FFB8B8"></path>
            <path d="M136.512536,45.1952314 C136.862285,44.6622791 136.951418,43.999452 136.754884,43.393039 C136.55835,42.786626 136.097364,42.3020884 135.501488,42.0756064 L126.752864,20.8249492 C126.319502,19.7723028 125.444838,18.9637199 124.361458,18.6142154 C123.278077,18.2647109 122.095783,18.4097075 121.128965,19.0106484 L121.128965,19.0106484 L132.716446,43.4281819 C132.407686,44.4366284 132.889484,45.5183755 133.845626,45.9634489 C134.801767,46.4085223 135.939688,46.0807361 136.512544,45.1952236 L136.512536,45.1952314 Z" id="Path" fill="#FFB8B8"></path>
            <circle id="Oval" fill="#FFB8B8" cx="117.578878" cy="8.97517923" r="4.80694444"></circle>
            <path d="M111.73373,16.5755909 C114.506246,15.4213561 119.292852,14.280608 124.607964,16.7669251 C125.866005,17.3534127 126.813835,18.4490722 127.213145,19.7784277 L129.487399,27.3854212 L126.551685,30.3211355 L129.291685,36.3882784 C129.291685,36.3882784 118.820971,42.7489927 114.123828,38.834707 L111.285971,28.7554212 L107.567399,27.7768498 L108.836019,20.2397439 C109.108074,18.6015545 110.202336,17.2178609 111.73373,16.5755909 L111.73373,16.5755909 Z" id="Path" fill="#CCCCCC"></path>
            <path d="M113.082965,5.42039326 C114.960227,6.56635447 117.076595,7.26369581 119.267378,7.45815083 L118.615485,6.67705511 C119.09014,6.85255083 119.589604,6.95173089 120.0953,6.97090641 C120.608728,6.98578623 121.098814,6.75639717 121.416281,6.35260976 C121.675793,5.93292984 121.713481,5.4128109 121.517184,4.96010261 C121.318512,4.51522935 121.009303,4.12859648 120.61898,3.83699619 C119.213728,2.72537799 117.345135,2.39142587 115.641837,2.94748846 C115.066596,3.11940543 114.551412,3.44987827 114.155303,3.90104956 C113.759775,4.36271034 113.622804,4.99227321 113.790775,5.57653216" id="Path" fill="#2F2E41"></path>
            <path d="M112.183912,1.14316519 C112.105742,0.321165186 111.098745,-0.184891286 110.311253,0.0634094714 C109.523761,0.311710229 109.006749,1.104631 108.850467,1.91541461 C108.698588,2.6050468 108.827502,3.3267711 109.208736,3.92117877 C109.607237,4.51457647 110.315067,4.8212409 111.020528,4.70613006 C111.799357,4.54011933 112.338939,3.77962841 112.493328,2.99841136 C112.647718,2.2171943 112.494434,1.41176739 112.341348,0.630291986" id="Path" fill="#2F2E41"></path>
            <path d="M125.492483,1.53459376 C125.414313,0.712593757 124.407316,0.206537286 123.619825,0.454838043 C122.832333,0.7031388 122.31532,1.49605957 122.159039,2.30684319 C122.007159,2.99647537 122.136073,3.71819967 122.517307,4.31260734 C122.915809,4.90600504 123.623639,5.21266947 124.329099,5.09755863 C125.107928,4.9315479 125.647511,4.17105699 125.8019,3.38983993 C125.956289,2.60862287 125.803006,1.80319596 125.64992,1.02172056" id="Path" fill="#2F2E41"></path>
            <path d="M93.2578689,68.451915 L89.8328571,68.451915 L89.8328571,67.8647721 C89.8328571,67.432412 89.4823601,67.081915 89.05,67.081915 L84.94,67.081915 C84.5076399,67.081915 84.1571429,67.432412 84.1571429,67.8647721 L84.1571429,68.451915 L83.57,68.451915 L83.57,67.8647721 C83.57,67.432412 83.2195029,67.081915 82.7871429,67.081915 L78.6771429,67.081915 C78.2447828,67.081915 77.8942857,67.432412 77.8942857,67.8647721 L77.8942857,68.451915 L77.3071429,68.451915 L77.3071429,67.8647721 C77.3071429,67.432412 76.9566458,67.081915 76.5242857,67.081915 L72.4142857,67.081915 C71.9819257,67.081915 71.6314286,67.432412 71.6314286,67.8647721 L71.6314286,68.451915 L71.0442857,68.451915 L71.0442857,67.8647721 C71.0442857,67.432412 70.6937886,67.081915 70.2614286,67.081915 L66.1514286,67.081915 C65.7190685,67.081915 65.3685714,67.432412 65.3685714,67.8647721 L65.3685714,68.451915 L64.7814286,68.451915 L64.7814286,67.8647721 C64.7814286,67.432412 64.4309315,67.081915 63.9985714,67.081915 L59.8885714,67.081915 C59.4562114,67.081915 59.1057143,67.432412 59.1057143,67.8647721 L59.1057143,68.451915 L58.5185714,68.451915 L58.5185714,67.8647721 C58.5185714,67.432412 58.1680743,67.081915 57.7357143,67.081915 L53.6257143,67.081915 C53.1933542,67.081915 52.8428571,67.432412 52.8428571,67.8647721 L52.8428571,68.451915 L52.2557143,68.451915 L52.2557143,67.8647721 C52.2557143,67.432412 51.9052172,67.081915 51.4728571,67.081915 L47.3628571,67.081915 C46.9304971,67.081915 46.58,67.432412 46.58,67.8647721 L46.58,68.451915 L45.9928571,68.451915 L45.9928571,67.8647721 C45.9928571,67.432412 45.6423601,67.081915 45.21,67.081915 L41.1,67.081915 C40.6676399,67.081915 40.3171429,67.432412 40.3171429,67.8647721 L40.3171429,68.451915 L39.73,68.451915 L39.73,67.8647721 C39.73,67.432412 39.3795029,67.081915 38.9471429,67.081915 L34.8371429,67.081915 C34.4047828,67.081915 34.0542857,67.432412 34.0542857,67.8647721 L34.0542857,68.451915 L33.4671429,68.451915 L33.4671429,67.8647721 C33.4671429,67.432412 33.1166458,67.081915 32.6842857,67.081915 L28.5742857,67.081915 C28.1419257,67.081915 27.7914286,67.432412 27.7914286,67.8647721 L27.7914286,68.451915 L27.2042857,68.451915 L27.2042857,67.8647721 C27.2042857,67.432412 26.8537886,67.081915 26.4214286,67.081915 L22.3114286,67.081915 C21.8790685,67.081915 21.5285714,67.432412 21.5285714,67.8647721 L21.5285714,68.451915 L20.9414286,68.451915 L20.9414286,67.8647721 C20.9414286,67.432412 20.5909315,67.081915 20.1585714,67.081915 L16.0485714,67.081915 C15.6162114,67.081915 15.2657143,67.432412 15.2657143,67.8647721 L15.2657143,68.451915 L14.6785714,68.451915 L14.6785714,67.8647721 C14.6785714,67.432412 14.3280743,67.081915 13.8957143,67.081915 L9.78571429,67.081915 C9.35335422,67.081915 9.00285714,67.432412 9.00285714,67.8647721 L9.00285714,68.451915 L5.5778454,68.451915 C2.49728645,68.451915 0,70.9492014 0,74.0297604 L0,74.0297721 C0,74.9485372 0.744806298,75.6933435 1.66357143,75.6933435 L97.1721429,75.6933435 C98.090908,75.6933435 98.8357143,74.9485372 98.8357143,74.0297721 L98.8357143,74.0297604 C98.8357143,70.9492014 96.3384278,68.451915 93.2578689,68.451915 Z" id="Path" fill="#3F3D56"></path>
        </g>
    </g>
</svg>