<?xml version="1.0" encoding="UTF-8"?>
<svg width="137px" height="137px" viewBox="0 0 137 137" version="1.1" xmlns="http://www.w3.org/2000/svg" xmlns:xlink="http://www.w3.org/1999/xlink">
    <title>managing_change_illustration</title>
    <g id="managing_change_illustration" stroke="none" stroke-width="1" fill="none" fill-rule="evenodd">
        <g id="undraw_buy_house_560d-(5)" transform="translate(-765.000000, 87.000000)"></g>
        <g id="undraw_Moving_twwf" transform="translate(0.000000, 23.000000)">
            <rect id="Rectangle" fill="#3F3D56" fill-rule="nonzero" x="0" y="88.26029" width="137" height="1"></rect>
            <rect id="Rectangle" fill="#3F3D56" fill-rule="nonzero" x="15.076555" y="61.9449761" width="32.9389952" height="26.5478469"></rect>
            <rect id="Rectangle" fill="#AB6ACB" fill-rule="nonzero" x="27.0394737" y="80.7906699" width="5.57177033" height="7.53827751"></rect>
            <path d="M95.8672249,44.9019204 C94.7990837,47.163856 85.7962303,44.239686 85.7962303,44.239686 L68.6099835,38.8380005 L64.3486247,36.1729392 L61.6338959,34.4749504 L67.2073493,32.4327081 L67.3732078,32.4966327 L71.4926618,34.0811721 L87.4357746,41.9813754 C87.4357746,41.9813754 98.65311,39.0023989 95.8672249,44.9019204 Z" id="Path" fill="#A0616A" fill-rule="nonzero"></path>
            <path d="M52.7475827,21.6375768 C52.7475827,21.6375768 50.5974857,22.5025122 50.3483341,24.9259291 C50.0991826,27.3493461 50.0787014,41.0218953 50.0787014,41.0218953 C50.0787014,41.0218953 55.6971419,37.7874678 58.7181344,37.7212768 C61.739127,37.6550858 68.7568816,32.5587645 68.7568816,32.5587645 C68.7568816,32.5587645 55.5343053,20.6164548 52.7475827,21.6375768 Z" id="Path" fill="#D0CDE1" fill-rule="nonzero"></path>
            <path d="M52.7475827,21.6375768 C52.7475827,21.6375768 50.5974857,22.5025122 50.3483341,24.9259291 C50.0991826,27.3493461 50.0787014,41.0218953 50.0787014,41.0218953 C50.0787014,41.0218953 55.6971419,37.7874678 58.7181344,37.7212768 C61.739127,37.6550858 68.7568816,32.5587645 68.7568816,32.5587645 C68.7568816,32.5587645 55.5343053,20.6164548 52.7475827,21.6375768 Z" id="Path" fill="#000000" fill-rule="nonzero" opacity="0.1"></path>
            <path d="M98.8677068,41.7837136 L98.7854412,41.6147169 C98.7603961,41.5633468 96.2964986,36.4127875 97.6702383,31.3345646 C99.0440566,26.2561811 103.768523,23.0502041 103.816053,23.0185171 L103.972168,22.9140153 L104.054425,23.083012 C104.079472,23.1343821 106.543368,28.2849413 105.169548,33.3631643 C103.79581,38.4415478 99.0713435,41.6475248 99.023813,41.6792117 L98.8677068,41.7837136 Z M103.839987,23.4029168 C103.012848,24.0046467 99.1862564,26.9856143 97.9866362,31.4200175 C96.7861344,35.8579425 98.5887659,40.3585989 98.9998954,41.2948022 C99.8270362,40.6930723 103.653635,37.7121047 104.853168,33.2777015 L104.853168,33.2777015 C106.053748,28.8397815 104.251117,24.339125 103.839987,23.4029168 Z" id="Shape" fill="#3F3D56" fill-rule="nonzero"></path>
            <path d="M92.5151495,33.3204452 C93.8887843,38.398224 98.5937953,41.5430213 98.5937953,41.5430213 C98.5937953,41.5430213 101.071702,36.45511 99.6980677,31.3773263 C98.324433,26.2995426 93.6194302,23.1547486 93.6194302,23.1547486 C93.6194302,23.1547486 91.1415082,28.2426647 92.5151495,33.3204452 Z" id="Path" fill="#AB6ACB" fill-rule="nonzero"></path>
            <path d="M98.9418834,41.7126588 L98.7543229,41.7024165 C98.6971909,41.699375 92.9985924,41.3480995 89.2288129,37.678502 C85.4591939,34.0089046 84.9548455,28.3217494 84.9502045,28.2646175 L84.9349215,28.0775371 L85.122482,28.0877793 C85.179614,28.0908192 90.8782126,28.4420964 94.647915,32.1116922 C98.4176143,35.7814502 98.9219644,41.4684448 98.9266053,41.5255784 L98.9418834,41.7126588 Z M85.2978797,28.4307333 C85.4215058,29.4459934 86.1657485,34.2393546 89.4575029,37.4435716 C92.7492589,40.6481065 97.5606235,41.2631201 98.5789252,41.359461 C98.4552975,40.3440419 97.7110564,35.5510002 94.4192217,32.3466308 L94.4192217,32.3466308 C91.1250649,29.139687 86.3157012,28.5265939 85.2978797,28.4307333 Z" id="Shape" fill="#3F3D56" fill-rule="nonzero"></path>
            <path d="M102.992931,32.2291746 C99.2236561,35.8984115 98.7632672,41.5388818 98.7632672,41.5388818 C98.7632672,41.5388818 104.414078,41.230345 108.183353,37.5611081 C111.952628,33.8918712 112.413016,28.2514009 112.413016,28.2514009 C112.413016,28.2514009 106.762204,28.5599393 102.992931,32.2291746 Z" id="Path" fill="#3F3D56" fill-rule="nonzero"></path>
            <circle id="Oval" fill="#AB6ACB" fill-rule="nonzero" cx="98.6847069" cy="19.8587908" r="2.45813397"></circle>
            <rect id="Rectangle" fill="#D0CDE1" fill-rule="nonzero" x="90.1315789" y="40.4772727" width="17.6985646" height="8.5215311" rx="4.26076555"></rect>
            <circle id="Oval" fill="#2F2E41" fill-rule="nonzero" cx="57.4244988" cy="13.2740922" r="8.06656492"></circle>
            <path d="M76.8111755,83.9191894 L76.2420224,83.443157 L76.2840909,83.7404273 C76.2840909,83.7404273 76.485204,83.8035555 76.8111755,83.9191894 Z" id="Path"></path>
            <path d="M73.8259569,66.3696238 L69.2374402,66.697375 C69.2374402,66.697375 69.0964892,75.3063861 68.5,77.5131644 L76.3660287,83.7404372 L74.7272727,78.496418 L73.8259569,66.3696238 Z" id="Path" fill="#A0616A" fill-rule="nonzero"></path>
            <path d="M76.8111755,83.9191894 L76.8111951,83.9191992 L76.8111755,83.9191894 C76.485204,83.8035555 76.5299043,83.7404372 76.5299043,83.7404372 L76.5299043,83.412686 L68.5126627,76.9785088 C68.4347152,77.2668807 68.348887,77.4563422 68.2541866,77.5131644 C67.960202,77.6895536 67.5396415,78.2667579 67.1211802,78.9344575 C66.1353973,80.5179228 65.8907879,82.4530955 66.451555,84.2320476 L66.451555,84.2320574 L66.1238038,89.8038278 L67.4348086,89.8038278 L67.7625598,84.7236842 L69.4013158,84.7236842 C69.4013158,84.7236842 72.187201,88.3289474 73.0065789,89.6399522 C73.8259569,90.9509569 77.4312201,91.2787081 81.0364833,88.8205742 C84.0828749,86.7434936 78.5880409,84.5495172 76.8111755,83.9191894 Z" id="Path" fill="#2F2E41" fill-rule="nonzero"></path>
            <circle id="Oval" fill="#A0616A" fill-rule="nonzero" cx="57.4383971" cy="17.125" r="5.24401914"></circle>
            <path d="M60.3062201,19.9928295 L57.5203349,29.3337386 L50.8014354,24.4174707 C50.8014354,24.4174707 54.242823,20.6483319 54.242823,19.6650783 C54.242823,18.6818247 60.3062201,19.9928295 60.3062201,19.9928295 Z" id="Path" fill="#A0616A" fill-rule="nonzero"></path>
            <path d="M33.5125598,46.9503654 C33.5125598,46.9503654 25.4826555,56.6190257 33.1848086,62.5185472 C36.5739412,65.1144793 39.5505857,70.0266847 41.8215443,74.7141037 C45.4283247,82.1969021 52.1689132,87.6939871 60.2242675,89.7218932 L60.2242807,89.7218932 C60.2242807,89.7218932 87.5915055,57.7661516 78.2505964,48.7529937 C68.9096874,39.7398358 43.6728453,47.6058645 43.6728453,47.6058645 L33.5125598,46.9503654 Z" id="Path" fill="#2F2E41" fill-rule="nonzero"></path>
            <path d="M56.2470215,38.7975544 C56.2830742,40.955796 55.8701077,43.3254372 53.9970096,43.836729 C50.3917464,44.8199826 50.0639952,44.3283558 50.0639952,44.3283558 C50.0639952,44.3283558 49.4084928,45.475485 49.5723684,46.7864898 C49.736244,48.0974946 48.0155502,47.0323032 48.0155502,47.0323032 C48.0155502,47.0323032 30.562799,49.2446238 31.2183014,46.7864898 C31.8738038,44.3283558 38.1010766,35.8068247 38.1010766,35.8068247 C38.1010766,35.8068247 48.2613636,21.5496477 50.3917464,22.0412745 C50.4638517,22.0576621 50.5375957,22.0773271 50.6146172,22.098631 C52.7843301,22.7311908 56.4666148,25.5219922 56.7828947,26.6297912 C57.1106459,27.7769204 55.7996411,34.9874467 55.7996411,34.9874467 C56.0664345,36.2408882 56.2162048,37.5164047 56.2470215,38.7975544 Z" id="Path" fill="#D0CDE1" fill-rule="nonzero"></path>
            <circle id="Oval" fill="#2F2E41" fill-rule="nonzero" cx="58.501917" cy="2.67946927" r="2.67946927"></circle>
            <path d="M61.5170739,4.33889488 C62.3725419,3.26179969 62.2735852,1.71192643 61.2880807,0.752374175 C61.3629588,0.8005536 61.4360823,0.852850128 61.5074512,0.909263756 C62.2587267,1.50414158 62.6351226,2.45494331 62.4945967,3.4028605 C62.3540707,4.35077769 61.7180185,5.15148696 60.8264698,5.50282093 C59.9349212,5.85415491 58.9236173,5.7026219 58.1741986,5.1054066 C58.1029859,5.04883784 58.035503,4.98944167 57.9717499,4.92721811 C59.129371,5.67008666 60.6614406,5.41584977 61.5170739,4.33889488 Z" id="Path" fill="#2F2E41" fill-rule="nonzero"></path>
            <path d="M58.8987991,9.52316825 C61.9483912,10.3517642 64.0287428,12.4655825 63.545395,14.2445094 C63.3291251,15.0404778 62.63454,15.6329209 61.6615729,15.972045 L60.8078449,14.912999 L60.7690671,16.1981835 C60.6340188,16.2211802 60.496927,16.241704 60.3556745,16.2567166 L59.2710474,13.9725513 L58.6526334,16.2485867 C58.1444975,16.1942988 57.641504,16.0995484 57.1484422,15.9652376 C54.0988517,15.1366417 52.0185001,13.0228234 52.5018479,11.2438964 C52.9851957,9.46496947 55.8492086,8.69457226 58.8987991,9.52316825 Z" id="Path" fill="#2F2E41" fill-rule="nonzero"></path>
            <path d="M82.0197368,58.9132841 C79.8893541,60.2242889 78.5783493,50.8833798 78.5783493,50.8833798 L63.1740431,41.5424707 L59.6703828,37.9388463 L57.4383971,35.6429491 L63.3379187,34.9874467 L63.4837679,35.0890496 L67.1070574,37.6094563 L80.7087321,49.0807482 C80.7087321,49.0807482 84.1501196,57.6022793 82.0197368,58.9132841 Z" id="Path" fill="#A0616A" fill-rule="nonzero"></path>
            <path d="M55.7996411,34.9874467 C56.0664345,36.2408882 56.2162048,37.5164047 56.2470215,38.7975544 C55.1015311,39.0056764 54.0674761,39.0810592 53.3415072,38.9204611 C50.3917464,38.2649587 44.1644737,40.0675903 44.1644737,40.0675903 C44.1644737,40.0675903 47.4419856,26.7936668 48.2613636,24.4994085 C48.6563721,23.3931574 49.5164839,22.5156756 50.6146172,22.098631 C52.7843301,22.7311908 56.4666148,25.5219922 56.7828947,26.6297912 C57.1106459,27.7769204 55.7996411,34.9874467 55.7996411,34.9874467 Z" id="Path" fill="#000000" fill-rule="nonzero" opacity="0.1"></path>
            <path d="M64.3211722,36.2984515 C64.3211722,36.2984515 62.1612919,37.1801022 59.6703828,37.9388463 L57.4383971,35.6429491 L63.3379187,34.9874467 L63.4837679,35.0890496 C64.0114474,35.8412255 64.3211722,36.2984515 64.3211722,36.2984515 Z" id="Path" fill="#000000" fill-rule="nonzero" opacity="0.1"></path>
            <path d="M51.8666268,21.0580209 C51.8666268,21.0580209 49.5723684,21.3857721 48.7529904,23.6800305 C47.9336124,25.9742889 44.6561005,39.2482123 44.6561005,39.2482123 C44.6561005,39.2482123 50.8833732,37.4455807 53.833134,38.1010831 C56.7828947,38.7565855 64.812799,35.4790735 64.812799,35.4790735 C64.812799,35.4790735 54.8163876,20.7302697 51.8666268,21.0580209 Z" id="Path" fill="#D0CDE1" fill-rule="nonzero"></path>
            <polygon id="Path" fill="#3F3D56" fill-rule="nonzero" points="113.702953 62.5688505 114.579688 60.2310012 122.76216 55.5553026 128.314593 54.386378"></polygon>
            <polygon id="Path" fill="#3F3D56" fill-rule="nonzero" points="83.6032667 62.5688505 82.7265323 60.2310012 74.5440598 55.5553026 68.9916268 54.386378"></polygon>
            <polygon id="Path" fill="#3F3D56" fill-rule="nonzero" points="114.287498 63.1532309 83.0187225 63.1532309 80.388683 50.8796041 116.917537 50.8796041"></polygon>
            <polygon id="Path" fill="#000000" fill-rule="nonzero" opacity="0.1" points="114.287498 63.1532309 83.0187225 63.1532309 80.388683 50.8796041 116.917537 50.8796041"></polygon>
            <rect id="Rectangle" fill="#3F3D56" fill-rule="nonzero" x="82.8726159" y="62.4226767" width="31.5609866" height="25.9101037"></rect>
            <rect id="Rectangle" fill="#AB6ACB" fill-rule="nonzero" x="95.8672249" y="80.6267943" width="5.57177033" height="7.53827751"></rect>
        </g>
    </g>
</svg>