<?xml version="1.0" encoding="UTF-8"?>
<svg width="137px" height="137px" viewBox="0 0 137 137" version="1.1" xmlns="http://www.w3.org/2000/svg" xmlns:xlink="http://www.w3.org/1999/xlink">
    <title>planning_illustration</title>
    <defs>
        <linearGradient x1="49.9999651%" y1="100.000012%" x2="49.9999651%" y2="1.22231246e-05%" id="linearGradient-1">
            <stop stop-color="#808080" stop-opacity="0.25" offset="0%"></stop>
            <stop stop-color="#808080" stop-opacity="0.12" offset="54%"></stop>
            <stop stop-color="#808080" stop-opacity="0.1" offset="100%"></stop>
        </linearGradient>
    </defs>
    <g id="planning_illustration" stroke="none" stroke-width="1" fill="none" fill-rule="evenodd">
        <g id="undraw_buy_house_560d-(5)" transform="translate(-765.000000, 87.000000)"></g>
        <g id="undraw_business_decisions_gjwy" transform="translate(0.000000, 28.000000)" fill-rule="nonzero">
            <rect id="Rectangle" fill="#3F3D56" x="0" y="77.9414121" width="45.1142963" height="1"></rect>
            <path d="M28.4763271,25.1060506 C28.6068461,25.5250798 28.7224816,25.9246464 28.8197934,26.2681127 L28.759111,26.2898656 C28.6835452,25.971587 28.5873779,25.5594259 28.4763271,25.1060506 Z M24.8538856,14.9050821 L24.8355716,14.9153849 L24.8527467,14.8993542 L24.8538856,14.9050821 Z" id="Shape" fill="url(#linearGradient-1)"></path>
            <path d="M20.4140066,73.8485956 C19.732795,74.0672665 19.2210332,78.2552771 19.2210332,78.2552771 L23.4571261,79.3017121 C23.4571261,79.3017121 26.4281047,79.7401998 27.8397616,79.3017121 C29.2514186,78.8632244 29.2033293,77.6462049 27.182596,77.451573 C25.1618627,77.2569411 23.7250265,74.652315 23.7250265,74.652315 C23.7250265,74.652315 21.0952168,73.6299288 20.4140066,73.8485956 Z" id="Path" fill="#2F2E41"></path>
            <path d="M15.4428878,74.7003945 C15.4531572,75.0358686 15.3971327,75.3700723 15.2780242,75.6838581 C14.9366262,76.7104147 14.7921293,77.7922025 14.8521268,78.8723744 C14.861288,79.0013633 14.8715909,79.1364605 14.8830354,79.2776661 C15.029585,80.9572248 19.0927989,79.9119385 19.3629911,79.7161608 C19.6331832,79.520383 18.5615675,74.7003972 18.5615675,74.7003972 C18.5615675,74.7003972 15.3753415,74.0191898 15.4428878,74.7003945 Z" id="Path" fill="#2F2E41"></path>
            <path d="M19.8907724,13.6764942 C19.8918436,13.677848 19.8926238,13.6794083 19.8930641,13.6810776 C19.9789314,13.891729 23.1697393,21.7159159 22.5927104,19.1570817 C22.5755119,19.0809602 22.5640312,19.0036588 22.5583643,18.9258246 C22.5091348,18.2972814 22.8056646,17.6057628 23.2830818,16.9188289 C23.587375,16.4895851 23.9254274,16.0853013 24.294022,15.7098248 C24.4783469,15.5186304 24.6695427,15.3320125 24.8630287,15.1511182 C25.3942587,14.6531009 25.9472431,14.1974297 26.437252,13.8173257 C27.3176733,13.1303919 27.9977377,12.6941889 27.9977377,12.6941889 C27.9977377,12.6941889 21.8267773,5.49969653 22.2641262,8.6034914 C22.3843465,9.45414445 22.8858013,10.3025114 22.5457726,11.0901973 C22.3226407,11.5892679 22.0063381,12.0411835 21.6138301,12.4217051 C21.303918,12.7282013 20.9662572,13.0053048 20.6051829,13.249458 C20.4506249,13.3536392 20.3109447,13.4406523 20.1976023,13.5070583 C20.0086982,13.6181035 19.8907724,13.6764942 19.8907724,13.6764942 Z" id="Path" fill="#FFB9B9"></path>
            <path d="M41.0506494,22.9548011 C41.0506494,22.9548011 41.2933663,22.8197043 41.6597327,22.6582741 C42.7370762,22.1888722 44.8883229,21.5019384 45.1596622,23.3932958 C45.5248814,25.9303729 43.1057287,25.6384264 43.1057287,25.6384264 C42.6275016,25.4569564 42.137507,25.30816 41.6391242,25.1930637 C41.3941144,25.1269126 41.1382649,25.1109458 40.8869316,25.1461217 L41.0506494,22.9548011 Z" id="Path" fill="#FFB9B9"></path>
            <path d="M40.6819982,25.3567814 L41.4101463,25.3567814 C41.8337575,24.7843359 41.5097511,22.609046 41.5097511,22.609046 L40.8766246,22.7235342 L40.6819982,25.3567814 Z" id="Path" fill="#E6E6E6"></path>
            <path d="M27.6691813,29.0295872 L27.7905391,35.4318102 L28.5919627,38.450885 C28.5919627,38.450885 28.9858042,41.3726467 29.468945,41.1287895 C29.9520858,40.8849323 32.0128875,41.5787301 32.0128875,41.5787301 L32.1102076,40.4956643 L31.4163973,34.1300721 L30.8805894,30.9530031 C30.8805894,30.9530031 30.5760443,28.4571402 30.3447816,26.9962635 C30.1135189,25.5353868 28.1786515,26.692867 28.1786515,26.692867 L27.6691813,29.0295872 Z" id="Path" fill="#2F2E41"></path>
            <path d="M29.9852847,25.8536598 C31.3007617,25.4850045 32.9986359,25.8536598 32.9986359,25.8536598 L40.6693995,26.0230999 C42.0386839,24.2153167 41.0895718,22.5174467 41.0895718,22.5174467 C41.0895718,22.5174467 37.3274655,22.3697582 34.2786224,21.9140912 C31.2297793,21.4584242 29.2216447,19.1938309 29.2216447,19.1938309 L29.9852847,25.8536598 Z" id="Path" fill="#2F2E41"></path>
            <path d="M22.2641526,8.60360418 C21.8268038,5.49980235 27.9977641,12.6942961 27.9977641,12.6942961 C27.9977641,12.6942961 27.3176984,13.1304963 26.4372784,13.8174329 C26.355989,13.8231566 26.2746982,13.8231566 26.191124,13.8231566 C24.3031971,13.8231566 23.0014549,12.6416304 22.2526998,11.0387847 C22.553806,10.3255187 22.399248,9.55386207 22.2641526,8.60360418 Z" id="Path" fill="#000000" opacity="0.1"></path>
            <path d="M21.7443456,9.56155579 C21.7485884,7.23378505 23.6375556,5.349394 25.9653298,5.35080126 C28.293104,5.35221011 30.1797901,7.23888503 30.1812128,9.56665919 C30.1826338,11.8944334 28.298254,13.7834118 25.9704833,13.7876708 C23.6427126,13.7919154 21.7514447,11.9098334 21.7443456,9.58206959 C21.7443456,9.57523259 21.7443456,9.56839465 21.7443456,9.56155579 Z" id="Path" fill="#FFB9B9"></path>
            <path d="M19.6641098,27.6912113 L19.8930878,13.6766125 L22.339717,14.9577449 L24.3696129,15.4386024 L24.8836664,15.138642 L24.9203042,15.1168891 L25.0038784,15.0688026 C25.0038784,15.0688026 25.0313549,15.128335 25.0840234,15.237101 C25.5282403,16.1770547 27.689794,20.7737876 27.644002,21.1676305 C27.5959184,21.6049752 29.1861486,27.1186543 29.1861486,27.1186543 L29.1861486,27.1186543 L28.4190948,32.3406126 C28.4190948,32.3406126 29.8742465,35.9676319 29.4895647,37.3071411 C29.1048829,38.6466502 18.6131012,37.7204439 18.6131012,37.7204439 L19.6641098,27.6912113 Z" id="Path" fill="#E6E6E6"></path>
            <path d="M23.7616629,15.8713637 L24.576824,16.9177986 L24.7084902,17.2234855 C25.1688845,18.3014802 25.4332974,19.4529563 25.4893053,20.6238101 L25.4893053,21.9816486 L25.6598926,32.8638204 L26.5975448,34.5365013 L26.7681321,32.4665412 L26.3914656,20.8172851 L25.8797038,18.1840518 L25.6003491,16.5159459 C25.4503624,16.2246 25.3199393,15.9235916 25.209945,15.6149175 C24.9305987,14.8970695 24.2116048,15.0917 24.2116048,15.0917 L23.7616629,15.8713637 Z" id="Path" fill="#2F2E41"></path>
            <path d="M20.1735647,13.4486621 L20.1976037,13.5070528 L20.368191,13.9260792 L20.5605312,14.3943422 C20.7861262,14.5380535 20.9963641,14.7045556 21.1879355,14.8912275 C21.838233,15.475119 22.7816214,16.4139296 23.2830832,16.9188234 C23.4948846,17.131772 23.6276966,17.2668744 23.6276966,17.2668744 C23.8761358,17.0459048 24.1257139,16.3074567 24.2940234,15.7098192 C24.3215,15.6147922 24.3455377,15.5232027 24.3684364,15.4384813 C24.4531578,15.1144763 24.504679,14.8809205 24.504679,14.8809205 C23.8669747,14.6530884 22.3786172,13.1979368 21.6138315,12.4216995 C21.3039193,12.7281957 20.9662586,13.0052992 20.6051843,13.2494524 C20.561677,13.1280946 20.1735647,13.4486621 20.1735647,13.4486621 Z" id="Path" fill="#E6E6E6"></path>
            <path d="M25.4984665,15.4111189 C25.975878,15.7030639 26.7521153,16.0831707 27.6130754,16.1266752 C27.6130754,16.1266752 29.4780993,17.1135694 29.8238572,20.4909953 C30.1696151,23.8684212 31.6304973,34.020163 31.6304973,34.020163 C31.6304973,34.020163 32.931091,40.8654627 32.0151833,41.5764384 L30.9927972,33.1969865 C30.9927972,33.1969865 29.2033335,28.3575381 29.0739618,27.4622334 C28.9594721,26.6470722 27.5363749,22.1900153 27.2867898,21.4092002 C27.2615994,21.3359247 27.2490062,21.2947106 27.2490062,21.2947106 L25.8259076,17.2704191 L25.003877,15.0676512 C25.1608235,15.1931394 25.3260623,15.3078895 25.4984665,15.4111189 L25.4984665,15.4111189 Z" id="Path" fill="#2F2E41"></path>
            <path d="M15.2780214,61.4093687 C15.2780214,61.4093687 16.7137104,51.4992008 16.3244564,50.1619708 C15.9352023,48.8247408 16.5923638,38.9420509 16.5923638,38.9420509 L16.80875,37.0884743 L16.9301078,36.043188 L16.9816289,35.6058392 L17.2323598,35.6825536 C19.6521481,36.3874462 22.1376416,36.8431903 24.6501009,37.0426823 C25.2069859,37.0805398 25.7664078,37.0357863 26.3101915,36.9098759 C27.3039552,36.6831896 29.2250836,36.404978 29.5605359,36.166843 C29.5605359,36.166843 29.6750242,36.4748146 29.8181363,36.9785694 C30.147865,38.1429204 30.6447503,40.3685871 30.2623546,42.2645251 L29.6773201,46.098761 C29.6773201,46.098761 29.4471963,50.0062711 28.6915717,52.3441344 L28.0229476,55.5326465 L27.1459527,62.0321896 C26.713003,63.7641095 26.3997085,65.5237615 26.208288,67.298684 C25.8888649,70.2456306 24.0650497,75.1343058 24.0650497,75.1343058 C24.0650497,75.1343058 20.1884537,75.6701136 20.073964,74.355781 L21.4134871,64.1055844 L22.6545511,49.4258074 C22.6545511,49.4258074 21.3093058,58.5849271 20.5365047,60.5575712 C20.5365047,60.5575712 19.464889,71.8015315 19.0996684,73.5337517 C18.7344479,75.2659719 18.4917323,75.7239265 18.4917323,75.7239265 C18.4917323,75.7239265 16.2271363,76.5528322 15.2047501,75.0186772 C15.2047501,75.0186772 14.9127981,70.4677433 14.6941271,68.8362737 C14.4743159,67.2025098 15.2780214,61.4093687 15.2780214,61.4093687 Z" id="Path" fill="#2F2E41"></path>
            <path d="M17.0583406,39.2294126 L18.6611863,40.0090874 L16.7503649,43.6120579 C16.0325169,42.9422964 16.1172369,40.276999 16.1172369,40.276999 L17.0583406,39.2294126 Z" id="Path" fill="#FFB9B9"></path>
            <polygon id="Path" fill="#E6E6E6" points="17.747626 39.2294766 18.4780142 39.8018415 17.504813 41.2752876 16.1779736 41.7618882 16.0679837 40.7875732"></polygon>
            <g id="Group" opacity="0.1" transform="translate(29.377033, 36.059959)" fill="#000000">
                <path d="M0.663115,0.43314 C0.649460439,0.415195713 0.640933838,0.393880938 0.638445,0.37147 C0.56443853,0.4199612 0.487547902,0.463900849 0.4082,0.503045 L0.663115,0.43314 Z" id="Path"></path>
            </g>
            <path d="M11.511322,41.2500345 C12.3871669,42.2724193 16.2053722,42.4556066 16.2053722,42.4556066 L19.1809454,37.7661412 L19.9835147,36.5021784 C19.9835147,36.5021784 20.8776736,35.8816491 22.5583713,33.0869758 C24.2390689,30.2923025 24.1818241,28.139903 24.0890887,26.5324809 C23.9963533,24.9250588 22.9441989,20.3054216 22.9441989,20.3054216 C22.8411106,19.8387992 22.7123049,19.3782327 22.5583713,18.9258302 C22.1931507,17.7740709 21.6401747,16.1735099 21.1879411,14.8912387 C21.1066516,14.659969 21.0288039,14.4390064 20.9543797,14.2329272 C20.8169982,13.841369 21.515378,12.349581 21.515378,12.349581 C21.2692305,12.8430288 19.7190449,13.6547524 19.1797995,13.9947881 C17.7257951,14.9106999 15.6959062,15.2862205 15.6959062,15.2862205 C12.4272463,15.761353 13.0306046,19.1387775 13.0306046,19.1387775 C13.0306046,19.1387775 12.9939683,32.2672313 13.1954697,33.838024 C13.396971,35.4088167 11.511322,41.2500345 11.511322,41.2500345 Z" id="Path" fill="#2F2E41"></path>
            <path d="M13.1725695,19.1377416 C13.1725695,19.1377416 11.7849628,25.1644412 11.4014282,28.8887681 C11.0178936,32.613095 12.4604507,34.9864544 12.4604507,34.9864544 L15.5459316,41.8340415 C16.6049541,41.5615563 18.7596383,39.3152826 18.7596383,39.3152826 L15.6684352,30.7515031 C15.6684352,30.7515031 16.8144708,26.4272541 17.531173,22.4441809 C18.2478751,18.4611078 16.3484996,16.6739359 16.3484996,16.6739359 C13.1714306,15.4695095 13.1725695,19.1377416 13.1725695,19.1377416 Z" id="Path" fill="#000000" opacity="0.1"></path>
            <path d="M13.0260268,19.1377416 C13.0260268,19.1377416 11.6384201,25.1644412 11.2548855,28.8887681 C10.871351,32.613095 12.3139081,34.9864544 12.3139081,34.9864544 L15.4051126,41.8340415 C16.4641351,41.5615563 18.6188193,39.3152826 18.6188193,39.3152826 L15.5276162,30.7515031 C15.5276162,30.7515031 16.6747977,26.4272541 17.3892081,22.4441809 C18.1036186,18.4611078 16.2031042,16.6739359 16.2031042,16.6739359 C13.0260338,15.4695095 13.0260268,19.1377416 13.0260268,19.1377416 Z" id="Path" fill="#2F2E41"></path>
            <path d="M19.123713,40.3983484 L18.2719183,42.8335276 L17.3228035,44.135267 C17.3228035,44.135267 16.611825,44.6103995 16.4343682,43.7219642 C16.2569115,42.8335289 18.6611752,39.4973158 18.6611752,39.4973158 C19.0412833,39.3473356 19.123713,40.3983484 19.123713,40.3983484 Z" id="Path" fill="#2F2E41"></path>
            <path d="M22.0597163,11.8451342 C22.0597163,11.8451342 17.6521131,5.80508541 23.2024286,4.49912873 C23.2024286,4.49912873 24.77919,2.13398663 26.7165802,3.29726699 C27.6674361,3.85518978 28.7522545,4.1436948 29.8546446,4.13182811 C30.7933007,4.13182811 31.6911463,4.49912873 31.5279019,5.96832982 C31.2014131,8.90672921 29.4057218,8.41699876 29.4057218,8.41699876 C29.4057218,8.41699876 24.5359732,6.23517769 24.3727288,8.68384524 C24.2094844,11.1325128 22.0597163,11.8451342 22.0597163,11.8451342 Z" id="Path" fill="#2F2E41"></path>
            <circle id="Oval" fill="#E6E6E6" cx="73.972316" cy="0.948605264" r="1"></circle>
            <circle id="Oval" fill="#E6E6E6" cx="78.7741438" cy="0.948605264" r="1"></circle>
            <circle id="Oval" fill="#E6E6E6" cx="83.5759715" cy="0.948605264" r="1"></circle>
            <circle id="Oval" fill="#E6E6E6" cx="88.3777992" cy="0.948605264" r="1"></circle>
            <circle id="Oval" fill="#E6E6E6" cx="93.1796269" cy="0.948605264" r="1"></circle>
            <circle id="Oval" fill="#E6E6E6" cx="73.972316" cy="5.81070603" r="1"></circle>
            <circle id="Oval" fill="#E6E6E6" cx="78.7741438" cy="5.81070603" r="1"></circle>
            <circle id="Oval" fill="#E6E6E6" cx="83.5759715" cy="5.81070603" r="1"></circle>
            <circle id="Oval" fill="#AB6ACB" cx="88.3777992" cy="5.81070603" r="1"></circle>
            <circle id="Oval" fill="#E6E6E6" cx="93.1796269" cy="5.81070603" r="1"></circle>
            <circle id="Oval" fill="#E6E6E6" cx="102.783282" cy="5.81070603" r="1"></circle>
            <circle id="Oval" fill="#E6E6E6" cx="73.972316" cy="10.6728068" r="1"></circle>
            <circle id="Oval" fill="#E6E6E6" cx="78.7741438" cy="10.6728068" r="1"></circle>
            <circle id="Oval" fill="#E6E6E6" cx="83.5759715" cy="10.6728068" r="1"></circle>
            <circle id="Oval" fill="#E6E6E6" cx="88.3777992" cy="10.6728068" r="1"></circle>
            <circle id="Oval" fill="#E6E6E6" cx="93.1796269" cy="10.6728068" r="1"></circle>
            <circle id="Oval" fill="#E6E6E6" cx="73.972316" cy="15.5349062" r="1"></circle>
            <circle id="Oval" fill="#E6E6E6" cx="78.7741438" cy="15.5349062" r="1"></circle>
            <circle id="Oval" fill="#E6E6E6" cx="83.5759715" cy="15.5349062" r="1"></circle>
            <circle id="Oval" fill="#E6E6E6" cx="88.3777992" cy="15.5349062" r="1"></circle>
            <circle id="Oval" fill="#E6E6E6" cx="93.1796269" cy="15.5349062" r="1"></circle>
            <circle id="Oval" fill="#E6E6E6" cx="97.9814533" cy="15.5349062" r="1"></circle>
            <circle id="Oval" fill="#E6E6E6" cx="102.783282" cy="15.5349062" r="1"></circle>
            <circle id="Oval" fill="#E6E6E6" cx="107.58511" cy="15.5349062" r="1"></circle>
            <circle id="Oval" fill="#E6E6E6" cx="112.386939" cy="15.5349062" r="1"></circle>
            <circle id="Oval" fill="#E6E6E6" cx="117.188767" cy="15.5349062" r="1"></circle>
            <circle id="Oval" fill="#E6E6E6" cx="93.1796269" cy="20.3970069" r="1"></circle>
            <circle id="Oval" fill="#AB6ACB" cx="97.9814533" cy="20.3970069" r="1"></circle>
            <circle id="Oval" fill="#E6E6E6" cx="102.783282" cy="20.3970069" r="1"></circle>
            <circle id="Oval" fill="#E6E6E6" cx="107.58511" cy="20.3970069" r="1"></circle>
            <circle id="Oval" fill="#E6E6E6" cx="112.386939" cy="20.3970069" r="1"></circle>
            <circle id="Oval" fill="#E6E6E6" cx="117.188767" cy="20.3970069" r="1"></circle>
            <circle id="Oval" fill="#E6E6E6" cx="93.1796269" cy="25.2591077" r="1"></circle>
            <circle id="Oval" fill="#E6E6E6" cx="97.9814533" cy="25.2591077" r="1"></circle>
            <circle id="Oval" fill="#E6E6E6" cx="102.783282" cy="25.2591077" r="1"></circle>
            <circle id="Oval" fill="#E6E6E6" cx="107.58511" cy="25.2591077" r="1"></circle>
            <circle id="Oval" fill="#AB6ACB" cx="112.386939" cy="25.2591077" r="1"></circle>
            <circle id="Oval" fill="#E6E6E6" cx="117.188767" cy="25.2591077" r="1"></circle>
            <circle id="Oval" fill="#E6E6E6" cx="93.1796269" cy="30.1212084" r="1"></circle>
            <circle id="Oval" fill="#E6E6E6" cx="97.9814533" cy="30.1212084" r="1"></circle>
            <circle id="Oval" fill="#E6E6E6" cx="102.783282" cy="30.1212084" r="1"></circle>
            <circle id="Oval" fill="#E6E6E6" cx="107.58511" cy="30.1212084" r="1"></circle>
            <circle id="Oval" fill="#E6E6E6" cx="112.386939" cy="30.1212084" r="1"></circle>
            <circle id="Oval" fill="#E6E6E6" cx="117.188767" cy="30.1212084" r="1"></circle>
            <circle id="Oval" fill="#E6E6E6" cx="73.972316" cy="34.9833092" r="1"></circle>
            <circle id="Oval" fill="#E6E6E6" cx="78.7741438" cy="34.9833092" r="1"></circle>
            <circle id="Oval" fill="#E6E6E6" cx="83.5759715" cy="34.9833092" r="1"></circle>
            <circle id="Oval" fill="#E6E6E6" cx="88.3777992" cy="34.9833092" r="1"></circle>
            <circle id="Oval" fill="#E6E6E6" cx="93.1796269" cy="34.9833092" r="1"></circle>
            <circle id="Oval" fill="#E6E6E6" cx="97.9814533" cy="34.9833092" r="1"></circle>
            <circle id="Oval" fill="#E6E6E6" cx="102.783282" cy="34.9833092" r="1"></circle>
            <circle id="Oval" fill="#E6E6E6" cx="107.58511" cy="34.9833092" r="1"></circle>
            <circle id="Oval" fill="#E6E6E6" cx="112.386939" cy="34.9833092" r="1"></circle>
            <circle id="Oval" fill="#E6E6E6" cx="117.188767" cy="34.9833092" r="1"></circle>
            <circle id="Oval" fill="#E6E6E6" transform="translate(73.971768, 39.845257) rotate(-89.767378) translate(-73.971768, -39.845257) " cx="73.971768" cy="39.8452573" r="1"></circle>
            <circle id="Oval" fill="#E6E6E6" cx="78.7741438" cy="39.8454114" r="1"></circle>
            <circle id="Oval" fill="#E6E6E6" transform="translate(73.971758, 44.707332) rotate(-89.767378) translate(-73.971758, -44.707332) " cx="73.9717583" cy="44.707332" r="1"></circle>
            <circle id="Oval" fill="#E6E6E6" cx="78.7741438" cy="44.7075093" r="1"></circle>
            <circle id="Oval" fill="#E6E6E6" cx="88.3777992" cy="44.7075093" r="1"></circle>
            <path d="M136.240962,11.1916637 L98.6494313,11.1916637 C98.2651518,11.1912125 97.9537442,10.879805 97.9532931,10.4955254 L97.9532931,1.17067335 C97.9537442,0.78639385 98.2651518,0.47498626 98.6494313,0.474535142 L136.240962,0.474535142 C136.625241,0.47498626 136.936649,0.78639385 136.9371,1.17067335 L136.9371,10.4955254 C136.936649,10.879805 136.625241,11.1912125 136.240962,11.1916637 L136.240962,11.1916637 Z M98.6494313,0.752990427 C98.4188557,0.75324211 98.2317484,0.940097774 98.2317484,1.17067335 L98.2317484,10.4955254 C98.2317484,10.726101 98.4188557,10.9129567 98.6494313,10.9132084 L136.240962,10.9132084 C136.471537,10.9129567 136.658644,10.726101 136.658644,10.4955254 L136.658644,1.17067335 C136.658644,0.940097774 136.471537,0.75324211 136.240962,0.752990427 L98.6494313,0.752990427 Z" id="Shape" fill="#E6E6E6"></path>
            <circle id="Oval" fill="#AB6ACB" cx="103.522399" cy="5.8330632" r="2.92378049"></circle>
            <path d="M110.274939,3.88387621 C110.005813,3.88387621 109.787643,4.10204639 109.787643,4.37117296 C109.787643,4.64029952 110.005813,4.85846971 110.274939,4.85846971 L123.22311,4.85846971 C123.492237,4.85846971 123.710407,4.64029952 123.710407,4.37117296 C123.710407,4.10204639 123.492237,3.88387621 123.22311,3.88387621 L110.274939,3.88387621 Z" id="Path" fill="#E6E6E6"></path>
            <path d="M110.274939,6.8076567 C110.005813,6.8076567 109.787643,7.02582688 109.787643,7.29495345 C109.787643,7.56408001 110.005813,7.78225019 110.274939,7.78225019 L133.2475,7.78225019 C133.516627,7.78225019 133.734797,7.56408001 133.734797,7.29495345 C133.734797,7.02582688 133.516627,6.8076567 133.2475,6.8076567 L110.274939,6.8076567 Z" id="Path" fill="#E6E6E6"></path>
            <path d="M87.9289697,30.126623 L50.3374394,30.126623 C49.9531599,30.1261719 49.6417523,29.8147643 49.6413012,29.4304848 L49.6413012,20.1056327 C49.6417523,19.7213532 49.9531599,19.4099456 50.3374394,19.4094945 L87.9289697,19.4094945 C88.3132492,19.4099456 88.6246567,19.7213532 88.6251079,20.1056327 L88.6251079,29.4304848 C88.6246567,29.8147643 88.3132492,30.1261719 87.9289697,30.126623 Z M50.3374394,19.6879498 C50.1068638,19.6882015 49.9197565,19.8750571 49.9197565,20.1056327 L49.9197565,29.4304848 C49.9197565,29.6610604 50.1068638,29.847916 50.3374394,29.8481677 L87.9289697,29.8481677 C88.1595452,29.847916 88.3466526,29.6610604 88.3466526,29.4304848 L88.3466526,20.1056327 C88.3466526,19.8750571 88.1595452,19.6882015 87.9289697,19.6879498 L50.3374394,19.6879498 Z" id="Shape" fill="#3F3D56"></path>
            <circle id="Oval" fill="#AB6ACB" cx="55.2104069" cy="24.7680226" r="2.92378049"></circle>
            <path d="M61.9629475,22.8188356 C61.693821,22.8188356 61.4756508,23.0370057 61.4756508,23.3061323 C61.4756508,23.5752589 61.693821,23.7934291 61.9629475,23.7934291 L75.4680288,23.7934291 C75.7371554,23.7934291 75.9553256,23.5752589 75.9553256,23.3061323 C75.9553256,23.0370057 75.7371554,22.8188356 75.4680288,22.8188356 L61.9629475,22.8188356 Z" id="Path" fill="#E6E6E6"></path>
            <path d="M61.9629475,25.742616 C61.693821,25.742616 61.4756508,25.9607862 61.4756508,26.2299128 C61.4756508,26.4990394 61.693821,26.7172095 61.9629475,26.7172095 L84.9355085,26.7172095 C85.2046351,26.7172095 85.4228053,26.4990394 85.4228053,26.2299128 C85.4228053,25.9607862 85.2046351,25.742616 84.9355085,25.742616 L61.9629475,25.742616 Z" id="Path" fill="#E6E6E6"></path>
            <path d="M121.900514,50.5930864 L84.3089841,50.5930864 C83.9247046,50.5926353 83.613297,50.2812277 83.6128459,49.8969482 L83.6128459,40.5720961 C83.613297,40.1878166 83.9247046,39.876409 84.3089841,39.8759579 L121.900514,39.8759579 C122.284794,39.876409 122.596201,40.1878166 122.596653,40.5720961 L122.596653,49.8969482 C122.596201,50.2812277 122.284794,50.5926353 121.900514,50.5930864 Z M84.3089841,40.1544132 C84.0784085,40.1546649 83.8913012,40.3415205 83.8913012,40.5720961 L83.8913012,49.8969482 C83.8913012,50.1275238 84.0784085,50.3143795 84.3089841,50.3146311 L121.900514,50.3146311 C122.13109,50.3143795 122.318197,50.1275238 122.318197,49.8969482 L122.318197,40.5720961 C122.318197,40.3415205 122.13109,40.1546649 121.900514,40.1544132 L84.3089841,40.1544132 Z" id="Shape" fill="#E6E6E6"></path>
            <circle id="Oval" fill="#AB6ACB" cx="89.1819516" cy="45.234486" r="2.92378049"></circle>
            <path d="M95.9344923,43.285299 C95.6653657,43.285299 95.4471955,43.5034692 95.4471955,43.7725957 C95.4471955,44.0417223 95.6653657,44.2598925 95.9344923,44.2598925 L108.325752,44.2598925 C108.594879,44.2598925 108.813049,44.0417223 108.813049,43.7725957 C108.813049,43.5034692 108.594879,43.285299 108.325752,43.285299 L95.9344923,43.285299 Z" id="Path" fill="#E6E6E6"></path>
            <path d="M95.9344923,46.2090795 C95.6653657,46.2090795 95.4471955,46.4272496 95.4471955,46.6963762 C95.4471955,46.9655028 95.6653657,47.183673 95.9344923,47.183673 L118.907053,47.183673 C119.17618,47.183673 119.39435,46.9655028 119.39435,46.6963762 C119.39435,46.4272496 119.17618,46.2090795 118.907053,46.2090795 L95.9344923,46.2090795 Z" id="Path" fill="#E6E6E6"></path>
        </g>
    </g>
</svg>