<?xml version="1.0" encoding="UTF-8"?>
<svg width="137px" height="137px" viewBox="0 0 137 137" version="1.1" xmlns="http://www.w3.org/2000/svg" xmlns:xlink="http://www.w3.org/1999/xlink">
    <title>report_illustrations_2</title>
    <defs>
        <linearGradient x1="50.0748148%" y1="100.108673%" x2="50.0748148%" y2="-0.00135473328%" id="linearGradient-1">
            <stop stop-color="#808080" stop-opacity="0.25" offset="0%"></stop>
            <stop stop-color="#808080" stop-opacity="0.12" offset="54%"></stop>
            <stop stop-color="#808080" stop-opacity="0.1" offset="100%"></stop>
        </linearGradient>
        <linearGradient x1="50.0072835%" y1="99.9864746%" x2="50.0072835%" y2="-0.000567339517%" id="linearGradient-2">
            <stop stop-color="#808080" stop-opacity="0.25" offset="0%"></stop>
            <stop stop-color="#808080" stop-opacity="0.12" offset="54%"></stop>
            <stop stop-color="#808080" stop-opacity="0.1" offset="100%"></stop>
        </linearGradient>
    </defs>
    <g id="report_illustrations_2" stroke="none" stroke-width="1" fill="none" fill-rule="evenodd">
        <g id="undraw_buy_house_560d-(5)" transform="translate(-765.000000, 87.000000)"></g>
        <g id="undraw_data_report_bi6l" transform="translate(0.000000, 15.000000)">
            <g id="Group" opacity="0.5" transform="translate(89.923868, 0.000000)">
                <path d="M7.89159465,0.0140946502 C7.35458848,0.00563786008 6.6766358,0.155041152 6.26225309,0.897829218 C5.45040123,2.35803498 6.75697531,3.79427984 6.08325103,5.35032922 C5.89179556,5.77377448 5.58996096,6.13792332 5.20938272,6.40460905 C4.55820988,6.87396091 3.89435185,7.01349794 3.23613169,7.29398148 C2.44531421,7.60907794 1.79098858,8.19302987 1.38832305,8.94305556 C0.987788494,9.75325876 0.851720043,10.6687628 0.9993107,11.5604321 C1.12898148,12.3384568 1.43483539,12.9558025 1.68712963,13.62107 C1.99344384,14.4448875 2.21493629,15.2977987 2.34816872,16.1665638 C2.42353711,16.571638 2.44533561,16.9848616 2.41300412,17.3956173 C2.33935037,17.9188544 2.2123056,18.4331732 2.03385802,18.9305247 L0.584927984,23.4675926 C0.376414724,24.0587126 0.220763236,24.6671685 0.119804527,25.2858025 C0.056226591,25.9315804 0.0751719453,26.582827 0.176183128,27.2238169 C0.33404321,28.5515329 0.510226337,29.9328086 1.13884774,30.7629835 C1.76746914,31.5931584 3.00075103,31.6467181 3.90280864,30.4698148 C4.76117284,29.3422428 4.98245885,27.6367901 5.76894033,26.4105556 C7.00786008,24.4767695 8.9895679,24.6444959 10.317284,22.8333333 C11.5858025,21.0968724 11.56607,18.5908436 12.3624177,16.4540947 C12.9262037,14.9234156 13.9128292,13.6351646 14.5780967,12.148179 C15.5379424,10.0043827 15.7578189,7.59701646 15.4237757,5.69705761 C15.1253235,4.02683113 14.3883978,2.46591052 13.2884362,1.17408436 C12.8768724,0.675133745 12.4286626,0.211419753 11.8578292,0.0465123457 C11.2503498,-0.133899177 10.6442798,0.32840535 10.0184774,0.3706893 C9.29542181,0.407335391 8.62028807,0.0253703704 7.89159465,0.0140946502 Z" id="Path" fill="#AB6ACB" fill-rule="nonzero"></path>
                <path d="M11.2968621,0.0281893004 C11.2968621,0.0281893004 7.80138889,20.2751543 1.994393,31.3295885" id="Path" stroke="#535461" stroke-width="2"></path>
                <path d="M6.22278807,0.990853909 C6.22278807,0.990853909 10.4878292,5.36019547 8.85566872,11.3983436" id="Path" stroke="#535461" stroke-width="2"></path>
                <path d="M1.19522634,9.38985597 C1.19522634,9.38985597 8.70062757,12.3807407 7.7083642,15.7803704" id="Path" stroke="#535461" stroke-width="2"></path>
                <path d="M15.4463272,5.65195473 C15.4463272,5.65195473 12.1002572,7.01490741 8.63297325,12.2919444" id="Path" stroke="#535461" stroke-width="2"></path>
                <path d="M10.2679527,22.8544753 C10.2679527,22.8544753 8.00294239,23.6409568 6.8457716,18.7670267" id="Path" stroke="#535461" stroke-width="2"></path>
                <path d="M0.845679012,23.3181893 C0.845679012,23.3181893 5.20374486,23.8988889 5.85209877,21.9087243" id="Path" stroke="#535461" stroke-width="2"></path>
            </g>
            <g id="Group" opacity="0.5" transform="translate(13.812757, 21.001029)">
                <path d="M0.453847737,4.07335391 C0.152222222,4.51874486 -0.0958436214,5.1656893 0.298806584,5.91975309 C1.07401235,7.39969136 2.99088477,7.09524691 3.92254115,8.51175926 C4.17148225,8.90428352 4.31023073,9.35655487 4.32423868,9.82115226 C4.35947531,10.6231379 4.11140947,11.2545782 3.98314815,11.9607202 C3.81376893,12.7934342 3.94300996,13.6591994 4.34819959,14.406142 C4.80554156,15.1849678 5.49569913,15.800687 6.32145062,16.1665638 C7.04309671,16.4851029 7.73091564,16.5668519 8.4215535,16.721893 C9.27832297,16.9183722 10.1128167,17.2017317 10.9120782,17.567572 C11.2919595,17.72685 11.6492637,17.9353564 11.9748148,18.1877366 C12.3718927,18.5362126 12.7322458,18.9244305 13.0502366,19.3463169 L16.0481687,23.047572 C16.4290917,23.5465387 16.8536007,24.0106686 17.3166872,24.4344856 C17.8219168,24.8420192 18.3770185,25.1835109 18.9685802,25.4507099 C20.165216,26.0469136 21.416821,26.6572119 22.4555967,26.5881481 C23.4943724,26.5190844 24.2160185,25.5169547 23.7241152,24.1159465 C23.2589918,22.7825926 21.9481893,21.659249 21.3533951,20.328714 C20.4161008,18.23143 21.6437449,16.6641049 20.8586728,14.5640021 C20.1060185,12.5456481 17.9960494,11.1925617 16.6486008,9.34898148 C15.6817078,8.03254115 15.1432922,6.5075 14.2651955,5.1332716 C12.996677,3.16002058 11.1079938,1.65048354 9.3320679,0.886553498 C7.77154,0.219479341 6.06174449,-0.0208162448 4.37779835,0.190277778 C3.7350823,0.260751029 3.10223251,0.380555556 2.64556584,0.765339506 C2.16070988,1.17408436 2.22272634,1.9380144 1.90700617,2.48065844 C1.55463992,3.1149177 0.864002058,3.47010288 0.453847737,4.07335391 Z" id="Path" fill="#AB6ACB" fill-rule="nonzero"></path>
                <path d="M2.33548354,1.23469136 C2.33548354,1.23469136 17.3434671,15.2659156 23.3957099,26.190679" id="Path" stroke="#535461" stroke-width="2"></path>
                <path d="M0.35659465,6.00432099 C0.35659465,6.00432099 6.35386831,4.83869342 10.5047428,9.51388889" id="Path" stroke="#535461" stroke-width="2"></path>
                <path d="M4.61881687,14.8134774 C4.61881687,14.8134774 11.2433025,10.1805658 13.5350926,12.875463" id="Path" stroke="#535461" stroke-width="2"></path>
                <path d="M9.31515432,0.859773663 C9.31515432,0.859773663 8.61746914,4.40598765 11.1277263,10.1988889" id="Path" stroke="#535461" stroke-width="2"></path>
                <path d="M20.8544444,14.6175617 C20.8544444,14.6175617 20.268107,16.943179 15.554856,15.2334979" id="Path" stroke="#535461" stroke-width="2"></path>
                <path d="M16.0707202,22.7515844 C16.0707202,22.7515844 18.9474383,19.4266564 17.6394547,17.7944959" id="Path" stroke="#535461" stroke-width="2"></path>
            </g>
            <path d="M11.4462654,8.79929012 C10.7415329,9.63228395 10.0819033,10.7852263 10.6005864,11.9226646 C11.6069444,14.1510288 15.2983333,13.0643313 16.6161831,15.1418827 C17.0108333,15.7634568 17.064393,16.5231584 16.9727778,17.2011111 C16.7951852,18.5274177 16.1383745,19.6535802 15.6845267,20.8657202 C15.230679,22.0778601 14.9952984,23.5437037 15.6351955,24.8234979 C16.2511317,26.0624177 17.549249,26.8446708 18.8064918,27.1561626 C20.0637346,27.4676543 21.3237963,27.3971811 22.5796296,27.4380556 C24.0715602,27.4965677 25.5529172,27.7148729 26.9983025,28.0892284 C27.6343217,28.2263429 28.2443307,28.464256 28.8052366,28.7939609 C29.4465432,29.2041152 29.9652263,29.8059568 30.4726337,30.3979321 L34.9829218,35.6538272 C35.5819444,36.3585597 36.1936523,37.0632922 36.9364403,37.5805658 C37.7933951,38.1767695 38.7687449,38.4798045 39.7285905,38.7715638 C41.7934568,39.4030041 43.9569856,40.0400823 45.9302366,39.6073765 C47.9034877,39.1746708 49.5596091,37.2888066 49.0662963,35.1055453 C48.5969444,33.0265844 46.479928,31.552284 45.7667387,29.515607 C44.6391667,26.3062551 47.4228601,23.329465 46.5870473,20.0637346 C45.7864712,16.9319033 42.2374383,15.3166564 40.2641872,12.6654527 C38.8547222,10.7654938 38.299393,8.3891358 37.0675206,6.36796296 C35.2930041,3.45600823 32.1978189,1.52363169 29.1040432,0.790709877 C26.0102675,0.0577880658 22.8995782,0.411563786 20.004537,1.14166667 C18.7783025,1.45315844 17.5520679,1.84639918 16.579537,2.62442387 C15.5463992,3.45177984 15.4265947,4.7062037 14.6739403,5.7055144 C13.8014815,6.86973251 12.3962449,7.67030864 11.4462654,8.79929012 Z" id="Path" fill="#AB6ACB" fill-rule="nonzero"></path>
            <path d="M15.836749,3.49970165 C15.836749,3.49970165 39.751142,22.3160597 47.7977778,38.6743107" id="Path" stroke="#535461" stroke-width="2"></path>
            <path d="M10.6766975,12.0452881 C10.6766975,12.0452881 22.2864609,8.28483539 28.6544239,14.8134774" id="Path" stroke="#535461" stroke-width="2"></path>
            <path d="M16.0044753,25.426749 C16.0044753,25.426749 29.8327366,15.7014403 33.3282099,19.4943107" id="Path" stroke="#535461" stroke-width="2"></path>
            <path d="M29.0547119,0.748425926 C29.0547119,0.748425926 26.6713066,6.86409465 29.6184979,15.7535905" id="Path" stroke="#535461" stroke-width="2"></path>
            <path d="M46.5391255,20.1694444 C46.5391255,20.1694444 44.7336008,24.2188374 36.405072,22.8023251" id="Path" stroke="#535461" stroke-width="2"></path>
            <path d="M35.0928601,35.1703807 C35.0928601,35.1703807 41.5016975,28.7601337 39.5425412,26.4316975" id="Path" stroke="#535461" stroke-width="2"></path>
            <ellipse id="Oval" fill="#AB6ACB" fill-rule="nonzero" opacity="0.1" cx="68.478858" cy="101.922644" rx="68.478858" ry="5.7900823"></ellipse>
            <path d="M121.64106,56.2714815 C121.3493,55.4173457 120.92787,54.3348765 120.595237,54.0797634 C120.574951,54.0634222 120.552696,54.0496902 120.528992,54.0388889 L120.488117,54.0388889 L120.488117,52.9831996 L119.701636,53.108642 C119.576643,52.7273058 119.482378,52.3365757 119.419743,51.9401955 C119.574617,52.0953173 119.807609,52.1420269 120.010309,52.0585905 C119.997623,52.0374486 119.986348,52.0148971 119.975072,51.9923457 L120.010309,51.9768416 C119.886443,51.7584743 119.820912,51.5118833 119.820031,51.2608333 C119.826307,51.0315284 119.862798,50.8040526 119.92856,50.5842901 C120.069506,50.0980247 120.307706,49.644177 120.440195,49.1550926 C120.524758,48.8404125 120.564614,48.5153975 120.558591,48.1896091 C120.562944,47.6373276 120.437415,47.091756 120.19213,46.5969136 C120.130097,46.4540075 120.033168,46.328969 119.910237,46.2332716 C119.799549,46.1718626 119.685693,46.1163462 119.569146,46.0669547 C119.373643,45.9353047 119.20522,45.7673603 119.073014,45.5722325 C118.51432,44.8917786 117.766266,44.3924216 116.92358,44.1373971 C116.703904,44.0553594 116.465678,44.0363208 116.235761,44.082428 C115.707212,44.2233745 115.515525,44.8787757 115.087047,45.2226852 C114.709311,45.5257202 114.190628,45.5567284 113.715638,45.6582099 C113.240648,45.7596914 112.76284,45.9612449 112.438663,46.3277058 C112.215304,46.5831197 112.093435,46.9116154 112.096163,47.2509053 C112.069709,47.5732052 112.212792,47.8860646 112.473899,48.0768519 C112.770166,48.2710414 113.137691,48.3227327 113.476029,48.2177984 C113.211952,49.1298348 113.340322,50.1106899 113.830211,50.9240506 C114.3201,51.7374113 115.127091,52.3095312 116.056759,52.502572 L116.148374,52.6674794 L116.148374,52.6674794 C116.431633,53.1948322 116.646658,53.7560755 116.788272,54.3376955 C116.063807,54.7478498 115.273097,55.1326337 114.795288,55.1692798 C114.776031,55.3560423 114.741142,55.5408604 114.690988,55.7217901 C114.579246,56.1755382 114.364644,56.5975083 114.063776,56.955072 C113.414012,57.6851749 110.492191,63.2046399 110.492191,63.2046399 C110.492191,63.2046399 110.400576,63.4245165 110.249763,63.7994342 C108.435782,64.0221296 105.474496,64.3434877 104.648549,64.1785802 L101.40678,61.0946708 C101.40678,61.0946708 100.358138,61.8952469 100.449753,62.8677778 L99.8732819,62.3124486 C99.8732819,62.3124486 96.7893724,64.6662551 101.659074,66.2082099 L109.068632,67.0679835 C108.363899,69.1976852 107.70427,71.6769342 107.908642,73.0257922 L107.969249,73.0257922 C108.110812,73.0256831 108.252163,73.0148462 108.392088,72.9933745 L108.379403,73.2329835 L107.661986,86.0154218 C107.661986,86.0154218 107.499897,88.3692284 109.691615,89.4235082 C109.691615,89.4235082 112.369599,97.2953704 111.315319,98.1889712 C111.315319,98.1889712 111.440761,98.255216 111.652181,98.3468313 L109.449187,100.29894 C109.449187,100.29894 107.825484,100.704866 106.933292,100.623117 C106.608681,100.578573 106.302355,100.784812 106.221512,101.102335 C106.221512,101.119249 106.221512,101.136163 106.213056,101.153076 L106.213056,101.174218 C106.213056,101.191132 106.213056,101.208045 106.213056,101.226368 C106.213056,101.244691 106.213056,101.239053 106.213056,101.246101 C106.213056,101.253148 106.213056,101.2757 106.213056,101.291204 C106.213056,101.306708 106.213056,101.303889 106.213056,101.309527 C106.213056,101.315165 106.213056,101.344763 106.222922,101.361677 L106.222922,101.381409 C106.22762,101.400202 106.233728,101.418995 106.241245,101.437788 L106.248292,101.454702 C106.25534,101.473025 106.263796,101.491348 106.273663,101.509671 L106.273663,101.522356 C106.283529,101.540679 106.294805,101.557593 106.30608,101.575916 L106.315947,101.59142 C106.329102,101.610213 106.343666,101.629005 106.35964,101.647798 L106.372325,101.661893 C106.389239,101.681626 106.407562,101.699949 106.425885,101.718272 L106.434342,101.725319 L106.494949,101.777469 L106.507634,101.787335 C106.530185,101.805658 106.555556,101.822572 106.580926,101.839486 L106.59784,101.850761 C106.624619,101.867675 106.652809,101.884588 106.682407,101.900093 L106.695093,101.900093 L106.786708,101.945195 L106.799393,101.945195 L106.906512,101.987479 L106.929064,101.995936 L107.046049,102.033992 L107.065782,102.033992 L107.194043,102.067819 L107.203909,102.067819 L107.344856,102.096008 L107.373045,102.096008 L107.525267,102.11856 L107.554866,102.11856 L107.726821,102.135473 C108.060864,102.160844 108.510484,102.17071 109.030576,102.167891 L109.030576,102.167891 C109.030576,102.167891 109.030576,102.180576 109.030576,102.187623 C109.030576,102.194671 109.030576,102.217222 109.030576,102.232726 L109.030576,102.251049 C109.030576,102.267963 109.030576,102.286286 109.040442,102.3032 L109.040442,102.322932 C109.045141,102.341725 109.051248,102.360518 109.058765,102.379311 L109.065813,102.396224 C109.07286,102.414547 109.081317,102.43287 109.091183,102.451193 L109.091183,102.463879 C109.101049,102.482202 109.112325,102.499115 109.123601,102.517438 L109.133467,102.532942 C109.146622,102.551735 109.161187,102.570528 109.17716,102.589321 L109.189846,102.603416 C109.206759,102.623148 109.225082,102.641471 109.243405,102.659794 L109.251862,102.666842 L109.312469,102.718992 L109.325154,102.728858 C109.347706,102.747181 109.373076,102.764095 109.398447,102.781008 L109.41677,102.792284 C109.443549,102.809198 109.471739,102.826111 109.501337,102.841615 L109.514023,102.841615 L109.605638,102.886718 L109.618323,102.886718 L109.725442,102.929002 L109.747994,102.937459 L109.864979,102.975514 L109.884712,102.975514 L110.012973,103.009342 L110.02284,103.009342 L110.163786,103.037531 L110.191975,103.037531 L110.344198,103.060082 L110.373796,103.060082 L110.545751,103.076996 C112.659949,103.239084 119.391553,102.752819 119.391553,102.752819 L119.391553,102.734496 L119.391553,102.734496 L119.391553,102.710535 L119.391553,102.710535 C119.457798,102.396224 119.781975,100.569558 118.631852,99.2192901 C118.665679,99.1840535 118.699506,99.1459979 118.730514,99.1065329 C118.730514,99.1065329 117.838323,97.5645782 118.324588,97.0769033 C118.810854,96.5892284 115.890442,88.1493519 115.890442,88.1493519 C115.890442,88.1493519 114.348488,85.7152058 115.240679,82.9554733 C116.13287,80.1957407 115.15893,77.1935802 115.15893,77.1935802 C115.15893,77.1935802 117.287222,76.5607305 117.330916,73.940535 C117.330916,73.8616049 117.330916,73.779856 117.330916,73.6966975 C117.377587,73.7033698 117.424728,73.7061982 117.471862,73.7051543 C117.501892,73.7073096 117.532038,73.7073096 117.562068,73.7051543 C117.562068,73.7051543 117.156142,72.2449486 117.643817,71.1892593 C118.131492,70.13357 119.185772,71.1075103 120.159712,66.8072325 C120.864444,63.6951337 121.484609,60.1150926 121.773549,58.3729938 C121.898488,57.6719973 121.853048,56.9512364 121.64106,56.2714815 Z M103.11928,65.4019959 L102.379311,64.6972634 C102.624558,64.7987449 102.896584,64.8988169 103.201029,64.9946605 L105.99177,65.3188374 C104.745802,65.4315947 103.588632,65.4950206 103.11928,65.4019959 Z" id="Shape" fill="url(#linearGradient-1)" fill-rule="nonzero"></path>
            <path d="M110.183519,64.9904321 C110.183519,64.9904321 104.442767,65.7881893 103.246132,65.5542181 L100.050874,62.5154115 C100.050874,62.5154115 97.0205247,64.8283436 101.805658,66.3421091 L110.741667,67.3865226 L110.183519,64.9904321 Z" id="Path" fill="#FDC2CC" fill-rule="nonzero"></path>
            <path d="M110.183519,64.9904321 C110.183519,64.9904321 104.442767,65.7881893 103.246132,65.5542181 L100.050874,62.5154115 C100.050874,62.5154115 97.0205247,64.8283436 101.805658,66.3421091 L110.741667,67.3865226 L110.183519,64.9904321 Z" id="Path" fill="#000000" fill-rule="nonzero" opacity="0.05"></path>
            <path d="M112.256842,97.3587963 L109.466101,99.8309979 C109.466101,99.8309979 107.871996,100.229877 106.993899,100.149537 C106.115802,100.069198 105.718333,101.505442 107.791656,101.664712 C109.864979,101.823981 116.482418,101.346173 116.482418,101.346173 C116.482418,101.346173 117.120905,98.7950412 115.206852,97.3587963 L112.256842,97.3587963 Z" id="Path" fill="#47465A" fill-rule="nonzero"></path>
            <path d="M112.256842,97.3587963 L109.466101,99.8309979 C109.466101,99.8309979 107.871996,100.229877 106.993899,100.149537 C106.115802,100.069198 105.718333,101.505442 107.791656,101.664712 C109.864979,101.823981 116.482418,101.346173 116.482418,101.346173 C116.482418,101.346173 117.120905,98.7950412 115.206852,97.3587963 L112.256842,97.3587963 Z" id="Path" fill="#000000" fill-rule="nonzero" opacity="0.05"></path>
            <path d="M116.58249,100.242562 C116.577766,100.533162 116.544245,100.822578 116.482418,101.106564 C116.482418,101.106564 109.857932,101.584372 107.791656,101.425103 C106.795165,101.348992 106.370916,100.976893 106.294805,100.620298 C106.204599,101.029043 106.565422,101.570278 107.791656,101.664712 C109.864979,101.823981 116.482418,101.346173 116.482418,101.346173 C116.560052,100.983668 116.593652,100.613118 116.58249,100.242562 Z" id="Path" fill="#FFFFFF" fill-rule="nonzero" opacity="0.3"></path>
            <path d="M115.525391,52.1502058 C115.525391,52.1502058 117.280175,54.6224074 116.641687,56.2968519 C116.0032,57.9712963 119.990576,54.5420679 119.990576,54.5420679 C119.990576,54.5420679 118.71501,52.3094753 119.352088,49.9176132 L115.525391,52.1502058 Z" id="Path" fill="#FDC2CC" fill-rule="nonzero"></path>
            <path d="M115.047582,98.315823 L112.256842,100.790844 C112.256842,100.790844 110.662737,101.189722 109.78464,101.109383 C108.906543,101.029043 108.507665,102.462469 110.582397,102.623148 C112.65713,102.783827 119.273158,102.304609 119.273158,102.304609 C119.273158,102.304609 119.911646,99.7534774 117.997593,98.3172325 L115.047582,98.315823 Z" id="Path" fill="#47465A" fill-rule="nonzero"></path>
            <path d="M115.84534,97.7576749 C115.429547,98.2707202 114.84321,98.4624074 114.230093,98.497644 C112.836132,98.5638889 111.301224,97.7576749 111.301224,97.7576749 C112.337181,96.8809877 109.707119,89.1458436 109.707119,89.1458436 C107.554866,88.1098868 107.714136,85.7969547 107.714136,85.7969547 L108.418868,73.2428498 L108.595051,70.0898765 L110.827644,68.7339712 L112.588066,70.0842387 L114.256872,71.3654424 C114.365353,71.7728197 114.435196,72.189515 114.465473,72.61 C114.65857,75.5402778 112.342819,76.2295062 112.342819,76.2295062 C112.342819,76.2295062 113.299846,79.1795165 112.423158,81.8899177 C111.546471,84.6003189 113.061646,86.9921811 113.061646,86.9921811 C113.061646,86.9921811 115.932726,95.2840638 115.457737,95.7632819 C114.982747,96.2425 115.84534,97.7576749 115.84534,97.7576749 Z" id="Path" fill="#565171" fill-rule="nonzero"></path>
            <path d="M115.84534,97.7576749 C115.429547,98.2707202 114.84321,98.4624074 114.230093,98.497644 C112.836132,98.5638889 111.301224,97.7576749 111.301224,97.7576749 C112.337181,96.8809877 109.707119,89.1458436 109.707119,89.1458436 C107.554866,88.1098868 107.714136,85.7969547 107.714136,85.7969547 L108.418868,73.2428498 L108.595051,70.0898765 L110.827644,68.7339712 L112.588066,70.0842387 L114.256872,71.3654424 C114.365353,71.7728197 114.435196,72.189515 114.465473,72.61 C114.65857,75.5402778 112.342819,76.2295062 112.342819,76.2295062 C112.342819,76.2295062 113.299846,79.1795165 112.423158,81.8899177 C111.546471,84.6003189 113.061646,86.9921811 113.061646,86.9921811 C113.061646,86.9921811 115.932726,95.2840638 115.457737,95.7632819 C114.982747,96.2425 115.84534,97.7576749 115.84534,97.7576749 Z" id="Path" fill="#000000" fill-rule="nonzero" opacity="0.05"></path>
            <path d="M118.63608,98.7147016 C117.280175,100.389146 114.091965,98.7147016 114.091965,98.7147016 C114.156919,98.6557485 114.205481,98.5809634 114.232912,98.497644 C114.81784,96.9077675 112.25966,89.3065226 112.25966,89.3065226 C110.107407,88.2705658 109.86357,85.7983642 109.86357,85.7983642 L109.299784,73.0215638 L109.226492,71.3668519 L112.581019,70.0856481 L113.611337,69.6924074 L117.040566,72.3196502 C117.189026,72.8629281 117.262994,73.4238559 117.260442,73.9870473 C117.218158,76.5649588 115.13215,77.1865329 115.13215,77.1865329 C115.13215,77.1865329 116.089177,80.1365432 115.21249,82.8469444 C114.335802,85.5573457 115.850977,87.9492078 115.850977,87.9492078 C115.850977,87.9492078 118.722058,96.2410905 118.247068,96.7203086 C117.772078,97.1995267 118.63608,98.7147016 118.63608,98.7147016 Z" id="Path" fill="#565171" fill-rule="nonzero"></path>
            <path d="M117.260519,73.9898663 C116.571214,73.8912037 115.175844,73.0610288 114.458426,72.61 C114.18499,72.4380453 114.010216,72.328107 114.010216,72.328107 C114.010216,72.328107 113.292798,70.3351235 111.378745,71.8502984 C110.756323,72.3552124 110.053576,72.7520861 109.299784,73.0243827 C109.011456,73.1263652 108.714152,73.2009272 108.411821,73.2470782 L108.588004,70.0941049 L110.820597,68.7381996 L112.581019,70.0884671 L113.611337,69.6952263 L117.040566,72.3196502 C117.189279,72.8638381 117.26325,73.4257314 117.260519,73.9898663 Z" id="Path" fill="#000000" fill-rule="nonzero" opacity="0.1"></path>
            <path d="M121.576224,58.6943519 C121.294331,60.4054424 120.682623,63.9220576 119.990576,66.9805967 C119.033549,71.2089918 117.997593,70.2491461 117.518374,71.2865123 C117.039156,72.3238786 117.438035,73.758714 117.438035,73.758714 C116.640278,73.8390535 114.008807,72.0842695 114.008807,72.0842695 C114.008807,72.0842695 113.291389,70.091286 111.377335,71.6064609 C109.463282,73.1216358 107.948107,73.0412963 107.948107,73.0412963 C107.549228,70.4098251 110.499239,63.3935082 110.499239,63.3935082 C110.499239,63.3935082 113.373138,57.9712963 114.004578,57.2538786 C114.30014,56.9024202 114.510887,56.4876781 114.620514,56.0417387 C114.669447,55.8640112 114.703393,55.6824942 114.721996,55.4990947 C115.757953,55.4187551 118.310494,53.6667901 118.310494,53.6667901 L120.303477,53.348251 L120.303477,54.3842078 C120.326644,54.3946198 120.348423,54.4078768 120.368313,54.4236728 C120.696718,54.6745576 121.109691,55.7387037 121.395813,56.5773354 C121.629222,57.2574142 121.691191,57.9845846 121.576224,58.6943519 Z" id="Path" fill="#F68080" fill-rule="nonzero"></path>
            <path d="M119.990576,55.4201646 C119.990576,55.4201646 117.917253,53.7457202 114.807973,59.1679321 C111.698693,64.590144 110.981276,63.7120473 110.981276,63.7120473 C110.981276,63.7120473 111.619763,66.1081379 111.299815,66.5831276 C111.299815,66.5831276 113.452068,66.423858 114.249825,66.5831276 C115.047582,66.7423971 119.990576,60.522428 119.990576,60.522428 C119.990576,60.522428 122.543117,57.0142695 119.990576,55.4201646 Z" id="Path" fill="#000000" fill-rule="nonzero" opacity="0.1"></path>
            <path d="M119.911646,55.100216 C119.911646,55.100216 117.838323,53.4328189 114.729043,58.8479835 C111.619763,64.2631481 110.903755,63.3935082 110.903755,63.3935082 C110.903755,63.3935082 113.373138,66.1039095 114.170895,66.2589506 C114.968652,66.4139918 119.911646,60.198251 119.911646,60.198251 C119.911646,60.198251 122.461368,56.6957305 119.911646,55.100216 Z" id="Path" fill="#000000" fill-rule="nonzero" opacity="0.1"></path>
            <path d="M111.226523,66.0644444 C111.25894,65.4738786 111.036245,64.4351029 110.907984,63.8966872 C111.39284,63.8332613 111.698693,63.7909774 111.698693,63.7909774 L112.262479,66.1870679 L111.226523,66.0644444 Z" id="Path" fill="#000000" fill-rule="nonzero" opacity="0.1"></path>
            <path d="M119.432428,50.0768827 L115.60573,52.3052469 C115.766831,52.5406766 115.915498,52.7843776 116.051121,53.0353498 C116.271927,53.0803119 116.49669,53.1030041 116.722027,53.1030041 C117.743889,53.1030041 118.220288,52.0304012 118.836224,51.3087551 C118.796759,50.7336934 119.261883,50.7195988 119.432428,50.0768827 Z" id="Path" fill="#000000" fill-rule="nonzero" opacity="0.1"></path>
            <circle id="Oval" fill="#FDC2CC" fill-rule="nonzero" cx="116.643097" cy="49.5990741" r="3.34888889"></circle>
            <path d="M112.406245,46.8900823 C112.744263,46.543548 113.183445,46.3131012 113.660669,46.2318621 C114.125792,46.1317901 114.636019,46.1007819 115.008117,45.8090226 C115.430957,45.4721605 115.617006,44.8322634 116.135689,44.6899074 C116.361332,44.6445597 116.595153,44.6631092 116.810823,44.7434671 C117.639621,44.9934749 118.375476,45.4840445 118.925021,46.1529321 C119.05454,46.3446096 119.219608,46.5096776 119.411286,46.6391975 C119.525913,46.6877334 119.637888,46.7423092 119.746739,46.8026955 C119.866159,46.8969336 119.960149,47.0195083 120.020175,47.1592901 C120.394149,47.9142383 120.48033,48.7795577 120.262603,49.5934362 C120.132932,50.0740638 119.898961,50.5194547 119.760833,51.0029012 C119.622706,51.4863477 119.587469,52.0233539 119.841173,52.4504218 C119.595926,52.5758642 119.285844,52.4180041 119.13644,52.1896708 C118.987037,51.9613374 118.936296,51.6794444 118.854547,51.4158745 C118.695066,50.8974245 118.396184,50.4327679 117.990545,50.0726543 C117.73966,49.8499588 117.285813,49.7005556 117.115267,49.9880864 C117.047613,50.0994342 117.051842,50.2403807 116.994053,50.3559568 C116.879887,50.5814712 116.550072,50.6265741 116.331605,50.4969033 C116.121038,50.351534 115.973059,50.1320821 115.917222,49.8823765 C115.588817,48.7717181 115.029259,48.0726235 113.84108,48.5476132 C113.398508,48.7252058 112.877006,48.8450103 112.451348,48.5405658 C111.890381,48.1388683 112.004547,47.34393 112.406245,46.8900823 Z" id="Path" fill="#000000" fill-rule="nonzero" opacity="0.1"></path>
            <path d="M112.406245,46.8083333 C112.744263,46.461799 113.183445,46.2313522 113.660669,46.1501132 C114.125792,46.0500412 114.636019,46.0190329 115.008117,45.7272737 C115.430957,45.3904115 115.617006,44.7505144 116.135689,44.6081584 C116.361332,44.5628107 116.595153,44.5813603 116.810823,44.6617181 C117.639621,44.9117259 118.375476,45.4022955 118.925021,46.0711831 C119.05454,46.2628607 119.219608,46.4279287 119.411286,46.5574486 C119.525913,46.6059844 119.637888,46.6605602 119.746739,46.7209465 C119.866159,46.8151847 119.960149,46.9377593 120.020175,47.0775412 C120.394149,47.8324893 120.48033,48.6978088 120.262603,49.5116872 C120.132932,49.9923148 119.898961,50.4377058 119.760833,50.9211523 C119.622706,51.4045988 119.587469,51.9416049 119.841173,52.3686728 C119.595926,52.4941152 119.285844,52.3362551 119.13644,52.1079218 C118.987037,51.8795885 118.936296,51.5976955 118.854547,51.3341255 C118.695066,50.8156755 118.396184,50.351019 117.990545,49.9909053 C117.73966,49.7682099 117.285813,49.6188066 117.115267,49.9063374 C117.047613,50.0176852 117.051842,50.1586317 116.994053,50.2742078 C116.879887,50.4997222 116.550072,50.5448251 116.331605,50.4151543 C116.121038,50.269785 115.973059,50.0503331 115.917222,49.8006276 C115.588817,48.6899691 115.029259,47.9908745 113.84108,48.4658642 C113.398508,48.6434568 112.877006,48.7632613 112.451348,48.4588169 C111.890381,48.0585288 112.004547,47.265 112.406245,46.8083333 Z" id="Path" fill="#B96B6B" fill-rule="nonzero"></path>
            <path d="M120.37536,54.4194444 L118.754475,54.4194444 C118.754475,54.4194444 115.564856,56.0135494 115.485926,55.9346193 C115.432366,55.8810597 114.939053,55.9726749 114.626152,56.0389198 C114.675085,55.8611923 114.709031,55.6796752 114.727634,55.4962757 C115.763591,55.4159362 118.316132,53.6639712 118.316132,53.6639712 L120.309115,53.3454321 L120.309115,54.3813889 C120.332701,54.3912556 120.354956,54.4040404 120.37536,54.4194444 Z" id="Path" fill="#000000" fill-rule="nonzero" opacity="0.05"></path>
            <path d="M119.37323,101.199588 C119.368507,101.490188 119.334985,101.779604 119.273158,102.063591 C119.273158,102.063591 112.648673,102.541399 110.582397,102.38213 C109.585905,102.306019 109.161656,101.93392 109.085545,101.577325 C108.99534,101.98607 109.356163,102.527305 110.582397,102.621739 C112.65572,102.781008 119.273158,102.3032 119.273158,102.3032 C119.350793,101.940695 119.384393,101.570145 119.37323,101.199588 Z" id="Path" fill="#FFFFFF" fill-rule="nonzero" opacity="0.3"></path>
            <g id="Group" opacity="0.05" transform="translate(107.965021, 54.264403)" fill="#000000" fill-rule="nonzero">
                <path d="M2.65684156,17.2617181 C1.58141975,18.1073971 0.630030864,18.4611728 0.00563786008,18.6021193 C0.00563786008,18.6613169 0.0169135802,18.7205144 0.0253703704,18.776893 C0.0253703704,18.776893 1.54054527,18.8572325 3.45459877,17.3420576 C3.7510335,17.0879974 4.10146502,16.9048282 4.47927984,16.8064609 C4.06630658,16.6077263 3.46587449,16.6204115 2.65684156,17.2617181 Z" id="Path"></path>
                <path d="M13.4773045,2.31152263 C13.1954115,1.46584362 12.772572,0.408744856 12.4498045,0.157860082 C12.4299152,0.142064064 12.4081357,0.128807 12.3849691,0.118395062 C12.3849691,0.118395062 11.7253395,0.140946502 11.7464815,0.157860082 C12.0748868,0.408744856 12.3934259,1.39255144 12.6795473,2.23118313 C12.9101274,2.91097529 12.9696701,3.63710673 12.8529115,4.34538066 C12.5710185,6.05647119 11.9593107,9.57308642 11.2672634,12.6316255 C10.3102366,16.8600206 9.27427984,15.9001749 8.79506173,16.9375412 C8.40323045,17.7832202 8.59914609,18.9023354 8.68371399,19.2786626 C9.02480453,19.4196091 9.32079218,19.5084053 9.51247942,19.4886728 C9.51247942,19.4886728 9.11360082,18.0538374 9.59281893,17.0164712 C10.072037,15.9791049 11.1079938,16.9361317 12.0650206,12.7105556 C12.7570679,9.65342593 13.3659568,6.13540123 13.6506687,4.4243107 C13.7671919,3.71649458 13.7076515,2.99087642 13.4773045,2.31152263 Z" id="Path"></path>
            </g>
            <path d="M40.0584053,100.903601 C40.0584053,100.903601 38.2261008,101.030453 37.0844342,99.0712963 C36.8630329,98.675652 36.6013637,98.3039305 36.3035905,97.9620473 C35.9379461,97.362627 35.7479742,96.6725749 35.7553086,95.9704733 C35.8187346,94.5159053 34.3007407,86.5439712 34.3007407,86.5439712 C34.3007407,86.5439712 34.4910185,83.5065741 32.9716152,81.6108436 C31.9723045,80.3620576 30.5346502,76.7820165 29.6678292,74.4817695 C29.7261792,74.5336361 29.7963494,74.5704149 29.8722016,74.5888889 L29.836965,74.3901543 L29.8722016,74.3986111 L29.4296296,71.9306379 C28.777289,71.1802419 28.22749,70.346538 27.7946502,69.4513889 L27.8961317,69.4302469 L29.2393519,69.1483539 C29.2393519,69.1483539 31.4226132,66.0475309 31.5565123,64.5196708 L31.7341049,64.5281276 L31.9849897,64.5281276 C34.7630453,64.4675206 38.0330041,64.8452572 38.0330041,64.8452572 L38.0330041,64.8452572 C38.0330041,64.8353909 38.0175,64.7959259 38.0005864,64.7339095 L38.0005864,64.7339095 C37.9157342,64.426838 37.8502996,64.1147289 37.8046708,63.7994342 L37.9301132,63.7909774 L39.1732613,63.7078189 C39.1732613,63.7078189 43.4749486,58.9001337 41.8935288,58.0135802 C40.3121091,57.1270267 38.6672634,61.9995473 38.6672634,61.9995473 L38.1358951,62.0968004 L37.9949486,62.1235802 C38.0090432,62.1024383 38.0231379,62.0827058 38.0400514,62.0629733 C38.056965,62.0432407 31.0166872,61.7472531 29.9412654,60.0389815 C29.9412654,60.0389815 26.8404424,57.5710082 26.715,55.9261626 C26.6473457,55.0537037 26.1004733,54.5899897 25.6001132,54.3475617 C25.2174416,54.1652089 24.7937633,54.0860121 24.3710597,54.1178189 L22.9193107,54.2178909 L23.0222016,54.4011214 L22.9813272,54.4011214 C22.8903305,54.1924659 22.8140334,53.9777036 22.7529938,53.7584053 L22.7825926,53.7584053 C22.7727263,53.7133025 22.7628601,53.6681996 22.7544033,53.6174588 C23.6532196,53.4053175 24.4278715,52.8383467 24.9018427,52.0457395 C25.3758138,51.2531323 25.5087279,50.3024087 25.2702984,49.4102058 C25.4109763,49.4284056 25.5536298,49.4246015 25.6931379,49.39893 C26.2259156,49.2889918 26.6050617,48.7477572 26.6191564,48.2037037 C26.6191564,48.1684671 26.6191564,48.1332305 26.6191564,48.0979938 C26.6191564,48.0979938 26.6191564,48.0838992 26.6191564,48.0768519 C26.6085896,47.5248505 26.3496849,47.0070411 25.9144239,46.6673868 C25.6240741,46.4263683 25.2787551,46.2544136 25.0151852,45.9866152 C24.702284,45.6666667 24.5317387,45.2381893 24.2879012,44.8590432 C23.8813454,44.2355215 23.2781017,43.7657256 22.5739918,43.5242798 C22.0496708,43.3466872 21.4083642,43.3269547 21.0066667,43.7075103 C20.7994753,43.9034259 20.6796708,44.1839095 20.4428807,44.3488169 C20.1088374,44.5870165 19.6549897,44.5165432 19.2462449,44.564465 C18.5048663,44.6518519 17.8536934,45.1804012 17.5266975,45.852716 C17.3261747,46.2773151 17.2295498,46.74353 17.2448045,47.2128498 C17.240337,47.535041 17.2787289,47.856396 17.3589712,48.1684671 C17.4379012,48.4799588 17.5548868,48.7801749 17.6408642,49.0888477 C17.8184568,49.7315638 17.8593313,50.408107 18.0637037,51.0437757 C18.2021609,51.5140629 18.4780025,51.9322427 18.855823,52.2446399 L18.795216,52.5068004 C18.755751,52.5152572 17.770535,52.726677 17.0883539,54.215072 C16.5499383,55.3877469 14.7289095,56.5998868 13.9283333,57.0889712 C13.6266222,57.2735724 13.4117821,57.5717076 13.3321296,57.9163272 C13.2552479,58.2613162 13.221164,58.6144634 13.2306481,58.9677881 C13.2165535,59.7303086 13.3715947,60.7845885 13.9889403,62.1221708 C15.3814918,65.1595679 16.3934877,66.4915123 16.3934877,66.4915123 C16.3934877,66.4915123 16.4710082,67.4217593 16.4752366,68.4027469 C16.4752366,69.1328498 16.421677,69.8601337 16.2666358,70.2237757 C16.1355556,70.5310391 16.0946811,71.3161111 16.0975,72.2111214 C16.0975,73.9292593 16.2666358,76.1717181 16.2666358,76.1717181 C16.2666358,76.1717181 16.7500823,76.2633333 17.4999177,76.3732716 L17.9664506,84.5749486 C18.0250456,85.5680894 17.7063869,86.5467189 17.0742593,87.3149486 C16.7457834,87.7179639 16.3668143,88.0770371 15.9466872,88.383323 C14.6175617,89.331893 11.7704424,99.3292284 11.7704424,99.3292284 C11.7704424,99.3292284 11.9113889,99.3376852 12.1397222,99.3560082 L11.2644444,101.797202 C11.2644444,101.797202 14.7599177,104.475185 16.8882099,103.743673 C17.1155373,103.669688 17.3540051,103.635826 17.5929424,103.643601 C18.0157819,103.643601 18.9107922,103.312377 18.4104321,102.874033 C17.5013272,102.079095 16.4118107,100.875412 15.6831173,100.038189 C15.7518318,100.071461 15.8178118,100.110107 15.8804424,100.153765 L15.8804424,100.134033 L15.9100412,100.153765 C15.9100412,100.153765 15.9170885,100.055103 15.9325926,99.8958333 L15.9015844,99.8859671 C15.9664198,99.2277469 16.1693827,97.573035 16.5738992,97.370072 C17.0798971,97.1163683 20.8121605,89.7152675 20.8121605,89.7152675 L24.5444239,80.0984877 C24.5444239,80.0984877 27.5183951,85.2233025 30.0483848,86.1084465 L30.0483848,88.2466049 C30.0483848,88.2466049 31.4409362,94.5736934 31.9469342,95.2699691 C32.4529321,95.9662449 31.9469342,98.7499383 31.9469342,98.7499383 C32.0469672,98.8645415 32.1616489,98.9654804 32.2880247,99.0501543 L31.8835082,101.343354 C31.8835082,101.343354 34.7940535,101.216502 39.7285905,102.735905 C39.7412757,102.738724 41.6398251,101.918416 40.0584053,100.903601 Z M28.4162243,67.8093621 L27.8002881,67.9629938 L27.6790741,67.9940021 C27.6663889,67.9178909 27.6579321,67.8727881 27.6579321,67.8727881 C27.5169362,67.9361219 27.3654703,67.9729133 27.2111317,67.9813169 C26.9927937,67.2896058 26.866732,66.5720966 26.836214,65.8473868 C26.836214,65.8473868 26.4782099,64.3857716 26.4584774,63.2046399 C26.4655247,62.7437449 26.5345885,62.3420473 26.7093621,62.1151235 L26.915144,62.132037 L27.0560905,62.2729835 L27.0659568,62.2828498 L27.139249,62.3490947 L27.139249,62.3490947 L27.2153601,62.4181584 L27.2280453,62.4294342 L27.3112037,62.5013169 L27.3252984,62.5140021 L27.4098663,62.5858848 L27.418323,62.5929321 L27.5127572,62.6704527 L27.5338992,62.6873663 L27.6339712,62.7677058 L27.642428,62.7677058 L27.7410905,62.8452263 L27.763642,62.8621399 L27.8721708,62.9452984 L27.8947222,62.9622119 L27.9990226,63.038323 L28.0173457,63.0510082 L28.1357407,63.1355761 L28.16393,63.1553086 L28.287963,63.241286 L28.2992387,63.2483333 L28.4204527,63.3286728 L28.4500514,63.3484053 L28.5811317,63.4315638 L28.609321,63.4484774 L28.7319444,63.523179 L28.7544959,63.5372737 L28.8954424,63.6190226 L28.9292695,63.6387551 L29.070216,63.7205041 L29.0814918,63.7205041 L29.2224383,63.7952058 L29.2576749,63.8135288 L29.4070782,63.8882305 L29.4380864,63.9023251 L29.5790329,63.9671605 L29.6058128,63.9798457 L29.7622634,64.0475 L29.8003189,64.0630041 L29.9638169,64.1278395 L29.9638169,64.1278395 C28.9349074,65.2258128 28.4162243,67.8093621 28.4162243,67.8093621 Z" id="Shape" fill="url(#linearGradient-2)" fill-rule="nonzero"></path>
            <path d="M12.812037,97.8478807 L11.6379527,101.122068 C11.6379527,101.122068 14.8529424,103.587222 16.9417695,103.076996 C17.2563893,102.998793 17.5769764,102.946934 17.9002058,102.921955 C18.3329115,102.889537 19.0771091,102.575226 18.6176235,102.173529 C17.1348663,100.876821 15.1587963,98.4680453 15.1587963,98.4680453 L12.812037,97.8478807 Z" id="Path" fill="#4F4D59" fill-rule="nonzero"></path>
            <path d="M32.3303086,97.5377984 L31.7749794,100.687953 C31.7749794,100.687953 34.6164609,100.56392 39.4340123,102.046677 C39.4340123,102.046677 41.2874588,101.243282 39.7426852,100.255247 C39.7426852,100.255247 37.9512551,100.37928 36.8391872,98.4638169 C35.7271193,96.5483539 35.0477572,96.7964198 35.0477572,96.7964198 L32.3303086,97.5377984 Z" id="Path" fill="#4F4D59" fill-rule="nonzero"></path>
            <path d="M17.6295885,74.6847325 L18.173642,84.2690947 C18.2319265,85.290595 17.8930579,86.2950805 17.2278909,87.0725206 C16.9271807,87.4294793 16.5845612,87.7489104 16.2074383,88.0239095 C14.9107305,88.949928 12.1312654,98.7090638 12.1312654,98.7090638 C12.1312654,98.7090638 15.2814198,98.8937037 16.1454218,99.5124588 C16.1454218,99.5124588 16.3300617,97.0416667 16.824784,96.7950103 C17.3195062,96.5483539 20.9629733,89.3248457 20.9629733,89.3248457 L24.6092593,79.9307613 C24.6092593,79.9307613 27.5127572,84.9343621 29.9835494,85.7983642 L29.9835494,87.8984671 C29.9835494,87.8984671 31.3422737,94.0747428 31.8369959,94.7541049 C32.3317181,95.4334671 31.8369959,98.1509156 31.8369959,98.1509156 C31.8369959,98.1509156 33.2577366,99.9423457 36.5305144,98.0268827 C36.5305144,98.0268827 35.480463,96.8527984 35.5438889,95.4320576 C35.6073148,94.0113169 34.1231481,86.2296605 34.1231481,86.2296605 C34.1231481,86.2296605 34.3077881,83.269784 32.8264403,81.4121091 C31.3450926,79.5544342 28.8728909,72.4605967 28.8728909,72.4605967 L27.1730761,68.803035 L17.6295885,74.6847325 Z" id="Path" fill="#787C9C" fill-rule="nonzero"></path>
            <g id="Group" opacity="0.1" transform="translate(12.121399, 68.781893)" fill="#000000" fill-rule="nonzero">
                <path d="M0.597613169,29.9299897 C0.597613169,29.9299897 3.37707819,20.1708539 4.67378601,19.2448354 C5.07242601,18.9533777 5.43279295,18.6128996 5.74638889,18.23143 C6.38089622,17.4645076 6.69986837,16.4849155 6.63858025,15.49143 L6.09452675,5.9070679 L15.2010802,0.288940329 L15.0770473,0.0225514403 L5.5363786,5.90283951 L6.0804321,15.4872016 C6.14401916,16.480893 5.82704757,17.4615396 5.1938786,18.2300206 C4.88028266,18.6114901 4.51991572,18.9519682 4.12127572,19.2434259 C2.8245679,20.1694444 0.0451028807,29.9285802 0.0451028807,29.9285802 C0.0451028807,29.9285802 3.1952572,30.1132202 4.05925926,30.7319753 C4.05925926,30.7319753 4.06630658,30.6361317 4.0818107,30.4796811 C2.86403292,30.0638889 0.597613169,29.9299897 0.597613169,29.9299897 Z" id="Path"></path>
                <path d="M20.3019342,29.3746605 C20.3019342,29.3746605 20.7966564,26.6572119 20.3019342,25.9778498 C19.8072119,25.2984877 18.4428498,19.1208025 18.4428498,19.1208025 L18.4428498,17.0206996 C15.9776955,16.1566975 13.0741975,11.1488683 13.0741975,11.1488683 L12.8585494,11.7126543 C13.6957716,13.0403704 15.9297737,16.3371091 17.891749,17.0235185 L17.891749,19.1236214 C17.891749,19.1236214 19.2504733,25.2998971 19.7451955,25.9792593 C20.2399177,26.6586214 19.7451955,29.37607 19.7451955,29.37607 C19.7451955,29.37607 20.4344239,30.2428909 21.9566461,30.1259053 C20.8220267,30.0356996 20.3019342,29.3746605 20.3019342,29.3746605 Z" id="Path"></path>
            </g>
            <path d="M38.8800926,63.9375617 L37.6665432,64.0179012 L37.0266461,64.0601852 L37.0266461,62.5097737 L37.8723251,62.3575514 L38.3924177,62.2631173 C38.3924177,62.2631173 39.9977984,57.5075823 41.542572,58.3715844 C43.0873457,59.2355864 38.8800926,63.9375617 38.8800926,63.9375617 Z" id="Path" fill="#714B4F" fill-rule="nonzero"></path>
            <path d="M19.4210185,51.214321 C19.4210185,51.214321 18.6176235,54.3024588 18.3709671,56.2179218 C18.1243107,58.1333848 24.114537,56.5886111 24.114537,56.5886111 C24.114537,56.5886111 21.8297942,53.8091461 23.1279115,52.3263889 L19.4210185,51.214321 Z" id="Path" fill="#714B4F" fill-rule="nonzero"></path>
            <path d="M25.9130144,64.0615947 L26.0370473,65.235679 L24.1229938,65.1116461 L22.2004835,63.4400206 L20.28643,58.0699588 L19.0517387,56.1559053 L18.1243107,54.9832305 L18.495,53.5624897 C18.495,53.5624897 18.6641358,53.7034362 18.9502572,53.9289506 C19.8903704,54.6491872 22.0975926,56.1446296 23.7100206,55.7316564 C23.7846279,55.7130529 23.858052,55.6899902 23.9298971,55.6625926 L26.3358539,59.7993724 L25.9130144,64.0615947 Z" id="Path" fill="#E6E6F0" fill-rule="nonzero"></path>
            <path d="M18.9883128,53.1903909 C18.9883128,53.1903909 18.0016872,53.3750309 17.3209156,54.8577881 C16.7980041,55.9980453 15.0347634,57.1735391 14.2468724,57.6569856 C13.9434046,57.8426102 13.7278705,58.1430363 13.6492593,58.4899794 C13.4899897,59.1947119 13.4293827,60.5055144 14.2947942,62.3941975 C15.6535185,65.3540741 16.6415535,66.6564198 16.6415535,66.6564198 C16.6415535,66.6564198 16.8882099,69.6162963 16.5175206,70.4859362 C16.1468313,71.3555761 16.5175206,76.1068827 16.5175206,76.1068827 C16.5175206,76.1068827 23.0010597,77.3415741 25.1645885,76.1068827 C27.3281173,74.8721914 27.018035,70.1152469 27.018035,70.1152469 C27.018035,70.1152469 29.0561214,74.4338477 29.7975,74.5621091 L29.3647942,72.1533333 C29.3647942,72.1533333 26.9560185,69.5585082 26.8277572,66.223714 C26.8277572,66.223714 26.0863786,63.1975926 26.7037243,62.3941975 C26.7037243,62.3941975 37.1422222,63.2596091 37.7595679,62.5182305 C37.7595679,62.5182305 30.90393,62.2095576 29.8538786,60.5449794 C29.8538786,60.5449794 26.8277572,58.1362037 26.7037243,56.530823 C26.6669365,55.9185915 26.3168448,55.3686759 25.7777058,55.0762551 C25.3575449,54.8373837 24.875454,54.7298706 24.3936111,54.7675823 L22.9982407,54.8634259 C22.9982407,54.8634259 25.4070165,59.1256481 25.2829835,59.6809774 C25.1589506,60.2363066 25.4070165,64.7451852 25.4070165,64.7451852 C25.4070165,64.7451852 22.6331893,58.749321 21.4027263,58.0699588 C20.1722634,57.3905967 18.7472942,54.6012654 18.7472942,54.6012654 L18.9939506,53.1918004" id="Path" fill="#000000" fill-rule="nonzero" opacity="0.1"></path>
            <path d="M25.9130144,64.0615947 L26.0370473,65.235679 L24.1229938,65.1116461 L22.2004835,63.4400206 L20.28643,58.0699588 L19.0517387,56.1559053 L18.1243107,54.9832305 L18.495,53.5624897 C18.495,53.5624897 18.6641358,53.7034362 18.9502572,53.9289506 L18.8656893,54.4194444 C18.8656893,54.4194444 20.28643,57.2087757 21.5211214,57.8881379 C22.7558128,58.5675 25.5352778,64.5591358 25.5352778,64.5591358 C25.5352778,64.5591358 25.2886214,60.0488477 25.4112449,59.494928 C25.4958128,59.1171914 24.4133436,57.0354115 23.7100206,55.7344753 C23.7846279,55.7158718 23.858052,55.6928091 23.9298971,55.6654115 L26.3358539,59.7993724 L25.9130144,64.0615947 Z" id="Path" fill="#000000" fill-rule="nonzero" opacity="0.1"></path>
            <path d="M37.6637243,64.0193107 L37.0238272,64.0615947 L37.0238272,62.5111831 L37.8695062,62.3589609 C37.5721091,62.7522016 37.5819753,63.4400206 37.6637243,64.0193107 Z" id="Path" fill="#000000" fill-rule="nonzero" opacity="0.1"></path>
            <path d="M18.9883128,53.0099794 C18.9883128,53.0099794 18.0016872,53.1946193 17.3209156,54.6773765 C16.7980041,55.8176337 15.0347634,56.9931276 14.2468724,57.4765741 C13.9434046,57.6621987 13.7278705,57.9626248 13.6492593,58.3095679 C13.4899897,59.0143004 13.4293827,60.3251029 14.2947942,62.213786 C15.6535185,65.1736626 16.6415535,66.4760082 16.6415535,66.4760082 C16.6415535,66.4760082 16.8882099,69.4358848 16.5175206,70.3055247 C16.1468313,71.1751646 16.5175206,75.9264712 16.5175206,75.9264712 C16.5175206,75.9264712 23.0010597,77.1611626 25.1645885,75.9264712 C27.3281173,74.6917798 27.018035,69.9235597 27.018035,69.9235597 C27.018035,69.9235597 29.0561214,74.2477984 29.7975,74.3704218 L29.3647942,71.9616461 C29.3647942,71.9616461 26.9560185,69.366821 26.8277572,66.0320267 C26.8277572,66.0320267 26.0863786,63.0059053 26.7037243,62.2025103 C26.7037243,62.2025103 29.1125,64.7973354 31.8299486,64.7395473 C34.5473971,64.6817593 37.7595679,65.0482202 37.7595679,65.0482202 C37.7595679,65.0482202 37.1422222,63.0749691 37.7595679,62.3307716 C37.7595679,62.3307716 30.90393,62.0220988 29.8538786,60.3575206 C29.8538786,60.3575206 26.8277572,57.9487449 26.7037243,56.3433642 C26.6669365,55.7311327 26.3168448,55.181217 25.7777058,54.8887963 C25.3575449,54.6499249 24.875454,54.5424117 24.3936111,54.5801235 L22.9982407,54.6759671 C22.9982407,54.6759671 25.4126543,58.9297325 25.2886214,59.4935185 C25.1645885,60.0573045 25.4126543,64.5577263 25.4126543,64.5577263 C25.4126543,64.5577263 22.6331893,58.5646811 21.4027263,57.8853189 C20.1722634,57.2059568 18.7416564,54.4194444 18.7416564,54.4194444 L18.9883128,53.0099794" id="Path" fill="#787C9C" fill-rule="nonzero"></path>
            <path d="M17.6295885,59.4935185 C17.6295885,59.4935185 19.1123457,64.4971193 19.9763477,65.114465 C20.8403498,65.7318107 26.090607,68.881965 27.6353807,68.1405864 C27.6353807,68.1405864 28.00607,69.9940329 27.4507407,70.4253292 C27.4507407,70.4253292 21.6916667,70.1998148 21.6451543,70.1786728 C21.6451543,70.1786728 17.8776543,69.6839506 17.2603086,67.8319136 C16.642963,65.9798765 15.9015844,62.8283128 15.9015844,62.8283128 L17.6295885,59.4935185 Z" id="Path" fill="#000000" fill-rule="nonzero" opacity="0.1"></path>
            <ellipse id="Oval" fill="#BA7855" fill-rule="nonzero" cx="25.5366872" cy="64.8339815" rx="1" ry="1"></ellipse>
            <ellipse id="Oval" fill="#BA7855" fill-rule="nonzero" cx="26.1540329" cy="66.9961008" rx="1" ry="1"></ellipse>
            <g id="Group" opacity="0.1" transform="translate(13.530864, 52.995885)" fill="#000000" fill-rule="nonzero">
                <path d="M3.41936214,22.8629321 C3.41936214,22.8629321 3.04867284,18.1073971 3.41936214,17.2419856 C3.79005144,16.3765741 3.54339506,13.4124691 3.54339506,13.4124691 C3.54339506,13.4124691 2.55676955,12.1157613 1.1966358,9.15024691 C0.33122428,7.26156379 0.393240741,5.95076132 0.551100823,5.24602881 C0.630050468,4.89884492 0.846121442,4.59837917 1.15012346,4.41303498 C1.9380144,3.92958848 3.70125514,2.75409465 4.2227572,1.61383745 C4.60613169,0.778024691 5.08675926,0.35377572 5.43489712,0.143765432 L5.45885802,0.00281893004 C5.45885802,0.00281893004 4.47223251,0.187458848 3.79146091,1.67021605 C3.26854938,2.81047325 1.50530864,3.98596708 0.71882716,4.46941358 C0.414825146,4.65475777 0.198754171,4.95522353 0.119804527,5.30240741 C-0.0394650206,6.00713992 -0.100072016,7.31794239 0.765339506,9.20662551 C2.12406379,12.1665021 3.11209877,13.4688477 3.11209877,13.4688477 C3.11209877,13.4688477 3.35875514,16.4287243 2.98806584,17.2983642 C2.61737654,18.1680041 2.98806584,22.9193107 2.98806584,22.9193107 C2.98806584,22.9193107 7.62097737,23.8016358 10.3609774,23.329465 C7.58996914,23.6578704 3.41936214,22.8629321 3.41936214,22.8629321 Z" id="Path"></path>
                <path d="M11.7577572,6.49763374 C11.6731893,6.8781893 11.7577572,9.11641975 11.826821,10.4864198 C12.1256276,11.0967181 12.3130864,11.4998251 12.3130864,11.4998251 C12.3130864,11.4998251 12.06643,6.98953704 12.1890535,6.43561728 C12.3060391,5.9070679 10.1368724,2.03103909 9.92122428,1.64343621 L9.47160494,1.67444444 C9.47160494,1.67444444 11.8817901,5.93384774 11.7577572,6.49763374 Z" id="Path"></path>
                <path d="M18.737428,11.6830556 C16.0199794,11.745072 13.6112037,9.14601852 13.6112037,9.14601852 C13.5383579,9.24696484 13.4852737,9.36078501 13.4547531,9.48147119 C14.1594856,10.1453292 16.1327366,11.7901749 18.3047222,11.7366152 C21.0221708,11.6745988 24.2343416,12.0452881 24.2343416,12.0452881 C24.2343416,12.0452881 24.2216564,12.0044136 24.2019239,11.9339403 C22.3864921,11.7489742 20.5621709,11.6652163 18.737428,11.6830556 Z" id="Path"></path>
                <path d="M13.9198765,16.8712963 C13.9198765,16.8712963 13.9452469,17.2574897 13.9311523,17.8367798 C14.5738683,19.1052984 15.7437243,21.2927881 16.2666358,21.3801749 L16.1750206,20.8727675 C15.272963,19.7466049 13.9198765,16.8712963 13.9198765,16.8712963 Z" id="Path"></path>
            </g>
            <path d="M29.1801543,69.2498354 L27.8679424,69.5317284 L26.8333951,69.7501955 L27.3887243,68.199784 L27.7749177,68.1025309 L28.3767593,67.9531276 C28.3767593,67.9531276 29.2421708,63.6288889 30.9715844,63.9389712 C32.7009979,64.2490535 29.1801543,69.2498354 29.1801543,69.2498354 Z" id="Path" fill="#714B4F" fill-rule="nonzero"></path>
            <path d="M27.8679424,69.5260905 L26.8333951,69.7445576 L27.3887243,68.1941461 L27.7749177,68.096893 C27.8613077,68.5680649 27.8925263,69.0476954 27.8679424,69.5260905 Z" id="Path" fill="#000000" fill-rule="nonzero" opacity="0.1"></path>
            <path d="M17.6295885,59.3666667 C17.6295885,59.3666667 19.1123457,64.3702675 19.9763477,64.9876132 C20.8403498,65.6049588 26.090607,68.7551132 27.6353807,68.0137346 C27.6353807,68.0137346 28.00607,69.8671811 27.4507407,70.2984774 C27.4507407,70.2984774 21.6916667,70.072963 21.6451543,70.051821 C21.6451543,70.051821 17.8776543,69.5570988 17.2603086,67.7050617 C16.642963,65.8530247 15.9015844,62.7014609 15.9015844,62.7014609 L17.6295885,59.3666667 Z" id="Path" fill="#787C9C" fill-rule="nonzero"></path>
            <path d="M19.483035,51.3383539 C19.483035,51.3383539 19.3575926,51.8218004 19.1898663,52.5251235 C19.8943235,53.8555525 21.4030801,54.5487026 22.8713889,54.2164815 C22.7233951,53.5822222 22.7558128,52.947963 23.189928,52.444784 L19.483035,51.3383539 Z" id="Path" fill="#000000" fill-rule="nonzero" opacity="0.1"></path>
            <circle id="Oval" fill="#714B4F" fill-rule="nonzero" cx="22.0778601" cy="50.8436317" r="3.33479424"></circle>
            <path d="M24.9729012,49.92607 C25.2150308,49.9932969 25.4686225,50.0086661 25.7170988,49.9711728 C26.2371914,49.8640535 26.6078807,49.3355041 26.6205658,48.8041358 C26.6100309,48.2650434 26.3574279,47.7593198 25.9327469,47.4270885 C25.6508539,47.1917078 25.3125823,47.0239815 25.0546502,46.761821 C24.7487963,46.4503292 24.5824794,46.0303086 24.3499177,45.6638477 C23.9514857,45.0544623 23.3605306,44.5959883 22.6712449,44.3615021 C22.1596091,44.1881379 21.5338066,44.1684053 21.1405658,44.5405041 C20.9390123,44.7307819 20.8206173,45.0056276 20.5951029,45.1663066 C20.268107,45.3988683 19.825535,45.3298045 19.4266564,45.3763169 C18.6924305,45.489188 18.0628277,45.9607293 17.7479835,46.6335597 C17.4450967,47.3047256 17.3872384,48.0608739 17.5844856,48.7703086 C17.6620062,49.0733436 17.7747634,49.3679218 17.8579218,49.6695473 C18.031286,50.2981687 18.0721605,50.9577984 18.2723045,51.577963 C18.4724486,52.1981276 18.8854218,52.8041975 19.5098148,52.987428 C19.4604148,52.292173 19.5976345,51.5963425 19.907284,50.971893 C19.9585433,50.8358467 20.0591982,50.7241197 20.189177,50.6589918 C20.3006005,50.630412 20.4174345,50.630412 20.528858,50.6589918 C21.3108405,50.7749574 22.1087417,50.6133824 22.7840021,50.2023251 C23.0207922,50.0613786 23.390072,49.5666564 23.6437757,49.5173251 C23.9679527,49.459537 24.6346296,49.8499588 24.9729012,49.92607 Z" id="Path" fill="#000000" fill-rule="nonzero" opacity="0.1"></path>
            <path d="M24.9729012,49.802037 C25.2150308,49.869264 25.4686225,49.8846332 25.7170988,49.8471399 C26.2371914,49.7400206 26.6078807,49.2114712 26.6205658,48.6801029 C26.6100309,48.1410105 26.3574279,47.6352869 25.9327469,47.3030556 C25.6508539,47.0676749 25.3125823,46.8999486 25.0546502,46.6377881 C24.7487963,46.3262963 24.5824794,45.9062757 24.3499177,45.5398148 C23.9514857,44.9304294 23.3605306,44.4719554 22.6712449,44.2374691 C22.1596091,44.0641049 21.5338066,44.0443724 21.1405658,44.4164712 C20.9390123,44.606749 20.8206173,44.8815947 20.5951029,45.0422737 C20.268107,45.2748354 19.825535,45.2057716 19.4266564,45.252284 C18.6924305,45.3651551 18.0628277,45.8366964 17.7479835,46.5095267 C17.4464428,47.1790466 17.3886032,47.9329559 17.5844856,48.6406379 C17.6620062,48.9436728 17.7747634,49.238251 17.8579218,49.5398765 C18.031286,50.1684979 18.0721605,50.8281276 18.2723045,51.4482922 C18.4724486,52.0684568 18.8854218,52.6745267 19.5098148,52.8577572 C19.4604148,52.1625022 19.5976345,51.4666717 19.907284,50.8422222 C19.9585433,50.7061759 20.0591982,50.5944489 20.189177,50.529321 C20.3006005,50.5007412 20.4174345,50.5007412 20.528858,50.529321 C21.3108405,50.6452866 22.1087417,50.4837116 22.7840021,50.0726543 C23.0207922,49.9317078 23.390072,49.4369856 23.6437757,49.3876543 C23.9679527,49.3355041 24.6346296,49.7273354 24.9729012,49.802037 Z" id="Path" fill="#503F43" fill-rule="nonzero"></path>
            <rect id="Rectangle" fill="#FAFBFC" fill-rule="nonzero" x="31.9004218" y="15.1996708" width="72.8341049" height="87.1049383"></rect>
            <rect id="Rectangle" fill="#7983A6" fill-rule="nonzero" x="31.9004218" y="15.1996708" width="72.8341049" height="2.95282922"></rect>
            <line x1="41.742716" y1="50.6942284" x2="94.8922325" y2="50.6942284" id="Path" stroke="#7983A6"></line>
            <g id="Group" opacity="0.5" transform="translate(41.720165, 44.820988)" stroke="#7983A6">
                <line x1="0.0225514403" y1="0.32" x2="0.868230453" y2="0.32" id="Path"></line>
                <line x1="2.52858025" y1="0.32" x2="51.496214" y2="0.32" id="Path" stroke-dasharray="11.78"></line>
                <line x1="52.3263889" y1="0.32" x2="53.1720679" y2="0.32" id="Path"></line>
            </g>
            <g id="Group" opacity="0.5" transform="translate(41.720165, 39.042181)" stroke="#7983A6">
                <line x1="0.0225514403" y1="0.31" x2="0.868230453" y2="0.31" id="Path"></line>
                <line x1="2.52858025" y1="0.31" x2="51.496214" y2="0.31" id="Path" stroke-dasharray="11.78"></line>
                <line x1="52.3263889" y1="0.31" x2="53.1720679" y2="0.31" id="Path"></line>
            </g>
            <g id="Group" opacity="0.5" transform="translate(41.720165, 33.263374)" stroke="#7983A6">
                <line x1="0.0225514403" y1="0.295" x2="0.868230453" y2="0.295" id="Path"></line>
                <line x1="2.52858025" y1="0.295" x2="51.496214" y2="0.295" id="Path" stroke-dasharray="11.78"></line>
                <line x1="52.3263889" y1="0.295" x2="53.1720679" y2="0.295" id="Path"></line>
            </g>
            <g id="Group" opacity="0.5" transform="translate(41.720165, 27.484568)" stroke="#7983A6">
                <line x1="0.0225514403" y1="0.285" x2="0.868230453" y2="0.285" id="Path"></line>
                <line x1="2.52858025" y1="0.285" x2="51.496214" y2="0.285" id="Path" stroke-dasharray="11.78"></line>
                <line x1="52.3263889" y1="0.285" x2="53.1720679" y2="0.285" id="Path"></line>
            </g>
            <g id="Group" opacity="0.3" transform="translate(44.257202, 39.042181)" fill="#AB6ACB" fill-rule="nonzero">
                <rect id="Rectangle" x="0.131080247" y="0.0873868313" width="3.81401235" height="11.5646605"></rect>
            </g>
            <rect id="Rectangle" fill="#AB6ACB" fill-rule="nonzero" x="55.0297428" y="33.2845165" width="3.81401235" height="17.4703189"></rect>
            <g id="Group" opacity="0.3" transform="translate(65.540123, 44.820988)" fill="#AB6ACB" fill-rule="nonzero">
                <rect id="Rectangle" x="0.132489712" y="0.0281893004" width="3.81401235" height="5.96626543"></rect>
            </g>
            <rect id="Rectangle" fill="#AB6ACB" fill-rule="nonzero" x="76.3140741" y="27.3802675" width="3.81401235" height="23.3759774"></rect>
            <g id="Group" opacity="0.3" transform="translate(86.823045, 32.981481)" fill="#AB6ACB" fill-rule="nonzero">
                <rect id="Rectangle" x="0.132489712" y="0.0577880658" width="3.81401235" height="17.6549588"></rect>
            </g>
            <circle id="Oval" fill="#AB6ACB" fill-rule="nonzero" cx="46.2952881" cy="53.3383848" r="1"></circle>
            <circle id="Oval" fill="#AB6ACB" fill-rule="nonzero" cx="56.9987654" cy="53.3383848" r="1"></circle>
            <circle id="Oval" fill="#AB6ACB" fill-rule="nonzero" cx="67.7022428" cy="53.3383848" r="1"></circle>
            <circle id="Oval" fill="#AB6ACB" fill-rule="nonzero" cx="78.4057202" cy="53.3383848" r="1"></circle>
            <circle id="Oval" fill="#AB6ACB" fill-rule="nonzero" cx="89.1091975" cy="53.3383848" r="1"></circle>
            <line x1="41.742716" y1="87.8491358" x2="94.8922325" y2="87.8491358" id="Path" stroke="#7983A6"></line>
            <g id="Group" opacity="0.5" transform="translate(41.720165, 81.889918)" stroke="#7983A6">
                <line x1="0.0225514403" y1="0.625" x2="0.868230453" y2="0.625" id="Path"></line>
                <line x1="2.52858025" y1="0.625" x2="51.496214" y2="0.625" id="Path" stroke-dasharray="11.78"></line>
                <line x1="52.3263889" y1="0.625" x2="53.1720679" y2="0.625" id="Path"></line>
            </g>
            <g id="Group" opacity="0.5" transform="translate(41.720165, 76.111111)" stroke="#7983A6">
                <line x1="0.0225514403" y1="0.615" x2="0.868230453" y2="0.615" id="Path"></line>
                <line x1="2.52858025" y1="0.615" x2="51.496214" y2="0.615" id="Path" stroke-dasharray="11.78"></line>
                <line x1="52.3263889" y1="0.615" x2="53.1720679" y2="0.615" id="Path"></line>
            </g>
            <g id="Group" opacity="0.5" transform="translate(41.720165, 70.332305)" stroke="#7983A6">
                <line x1="0.0225514403" y1="0.6" x2="0.868230453" y2="0.6" id="Path"></line>
                <line x1="2.52858025" y1="0.6" x2="51.496214" y2="0.6" id="Path" stroke-dasharray="11.78"></line>
                <line x1="52.3263889" y1="0.6" x2="53.1720679" y2="0.6" id="Path"></line>
            </g>
            <g id="Group" opacity="0.5" transform="translate(41.720165, 64.553498)" stroke="#7983A6">
                <line x1="0.0225514403" y1="0.59" x2="0.868230453" y2="0.59" id="Path"></line>
                <line x1="2.52858025" y1="0.59" x2="51.496214" y2="0.59" id="Path" stroke-dasharray="11.78"></line>
                <line x1="52.3263889" y1="0.59" x2="53.1720679" y2="0.59" id="Path"></line>
            </g>
            <rect id="Rectangle" fill="#AB6ACB" fill-rule="nonzero" x="44.3882819" y="76.2844753" width="3.81401235" height="11.5646605"></rect>
            <rect id="Rectangle" fill="#AB6ACB" fill-rule="nonzero" x="55.0297428" y="76.2224588" width="3.81401235" height="11.687284"></rect>
            <rect id="Rectangle" fill="#AB6ACB" fill-rule="nonzero" x="65.6726132" y="82.0054938" width="3.81401235" height="5.96626543"></rect>
            <rect id="Rectangle" fill="#AB6ACB" fill-rule="nonzero" x="76.3140741" y="64.5351749" width="3.81401235" height="23.3759774"></rect>
            <rect id="Rectangle" fill="#AB6ACB" fill-rule="nonzero" x="101.473025" y="50.7435597" width="3.81401235" height="17.6549588"></rect>
            <g id="Group" opacity="0.7" transform="translate(45.243827, 89.501029)" fill="#AB6ACB" fill-rule="nonzero">
                <circle id="Oval" cx="1.05146091" cy="0.992263374" r="1"></circle>
            </g>
            <g id="Group" opacity="0.7" transform="translate(55.955761, 89.501029)" fill="#AB6ACB" fill-rule="nonzero">
                <circle id="Oval" cx="1.04300412" cy="0.992263374" r="1"></circle>
            </g>
            <g id="Group" opacity="0.7" transform="translate(66.667695, 89.501029)" fill="#AB6ACB" fill-rule="nonzero">
                <circle id="Oval" cx="1.03454733" cy="0.992263374" r="1"></circle>
            </g>
            <g id="Group" opacity="0.7" transform="translate(77.379630, 89.501029)" fill="#AB6ACB" fill-rule="nonzero">
                <circle id="Oval" cx="1.02609053" cy="0.992263374" r="1"></circle>
            </g>
            <g id="Group" opacity="0.7" transform="translate(88.091564, 89.501029)" fill="#AB6ACB" fill-rule="nonzero">
                <circle id="Oval" cx="1.01763374" cy="0.992263374" r="1"></circle>
            </g>
            <path d="M26.5049897,101.98607 C26.7633122,101.775476 26.9515653,101.491376 27.0448148,101.171399 C27.1152881,100.847222 26.9771605,100.459619 26.6670782,100.341224 C26.3203498,100.208735 25.9496605,100.448344 25.669177,100.692181 C25.3886934,100.936019 25.0659259,101.212274 24.6980556,101.160123 C25.0826603,100.811489 25.2560322,100.286558 25.1547222,99.7774383 C25.1388208,99.6736982 25.0949678,99.5762472 25.0278704,99.4955453 C24.8347737,99.2897634 24.4866358,99.3785597 24.2554835,99.5406481 C23.5225617,100.056512 23.3181893,101.051595 23.3139609,101.948014 C23.2406687,101.625247 23.3026852,101.288385 23.2998663,100.961389 C23.2970473,100.634393 23.2068416,100.256656 22.9277675,100.084702 C22.7547121,99.9917171 22.5603658,99.9455599 22.3639815,99.9508025 C22.0341667,99.9381173 21.6677058,99.9719444 21.4421914,100.212963 C21.1602984,100.51177 21.235,101.014949 21.4788374,101.340535 C21.7226749,101.666121 22.0919547,101.876132 22.4330453,102.104465 C22.7064156,102.266987 22.939598,102.489088 23.1152263,102.754228 C23.135883,102.791 23.1528781,102.829711 23.1659671,102.869805 L25.2308333,102.869805 C25.6934757,102.634057 26.1220843,102.336781 26.5049897,101.98607 L26.5049897,101.98607 Z" id="Path" fill="#AB6ACB" fill-rule="nonzero"></path>
            <path d="M126.858899,100.294712 C127.117222,100.084118 127.305475,99.8000177 127.398724,99.4800412 C127.469198,99.1558642 127.33107,98.7682613 127.020988,98.6498663 C126.674259,98.5173765 126.30357,98.7569856 126.023086,99.000823 C125.742603,99.2446605 125.419835,99.5209156 125.051965,99.4687654 C125.43657,99.1201315 125.609942,98.5951998 125.508632,98.0860802 C125.49273,97.9823402 125.448877,97.8848891 125.38178,97.8041872 C125.188683,97.5984053 124.840545,97.6872016 124.609393,97.8492901 C123.876471,98.3651543 123.672099,99.3602366 123.66787,100.256656 C123.594578,99.9338889 123.656595,99.5970267 123.653776,99.2700309 C123.650957,98.943035 123.560751,98.5652984 123.281677,98.3933436 C123.108622,98.3003591 122.914275,98.2542018 122.717891,98.2594444 C122.388076,98.2467593 122.021615,98.2805864 121.796101,98.5216049 C121.514208,98.8204115 121.588909,99.3235905 121.832747,99.649177 C122.076584,99.9747634 122.445864,100.184774 122.786955,100.413107 C123.060325,100.575629 123.293507,100.79773 123.469136,101.06287 C123.489792,101.099642 123.506788,101.138353 123.519877,101.178447 L125.584743,101.178447 C126.047385,100.942699 126.475994,100.645423 126.858899,100.294712 L126.858899,100.294712 Z" id="Path" fill="#AB6ACB" fill-rule="nonzero"></path>
            <path d="M112.256842,66.1828395 L111.226523,66.063035 L103.333519,65.1454733 C98.5427469,63.6317078 101.573097,61.325823 101.573097,61.325823 L104.762716,64.3561728 C105.683097,64.5408128 109.291327,64.1109259 110.907984,63.9037346 C111.39284,63.8403086 111.698693,63.7980247 111.698693,63.7980247 L112.256842,66.1828395 Z" id="Path" fill="#FDC2CC" fill-rule="nonzero"></path>
            <path d="M119.990576,55.2651235 C119.990576,55.2651235 117.917253,53.590679 114.807973,59.0128909 C111.698693,64.4351029 110.981276,63.5570062 110.981276,63.5570062 C110.981276,63.5570062 111.619763,65.9530967 111.299815,66.4280864 C111.299815,66.4280864 113.452068,66.2688169 114.249825,66.4280864 C115.047582,66.587356 119.990576,60.3673868 119.990576,60.3673868 C119.990576,60.3673868 122.543117,56.855 119.990576,55.2651235 Z" id="Path" fill="#F68080" fill-rule="nonzero"></path>
        </g>
    </g>
</svg>