<?xml version="1.0" encoding="UTF-8"?>
<svg width="137px" height="137px" viewBox="0 0 137 137" version="1.1" xmlns="http://www.w3.org/2000/svg" xmlns:xlink="http://www.w3.org/1999/xlink">
    <title>Train_users</title>
    <g id="Train_users" stroke="none" stroke-width="1" fill="none" fill-rule="evenodd">
        <g id="undraw_buy_house_560d-(5)" transform="translate(-765.000000, 87.000000)"></g>
        <g id="undraw_teaching_f1cm" transform="translate(0.000000, 14.000000)" fill-rule="nonzero">
            <rect id="Rectangle" fill="#AB6ACB" opacity="0.1" x="27.9875553" y="18.7671233" width="12.4151739" height="3.75342466" rx="1.87671233"></rect>
            <rect id="Rectangle" fill="#AB6ACB" opacity="0.1" x="40.9801791" y="22.5205479" width="12.4151739" height="3.75342466" rx="1.87671233"></rect>
            <rect id="Rectangle" fill="#AB6ACB" opacity="0.1" x="53.972803" y="26.2739726" width="12.4151739" height="3.75342466" rx="1.87671233"></rect>
            <rect id="Rectangle" fill="#AB6ACB" opacity="0.1" x="27.9875553" y="13.1369863" width="12.4151739" height="3.75342466" rx="1.87671233"></rect>
            <rect id="Rectangle" fill="#AB6ACB" opacity="0.1" x="40.9801791" y="16.890411" width="12.4151739" height="3.75342466" rx="1.87671233"></rect>
            <rect id="Rectangle" fill="#AB6ACB" opacity="0.1" x="53.972803" y="20.6438356" width="12.4151739" height="3.75342466" rx="1.87671233"></rect>
            <rect id="Rectangle" fill="#AB6ACB" opacity="0.1" x="68.4090516" y="18.7671233" width="12.4151739" height="3.75342466" rx="1.87671233"></rect>
            <rect id="Rectangle" fill="#AB6ACB" opacity="0.1" x="81.4016754" y="22.5205479" width="12.4151739" height="3.75342466" rx="1.87671233"></rect>
            <rect id="Rectangle" fill="#AB6ACB" opacity="0.1" x="94.3942993" y="26.2739726" width="12.4151739" height="3.75342466" rx="1.87671233"></rect>
            <rect id="Rectangle" fill="#AB6ACB" opacity="0.1" x="68.4090516" y="13.1369863" width="12.4151739" height="3.75342466" rx="1.87671233"></rect>
            <rect id="Rectangle" fill="#AB6ACB" opacity="0.1" x="81.4016754" y="16.890411" width="12.4151739" height="3.75342466" rx="1.87671233"></rect>
            <rect id="Rectangle" fill="#AB6ACB" opacity="0.1" x="94.3942993" y="20.6438356" width="12.4151739" height="3.75342466" rx="1.87671233"></rect>
            <rect id="Rectangle" fill="#AB6ACB" opacity="0.1" x="27.9875553" y="5.63013699" width="12.4151739" height="3.75342466" rx="1.87671233"></rect>
            <rect id="Rectangle" fill="#AB6ACB" opacity="0.1" x="40.9801791" y="9.38356164" width="12.4151739" height="3.75342466" rx="1.87671233"></rect>
            <rect id="Rectangle" fill="#AB6ACB" opacity="0.1" x="53.972803" y="13.1369863" width="12.4151739" height="3.75342466" rx="1.87671233"></rect>
            <rect id="Rectangle" fill="#AB6ACB" opacity="0.1" x="27.9875553" y="0" width="12.4151739" height="3.75342466" rx="1.87671233"></rect>
            <rect id="Rectangle" fill="#AB6ACB" opacity="0.1" x="40.9801791" y="3.75342466" width="12.4151739" height="3.75342466" rx="1.87671233"></rect>
            <rect id="Rectangle" fill="#AB6ACB" opacity="0.1" x="53.972803" y="7.50684932" width="12.4151739" height="3.75342466" rx="1.87671233"></rect>
            <rect id="Rectangle" fill="#AB6ACB" opacity="0.1" x="68.4090516" y="5.63013699" width="12.4151739" height="3.75342466" rx="1.87671233"></rect>
            <rect id="Rectangle" fill="#AB6ACB" opacity="0.1" x="81.4016754" y="9.38356164" width="12.4151739" height="3.75342466" rx="1.87671233"></rect>
            <rect id="Rectangle" fill="#AB6ACB" opacity="0.1" x="94.3942993" y="13.1369863" width="12.4151739" height="3.75342466" rx="1.87671233"></rect>
            <rect id="Rectangle" fill="#AB6ACB" opacity="0.1" x="68.4090516" y="0" width="12.4151739" height="3.75342466" rx="1.87671233"></rect>
            <rect id="Rectangle" fill="#AB6ACB" opacity="0.1" x="81.4016754" y="3.75342466" width="12.4151739" height="3.75342466" rx="1.87671233"></rect>
            <rect id="Rectangle" fill="#AB6ACB" opacity="0.1" x="94.3942993" y="7.50684932" width="12.4151739" height="3.75342466" rx="1.87671233"></rect>
            <rect id="Rectangle" fill="#AB6ACB" opacity="0.1" x="27.9875553" y="85.6069547" width="12.4151739" height="3.75342466" rx="1.87671233"></rect>
            <rect id="Rectangle" fill="#AB6ACB" opacity="0.1" x="40.9801791" y="89.3603793" width="12.4151739" height="3.75342466" rx="1.87671233"></rect>
            <rect id="Rectangle" fill="#AB6ACB" opacity="0.1" x="53.972803" y="93.113804" width="12.4151739" height="3.75342466" rx="1.87671233"></rect>
            <rect id="Rectangle" fill="#AB6ACB" opacity="0.1" x="27.9875553" y="79.9768177" width="12.4151739" height="3.75342466" rx="1.87671233"></rect>
            <rect id="Rectangle" fill="#AB6ACB" opacity="0.1" x="40.9801791" y="83.7302424" width="12.4151739" height="3.75342466" rx="1.87671233"></rect>
            <rect id="Rectangle" fill="#AB6ACB" opacity="0.1" x="53.972803" y="87.483667" width="12.4151739" height="3.75342466" rx="1.87671233"></rect>
            <rect id="Rectangle" fill="#AB6ACB" opacity="0.1" x="68.4090516" y="85.6069547" width="12.4151739" height="3.75342466" rx="1.87671233"></rect>
            <rect id="Rectangle" fill="#AB6ACB" opacity="0.1" x="81.4016754" y="89.3603793" width="12.4151739" height="3.75342466" rx="1.87671233"></rect>
            <rect id="Rectangle" fill="#AB6ACB" opacity="0.1" x="94.3942993" y="93.113804" width="12.4151739" height="3.75342466" rx="1.87671233"></rect>
            <rect id="Rectangle" fill="#AB6ACB" opacity="0.1" x="68.4090516" y="79.9768177" width="12.4151739" height="3.75342466" rx="1.87671233"></rect>
            <rect id="Rectangle" fill="#AB6ACB" opacity="0.1" x="81.4016754" y="83.7302424" width="12.4151739" height="3.75342466" rx="1.87671233"></rect>
            <rect id="Rectangle" fill="#AB6ACB" opacity="0.1" x="94.3942993" y="87.483667" width="12.4151739" height="3.75342466" rx="1.87671233"></rect>
            <rect id="Rectangle" fill="#AB6ACB" opacity="0.1" x="27.9875553" y="72.4699684" width="12.4151739" height="3.75342466" rx="1.87671233"></rect>
            <rect id="Rectangle" fill="#AB6ACB" opacity="0.1" x="40.9801791" y="76.223393" width="12.4151739" height="3.75342466" rx="1.87671233"></rect>
            <rect id="Rectangle" fill="#AB6ACB" opacity="0.1" x="53.972803" y="79.9768177" width="12.4151739" height="3.75342466" rx="1.87671233"></rect>
            <rect id="Rectangle" fill="#AB6ACB" opacity="0.1" x="27.9875553" y="66.8398314" width="12.4151739" height="3.75342466" rx="1.87671233"></rect>
            <rect id="Rectangle" fill="#AB6ACB" opacity="0.1" x="40.9801791" y="70.5932561" width="12.4151739" height="3.75342466" rx="1.87671233"></rect>
            <rect id="Rectangle" fill="#AB6ACB" opacity="0.1" x="53.972803" y="74.3466807" width="12.4151739" height="3.75342466" rx="1.87671233"></rect>
            <rect id="Rectangle" fill="#AB6ACB" opacity="0.1" x="68.4090516" y="72.4699684" width="12.4151739" height="3.75342466" rx="1.87671233"></rect>
            <rect id="Rectangle" fill="#AB6ACB" opacity="0.1" x="81.4016754" y="76.223393" width="12.4151739" height="3.75342466" rx="1.87671233"></rect>
            <rect id="Rectangle" fill="#AB6ACB" opacity="0.1" x="94.3942993" y="79.9768177" width="12.4151739" height="3.75342466" rx="1.87671233"></rect>
            <rect id="Rectangle" fill="#AB6ACB" opacity="0.1" x="68.4090516" y="66.8398314" width="12.4151739" height="3.75342466" rx="1.87671233"></rect>
            <rect id="Rectangle" fill="#AB6ACB" opacity="0.1" x="81.4016754" y="70.5932561" width="12.4151739" height="3.75342466" rx="1.87671233"></rect>
            <rect id="Rectangle" fill="#AB6ACB" opacity="0.1" x="94.3942993" y="74.3466807" width="12.4151739" height="3.75342466" rx="1.87671233"></rect>
            <ellipse id="Oval" fill="#AB6ACB" opacity="0.1" cx="69.6361328" cy="104.229715" rx="63.3029505" ry="5.19704953"></ellipse>
            <path d="M12.2202845,26.9669125 C18.1896733,29.5538883 21.619726,34.9068493 21.619726,34.9068493 C21.619726,34.9068493 15.370274,36.0617492 9.39944152,33.4762171 C3.42860906,30.8906849 -2.05151433e-15,25.5362803 -2.05151433e-15,25.5362803 C-2.05151433e-15,25.5362803 6.24945205,24.3799368 12.2202845,26.9669125 Z" id="Path" fill="#AB6ACB"></path>
            <path d="M30.5398841,17.0347734 C32.3862803,14.0031612 35.5304953,12.5595364 35.5304953,12.5595364 C35.5304953,12.5595364 35.6748577,16.0155743 33.834236,19.0385248 C31.9936143,22.0614752 28.8421812,23.5036565 28.8421812,23.5036565 C28.8421812,23.5036565 28.6920443,20.0490622 30.5398841,17.0347734 Z" id="Path" fill="#AB6ACB"></path>
            <path d="M16.9669231,20.2785985 C18.2878398,24.9934773 21.9286617,28.0972708 21.9286617,28.0972708 C21.9286617,28.0972708 23.428588,23.5541834 22.1076712,18.8378609 C20.7867545,14.1215385 17.1444889,11.0191886 17.1444889,11.0191886 C17.1444889,11.0191886 15.6445627,15.5622761 16.9669231,20.2785985 Z" id="Path" fill="#46455B"></path>
            <rect id="Rectangle" fill="#3F3D56" x="17.1603688" y="20.0663857" width="105.240253" height="52.6923077" rx="7.21"></rect>
            <path d="M17.1603688,69.5827187 L122.400622,69.5827187 L122.400622,71.7178398 C122.400622,72.2926874 121.934616,72.7586934 121.359768,72.7586934 L18.2012223,72.7586934 C17.6263748,72.7586934 17.1603688,72.2926874 17.1603688,71.7178398 L17.1603688,69.5827187 Z" id="Path" fill="#000000" opacity="0.1"></path>
            <rect id="Rectangle" fill="#AB6ACB" x="27.4101054" y="65.6849315" width="7.79557429" height="3.89778714" rx="1.94889357"></rect>
            <rect id="Rectangle" fill="#AB6ACB" x="37.371117" y="69.0052687" width="5.34141201" height="1" rx="0.5"></rect>
            <path d="M32.6288093,30.37098 C36.4385353,31.0740253 40.3247734,30.37098 44.1186196,29.8945838 L55.6488514,28.4509589 C56.1151423,28.3917703 56.7936459,28.1131507 57.0679347,28.6833825 C57.2224025,29.0024236 57.1184615,29.6939199 57.1300105,30.0606006 C57.1603267,31.071138 57.1574394,32.0816754 57.1300105,33.0922129 C57.07804,35.0237829 56.9365648,36.9510221 56.7561117,38.8739305 C56.4053109,42.6374605 55.9087039,46.3807798 55.6604004,50.158746 C55.5333614,52.0816544 55.4698419,54.0103372 55.5261433,55.9332455 C55.5391359,56.3923182 55.5579031,56.8513909 55.5853319,57.30902 C55.6156481,57.8215068 55.8451844,58.5822972 55.2865016,58.9244362 C54.9674605,59.1207692 54.3394837,59.1106639 53.9742466,59.1684089 C53.3967966,59.2593572 52.8193467,59.3315385 52.2303477,59.3907271 C48.3484405,59.7790622 44.4160063,59.6173762 40.5196628,59.5942782 L28.7541201,59.5336459 L25.8841939,59.5177661 C25.6243414,59.5177661 24.6874289,59.6736776 24.5271865,59.3647418 C24.4593361,59.233372 24.6397893,58.6183878 24.671549,58.4538145 C24.7158202,58.1824131 24.763941,57.9114928 24.8159115,57.6410537 C25.1508325,55.742687 25.5463857,53.8558693 25.9448261,51.9704953 C26.8008957,47.9283456 27.677176,43.8659852 28.0294204,39.7372181 C28.2040991,37.6656164 28.0886091,35.5752476 28.3022655,33.5079768 C28.4018757,32.5479663 28.5202529,30.405627 29.7978609,30.3204531 C30.8805796,30.2482719 31.995058,30.3204531 33.0806639,30.3204531 C33.2002577,30.3204531 33.2972076,30.2235032 33.2972076,30.1039094 C33.2972076,29.9843156 33.2002577,29.8873656 33.0806639,29.8873656 C32.0556902,29.8873656 31.0292729,29.8599368 30.0042993,29.8801475 C29.3229083,29.8931401 28.8493994,30.0548261 28.5245838,30.6813593 C27.6944995,32.2895574 27.7796733,34.434784 27.7536881,36.1902318 C27.6916122,40.3926238 27.0463119,44.5055111 26.2061222,48.6155111 C25.7831401,50.6842255 25.3269547,52.7457218 24.9068599,54.8158799 C24.7090832,55.8047629 24.5199684,56.7965332 24.3467334,57.7911907 C24.2658904,58.2646997 23.8573446,59.3084405 24.2168072,59.7429715 C24.5762698,60.1775026 25.6820864,59.9436354 26.1772497,59.9465227 L29.6217387,59.9667334 L36.2219916,60.0042677 C40.4864594,60.0288093 44.7653635,60.1486301 49.0283878,60.0230348 C51.0638988,59.9624025 53.2148999,59.8786723 55.1969968,59.3921707 C55.7874394,59.2478082 56.0718335,58.9764067 56.0949315,58.3469863 C56.1295785,57.3710959 55.9707798,56.3648894 55.950569,55.3846681 C55.8062065,46.9972076 57.7767545,38.7266807 57.574647,30.336333 C57.5616544,29.7661012 57.7767545,28.3282508 57.1531085,27.9832244 C56.8730453,27.827313 56.5092518,27.9124868 56.2147524,27.9471338 C55.6517387,28.0120969 55.0901686,28.0914963 54.5271549,28.1579031 L47.2151949,29.070274 C44.8779663,29.3589989 42.5421812,29.6708219 40.2006217,29.9364489 C37.7219178,30.2251739 35.2186723,30.3969652 32.7486301,29.9364489 C32.475785,29.885922 32.3588514,30.3031296 32.6331401,30.3536565 L32.6288093,30.37098 Z" id="Path" fill="#AB6ACB"></path>
            <path d="M28.0323077,35.4741939 L56.8788198,34.0594415 C57.1574394,34.0450053 57.158883,33.6119178 56.8788198,33.6263541 L28.0323077,35.0411064 C27.7551317,35.0540991 27.7536881,35.4871865 28.0323077,35.4741939 Z" id="Path" fill="#AB6ACB"></path>
            <path d="M36.9192624,31.9041096 C36.7554719,32.0776905 36.6880689,32.3210109 36.7391986,32.5541277 C36.7903283,32.7872444 36.9533804,32.9800189 37.174784,33.0691149 C37.5631191,33.2466807 38.0193045,33.0979874 38.4047524,33.0012645 C38.9822023,32.856902 39.5596523,32.7284194 40.1529821,32.6230348 C41.444351,32.3944164 42.7523817,32.2727391 44.0637619,32.2592413 C44.6614226,32.2520232 45.2547524,32.2794521 45.8524131,32.3054373 C46.2855005,32.3227608 46.7517914,32.3574078 47.1184721,32.0888936 C47.5371233,31.7828451 47.672824,31.1851844 47.2628346,30.8127292 C46.6853846,30.2858061 45.44098,30.5918546 44.7740253,30.6467123 C42.3539095,30.8477588 39.949495,31.2065403 37.5761117,31.7207692 C37.3047102,31.7785142 37.4187566,32.1971654 37.6916017,32.1379768 C39.2574535,31.8001686 40.8353354,31.5287671 42.4252476,31.3237724 C43.2067299,31.2275307 43.9896558,31.1462065 44.7740253,31.0797998 C45.1435933,31.0494837 45.5131612,31.0220548 45.8827292,31.0004004 C46.0270917,30.9917387 46.1801159,30.9758588 46.3273656,30.9801897 C46.7849947,30.990295 46.8384089,30.9080084 46.5641201,31.4609168 C46.3201475,31.9503056 46.3981033,31.8940042 45.9751212,31.8781243 C45.7961117,31.8781243 45.6171022,31.8579136 45.4380927,31.8492518 C45.071412,31.8338532 44.7047313,31.8256726 44.3380506,31.8247102 C43.5575307,31.8247102 42.7789357,31.8622445 42.0022655,31.937313 C41.3439726,32.0008325 40.6871233,32.0903372 40.0360485,32.2058272 C39.6289463,32.2780084 39.2247313,32.3617387 38.82196,32.4541307 C38.6443941,32.4959958 38.4653846,32.5393045 38.2878188,32.5840569 C38.2026449,32.6071549 38.1160274,32.6273656 38.0308535,32.64902 C37.7151809,32.7587355 37.4461855,32.614373 37.2238672,32.2159326 C37.417313,32.0152687 37.1127081,31.7077766 36.9178188,31.9098841 L36.9192624,31.9041096 Z" id="Path" fill="#AB6ACB"></path>
            <path d="M42.1480717,38.0655005 C40.0591465,37.9846575 37.8027608,38.5491149 36.4269863,40.2309378 C35.3500421,41.5460801 34.7365016,43.8024658 35.8769652,45.2836249 C37.1026027,46.8716122 39.7906322,46.591549 41.411823,45.9144889 C43.1268493,45.1926765 45.0035616,43.7042993 45.5189357,41.8420232 C46.1613488,39.5163435 44.0753109,37.7580084 41.9026554,37.7320232 C41.6240358,37.7320232 41.6240358,38.1651106 41.9026554,38.1651106 C43.1412856,38.1795469 44.3568177,38.7108008 44.9342677,39.8642571 C45.5391465,41.0797893 45.0179979,42.3559536 44.2124552,43.3289568 C42.9218546,44.8779663 40.903667,46.0458588 38.8479452,46.0126554 C37.6136459,45.9938883 36.2494204,45.5709062 35.8668599,44.2687566 C35.5521496,43.2134668 35.7917914,42.0600105 36.3403688,41.1245416 C37.5270285,39.1034668 39.9422129,38.4191886 42.1567334,38.5058061 C42.435353,38.5159115 42.435353,38.082824 42.1567334,38.0727187 L42.1480717,38.0655005 Z" id="Path" fill="#AB6ACB"></path>
            <path d="M40.0735827,41.273235 C39.8925576,41.2061556 39.6897866,41.2365039 39.5363331,41.3536439 C39.3828797,41.470784 39.3001446,41.6583793 39.3171233,41.8506849 C39.360432,42.4136986 39.9811907,42.5724974 40.4474816,42.539294 C40.8502529,42.504647 41.3208746,42.3559536 41.1793994,41.8521286 C41.1267249,41.6716868 40.9981516,41.5230899 40.8271549,41.4450263 C40.6979747,41.3937768 40.5578419,41.3763845 40.4200527,41.3944995 C40.3666386,41.3944995 39.8772497,41.573509 40.0851317,41.3584089 L39.7444362,41.3136565 C39.8210216,41.38919 39.8592446,41.495365 39.8483772,41.6023815 C39.8497051,41.6791383 39.8913096,41.7495383 39.9579085,41.7877217 C40.0245074,41.8259051 40.1062814,41.8262421 40.1731928,41.7886091 C40.2742203,41.7463201 40.3904773,41.7648332 40.4733724,41.8364105 C40.5562675,41.9079877 40.5915276,42.020305 40.5644152,42.1264173 C40.5404087,42.2296584 40.5941451,42.335204 40.6917536,42.3765273 C40.7893622,42.4178506 40.9025479,42.3829728 40.9599684,42.2938778 C41.1043309,42.0340253 41.2790095,41.5172076 41.0624658,41.2458061 C40.9181033,41.0624658 40.6394837,41.1173235 40.4662487,41.2241517 C40.3593279,41.2998136 40.2597605,41.3853642 40.168862,41.4796733 C39.9941834,41.6341412 39.880137,41.7063224 39.9451001,41.4103793 C40.053372,40.8719073 40.5673024,40.4431507 41.0364805,40.2280506 L40.718883,39.984078 C40.552376,40.6098003 40.254655,41.1929398 39.84549,41.6947734 L40.215058,41.8477977 C40.1935772,41.4416721 40.4291944,41.065724 40.8040569,40.9079979 L40.591844,40.9079979 L40.7044468,41.0927819 C40.6625817,41.365627 41.0797893,41.4825606 41.1216544,41.2068282 C41.1765121,40.8502529 40.9513066,40.3868493 40.5340991,40.5615279 C40.0360485,40.7694099 39.7776396,41.3396417 39.787745,41.8477977 C39.787745,42.0210327 40.0331612,42.1552898 40.1587566,42.0022655 C40.6178659,41.444505 40.9529942,40.795409 41.1418651,40.0981243 C41.1623711,40.0135918 41.1310087,39.9249267 41.0619121,39.8720882 C40.9928156,39.8192496 40.8990307,39.8122139 40.822824,39.8541517 C40.3903669,40.0496321 40.0249022,40.3679077 39.7718651,40.7694099 C39.5957429,41.0581349 39.3748683,41.5085458 39.5538778,41.8405796 C39.6131439,41.9478824 39.7128627,42.027026 39.83082,42.0603794 C39.9487773,42.0937329 40.0751747,42.0785256 40.1818546,42.0181454 C40.3153269,41.9390051 40.437257,41.8418496 40.5442044,41.7294204 C40.5976185,41.6817808 40.6568072,41.5994942 40.7275448,41.585058 C40.7910643,41.5417492 40.788177,41.5662908 40.7174394,41.6615701 C40.7165017,41.8111658 40.6729337,41.9573937 40.591844,42.0831085 L40.9873973,42.2491254 C41.0602061,41.9737593 40.9642737,41.681325 40.7425,41.502596 C40.5207263,41.323867 40.2145853,41.2922675 39.96098,41.4219283 L40.2872392,41.6095996 C40.2940681,41.4258915 40.2363518,41.2455918 40.1241096,41.1 C40.0896015,41.0431324 40.0311603,41.004988 39.965213,40.9962885 C39.8992657,40.9875891 39.8329321,41.0092739 39.7848577,41.0552476 C39.5654268,41.284784 39.5235616,41.6817808 39.799294,41.8939937 C40.0057323,42.0513488 40.1067861,41.8939937 40.3334352,41.8579031 C41.1028872,41.7582929 40.6539199,42.1047629 40.3825184,42.1163119 C40.261152,42.1293257 40.1384362,42.1205253 40.0201686,42.0903267 C39.7189322,41.9883105 39.7001651,41.8569406 39.9638672,41.6962171 C40.2222761,41.8016017 40.3334352,41.3829505 40.0793572,41.2790095 L40.0735827,41.273235 Z" id="Path" fill="#AB6ACB"></path>
            <path d="M39.7256691,42.0643414 C39.903235,42.6417914 39.1698736,42.8323498 38.82196,43.0315701 C38.5778122,43.1684893 38.3649137,43.3548369 38.1968704,43.5787039 C37.8330769,44.0666491 37.6973762,44.6874078 37.5775553,45.2720759 C37.5226976,45.544921 37.9399052,45.660411 37.9962065,45.3875659 C38.0622505,44.9579428 38.1850703,44.5389961 38.3614436,44.1417176 C38.6212961,43.6248999 38.9937513,43.4516649 39.4788093,43.1860379 C39.9638672,42.920411 40.3146681,42.5089779 40.1428767,41.9488514 C40.0620337,41.6832244 39.6433825,41.7972708 39.7256691,42.0643414 L39.7256691,42.0643414 Z" id="Path" fill="#AB6ACB"></path>
            <path d="M40.4474816,41.7741728 C40.2334424,41.803768 40.0770881,41.9913931 40.0865753,42.2072603 C40.0865753,42.3790516 40.2006217,42.4887671 40.2785774,42.6259115 C40.4636244,42.9065057 40.6047977,43.2136793 40.6972287,43.5368388 C40.7665227,43.8472181 40.834373,44.4030137 40.672687,44.6917387 C40.3738567,45.2273235 39.833941,45.1248261 39.3734247,45.1248261 C38.9403372,45.1248261 38.6054162,45.2691886 38.6198525,44.6657534 C38.6285142,44.3265016 38.8652687,43.9829189 39.0529399,43.7158483 L38.6573867,43.6638778 C38.7408291,44.1046853 38.7847932,44.5520562 38.7887566,45.0006744 C38.7887566,45.2013383 39.0962487,45.3124974 39.1915279,45.1089463 C39.423615,44.6207215 39.6078172,44.1111439 39.741549,43.5873656 L39.3156797,43.5296207 L39.3907482,44.6267756 C39.3933089,44.722916 39.4585723,44.806018 39.5513657,44.8312951 C39.6441592,44.8565721 39.742553,44.8180506 39.7935195,44.736491 C39.8440814,44.680693 39.8811276,44.6140098 39.9017914,44.5416017 C39.9162276,44.4737513 39.7834141,44.0161222 39.73,44.1792518 L40.1544257,44.2369968 L40.1847418,43.1946997 L39.7516544,43.2524447 C39.8432002,43.5463622 39.8707655,43.8564718 39.8324974,44.1619283 C39.8050685,44.4030137 40.2107271,44.4578714 40.2655848,44.2196733 L40.5369863,42.8193572 L40.1414331,42.8698841 C40.2354136,43.0635701 40.2613521,43.2832839 40.215058,43.49353 C40.1832982,43.770706 40.6163857,43.7678188 40.6481454,43.49353 C40.6849296,43.2060621 40.6388516,42.914068 40.5153319,42.6518967 C40.4704901,42.5780509 40.3862683,42.5376558 40.3006101,42.5489102 C40.2149519,42.5601646 40.1440232,42.6209444 40.1197787,42.7038672 L39.8469336,44.1041834 L40.272803,44.1619283 C40.316112,43.8177885 40.2830887,43.4683333 40.1760801,43.1383983 C40.1461902,43.0356628 40.045748,42.970158 39.9396818,42.984228 C39.8336156,42.998298 39.7537255,43.0877244 39.7516544,43.1946997 L39.7213383,44.2369968 C39.7213383,44.4896312 40.0721391,44.5257218 40.1472076,44.2947418 L40.1703056,44.2240042 C40.190636,44.1489905 40.1697694,44.0688187 40.1154478,44.013235 C39.6664805,43.5252898 39.5755321,44.30196 39.4196207,44.5170601 L39.8238356,44.6267756 L39.7487671,43.5296207 C39.7328872,43.2957534 39.3864173,43.2235722 39.3228978,43.4718757 C39.2008879,43.960168 39.0316681,44.4354338 38.8176291,44.8909589 L39.221844,45.0006744 C39.2171857,44.5132393 39.1688718,44.0272014 39.0774816,43.5483878 C39.0399473,43.3491675 38.7786512,43.3578293 38.6819283,43.4964173 C38.3932034,43.9121812 37.8937092,44.8202213 38.279157,45.3182719 C38.6155216,45.7513593 39.6736986,45.5838988 40.1255532,45.55647 C40.8387039,45.5160485 41.0971128,45.0641939 41.1750685,44.3914647 C41.2122057,44.0693182 41.1941422,43.7431978 41.1216544,43.4271233 C41.0826765,43.2567756 40.6885669,42.1769442 40.5701897,42.1985985 C40.8444784,42.1480717 40.7275448,41.7294204 40.4546997,41.7799473 L40.4474816,41.7741728 Z" id="Path" fill="#AB6ACB"></path>
            <path d="M39.6087355,42.747176 L38.4264067,44.3077345 L38.8003056,44.5257218 L39.6664805,43.2726554 L39.2709273,43.1051949 L38.8392835,44.7523709 C38.815277,44.8556121 38.8690134,44.9611576 38.9666219,45.0024809 C39.0642304,45.0438043 39.1774161,45.0089264 39.2348367,44.9198314 C39.4312539,44.5943697 39.6517836,44.284084 39.8945732,43.9915806 L39.533667,43.7808114 C39.4367407,44.1537569 39.2498723,44.4972577 38.9894204,44.7812434 L39.3517703,44.9920126 C39.3739477,44.7925317 39.4270346,44.5977172 39.5091254,44.4145627 C39.6202845,44.1648156 39.26804,43.943941 39.1352266,44.1951317 C39.0130818,44.4239242 38.8736052,44.6430326 38.718019,44.8505374 L39.1135722,44.9025079 L39.2016333,44.4910748 L38.8060801,44.4391043 L38.8695996,44.8000105 C38.890811,44.8738821 38.9493558,44.931125 39.0236857,44.9506699 C39.0980155,44.9702148 39.1771451,44.9491732 39.2319494,44.8952898 C39.5980948,44.5163934 39.8916727,44.07358 40.0981243,43.5888093 L39.7256691,43.5888093 C39.8235871,43.769336 39.8922889,43.9642347 39.9292202,44.1662592 C39.9811907,44.4261117 40.3262171,44.3293888 40.3536459,44.1085142 C40.4156544,43.6249441 40.4474757,43.1379805 40.4489252,42.6504531 L40.0158377,42.6504531 L40.0158377,43.5584932 C40.0158377,43.793804 40.4012856,43.863098 40.4417071,43.6162381 C40.4702984,43.3972274 40.5424544,43.1861588 40.6539199,42.9954795 L40.2742466,42.9954795 C40.3657484,43.1430787 40.4156301,43.3126765 40.4186091,43.4863119 C40.4186091,43.6059057 40.515559,43.7028556 40.6351528,43.7028556 C40.7547466,43.7028556 40.8516965,43.6059057 40.8516965,43.4863119 L40.9065543,43.1975869 L40.4893467,43.1975869 C40.5312118,43.4531085 40.6900105,44.8924025 40.1255532,44.7234984 C40.030274,44.7004004 40.0028451,44.7061749 40.0432666,44.7393783 L40.1717492,44.4650896 L40.4734668,43.8255638 L40.0692518,43.7158483 C40.0952371,44.013235 40.122666,44.4376607 39.9436565,44.6917387 C39.799294,44.898177 39.3546575,44.9804636 39.1280084,44.8591992 C38.9783832,44.7525298 38.8504986,44.6182754 38.7512223,44.4636459 L38.4552792,44.7523709 C38.694921,44.9270495 39.0832561,45.3558061 39.3921918,45.3803477 C39.6275026,45.3991149 39.8252792,45.2042255 39.9797471,45.048314 C40.4585603,44.5535132 40.7136933,43.8841151 40.6856797,43.1961433 C40.6856797,43.0765495 40.5887297,42.9795996 40.4691359,42.9795996 C40.3495421,42.9795996 40.2525922,43.0765495 40.2525922,43.1961433 L40.2525922,43.689863 C40.2525922,43.8094568 40.3495421,43.9064067 40.4691359,43.9064067 C40.5887297,43.9064067 40.6856797,43.8094568 40.6856797,43.689863 L40.6856797,42.4786617 C40.6856797,42.3590679 40.5887297,42.262118 40.4691359,42.262118 C40.3495421,42.262118 40.2525922,42.3590679 40.2525922,42.4786617 C40.2518063,42.7689767 40.2266956,43.0587152 40.1775237,43.3448367 L40.603393,43.4025817 C40.5694845,43.057656 40.5535831,42.711197 40.5557534,42.3646154 C40.5543549,42.2573849 40.4746815,42.1673298 40.3684209,42.1528725 C40.2621603,42.1384153 40.1613235,42.2039112 40.1313277,42.3068704 C40.0663646,42.5826027 39.9869652,42.8540042 39.9104531,43.1239621 L40.3060063,43.0719916 L40.2756902,42.9565016 C40.2554795,42.6807692 39.822392,42.6793256 39.8426027,42.9565016 C39.8473562,43.0733791 39.8779223,43.1877553 39.9321075,43.2914226 C40.0158377,43.4675448 40.2771338,43.4054689 40.3276607,43.2394521 C40.4099473,42.9680506 40.4835722,42.6966491 40.5485353,42.4223604 L40.122666,42.3646154 C40.1204956,42.711197 40.136397,43.057656 40.1703056,43.4025817 C40.19196,43.6248999 40.5499789,43.7201791 40.5947313,43.4603267 C40.652394,43.134274 40.6828151,42.8039871 40.6856797,42.4728872 L40.2525922,42.4728872 L40.2525922,43.6840885 L40.6856797,43.6840885 L40.6856797,43.1903688 L40.2525922,43.1903688 C40.2780608,43.7349649 40.0888667,44.2678183 39.7256691,44.6744152 C39.6694126,44.738374 39.6086231,44.7981986 39.5437724,44.8534247 C39.441275,44.9515911 39.3474394,44.9371549 39.2651528,44.8086723 C39.0601581,44.7234984 38.8479452,44.5040674 38.6689357,44.3755848 C38.4899262,44.2471022 38.24451,44.5011802 38.371549,44.6715279 C38.7035827,45.1132771 39.198746,45.6055532 39.8151739,45.3933404 C40.4633614,45.163804 40.5514226,44.2860801 40.5023393,43.7086301 C40.4864594,43.516628 40.1991781,43.3867018 40.099568,43.6003583 C39.9552055,43.9049631 39.810843,44.2081243 39.6664805,44.5141728 C39.6159536,44.6210011 39.522118,44.7682508 39.5365543,44.8952898 C39.5841939,45.2201054 39.9783035,45.1666913 40.2208325,45.1479241 C41.1606322,45.0771865 41.0119389,43.7447208 40.903667,43.0748788 C40.8675764,42.8525606 40.5442044,42.8872076 40.4864594,43.0748788 C40.4405866,43.2067459 40.4166892,43.3452534 40.4157218,43.4848683 L40.8488093,43.4848683 C40.8331163,43.2366378 40.7636631,42.9947832 40.6452582,42.7760485 C40.6058689,42.7103642 40.5348982,42.67017 40.4583087,42.67017 C40.3817193,42.67017 40.3107486,42.7103642 40.2713593,42.7760485 C40.1422646,42.9989049 40.0551668,43.2435618 40.0143941,43.4978609 L40.4474816,43.5556059 L40.4474816,42.6475659 C40.4474816,42.5279721 40.3505316,42.4310221 40.2309378,42.4310221 C40.111344,42.4310221 40.0143941,42.5279721 40.0143941,42.6475659 C40.0129446,43.1350933 39.9811233,43.6220569 39.9191149,44.105627 L40.3449842,44.047882 C40.2959857,43.8118714 40.2128236,43.58427 40.0981243,43.3722655 C40.0587351,43.3065812 39.9877644,43.2663871 39.9111749,43.2663871 C39.8345855,43.2663871 39.7636147,43.3065812 39.7242255,43.3722655 C39.5359582,43.8243873 39.2652472,44.2375521 38.9259009,44.5906849 L39.2882508,44.6859642 L39.2247313,44.325058 C39.1915279,44.1330558 38.9201264,44.1272813 38.8291781,44.2730875 C38.6841518,44.4924969 38.6365852,44.7622151 38.6978082,45.0179979 C38.7338988,45.2229926 38.9937513,45.2013383 39.0933614,45.0699684 C39.2489364,44.8629618 39.3884142,44.6443339 39.510569,44.4160063 L39.1366702,44.1965753 C39.0368429,44.4122842 38.9687679,44.6413083 38.9345627,44.8765227 C38.9085774,45.0670811 39.1352266,45.2663014 39.2969125,45.0872919 C39.6072591,44.7477043 39.8319673,44.3388739 39.9523182,43.8948577 C40.0057323,43.6985248 39.7343309,43.5122972 39.5899684,43.6840885 C39.3243791,44.0023689 39.083095,44.3401668 38.868156,44.6946259 L39.2637092,44.8620864 L39.7040148,43.2206849 C39.7280212,43.1174438 39.6742848,43.0118982 39.5766763,42.9705749 C39.4790678,42.9292516 39.3658821,42.9641294 39.3084615,43.0532244 L38.4422866,44.3077345 C38.2806006,44.5401581 38.6516122,44.7408219 38.8161855,44.5257218 L39.9941834,42.966607 C40.1616438,42.7442887 39.7863014,42.5335195 39.6202845,42.747176 L39.6087355,42.747176 Z" id="Path" fill="#AB6ACB"></path>
            <path d="M58.0265016,47.9572181 C59.7588514,46.8975975 61.1360695,45.3168282 62.6663119,43.9944679 C64.3264805,42.5609484 66.0689357,41.2255954 67.8633614,39.96098 C71.3482719,37.5068177 75.0078609,35.3110643 78.6645627,33.1210854 C78.7630522,33.0587801 78.7945656,32.9297009 78.7358674,32.8290199 C78.6771692,32.7283389 78.5493157,32.6921724 78.4465753,32.7471865 C74.7898736,34.9371654 71.1288409,37.128588 67.6439305,39.5870811 C65.9996417,40.741981 64.3943309,41.9661749 62.8554268,43.2654373 C61.1808219,44.6801897 59.6895574,46.441412 57.8027397,47.5833193 C57.5645416,47.7276818 57.782529,48.1030242 58.0207271,47.9572181 L58.0265016,47.9572181 Z" id="Path" fill="#AB6ACB"></path>
            <path d="M84.2557218,26.3966807 C82.3790095,26.5872392 80.3579347,27.065079 79.2030348,28.7064805 C78.20549,30.1183456 78.2271444,32.5811697 79.1640569,34.030569 C80.2280084,35.677745 82.4021075,35.7369336 84.0911486,35.204236 C85.7801897,34.6715385 87.5284194,33.7375132 87.5125395,31.7193256 C87.5038778,30.636607 87.1126554,29.5091359 86.6810116,28.527471 C86.3085564,27.6800632 85.6488198,26.9394837 84.6498314,27.0333193 C84.3740991,27.0593045 84.3712118,27.492392 84.6498314,27.4664067 C85.9880717,27.342255 86.4182719,28.931686 86.7358693,29.9350053 C87.0245943,30.8719178 87.2916649,31.9806217 86.8383667,32.9117597 C86.3850685,33.8428978 85.2922445,34.3178504 84.3582192,34.6585458 C83.3476818,35.0252266 82.2375342,35.2489884 81.1822445,34.9472708 C79.0918757,34.3626027 78.5144257,31.7135511 79.1164173,29.8339515 C79.8093572,27.6685142 82.2635195,27.0318757 84.2629399,26.8297682 C84.5372287,26.8023393 84.5401159,26.3692518 84.2629399,26.3966807 L84.2557218,26.3966807 Z" id="Path" fill="#AB6ACB"></path>
            <path d="M87.1429715,43.1427292 C85.2662592,43.3332877 83.2451844,43.8111275 82.0902845,45.452529 C81.0927397,46.8643941 81.1143941,49.3272181 82.0513066,50.7766175 C83.1152582,52.4237935 85.2893572,52.4829821 86.9783983,51.9502845 C88.6674394,51.4175869 90.4156691,50.4835616 90.3997893,48.4653741 C90.3911275,47.3826554 89.9999052,46.2551844 89.5682613,45.2735195 C89.1958061,44.4261117 88.5360695,43.6855321 87.5370811,43.7793678 C87.2613488,43.805353 87.2584615,44.2384405 87.5370811,44.2124552 C88.8753214,44.0883035 89.3055216,45.6777345 89.6231191,46.6810537 C89.911844,47.6179663 90.1789146,48.7266702 89.7256164,49.6578082 C89.2723182,50.5889463 88.1794942,51.0638988 87.2454689,51.4045943 C86.2349315,51.771275 85.124784,51.9950369 84.0694942,51.6933193 C81.9791254,51.1086512 81.4016754,48.4595996 82.003667,46.58 C82.696607,44.4145627 85.1507692,43.7779241 87.1501897,43.5758166 C87.4244784,43.5483878 87.4273656,43.1153003 87.1501897,43.1427292 L87.1429715,43.1427292 Z" id="Path" fill="#AB6ACB"></path>
            <path d="M81.4247734,30.613509 L82.7918862,32.1726238 C82.8469331,32.2257481 82.9257992,32.2461289 82.9996922,32.2263255 C83.0735852,32.2065222 83.1316895,32.1494334 83.1527924,32.0759009 C83.4415174,31.3165543 83.3866596,30.5297787 83.45451,29.7314542 C83.5293239,28.9063326 83.736488,28.0986364 84.0680506,27.3393678 C84.734092,25.7993567 85.8633557,24.5050934 87.298883,23.63647 C87.5370811,23.4921075 87.3190938,23.116765 87.0808957,23.2625711 C85.6654355,24.1149071 84.5299183,25.3623201 83.8139726,26.8514226 C83.4635051,27.5760418 83.2203531,28.3478062 83.0921602,29.1424552 C82.9477977,30.0793678 83.0791675,31.0610327 82.7326976,31.960411 L83.0950474,31.8636881 L81.7351528,30.3074605 C81.5503688,30.0981349 81.245764,30.405627 81.4291043,30.613509 L81.4247734,30.613509 Z" id="Path" fill="#AB6ACB"></path>
            <path d="M58.7237724,49.6448156 C66.1699895,49.4176853 73.6181314,49.3695645 81.0681981,49.5004531 C81.3468177,49.5004531 81.3468177,49.0673656 81.0681981,49.0673656 C73.6200562,48.9345522 66.1719143,48.982673 58.7237724,49.2117281 C58.4451528,49.2203899 58.4437092,49.6534773 58.7237724,49.6448156 Z" id="Path" fill="#AB6ACB"></path>
            <path d="M82.6244257,45.3745732 C85.1699051,46.3736173 87.6184343,47.6039223 89.9392729,49.0500421 C90.1760274,49.1944046 90.3940148,48.823393 90.1572603,48.6761433 C87.8058496,47.2121665 85.3248974,45.9673413 82.7456902,44.9573656 C82.4872813,44.8548683 82.3746786,45.2735195 82.6316438,45.3745732 L82.6244257,45.3745732 Z" id="Path" fill="#AB6ACB"></path>
            <path d="M87.2469125,43.412687 C84.665648,46.4218303 83.1703954,50.2110578 83.0012118,54.1720232 C82.9896628,54.4506428 83.4227503,54.4506428 83.4342993,54.1720232 C83.598291,50.3247801 85.0485979,46.6438575 87.552961,43.7187355 C87.7334141,43.5079663 87.4288093,43.2004742 87.2469125,43.412687 Z" id="Path" fill="#AB6ACB"></path>
            <path d="M29.5091359,48.0727081 L45.6445311,47.8619389 L47.499589,47.8373973 C47.8330664,47.8373973 48.1665437,47.8258483 48.5000211,47.8244046 C48.9691992,47.8244046 49.285353,48.2141834 49.2766913,48.6905796 C49.2550369,49.701117 48.6198419,49.6650263 47.788314,49.701117 L45.7831191,49.7920653 L37.6179768,50.1515279 C36.1555848,50.216491 34.6917492,50.2958904 33.2293572,50.3464173 C31.9098841,50.3868388 29.4008641,49.9566386 29.9869758,48.0366175 C30.0678188,47.7695469 29.6506112,47.6555005 29.5683246,47.9211275 C29.2795996,48.8652582 29.7906428,49.8238251 30.613509,50.3189884 C31.7814015,51.0205901 33.3203056,50.782392 34.6094626,50.724647 L44.6339937,50.2699052 L47.0679452,50.1616333 C47.6915911,50.1327608 48.5592097,50.2597998 49.1323288,49.9696312 C49.805058,49.6303793 49.9234352,48.2834773 49.4990095,47.7161328 C49.2810221,47.4274078 48.9749737,47.4014226 48.6328346,47.3884299 C47.7348999,47.3537829 46.8210854,47.4129715 45.9217071,47.4245205 L40.9238778,47.4909273 L29.5033614,47.6352898 C29.2247418,47.6352898 29.2247418,48.0683772 29.5033614,48.0683772 L29.5091359,48.0727081 Z" id="Path" fill="#AB6ACB"></path>
            <g id="b30eccf6-7cfe-48df-9caa-415a128bd568" transform="translate(92.536354, 32.337197)">
                <path d="M2.16399368,68.788725 C1.80020021,69.0168177 1.38443625,69.1453003 1.00909378,69.3459642 C0.633751317,69.546628 0.268514226,69.8483456 0.161685985,70.2641096 C0.121825045,70.3931649 0.128465809,70.5321101 0.180453109,70.6567756 C0.2738494,70.8073355 0.416777541,70.9206571 0.584668072,70.9772603 C2.12572134,71.6616678 3.88055786,71.6815082 5.43669125,71.032118 C5.70763555,70.9018852 5.98743108,70.7909318 6.27399368,70.7000843 C6.62701707,70.6280899 6.9863185,70.5913377 7.34660695,70.5903688 C7.72530424,70.5682436 8.10202301,70.5200081 8.47407798,70.4460063 C8.66110925,70.4251861 8.8383569,70.3515832 8.98512118,70.2337935 C9.11903121,70.0794917 9.1995373,69.8860745 9.21465753,69.6823288 C9.38550356,68.5576291 9.12790579,67.4097734 8.4928451,66.4659326 C8.4128457,66.3336615 8.3055558,66.2199735 8.17813488,66.1324552 C8.02277453,66.052145 7.85189722,66.0063479 7.67719705,65.9981981 C6.95538462,65.910137 6.19892518,65.748451 5.46989463,65.7311275 C4.94730242,65.7195785 4.6845627,65.967882 4.31499473,66.3273446 C3.55131718,67.0910221 3.10523709,68.2011697 2.16399368,68.788725 Z" id="Path" fill="#323444"></path>
                <path d="M12.8020653,68.6818967 C12.8020653,69.3892729 12.8872392,70.1385142 13.3159958,70.7029715 C13.5120719,70.9470482 13.7495586,71.154727 14.0175975,71.3165121 C14.9241939,71.8939621 16.1252898,72.1061749 17.0809694,71.6167861 C17.2353492,71.5474932 17.3673357,71.4365045 17.4620864,71.2963014 C17.6064489,71.0451106 17.5299368,70.731844 17.4490938,70.4546681 L16.0661012,65.6618335 C15.1724974,65.7989779 13.8587987,65.8957007 13.0648051,66.3489989 C12.4887987,66.6767018 12.8020653,68.049589 12.8020653,68.6818967 Z" id="Path" fill="#323444"></path>
                <path d="M1.3526765,39.1698736 C1.26894626,39.4340569 0.965785037,39.556765 0.799768177,39.7790832 C0.60487882,40.0403793 0.625089568,40.4027292 0.695827187,40.7203267 C0.783208093,41.1886486 1.00316652,41.6220519 1.3295785,41.9690622 C1.66569827,42.3178314 2.14979162,42.4824231 2.62884089,42.4108114 C3.09368809,42.3227503 3.49501581,41.9113172 3.51089568,41.4392518 C3.5025209,41.2245618 3.45659286,41.0129997 3.37519494,40.8141623 L2.39064278,37.967334 C2.38252296,37.9266309 2.35727703,37.8913918 2.32134879,37.8706112 C2.28419534,37.8623494 2.24528245,37.8690943 2.21307692,37.8893783 C1.98065332,37.9990938 1.51436249,38.1145838 1.37866175,38.3556691 C1.24296101,38.5967545 1.45084299,38.9085774 1.3526765,39.1698736 Z" id="Path" fill="#FBB3B2"></path>
                <path d="M0.892160169,39.0269547 C1.25162276,38.9706533 1.56633298,38.7598841 1.90269758,38.6212961 C2.23906217,38.4827081 2.66060063,38.429294 2.94355111,38.660274 C3.0243941,38.7266807 3.10234984,38.8176291 3.20773446,38.8161855 C3.06438132,38.1102791 2.84762187,37.4212937 2.56099052,36.7604636 C2.55090997,36.7287997 2.53123492,36.7010529 2.50468915,36.6810643 C2.46534528,36.6650942 2.4213249,36.6650942 2.38198103,36.6810643 L1.4104215,36.9351423 C1.0509589,37.0289779 1.00909378,37.0001054 1.03652266,37.3537935 C1.04374078,37.5111486 1.12458377,39.0269547 0.892160169,39.0269547 Z" id="Path" fill="#323444"></path>
                <path d="M0.785331928,18.4697366 C0.640969442,18.6920548 0.640969442,18.9692308 0.640969442,19.2305269 C0.640969442,20.5081349 0.653962065,21.792961 0.843076923,23.0575764 C0.887829294,23.3607376 0.944130664,23.6638988 0.973003161,23.9699473 C1.00572464,24.3959732 1.01247404,24.8235963 0.993213909,25.2504426 L0.848851423,30.8083983 C0.831527924,31.4883456 0.796880927,32.2188198 0.376786091,32.752961 C0.249403788,32.9320185 0.18956384,33.1504087 0.207881981,33.3693888 C0.317597471,34.7639305 0.54857745,36.1469231 0.778113804,37.5255848 C1.52778291,37.1874373 2.39405112,37.2287648 3.10812434,37.6367439 C3.83649173,35.346539 4.23935385,32.9653274 4.30488936,30.5629821 C4.33809273,29.3806533 4.28756586,28.1911064 4.46946259,27.0232139 C4.77406744,25.0569968 4.6499157,23.0402529 4.42615385,21.0624868 C4.35541623,20.4359536 4.20527924,19.7906533 3.80395153,19.3055954 C3.42403835,18.8811834 2.9180704,18.5897458 2.36032666,18.4740674 C1.82618546,18.3340358 1.34834563,18.4783983 0.785331928,18.4697366 Z" id="Path" fill="#5B5583"></path>
                <path d="M0.785331928,18.4697366 C0.640969442,18.6920548 0.640969442,18.9692308 0.640969442,19.2305269 C0.640969442,20.5081349 0.653962065,21.792961 0.843076923,23.0575764 C0.887829294,23.3607376 0.944130664,23.6638988 0.973003161,23.9699473 C1.00572464,24.3959732 1.01247404,24.8235963 0.993213909,25.2504426 L0.848851423,30.8083983 C0.831527924,31.4883456 0.796880927,32.2188198 0.376786091,32.752961 C0.249403788,32.9320185 0.18956384,33.1504087 0.207881981,33.3693888 C0.317597471,34.7639305 0.54857745,36.1469231 0.778113804,37.5255848 C1.52778291,37.1874373 2.39405112,37.2287648 3.10812434,37.6367439 C3.83649173,35.346539 4.23935385,32.9653274 4.30488936,30.5629821 C4.33809273,29.3806533 4.28756586,28.1911064 4.46946259,27.0232139 C4.77406744,25.0569968 4.6499157,23.0402529 4.42615385,21.0624868 C4.35541623,20.4359536 4.20527924,19.7906533 3.80395153,19.3055954 C3.42403835,18.8811834 2.9180704,18.5897458 2.36032666,18.4740674 C1.82618546,18.3340358 1.34834563,18.4783983 0.785331928,18.4697366 Z" id="Path" fill="#000000" opacity="0.1"></path>
                <path d="M2.54944152,34.5878082 C1.58123751,39.549445 2.10985803,44.6869128 4.06813488,49.3474289 C4.23732046,49.6924315 4.35595231,50.0599957 4.42037935,50.4388093 C4.49977871,51.1461855 4.17351949,51.8261328 3.98729189,52.510411 C3.55420443,54.0666386 3.80395153,55.7239199 4.0811275,57.3162381 C4.19661749,57.9803056 4.31547594,58.6438918 4.43770285,59.3069968 C4.55752371,59.9537408 4.6730137,60.6567861 4.37273973,61.2428978 C4.63114858,62.3198419 4.78417281,63.3866807 5.04258166,64.4636249 C5.06997894,64.5488326 5.07835626,64.6390119 5.06712329,64.7278082 C5.01505422,64.8687364 4.92329976,64.9915771 4.80293994,65.0814963 C4.41108689,65.4787858 4.25797385,66.0533713 4.4001686,66.5929715 C5.05990516,66.1194626 5.9794942,66.2854795 6.73306639,66.5929715 C7.48663857,66.9004636 8.22866175,67.314784 9.04286617,67.314784 C8.92448894,66.3591043 8.81044257,65.355785 9.16268704,64.459294 C9.36768177,63.939589 9.72858799,63.4487566 9.71848261,62.892961 C9.70837724,62.3949104 9.40377239,61.950274 9.33014752,61.4579979 C9.30278456,61.1517167 9.31442669,60.8432004 9.36479452,60.5398525 C9.55824025,58.7728556 9.33880927,56.9885353 9.11937829,55.2244257 C9.09456834,54.8765484 9.01262863,54.5351329 8.87684932,54.2138883 C8.77435195,54.0060063 8.62132771,53.8067861 8.62421496,53.5743625 C8.62421496,53.3044046 8.84220232,53.0849737 8.92304531,52.8280084 C9.0674078,52.3544995 8.80178082,51.7106428 9.20166491,51.4175869 C10.2555111,50.643804 9.8512961,48.7959642 9.8281981,47.4894837 C9.80991219,46.3624939 9.76179136,45.2364665 9.68383562,44.1114015 C10.3473527,45.9770823 10.6186393,47.9596368 10.4807165,49.9349842 C10.4345205,50.5817281 10.3493467,51.2616754 10.601981,51.8593361 C10.7954268,52.3184089 11.179431,52.6966386 11.283372,53.1831401 C11.3483351,53.4834141 11.3021391,53.7937935 11.3165753,54.0998419 C11.3310116,54.4058904 11.4349526,54.7393678 11.6991359,54.8938356 C11.7193467,56.28549 11.8434984,57.7738672 11.8651528,59.1655216 C11.8511074,59.8769322 11.9091486,60.5879363 12.0383878,61.2876502 C12.103182,61.5102206 12.1390859,61.7401994 12.145216,61.9719283 C12.1126542,62.2624829 12.0357293,62.5463261 11.9171233,62.8135616 C11.406286,64.3260982 11.676511,65.9933861 12.6389357,67.2671444 C12.9796312,66.6622655 13.6898946,66.3417808 14.3828346,66.291254 C15.0757745,66.2407271 15.7600527,66.4154057 16.4313383,66.5915279 C16.3287035,65.7480507 16.4965271,64.8937678 16.9106217,64.1518019 C17.0216377,63.9845944 17.1068065,63.8016031 17.1632561,63.6089989 C17.2412118,63.2423182 17.0593151,62.8770811 16.9611486,62.5147313 C16.8009062,61.9372813 16.8572076,61.315079 16.8947418,60.7116438 C17.020715,58.6906568 16.931187,56.6620013 16.6276712,54.6599684 C16.5808043,54.2656211 16.488273,53.8780555 16.3519389,53.5050685 C16.2999684,53.372255 16.2364489,53.245216 16.1931401,53.1109589 C16.1250111,52.8701317 16.0862334,52.6219542 16.0776502,52.371823 L15.9116333,50.0620232 C15.7946997,48.4437197 16.3259536,46.845627 16.6969652,45.2663014 C16.8629821,44.5589252 17.0434352,43.8529926 17.1545943,43.1340674 C17.3061749,42.1552898 17.3307165,41.1548577 17.5530348,40.1890727 C17.752255,39.3228978 18.1117176,38.4783772 18.1867861,37.5905479 C18.3022761,36.2147734 17.7306006,34.8851949 17.1762487,33.6234668 C16.9452687,33.1037619 16.0718757,33.1557323 15.5103056,33.0633404 C11.5273446,32.4093783 7.33217071,32.4050474 3.5758588,33.8789884 C3.18739441,34.0399272 2.83753785,34.28153 2.54944152,34.5878082 Z" id="Path" fill="#3C354C"></path>
                <path d="M5.42081138,8.96491043 L5.86256059,10.682824 C5.98265259,11.0768153 6.04917516,11.4851765 6.0603372,11.8969125 C6.06489947,12.0470995 6.03163961,12.1960243 5.96361433,12.33 C5.89091405,12.4400184 5.79780566,12.5350869 5.68932561,12.6100632 C5.38760801,12.8395996 5.1782824,13.3751844 4.83325606,13.5339831 C5.01082192,13.8429189 5.25623815,13.642255 5.57672287,13.7967229 C6.14118019,14.0710116 6.65799789,14.4651212 7.27009484,14.6008219 C7.84754478,14.7278609 8.45386723,14.60804 9.0269863,14.4564594 C9.8397471,14.2355848 10.648177,13.93098 11.3021391,13.3982824 C11.9561012,12.8655848 12.3285564,12.3949631 12.3256858,11.5533298 C11.6038567,11.6385037 10.9614436,10.9094731 10.6424025,10.2540674 C10.5317846,10.0049314 10.4503991,9.74381979 10.3998736,9.47595364 L10.0129821,7.77391992 C9.59144362,7.86631191 9.24786091,8.1680295 8.84508957,8.32538462 C8.44231823,8.48273973 7.96592202,8.49717597 7.51839831,8.51738672 C6.72399805,8.55351904 5.9339993,8.65589051 5.15662803,8.82343519 C5.04979979,8.84508957 4.91554268,8.91293994 4.94152792,9.01688093" id="Path" fill="#FBB3B2"></path>
                <path d="M5.42081138,8.96491043 L5.86256059,10.682824 C5.98265259,11.0768153 6.04917516,11.4851765 6.0603372,11.8969125 C6.06489947,12.0470995 6.03163961,12.1960243 5.96361433,12.33 C5.89091405,12.4400184 5.79780566,12.5350869 5.68932561,12.6100632 C5.38760801,12.8395996 5.1782824,13.3751844 4.83325606,13.5339831 C5.01082192,13.8429189 5.25623815,13.642255 5.57672287,13.7967229 C6.14118019,14.0710116 6.65799789,14.4651212 7.27009484,14.6008219 C7.84754478,14.7278609 8.45386723,14.60804 9.0269863,14.4564594 C9.8397471,14.2355848 10.648177,13.93098 11.3021391,13.3982824 C11.9561012,12.8655848 12.3285564,12.3949631 12.3256858,11.5533298 C11.6038567,11.6385037 10.9614436,10.9094731 10.6424025,10.2540674 C10.5317846,10.0049314 10.4503991,9.74381979 10.3998736,9.47595364 L10.0129821,7.77391992 C9.59144362,7.86631191 9.24786091,8.1680295 8.84508957,8.32538462 C8.44231823,8.48273973 7.96592202,8.49717597 7.51839831,8.51738672 C6.72399805,8.55351904 5.9339993,8.65589051 5.15662803,8.82343519 C5.04979979,8.84508957 4.91554268,8.91293994 4.94152792,9.01688093" id="Path" fill="#000000" opacity="0.1"></path>
                <circle id="Oval" fill="#FBB3B2" cx="7.31773446" cy="6.08920969" r="3.82271865"></circle>
                <path d="M8.37013699,12.3906322 C8.57456817,11.9491177 8.86969865,11.5556104 9.23631191,11.2357323 C9.77478398,10.763667 10.5110327,10.3811064 10.6380717,9.67661749 L11.8045205,11.0350685 C11.867912,11.0980585 11.9171291,11.1738529 11.948883,11.2573867 C11.9786368,11.4158583 11.9386556,11.5794657 11.8391675,11.7063541 C11.5504426,12.1668704 11.0957007,12.4960169 10.6655005,12.8294942 C9.6794568,13.6105383 8.73544899,14.4432313 7.83743941,15.324078 C7.7978689,15.3700294 7.74483452,15.4023552 7.6858588,15.41647 C7.63006433,15.4179986 7.57514325,15.4023788 7.52850369,15.3717176 C6.75370194,14.9648988 6.06802421,14.4073255 5.51175975,13.7317597 C5.46989463,13.6812329 5.41792413,13.6234879 5.35007376,13.6278188 C5.30916329,13.6353313 5.27144718,13.6549437 5.2418019,13.6841201 C4.85346681,14.0017176 4.4290411,14.3813909 3.93099052,14.3323077 C4.57629083,13.8689041 4.94152792,13.0951212 5.07722866,12.3112329 C5.10406272,12.0429413 5.15922796,11.7782449 5.2418019,11.5215701 C5.32867852,11.2607888 5.53982602,11.0604694 5.8048156,10.9874289 C5.49010537,11.468156 5.70520548,12.1495469 6.12818757,12.537882 C6.53915266,12.8867103 7.0318697,13.1256185 7.56026344,13.2322655 C8.05109589,13.3246575 8.19545838,12.768862 8.37013699,12.3906322 Z" id="Path" fill="#323444"></path>
                <path d="M3.39684932,34.9804742 C3.94109589,35.1147313 4.45646997,35.342824 4.98483667,35.5117281 C5.94782235,35.8133046 6.96128227,35.9198038 7.96592202,35.8249947 C8.27514169,35.8182109 8.57585949,35.7224824 8.83209694,35.5492624 C8.89994731,35.4944046 8.96202318,35.4294415 9.03420443,35.3789146 C9.1549438,35.306453 9.28583446,35.2524423 9.42253952,35.2186723 C10.7463435,34.8043519 11.8550474,33.9107482 12.9305479,33.0359115 C12.9651949,33.007039 13.0041728,32.9709484 13.0012856,32.9247524 C12.9963201,32.8932976 12.9810936,32.8643672 12.9579768,32.8424658 L12.3920759,32.1928346 C10.9080295,32.4454689 9.38789252,32.3501897 7.88219178,32.3126554 C7.57306425,32.298928 7.26335246,32.3071291 6.95538462,32.337197 C6.65799789,32.371844 6.36494204,32.4469125 6.0718862,32.510432 C4.95885142,32.752961 3.82127503,32.845353 2.693804,33.0041517 C2.6149248,33.0099706 2.53840476,33.0336671 2.47004215,33.0734457 C2.42249976,33.1102157 2.38192005,33.1551956 2.35022129,33.2062592 L1.95466807,33.7620548 C1.80113355,33.9490086 1.68807138,34.165793 1.62263435,34.3986934 C1.53024236,34.8317808 1.72368809,34.9761433 2.09181243,34.9198419 C2.52668825,34.8561848 2.96974917,34.8767694 3.39684932,34.9804742 L3.39684932,34.9804742 Z" id="Path" fill="#323444"></path>
                <path d="M7.82155954,14.6628978 C7.37993885,14.2103698 6.87930023,13.8194734 6.3331823,13.5007798 C6.11254696,13.3606438 5.86778579,13.2627393 5.61136986,13.2120548 C5.35021752,13.1605019 5.07963594,13.2270904 4.87223393,13.3939515 C4.74375132,13.5079979 4.66290832,13.6667966 4.53875659,13.7866175 C4.38251529,13.9178803 4.2033943,14.0191865 4.01038988,14.0854478 C3.35323619,14.3662395 2.7303545,14.7212724 2.1538883,15.1436249 C1.83965472,15.3634405 1.55655111,15.6246922 1.31225501,15.920295 C0.65829294,16.7575975 0.560126449,17.8966175 0.577449947,18.9591254 C0.590442571,19.6982613 1.29926238,20.2468388 1.78720759,20.7997471 C2.24485588,21.3438362 2.65900922,21.9230717 3.02583772,22.5320969 C3.28857745,22.9478609 3.56286617,23.3982719 3.5296628,23.8934352 C3.50223393,24.2990938 3.26547945,24.6802107 3.3030137,25.0844257 C3.31600632,25.2287882 3.36220232,25.3616017 3.37519494,25.5016333 C3.40118019,25.7903583 3.28713383,26.0790832 3.25826133,26.3678082 C3.21928346,26.7763541 3.35209694,27.1820126 3.35931507,27.5934457 C3.35401599,27.8751072 3.31819732,28.1553641 3.25248683,28.4293045 C2.97531085,29.7487777 2.62739726,31.0754689 2.69813488,32.4223709 L1.8983667,32.5667334 C2.05201762,32.7173208 2.12476375,32.9320835 2.09425855,33.1450497 C2.06375336,33.3580159 1.93364425,33.5437218 1.74389884,33.6451212 C2.99263435,34.0623288 4.3424236,33.8515595 5.66622761,33.8501159 C6.76193888,33.8501159 7.85331928,33.9944784 8.94758693,33.9742677 C10.0418546,33.9540569 11.1707692,33.7562803 12.0730348,33.1369652 C12.318451,32.9695047 12.5436565,32.7731718 12.8020653,32.6273656 C13.1481935,32.4479973 13.521185,32.3261047 13.9064384,32.2664594 C14.6200543,32.13036 15.3454355,32.0655593 16.0718757,32.0730137 C16.4270074,32.0730137 16.8138988,32.0874499 17.0968493,31.8737935 C17.4086723,31.637039 17.4880717,31.2082824 17.5299368,30.8199473 C17.5718019,30.4099579 17.5977871,29.9985248 17.6050053,29.5870917 C17.6171073,29.2666994 17.6001961,28.9458693 17.5544784,28.6285248 C17.5111433,28.3964758 17.4547523,28.1670562 17.3855743,27.9413593 L16.8413277,26.0242255 C16.6161222,25.2331191 16.9293888,24.3655005 16.9957956,23.5455216 C17.0116754,23.3520759 17.0145627,23.1268704 16.8658693,23.0027187 C16.8124552,22.9579663 16.7388303,22.9276502 16.7215068,22.8583562 C16.705785,22.7918581 16.7183295,22.7218181 16.7561538,22.6649104 C17.0448788,22.0874605 17.4779663,21.5778609 17.8735195,21.0567123 C18.5378794,20.1425761 19.1546454,19.1947803 19.7213593,18.2171022 C19.5438879,16.1712601 18.6823955,14.2448533 17.2758588,12.7486512 C16.9871338,12.4353846 16.6565437,12.1351106 16.2523288,11.9936354 C15.9881786,11.9129609 15.7142429,11.868762 15.4381243,11.8622655 C14.3063224,11.7857534 13.1283246,11.7179031 12.1423288,11.1491149 C12.0715674,11.1000993 11.9914648,11.0661908 11.9070179,11.0495047 C11.6890306,11.0249631 11.5302318,11.2400632 11.3887566,11.410411 C11.0249631,11.8434984 10.4893783,12.0918019 10.0187566,12.410843 C9.14103267,13.0070601 8.45531085,13.827039 7.82155954,14.6628978 Z" id="Path" fill="#5B5583"></path>
                <path d="M19.8195258,18.8075448 C20.0447313,19.5206955 20.0230769,20.2829294 20.0967018,21.0263962 C20.1403061,21.4750528 20.2189836,21.919605 20.3320126,22.3559747 C20.3836183,22.5958196 20.4764226,22.8248997 20.6063014,23.0330348 C20.7362276,23.2235933 20.9224552,23.3780611 21.0047418,23.5931612 C21.0497216,23.738888 21.0697333,23.8911721 21.0639305,24.0435722 L21.081254,25.0396733 C21.1183128,25.5675281 21.0379498,26.0970367 20.8459431,26.5901264 L20.2237408,28.4827187 C19.8873762,29.5076923 19.5423498,30.5485458 18.9360274,31.440706 C18.8506047,31.5917001 18.7211818,31.7130655 18.5650158,31.7886196 C18.4427549,31.8209368 18.3174311,31.8402919 18.191117,31.8463646 C17.7371186,31.9273409 17.4045582,32.3192654 17.3985669,32.7803899 C17.2541031,32.5692936 17.073819,32.385101 16.8658693,32.2361433 L15.5998103,31.2256059 C15.1667229,30.8733614 14.7148683,30.5153425 14.1893888,30.3117914 C15.633343,29.8608479 16.675765,28.6011132 16.8485458,27.0982824 C16.8480847,26.8792918 16.8974513,26.6630662 16.9929083,26.4659747 C17.0982929,26.295627 17.2931823,26.1657007 17.3076185,25.9650369 C17.324942,25.7124025 17.0391043,25.521844 17.0391043,25.2692097 C17.0391043,25.1017492 17.1632561,24.9631612 17.2181138,24.8058061 C17.2693867,24.6113526 17.2693867,24.4069298 17.2181138,24.2124763 L17.0434352,23.2423604 C17.0331374,23.1451576 17.0036991,23.0509549 16.9568177,22.9651844 C16.8914571,22.8829573 16.8189971,22.8066328 16.740274,22.7370917 C16.44,22.4007271 16.5728135,21.8709168 16.740274,21.4565964 C17.1248246,20.5369268 17.6202896,19.6676814 18.2156586,18.868177 C18.4275802,18.599702 18.623761,18.3191682 18.8032139,18.0279874 C18.9562381,17.7623604 18.9908851,17.394236 19.1525711,17.1618124 C19.3604531,17.7075026 19.64196,18.2459747 19.8195258,18.8075448 Z" id="Path" fill="#5B5583"></path>
                <path d="M14.1446365,30.37098 C14.0802002,30.4188035 14.0245217,30.4774125 13.9800632,30.544215 C13.8099747,30.7577469 13.5834075,30.9192948 13.3261012,31.0105058 C13.4704636,31.1144468 13.6018335,31.2169442 13.7375342,31.3223288 C14.7415743,32.0977421 15.6609633,32.9769684 16.4804215,33.9453952 C16.5713699,33.6205796 17.1156164,33.6436776 17.2484299,33.3332982 C17.2797073,33.2444601 17.289599,33.1494993 17.2773024,33.0561222 C17.2497187,32.5698245 17.180166,32.0868197 17.0694204,31.6124974 C17.0257085,31.3682958 16.9269717,31.1372516 16.7806955,30.9368809 C16.578588,30.6929083 16.2638778,30.5759747 15.9636038,30.474921 C15.508862,30.3161222 14.6065964,30.0923604 14.1446365,30.37098 Z" id="Path" fill="#323444"></path>
                <path d="M12.3401054,31.5056691 C11.9070179,31.8261538 11.5273446,32.2274816 11.040843,32.4469125 C10.6972603,32.602824 10.3060379,32.6706744 10.005764,32.903098 C10.1688936,33.2625606 10.5933193,33.4487882 10.9874289,33.4343519 C11.3818983,33.3956029 11.7599904,33.2569857 12.0860274,33.0315806 C12.3444362,32.8727819 12.6475975,32.6879979 12.9291043,32.799157 C12.9724131,33.018588 12.7847418,33.2250263 12.7847418,33.4473446 C12.7847418,33.6696628 12.9695258,33.8313488 13.1514226,33.9482824 C14.0175975,34.5069652 15.1320759,34.4607692 16.1642677,34.3958061 C16.2234809,34.3980067 16.2817874,34.3807682 16.3302845,34.3467229 C16.375482,34.293979 16.397819,34.2254098 16.3923604,34.1561644 C16.405353,33.9280717 16.4111275,33.7014226 16.4125711,33.4733298 C16.4721446,33.0978563 16.3089093,32.7218522 15.9939199,32.5089884 C15.4337893,32.0274931 14.8296191,31.5997406 14.1893888,31.2313804 C13.5541939,30.8632561 12.9103372,31.0812434 12.3401054,31.5056691 Z" id="Path" fill="#FBB3B2"></path>
                <path d="M8.66030558,4.49111697 C8.01933614,4.56762908 7.55304531,5.06856691 7.61800843,5.61281349 C7.68297155,6.15706006 8.254647,6.53240253 8.89561644,6.45444679 C9.53658588,6.37649104 10.0028767,5.87699684 9.93791359,5.33419389 C9.87295047,4.79139094 9.30127503,4.41460485 8.66030558,4.49111697 Z M8.87829294,6.3043098 C8.33548999,6.36927292 7.85187566,6.05023182 7.79557429,5.59115911 C7.73927292,5.13208641 8.13626976,4.7076607 8.67762908,4.64269758 C9.21898841,4.57773446 9.70404636,4.89677555 9.76034773,5.35584826 C9.8166491,5.81492097 9.41965227,6.23934668 8.87829294,6.3043098 L8.87829294,6.3043098 Z" id="Shape" fill="#3C354C"></path>
                <path d="M5.53630137,4.86645943 C4.89533193,4.94297155 4.4290411,5.44390938 4.49400421,5.98671233 C4.55896733,6.52951528 5.13064278,6.90630137 5.77161222,6.82978925 C6.41258166,6.75327713 6.8788725,6.2523393 6.81390938,5.70809273 C6.74894626,5.16384615 6.17727081,4.78994731 5.53630137,4.86645943 Z M5.75428872,6.67820864 C5.21148577,6.74317176 4.72787144,6.42413066 4.6730137,5.96650158 C4.61815595,5.5088725 5.01226554,5.08300316 5.55506849,5.01659642 C6.09787144,4.95018967 6.58148577,5.27067439 6.63634352,5.7297471 C6.69120126,6.18881981 6.29564805,6.61324552 5.75428872,6.67820864 Z" id="Shape" fill="#3C354C"></path>
                <polygon id="Path" fill="#3C354C" points="3.21639621 5.14507903 4.6094942 5.44246575 4.47234984 5.80914647 3.15865121 5.42369863"></polygon>
                <polygon id="Path" fill="#3C354C" points="10.9816544 4.21249737 9.69682824 4.83181243 9.91770285 5.1551844 11.1029189 4.46946259"></polygon>
                <polygon id="Path" fill="#3C354C" points="6.68542677 5.35007376 7.6627608 5.23314015 7.61223393 5.47566913 6.77348788 5.5319705"></polygon>
                <path d="M4.78994731,5.02237092 C4.88190892,4.82457887 4.93110122,4.60960852 4.9343098,4.39150685 C4.93773327,4.26096507 4.96010244,4.13161295 5.00071654,4.00750263 C5.07167953,3.84987627 5.17963993,3.71170677 5.31542677,3.6047313 C5.76583772,3.22361433 6.41113804,3.02728135 7.04777661,2.99985248 C7.74195698,2.96791583 8.43250054,3.11716876 9.05152792,3.43293994 C9.2406182,3.52153377 9.40998529,3.64720906 9.5495785,3.8025079 C9.75168599,4.04936776 9.79499473,4.36840885 9.99854584,4.61238145 C10.281093,4.9134742 10.7005215,5.04488783 11.1043625,4.95885142 C11.1751001,4.7076607 11.0827081,4.44203372 11.1187987,4.18506849 C11.1756819,3.96488318 11.2525117,3.75033956 11.3483351,3.54409905 C11.5720969,2.88436249 11.2458377,2.11924131 10.5731085,1.72513172 C10.3377977,1.58076923 10.0591781,1.48693361 9.88305585,1.29204426 C9.70693361,1.0971549 9.66506849,0.895047418 9.543804,0.700158061 C9.22187566,0.184783983 8.38890411,-0.0563013699 7.75515279,0.181896733 C7.55593256,0.256965227 7.37981033,0.371011591 7.17770285,0.451854584 C6.80236038,0.606322445 6.37504742,0.633751317 5.96217071,0.685721812 C5.55520992,0.723346273 5.15722084,0.82772086 4.78417281,0.994657534 C4.42759747,1.17077977 4.12876712,1.45373024 4.04648051,1.79153846 C4.00750263,1.94744995 4.01616438,2.10913593 3.97718651,2.26360379 C3.77796628,3.0474921 2.49169652,3.42860906 2.41951528,4.22837724 C2.39353003,4.51710221 2.55088514,4.79427819 2.74721812,5.02958904 C2.88291886,5.1898314 3.20773446,5.61858799 3.43727081,5.68066386 C3.66680717,5.74273973 3.84148577,5.52475237 4.06091675,5.44968388 C4.40738672,5.34141201 4.61671233,5.31831401 4.78994731,5.02237092 Z" id="Path" fill="#CBCEDA"></path>
            </g>
            <path d="M113.611834,88.2054795 C113.611834,95.4582508 118.162139,101.32803 123.785058,101.32803" id="Path" fill="#46455B"></path>
            <path d="M123.785058,101.329473 C123.785058,93.9944152 128.86373,88.0596733 135.139168,88.0596733" id="Path" fill="#AB6ACB"></path>
            <path d="M117.298851,88.8637724 C117.298851,95.7541939 120.200537,101.329473 123.785058,101.329473" id="Path" fill="#AB6ACB"></path>
            <path d="M123.785058,101.329473 C123.785058,91.9574605 129.654837,84.3726554 136.907608,84.3726554" id="Path" fill="#46455B"></path>
            <ellipse id="Oval" fill="#AB6ACB" opacity="0.1" cx="123.344752" cy="103.408293" rx="2.52923077" ry="1"></ellipse>
            <path d="M121.645606,101.421865 C121.645606,101.421865 123.089231,101.377113 123.522318,101.068177 C123.955406,100.759241 125.74117,100.38823 125.849442,100.884837 C125.957713,101.381444 128.014879,103.354879 126.387914,103.367871 C124.760948,103.380864 122.602729,103.113793 122.169642,102.84961 C121.736554,102.585427 121.645606,101.421865 121.645606,101.421865 Z" id="Path" fill="#A8A8A8"></path>
            <path d="M126.41823,103.194636 C124.789821,103.207629 122.634489,102.940558 122.199958,102.676375 C121.869368,102.475711 121.737998,101.752455 121.693246,101.420421 L121.645606,101.420421 C121.645606,101.420421 121.736554,102.583983 122.171085,102.848166 C122.605616,103.11235 124.760948,103.37942 126.389357,103.366428 C126.859979,103.366428 127.021665,103.194636 127.013003,102.947777 C126.94804,103.097914 126.776249,103.191749 126.41823,103.194636 Z" id="Path" fill="#000000" opacity="0.2"></path>
            <path d="M3.24671233,92.4439621 C3.24671233,98.2184615 6.86587987,102.884257 11.3396733,102.884257" id="Path" fill="#46455B"></path>
            <path d="M11.3396733,102.884257 C11.3396733,97.0491254 15.381823,92.3270285 20.3724341,92.3270285" id="Path" fill="#AB6ACB"></path>
            <path d="M6.17871444,92.9694415 C6.17871444,98.455216 8.48851423,102.887144 11.3396733,102.887144" id="Path" fill="#AB6ACB"></path>
            <path d="M11.3396733,102.884257 C11.3396733,95.4279347 16.0097998,89.3935827 21.7799684,89.3935827" id="Path" fill="#46455B"></path>
            <ellipse id="Oval" fill="#AB6ACB" opacity="0.1" cx="10.9888725" cy="104.538651" rx="2.01241307" ry="1"></ellipse>
            <path d="M9.63763962,102.957882 C9.63763962,102.957882 10.7853214,102.921791 11.1303477,102.669157 C11.4753741,102.416523 12.8973446,102.127798 12.9825184,102.524795 C13.0676923,102.921791 14.7076502,104.489568 13.4156059,104.499673 C12.1235616,104.509779 10.4042044,104.297566 10.0591781,104.08824 C9.71415174,103.878915 9.63763962,102.957882 9.63763962,102.957882 Z" id="Path" fill="#A8A8A8"></path>
            <path d="M13.434373,104.374078 C12.1351106,104.384183 10.4229715,104.17197 10.0779452,103.961201 C9.81520548,103.802403 9.71126449,103.226396 9.67517387,102.962213 L9.63763962,102.962213 C9.63763962,102.962213 9.70982086,103.887576 10.0548472,104.098346 C10.3998736,104.309115 12.1163435,104.519884 13.411275,104.509779 C13.7851739,104.509779 13.9151001,104.374078 13.907882,104.176301 C13.8559115,104.291791 13.7129926,104.365416 13.434373,104.374078 Z" id="Path" fill="#000000" opacity="0.2"></path>
        </g>
    </g>
</svg>