<?xml version="1.0" encoding="UTF-8"?>
<svg width="137px" height="137px" viewBox="0 0 137 137" version="1.1" xmlns="http://www.w3.org/2000/svg" xmlns:xlink="http://www.w3.org/1999/xlink">
    <title>visualize_process_illustration</title>
    <g id="visualize_process_illustration" stroke="none" stroke-width="1" fill="none" fill-rule="evenodd">
        <g id="undraw_buy_house_560d-(5)" transform="translate(-765.000000, 87.000000)"></g>
        <g id="undraw_Preparation_re_t0ce" transform="translate(0.000000, 38.000000)" fill-rule="nonzero">
            <path d="M122.827764,39.5406532 L27.8745115,39.5406532 C27.1827946,39.5398744 26.6214627,38.9793213 26.6214627,38.2876044 L26.6214627,1.25305157 C26.6214627,0.561334673 27.1827946,0.000781570786 27.8745115,2.78455284e-06 L122.827764,2.78455284e-06 C123.51948,0.00078233641 124.080812,0.561334991 124.080812,1.25305157 L124.080812,38.2876044 C124.080812,38.979321 123.51948,39.5398736 122.827764,39.5406532 Z M27.8745115,0.278458069 C27.3365182,0.279084887 26.899918,0.71505829 26.899918,1.25305157 L26.899918,38.2876044 C26.899918,38.8255974 27.3365185,39.2615703 27.8745115,39.2621979 L122.827764,39.2621979 C123.365756,39.2615703 123.802357,38.8255974 123.802357,38.2876044 L123.802357,1.25305157 C123.802357,0.715058608 123.365756,0.279085653 122.827764,0.278458069 L27.8745115,0.278458069 Z" id="Shape" fill="#3F3D56"></path>
            <path d="M72.2095298,23.9784431 L65.2749156,23.9784431 C64.8412048,20.1208503 65.798115,17.2455335 65.2749156,15.6569197 L72.2095298,15.6569197 C71.9430625,18.4243612 71.9430601,21.2110011 72.2095298,23.9784431 L72.2095298,23.9784431 Z" id="Path" fill="#FF6584"></path>
            <path d="M7.0509932,59.2030366 L0.116378994,59.2030366 C-0.317331819,55.3454438 0.639578374,52.470127 0.116378994,50.8815132 L7.0509932,50.8815132 C6.78452588,53.6489547 6.78452355,56.4355946 7.0509932,59.2030366 L7.0509932,59.2030366 Z" id="Path" fill="#FF6584"></path>
            <path d="M114.395505,31.6359634 L107.460891,31.6359634 C107.02718,27.7783706 107.984091,24.9030539 107.460891,23.31444 L114.395505,23.31444 C114.129038,26.0818815 114.129036,28.8685215 114.395505,31.6359634 L114.395505,31.6359634 Z" id="Path" fill="#AB6ACB"></path>
            <path d="M36.5357099,27.5376753 L29.6011013,27.5376753 C29.8611201,24.3379762 30.6994807,21.3501399 29.6011013,19.2161477 L36.5357099,19.2161477 C37.8413357,21.9899883 37.8413357,24.7638309 36.5357099,27.5376753 Z" id="Path" fill="#E6E6E6"></path>
            <path d="M42.1048156,38.2582037 L35.170207,38.2582037 C35.4302258,35.0585047 36.2685864,32.0706683 35.170207,29.9366761 L42.1048156,29.9366761 C43.4104414,32.7105168 43.4104414,35.4843593 42.1048156,38.2582037 Z" id="Path" fill="#E6E6E6"></path>
            <path d="M103.364978,18.6271061 L96.4303696,18.6271061 C96.6903884,15.4274071 97.528749,12.4395708 96.4303696,10.3055786 L103.364978,10.3055786 C104.670604,13.0794192 104.670604,15.8532618 103.364978,18.6271061 Z" id="Path" fill="#AB6ACB"></path>
            <path d="M82.8985148,29.4868622 L75.9639062,29.4868622 C76.2239249,26.2871632 77.0622856,23.2993269 75.9639062,21.1653347 L82.8985148,21.1653347 C84.2041406,23.9391753 84.2041406,26.7130179 82.8985148,29.4868622 Z" id="Path" fill="#E6E6E6"></path>
            <path d="M43.6244143,20.4489667 L50.5590202,20.4489667 C50.9927143,17.2486898 50.0358208,14.260951 50.5590202,12.1274391 L43.6244143,12.1274391 C42.3187988,14.9012798 42.3187988,17.6751223 43.6244143,20.4489667 Z" id="Path" fill="#3F3D56"></path>
            <path d="M48.3409749,5.15142555 L35.3928042,5.15142555 C35.2390175,5.15142555 35.1143489,5.02675687 35.1143489,4.87297026 C35.1143489,4.71918366 35.2390175,4.59451498 35.3928042,4.59451498 L48.3409749,4.59451498 C48.4947615,4.59451498 48.6194302,4.71918366 48.6194302,4.87297026 C48.6194302,5.02675687 48.4947615,5.15142555 48.3409749,5.15142555 Z" id="Path" fill="#3F3D56"></path>
            <path d="M81.8948367,5.15142555 L68.9466659,5.15142555 C68.7928793,5.15142555 68.6682107,5.02675687 68.6682107,4.87297026 C68.6682107,4.71918366 68.7928793,4.59451498 68.9466659,4.59451498 L81.8948367,4.59451498 C82.0486233,4.59451498 82.173292,4.71918366 82.173292,4.87297026 C82.173292,5.02675687 82.0486233,5.15142555 81.8948367,5.15142555 Z" id="Path" fill="#3F3D56"></path>
            <path d="M115.448698,5.15142555 L102.500528,5.15142555 C102.346741,5.15142555 102.222072,5.02675687 102.222072,4.87297026 C102.222072,4.71918366 102.346741,4.59451498 102.500528,4.59451498 L115.448698,4.59451498 C115.602485,4.59451498 115.727154,4.71918366 115.727154,4.87297026 C115.727154,5.02675687 115.602485,5.15142555 115.448698,5.15142555 Z" id="Path" fill="#3F3D56"></path>
            <rect id="Rectangle" fill="#3F3D56" x="58.5045928" y="0.139227642" width="1" height="39.2621951"></rect>
            <rect id="Rectangle" fill="#3F3D56" x="92.0584546" y="0.139227642" width="1" height="39.2621951"></rect>
            <circle id="Oval" fill="#AB6ACB" cx="22.0842134" cy="28.9805735" r="7.45134646"></circle>
            <path d="M20.9101374,75.6699479 L18.8552376,75.6699479 C18.3556706,75.6693702 17.9508357,75.2645352 17.9502579,74.7649682 L17.9502579,57.6380678 C17.9508357,57.1385008 18.3556706,56.7336658 18.8552376,56.7330881 L20.9101374,56.7330881 C21.4097043,56.7336658 21.8145393,57.1385008 21.815117,57.6380678 L21.815117,74.7649682 C21.8145401,75.2645355 21.4097047,75.6693709 20.9101374,75.6699479 Z" id="Path" fill="#AB6ACB"></path>
            <path d="M24.9745236,75.6699479 L22.919557,75.6699479 C22.4199897,75.6693709 22.0151543,75.2645355 22.0145773,74.7649682 L22.0145773,57.6380678 C22.0151551,57.1385008 22.41999,56.7336658 22.919557,56.7330881 L24.9745236,56.7330881 C25.4740906,56.7336658 25.8789255,57.1385008 25.8795033,57.6380678 L25.8795033,74.7649682 C25.8789263,75.2645355 25.4740909,75.6693709 24.9745236,75.6699479 Z" id="Path" fill="#AB6ACB"></path>
            <path d="M5.73656731,54.2881741 C5.64183339,54.2881741 5.54769744,54.2731648 5.45756903,54.2439861 C5.22880268,54.1708254 5.03883082,54.0091533 4.93002714,53.7950312 L3.99377555,51.9657652 C3.88442137,51.7521132 3.86442892,51.5037684 3.93819717,51.2753745 C4.01196541,51.0469807 4.17345033,50.8572507 4.38712009,50.7479312 L19.6330231,42.9445212 C19.8466941,42.8351543 20.0950615,42.8151545 20.3234795,42.8889223 C20.5518974,42.9626901 20.741652,43.1241817 20.8509935,43.3378658 L21.7872451,45.1671332 C22.0149188,45.6120138 21.8388823,46.1572274 21.3940356,46.3849671 L6.14799891,54.1883758 C6.0207116,54.2538033 5.87968543,54.2880111 5.73656731,54.2881741 Z" id="Path" fill="#AB6ACB"></path>
            <path d="M26.6711572,46.3447214 C26.4558237,46.3450141 26.2475572,46.2679036 26.084335,46.1274503 L24.5226464,44.7920066 C24.1433645,44.4668576 24.0987845,43.8960788 24.4229844,43.5159853 L35.5540576,30.4992881 C35.8791539,30.1199733 36.4499653,30.0754474 36.8299481,30.3997626 L36.8300163,30.3997626 L38.3917717,31.7353413 C38.5741951,31.8913137 38.6871764,32.1133734 38.7058547,32.3526574 C38.724533,32.5919413 38.6473779,32.8288429 38.4913668,33.0112332 L27.3603605,46.0279234 C27.2047526,46.2108248 26.9824706,46.3239118 26.743014,46.3420015 C26.7189485,46.3439047 26.6949512,46.3447214 26.6711572,46.3447214 Z" id="Path" fill="#AB6ACB"></path>
            <path d="M22.3512381,21.5282162 C22.1087621,19.1113803 20.5203946,16.8001847 18.0955141,16.1711932 C16.9122716,15.8570151 15.6560761,15.9709583 14.5486746,16.4929093 C13.5462016,16.9985954 12.7580883,17.8467232 12.3272001,18.8835482 C11.9020447,19.9092374 11.7392573,21.0247252 11.8535588,22.1291394 C11.9830167,23.3361326 12.3683027,24.5016587 12.9837281,25.5480064 C13.6414562,26.707575 14.4967316,27.7442417 15.3944617,28.7244851 C16.309126,29.7232234 17.3439772,30.6420897 18.1136388,31.7633525 C18.7962343,32.7577776 19.345149,34.1083303 18.6724317,35.2528776 C18.134018,36.1100079 17.1437131,36.5726021 16.140843,36.435441 C15.8999584,36.3988813 15.6670584,36.3215686 15.4521298,36.2068181 C15.2150808,36.0802601 15.0038488,36.4406954 15.2413168,36.5674747 C16.1421475,37.0484116 17.2621838,36.9394297 18.1132044,36.3986014 C19.0941146,35.7752277 19.531973,34.6750522 19.3481313,33.537781 C19.1385213,32.2411024 18.2343519,31.1277839 17.3662063,30.1944491 C16.4593512,29.2194964 15.5095681,28.2885494 14.6696036,27.252796 C13.8399001,26.2296956 13.0991158,25.1004675 12.65502,23.8532037 C12.2820145,22.8109086 12.157582,21.6959048 12.2916358,20.5970227 C12.423955,19.5476264 12.831995,18.5078089 13.5640929,17.7313851 C14.3818112,16.8887767 15.5065343,16.4141845 16.6806926,16.4162937 C17.8868067,16.400883 19.0562365,16.8308367 19.9651242,17.6238513 C20.8613298,18.4254478 21.4937135,19.4797059 21.7789819,20.6477657 C21.8518692,20.9370943 21.9035301,21.2313595 21.9335524,21.5282134 C21.9601324,21.7931441 22.378091,21.7958883 22.3512353,21.5282134 L22.3512381,21.5282162 Z" id="Path" fill="#2F2E41"></path>
            <path d="M20.7813114,21.4713765 C20.4054371,21.4709311 20.0854353,21.1977903 20.0259723,20.826649 C19.9665093,20.4555077 20.1851609,20.0960657 20.5420821,19.9782143 L22.5251919,19.32341 C22.9267414,19.1908179 23.3597488,19.408851 23.4923409,19.8104005 C23.624933,20.21195 23.4069,20.6449574 23.0053505,20.7775495 L21.0222448,21.4323552 C20.9445338,21.4581489 20.8631914,21.471323 20.7813114,21.4713765 Z" id="Path" fill="#2F2E41"></path>
            <path d="M34.1699385,59.7982813 L10.9911884,59.7982813 C10.667367,59.7994675 10.3676938,59.6271895 10.205777,59.346753 C10.0438601,59.0663165 10.0444871,58.7206529 10.2074203,58.4408056 L21.7968295,38.3674153 C21.8368651,38.2979076 21.8857944,38.2339179 21.9423795,38.1770646 L21.9446238,38.1748899 L21.9455747,38.1739376 C22.0725336,38.0478796 22.234571,37.963058 22.4105059,37.9305607 C22.4222011,37.928386 22.4339602,37.9263463 22.445789,37.9247131 C22.4904247,37.9181522 22.5354823,37.9149078 22.5805976,37.9149078 L22.5805976,37.9149078 C22.904424,37.9129793 23.2040785,38.0859931 23.364296,38.3674139 L34.9537066,58.4408056 C35.1153686,58.7208124 35.1153655,59.0657956 34.9536985,59.3457995 C34.7920314,59.6258033 34.4932625,59.7982813 34.1699385,59.7982813 L34.1699385,59.7982813 Z" id="Path" fill="#2F2E41"></path>
            <path d="M27.6290698,30.2046977 L27.6213204,29.9262424 C28.1393447,29.911831 28.5960532,29.8793352 28.9392242,29.6286169 C29.1360892,29.476611 29.2571027,29.2464936 29.2707726,28.9981496 C29.2829949,28.8461443 29.2236463,28.6971317 29.1102668,28.595151 C28.8825266,28.4026242 28.5159666,28.4648965 28.2487261,28.5875366 L28.018335,28.6931811 L28.4601517,25.4644323 L28.7360229,25.5022298 L28.3602168,28.2487136 C28.72331,28.1419803 29.0596186,28.1878015 29.2900111,28.3825016 C29.4693357,28.5390559 29.5651599,28.7704429 29.5490246,29.0079428 C29.5325704,29.3417397 29.3694958,29.6512177 29.1034683,29.8535057 C28.6625358,30.1757383 28.0895138,30.1917815 27.6290698,30.2046977 Z" id="Path" fill="#2F2E41"></path>
            <rect id="Rectangle" fill="#2F2E41" x="25.3666207" y="25.7390811" width="1.49968776" height="1"></rect>
            <path d="M128.861281,47.578375 L114.483376,38.2720109 C114.281849,38.1416362 114.140383,37.9365299 114.09011,37.7018314 C114.039838,37.467133 114.084879,37.2220766 114.215323,37.0205939 L115.331928,35.2954771 C115.603831,34.8764092 116.163618,34.7564723 116.583345,35.0273553 L130.961318,44.3337165 C131.380361,44.6057058 131.500259,45.1655139 131.229372,45.58527 L130.112766,47.3103868 C129.840896,47.7295649 129.280962,47.8494665 128.861281,47.5783736 L128.861281,47.578375 Z" id="Path" fill="#AB6ACB"></path>
            <path d="M128.903464,47.4631794 L122.893092,44.1071082 C122.503718,43.8896892 122.353788,43.4047589 122.552503,43.0055155 L123.944887,40.2080479 C124.056259,39.9842873 124.261975,39.8221527 124.505565,39.7661493 C124.749155,39.710146 125.005024,39.7661587 125.202937,39.9188122 L130.928759,44.3352313 C131.315278,44.5862879 131.426052,45.1026096 131.176535,45.4901246 L130.059709,47.2155728 C129.808548,47.6028757 129.291206,47.7136629 128.903464,47.4631794 Z" id="Path" fill="#CCCCCC"></path>
            <circle id="Oval" fill="#AB6ACB" cx="129.4882" cy="29.2290001" r="7.45134646"></circle>
            <path d="M129.757288,74.7349716 L129.757288,57.607932 C129.757865,57.108365 130.1627,56.70353 130.662267,56.7029523 L132.717235,56.7029523 C133.216802,56.70353 133.621637,57.108365 133.622215,57.607932 L133.622215,74.7349716 C133.621637,75.2345386 133.216802,75.6393736 132.717235,75.6399513 L130.662267,75.6399513 C130.1627,75.6393736 129.757865,75.2345386 129.757288,74.7349716 L129.757288,74.7349716 Z" id="Path" fill="#2F2E41"></path>
            <path d="M125.692901,74.7349716 L125.692901,57.607932 C125.693478,57.1083647 126.098314,56.7035292 126.597881,56.7029523 L128.652848,56.7029523 C129.152415,56.7035292 129.55725,57.1083647 129.557827,57.607932 L129.557827,74.7349716 C129.55725,75.2345386 129.152415,75.6393736 128.652848,75.6399513 L126.597881,75.6399513 C126.098314,75.6393736 125.693479,75.2345386 125.692901,74.7349716 L125.692901,74.7349716 Z" id="Path" fill="#2F2E41"></path>
            <path d="M123.999395,58.6468361 L123.999395,38.810297 C123.999972,38.31073 124.404807,37.9058951 124.904374,37.9053173 L130.151245,37.9053173 C132.908649,37.9084455 135.143187,40.1429832 135.146315,42.9003874 L135.146315,58.6468361 C135.145738,59.1464034 134.740902,59.5512388 134.241335,59.5518158 L124.904381,59.5518158 C124.404812,59.5512419 123.999972,59.1464058 123.999395,58.6468361 L123.999395,58.6468361 Z" id="Path" fill="#CCCCCC"></path>
            <path d="M122.984148,31.2992121 L122.991898,31.0207568 C122.473873,31.0063454 122.017165,30.9738497 121.673994,30.7231313 C121.477129,30.571126 121.356115,30.3410091 121.342444,30.0926654 C121.330222,29.9406601 121.38957,29.7916475 121.50295,29.6896668 C121.73069,29.49714 122.09725,29.5594124 122.36449,29.6820524 L122.594882,29.787697 L122.153065,26.5589481 L121.877194,26.5967456 L122.253,29.343228 C121.889907,29.2364961 121.553598,29.282316 121.323206,29.4770175 C121.143883,29.6335711 121.048059,29.8649562 121.064193,30.1024545 C121.080648,30.4362513 121.243722,30.7457293 121.50975,30.9480174 C121.950682,31.2702528 122.523704,31.2862932 122.984148,31.2992121 Z" id="Path" fill="#2F2E41"></path>
            <rect id="Rectangle" fill="#2F2E41" x="123.74691" y="26.8335927" width="1.49968776" height="1"></rect>
            <path d="M120.443788,58.2171879 L118.628594,57.2538802 C118.187602,57.0191437 118.019775,56.4717818 118.253399,56.0302001 L126.2819,40.9015658 C126.516701,40.4606488 127.064011,40.2928683 127.50558,40.5264406 L129.320706,41.4897483 C129.761697,41.7244136 129.92956,42.2717329 129.695968,42.7132933 L121.667401,57.8419263 C121.555177,58.0542238 121.363065,58.2131197 121.133484,58.2835283 C120.903904,58.3539368 120.65574,58.3300664 120.443789,58.2171879 L120.443788,58.2171879 Z" id="Path" fill="#AB6ACB"></path>
            <path d="M130.273652,42.6812417 L126.753614,48.9592486 C126.570671,49.3659621 126.100518,49.5572543 125.685589,49.3937976 L122.778221,48.2484707 C122.54567,48.1568595 122.366359,47.9659311 122.289506,47.7280946 C122.212654,47.4902581 122.246337,47.2305049 122.381309,47.0201362 L126.286188,40.6554837 C126.502888,40.2487048 127.007702,40.0937071 127.415338,40.3087902 L129.927005,41.5507244 C130.334579,41.7674595 130.489681,42.2732929 130.273652,42.6812417 L130.273652,42.6812417 Z" id="Path" fill="#CCCCCC"></path>
            <path d="M127.407069,24.3363667 C126.129475,24.5360526 124.5832,24.7404972 123.622547,23.6650848 C123.235161,23.2615391 123.101434,22.6774807 123.274638,22.1455808 C123.4599,21.61734 123.93759,21.2148593 124.438687,20.9962719 C125.188035,20.6693947 126.041405,20.6894964 126.841925,20.6985448 C126.95445,20.6946462 127.043656,20.6022963 127.043656,20.4897033 C127.043656,20.3771103 126.95445,20.2847604 126.841925,20.2808618 C126.024798,20.2716255 125.169773,20.2638315 124.396178,20.5652051 C123.787316,20.8024044 123.223437,21.2421104 122.947771,21.8473524 C122.343469,23.1741375 123.459494,24.4698443 124.720598,24.792826 C125.640717,25.0284785 126.596134,24.8832306 127.518099,24.73913 C127.782886,24.6977446 127.670452,24.2951999 127.407062,24.3363667 L127.407069,24.3363667 Z" id="Path" fill="#2F2E41"></path>
            <path d="M109.896772,44.5353488 L116.831378,44.5353488 C117.265072,41.335072 116.308179,38.3473331 116.831378,36.2138212 L109.896772,36.2138212 C108.591157,38.9876619 108.591157,41.7615044 109.896772,44.5353488 Z" id="Path" fill="#3F3D56"></path>
        </g>
    </g>
</svg>