<?xml version="1.0" standalone="no"?>
<!DOCTYPE svg PUBLIC "-//W3C//DTD SVG 1.1//EN" "http://www.w3.org/Graphics/SVG/1.1/DTD/svg11.dtd" >
<svg xmlns="http://www.w3.org/2000/svg">
<metadata>
This is a custom SVG font generated by IcoMoon.
<iconset grid="16"></iconset>
</metadata>
<defs>
<font id="icon-utility" horiz-adv-x="512" >
<font-face units-per-em="512" ascent="480" descent="-32" />
<missing-glyph horiz-adv-x="512" />
<glyph class="hidden" unicode="&#xf000;" d="M0,480L 512 -32L0 -32 z" horiz-adv-x="0" />
<glyph unicode="&#xe000;" d="M 471.16,439.16c-53.928,54.52-141.64,54.52-196.168,0L 40.304,204.472
					c-53.936-53.928-53.936-141.64,0-196.168c 54.52-53.928, 142.232-53.928, 196.168,0l 144.016,144.016c 33.184,33.184, 33.184,87.128,0,120.904
					c-33.184,33.184-87.128,33.184-120.904,0l-90.080-90.68c-13.040-12.448-13.040-32.592,0-45.040c 12.448-13.040, 32.592-13.040, 45.040,0l 90.68,90.080
					c 8.296,8.296, 21.92,8.296, 30.216,0s 8.296-21.92,0-30.216L 191.424,53.936c-29.040-29.048-76.448-29.048-105.496,0
					c-29.040,29.040-29.040,76.448,0,105.496l 234.688,234.688c 29.040,29.040, 76.456,29.040, 105.496,0s 29.040-76.456,0-105.496l-1.776-1.784
					c 14.216-20.152, 22.512-43.256, 23.704-66.968l 23.112,23.12C 525.688,297.512, 525.688,385.224, 471.16,439.16z" data-tags="attach" />
<glyph unicode="&#xe001;" d="M 360.032,480.048L 168.016,480.048 c-17.776,0-32-14.216-32-32l0-469.384 c0-4.152, 2.368-8.296, 6.52-10.072
					c 4.152-1.184, 8.888-0.592, 11.856,2.368l 109.64,109.64L 373.672-29.040c 2.36-1.776, 4.736-2.96, 7.704-2.96
					c 1.176,0, 2.952,0, 4.144,0.592c 4.16,1.776, 6.52,5.92, 6.52,10.072L 392.040,448.048 C 392.040,465.832, 377.816,480.048, 360.032,480.048z" data-tags="bookmark" />
<glyph unicode="&#xe002;" d="M 485.328,110.928l-118.4,59.736c0,0-5.864,3.2-9.072,3.2c-5.856,0-10.664-2.672-13.856-6.936
					l-50.672-45.864c-5.864-5.864-14.4-6.928-21.328-2.664c-23.472,14.4-46.4,32.528-67.736,53.864c-21.336,20.8-38.936,43.728-53.336,67.728
					c-4.264,6.936-3.2,15.472, 2.136,21.336l 50.664,50.136c 3.736,3.736, 6.4,8.528, 6.4,13.864c0,3.736-1.064,6.4-2.664,9.6L 142.4,453.328
					c-3.2,5.864-8.536,9.592-15.464,9.592c-28.8-2.664-61.336-12.264-80-30.928c-66.136-66.136-25.064-215.464, 88-329.064
					c 75.736-75.736, 166.4-117.864, 238.4-117.864c 35.2,0, 66.136,10.672, 88,32.536c 19.2,18.664, 31.472,48, 33.592,77.328
					C 494.92,101.864, 491.184,107.736, 485.328,110.928z" data-tags="call" />
<glyph unicode="&#xe003;" d="M 487.992,365.856c-5.864,38.936-49.6,76.264-88,80.528C 352,451.192, 304,453.856, 256,453.856
					c-48,0-96-2.664-144-7.472C 73.6,442.128, 29.864,404.8, 23.464,365.856c-4.264-30.4-6.4-61.864-6.4-93.328c0-30.4, 2.136-61.336, 6.4-91.2
					C 29.864,142.4, 73.6,105.064, 112,100.8c 13.864-1.6, 27.728-2.136, 41.6-3.2l0-87.464 c0-6.928, 3.736-13.336, 10.136-16
					c 2.136-0.528, 4.264-1.072, 6.936-1.072c 4.264,0, 8.528,1.6, 11.736,4.808l 101.864,98.664c 38.392,0.528, 76.8,2.664, 115.728,6.4
					c 38.4,4.264, 82.136,39.472, 88,78.4c 4.808,29.864, 6.928,60.808, 6.928,91.736S 492.8,335.464, 487.992,365.856z" data-tags="chat" />
<glyph unicode="&#xe004;" d="M 256,479.992c-103.464,0-187.728-88.528-187.728-196.264c0-147.192, 158.4-300.256, 158.4-300.256
					c 21.336-19.736, 34.136-21.336, 57.072,0c0,0, 159.992,153.064, 159.992,300.256C 443.728,391.464, 359.464,479.992, 256,479.992z M 256,203.728
					c-49.064,0-88.528,39.472-88.528,88.528c0,49.072, 39.464,89.072, 88.528,89.072s 89.064-40, 89.064-89.072
					C 345.064,243.192, 305.064,203.728, 256,203.728z" data-tags="checkin" />
<glyph unicode="&#xe005;" d="M 237.864,231.992l 166.936,176c 3.192,3.2, 4.8,7.472, 4.8,11.736c0,2.136-0.528,4.8-1.6,6.928
					C 405.328,432.52, 398.92,436.792, 392,436.792L 259.736,436.792 c-4.808,0-9.608-2.136-12.808-5.856l-174.4-187.736c-5.864-6.4-5.864-16,0-22.928
					l 174.4-187.736c 3.2-3.192, 8-5.336, 12.808-5.336L 392,27.2 c 6.92,0, 13.328,3.736, 15.992,10.144c 2.664,6.4, 1.6,13.328-3.192,18.136L 237.864,231.992
					z" data-tags="chevron-left" />
<glyph unicode="&#xe006;" d="M 438.92,243.192L 265.064,430.928c-3.2,3.728-8,5.856-12.8,5.856L 120,436.784 c-6.936,0-13.336-4.264-16-10.136
					c-3.2-6.4-1.6-13.328, 2.664-18.664l 166.928-176L 106.664,55.472c-2.664-3.2-4.264-6.936-4.264-11.2c0-2.136, 0.536-4.8, 1.6-6.928
					c 2.664-6.408, 9.064-10.144, 16-10.144l 132.264,0 c 4.8,0, 9.6,2.144, 12.8,5.336l 173.856,187.736C 445.328,227.192, 445.328,236.8, 438.92,243.192z" data-tags="chevron-right" />
<glyph unicode="&#xe007;" d="M 334.928,231.992l 100.8,100.808c 9.072,9.064, 10.664,22.4, 3.736,30.4c-15.472,19.736-32.536,36.8-52.264,52.264
					c-8,6.928-21.336,5.328-30.4-3.736L 256,315.192L 154.664,411.728c-8.528,9.064-21.864,10.664-30.4,3.736
					c-19.2-15.472-36.264-32.528-51.736-52.264c-6.936-8-5.336-21.336, 3.736-30.4l 100.8-100.808L 75.728,130.664
					c-8.528-8.528-10.136-21.864-3.2-30.4c 15.472-19.2, 32.536-36.264, 51.736-51.736c 8.528-6.928, 21.864-5.336, 30.4,3.2L 256,153.064l 100.8-101.328
					c 9.064-8.536, 22.4-10.136, 30.4-3.2c 19.728,15.472, 36.8,32.528, 52.264,52.264c 6.928,8, 5.336,21.336-3.736,29.864L 334.928,231.992z" data-tags="close" />
<glyph unicode="&#xe008;" d="M 440.528,341.328c-4.264,7.472-11.736,12.264-20.264,12.8C 419.192,354.664, 339.192,359.464, 256,359.464
					s-163.2-4.8-164.264-5.336C 83.2,353.592, 75.2,348.8, 71.464,341.328c-4.264-7.472-4.264-16.528,0-24
					c 63.464-112.528, 163.2-210.136, 167.464-213.856c 9.6-8.536, 24.528-8.536, 34.136,0c 4.264,3.728, 104,101.328, 167.472,213.856
					C 444.8,324.8, 444.8,333.856, 440.528,341.328z" data-tags="down" />
<glyph unicode="&#xe009;" d="M 243.728,168c 3.736-2.672, 8-4.272, 12.264-4.272c 4.272,0, 8.536,1.6, 12.272,4.272
					C 272,170.664, 354.128,241.592, 407.464,320.528c 3.736,5.856, 4.264,13.856, 1.072,20.264c-3.736,6.4-10.144,10.664-17.608,10.664l-69.328,0 
					c-7.472,43.192-20.264,91.736-26.136,101.864c-6.4,11.192-19.728,17.592-39.464,17.592c-19.736,0-33.064-6.4-39.464-17.592
					c-6.936-11.736-19.2-58.672-26.136-101.864l-69.336,0 c-7.472,0-13.864-4.264-17.6-10.664c-3.2-6.408-2.664-14.408, 1.064-20.264
					C 157.336,241.592, 240,170.664, 243.728,168z M 428.8,214.928c0-72.528-5.872-123.736-10.144-153.6L 93.336,61.328 
					c-4.264,29.336-10.136,80.536-10.136,153.6L0,214.928 c0-137.6, 18.664-205.328, 19.2-208C 24.536-11.2, 41.064-24, 60.264-24l 390.928,0 
					c 19.192,0, 36.264,12.8, 41.6,31.472c 0.528,2.664, 19.192,70.928, 19.192,207.464L 428.8,214.936 z" data-tags="download" />
<glyph unicode="&#xe00b;" d="M 264,138.664c-25.072,0-50.136,6.4-69.872,21.336L 25.064,289.592l0-237.856 c0-8.536, 6.4-15.472, 14.4-16.536
					c 74.136-10.664, 149.864-16, 224.536-16c 74.656,0, 150.392,5.336, 223.992,16c 8.536,1.072, 14.928,8, 14.928,16.536L 502.92,289.592 L 333.856,160
					C 314.128,145.064, 289.064,138.664, 264,138.664z M 487.992,412.8c-73.6,10.664-148.8,16-223.992,16c-75.2,0-150.4-5.336-224.536-16
					c-8-1.072-14.4-8.008-14.4-16.536l0-24.528 c 1.6-5.864, 5.864-16, 18.664-28.264l 181.864-137.6c 10.136-8, 24-11.728, 38.4-11.728
					c 14.392,0, 28.264,3.728, 38.392,11.728l 181.864,137.6c 12.808,12.264, 17.072,22.4, 18.664,28.264l0,24.528 C 502.92,404.792, 496.528,411.728, 487.992,412.8z
					" data-tags="email" />
<glyph unicode="&#xe00c;" d="M 290.128,241.064l-68.264,0 L 221.864,172.8 l 68.264,0 L 290.128,241.064 z M 392.528,138.664l-68.264,0 L 324.264,70.4 l 68.264,0 L 392.528,138.664 z
					 M 392.528,241.064l-68.264,0 L 324.264,172.8 l 68.264,0 L 392.528,241.064 z M 290.128,138.664l-68.264,0 L 221.864,70.4 l 68.264,0 L 290.128,138.664 z M 474.656,410.128
					c-2.664,0.536-33.064,6.4-82.128,11.736l0,24 c0,18.664-15.472,34.136-34.144,34.136c-18.664,0-34.128-15.472-34.128-34.136l0-68.264 
					c0-10.136, 4.264-19.2, 11.192-25.6c-24.528,0-45.336,17.072-45.336,42.672L 290.112,428.256 C 278.928,428.8, 267.736,428.8, 256,428.8c-24,0-46.936-0.536-68.264-1.6
					L 187.736,445.856 c0,18.664-15.464,34.136-34.136,34.136c-18.664,0-34.136-15.472-34.136-34.136l0-68.264 c0-10.136, 4.264-19.2, 11.2-25.6
					c-24.528,0-45.336,17.072-45.336,42.672L 85.328,417.592 c-28.8-3.736-46.4-7.472-48-7.472c-11.728-2.664-20.264-12.8-20.264-25.064l0-372.8 
					c0-12.264, 8.536-22.4, 20.264-25.064C 41.064-13.336, 127.464-32, 256-32c 128.536,0, 214.928,18.664, 218.664,19.2
					c 11.736,2.664, 20.264,12.8, 20.264,25.064l0,372.8 C 494.92,397.328, 486.392,407.464, 474.656,410.128z M 443.728,31.472
					c-32-5.336-100.264-14.936-187.728-14.936s-155.728,9.6-187.728,14.936L 68.272,275.192 l 375.464,0 L 443.736,31.472 z M 187.728,138.664l-68.264,0 L 119.464,70.4 l 68.264,0 L 187.728,138.664 z
					" data-tags="event" />
<glyph unicode="&#xe00d;" d="M 510.392,285.328c-2.136,6.4-7.472,12.264-13.856,14.928c-25.608,11.2-92.808,15.472-150.936,17.6
					c-18.136,52.8-47.472,130.664-72,154.664c-4.8,4.808-11.2,7.472-17.6,7.472c-6.4,0-12.8-2.664-18.136-7.472
					c-24-24-53.336-101.864-71.464-154.664c-58.136-2.136-125.336-6.4-150.928-17.6c-6.936-2.664-11.736-8.528-13.864-14.928
					C-1.064,278.4-0.528,270.4, 3.2,263.992c 16.536-30.4, 58.664-75.728, 111.464-120.528c-14.4-58.664-24-110.928-26.664-147.728
					c-0.536-9.6, 3.728-18.136, 11.728-23.472c 7.472-5.336, 17.6-5.864, 25.6-1.6C 134.4-24, 144.528-19.2, 154.664-14.4
					C 182.4-0.528, 216,14.928, 256,40c 40-25.072, 73.6-40.528, 101.336-54.4c 10.136-4.808, 20.264-9.6, 29.328-14.936
					C 390.392-30.928, 394.128-32, 398.392-32c 4.808,0, 9.608,1.6, 13.872,4.264c 8,5.336, 12.264,13.864, 11.728,23.472
					c-2.664,36.8-12.264,89.064-26.664,147.728c 52.8,44.808, 94.928,90.136, 111.472,120.528C 512.52,270.4, 513.064,278.4, 510.392,285.328z" data-tags="favorite" />
<glyph unicode="&#xe00e;" d="M 374.928,86.4c-25.6,18.136-57.6,32.528-67.736,43.736c-8,9.064-16.528,20.8-2.136,37.864
					c 36.8,42.664, 40.528,80.528, 25.064,114.664c-14.928,32.528-48,43.728-74.128,43.728c-26.136,0-59.2-11.192-74.136-43.728
					c-15.464-34.136-11.728-72, 25.064-114.664c 14.4-17.072, 5.864-28.808-2.136-37.864c-10.136-11.2-42.664-25.6-67.728-43.736
					c-28.8-20.264-27.2-30.4-34.136-60.8c-1.072-3.736-0.536-8, 2.136-11.2c 2.136-3.2, 5.336-5.864, 9.6-6.4c 1.6,0, 30.936-5.864, 141.336-5.864
					C 365.856,2.136, 395.728,8, 397.328,8c 4.264,0.528, 7.472,3.192, 9.592,6.4c 2.144,3.2, 3.2,7.472, 2.144,11.2
					C 402.128,56, 403.192,66.136, 374.928,86.4z M 152.528,142.4l 0.536,0 c 5.336,3.192, 11.2,6.4, 16,9.6c-46.4,61.328-37.864,114.128-22.928,147.192
					c 19.2,41.064, 56,59.736, 90.128,64.528c0,13.336-3.2,26.136-8.528,38.4c-14.936,32.528-48,43.736-74.136,43.736s-59.2-11.2-74.136-43.736
					c-15.464-34.136-11.728-72, 25.064-114.664c 14.4-17.064, 5.864-28.8-2.136-37.864c-10.136-11.192-42.664-25.6-67.728-43.736
					c-28.8-20.264-27.2-30.4-34.136-60.8c-1.064-3.736-0.536-8, 2.136-11.192C 4.8,130.664, 8,128, 12.264,127.464c 1.064,0, 25.064-4.8, 107.2-5.864
					C 130.664,129.592, 142.4,136, 152.528,142.4z M 511.456,145.064c-6.92,30.4-5.856,40.528-34.128,60.8c-25.6,18.136-57.6,32.536-67.736,43.736
					c-8,9.072-16.528,20.808-2.136,37.864c 36.808,42.664, 40.528,80.528, 25.072,114.664c-14.936,32.528-48,43.736-74.144,43.736
					c-26.128,0-59.192-11.2-74.128-43.736c-5.336-12.264-8.528-25.064-8.528-38.4c 34.128-4.8, 70.92-23.472, 89.592-64.528
					c 15.472-33.6, 24-85.864-22.4-147.192c 4.8-3.2, 11.192-6.936, 16.528-9.6c 10.136-6.4, 21.864-12.808, 33.072-20.808
					c 82.128,1.072, 105.592,5.864, 107.192,5.864c 4.264,0.536, 7.464,3.2, 9.6,6.408C 511.456,137.064, 512.528,141.328, 511.456,145.064z" data-tags="groups" />
<glyph unicode="&#xe00f;" d="M 480.048,424.048L 32,424.048 c-17.784,0-32-14.224-32-32.008l0-320.032 c0-17.784, 14.224-32, 32-32l 448.040,0 
					c 17.784,0, 32,14.216, 32,32L 512.040,392.040 C 512.048,409.824, 497.832,424.048, 480.048,424.048z M 112.008,360.040c 26.664,0, 48-21.336, 48-48.008
					c0-26.664-21.336-48-48-48s-48,21.336-48,48C 64.008,338.704, 85.344,360.040, 112.008,360.040z M 64.008,104.016l 64,96.008l 74.672-53.344
					l 117.344,149.352l 128.016-192.016L 64.008,104.016 z" data-tags="image" />
<glyph unicode="&#xe010;" d="M 370.656,404.256c-0.528,8.536-5.328,16-12.8,20.264c-7.472,4.272-16.528,4.272-24,0
					C 220.8,361.064, 123.2,261.328, 119.464,257.064c-8.528-9.6-8.528-24.528,0-34.136c 3.736-4.264, 101.336-104, 214.392-167.464
					c 7.472-4.272, 16.528-4.272, 24,0c 7.472,3.728, 12.264,11.728, 12.8,20.264c0,1.064, 4.808,81.064, 4.808,164.264
					C 375.464,323.192, 370.656,403.192, 370.656,404.256z" data-tags="left" />
<glyph unicode="&#xe011;" d="M 498.128,276.8c-13.328,14.4-33.592,15.464-45.328,15.464L 319.464,292.264 c 6.928,74.136, 9.072,131.2-13.336,156.808
					c-6.928,8.528-15.464,13.328-26.664,13.856c-29.864,0-35.2-28.264-40.528-52.8c-8.528-42.136-17.064-99.192-119.464-123.192l0-250.664 l 19.2,0 
					c 42.136,0, 56.536-8.528, 74.664-20.264c 22.4-13.864, 48-30.936, 119.464-30.936c 160.528,0, 163.192,39.472, 176,205.336l 2.664,36.8
					C 513.064,247.464, 508.8,265.064, 498.128,276.8z M0-14.936l 85.336,0 L 85.336,292.256 L0,292.256 L0-14.936 z" data-tags="like" />
<glyph unicode="&#xe012;" d="M 270.84,284.48c-12.456-12.448-12.456-33.184,0-45.632c 29.624-29.040, 29.624-76.456,0-105.496l-79.416-79.416
					c-29.040-29.048-76.456-29.048-105.496,0c-29.040,29.040-29.040,76.448,0,105.496l 37.928,37.928c-9.48,25.488-13.040,52.744-10.664,80.008
					l-72.896-72.896c-53.928-53.928-53.928-141.64,0-196.168c 54.52-53.928, 142.232-53.928, 196.168,0L 316.48,88.304
					c 53.928,53.936, 53.928,141.648,0,196.168C 304.032,296.92, 283.288,296.92, 270.84,284.48z M 471.16,439.16
					c-53.928,54.52-141.64,54.52-196.168,0l-79.416-79.416c-53.928-53.928-53.928-141.64,0-196.168c 12.448-12.456, 32.6-12.456, 45.040,0
					c 13.040,12.448, 13.040,32.592,0,45.040c-29.040,29.632-29.040,76.456,0,106.088l 80.008,79.416c 29.040,29.040, 76.456,29.040, 105.496,0
					s 29.040-76.456,0-105.496l-37.928-38.52c 9.488-25.488, 13.040-52.16, 10.672-79.416l 72.296,72.304C 525.688,297.512, 525.688,385.224, 471.16,439.16z" data-tags="link" />
<glyph unicode="&#xe013;" d="M 178.136,343.464l 301.328,0 c 11.192,0, 20.8,7.472, 21.864,17.6c 2.136,22.4, 2.136,27.728,0,50.136
					c-1.072,10.136-10.672,17.592-21.864,17.592L 178.136,428.792 c-9.064,0-16.536-8-16.536-17.592l0-50.136 C 161.6,350.392, 170.136,343.464, 178.136,343.464z
					 M 50.664,275.192C 27.2,275.192, 8,255.992, 8,232.528c0-23.472, 19.2-42.672, 42.664-42.672c 23.464,0, 42.664,19.2, 42.664,42.672
					C 93.336,255.992, 74.136,275.192, 50.664,275.192z M 50.664,121.592C 27.2,121.592, 8,102.4, 8,78.928c0-23.464, 19.2-42.664, 42.664-42.664
					c 23.464,0, 42.664,19.2, 42.664,42.664C 93.336,102.4, 74.136,121.592, 50.664,121.592z M 479.464,275.192L 178.136,275.192 c-9.064,0-16.536-8-16.536-17.6
					l0-50.136 c0-10.664, 8.536-17.6, 16.536-17.6l 301.328,0 c 11.192,0, 20.8,7.472, 21.864,17.6c 2.136,22.4, 2.136,27.736,0,50.136
					C 500.256,267.728, 490.656,275.192, 479.464,275.192z M 479.464,121.592L 178.136,121.592 c-9.064,0-16.536-8-16.536-17.592l0-50.136 
					c0-10.672, 8.536-17.6, 16.536-17.6l 301.328,0 c 11.192,0, 20.8,7.472, 21.864,17.6c 2.136,22.4, 2.136,27.728,0,50.136
					C 500.256,114.136, 490.656,121.592, 479.464,121.592z M 50.664,428.792C 27.2,428.792, 8,409.592, 8,386.128c0-23.464, 19.2-42.664, 42.664-42.664
					c 23.464,0, 42.664,19.2, 42.664,42.664C 93.336,409.592, 74.136,428.792, 50.664,428.792z" data-tags="list" />
<glyph unicode="&#xe014;" d="M 496.528,390.392l-164.8,70.4C 328,462.92, 323.192,463.464, 318.928,462.92l-0.536-0.528
					c-3.192,0-5.856-1.064-8.528-2.664L 188.8,394.656L 35.736,460.792c-8,3.2-17.064,2.672-24-2.136C 4.264,453.856,0,445.856,0,437.328L0,81.6 
					c0-10.144, 5.864-19.2, 15.472-23.472l 164.264-70.936c 3.736-1.592, 6.936-2.136, 10.664-2.136s 8,1.072, 11.728,3.2l 121.064,65.064l 153.064-65.592
					c 8-3.2, 17.072-2.136, 24,2.136c 7.472,4.8, 11.736,12.8, 11.736,21.328L 511.992,366.928 C 511.992,377.064, 505.592,386.656, 496.528,390.392z M 287.464,138.136
					c-8.528-6.4-11.728-14.408-19.192-28.808c-6.408-12.8-9.6-19.192-27.2-38.4c-15.464-17.6-19.728-2.664-22.936,4.808
					c-3.2,8-6.4,33.064-6.4,33.064s-3.2,15.472-19.2,18.136c-40,6.4-21.864,67.2-21.864,67.2c-10.664,8-33.6,27.192-64,27.192
					C 88,221.328, 67.2,225.592, 51.2,230.4L 51.2,398.392 l 110.936-48c 9.6-18.136, 21.336-23.464, 25.6-38.4c 9.064-31.464-12.8-45.328-17.064-34.664
					c-8.528,18.664-38.936,14.4-53.864,9.6c-22.4-7.472-31.464-21.336-14.4-28.808c 17.064-7.464, 12.264-5.328, 17.064,0
					c 4.8,5.336, 10.136,6.936, 16,2.136C 140.8,255.992, 153.6,252.8, 155.2,241.064c 1.6-11.736, 2.136-17.072, 15.464-17.072c 16,0, 11.2,4.272, 22.4,1.6
					c 10.664-3.192, 21.336,2.672, 29.864,2.672c 8.536,0, 25.064-10.136, 25.064-10.136c 25.064-2.672, 33.064-4.272, 41.064-9.072
					c 7.472-5.336, 17.064-22.928, 17.064-36.8C 306.128,160, 302.392,150.4, 287.464,138.136z M 460.8,155.728c-9.6-10.664-19.736-17.064-24-16.528
					c-10.672,0.528-19.736,11.736-20.8,14.4c-4.272,9.6-10.672,44.264-9.608,54.936c 3.2,38.928-6.4,43.192-37.328,49.064
					c-12.8,2.664-31.472,5.336-40.528,16.528c-33.072,38.936-30.936,61.336-1.072,86.4c 10.664,8.536, 33.072,18.672, 49.072,25.6L 460.8,349.856
					L 460.8,155.728 z" data-tags="location" />
<glyph unicode="&#xe015;" d="M 91.2,226.136c0,68.8, 7.464,123.192, 12.264,150.928c 33.064,6.928, 90.664,17.592, 160.536,20.264L 264,478.92 
					C 157.336,474.656, 60.8,451.728, 56.528,450.656C 41.064,446.928, 28.8,435.192, 25.064,420.256C 24.536,417.064, 8,347.192, 8,226.136
					c0-121.072, 16-194.664, 16.536-197.864c 3.728-15.472, 16.528-27.2, 32-30.936c 4.272-1.064, 100.8-23.992, 207.472-28.8L 264.008,50.664 
					C 194.136,53.328, 137.064,64, 103.464,70.928C 98.664,99.736, 91.2,155.728, 91.2,226.136z M 498.656,235.728
					c-2.664,3.736-75.736,86.4-154.656,139.2c-5.872,4.264-13.872,4.264-20.264,1.064c-6.408-3.736-8.536-10.136-8.536-17.6l0-67.192 
					c-57.6-5.864-138.664-22.4-148.8-28.264c-12.8-6.936-21.864-19.736-21.864-39.472s 9.064-32, 21.864-39.472
					c 10.136-5.856, 91.192-21.856, 148.8-28.264l0-67.192 c0-6.936, 2.136-13.864, 8.536-17.6c 2.656-1.064, 5.856-2.136, 9.064-2.136
					c 4.264,0, 8,1.072, 11.2,3.2c 78.92,53.328, 151.992,135.464, 154.656,139.192C 504.528,218.664, 504.528,228.8, 498.656,235.728z" data-tags="logout" />
<glyph unicode="&#xe016;" d="M 313.064,123.192C 304.528,128, 294.928,131.736, 284.8,136c-18.136,7.464-38.936,15.464-42.664,27.728
					c-3.2,10.144, 4.8,24.536, 11.736,35.2C 288.528,252.8, 294.928,299.192, 272,337.064c-17.608,29.328-49.072,46.4-84.272,46.4
					c-34.664,0-66.136-17.072-83.728-46.4c-22.936-37.864-16.536-84.264, 18.136-138.136c 6.936-10.664, 14.936-25.064, 11.728-35.2
					C 130.136,151.464, 109.336,143.464, 91.2,136c-10.136-4.264-19.736-8-28.264-12.808c-32-19.736-54.936-49.064-62.4-84.264
					c-1.072-4.8-0.536-9.064, 2.136-12.8c 2.664-3.736, 6.4-6.4, 11.2-6.928c 1.6-0.536, 48.528-6.936, 173.864-6.936s 172.8,6.4, 174.392,6.936
					c 4.808,0.528, 8.528,3.192, 11.2,6.928s 3.736,8, 2.672,12.8C 368,74.136, 345.064,103.464, 313.064,123.192z M 511.456,107.192
					c-7.464,35.2-30.392,64.528-62.92,84.264c-8,4.808-17.608,8.536-28.264,12.808c-18.144,7.464-38.936,15.464-42.672,27.728
					c-3.2,10.144, 4.8,24.536, 12.264,35.2c 34.672,53.864, 40.528,100.264, 17.6,138.136c-17.6,29.328-48.528,46.4-83.728,46.4
					c-31.472,0-48.536-13.864-66.672-37.336c 25.6-11.736, 41.6-28.264, 56.528-53.328c 21.864-35.736, 30.936-98.136-21.856-181.864
					c 3.192-1.064, 6.392-2.664, 8.528-3.736C 312,171.192, 323.736,166.4, 334.928,160c 32-19.736, 56.528-46.936, 71.464-78.4
					c 64,1.592, 90.672,5.328, 91.736,5.864c 4.264,0.528, 8.528,3.192, 11.2,6.928C 511.456,98.136, 512.528,102.4, 511.456,107.192z" data-tags="people" />
<glyph unicode="&#xe017;" d="M 256,300.256c-46.936,0-85.336-38.4-85.336-85.328S 209.064,129.592, 256,129.592S 341.328,168, 341.328,214.928
					S 302.928,300.256, 256,300.256z M 481.064,347.192c-2.144,9.6-11.736,18.136-20.8,19.192c-26.672,2.672-53.344,4.808-80,6.936
					c-3.736,12.264-8,28.264-12.808,41.064c-3.192,9.6-13.864,18.672-23.464,19.2c-29.336,2.136-58.672,3.192-88,3.192
					c-28.8,0-57.6-1.064-85.864-3.192c-9.6-0.528-20.264-9.6-23.464-19.2c-4.8-12.8-9.064-28.8-12.8-41.064
					c-26.664-2.136-52.8-4.264-79.464-6.936c-9.6-1.064-19.2-9.592-20.8-19.192c-22.4-115.2-21.864-178.664,0-290.136
					C 35.2,48, 44.8,39.472, 54.4,38.4c 67.2-7.472, 134.4-11.2, 201.6-11.2c 67.736,0, 136,3.736, 204.272,11.2c 9.064,1.072, 18.656,9.6, 20.8,18.664
					C 499.728,154.136, 499.728,250.664, 481.064,347.192z M 256,76.8c-75.728,0-138.136,62.4-138.136,138.136S 180.264,353.064, 256,353.064
					c 75.736,0, 138.128-62.4, 138.128-138.136S 331.736,76.8, 256,76.8z" data-tags="photo" />
<glyph unicode="&#xe018;" d="M 238.928,325.856L 238.928,418.128 c0,9.072-3.2,17.072-11.2,21.336c-8,4.8-18.136,4.264-25.6-1.072
					C 104,372.256, 25.6,269.328, 22.4,265.064c-6.928-9.072-6.928-21.864,0-30.4C 25.6,229.856, 104,126.928, 202.128,61.328
					c 4.272-3.192, 9.064-4.264, 13.864-4.264c 4.264,0, 8,1.072, 11.736,2.672c 8,4.264, 11.2,12.8, 11.2,21.864L 238.928,173.328 
					c 62.4-1.064, 129.6-14.928, 145.072-43.736c 17.592-32.528-0.536-63.992-44.272-80.528c-46.928-18.136-36.8-63.464, 8-62.928
					c 47.472,0.528, 147.192,62.928, 147.192,167.464C 494.92,275.728, 365.328,319.464, 238.928,325.856z" data-tags="reply" />
<glyph unicode="&#xe019;" d="M 392,257.064c-3.736,4.264-100.808,104-213.864,167.464c-7.472,4.272-16.536,4.272-24,0
					c-7.472-4.264-12.272-11.728-12.8-20.264c0-1.064-4.8-81.064-4.8-164.256c0-83.2, 4.8-163.2, 4.8-164.264
					c 0.528-8.536, 5.336-16.536, 12.8-20.264c 7.464-4.272, 16.528-4.272, 24,0C 291.192,118.928, 388.264,218.664, 392,222.928
					C 401.064,232.528, 401.064,247.464, 392,257.064z" data-tags="right" />
<glyph unicode="&#xe01c;" d="M 510.92,248.528c-1.592,11.736-10.664,21.328-22.392,22.928C 474.128,273.064, 444.8,276.8, 444.8,276.8
					c-12.808,3.192-22.408,14.4-22.408,28.264c0,5.328, 1.6,10.664, 4.808,14.928c0,0.536, 26.664,35.2, 26.664,35.2
					c 7.472,9.064, 6.936,22.4-0.528,31.464c-10.136,12.808-21.864,24.536-34.672,34.672c-9.064,7.464-22.392,8-31.464,0.528
					c-11.736-9.072-34.664-26.664-34.664-26.664c-4.808-2.672-10.144-4.808-16-4.808c-13.872,0-25.072,10.136-27.736,23.472l-5.336,42.664
					c-1.6,11.736-11.192,20.808-22.928,22.4c-16.528,1.6-33.064,1.6-49.064,0c-11.736-1.592-21.336-10.664-22.936-22.4L 203.2,413.856
					c-2.136-13.336-13.864-23.472-27.736-23.472c-6.4,0-12.264,2.136-17.064,5.336l-33.6,26.136c-9.064,7.472-22.4,6.928-31.464-0.528
					c-12.8-10.136-24.528-21.864-34.664-34.672c-8-9.064-8-22.4-0.528-31.464c 8.528-11.2, 25.6-33.6, 25.6-33.6c 3.728-4.8, 5.864-10.664, 5.864-16.528
					c0-14.4-10.664-26.136-24.528-28.264l-41.6-5.336c-11.728-1.6-21.336-11.192-22.4-22.928c-1.6-16.536-1.6-33.072,0-49.072
					c 1.6-11.736, 10.664-21.328, 22.4-22.928l 41.6-5.336c 13.864-1.6, 24.528-13.328, 24.528-27.736c0-6.4-2.136-12.264-5.864-17.064l-25.6-33.6
					c-7.464-9.064-6.936-22.4, 0.528-31.472c 10.136-12.8, 21.864-24.528, 34.664-34.664c 4.8-3.736, 10.136-5.864, 16-5.864
					c 5.336,0, 11.2,1.6, 15.464,5.336l 33.6,26.136c 4.8,3.2, 10.664,5.336, 17.064,5.336c 13.864,0, 25.6-10.136, 27.736-23.472
					c0-0.528, 5.336-42.664, 5.336-42.664c 1.6-11.736, 11.2-20.808, 22.936-22.4C 239.464-31.472, 248-32, 256-32c 8,0, 16.536,0.528, 24.536,1.072
					c 11.736,1.592, 21.328,10.664, 22.928,22.4l 5.336,42.664c 2.664,13.336, 13.856,23.472, 27.736,23.472c 5.856,0, 11.736-1.6, 16-4.808l 34.664-26.664
					c 4.264-3.736, 10.136-5.336, 15.464-5.336c 5.872,0, 11.2,1.6, 16,5.864c 12.808,10.136, 24.536,21.864, 34.672,34.664
					c 7.472,9.072, 8,22.408, 0.528,31.472c-9.064,11.736-26.664,34.664-26.664,35.2c-3.2,4.264-4.808,9.592-4.808,15.464
					c0,13.336, 9.6,25.072, 22.408,27.736c0,0, 29.328,3.736, 43.736,5.336c 11.728,1.6, 20.8,11.192, 22.392,22.928
					C 512.52,215.992, 512.52,232.528, 510.92,248.528z M 256,137.064c-48,0-86.936,38.936-86.936,86.928c0,48, 38.936,86.936, 86.936,86.936
					c 48,0, 86.936-38.936, 86.936-86.936C 342.928,176, 304,137.064, 256,137.064z" data-tags="settings" />
<glyph unicode="&#xe01d;" d="M 507.728,287.992c-2.664,3.736-72,93.864-151.464,146.664c-6.408,3.736-13.872,4.272-20.808,1.072
					c-6.4-3.736-11.192-10.136-11.192-17.6l0-82.664 C 208,335.464, 130.664,254.4, 123.2,221.328c-5.336-23.464, 1.6-40, 19.728-48.528
					c 21.336-10.664, 43.736,2.136, 54.936,8.528c 34.664,19.2, 57.064,36.264, 126.4,36.264l0-84.264 c0-7.464, 4.8-13.864, 11.192-17.592
					c 6.928-3.2, 14.928-2.672, 20.808,1.064c 79.464,52.8, 148.8,143.472, 151.464,146.664c 2.664,3.736, 4.264,8, 4.264,12.264
					S 510.392,284.264, 507.728,287.992z M 375.464,62.4L 68.264,62.4 L 68.264,369.592 l 221.856,0 L 290.12,436.792 c-19.736,0.536-48.528,1.072-68.264,1.072
					c-54.936,0-110.928-2.664-165.336-8C 24.528,427.192,0,399.992,0,367.992L0,64 c0-32, 24.528-59.2, 56.528-61.864c 54.4-5.336, 110.4-8, 165.336-8
					s 110.936,2.664, 165.336,8c 32,2.664, 56.528,29.864, 56.528,61.864l0,68.264 c-18.664-18.136-45.864-37.336-68.264-53.864L 375.464,62.4 z" data-tags="share" />
<glyph unicode="&#xe01e;" d="M 448.528,154.664c-63.472,112.528-163.2,210.136-167.472,213.856c-9.592,8.536-24.528,8.536-34.136,0
					c-4.264-3.728-104-101.328-167.464-213.856c-4.264-7.472-4.264-16.528,0-24c 3.736-7.472, 11.736-12.8, 20.264-13.336
					c 1.064,0, 81.064-4.8, 164.272-4.8c 83.192,0, 163.192,4.8, 164.264,4.8c 8.528,0.536, 16,5.864, 20.264,13.336S 452.8,147.192, 448.528,154.664z" data-tags="up" />
<glyph unicode="&#xe01f;" d="M 121.064,283.192L 190.4,283.192 c 6.936-43.2, 19.2-90.136, 26.136-101.864c 6.4-10.664, 19.728-17.592, 39.464-17.592
					c 19.736,0, 33.064,6.928, 39.464,17.592c 5.864,10.136, 18.664,58.664, 26.136,101.864l 69.328,0 c 7.472,0, 13.872,4.264, 17.608,10.664
					c 3.192,6.408, 2.664,14.4-1.072,20.808C 354.128,393.064, 272,463.992, 268.264,466.656c-3.736,2.672-8,4.272-12.272,4.272
					c-4.264,0-8.528-1.6-12.264-4.272c-3.736-2.664-86.4-73.592-139.2-151.992c-3.736-6.408-4.264-14.4-1.064-20.808
					C 107.2,287.464, 113.6,283.192, 121.064,283.192z M 428.8,214.928c0-72.528-5.872-123.736-10.144-153.592L 93.336,61.336 
					C 89.064,90.664, 83.2,141.864, 83.2,214.928L0,214.928 c0-137.6, 18.664-205.328, 19.2-208C 24.536-11.2, 41.064-24, 60.264-24l 390.928,0 
					c 19.192,0, 36.264,12.8, 41.6,31.472c 0.528,2.664, 19.192,70.928, 19.192,207.464L 428.8,214.936 z" data-tags="upload" />
<glyph unicode="&#xe020;" d="M 494.392,13.864c-10.664,50.136-38.4,76.8-76.264,100.8c-10.664,6.4-23.472,11.736-37.328,17.6
					c-26.144,10.136-55.472,21.864-61.864,41.6c-3.736,12.8, 1.6,30.4, 16,52.8c 44.264,71.464, 52.264,133.328, 23.464,182.928
					C 336,447.992, 298.128,470.92, 256,470.92c-41.6,0-80-22.928-102.4-61.328c-28.8-49.6-20.8-111.472, 24-182.928c 14.4-22.4, 19.736-40, 15.464-52.8
					c-6.4-19.736-35.728-31.472-61.336-41.6c-14.4-5.864-27.728-11.2-37.864-17.6C 56,90.664, 28.264,64, 17.6,13.864
					c-2.136-9.072, 3.2-17.6, 11.728-20.264C 31.464-6.936, 90.136-24, 256-24c 82.664,0, 138.664,4.264, 174.392,8.528s 51.2,9.072, 52.264,9.072
					C 491.184-3.736, 496.528,4.8, 494.392,13.864z" data-tags="user" />
<glyph unicode="&#xe021;" d="M 444.264,299.192c-73.608,126.928-238.4,171.728-238.4,171.728s 48.528-122.664-78.936-206.392
				c-59.2-38.4-92.264-85.336-91.728-137.6c0-18.664, 4.264-38.4, 13.864-58.664C 77.336,6.928, 139.728-16, 205.336-22.928
				C 204.8-22.4, 204.264-22.4, 204.264-22.4c-51.728,27.192-108.8,126.4, 7.472,221.328c-4.8-14.928-8-41.064-5.864-56.528
				c 5.336-32.528, 20.8-46.4, 38.4-46.4c 16,0, 34.128,12.264, 46.4,31.464c 16.528,26.136, 16.528,72, 14.928,101.864c-0.528,13.336-5.856,53.864-8,55.472
				c0,0, 70.936-44.808, 78.936-119.472C 383.464,95.464, 357.856,16, 273.592-22.928C 380.264-13.336, 452.8,61.328, 469.856,126.4
				C 485.328,182.928, 473.592,248.528, 444.264,299.192z" data-tags="priority" />
<glyph unicode="&#xe022;" d="M 120.808,350.016l 347.8,0 c 24.008,0, 43.472,21.872, 43.472,46.152s-19.464,43.952-43.472,43.952L 120.808,440.12 
					c-24.008,0-43.472-19.68-43.472-43.952S 96.8,350.016, 120.808,350.016z M 468.608,267.4L 305.048,267.4 c-24.008,0-43.472-20.296-43.472-44.568
					s 19.464-43.432, 43.472-43.432l 163.56,0 c 24.008,0, 43.472,19.16, 43.472,43.432S 492.616,267.4, 468.608,267.4z M 468.608,88.176L 344.032,88.176 
					c-24.016,0-43.472-20.92-43.472-45.192c0-24.28, 19.456-43.008, 43.472-43.008l 124.576,0 c 24.008,0, 43.472,18.728, 43.472,43.008
					C 512.080,67.256, 492.616,88.176, 468.608,88.176z M 260.672,130.696l-73.672,0 L 187,258.432 c0,3.088-2.52,5.552-5.664,5.552L 90.664,263.984 
					c-3.152,0-5.664-2.472-5.664-5.552l0-127.736 L 11.328,130.696 c-2.2,0-4.408-1.232-5.352-3.4c-0.632-2.16-0.32-4.624, 1.256-6.168
					l 124.672-122.176c 1.256-0.92, 2.512-1.536, 4.088-1.536s 2.832,0.616, 4.096,1.536l 124.664,122.176
					c 1.568,1.544, 1.888,4.016, 1.256,6.168C 265.080,129.464, 262.872,130.696, 260.672,130.696z" data-tags="filter" />
<glyph unicode="&#xe023;" d="M 256,479.992C 114.664,479.992,0,365.328,0,224c0-141.336, 114.664-256, 256-256s 256,114.664, 256,256
				C 511.992,365.328, 397.328,479.992, 256,479.992z M 256,31.472c-20.8,0-38.936,18.136-38.936,38.928s 18.136,38.928, 38.936,38.928
				s 38.936-18.136, 38.936-38.928S 276.8,31.472, 256,31.472z M 364.264,259.728c-6.936-12.8-23.472-29.328-46.936-50.664
				c-10.672-9.064-22.4-20.8-25.592-35.192c0-9.6-7.472-18.136-17.072-18.136L 240,155.736 c-9.6,0-17.6,7.464-17.6,17.064
				c 1.6,52.8, 58.136,75.736, 83.192,107.192c 5.336,6.408, 6.936,13.864, 6.936,21.864c0,10.672-3.736,17.072-11.736,25.072
				c-8,7.464-19.2,12.264-33.064,12.264c-22.408,0-40.536-18.136-44.808-34.136c-1.6-8-8.528-12.8-16.528-12.8l-35.736,0 
				c-9.6,0-17.064,6.4-17.064,15.992c0,1.6, 0.536,2.672, 0.536,4.272c0,0, 1.064,2.664, 1.064,3.192
				c 11.728,37.336, 49.064,80.528, 109.864,80.528c 33.6,0, 60.264-9.064, 80-27.736c 20.264-19.192, 31.472-43.728, 31.472-68.8
				C 376.528,285.328, 371.728,271.992, 364.264,259.728z" data-tags="help" />
<glyph unicode="&#xe024;" d="M 256,479.992C 114.664,479.992,0,365.328,0,224c0-141.336, 114.664-256, 256-256s 256,114.664, 256,256
				C 511.992,365.328, 397.328,479.992, 256,479.992z M 428.264,190.4c-0.536-10.136-8.536-17.6-18.144-17.6L 101.864,172.8 c-9.6,0-17.6,7.472-18.664,17.6
				c-1.6,22.4-1.6,44.8,0,67.192c 1.064,10.136, 9.064,17.6, 18.664,17.6l 308.264,0 c 9.6,0, 17.6-7.472, 18.144-17.6
				C 430.392,235.192, 430.392,212.8, 428.264,190.4z" data-tags="error" />
<glyph unicode="&#xe025;" d="M 505.592,38.928l-219.736,406.4C 280,455.992, 268.264,462.92, 256,462.92c-12.8,0-24-6.928-29.864-17.592
				L 4.264,35.192C-1.6,24.528-1.6,11.736, 4.8,1.6c 6.4-10.136, 17.064-16.536, 29.336-16.536l 443.728,0 c 18.672,0, 34.136,14.936, 34.136,34.144
				C 511.992,26.664, 509.328,33.6, 505.592,38.928z M 256,31.472c-21.336,0-38.4,17.064-38.4,38.4c0,21.328, 17.064,38.4, 38.4,38.4
				s 38.392-17.072, 38.392-38.4C 294.392,48.528, 277.328,31.472, 256,31.472z M 277.856,172.8c-1.592-10.664-11.192-20.264-21.328-20.264l-1.6,0 
				c-9.6,0-19.2,9.6-20.8,20.264c-8.528,44.8-12.8,92.8-17.064,132.8C 216.528,314.664, 224,324.8, 233.6,326.928c 17.6,3.192, 27.728,3.192, 45.336,0
				c 10.136-2.136, 16.528-12.264, 16-21.336C 290.664,265.592, 286.392,217.592, 277.856,172.8z" data-tags="warning" />
<glyph unicode="&#xe026;" d="M 290.664,235.728c 16.528,14.408, 33.064,27.2, 43.192,46.936c 17.6,32.528, 25.6,74.136, 14.408,109.856
				c-2.672,9.6-6.936,19.2-11.736,27.736C 314.656,457.592, 274.128,479.992, 230.4,479.992c-43.736,0-83.736-22.4-106.136-59.736
				C 96,372.256, 104,312.528, 147.728,242.664c 14.4-21.336, 20.8-38.4, 17.064-50.664c-5.336-17.6-33.064-28.808-57.6-38.936
				c-12.8-5.328-25.064-10.136-35.736-16.528c-40.528-25.072-61.336-58.664-70.928-104c-1.072-4.264,0-9.6, 2.664-13.328
				c 2.664-3.736, 6.936-6.936, 11.736-7.472c 2.136-0.528, 51.728-9.6, 213.328-9.6l 18.664,0 C 228.264,28.8, 217.6,60.264, 217.6,95.464
				c0,37.336, 10.664,72.536, 34.136,100.808C 262.928,210.136, 277.328,224.528, 290.664,235.728z M 383.992,224c-70.928,0-128-57.072-128-128
				c0-70.936, 57.064-128, 128-128c 70.4,0, 128,57.064, 128,128C 511.992,166.928, 454.392,224, 383.992,224z M 460.8,78.928c0-4.8-3.736-8.528-8.536-8.528
				l-42.664,0 l0-42.664 c0-4.808-3.736-8.528-8.528-8.528l-34.136,0 c-4.808,0-8.536,3.728-8.536,8.528L 358.4,70.4 l-42.664,0 
				c-4.8,0-8.528,3.736-8.528,8.528l0,34.136 c0,4.808, 3.736,8.528, 8.528,8.528l 42.664,0 l0,42.672 c0,4.8, 3.736,8.528, 8.536,8.528l 34.136,0 
				c 4.8,0, 8.528-3.736, 8.528-8.528l0-42.672 l 42.664,0 c 4.808,0, 8.536-3.728, 8.536-8.528L 460.8,78.928 z" data-tags="adduser" />
<glyph unicode="&#xe027;" d="M 466.656,262.4c-1.064,11.728-10.664,20.8-22.392,20.8L 315.192,283.2 L 315.192,411.728 c0,12.264-9.072,21.864-20.264,22.928
					c-26.136,2.672-52.8,2.672-78.936,0c-11.2-1.064-20.264-10.664-20.264-22.928l0-128.528 L 67.2,283.2 c-12.264,0-21.864-9.072-22.936-20.8
					c-2.664-26.136-2.664-52.264,0-78.4c 1.064-11.736, 10.664-20.264, 22.936-20.264l 128.528,0 l0-129.072 c0-11.736, 9.064-21.328, 20.264-22.4
					c 26.136-2.664, 52.8-2.664, 78.936,0c 11.192,1.072, 20.264,10.664, 20.264,22.4L 315.192,163.736 l 129.072,0 c 11.728,0, 21.328,8.528, 22.392,20.264
					C 469.328,210.136, 469.328,236.264, 466.656,262.4z" data-tags="add" />
<glyph unicode="&#xe00a;" d="M 509.856-1.072c-20.264,59.2-38.936,118.936-58.664,179.736c-1.072,3.736-3.2,7.472-6.4,10.136
					L 162.664,472.52c-8.528,8.528-21.336,9.6-31.464,3.736c-26.664-16.528-51.2-34.664-72.528-56c-20.8-19.736-38.936-42.664-54.936-68.264
					c-6.4-10.136-4.8-23.464, 3.728-31.464L 289.592,36.8c 3.2-2.664, 6.408-4.8, 10.144-6.4c 60.8-19.736, 122.128-40, 181.328-60.8
					c 2.664-1.072, 5.328-1.6, 8.528-1.6c 6.4,0, 11.2,2.664, 16,7.472C 512.528-17.6, 513.592-10.664, 509.856-1.072z M 389.856,52.8
					c-23.472,8-50.136,16-73.064,23.472L 53.336,340.8c 6.936,10.136, 14.936,20.8, 24,30.4l 256-256.528c 5.328-5.336, 11.736-6.928, 18.136-6.928
					s 11.192,2.664, 16,7.464c 10.136,10.136, 10.664,24, 1.072,34.136L 113.6,404.256c 9.064,7.472, 18.136,16.536, 27.2,23.472l 263.472-266.664
					c 7.464-23.472, 15.464-46.928, 23.464-70.4L 389.856,52.8z" data-tags="edit" />
<glyph unicode="&#xe028;" d="M 0.912,225.408L 191.576,410.552c 10.488,8.784, 22.792,13.168, 36.904,13.168c 14.128,0, 26.208-4.392, 36.224-13.168
		c 5.016-5.28, 8.776-10.984, 11.28-17.136c 2.504-6.152, 3.76-12.304, 3.76-18.448c0-14.064-5.008-25.704-15.032-34.92
		c-5.92-6.6-12.528-13.4-19.816-20.432l-45.792-44.152l 261.056,0 c 14.584,0, 26.88-4.832, 36.896-14.488c 10.024-9.672, 15.040-21.528, 15.040-35.584
		c0-13.616-5.008-25.376-15.040-35.248c-10.016-9.88-22.312-14.832-36.896-14.832L 199.096,175.312 l 45.792-44.152c 7.288-7.016, 13.896-13.616, 19.816-19.76
		c 5.016-4.832, 8.776-10.328, 11.28-16.488c 2.504-6.152, 3.76-12.080, 3.76-17.784c0-14.072-5.008-25.92-15.032-35.584
		c-10.016-10.104-22.096-15.152-36.224-15.152c-14.112,0-26.416,5.048-36.904,15.152L 0.912,225.408z" data-tags="back" />
<glyph unicode="&#xe029;" d="M 443.84,213.336c0,19.192-16,36.8-34.664,36.8L 392.64,250.136 L 392.64,335.472 C 392.64,417.6, 337.712,472, 256.12,472
			c-81.6,0-136.528-54.4-136.528-136.528l0-85.336 l-18.144,0 c-18.664,0-33.064-19.2-33.064-38.4l0-182.928 c0-16.536, 11.2-30.4, 26.664-33.608
			c 52.808-12.264, 107.2-18.128, 161.072-18.128c 53.856,0, 106.664,5.864, 159.464,18.128c 15.472,3.2, 28.264,17.072, 28.264,33.608L 443.848,213.336 z
			 M 204.912,250.136L 204.912,335.472 c0,21.864, 5.336,51.2, 51.2,51.2c 45.856,0, 51.192-29.336, 51.192-51.2l0-85.336 L 204.912,250.136 z" data-tags="lock" />
<glyph unicode="&#xe02a;" d="M 508.608,333.432c 4.152,4.152, 4.152,11.256,0,15.4l-74.576,74.576c-4.144,4.144-11.248,4.144-15.384,0
		L 191.936,196.112l-98.848,99.44c-4.144,4.144-11.248,4.144-15.392,0l-74.584-74.576c-4.152-4.144-4.152-11.24,0-15.392l 181.128-181.128
		c 2.368-1.784, 4.736-2.968, 7.696-2.968c 2.96,0, 5.328,1.184, 7.696,2.968L 508.608,333.432z" data-tags="check" />
<glyph unicode="&#xe02c;" d="M 482.816,117.144c-3.2,2.136-74.128,59.728-74.128,178.128c0,155.2-82.144,184.736-152,184.736
				c-69.872,0-152-29.528-152-184.736c0-117.856-70.936-175.992-74.136-178.128c-9.064-7.472-13.864-19.2-12.8-30.936c 1.6-12.264, 9.6-22.4, 20.8-27.192
				c 2.664-1.072, 56.528-24, 145.064-33.072c 9.064-31.464, 38.4-54.928, 73.072-54.928c 34.664,0, 64,23.472, 73.064,54.928
				c 88.528,9.072, 142.4,32, 145.592,33.072c 10.672,4.8, 18.144,14.928, 19.736,26.664C 496.68,97.936, 491.88,109.672, 482.816,117.144z" data-tags="notification" />
<glyph unicode="&#xe02d;" d="M 256,480C 114.616,480,0,365.376,0,224c0-141.392, 114.616-256, 256-256s 256,114.608, 256,256C 512,365.376, 397.384,480, 256,480z
		 M 256,388.432c 22.096,0, 40-17.912, 40-40c0-22.096-17.904-40-40-40c-22.088,0-40,17.904-40,40C 216,370.512, 233.912,388.432, 256,388.432z M 285.504,76.432
		l-60,0 c-14.36,0-26,11.64-26,26c0,11.008, 6.832,20.416, 16.496,24.208l-0.016,92.12c-9.648,3.824-16.48,13.2-16.48,24.168
		c0,14.36, 11.704,26, 26.136,26l 44.232,0 c 14.432,0, 26.136-11.64, 26.136-26l-0.376-116.536c 9.328-3.952, 15.872-13.184, 15.872-23.96
		C 311.504,88.072, 299.856,76.432, 285.504,76.432z" data-tags="info" />
<glyph unicode="&#xe02e;" d="M 505.288,223.992c0-14.4-11.736-25.592-25.6-25.592l-72,0 l 56.528-57.072c 10.136-11.192, 10.136-28.264-0.528-38.928
			c-5.336-4.808-12.272-7.472-19.2-7.472c-6.928,0-14.4,2.664-19.728,8L 331.424,198.4l-48,0 l0-48.536 l 95.464-93.328
			c 10.664-10.136, 10.664-27.736, 0.536-38.4c-5.336-5.336-12.8-8-19.736-8s-13.864,2.664-19.2,7.464l-57.064,56l0-71.464 c0-14.4-11.736-25.6-25.6-25.6
			c-14.4,0-25.6,11.2-25.6,25.6l0,71.464 l-57.064-56c-10.664-10.136-28.264-10.136-38.936,0.536c-10.136,10.664-10.136,28.264, 0.536,38.4L 232.224,150.4
			l0,48 l-48,0 L 90.36,102.928c-5.336-5.336-12.272-8-19.2-8c-6.936,0-13.864,2.664-19.2,7.472c-10.664,10.664-10.664,27.736-0.528,38.928l 56,57.072
			L 35.96,198.4 c-14.4,0-25.6,11.192-25.6,25.592c0,13.864, 11.2,25.6, 25.6,25.6l 71.464,0 l-56,57.064c-10.136,10.672-10.136,28.272, 0.528,38.936
			c 10.664,10.136, 28.272,10.136, 38.936-0.528l 92.8-95.472l 48.528,0 l0,48 L 136.76,390.92c-10.664,10.672-10.664,28.264-0.536,38.936
			c 10.664,10.664, 28.272,10.664, 38.936,0.528l 57.064-56.528l0,72 c0,13.864, 11.2,25.6, 25.6,25.6c 13.864,0, 25.6-11.736, 25.6-25.6l0-71.472 l 57.064,56
			c 10.664,10.136, 28.264,10.136, 38.936-0.528c 10.136-10.672, 10.136-28.264-0.536-38.936L 283.424,297.592l0-48 l 48,0 l 93.336,95.472
			c 10.664,10.664, 28.264,10.664, 38.936,0.528c 10.664-10.664, 10.664-28.264, 0.528-38.936l-56-57.064l 71.472,0 
			C 493.552,249.592, 505.288,237.856, 505.288,223.992z" data-tags="frozen" />
<glyph unicode="&#xe02b;" d="M 255.84,342.36l0,39.088 c-86.312,0-156.288-69.96-156.288-156.28c0-86.304, 69.976-156.272, 156.288-156.272
				c 86.304,0, 156.272,69.968, 156.272,156.272c0,41.72-16.392,79.592-43.016,107.616l 37.752,35.864c 35.52-37.368, 57.344-87.864, 57.344-143.488
				c0-115.080-93.296-208.352-208.344-208.352c-115.088,0-208.376,93.272-208.376,208.352c0,115.096, 93.288,208.376, 208.376,208.376L 255.848,472.608 
				l 78.136-65.112L 255.84,342.36z" data-tags="spinner" />
<glyph unicode="&#xe02f;" d="M 487.872,435l-21.704-20.096l-23.504,20.872l-24.544-20.872L 393.336,436.080l-19.664-21.176L 350.944,436.080
			l-20.672-21.176l-20.472,21.768l-21.4-21.768l-22.184,21l-24.904-21l-23.72,20.64l-22.2-20.64l-21.192,19.6l-18.056-19.6L 133.904,436.080
			l-19.64-21.176L 92.008,436.080L 72.936,414.904l0-350.328 c0-15.024-8.888-20.504-15.92-20.504c-10.232,0-21.096,11.216-21.096,20.048
			c0,8.896, 0.096,350.24, 0.096,350.24C 22.32,414.368,0,408.448,0,394.728l0-358.6 c0-13.672, 11.128-24.8, 24.824-24.8l 462.224,0 
			c 13.704,0, 24.816,11.12, 24.816,24.8L 511.864,415.4 C 511.856,415.4, 490.72,432.944, 487.872,435z M 268.784,71.168l-147.52,0 l0,36.152 l 147.52,0 L 268.784,71.168 z
			 M 268.784,132.464l-147.52,0 L 121.264,168.8 l 147.52,0 L 268.784,132.464 z M 268.784,192.92l-147.52,0 l0,37.336 l 147.52,0 L 268.784,192.92 z M 463.616,71.168L 304.872,71.168 l0,36.152 l 158.744,0 
			L 463.616,71.168 z M 463.616,132.464L 304.872,132.464 L 304.872,168.8 l 158.744,0 L 463.616,132.464 z M 464.12,193.76L 305.048,193.76 l0,36.496 l 159.072,0 L 464.12,193.76 z M 464.12,266.76L 121.256,266.76 l0,73.568 
			l 342.856,0 L 464.112,266.76 z" data-tags="NewsHighlightAction" />
<glyph unicode="&#xe030;" d="M 510.408,257.592c-0.536,10.136-8.536,17.6-18.144,17.6L 19.864,275.192 c-9.6,0-17.6-7.472-18.664-17.6
					c-1.6-22.4-1.6-44.8,0-67.192c 1.064-10.136, 9.064-17.6, 18.664-17.6l 472.4,0 c 9.6,0, 17.6,7.472, 18.144,17.6
					C 512.528,212.8, 512.528,235.192, 510.408,257.592z" data-tags="dash" />
<glyph unicode="&#xe031;" d="M 243.272,77.28c-29.184,0-54.64-25.456-54.64-54.64S 214.080-32, 243.272-32c 29.2,0, 54.656,25.456, 54.656,54.64
					S 272.472,77.28, 243.272,77.28z M 368.28,441.088C 340.584,467.28, 303.168,480, 256,480C 170.664,480, 118.264,419.376, 101.8,366.976
					c0-0.76-1.496-4.496-1.496-4.496c0-2.248-0.752-3.752-0.752-5.992c0-13.472, 10.48-22.456, 23.952-22.456l 50.152,0 
					c 11.232,0, 20.96,6.728, 23.2,17.968c 5.984,22.456, 31.44,47.896, 62.88,47.896c 19.464,0, 35.176-6.744, 46.416-17.2
					c 11.224-11.232, 16.464-20.216, 16.464-35.192c0-11.232-2.24-21.712-9.728-30.688c-35.184-44.168-114.528-76.352-116.768-150.464
					c0-13.48, 11.224-23.936, 24.696-23.936l 48.656,0 c 13.472,0, 23.96,11.968, 23.96,25.44c 4.496,20.208, 20.96,36.68, 35.928,49.4
					c 32.944,29.944, 56.144,53.152, 65.872,71.12c 10.48,17.2, 17.216,35.928, 17.216,56.144C 412.448,379.712, 396.728,414.136, 368.28,441.088z" data-tags="question" />
<glyph unicode="&#xe01a;" d="M 48.648,224A50.352,50.352 180 1 1 149.352,224A50.352,50.352 180 1 1 48.648,224zM 210.192,224A50.352,50.352 180 1 1 310.896,224A50.352,50.352 180 1 1 210.192,224zM 371.744,224A50.352,50.352 180 1 1 472.448,224A50.352,50.352 180 1 1 371.744,224z" data-tags="more-01" />
<glyph unicode="&#xe032;" d="M 49.648,353.968l 413.488,0 c 24.008,0, 43.472,21.872, 43.472,46.152s-19.464,43.952-43.472,43.952L 49.648,444.072 
				c-24.016,0-43.48-19.68-43.48-43.952S 25.632,353.968, 49.648,353.968z M 463.136,271.344L 49.88,271.344 c-24.008,0-43.472-20.288-43.472-44.56
				s 19.464-43.424, 43.472-43.424l 413.248,0 c 24.008,0, 43.472,19.152, 43.472,43.424S 487.144,271.344, 463.136,271.344z M 463.136,92.136L 48.864,92.136 
				c-24.016,0-43.472-20.928-43.472-45.192c0-24.28, 19.456-43.008, 43.472-43.008l 414.264,0 c 24.008,0, 43.472,18.728, 43.472,43.008
				C 506.6,71.2, 487.144,92.136, 463.136,92.136z" data-tags="rows" />
<glyph unicode="&#xe033;" d="M-0.024,288.008c0-106.088, 85.936-192.016, 192.016-192.016c 37.928,0, 72.896,10.664, 102.528,29.632
				l 144.608-145.2c 8.296-8.296, 19.552-12.448, 30.224-12.448c 11.264,0, 21.928,4.152, 30.224,12.448c 16.592,16.592, 16.592,43.856,0,60.456
				l-145.2,144.6c 18.968,29.632, 29.632,64.6, 29.632,102.528c0,106.088-85.936,192.016-192.016,192.016
				C 85.904,480.024-0.024,394.096-0.024,288.008z M 63.984,288.008c0,70.52, 57.488,128.016, 128.008,128.016C 262.512,416.024, 320,358.528, 320,288.008
				s-57.488-128.016-128.008-128.016C 121.464,159.992, 63.984,217.488, 63.984,288.008z" data-tags="search" />
<glyph unicode="&#xe01b;" d="M 486.336,196.072c-1.592-8-8.528-14.408-17.064-14.408c0,0-3.736,0-10.672,0
					c-35.2,0-126.928,1.6-209.592,25.072c-6.408,1.6-11.736,7.472-12.808,14.4c-1.064,6.936, 2.136,13.864, 8,18.136l 67.2,44.264
					c-8,8.528-16,16-25.6,21.336c-17.6,10.664-37.336,15.472-57.072,13.328c-19.728-1.592-38.928-10.136-55.992-25.064
					c-18.136-15.472-30.408-33.6-36.264-54.4c-11.736-40.528, 4.8-98.664, 45.328-129.6c 20.264-16, 46.4-25.592, 74.136-28.8
					c 27.736-2.664, 55.472,0.528, 82.664,13.864c 15.472,7.472, 34.664,1.064, 42.664-14.928c 6.408-13.864, 2.144-30.408-9.592-39.472l-0.544-0.528
					c-32-24-75.192-41.6-116.792-43.2c-42.136-1.6-85.328,11.2-123.728,33.6c-39.472,22.928-74.136,56-95.472,96.528c-20.8,39.472-29.864,88-21.864,136
					c 3.736,23.464, 11.2,46.928, 22.4,68.264c 11.736,21.328, 26.136,40, 42.672,56.528c 32.528,33.064, 83.728,56, 133.328,62.928
					c 11.736,1.6, 22.928,2.136, 34.664,2.136c 38.4,0, 76.808-10.136, 109.336-29.864c 22.928-13.328, 43.192-30.4, 59.72-50.136l 50.672,59.2
					c 4.8,5.328, 12.264,7.472, 18.672,5.328c 6.92-2.136, 12.264-8, 12.8-14.928C 510.864,317.136, 487.392,200.864, 486.336,196.072z" data-tags="refresh" />
<glyph unicode="&#xe034;" d="M 418.136-32c-46.4,0-84.264,33.064-92.264,77.336L 147.744,138.664C 132.808,128, 114.144,121.6, 93.872,121.6
					c-51.736,0-93.864,42.128-93.864,93.856s 42.136,93.864, 93.864,93.864c 20.264,0, 38.928-6.4, 53.864-17.072l 176.528,92.808l0,1.064 
					c0,51.736, 42.128,93.864, 93.856,93.864S 512,437.856, 512,386.128s-42.136-93.864-93.864-93.864c-20.264,0-38.928,6.408-53.864,17.072
					l-176.52-92.8L 187.752,214.4 L 351.472,128c 17.072,17.064, 40.528,27.728, 66.664,27.728C 469.864,155.728, 512,113.6, 512,61.864S 469.864-32, 418.136-32z" data-tags="socialshare" />
<glyph unicode="&#x20;" horiz-adv-x="256" />
</font>
</defs>
</svg>
