<?xml version="1.0" encoding="utf-8"?>
<!-- Generator: Adobe Illustrator 25.0.1, SVG Export Plug-In . SVG Version: 6.00 Build 0)  -->
<svg version="1.1" id="Layer_1" xmlns="http://www.w3.org/2000/svg" xmlns:xlink="http://www.w3.org/1999/xlink" x="0px" y="0px"
	 viewBox="0 0 1042 440" style="enable-background:new 0 0 1042 440;" xml:space="preserve">
<style type="text/css">
	.st0{fill-rule:evenodd;clip-rule:evenodd;fill:#D8D8D8;}
	.st1{filter:url(#filter-2);}
	.st2{fill-rule:evenodd;clip-rule:evenodd;}
	.st3{fill-rule:evenodd;clip-rule:evenodd;fill:#FFFFFF;stroke:#DDDBDA;stroke-width:0.9984;}
	.st4{filter:url(#filter-5);}
	.st5{filter:url(#Adobe_OpacityMaskFilter);}
	.st6{fill-rule:evenodd;clip-rule:evenodd;fill:#FFFFFF;}
	.st7{mask:url(#mask-4_1_);fill:#6A1492;fill-opacity:0;}
	.st8{opacity:0.1;}
	.st9{fill:#F7F7FD;}
	.st10{opacity:0.2;}
	.st11{fill:#6A1492;}
	.st12{fill:#FFFFFF;}
	.st13{opacity:0.1;fill:#6A1492;enable-background:new    ;}
	.st14{opacity:0.1;enable-background:new    ;}
	.st15{fill:#FFD037;}
	.st16{fill:#A8A8A8;}
	.st17{opacity:0.2;enable-background:new    ;}
	.st18{fill:#D38884;}
	.st19{fill:#4C4981;}
	.st20{opacity:5.000000e-02;enable-background:new    ;}
	.st21{fill:#CEDDF9;}
	.st22{fill:#CC8294;}
	.st23{fill:#1E1637;}
	.st24{fill:#626696;}
	.st25{fill:url(#Shape_3_);}
	.st26{fill:#DB8B8B;}
	.st27{fill:#2E3037;}
	.st28{fill:#474463;}
	.st29{fill:#FC6681;}
	.st30{fill:#472727;}
	.st31{fill:none;stroke:#565987;stroke-width:0.9984;}
	.st32{opacity:0.6852;fill-rule:evenodd;clip-rule:evenodd;fill:url(#Path_198_);enable-background:new    ;}
	.st33{fill:#EBEBF7;}
	.st34{fill:#0070D2;}
	.st35{fill:#FFD2C6;}
	.st36{fill:#FFCDE5;}
	.st37{fill:#985C7E;}
	.st38{filter:url(#filter-9);}
	.st39{filter:url(#filter-11);}
</style>
<filter  filterUnits="objectBoundingBox" height="113.2%" id="filter-9" width="113.2%" x="-6.6%" y="-4.0%">
	<feOffset  dx="0" dy="3" in="SourceAlpha" result="shadowOffsetOuter1"></feOffset>
	<feGaussianBlur  in="shadowOffsetOuter1" result="shadowBlurOuter1" stdDeviation="2"></feGaussianBlur>
	<feColorMatrix  in="shadowBlurOuter1" type="matrix" values="0 0 0 0 0   0 0 0 0 0   0 0 0 0 0  0 0 0 0.57383632 0">
		</feColorMatrix>
</filter>
<filter  filterUnits="objectBoundingBox" height="102.7%" id="filter-5" width="101.2%" x="-0.6%" y="-0.7%">
	<feOffset  dx="0" dy="3" in="SourceAlpha" result="shadowOffsetOuter1"></feOffset>
	<feGaussianBlur  in="shadowOffsetOuter1" result="shadowBlurOuter1" stdDeviation="1.5"></feGaussianBlur>
	<feComposite  in="shadowBlurOuter1" in2="SourceAlpha" operator="out" result="shadowBlurOuter1"></feComposite>
	<feColorMatrix  in="shadowBlurOuter1" type="matrix" values="0 0 0 0 0   0 0 0 0 0   0 0 0 0 0  0 0 0 0.1 0"></feColorMatrix>
</filter>
<filter  filterUnits="objectBoundingBox" height="102.7%" id="filter-2" width="101.3%" x="-0.7%" y="-0.7%">
	<feOffset  dx="0" dy="3" in="SourceAlpha" result="shadowOffsetOuter1"></feOffset>
	<feGaussianBlur  in="shadowOffsetOuter1" result="shadowBlurOuter1" stdDeviation="1.5"></feGaussianBlur>
	<feComposite  in="shadowBlurOuter1" in2="SourceAlpha" operator="out" result="shadowBlurOuter1"></feComposite>
	<feColorMatrix  in="shadowBlurOuter1" type="matrix" values="0 0 0 0 0   0 0 0 0 0   0 0 0 0 0  0 0 0 0.1 0"></feColorMatrix>
</filter>
<filter  filterUnits="objectBoundingBox" height="130.1%" id="filter-11" width="138.4%" x="-19.2%" y="-9.0%">
	<feOffset  dx="0" dy="3" in="SourceAlpha" result="shadowOffsetOuter1"></feOffset>
	<feGaussianBlur  in="shadowOffsetOuter1" result="shadowBlurOuter1" stdDeviation="2"></feGaussianBlur>
	<feColorMatrix  in="shadowBlurOuter1" type="matrix" values="0 0 0 0 0   0 0 0 0 0   0 0 0 0 0  0 0 0 0.57383632 0">
		</feColorMatrix>
</filter>
<g id="Getting-Started-Header">
	<rect id="Rectangle" class="st0" width="1042" height="440"/>
	<g id="Group-2">
		
			<g id="Rectangle-Copy" transform="translate(534.000000, 231.500000) scale(1, -1) translate(-534.000000, -231.500000) translate(75.000000, 11.000000)">
			<g class="st1">
				<path id="path-1_1_" class="st2" d="M5,0h907.6c2.8,0,5,2.2,5,5v430.3c0,2.8-2.2,5-5,5H5c-2.8,0-5-2.2-5-5V5C0,2.2,2.2,0,5,0z"
					/>
			</g>
			<path class="st3" d="M5.5,0.5h906.6c2.8,0,5,2.2,5,5v429.3c0,2.8-2.2,5-5,5H5.5c-2.8,0-5-2.2-5-5V5.5C0.5,2.7,2.7,0.5,5.5,0.5z"
				/>
		</g>
		<g id="Combined-Shape" transform="translate(521.500000, 220.500000) scale(1, -1) translate(-521.500000, -220.500000) ">
			<g id="Mask">
				<g class="st4">
					<path id="path-3_3_" class="st2" d="M0,0h1042.3v435.3c0,2.8-2.2,5-5,5H5c-2.8,0-5-2.2-5-5V0L0,0z"/>
				</g>
				<path class="st3" d="M1041.8,0.5v434.8c0,1.2-0.5,2.4-1.3,3.2c-0.8,0.8-1.9,1.3-3.2,1.3l0,0H5c-1.2,0-2.4-0.5-3.2-1.3
					s-1.3-1.9-1.3-3.2l0,0V0.5H1041.8z"/>
			</g>
			<defs>
				<filter id="Adobe_OpacityMaskFilter" filterUnits="userSpaceOnUse" x="47.9" y="-342.5" width="944.5" height="661.7">
					<feColorMatrix  type="matrix" values="1 0 0 0 0  0 1 0 0 0  0 0 1 0 0  0 0 0 1 0"/>
				</filter>
			</defs>
			<mask maskUnits="userSpaceOnUse" x="47.9" y="-342.5" width="944.5" height="661.7" id="mask-4_1_">
				<g class="st5">
					<path id="path-3_2_" class="st6" d="M0,0h1042.3v435.3c0,2.8-2.2,5-5,5H5c-2.8,0-5-2.2-5-5V0L0,0z"/>
				</g>
			</mask>
			<path class="st7" d="M455.8-314.7c11.1,0,20-1,20-2.3c0-1.3-9.1-2.3-20.4-2.3s-20.4,1-20.4,2.3s9.1,2.3,20.4,2.3L455.8-314.7z
				 M79.2,293.2C119,339,182.9,347,240.1,340.5c40.3-4.6,79.7-14.9,117.1-30.5c18.9-7.9,37.4-17.1,55.9-26.2l4.1-2
				c24-11.8,48.1-23.3,73.2-31.4c46.1-14.7,98.6-16.6,139.2,11.8l0,0l-11.1-9.4l0.1,0.1c50.8,39,115.1,56.3,176.4,46.6l2.1-0.3
				c68.8-11.5,132.4-56.9,170.1-121.6c15.9-27.2,27.6-59.1,24.8-91.3c-1.5-17.8-7.4-34.7-13.3-51.4c-9.9-27.7-20.1-55.2-30.8-82.5
				c-10-25.6-20.7-51.5-37.9-72c-23.8-28.4-57.7-43.7-91.6-53.6C762.2-189.8,703-194.1,645-185.8c-68.3,9.8-139.5,36.7-204,10
				c-24.6-10.1-46.1-27.5-69.5-40.6c-65.7-36.5-147-36.9-212.9-0.9c-20.2,11-41.4,30.4-39,55.2c2.5,25.6,27.6,39.1,48.1,51.4
				c26.5,16,52,41.5,54.2,74.7c2.4,35.9-23.5,66.7-51.3,85.3c-9.9,6.6-20.3,12.3-30.7,18l-3.5,1.9c-17.7,9.7-35.3,19.7-50.1,34.1
				C38.2,150.3,34.8,242.3,79.2,293.2z M618.5,252.8l-1.6-1.2c-5.1-4-10.1-8.2-14.9-12.7L618.5,252.8z"/>
		</g>
		<g id="undraw_x5F_product_x5F_tour_x5F_foyt-_x28_1_x29_" transform="translate(48.000000, 105.000000)">
			<g id="Group" transform="translate(495.213946, 4.992076)" class="st8">
				<path id="Path" d="M4.3,1.3L0.8,203.3c0,0,127.1,0,235.2,34.8L238.1,34C238.1,34,64.7-7.1,4.3,1.3z"/>
			</g>
			<path id="Path_1_" class="st9" d="M493.8,1.1l-3.5,202.6c0,0,127.8,0,236.5,34.9L728.8,34C728.8,34,554.5-7.3,493.8,1.1z"/>
			<g id="Group_1_" transform="translate(199.683043, 10.982567)" class="st8">
				<path id="Path_2_" d="M234.4,1.6l3.5,202.1c0,0-127.1,0-235.2,34.8L0.6,34.3C0.6,34.3,174-6.7,234.4,1.6z"/>
			</g>
			<path id="Path_3_" class="st9" d="M438.8,6.1l3.5,202.6c0,0-127.8,0-236.5,34.9L203.7,39C203.7,39,378.1-2.2,438.8,6.1z"/>
			<g id="Group_2_" transform="translate(254.595880, 29.952456)" class="st10">
				<path id="Path_4_" class="st11" d="M124.5,1.4l1.9,107.4c0,0-67.5,0-124.9,18.5L0.3,18.8C0.3,18.8,92.4-3.1,124.5,1.4z"/>
			</g>
			<g id="Group_3_" transform="translate(808.716323, 78.874802)" class="st8">
				<path id="Path_5_" d="M0.6,0.6v201.2c0,0,41.3-4.9,128,102.3l7.7-201.2C136.3,103,46.1,5.5,0.6,0.6z"/>
			</g>
			<path id="Path_6_" class="st9" d="M805.7,77.9v201.8c0,0,41.3-4.9,128.1,102.7l7.7-201.8C941.5,180.6,851.2,82.8,805.7,77.9z"/>
			<g id="Group_4_" transform="translate(0.000000, 78.874802)" class="st8">
				<path id="Path_7_" d="M136.2,0.6v201.2c0,0-41.3-4.9-128,102.3L0.5,103C0.5,103,90.7,5.5,136.2,0.6z"/>
			</g>
			<path id="Path_8_" class="st9" d="M138.8,77.9v201.8c0,0-41.3-4.9-128,102.7L3,180.6C3,180.6,93.3,82.8,138.8,77.9z"/>
			<g id="Group_5_" transform="translate(530.158479, 44.928685)" class="st10">
				<polygon id="Path_9_" class="st11" points="0.4,0.3 83.8,14.9 83.8,26.7 0.4,11.1 				"/>
			</g>
			<polygon id="Path_10_" class="st12" points="361.4,165.7 277.6,180 277.6,191.7 361.4,176.3 			"/>
			<polygon id="Path_11_" class="st12" points="531.2,65.9 688.9,99.8 688.9,112.8 531.2,77.8 			"/>
			<polygon id="Path_12_" class="st12" points="531.2,88.9 688.9,122.7 688.9,135.8 531.2,100.7 			"/>
			<g id="Group_6_" transform="translate(841.664025, 138.779715)" class="st10">
				<polygon id="Path_13_" class="st11" points="0.5,0.3 0.5,12.3 35.2,42 36.8,31.7 				"/>
			</g>
			<polygon id="Path_14_" class="st12" points="841.7,247.6 841.7,258.8 876.9,286.5 878.6,276.9 			"/>
			<polygon id="Path_15_" class="st12" points="841.2,159.7 840.7,170.8 905.6,230.6 904.5,218 			"/>
			<polygon id="Path_16_" class="st12" points="840.7,181.7 840.7,192.6 905.6,255.6 905.6,241.5 			"/>
			<g id="Group_7_" transform="translate(40.935024, 143.771791)" class="st10">
				<polygon id="Path_17_" class="st11" points="63.9,0.9 64.4,12.1 0.2,73.1 1.3,60.3 				"/>
			</g>
			<g id="Group_8_" transform="translate(40.935024, 164.738510)" class="st10">
				<polygon id="Path_18_" class="st11" points="64.4,0.2 64.4,10.9 0.2,73 0.2,59.1 				"/>
			</g>
			<ellipse id="Oval" class="st13" cx="189.2" cy="480.7" rx="52.4" ry="8.5"/>
			<path id="Path_19_" class="st11" d="M63.7,429.3c0,0,5,6.9-2.3,17.3c-7.3,10.4-13.3,19.2-10.9,25.7c0,0,11-19.3,20-19.6
				C79.4,452.4,73.5,441,63.7,429.3z"/>
			<path id="Path_20_" class="st14" d="M63.5,429.3c0.4,0.7,0.8,1.4,1,2.2c8.8,10.8,13.6,20.9,5.1,21.2c-7.9,0.2-17.5,15-19.7,18.7
				c0.1,0.3,0.2,0.6,0.3,0.8c0,0,11.1-19.3,20.2-19.6C79.5,452.4,73.5,441,63.5,429.3z"/>
			<path id="Path_21_" class="st15" d="M74.9,439.6c0,2-0.2,3.7-0.5,3.7s-0.5-1.6-0.5-3.7c0-2,0.3-1.1,0.6-1.1
				S74.9,437.6,74.9,439.6z"/>
			<path id="Path_22_" class="st15" d="M76.7,442.3c-1.9,1.4-3.6,2.3-3.8,1.9c-0.1-0.3,1.3-1.8,3.3-3.2c1.9-1.4,1.2-0.4,1.3,0
				C77.6,441.4,78.6,440.9,76.7,442.3z"/>
			<path id="Path_23_" class="st11" d="M38.2,429.3c0,0-5,6.9,2.3,17.3s13.3,19.2,10.9,25.6c0,0-11-19.3-20-19.6
				C22.4,452.4,28.3,441,38.2,429.3z"/>
			<path id="Path_24_" class="st14" d="M38.3,429.3c-0.4,0.7-0.8,1.4-1,2.2c-8.8,10.8-13.6,20.9-5.1,21.2c7.9,0.2,17.5,15,19.7,18.7
				c-0.1,0.3-0.2,0.6-0.3,0.8c0,0-11.1-19.3-20.2-19.6C22.3,452.4,28.4,441,38.3,429.3z"/>
			<path id="Path_25_" class="st15" d="M26,439.6c0,2,0.2,3.7,0.5,3.7s0.5-1.6,0.5-3.7c0-2-0.3-1.1-0.6-1.1S26,437.6,26,439.6z"/>
			<path id="Path_26_" class="st15" d="M23.2,442.3c1.9,1.4,3.6,2.3,3.8,1.9c0.1-0.3-1.3-1.8-3.3-3.2s-1.2-0.4-1.3,0
				S21.2,440.9,23.2,442.3z"/>
			<path id="Path_27_" class="st16" d="M30,470.7c0,0,14.5-0.4,18.9-3.4c4.4-3,22.3-6.5,23.4-1.7c1.1,4.7,21.8,23.5,5.4,23.6
				c-16.4,0.1-38-2.4-42.4-4.9S30,470.7,30,470.7z"/>
			<path id="Path_28_" class="st17" d="M77.9,487.7c-16.4,0.1-38-2.2-42.4-4.5c-3.3-1.8-4.6-8.1-5.1-11H30c0,0,0.9,10.1,5.3,12.4
				s26,4.6,42.4,4.5c4.7,0,6.4-1.5,6.3-3.7C83.2,486.9,81.4,487.7,77.9,487.7z"/>
			<ellipse id="Oval_1_" class="st13" cx="608.5" cy="367.9" rx="87.4" ry="15.5"/>
			<path id="Path_29_" class="st18" d="M590,169.3c-0.4,0.9-0.6,1.8-0.8,2.8c0,0.2-0.1,0.5-0.1,0.8c-0.5,2.7-0.8,6.2-1,8.2
				c-0.1,1-0.1,1.7-0.1,1.7s-17.5-1.3-14.5-4.6c0.8-0.9,1.3-2,1.6-3.2c0.1-0.3,0.2-0.7,0.2-1.1c0.1-0.8,0.2-1.6,0.3-2.5
				c0-0.2,0-0.4,0-0.6c0-1.3,0-2.7-0.2-4c0,0,5.7,0,10,0.5C588.3,167.6,590.5,168.3,590,169.3z"/>
			<path id="Path_30_" class="st18" d="M556.7,263.6c-7.2-0.2-1.9-14.7-1.1-16.6c0.8-1.9-1.2-6.7-1.2-6.7s-2.4-13.8-2.4-14.7
				c-0.1-1.9-0.4-3.7-0.8-5.6c-0.3-1.9,0.1-3.8,1-5.5c0.8-1.3,0.7-6.3,0.7-6.3v-6.5l1.6-2l4.1,3.8l1.1,1l2,7.3l-0.7,10.4l-0.4,10.1
				l2.5,14C563.1,246.3,563.9,263.8,556.7,263.6z"/>
			<polygon id="Path_31_" class="st14" points="559.1,204.7 554.1,202.4 554.1,201.6 555.4,199.7 558.8,203.1 			"/>
			<path id="Path_32_" class="st19" d="M556.5,192.7c-0.8,1.9-1.4,3.8-1.7,5.8c-0.3,1.9-0.9,3.7-1.6,5.5l7,2.7L556.5,192.7z"/>
			<path id="Path_33_" class="st20" d="M556.5,192.7c-0.8,1.9-1.4,3.8-1.7,5.8c-0.3,1.9-0.9,3.7-1.6,5.5l7,2.7L556.5,192.7z"/>
			<path id="Path_34_" class="st18" d="M606,332.9l-0.5,1.1c0,0-0.6,3.8-0.6,3.9c0,0.1-1.7,2.6-1.7,2.6l-4.2,0.9l-1.8-0.2
				c-0.1-1-0.3-2.1-0.5-3.1c-0.1-0.3-0.1-0.6-0.2-0.9c-0.6-2.4-1.6-4.6-2.9-6.7c0,0-3.1-7.7-4.2-8.7c-1.1-1-5.3-11.2-4.9-13.7
				c0.2-1.3,0-5.9-0.2-9.7c-0.2-3.1-0.4-5.7-0.4-5.7l10.5-6.3l1.2,2l0.7,1.2c0,0,0,0.2,0,0.6v0.1c-0.1,1.6-0.4,3.1-0.9,4.6
				c0,0-0.8,5.7,0,6.7c0.8,1,3.3,14.5,3.8,20.7c0,0.2,0,0.4,0,0.6c0.2,2.9,2,5.4,3.7,7.3l0,0c0.1,0.1,0.2,0.2,0.3,0.4
				C604.3,331.5,605.2,332.2,606,332.9L606,332.9z"/>
			<path id="Path_35_" class="st14" d="M600.8,341.2l2.1,0.2l4.9-1c0,0,1.9-2.7,1.9-2.8s0.7-4.1,0.7-4.1l0.6-1.2l0.1-0.1
				c-1.2-0.8-2.3-1.6-3.3-2.5l0,0c-0.1-0.1-0.2-0.2-0.3-0.3s0.7,3.9-3,5.6c-1.8,0.8-3.3,1.5-4.3,1.9L600.8,341.2z"/>
			<path id="Path_36_" class="st21" d="M611,332.3l-0.7,1.4c0,0-0.6,4-0.6,4.1c0,0.1-1.8,2.8-1.8,2.8l-4.6,1l-2.7-0.3
				c0-0.5-0.1-1.2-0.2-2.1c-0.1-0.5-0.2-1.1-0.3-1.8c1-0.4,2.6-1.2,4.6-2.2c3.5-1.7,2.9-5.6,2.9-5.6c0.8,0.7,1.6,1.4,2.4,2.1
				C610.4,331.9,610.8,332.1,611,332.3z"/>
			<path id="Path_37_" class="st14" d="M611,334.3l-0.7,1.5c0,0-0.7,4.4-0.7,4.5c0,0.1-1.9,3.1-1.9,3.1l-4.8,1.1l-2.7-0.3
				c0-0.6-0.1-1.4-0.2-2.4c0.6,0,1.2,0.1,1.7,0.2c0,0,6.5,1.4,6.8-3.9c0.2-3,0.8-4.2,1.3-4.7C610.4,333.8,610.8,334.1,611,334.3z"/>
			<path id="Path_38_" class="st22" d="M607.4,332.7c0,0-1.4-0.3-1.7,4.3c-0.3,4.6-5.9,3.4-5.9,3.4s-2.8-0.7-2.8,0.5
				c0.1,1.1,0.3,2.2,0.7,3.2c0,0,0.2,2.8,0.7,3.4c0.5,0.7,0.2,3.1,0.2,3.1s0.2,1.8,4.6,0c0,0,3.9-0.8,7.1-5.9
				c0.1-0.2-0.4-0.7,2.4-1.7c2.8-1.1,10.8-7.8,10.2-11.1c-0.1-1.1-0.9-2-1.9-2.4c-0.8-0.2-1.8-0.1-2.5,0.4c-0.8,0.4-1.5,0.8-2.4,1.1
				c-1.1,0.5-2.2,0.7-3.4,0.8c-0.9,0.1-1.8,0.3-2.6,0.5C609.3,332.8,608.4,332.9,607.4,332.7z"/>
			<path id="Path_39_" class="st18" d="M574.8,302c-0.7,0.5-1.2,1.1-1.7,1.8c-1.7,2.5-2.7,5.9-3.8,7.4c-1.5,1.9-1.9,5.7-1.9,5.7
				c-0.4,2.5-5.8,15.7-7.2,18c-1.5,2.3-3.5,8.7-3.5,8.7c-1.2,1.5-1.2,3.8-1,4.8c0,0.2,0,0.3,0.1,0.4c0.1,0.1,0,0.2,0,0.2v0.1l-2,3.3
				l-6.3-0.9l-3.3-2.2c0.3-0.4,0.5-0.9,0.7-1.3c1.8-3.8,3-10.6,3-10.6s1.8-7.7,1.6-9.5c0-2.5,0.2-4.9,0.5-7.4c0,0,5-14.8,6.6-17.2
				c0.7-0.9,1.1-2,1.2-3.2c0-0.2,0-0.5,0-0.7l2.1-2.1C559.9,297.5,577.5,299.9,574.8,302z"/>
			<path id="Path_40_" class="st14" d="M557.1,346.9c0,0,0,0.2,0,0.6v0.3l-2.1,3.7l-6.5-1l-3.4-2.4c0.3-0.5,0.5-1,0.7-1.5
				c1.6-0.5,5.4,0.9,5.4,0.9S555.3,348.3,557.1,346.9C557.1,347,557.1,346.9,557.1,346.9z"/>
			<path id="Path_41_" class="st21" d="M554.1,357.8l-6.2,1.6l-5.7-4.7l0.3-2.6c0.4-0.3,0.8-0.6,1-1c0.4-0.5,0.7-1.2,0.8-1.9
				c0.3-1.9,5.7,0.2,5.7,0.2s4,0.8,5.5-0.6c-0.1,1.3,0,2.6,0.3,3.8c0.1,0.6,0.5,1.1,0.9,1.5C558.4,355.4,554.1,357.8,554.1,357.8z"
				/>
			<path id="Path_42_" class="st14" d="M554.1,356.1l-6.2,1.4l-5.7-3.9l0.3-2.2c0.4-0.2,0.8-0.5,1-0.9c0.4,0,0.9,0,1.2,0
				c0.9,0.1,3.2,3.9,3.2,3.9c5.6,0.3,7.3-1.4,7.9-2.6c0.1,0.5,0.5,1,0.9,1.3C558.4,354,554.1,356.1,554.1,356.1z"/>
			<path id="Path_43_" class="st22" d="M549.8,355.4c0,0-2.3-3.8-3.3-3.9c-0.8,0-1.7,0-2.5,0c0,0-2.6,5.5-3.5,6s-2.3,3.1-2.3,3.1
				s6.8,6,13.4,4.8c2.1,0,4.2,0.5,6,1.4c3,1.4,15.8,0.4,17.3-2.2c1.2-1.9,1.6-3.3,0.6-4.3c-0.6-0.6-1.5-0.9-2.4-0.7
				c-1.6,0.2-5.2,0.2-8.3-3.3c0,0-5.8-4.8-6.3-4.8S558.9,355.9,549.8,355.4z"/>
			<path id="Path_44_" class="st14" d="M600,289.3L600,289.3c-0.5,0.5-3.5,3.5-4.4,3.7c-1.5,0.5-3,1.1-4.5,1.8c0,0-1.9,2.3-3.3,2.4
				c-0.4,0.1-0.9,0.2-1.3,0.3c-0.2-3.1-0.4-5.7-0.4-5.7l11.8-6.3l1.4,2C599.5,288.3,599.9,289,600,289.3L600,289.3z"/>
			<path id="Path_45_" class="st21" d="M559.1,245.7c0,0-4.4,5.4,0,12.6c2.4,4,5.4,7.7,9,10.8l14.9,29.4c0,0,3.9-2,5.3-2.1
				c1.4-0.1,3.2-2.4,3.2-2.4c1.4-0.7,2.8-1.3,4.3-1.8c1-0.2,4.2-3.7,4.2-3.7s-1.6-3.4-1.3-4.3c0.4-0.9-1.1-3.2-1.1-3.2
				c-0.4-1.1-0.8-2.3-1-3.5c0-0.9-1.5-3-1.5-3s-1.5-2.3-1.5-3.5c0-1.2-2.3-6.1-2.3-6.1l-0.6-21.4L559.1,245.7z"/>
			<path id="Path_46_" class="st20" d="M600,288.5c0,0-3.3,3.5-4.2,3.7c-1.5,0.5-2.9,1.1-4.3,1.8c0,0-1.8,2.2-3.2,2.4
				c-1,0.2-2,0.5-2.9,1c-1.3,0.5-2.4,1.1-2.4,1.1l-14.9-29.4c-1.3-1.1-2.5-2.3-3.6-3.5c-2-2.3-3.8-4.7-5.4-7.3
				c-1.7-2.6-2.3-5.7-1.7-8.8c0.3-1.4,0.9-2.7,1.7-3.9l10.6-0.7l21.2-1.4l0.2,6.3l0.4,15c0,0,0.3,0.8,0.8,1.7
				c0.7,1.4,1.2,2.8,1.5,4.3c0,1.2,1.5,3.5,1.5,3.5s1.5,2.1,1.5,3c0.2,1.2,0.5,2.4,1,3.5c0,0,1.4,2.2,1.1,3.1
				C598.4,285.1,600,288.5,600,288.5z"/>
			<path id="Path_47_" class="st14" d="M577.8,300.5c-0.6,0.6-1.1,1.2-1.5,2c-5.8,0.5-12.4-3-14.2-3.9c0-0.2,0-0.5,0-0.8l2-2.3
				C564.1,295.5,580.3,298.1,577.8,300.5z"/>
			<path id="Path_48_" class="st21" d="M594.1,252.7c0,0-1,3.2-1.3,4.6c-0.3,1.4-1.1,8.1-1.1,8.1l-0.4,1.9l-6.7,31.2l-1.5,6.8
				c-2.6,1.4-9.1-2.3-9.1-2.3c-7.6,0.8-16.9-3.9-16.9-3.9s1.5-4.8,1.2-7.2c-0.4-2.4,2.1-4.4,2.1-4.4c-0.6-2.2,1.5-11.7,1.5-11.7
				s0.5-3.5,2.3-4.5c1.8-0.9-0.2-2.3-0.7-3.1c-0.2-0.7-0.1-1.4,0.2-2.1c0.2-0.5,0.3-1,0.5-1.6c-4.5-4.4-5.2-11.2-5.2-15
				c0-0.9,0-1.8,0.1-2.8l9.7-1.7l21.3-3.6l2.2,6.5l0,0l0.5,1.6L594.1,252.7z"/>
			<path id="Path_49_" class="st14" d="M592,169.2c-0.4,0.8-0.7,1.7-0.9,2.6c-0.1,0.2-0.1,0.5-0.2,0.7c-1.9,1.2-3,1.2-5.4,1.2
				c-0.8,0-1.3-1.5-2.1-1.7c0,0-1.2-4.1-1.5-0.6c-2.2-0.4-4.2,1.2-5.7-0.2l0,0c0-0.2,0-0.4,0-0.6c0-1.3,0-2.6-0.2-3.8
				c0,0,6.2,0,10.9,0.5C590.1,167.6,592.6,168.2,592,169.2z"/>
			<path id="Path_50_" class="st18" d="M599,160.2c0,3.7-1.7,7.3-4.6,9.7s-6.7,3.3-10.4,2.6l0,0c-5.6-1.2-9.8-6-10-11.8
				s3.5-10.9,9.1-12.5c5.5-1.6,11.4,0.9,14.3,5.9C598.5,156,599.1,158.1,599,160.2z"/>
			<path id="Path_51_" class="st14" d="M589.1,181.6c-0.1,1.3-0.1,2.1-0.1,2.1s-18.7-1.7-15.5-5.8c0.8-1.2,1.4-2.6,1.7-4.1l8.1,1.8
				c0,0,2.3,2.4,4.1,4.6C587.9,180.7,588.5,181.2,589.1,181.6z"/>
			<path id="Path_52_" class="st14" d="M594.1,252.5c-0.9,0.1-1.9,0.1-2.8-0.2c-0.4-0.1-0.8-0.3-1.1-0.5c-1.8-1.2-7.8,0.3-7.8,0.3
				s-16.3,1.2-17.1,0c-0.4-0.7-3.3-0.6-5.7-0.4c-1,0.1-1.8,0.2-2.4,0.3c0.3-1.6,0.9-3.1,1.7-4.4l10.8-0.8l21.7-4.1l2.2,7.3l0,0
				C593.6,250.8,593.8,251.7,594.1,252.5L594.1,252.5z"/>
			<path id="Path_53_" class="st19" d="M584.5,174.5l-11.3-1.8c-0.4,0.9-1.2,1.5-2.1,1.8c-1.5,0.3-8.2,3.8-11.2,7.8l-3,4.1
				c0,0-2.4,3-1.6,5.3c0.8,2.4,1.7,10.5,1.7,10.5l1.2,9c0,0,2.2,6.5,1.5,9.3c-0.7,2.8,0.3,14.8,0.3,14.8l-2.3,14.8c0,0,7.9-1,8.6,0
				c0.7,1,16.4,0,16.4,0s5.7-1.3,7.5-0.2c1.2,0.6,2.5,0.9,3.8,0.7c0,0-1.4-4.7-0.6-7.3c0.8-2.6,0.6-7.4,0.6-7.4s1.2-6.9,0.6-8.2
				c-0.6-1.2,1.3-5.8,1.3-5.8l6.1-31.7c0,0-0.7-5.7-4-7.6s-7-2.5-8.9-4.3C587.1,176.5,584.5,174.5,584.5,174.5z"/>
			<path id="Path_54_" class="st18" d="M586.1,207.2v3.7l3.6,9.4l1.3,8.7c0,0,2.3,6.2,2.3,8.4c0,2.2,5.7,12.6,5.7,12.6
				s1.6,3.5,0.8,4.2c-0.8,0.7-7.6,15.7,1,15.2c8.5-0.4,5.8-16.1,5.8-16.1l-1.2-6.8c0,0-1.6-17-1.6-18.3c0,0-2.1-7.3-2.3-8.8
				c-0.2-1.6-1.8-9.6-1.8-9.6l-1.3-5.2L586.1,207.2z"/>
			<polygon id="Path_55_" class="st14" points="584.1,218.7 572.6,226.3 569.1,232.6 573.8,227 			"/>
			<path id="Path_56_" class="st14" d="M581.1,232.6c0,0-5.3,4-7.8,4s-8.2,6.9-8.2,6.9s8.1-6.2,8.8-6
				C574.5,237.8,581.1,232.6,581.1,232.6z"/>
			<path id="Path_57_" class="st14" d="M565.9,233.6c0,0-6.1,4.5-4.5,5c1.6,0.5,9.7-5,9.7-5H565.9z"/>
			<path id="Path_58_" class="st14" d="M590.6,216.7c0,0-4.6,5.1-3.3,5c1.2-0.1,4.8-3,4.8-3L590.6,216.7z"/>
			<path id="Path_59_" class="st14" d="M591.1,221.6c0,0-5.2,5.4-5,6.8C586.3,229.9,591.1,221.6,591.1,221.6z"/>
			<path id="Path_60_" class="st14" d="M590.1,225.6c0,0-1.5,5.7-0.8,6.9C589.9,233.7,590.1,225.6,590.1,225.6z"/>
			<path id="Path_61_" class="st14" d="M588.6,210.7c0,0-0.9,4.5-0.3,4.9c0.7,0.3,0.7,0,0.7,0L588.6,210.7z"/>
			<path id="Path_62_" class="st14" d="M589.1,197.7c-0.7,2.4-1.7,4.7-2.9,7c-0.5-1.1-0.8-2.3-1.1-3.5
				C586.3,199.9,587.6,198.7,589.1,197.7L589.1,197.7z"/>
			<path id="Path_63_" class="st14" d="M593.1,154.1c-0.2,0.5-0.5,0.9-0.8,1.3c-0.6,0.5-1.1,1.1-1.5,1.7c-0.3,1-0.5,2-0.5,3
				c-0.2,1-0.8,2.1-1.8,2.1c-0.5,0-1-0.2-1.5-0.4c-0.5-0.2-1-0.2-1.4,0c-0.3,0.3-0.5,0.7-0.5,1.1c-0.1,0.9-0.2,1.8-0.1,2.6
				c0,0.4,0,0.7,0.1,1c0.3,1.1,0.2,2.3-0.2,3.3c-0.5,0.8-1.2,1.4-2,1.7c-0.9,0.4-1.9,0.7-2.9,0.8l0,0c-1.9,0.2-3.8,0.3-5.6,0.2
				c-0.2,0-0.3,0-0.5-0.1c-0.1,0-0.2-0.1-0.2-0.1c0.2-1.1,0.3-2.1,0.3-3.2c-3.4-3.4-4.6-8.6-3-13.2c1.6-4.6,5.7-7.8,10.5-8.3
				S590.7,149.8,593.1,154.1z"/>
			<path id="Path_64_" class="st23" d="M588.1,141.8c-1.1-0.1-2.1,0.5-3.1,0.7c-2.2,0.5-4.4-0.5-6.6-0.5c-1.9,0.1-3.8,0.7-5.5,1.6
				c-1.3,0.6-2.6,1.5-3.6,2.6c-1.1,1.1-1.7,2.5-1.7,4c0.1,0.9,0.1,1.8-0.1,2.6c-0.2,0.4-0.5,0.8-0.8,1.2c-0.6,0.9-0.7,2-0.4,3
				c0.4,1,1.1,1.9,1.8,2.7c1.4,1.9,2.3,4.1,3.6,6.1c0.6,0.9,1.2,1.7,1.9,2.4c0.1,0.1,0.3,0.2,0.4,0.3c0.2,0.1,0.3,0.1,0.5,0.1
				c2.7,0.1,5.6,0.1,8.1-0.9c0.8-0.3,1.5-0.8,1.9-1.6c0.4-1,0.4-2.1,0.2-3.1c-0.1-1.2-0.1-2.3,0.1-3.5c0-0.4,0.2-0.8,0.4-1
				c0.4-0.3,0.9-0.3,1.4,0c0.4,0.2,0.9,0.4,1.4,0.4c0.9,0,1.5-1.1,1.7-2c-0.2-1.7,0.5-3.4,1.9-4.4c1.3-1.7,1.8-3.9,1.2-6
				C592.2,144.5,590.3,142,588.1,141.8z"/>
			<path id="Path_65_" class="st14" d="M601,198c-0.2,1.5-0.2,3,0,4.6c-0.1,1.2,0,8,0,8c-3.5-1.1-12.6,1.1-12.6,1.1l-1.1-3.3
				c-0.6-0.8-1.1-1.7-1.3-2.7c-0.3-1.1-0.6-2.2-0.8-3.3c-0.5-2.3-0.8-4.6-1.1-6.9c-0.5-3.5,4.6-7.3,8.5-9.4c3.8-2.1,7.2,6.8,7.2,6.8
				S601.4,196.3,601,198z"/>
			<path id="Path_66_" class="st19" d="M601,197.1c-0.2,1.5-0.2,3,0,4.6c-0.1,1.2,0,8,0,8c-3.5-1.1-12.6,1.1-12.6,1.1l-1.1-3.3
				c-0.6-0.8-1.1-1.7-1.3-2.7c-0.3-1.1-0.6-2.2-0.8-3.3c-0.5-2.3-0.8-4.6-1.1-6.9c-0.5-3.5,4.6-7.3,8.5-9.4s7.2,6.8,7.2,6.8
				S601.4,195.3,601,197.1z"/>
			<path id="Path_67_" class="st17" d="M592.8,149.5c-0.2-0.6-0.4-1.2-0.8-1.8c0.1,0.2,0.1,0.3,0.1,0.5c0.6,2.1,0.1,4.5-1.2,6.2
				c-1.4,1.1-2.2,2.8-1.9,4.6c-0.1,1-0.7,2.1-1.7,2.1c-0.5,0-1-0.2-1.4-0.4c-0.4-0.2-1-0.2-1.4,0c-0.3,0.3-0.4,0.7-0.4,1.1
				c-0.2,1.2-0.2,2.4-0.1,3.6c0.1,1.1,0.3,2.3-0.2,3.3c-0.5,0.8-1.1,1.3-2,1.6c-2.5,1.1-5.4,1.1-8.1,1c-0.2,0-0.3,0-0.5-0.1
				c-0.2-0.1-0.3-0.2-0.4-0.3c-0.7-0.8-1.3-1.6-1.9-2.5c-1.3-2.1-2.2-4.4-3.7-6.3c-0.4-0.5-0.9-1-1.2-1.6v0.1c0.4,1,1.1,2,1.8,2.8
				c1.4,1.9,2.4,4.3,3.6,6.3c0.6,0.9,1.2,1.7,1.9,2.5c0.1,0.1,0.2,0.3,0.4,0.3c0.2,0.1,0.3,0.1,0.5,0.1c2.8,0.1,5.6,0.1,8.1-1
				c0.8-0.3,1.5-0.9,2-1.6c0.4-1,0.4-2.2,0.2-3.3c-0.1-1.2-0.1-2.4,0.1-3.6c0-0.4,0.2-0.8,0.4-1.1c0.4-0.3,1-0.3,1.4,0
				c0.4,0.2,0.9,0.4,1.4,0.4c1,0,1.6-1.1,1.7-2.1c0-1,0.2-2,0.5-2.9c0.4-0.6,0.9-1.2,1.4-1.7C592.9,154,593.4,151.7,592.8,149.5z"/>
			<path id="Path_68_" class="st14" d="M651,364.5l-4.7,1.1l-8.9,0.7c0,0-10.5,0.9-8.1-4.5c0.2-0.4,0.3-0.7,0.4-1.1l0,0
				c0.1-0.3,0.2-0.5,0.2-0.8c1.8,0.1,3.6,0.5,5.3,1.2c3,1.3,5.2-2.1,5.2-2.1l1.5-3.2l0.2-0.5c0.3,0.6,0.6,0.9,0.6,0.9
				c0.4,0.8,0.9,1.5,1.5,2l-0.3,0.6l-1.4,3.4c0,0,1.8,0.2,4.3,0.7c1,0.3,2-0.3,2.3-1.5h0.2c0.7,0.2,1.2,0.3,1.2,0.3L651,364.5z"/>
			<path id="Path_69_" class="st24" d="M654.9,367.4c-0.3,1.7-9.3,2.2-9.3,2.2s-5-0.6-6.4,0.8c-1.4,1.3-5.5,1-5.7,1
				s-2.3-0.1-3.2-4.6c-0.9-4.5,1.1-5.1,1.2-5.2l0,0c1.7,0,3.5,0.4,5.1,1.1c2.7,1.2,4.8-2,4.8-2l1.5-3.3c0.3,0.5,0.5,0.8,0.5,0.8
				c0.3,0.7,0.8,1.3,1.4,1.8l-1.5,3.7c0,0,1.7,0.2,3.9,0.6c0.5,0.1,1.1,0,1.6-0.4c0.4-0.4,0.7-1,0.7-1.6c0-0.1,0-0.2,0-0.3
				c0,0,1.4,0.5,3.2,1C654.2,363.6,655.2,365.5,654.9,367.4L654.9,367.4z"/>
			<path id="Path_70_" class="st14" d="M671.9,357.4l-0.4,3l-5.5-1.7l-7.4-2.9l-3.6-2.5c0,0,0-0.2,0.1-0.7c0,0,0-0.1,0-0.1
				c0-0.2,0.1-0.4,0.1-0.7h0.5l0,0c1.1-0.1,2.1,0.1,3.1,0.5c1.2,0.5,2.8,1.2,3.1,0.9c0.6-0.3,1.2-0.4,1.8-0.4l0.8-2.1l0.1-0.3
				c0.2,0.8,0.6,1.5,1,2.1c0.2,0.3,0.4,0.5,0.6,0.7v0.7l0,1c0.8,0.6,1.7,1.1,2.7,1.5c0.2,0.1,0.5,0.1,0.7,0l0,0l0.5,0.3
				c0.5,0.2,1.1,0.5,1.7,0.6l0,0L671.9,357.4z"/>
			<path id="Path_71_" class="st24" d="M670.2,365.2c-1.6-0.5-5.4-1.3-6-0.7c-0.6,0.6-5.9,0-5.9,0c-1.1,0-2.2-0.7-2.7-1.8
				c-1.1-1.9-0.2-8-0.2-8h0.4l0.7-0.1l0,0c1.1-0.1,2.2,0,3.2,0.5c1.2,0.5,2.9,1.1,3.2,0.9c0.6-0.3,1.2-0.4,1.8-0.4l0.9-2.2
				c0.2,0.7,0.6,1.4,1.1,2c0.2,0.2,0.4,0.5,0.6,0.7l-0.1,1.6c0.9,0.6,1.8,1.1,2.7,1.4c0.5,0.2,1,0,1.3-0.5c0-0.1,0.1-0.2,0.1-0.2
				l0,0c0.7,0.4,1.5,0.6,2.2,0.8l0,0c2.1-0.2,4,1.3,4.4,3.5C678.7,365.4,671.8,365.7,670.2,365.2z"/>
			<g id="Group_9_" transform="translate(620.015848, 165.736926)" class="st8">
				<path id="Path_72_" d="M1.5,1.4C1.3,1,1.2,0.6,1.1,0.2C1.2,0.6,1.3,1,1.5,1.4z"/>
			</g>
			<ellipse id="Oval_2_" class="st13" cx="118.3" cy="370.9" rx="19.5" ry="2.5"/>
			<path id="Path_73_" class="st11" d="M126.5,337.5c0,0-23.3,13.2-11.3,28.8c0.7,2,2.5,3.3,4.4,3.1c0,0-0.7-1.3,1.8-2.4
				c0.9-0.4,1.7-0.9,2.5-1.5c1.1-0.8,1.9-2,2.3-3.3l0,0c0,0,4.8-7,1.1-20c0,0,0.5-3.7,0.1-4.3l-2.8,4.3c0,0,2.9,2.2,3.3,5.3
				c0,0-3-5.3-3.7-4.7c-0.1,0.1-1.4,2.3-1.4,2.3s5.1,3.8,5.4,8.7c0,0-2.9-6.9-5.9-7.9l-1.7,3.5c0,0,5.5,3.7,6.2,9.3
				c0,0-3.2-7.1-6.5-8.5l-1.3,3.7c0,0,5.3,3.7,5.8,8.4c0,0-4.5-7.8-6.1-7.5c0,0-1,3.4-0.8,4.5c0,0,3.8,2.8,3.8,5.5
				c0,0-3.5-4.8-4-4.5c0,0-0.2,4.9,0.8,7.4c-1.1-2.3-1.6-4.8-1.5-7.4c-1.1,1-1.9,2.4-2.2,4c0,0-1-2.7,2.3-5.1c0,0,0.3-3.8,0.7-4.3
				c0,0-3.6,1.9-5.1,4.3c0,0,0.6-3.5,5.4-5.3l1.2-3.7c0,0-4.8,2.3-6.3,4.2c0,0,1.1-3.5,6.8-5.2l1.7-3.4c0,0-4.3,1.6-6.4,3.4
				c0,0,1.6-3,6.9-4.4l1.4-2.1c0,0-3.1,1.2-4,1.7c-0.9,0.4-1,0.2-1,0.2c1.6-1.5,3.5-2.5,5.6-2.8
				C123.8,341.8,126.7,337.7,126.5,337.5z"/>
			
				<linearGradient id="Shape_3_" gradientUnits="userSpaceOnUse" x1="-478.8531" y1="653.7758" x2="-478.8531" y2="654.7758" gradientTransform="matrix(65.8954 0 0 -260.5864 31736.9336 170849.2969)">
				<stop  offset="0" style="stop-color:#808080;stop-opacity:0.25"/>
				<stop  offset="0.54" style="stop-color:#808080;stop-opacity:0.12"/>
				<stop  offset="1" style="stop-color:#808080;stop-opacity:0.1"/>
			</linearGradient>
			<path id="Shape" class="st25" d="M151.3,360c2.7,1.6,6.8,2.6,12.1-0.8l-0.1,7.5c0.4,5.1,6.7,23.8,6.7,23.8l4.5,15.4
				c3.2,10.9,4.9,22.1,4.9,33.4c-0.1,3.6,0.4,7.1,1.4,10.5c2.4,6.5-0.9,14.8-2.4,17.8c-2.7,0.9-5.4,1.6-7.4,2.1
				c-0.2,0.1-0.4,0.1-0.7,0.2v0c0,0-6.7,2.7-9.7,2.3c-2.2-0.3-3.6,2.5-1.8,4.5c-1.4,0.4-3,0.6-4.5,0.6c-3-0.4-4.5,4.8,1.1,6.2
				s37.3,0,37.3,0c1.8-0.9,2.8-3,2.4-5c2.4-0.1,4-0.2,4-0.2s5.6-2.6,0-9.5l-0.3,0.2l-1.2-3.5v-4.8c0,0,7.1-34.1,4.8-38.1
				c-2.2-4-3.4-24.5-3.4-24.5l0.7-22.4c2-4.2,3.1-10.7,3.6-15.8c0.8-2.4,1.2-5,1.4-7.5c0.1-1.2,0.2-2.5,0.2-3.8
				c0-2.9-0.4-5.7-1.4-8.4c2.5-3.8,5.3-7.3,8.4-10.6c2.6-2.4,3.9-6,3.4-9.5l-1.8-12.5l-4.5-21.2c0.6-5.9-0.7-9.3-2-11.2
				c0.3-1.9,0.6-3.8,0.9-5.7c1-8.3,0.5-16.7-1.3-24.9c-0.6-2.8-1.5-5.8-3.5-7.9c-2.3-2.4-5.9-3.9-6.8-7.1c-0.1-0.8-0.3-1.6-0.5-2.4
				c-0.8-2.1-3.4-2.9-5.7-3.1c-4-0.5-9.9-0.9-13.7,0.7c-2.7,1.1-6.5,4.2-7.9,7.4c-0.9,1.4-1.2,3-0.9,4.6c0.1,0.5,0.4,1.1,0.6,1.6
				c-0.6,1.6-0.9,3.2-0.9,4.9c0,5.9,3.6,11.1,9.1,13.3c0.1,0.3,0.2,0.6,0.2,0.8c0.2,0.7,0.3,1.3,0.4,2c-0.1,1.3-0.1,2.6-0.2,3.9
				c0,0.2-0.1,0.4-0.1,0.5c-3.2,1.4-6.3,3-9.4,4.8c2.2,3.3-0.4,17.2-0.4,17.2c-5.6,3.3-11.2,11.7-5.2,20.5c6,8.8,2.6,18.2,2.6,18.2
				l-0.9,14.3l0,0l0,0l-0.2,2.9h0.1l-0.1,1.1h0.2v1.2c-2.6,0.9-6.5,2.9-8.7,6.5c-1.1,1.8-2.4,3.4-3.9,4.8c-0.8,0.6-1.1,1.5-1.1,2.5
				C149.9,358.7,150.4,359.5,151.3,360L151.3,360z M196.3,321.9c-0.2-2.5,0.2-5,1.3-7.2c0.9,0,1.8,0,2.6,0c0.1,0.6,0.2,1.2,0.3,1.7
				C201.3,319.7,198.3,321.3,196.3,321.9z"/>
			<path id="Path_74_" class="st26" d="M197.2,466.1l1.5,4.2l-4.8,4.5l-15.8,3.5l-11.4-1l0.7-3.8l0,0c0.4-1.7,1.8-3,3.6-3.4
				c4.7-1,13.6-3.4,15.5-6.7L197.2,466.1z"/>
			<path id="Path_75_" class="st14" d="M197.2,466.1l1.5,4.2l-4.8,4.5l-15.8,3.5l-11.4-1l0.7-3.8l0,0c0.4-1.7,1.8-3,3.6-3.4
				c4.7-1,13.6-3.4,15.5-6.7L197.2,466.1z"/>
			<path id="Path_76_" class="st27" d="M169.9,476.2l2.2-3.2l-2.2-3.7c0,0-6.6,2.9-9.6,2.5c-2.9-0.4-4.4,5.2,1.1,6.7
				c5.5,1.6,36.8,0,36.8,0s5.5-2.8,0-10.3l-4.8,4c0,0-8.1,4.8-12.1,4H169.9z"/>
			<path id="Path_77_" class="st26" d="M160.7,482.2l11.4,1l15.8-3.5l4.8-4.5l-0.4-1.1l-0.5-1.6l-0.5-1.5l-10.6-2.8
				c-0.5,0.8-1.3,1.5-2.2,2.1c-3.5,2.2-9.7,3.9-13.3,4.7l-0.5,0.1c-0.7,0.2-1.4,0.6-1.9,1.1c-0.6,0.6-1.1,1.3-1.3,2.2L160.7,482.2z"
				/>
			<path id="Path_78_" class="st14" d="M160.7,482l11.4,1.3l15.8-4.2l4.8-5.5l-0.4-1.3l-4.4,3.8c0,0-8.1,5-12.1,4.2h-11.4l2.2-3.4
				l-2-3.5c-0.7,0.3-1.4,0.7-1.9,1.3c-0.6,0.7-1.1,1.6-1.3,2.6L160.7,482z"/>
			<path id="Path_79_" class="st27" d="M166.9,481.2l2.2-3.2l-2.2-3.7c0,0-6.6,2.9-9.6,2.5s-4.4,5.2,1.1,6.7c5.5,1.6,36.8,0,36.8,0
				s5.5-2.8,0-10.3l-4.8,3.9c0,0-8.1,4.8-12.1,4L166.9,481.2z"/>
			<path id="Path_80_" class="st26" d="M173.7,271.4c0,0,15.9,1.6,13.6-4.8c-0.6-1.8-0.8-3.7-0.5-5.6c0.4-2.3,1.4-4.5,2.8-6.4
				l-14.9,2.2c0.9,1.4,1.6,3,2,4.6C178.5,268.1,173.7,271.4,173.7,271.4z"/>
			<path id="Path_81_" class="st28" d="M203.7,354.4c0,0-0.4,15.4-4.1,23l-0.8,21.9c0,0,1.1,20.1,3.4,24.1c2.3,4-4.9,37.4-4.9,37.4
				v5.7c0,0-12.1,4.3-15.5-0.7l3.5-42.8l-1.5-59.3L203.7,354.4z"/>
			<path id="Path_82_" class="st14" d="M203.7,354.4c0,0-0.4,15.4-4.1,23l-0.8,21.9c0,0,1.1,20.1,3.4,24.1c2.3,4-4.9,37.4-4.9,37.4
				v5.7c0,0-12.1,4.3-15.5-0.7l3.5-42.8l-1.5-59.3L203.7,354.4z"/>
			<path id="Path_83_" class="st29" d="M210.5,302.5l2.2,6.1l1.9,12.9c0.5,3.6-0.7,7.3-3.3,9.9c-4.5,4.6-10.4,14.1-10.4,14.1
				l-7.1-21.6c0,0,7.1-1.1,6-6.1c-1.1-4.9-0.7-14.1-0.7-14.1L210.5,302.5z"/>
			<path id="Path_84_" class="st20" d="M210.5,302.5l2.2,6.1l1.9,12.9c0.5,3.6-0.7,7.3-3.3,9.9c-4.5,4.6-10.4,14.1-10.4,14.1
				l-7.1-21.6c0,0,7.1-1.1,6-6.1c-1.1-4.9-0.7-14.1-0.7-14.1L210.5,302.5z"/>
			<path id="Path_85_" class="st14" d="M177.7,469.6c4.9,8,12.6,3.5,14,2.6l-0.6-1.7l-11.2-3.2C179.4,468.2,178.6,469,177.7,469.6
				L177.7,469.6z"/>
			<path id="Path_86_" class="st28" d="M160.7,368.3c0.4,5,6.9,23.3,6.9,23.3l4.6,15.1c3.3,10.6,5,21.7,5,32.7
				c-0.1,3.5,0.4,7,1.5,10.3c3.1,7.9-3.1,18.6-3.1,18.6c5.4,9,14.6,2.9,14.6,2.9v-5.7c0,0,7.3-31.2,5.4-37.3s-2.7-22.6-2.7-22.6
				v-29.8c6.1-5.7,9.8-13.3,10.5-21.4c0.1-1.2,0.2-2.4,0.2-3.7c0.3-8.1-5.6-17.6-7.9-21c-0.6-0.8-0.9-1.3-0.9-1.3L161,341h-0.1v1.2
				v2.7L160.7,368.3z"/>
			<path id="Path_87_" class="st14" d="M176.7,254.5c0.9,1.9,1.6,3.9,2,6c3.3,1.6,6.9,1.4,10.1-0.5c0.4-3.1,1.4-5.9,2.8-8.5
				L176.7,254.5z"/>
			<circle id="Oval_3_" class="st26" cx="183.2" cy="248.1" r="13.5"/>
			<path id="Path_88_" class="st14" d="M165.7,345.1h0.1c14.5,2.9,32.8-11.9,32.8-11.9c-0.5-0.8-0.9-1.6-1.3-2.5
				c-0.5-0.8-0.8-1.2-0.8-1.2L166,341.4l-0.1,1.2L165.7,345.1z"/>
			<path id="Path_89_" class="st29" d="M167.9,273.8c0,0,20.7-11.9,27.3-7l9.2,11.2c0,0,5.9,1.7,4.8,13l4.4,20.4l-13.3,3.2
				c0,0-7.8,7-1.5,17.2c0,0-19.6,15.4-35.1,12.3l1.1-16.5c0,0,3.3-9.1-2.6-17.6c-5.9-8.4-0.4-16.5,5.2-19.7
				C167.5,290.2,170.1,276.9,167.9,273.8z"/>
			<path id="Path_90_" class="st26" d="M165.5,345.5c0,0-6.6,1.4-9.7,6.8c-0.9,1.6-2,3.1-3.3,4.5c-0.6,0.6-0.9,1.4-0.8,2.3
				c0.1,0.9,0.5,1.6,1.2,2.1c2.5,1.6,6.5,2.6,11.6-2C173.3,351.2,165.5,345.5,165.5,345.5z"/>
			<path id="Path_91_" class="st14" d="M178.8,279.8c0,0,7.1-0.7,8.9,18.2s4.6,23.3,4.6,23.3s1.8,9.8-2.5,15.6
				c-4.3,5.8-12.4,18.2-12.4,18.2s-8.9,2.6-10.7-6.5l11-21.1c0,0,1.8-7.3-2.5-12.4C171,310,167.8,276.2,178.8,279.8z"/>
			<path id="Path_92_" class="st29" d="M178.8,276.8c0,0,7.1-0.7,8.9,18.2c1.8,18.9,4.6,23.3,4.6,23.3s1.8,9.8-2.5,15.6
				c-4.3,5.8-12.4,18.2-12.4,18.2s-8.9,2.6-10.7-6.5l11-21.1c0,0,1.8-7.3-2.5-12.4C171,307,167.8,273.2,178.8,276.8z"/>
			<path id="Path_93_" class="st14" d="M171.8,288.5c0,0-0.7,11.6,2.5,17.9c3.2,6.3,3.2,14.5,0,19"/>
			<path id="Path_94_" class="st14" d="M169.7,277.6c0,0,2.9-3.3,11.1-3.7c8.2-0.4,11.8-3.3,11.8-3.3"/>
			<path id="Path_95_" class="st14" d="M189.7,230c2.1,0.3,4.6,1,5.3,3.1c0.2,0.8,0.4,1.6,0.5,2.4c0.8,3.2,4.3,4.7,6.4,7.1
				c1.9,2.1,2.7,5,3.3,7.9c1.8,8.1,2.2,16.5,1.2,24.7c-0.7,6-2.1,12-2.5,18c-0.4,6.1,0.3,12.4,3.5,17.5c1.4,2.2,3.2,4.1,4.2,6.5
				c-2,1.7-4.8,1.9-7.4,2c-3,0.1-6,0.1-9,0c-1.6,0.1-3.2-0.3-4.6-1c-1-0.7-1.8-1.6-2.4-2.7c-1.7-3-2.2-6.7-2.1-10.2
				c0.1-3.5,0.6-7,0.7-10.6c0-1.9-0.1-4-1.2-5.5c-0.9-1.1-1.9-2-3-2.8c-3.8-3.5-5-9-5.2-14.2s0.7-10.4,0.3-15.6
				c-0.2-2-0.9-4.5-2.8-4.9c-0.6,0-1.2-0.1-1.8-0.2c-1.6-0.6-1.4-2.9-1.8-4.5c-0.5-1.9-2-3.3-2.5-5.2c-1-4.4,4.4-9.7,7.9-11.2
				C180.4,229.2,185.9,229.6,189.7,230z"/>
			<path id="Path_96_" class="st30" d="M189.7,230c2.1,0.3,4.6,1,5.3,3.1c0.2,0.8,0.4,1.6,0.5,2.4c0.8,3.2,4.3,4.7,6.4,7.1
				c1.9,2.1,2.7,5.1,3.3,7.9c1.7,8.1,2.2,16.5,1.2,24.7c-0.7,6-2.1,12-2.5,18.1c-0.4,6.1,0.3,12.4,3.5,17.5c1.4,2.2,3.2,4.1,4.2,6.5
				c-2,1.7-4.8,1.9-7.4,2c-3,0.1-6,0.1-9.1,0c-1.6,0.1-3.2-0.3-4.6-1c-1-0.7-1.8-1.6-2.4-2.7c-1.7-3-2.2-6.7-2.1-10.2
				c0.1-3.5,0.6-7,0.7-10.6c0-1.9-0.1-4-1.2-5.5c-0.9-1-1.9-2-3-2.8c-3.8-3.5-5.1-9-5.2-14.2s0.7-10.4,0.3-15.6
				c-0.2-2-0.9-4.5-2.8-4.9c-0.6,0-1.2-0.1-1.8-0.2c-1.6-0.6-1.4-2.9-1.8-4.5c-0.5-1.9-2-3.3-2.5-5.2c-1-4.4,4.4-9.7,7.9-11.2
				C180.3,229.2,185.9,229.6,189.7,230z"/>
			<ellipse id="Oval_4_" class="st13" cx="862.1" cy="534.7" rx="21.5" ry="3.5"/>
			<ellipse id="Oval_5_" class="st13" cx="774.3" cy="543.6" rx="21.5" ry="3.5"/>
			<ellipse id="Oval_6_" class="st13" cx="676.4" cy="533.7" rx="21.5" ry="3.5"/>
			<ellipse id="Oval_7_" class="st13" cx="810.7" cy="570.6" rx="16" ry="2.5"/>
			<ellipse id="Oval_8_" class="st13" cx="720.9" cy="568.6" rx="16" ry="2.5"/>
			<path id="Path_97_" class="st11" d="M774.5,543.1c0,0,30.5-102.8-4.8-143.9c-26.4-30.8-56.3-27.1-69.8-23.3
				c-7,1.9-12.9,6.9-16,13.7c-4.7,10.4-3.8,27.3,29.3,47c55.4,33,58.9,78.2,58.9,78.2L774.5,543.1z"/>
			<path id="Path_98_" class="st31" d="M703.9,391.4c0,0,92.6,28.5,71.9,150.8"/>
			<path id="Path_99_" class="st31" d="M783.8,414.3c0,0-14.8,8.8-10.1,22"/>
			<path id="Path_100_" class="st31" d="M739.8,421.3c0,0,7.2-8.1,16-3.6"/>
			<path id="Path_101_" class="st31" d="M774.8,461.3c0,0,12.7-7.9,16,2"/>
			<path id="Path_102_" class="st31" d="M809.7,476.3c0,0-10.8-1-11,4.9"/>
			<path id="Path_103_" class="st11" d="M775.8,546.1c0,0-36.4-75.5-46.4-73.9c-4.7,0.8-6.9,5.5-7.9,10.4c-1.2,6.2-0.5,12.6,2,18.4
				C728.6,513.1,742.4,536,775.8,546.1z"/>
			<path id="Path_104_" class="st31" d="M730.8,487.2c0,0,39.3,57.4,46.9,59.9"/>
			<line id="Path_105_" class="st31" x1="750.8" y1="505.7" x2="760.8" y2="505.7"/>
			<line id="Path_106_" class="st31" x1="761.8" y1="527.3" x2="775.8" y2="528"/>
			<line id="Path_107_" class="st31" x1="771.8" y1="511.2" x2="770.8" y2="518.2"/>
			<line id="Path_108_" class="st31" x1="785.4" y1="530.2" x2="785.1" y2="537.1"/>
			<path id="Path_109_" class="st11" d="M774.8,546.1c0,0,36.4-75.5,46.4-73.9c4.8,0.8,6.9,5.5,7.9,10.4c1.2,6.2,0.5,12.6-2,18.4
				C821.9,513.1,808.1,536,774.8,546.1z"/>
			<path id="Path_110_" class="st31" d="M822.7,487.2c0,0-39.3,57.4-46.9,59.9"/>
			<line id="Path_111_" class="st31" x1="852.6" y1="505.7" x2="842.7" y2="505.7"/>
			<line id="Path_112_" class="st31" x1="839.7" y1="527.3" x2="825.7" y2="528"/>
			<line id="Path_113_" class="st31" x1="830.7" y1="511.2" x2="831.7" y2="518.2"/>
			<line id="Path_114_" class="st31" x1="816.1" y1="530.2" x2="816.3" y2="537.1"/>
			<path id="Path_115_" class="st11" d="M712,562.6c-1-0.8-1.7-2-2-3.3c-0.3-1.3,0.3-2.7,1.4-3.3c1.3-0.5,2.7,0.4,3.8,1.4
				c1,1,2.3,2.1,3.7,1.9c-1.5-1.4-2.1-3.5-1.7-5.5c0.1-0.4,0.2-0.8,0.5-1.1c0.7-0.8,2.1-0.5,2.9,0.2c2.7,2.1,3.6,6.1,3.6,9.6
				c0.1-1.3,0.1-2.7,0-4c-0.1-1.3,0.4-2.7,1.4-3.5c0.7-0.4,1.4-0.6,2.2-0.5c1.3-0.2,2.5,0.2,3.5,1.1c1.1,1.2,0.8,3.2-0.1,4.5
				c-1,1.2-2.3,2.3-3.7,3.1c-1,0.7-1.9,1.5-2.6,2.6c-0.1,0.1-0.1,0.3-0.2,0.5h-7.8C715,565.2,713.4,564,712,562.6L712,562.6z"/>
			<path id="Path_116_" class="st11" d="M874.8,542.6c-1-0.8-1.7-2-2-3.3c-0.3-1.3,0.3-2.7,1.4-3.3c1.3-0.5,2.7,0.4,3.8,1.4
				s2.3,2.1,3.7,1.9c-1.5-1.4-2.1-3.5-1.7-5.5c0.1-0.4,0.2-0.8,0.5-1.1c0.7-0.8,2.1-0.5,2.9,0.2c2.7,2.1,3.6,6.1,3.6,9.6
				c0.1-1.3,0.1-2.7,0-4c-0.1-1.3,0.4-2.7,1.4-3.5c0.7-0.4,1.4-0.6,2.2-0.5c1.3-0.2,2.5,0.2,3.5,1.1c1.1,1.2,0.8,3.2-0.1,4.5
				c-1,1.2-2.3,2.3-3.7,3.1c-1,0.7-1.9,1.5-2.6,2.6c-0.1,0.1-0.1,0.3-0.2,0.5h-7.8C877.8,545.2,876.2,544,874.8,542.6L874.8,542.6z"
				/>
			<path id="Path_117_" class="st11" d="M806.9,562.6c-1-0.8-1.7-2-2.1-3.3c-0.3-1.3,0.3-2.7,1.4-3.3c1.3-0.5,2.7,0.4,3.8,1.4
				c1,1,2.3,2.1,3.6,1.9c-1.5-1.4-2.1-3.5-1.7-5.5c0.1-0.4,0.2-0.8,0.5-1.1c0.7-0.8,2-0.5,2.9,0.2c2.7,2.1,3.6,6.1,3.6,9.6
				c0.2-1.3,0.2-2.6,0.1-4c-0.1-1.3,0.4-2.7,1.4-3.5c0.7-0.4,1.4-0.6,2.2-0.5c1.3-0.2,2.5,0.2,3.5,1.1c1.1,1.2,0.8,3.2-0.1,4.5
				c-1,1.2-2.3,2.3-3.6,3.1c-1,0.6-1.9,1.5-2.6,2.6c-0.1,0.1-0.1,0.3-0.2,0.5h-7.8C809.9,565.2,808.3,564,806.9,562.6L806.9,562.6z"
				/>
			<path id="Path_118_" class="st11" d="M699.6,515.2c0,0-3,3.7,1.4,9.2c4.4,5.6,8,10.3,6.5,13.7c0,0-6.6-10.3-12-10.5
				S693.7,521.4,699.6,515.2z"/>
			<path id="Path_119_" class="st14" d="M699.7,515.2c-0.3,0.4-0.5,0.7-0.6,1.2c-5.3,5.8-8.1,11.2-3,11.3c4.8,0.1,10.5,8,11.8,10
				c0,0.2-0.1,0.3-0.2,0.5c0,0-6.7-10.3-12.1-10.5C690.1,527.5,693.7,521.4,699.7,515.2z"/>
			<path id="Path_120_" class="st15" d="M693,519.2c0,1.6,0.2,3,0.4,3c0.2,0,0.4-1.3,0.4-3s-0.2-0.9-0.4-0.9S693,517.6,693,519.2z"
				/>
			<path id="Path_121_" class="st15" d="M689.9,521.7c1.6,0.3,2.9,0.6,3,0.5s-1-0.4-2.6-0.8s-0.9-0.1-1.1,0
				C689.1,521.4,688.3,521.3,689.9,521.7z"/>
			<path id="Path_122_" class="st11" d="M716.1,515.2c0,0,3,3.7-1.4,9.2c-4.4,5.6-8,10.3-6.5,13.7c0,0,6.6-10.3,12-10.5
				S722,521.4,716.1,515.2z"/>
			<path id="Path_123_" class="st14" d="M716,515.2c0.3,0.4,0.5,0.7,0.6,1.2c5.3,5.8,8.1,11.2,3,11.3c-4.7,0.1-10.5,8-11.8,10
				c0,0.2,0.1,0.3,0.2,0.5c0,0,6.7-10.3,12.1-10.5C725.6,527.5,722,521.4,716,515.2z"/>
			<path id="Path_124_" class="st15" d="M720.7,519.2c0,1.6-0.2,3-0.4,3s-0.4-1.3-0.4-3s0.2-0.9,0.4-0.9
				C720.6,518.4,720.7,517.6,720.7,519.2z"/>
			<path id="Path_125_" class="st15" d="M722.9,521.7c-1.6,0.3-2.9,0.6-3,0.5s1-0.4,2.6-0.8s0.9-0.1,1.1,0S724.5,521.3,722.9,521.7z
				"/>
			<path id="Path_126_" class="st16" d="M693.9,525.5c0,0-8.3-0.2-10.8-1.9c-2.5-1.7-12.8-3.7-13.4-1s-12.5,13.6-3.1,13.6
				c9.4,0.1,21.8-1.4,24.3-2.8S693.9,525.5,693.9,525.5z"/>
			<path id="Path_127_" class="st17" d="M666.4,536.1c9.4,0.1,21.8-1.6,24.3-3.2c1.9-1.2,2.7-5.7,2.9-7.7h0.3c0,0-0.5,7.2-3,8.8
				c-2.5,1.6-14.9,3.3-24.3,3.2c-2.7,0-3.7-1.1-3.6-2.6C663.3,535.5,664.4,536.1,666.4,536.1z"/>
			<ellipse id="Oval_9_" class="st13" cx="130.3" cy="546.6" rx="32.4" ry="5.5"/>
			<ellipse id="Oval_10_" class="st13" cx="574.6" cy="491.7" rx="21.5" ry="2.5"/>
			<ellipse id="Oval_11_" class="st13" cx="449.8" cy="548.6" rx="21.5" ry="2.5"/>
		</g>
		<g id="undraw_x5F_product_x5F_tour_x5F_foyt-_x28_3_x29_" transform="translate(1.000000, 103.000000)">
			
				<linearGradient id="Path_198_" gradientUnits="userSpaceOnUse" x1="-437.579" y1="656.5104" x2="-438.579" y2="656.5104" gradientTransform="matrix(1040.4536 0 0 -322.3724 456321.125 211817.0156)">
				<stop  offset="0" style="stop-color:#2E79DC"/>
				<stop  offset="1" style="stop-color:#7715A1"/>
			</linearGradient>
			<path id="Path_128_" class="st32" d="M639.9,85c-44.5,24.7-102.2,23.1-152.8,10.2c-50.6-12.8-97.1-35.7-146.4-52
				c-41.1-13.6-84.4-22.5-128.6-26.6C149.2,11,79.1,18,35.3,57.9C12.5,78.7,0.1,107.4,0,136.3c0,0.3,0,0.7,0,1.3v195.9
				c0.5,1.7,1,2.7,1.4,3.1c0.4,0.4,1.3,0.6,2.8,0.8c170.6,0,342.2,0,514.7,0s345,0,517.5,0c1.7-0.3,2.6-0.6,2.8-0.8
				c1.2-1.4,1.6-3,1.2-4.9v-99.2c0-0.6,0-1,0-1.3c0.4-25.6-13.7-50.8-29.7-72.5c-41.5-56.3-111.3-95.9-186.9-106
				s-155.6,9.6-214.2,52.6"/>
			<g id="Group_10_" transform="translate(544.136292, 3.993661)" class="st8">
				<path id="Path_129_" d="M4.3,1.3L0.8,206.7c0,0,128.1,0,237.2,35.4l2.1-207.5C240.1,34.6,65.2-7.2,4.3,1.3z"/>
			</g>
			<path id="Path_130_" class="st33" d="M545.7,1.1l-3.5,205.1c0,0,128.3,0,237.5,35.4l2.1-207.2C781.8,34.4,606.7-7.4,545.7,1.1z"
				/>
			<g id="Group_11_" transform="translate(247.606973, 8.985737)" class="st8">
				<path id="Path_131_" d="M236.4,1.6l3.5,205.4c0,0-128.1,0-237.1,35.4L0.6,34.9C0.6,34.9,175.5-6.9,236.4,1.6z"/>
			</g>
			<path id="Path_132_" class="st33" d="M486.7,6.1l3.5,205.1c0,0-128.3,0-237.5,35.4l-2.1-207.2C250.6,39.4,425.7-2.3,486.7,6.1z"
				/>
			<g id="Group_12_" transform="translate(302.519810, 28.954041)" class="st10">
				<path id="Path_133_" class="st34" d="M126.4,1.4l1.9,109.9c0,0-68.6,0-126.8,19L0.4,19.2C0.4,19.2,93.9-3.1,126.4,1.4z"/>
			</g>
			<g id="Group_13_" transform="translate(858.637084, 79.873217)" class="st8">
				<path id="Path_134_" d="M0.6,0.6v203.2c0,0,41.9-5,129.9,103.4l7.8-203.2C138.3,104,46.8,5.6,0.6,0.6z"/>
			</g>
			<path id="Path_135_" class="st33" d="M857.6,77.9V281c0,0,41.9-5,130,103.4l7.8-203.2C995.4,181.2,903.8,82.8,857.6,77.9z"/>
			<g id="Group_14_" transform="translate(45.927100, 80.871632)" class="st8">
				<path id="Path_136_" d="M138.2,0.6v203.2c0,0-41.9-5-129.8,103.4L0.5,104C0.5,104,92,5.6,138.2,0.6z"/>
			</g>
			<path id="Path_137_" class="st33" d="M186.7,77.9V281c0,0-41.9-5-129.9,103.4l-7.9-203.2C48.9,181.2,140.5,82.8,186.7,77.9z"/>
			<g id="Group_15_" transform="translate(579.080824, 43.930269)" class="st10">
				<polygon id="Path_138_" class="st34" points="0.5,0.3 86.8,16 86.8,28.7 0.5,11.9 				"/>
			</g>
			<polygon id="Path_139_" class="st12" points="412.3,166.7 325.5,182.1 325.5,194.7 412.3,178.1 			"/>
			<polygon id="Path_140_" class="st12" points="581.1,67.9 739.8,100.3 739.8,112.8 581.1,79.3 			"/>
			<polygon id="Path_141_" class="st12" points="581.1,91.9 739.8,124.3 739.8,136.8 581.1,103.2 			"/>
			<g id="Group_16_" transform="translate(894.580032, 142.773376)" class="st10">
				<polygon id="Path_142_" class="st34" points="0.5,0.3 0.5,11.4 34.2,39.1 35.8,29.5 				"/>
			</g>
			<polygon id="Path_143_" class="st12" points="894.6,250.6 894.6,261.8 928.9,289.5 930.5,279.9 			"/>
			<polygon id="Path_144_" class="st12" points="895.1,162.7 894.6,173.9 958.5,234.6 957.4,221.9 			"/>
			<polygon id="Path_145_" class="st12" points="894.6,183.7 894.6,194.3 958.5,255.6 958.5,241.9 			"/>
			<g id="Group_17_" transform="translate(84.865293, 144.770206)" class="st10">
				<polygon id="Path_146_" class="st34" points="63.9,0.8 64.4,11.9 0.2,72.1 1.3,59.4 				"/>
			</g>
			<g id="Group_18_" transform="translate(84.865293, 166.735341)" class="st10">
				<polygon id="Path_147_" class="st34" points="64.4,0.2 64.4,10.8 0.2,72 0.2,58.3 				"/>
			</g>
			<path id="Path_148_" class="st18" d="M641.9,169.5c-0.4,0.9-0.8,1.9-1,2.9c-0.1,0.3-0.1,0.5-0.2,0.8c-0.6,2.9-1,6.6-1.1,8.7
				c-0.1,1.1-0.1,1.8-0.1,1.8s-20.6-1.4-17-4.9c0.9-1,1.6-2.1,1.9-3.4c0.1-0.4,0.2-0.7,0.3-1.1c0.2-0.9,0.3-1.7,0.3-2.6
				c0-0.2,0-0.4,0-0.7c0-1.4,0-2.9-0.2-4.3c0,0,6.7,0,11.8,0.5C639.9,167.7,642.5,168.3,641.9,169.5z"/>
			<path id="Path_149_" class="st18" d="M607.2,265.6c-6.6-0.2-1.7-14.5-1-16.4c0.8-1.9-1.1-6.6-1.1-6.6s-2.2-13.6-2.2-14.5
				c-0.1-1.8-0.4-3.7-0.7-5.5c-0.2-1.8,0.1-3.7,0.9-5.4c0.8-1.2,0.6-6.2,0.6-6.2v-6.4l1.5-2l3.7,3.7l1,1l1.8,7.1l-0.6,10.2l-0.3,10
				l2.3,13.8C613,248.5,613.8,265.8,607.2,265.6z"/>
			<polygon id="Path_150_" class="st14" points="609,207.7 603,205.4 603,204.5 604.6,202.7 608.6,206.1 			"/>
			<path id="Path_151_" class="st19" d="M606.4,192.7c-0.8,1.9-1.4,3.8-1.7,5.8c-0.3,1.9-0.9,3.7-1.6,5.5l7,2.7L606.4,192.7z"/>
			<path id="Path_152_" class="st20" d="M606.4,192.7c-0.8,1.9-1.4,3.8-1.7,5.8c-0.3,1.9-0.9,3.7-1.6,5.5l7,2.7L606.4,192.7z"/>
			<path id="Path_153_" class="st18" d="M658,334.9l-0.5,1.1c0,0-0.6,3.8-0.6,3.9c0,0.1-1.7,2.6-1.7,2.6l-4.2,0.9l-1.8-0.2
				c-0.1-1-0.3-2.1-0.5-3.1c-0.1-0.3-0.1-0.6-0.2-0.9c-0.6-2.4-1.6-4.6-2.9-6.7c0,0-3.1-7.7-4.2-8.7c-1.1-1-5.3-11.2-4.9-13.7
				c0.2-1.3,0-5.9-0.2-9.7c-0.2-3.1-0.4-5.7-0.4-5.7l10.5-6.3l1.2,2l0.7,1.2c0,0,0,0.2,0,0.6v0.1c-0.1,1.6-0.4,3.1-0.9,4.6
				c0,0-0.8,5.7,0,6.7c0.8,1,3.3,14.5,3.8,20.7c0,0.2,0,0.4,0,0.6c0.2,2.9,2,5.4,3.7,7.3l0,0c0.1,0.1,0.2,0.2,0.3,0.4
				C656.2,333.4,657.1,334.2,658,334.9L658,334.9z"/>
			<path id="Path_154_" class="st14" d="M649.7,343.2l1.9,0.2l4.4-0.9c0,0,1.8-2.4,1.8-2.5s0.6-3.7,0.6-3.7l0.6-1.1l0.1-0.1
				c-1.1-0.7-2.1-1.5-3-2.3l0,0c-0.1-0.1-0.2-0.2-0.3-0.3c-0.1-0.1,0.6,3.6-2.7,5.2c-1.6,0.8-3,1.4-3.9,1.8L649.7,343.2z"/>
			<path id="Path_155_" class="st21" d="M659,336l-0.6,1.2c0,0-0.6,3.7-0.6,3.7c0,0.1-1.7,2.5-1.7,2.5l-4.2,0.9l-2.4-0.3
				c0-0.5-0.1-1.1-0.2-2c-0.1-0.5-0.2-1-0.3-1.6c0.9-0.4,2.3-1.1,4.2-2c3.2-1.6,2.6-5.2,2.6-5.2c0.7,0.7,1.4,1.3,2.2,1.9
				C658.4,335.7,658.7,335.9,659,336z"/>
			<path id="Path_156_" class="st14" d="M659,336.1l-0.6,1.2c0,0-0.6,3.6-0.6,3.7s-1.7,2.5-1.7,2.5l-4.3,0.9l-2.5-0.3
				c0-0.5-0.1-1.1-0.2-1.9c0.5,0,1.1,0.1,1.6,0.2c0,0,5.9,1.2,6.2-3.2c0.2-2.5,0.7-3.4,1.2-3.8C658.4,335.8,658.7,336,659,336.1z"/>
			<path id="Path_157_" class="st22" d="M658.7,334.7c0,0-1.5-0.3-1.7,4.3c-0.3,4.6-6.1,3.4-6.1,3.4s-2.9-0.7-2.9,0.5
				c0.1,1.1,0.4,2.2,0.8,3.2c0,0,0.2,2.8,0.7,3.4s0.2,3.1,0.2,3.1s0.2,1.8,4.7,0c0,0,4-0.8,7.4-5.9c0.1-0.2-0.4-0.7,2.5-1.7
				c2.9-1.1,11.2-7.8,10.6-11.1c-0.1-1.1-0.9-2-2-2.4c-0.9-0.2-1.8-0.1-2.6,0.4c-0.8,0.4-1.6,0.8-2.4,1.1c-1.1,0.5-2.3,0.7-3.5,0.8
				c-0.9,0.1-1.8,0.3-2.7,0.5C660.7,334.8,659.7,334.9,658.7,334.7z"/>
			<path id="Path_158_" class="st18" d="M625.7,304c-0.6,0.5-1.2,1.1-1.6,1.8c-1.6,2.5-2.6,5.9-3.7,7.4c-1.4,1.9-1.8,5.7-1.8,5.7
				c-0.4,2.5-5.6,15.7-7,18s-3.4,8.7-3.4,8.7c-1.2,1.5-1.1,3.8-1,4.8c0,0.2,0,0.3,0.1,0.4s0,0.2,0,0.2v0.1l-1.9,3.3l-6.1-0.9
				l-3.2-2.2c0.3-0.4,0.5-0.9,0.7-1.3c1.7-3.8,2.9-10.6,2.9-10.6s1.7-7.7,1.6-9.5c0-2.5,0.2-4.9,0.5-7.4c0,0,4.8-14.8,6.4-17.2
				c0.6-0.9,1-2,1.2-3.2c0-0.2,0-0.5,0-0.7l2.1-2.1C611.3,299.5,628.4,301.9,625.7,304z"/>
			<path id="Path_159_" class="st14" d="M607,350.8c0,0,0,0.2,0,0.4v0.2l-1.9,3l-6-0.8l-3.1-1.9c0.3-0.4,0.5-0.8,0.7-1.2
				c1.5-0.4,5,0.7,5,0.7S605.4,351.9,607,350.8C607,350.9,607,350.8,607,350.8z"/>
			<path id="Path_160_" class="st14" d="M649,292.3L649,292.3c-0.4,0.5-3.3,3.5-4.1,3.7c-1.4,0.5-2.8,1.1-4.1,1.8
				c0,0-1.7,2.3-3.1,2.4c-0.4,0.1-0.8,0.2-1.2,0.3c-0.2-3.1-0.4-5.7-0.4-5.7l10.9-6.3l1.3,2C648.5,291.3,648.8,292,649,292.3
				L649,292.3z"/>
			<path id="Path_161_" class="st21" d="M609.9,248.7c0,0-4.2,5.4,0,12.6c2.2,4,5.2,7.7,8.6,10.8l14.2,29.4c0,0,3.7-2,5.1-2.1
				s3.1-2.4,3.1-2.4c1.3-0.7,2.7-1.3,4.1-1.8c0.9-0.2,4-3.7,4-3.7s-1.6-3.4-1.2-4.3c0.3-0.9-1-3.2-1-3.2c-0.4-1.1-0.7-2.3-0.9-3.5
				c0-0.9-1.5-3-1.5-3s-1.5-2.3-1.5-3.5c0-1.2-2.2-6.1-2.2-6.1l-0.6-21.4L609.9,248.7z"/>
			<path id="Path_162_" class="st20" d="M649,291.5c0,0-3.1,3.5-4,3.7c-1.4,0.5-2.7,1.1-4.1,1.8c0,0-1.7,2.2-3,2.4
				c-1,0.2-1.9,0.5-2.8,1c-1.2,0.5-2.3,1.1-2.3,1.1l-14.2-29.4c-1.2-1.1-2.4-2.3-3.5-3.5c-1.9-2.3-3.6-4.7-5.1-7.3
				c-1.6-2.6-2.2-5.7-1.6-8.8c0.3-1.4,0.8-2.7,1.6-3.9L620,248l20.2-1.4l0.2,6.3l0.4,15c0,0,0.3,0.8,0.7,1.7
				c0.6,1.4,1.1,2.8,1.4,4.3c0,1.2,1.5,3.5,1.5,3.5s1.5,2.1,1.5,3c0.2,1.2,0.5,2.4,0.9,3.5c0,0,1.4,2.2,1,3.1
				C647.4,288.1,649,291.5,649,291.5z"/>
			<path id="Path_163_" class="st14" d="M625.7,303.8c-0.6,0.5-1.2,1.1-1.6,1.7c-6.1,0.4-13.2-2.6-15.1-3.4c0-0.2,0-0.4,0-0.6
				l2.1-1.9C611.1,299.5,628.4,301.8,625.7,303.8z"/>
			<path id="Path_164_" class="st21" d="M644,255.5c0,0-0.9,3.2-1.2,4.5c-0.3,1.3-1,8-1,8l-0.4,1.9l-6.4,30.7l-1.4,6.7
				c-2.5,1.4-8.6-2.3-8.6-2.3c-7.2,0.8-16-3.8-16-3.8s1.4-4.7,1.1-7.1c-0.3-2.4,2-4.3,2-4.3c-0.6-2.1,1.4-11.5,1.4-11.5
				s0.5-3.5,2.1-4.4c1.7-0.9-0.2-2.2-0.7-3c-0.2-0.7-0.1-1.4,0.2-2.1c0.1-0.5,0.3-1,0.5-1.5c-4.3-4.3-4.9-11-4.9-14.7
				c0-0.9,0-1.8,0.1-2.7l9.2-1.6l20.1-3.5l2.1,6.4l0,0l0.5,1.6L644,255.5z"/>
			<path id="Path_165_" class="st14" d="M641.9,169.6c-0.4,1-0.7,2-0.9,3c-0.1,0.3-0.1,0.5-0.2,0.8c-2,1.3-3.2,1.3-5.7,1.3
				c-0.9,0-1.4-1.7-2.2-1.9c0,0-1.2-4.6-1.6-0.7c-2.4-0.5-4.4,1.4-6.1-0.3l0,0c0-0.2,0-0.4,0-0.7c0-1.5,0-2.9-0.2-4.4
				c0,0,6.6,0,11.6,0.6C639.9,167.7,642.5,168.4,641.9,169.6z"/>
			<path id="Path_166_" class="st18" d="M647,162.2c0,3.7-1.7,7.3-4.6,9.7c-2.9,2.4-6.7,3.3-10.4,2.6l0,0c-5.6-1.2-9.8-6-10-11.8
				c-0.2-5.8,3.5-10.9,9.1-12.5c5.5-1.6,11.4,0.9,14.3,5.9C646.4,158,647,160.1,647,162.2z"/>
			<path id="Path_167_" class="st14" d="M640,182c-0.1,1-0.1,1.7-0.1,1.7s-19.9-1.3-16.4-4.7c0.9-0.9,1.5-2.1,1.8-3.3l8.6,1.4
				c0,0,2.4,1.9,4.3,3.7C638.7,181.3,639.3,181.7,640,182z"/>
			<path id="Path_168_" class="st14" d="M643,253.5c-0.9,0.1-1.8,0.1-2.7-0.2c-0.4-0.1-0.7-0.3-1.1-0.5c-1.7-1-7.4,0.2-7.4,0.2
				s-15.5,1-16.1,0c-0.4-0.6-3.1-0.5-5.3-0.3c-0.9,0.1-1.7,0.2-2.3,0.2c0.3-1.4,0.8-2.8,1.6-4l10.2-0.7l20.5-3.7l2.1,6.6l0,0
				C642.6,252,642.8,252.8,643,253.5L643,253.5z"/>
			<path id="Path_169_" class="st19" d="M633.8,177.5l-11-1.8c-0.4,0.9-1.2,1.5-2.1,1.8c-1.5,0.3-8,3.7-11,7.7l-2.9,4
				c0,0-2.4,2.9-1.6,5.3c0.8,2.4,1.7,10.3,1.7,10.3l1.1,8.9c0,0,2.1,6.4,1.5,9.2c-0.7,2.8,0.3,14.6,0.3,14.6l-2.3,14.6
				c0,0,7.7-1,8.4,0c0.7,1,16.1,0,16.1,0s5.6-1.2,7.4-0.2c1.1,0.6,2.5,0.8,3.7,0.7c0,0-1.4-4.6-0.6-7.2c0.8-2.5,0.6-7.3,0.6-7.3
				s1.1-6.8,0.6-8.1c-0.6-1.2,1.3-5.7,1.3-5.7l6-31.3c0,0-0.7-5.6-3.9-7.5c-3.2-1.9-6.8-2.5-8.7-4.3
				C636.4,179.4,633.8,177.5,633.8,177.5z"/>
			<path id="Path_170_" class="st18" d="M639,208.2v3.7l3.4,9.3l1.2,8.6c0,0,2.2,6.1,2.2,8.3c0,2.2,5.5,12.4,5.5,12.4
				s1.5,3.5,0.7,4.1c-0.7,0.7-7.2,15.4,0.9,15c8.1-0.4,5.6-15.9,5.6-15.9l-1.1-6.7c0,0-1.6-16.8-1.6-18c0,0-2-7.1-2.2-8.7
				c-0.2-1.6-1.7-9.5-1.7-9.5l-1.2-5.1L639,208.2z"/>
			<polygon id="Path_171_" class="st14" points="635,219.7 622.8,226.8 619,232.6 624.1,227.4 			"/>
			<path id="Path_172_" class="st14" d="M631,233.6c0,0-5.6,3.7-8.2,3.7c-2.6,0-8.7,6.3-8.7,6.3s8.7-5.6,9.3-5.5
				C624,238.3,631,233.6,631,233.6z"/>
			<path id="Path_173_" class="st14" d="M616.3,235.6c0,0-5.5,4.5-4.1,5c1.4,0.5,8.8-5,8.8-5H616.3z"/>
			<path id="Path_174_" class="st14" d="M639.8,218.7c0,0-3.7,5.1-2.7,5s3.8-3,3.8-3L639.8,218.7z"/>
			<path id="Path_175_" class="st14" d="M640,223.6c0,0-4.1,4.7-4,5.9C636.2,230.7,640,223.6,640,223.6z"/>
			<path id="Path_176_" class="st14" d="M642,226.6c0,0-2.9,4.9-1.7,5.9C641.6,233.5,642,226.6,642,226.6z"/>
			<path id="Path_177_" class="st14" d="M638,212.7c0,0-1.9,3.6-0.5,3.9c1.4,0.2,1.5,0,1.5,0L638,212.7z"/>
			<path id="Path_178_" class="st14" d="M638,198.7c-0.5,2.4-1.2,4.7-2.2,7c-0.3-1.1-0.6-2.3-0.8-3.5
				C635.9,200.9,636.9,199.7,638,198.7L638,198.7z"/>
			<path id="Path_179_" class="st14" d="M645,156.1c-0.2,0.5-0.5,0.9-0.8,1.3c-0.6,0.5-1.1,1.1-1.5,1.7c-0.3,1-0.5,2-0.5,3
				c-0.2,1-0.8,2.1-1.8,2.1c-0.5,0-1-0.2-1.5-0.4c-0.5-0.2-1-0.2-1.4,0c-0.3,0.3-0.5,0.7-0.5,1.1c-0.1,0.9-0.2,1.8-0.1,2.6
				c0,0.4,0,0.7,0.1,1c0.3,1.1,0.2,2.3-0.2,3.3c-0.5,0.8-1.2,1.4-2,1.7c-0.9,0.4-1.9,0.7-2.9,0.8l0,0c-1.9,0.2-3.8,0.3-5.6,0.2
				c-0.2,0-0.3,0-0.5-0.1c-0.1,0-0.2-0.1-0.2-0.1c0.2-1.1,0.3-2.1,0.3-3.2c-3.4-3.4-4.6-8.6-3-13.2c1.6-4.6,5.7-7.8,10.5-8.3
				C638,149.4,642.6,151.8,645,156.1z"/>
			<path id="Path_180_" class="st23" d="M639.7,144.8c-1.2-0.1-2.2,0.5-3.4,0.8c-2.3,0.5-4.7-0.6-7.1-0.5c-2.1,0.1-4.1,0.7-5.9,1.8
				c-1.4,0.7-2.8,1.6-3.9,2.8c-1.1,1.2-1.8,2.7-1.9,4.3c0.2,0.9,0.1,1.9-0.1,2.8c-0.2,0.5-0.5,0.9-0.9,1.3c-0.6,1-0.7,2.2-0.4,3.3
				c0.5,1.1,1.1,2.1,1.9,2.9c1.5,2,2.5,4.4,3.9,6.5c0.6,0.9,1.3,1.8,2,2.6c0.1,0.1,0.3,0.3,0.4,0.3c0.2,0.1,0.3,0.1,0.5,0.1
				c2.9,0.1,6,0.2,8.7-1c0.9-0.3,1.6-0.9,2.1-1.7c0.4-1.1,0.5-2.3,0.2-3.4c-0.1-1.3-0.1-2.5,0.1-3.8c0-0.4,0.2-0.8,0.5-1.1
				c0.5-0.3,1-0.3,1.5,0c0.5,0.2,1,0.4,1.5,0.5c1,0,1.7-1.2,1.9-2.2c-0.2-1.9,0.6-3.7,2.1-4.8c1.4-1.8,1.9-4.2,1.3-6.4
				C644,147.7,642,145,639.7,144.8z"/>
			<path id="Path_181_" class="st14" d="M651.9,198c-0.3,1.5-0.3,3,0,4.6c-0.1,1.2,0,8,0,8c-3.8-1.1-13.3,1.1-13.3,1.1l-1.1-3.3
				c-0.6-0.8-1.1-1.7-1.4-2.7c-0.4-1.1-0.7-2.2-0.9-3.3c-0.5-2.3-0.9-4.6-1.1-6.9c-0.5-3.5,4.9-7.3,9-9.4c4.1-2.1,7.6,6.8,7.6,6.8
				S652.3,196.3,651.9,198z"/>
			<path id="Path_182_" class="st19" d="M651.9,198.1c-0.2,1.5-0.2,3,0,4.6c-0.1,1.2,0,8,0,8c-3.8-1.1-13.3,1.1-13.3,1.1l-1.1-3.3
				c-0.7-0.8-1.1-1.7-1.4-2.7c-0.4-1.1-0.7-2.2-0.9-3.3c-0.5-2.3-0.9-4.6-1.1-6.9c-0.5-3.5,4.9-7.3,9-9.4c4.1-2.1,7.6,6.8,7.6,6.8
				S652.3,196.3,651.9,198.1z"/>
			<path id="Path_183_" class="st17" d="M644.7,149.6c-0.2-0.6-0.5-1.3-0.8-1.8c0.1,0.2,0.1,0.3,0.2,0.5c0.6,2.2,0.1,4.6-1.3,6.5
				c-1.5,1.1-2.3,2.9-2.1,4.8c-0.2,1-0.8,2.1-1.9,2.2c-0.5,0-1-0.2-1.5-0.5c-0.5-0.2-1-0.2-1.5,0c-0.3,0.3-0.5,0.7-0.5,1.1
				c-0.2,1.3-0.2,2.5-0.1,3.8c0.1,1.2,0.3,2.4-0.2,3.4c-0.5,0.8-1.2,1.4-2.1,1.7c-2.7,1.2-5.8,1.1-8.7,1c-0.2,0-0.4,0-0.5-0.1
				c-0.2-0.1-0.3-0.2-0.4-0.3c-0.8-0.8-1.4-1.7-2-2.6c-1.4-2.1-2.4-4.5-3.9-6.6c-0.4-0.5-0.9-1.1-1.3-1.7v0.1
				c0.5,1.1,1.1,2.1,1.9,2.9c1.5,2,2.5,4.4,3.9,6.6c0.6,0.9,1.3,1.8,2,2.6c0.1,0.1,0.3,0.3,0.4,0.3c0.2,0.1,0.3,0.1,0.5,0.1
				c3,0.1,6,0.2,8.7-1c0.9-0.3,1.6-0.9,2.1-1.7c0.4-1.1,0.5-2.3,0.2-3.4c-0.1-1.3-0.1-2.5,0.1-3.8c0-0.4,0.2-0.8,0.5-1.1
				c0.5-0.3,1-0.3,1.5,0c0.5,0.2,1,0.4,1.5,0.5c1,0,1.7-1.2,1.9-2.2c0-1,0.2-2.1,0.6-3c0.4-0.7,1-1.3,1.5-1.8
				C644.8,154.2,645.3,151.8,644.7,149.6z"/>
			<g id="Group_19_" transform="translate(671.933439, 167.733756)" class="st8">
				<path id="Path_184_" d="M1.5,1.4C1.3,1,1.2,0.6,1.1,0.2C1.2,0.6,1.3,1,1.5,1.4z"/>
			</g>
			<path id="Path_185_" class="st26" d="M220.6,274.4c0,0,16.9,1.8,14.5-5.3c-0.7-2-0.9-4.2-0.5-6.3c0.4-2.6,1.5-5.1,3-7.2
				l-15.9,2.5c0.9,1.6,1.7,3.3,2.1,5.1C225.8,270.7,220.6,274.4,220.6,274.4z"/>
			<path id="Path_186_" class="st29" d="M257.6,307.5l2.1,5.8l1.8,12.3c0.5,3.5-0.7,7-3.2,9.4c-4.3,4.3-9.9,13.4-9.9,13.4l-6.7-20.6
				c0,0,6.7-1.1,5.7-5.8s-0.7-13.4-0.7-13.4L257.6,307.5z"/>
			<path id="Path_187_" class="st20" d="M257.6,307.5l2.1,5.8l1.8,12.3c0.5,3.5-0.7,7-3.2,9.4c-4.3,4.3-9.9,13.4-9.9,13.4l-6.7-20.6
				c0,0,6.7-1.1,5.7-5.8s-0.7-13.4-0.7-13.4L257.6,307.5z"/>
			<path id="Path_188_" class="st14" d="M221.6,258.2c1,1.7,1.7,3.5,2.2,5.4c3.5,1.4,7.4,1.3,10.8-0.4c0.4-2.7,1.5-5.3,3-7.6
				L221.6,258.2z"/>
			<circle id="Oval_12_" class="st26" cx="228.6" cy="249.6" r="14"/>
			<path id="Path_189_" class="st14" d="M210.7,348h0.1c15,3.1,33.8-12.6,33.8-12.6c-0.5-0.9-0.9-1.8-1.3-2.7
				c-0.5-0.8-0.8-1.3-0.8-1.3l-31.6,12.6l-0.1,1.3L210.7,348z"/>
			<path id="Path_190_" class="st29" d="M214.7,275c0,0,20.3-12.2,26.8-7.2l9.1,11.5c0,0,5.8,1.8,4.7,13.3l4.3,20.9l-13,3.2
				c0,0-7.7,7.2-1.5,17.7c0,0-19.2,15.8-34.4,12.6l1.1-16.9c0,0,3.3-9.4-2.5-18s-0.4-16.9,5.1-20.2
				C214.3,291.9,216.8,278.2,214.7,275z"/>
			<path id="Path_191_" class="st26" d="M213.9,348.4c0,0-7.7,1.4-11.4,7.2c-1.1,1.7-2.3,3.3-3.8,4.7c-0.7,0.6-1,1.5-0.9,2.4
				c0.1,0.9,0.6,1.7,1.4,2.2c2.9,1.7,7.7,2.8,13.7-2.1C223.1,354.6,213.9,348.4,213.9,348.4z"/>
			<path id="Path_192_" class="st14" d="M224.7,280.8c0,0,7.1-0.7,8.9,18.2s4.6,23.3,4.6,23.3s1.8,9.8-2.5,15.6
				s-12.4,18.2-12.4,18.2s-8.9,2.6-10.7-6.5l11-21.1c0,0,1.8-7.3-2.5-12.4C216.9,311,213.7,277.2,224.7,280.8z"/>
			<path id="Path_193_" class="st29" d="M224.7,279.8c0,0,7.1-0.7,8.9,18.2c1.8,18.9,4.6,23.3,4.6,23.3s1.8,9.8-2.5,15.6
				c-4.3,5.8-12.4,18.2-12.4,18.2s-8.9,2.6-10.7-6.5l11-21.1c0,0,1.8-7.3-2.5-12.4C216.9,310,213.7,276.2,224.7,279.8z"/>
			<path id="Path_194_" class="st14" d="M218.7,293.5c0,0-0.7,11.3,2.5,17.4c3.2,6.2,3.2,14.2,0,18.5"/>
			<path id="Path_195_" class="st14" d="M216.7,279.6c0,0,2.9-2.8,11.1-3.2c8.2-0.4,11.8-2.8,11.8-2.8"/>
			<path id="Path_196_" class="st14" d="M237.1,231c2.2,0.3,4.7,1,5.5,3.1c0.2,0.8,0.4,1.6,0.5,2.4c0.8,3.1,4.4,4.6,6.5,7
				c1.9,2.1,2.8,5,3.4,7.8c1.8,8,2.2,16.3,1.3,24.5c-0.7,6-2.1,11.9-2.5,17.8c-0.4,6,0.3,12.3,3.6,17.3c1.4,2.2,3.3,4.1,4.3,6.5
				c-2.1,1.7-4.9,1.9-7.6,2c-3.1,0.1-6.2,0.1-9.2,0c-1.6,0.1-3.3-0.3-4.7-1c-1-0.7-1.9-1.6-2.5-2.7c-1.8-3-2.2-6.6-2.1-10.1
				c0.1-3.5,0.6-7,0.7-10.4c0-1.9-0.1-3.9-1.2-5.5c-0.9-1-1.9-2-3-2.8c-3.8-3.4-5.2-8.9-5.3-14c-0.1-5.1,0.7-10.3,0.3-15.4
				c-0.2-2-0.9-4.4-2.9-4.8c-0.6,0-1.2-0.1-1.8-0.2c-1.6-0.6-1.4-2.8-1.8-4.5c-0.5-1.8-2.1-3.3-2.5-5.1c-1-4.4,4.5-9.6,8.1-11.1
				C227.6,230.2,233.2,230.6,237.1,231z"/>
			<path id="Path_197_" class="st30" d="M237.1,231c2.2,0.3,4.7,1,5.5,3.1c0.2,0.8,0.4,1.6,0.5,2.4c0.8,3.1,4.3,4.6,6.5,7
				c1.9,2.1,2.8,5,3.4,7.8c1.8,8,2.2,16.3,1.3,24.5c-0.7,6-2.1,11.9-2.5,17.8c-0.4,6,0.3,12.3,3.6,17.4c1.4,2.2,3.3,4.1,4.3,6.5
				c-2.1,1.7-4.9,1.9-7.6,2c-3.1,0.1-6.2,0.1-9.3,0c-1.6,0.1-3.3-0.3-4.7-1c-1-0.7-1.9-1.6-2.5-2.7c-1.8-3-2.2-6.6-2.1-10.1
				c0.1-3.5,0.6-7,0.7-10.4c0-1.9-0.1-3.9-1.2-5.5c-0.9-1-1.9-2-3-2.8c-3.8-3.4-5.2-8.9-5.3-14c-0.1-5.2,0.7-10.3,0.3-15.4
				c-0.2-2-0.9-4.4-2.9-4.8c-0.6,0-1.2-0.1-1.8-0.2c-1.6-0.6-1.4-2.8-1.8-4.5c-0.5-1.8-2.1-3.3-2.5-5.1c-1-4.3,4.5-9.6,8.1-11.1
				S233.2,230.6,237.1,231z"/>
		</g>
		<g id="Group-6" transform="translate(827.000000, 325.000000)">
			<path id="Path-Copy-39" class="st35" d="M90.8,10.3l-8.5,17c0,0-1.3,3.2-2.1,3.8s-4.4,10.7-4.4,10.7L66.6,55l0,0L66,55.9L62.4,55
				l-2.5-8.8l0.1-2.6v-0.3c0,0,5.7-5.6,6.9-6c0,0,1,0.1,2.9-4.2s3.6-5.2,3.6-5.2l1-3.1L85.1,9c0,0,8.9-11.9,11.3-6.6
				S90.8,10.3,90.8,10.3z"/>
			<path id="Path-Copy-38" class="st35" d="M52.9,130.7c0,0.3-0.1,0.6-0.3,0.8c-0.9,1.4-6.2,28.9-6.2,28.9c0.4,1.9-0.8,5.6-1.5,7.3
				c-0.8,1.7-2.5,10.5-2.5,10.5S42,197.1,40.9,200c-1.1,3,0.3,9.3,0.3,9.3c-0.1,2.9,1.6,6,2.7,7.5l0.2,0.3c0.3,0.5,0.6,0.8,0.6,0.8
				c0.3,0.6,0.7,1.1,1.2,1.5l0.2,0.2c1.4,1,3,1.6,4.7,2h0.2c0.7,0.1,1.1,0.2,1.1,0.2l0.4,2.3l-4.5,0.9l-8.6,0.6
				c0,0-10.1,0.8-7.8-3.7c0.2-0.3,0.3-0.6,0.4-0.9l0,0c0.1-0.2,0.2-0.4,0.2-0.7c1.4-4.3,0.4-9.5,0.4-9.5l-1.9-15.3
				c-3.2-14.2,2.5-30,2.5-30s-0.5-1.3,0.6-4.5c1.1-3.2,0-10.2,0-10.2s-0.6-9-1.4-13.5c-0.3-1.9-0.4-3.8-0.3-5.7
				c0-1.1,0.1-2.2,0.3-3.3l19.3-2.6C52,125.8,53.1,128.9,52.9,130.7z"/>
			<path id="Path-Copy-37" class="st35" d="M76.5,151.4c-0.2,1.3-0.5,4.7-0.5,4.7c0.8,2.9-1.3,9.6-1.3,9.6l-1,3.9
				c0.5,4.9-2.9,17-2.9,17s-2.2,11.2-3.4,16c-0.7,2.7-0.5,5.5,0.6,8.1l0.1,0.2c0,0.1,0,0.2,0.1,0.3c0,0.1,0.1,0.3,0.1,0.4
				c0.3,0.7,0.6,1.3,1.1,1.8c0.2,0.2,0.4,0.4,0.6,0.6l0,0c1.1,0.9,2.3,1.6,3.7,2.2l0,0l0.6,0.2c0.6,0.2,1.2,0.4,1.8,0.5l0,0h0.2
				l-0.5,2.6l-6.1-1.5l-8.2-2.5l-4-2.1c0,0,0-0.2,0.1-0.6c0,0,0,0,0-0.1c0-0.2,0.1-0.4,0.1-0.6c0.6-3.4,2.2-12.9,1.4-20
				c-1-8.7,2.9-20.7,3.7-23.5c0.6-1.6,0.8-3.3,0.7-5.1c-1.5-2.1-1.8-10.4-1.8-10.4s-2.8-5.4-5.1-11.1c-0.8-1.9-1.3-3.8-1.6-5.8
				c-0.3-1.4-0.4-2.8-0.3-4.2c0,0,18.6-16.2,20.6-0.5c0.1,0.5,0.1,1,0.2,1.5C77.5,147.5,76.7,150.2,76.5,151.4z"/>
			<path id="Path-Copy-36" class="st14" d="M56.9,132.4l-1.1,0.4c-0.8,0.3-1.7,0.5-2.5,0.6c-5.5,0.9-14.5,0.3-17.3,0.1
				c0-1.3,0.1-2.5,0.3-3.8l19.7-2.9C56,126.8,57.1,130.3,56.9,132.4z"/>
			<path id="Path-Copy-35" class="st24" d="M72.9,124.2c0,0-7.1,1.1-12.8,2.3c-1.9,0.4-3.7,0.9-5,1.3c-0.8,0.2-1.6,0.4-2.5,0.5
				c-6.4,0.9-17.8,0.1-17.8,0.1c-3.1-10.1,3.8-22.8,3.8-22.8c-0.2-1,1.4-4.1,1.4-4.1v-0.1l1-3.6h26.3l0.3,1.5l0.7,3.1l4.1,19.5
				L72.9,124.2z"/>
			<path id="Path-Copy-34" class="st14" d="M76.9,132.5l-0.2,0.1l-3.2,1.4c-3.4,1.6-13.7,1.9-17.3,1.9c-0.3-1.4-0.4-2.9-0.3-4.4
				c0,0,18.7-16.8,20.8-0.5C76.7,131.4,76.8,132,76.9,132.5z"/>
			<path id="Path-Copy-33" class="st24" d="M75.9,130l-0.7,0.3l-3.1,1.5c-3.5,1.7-13.9,2-17.3,2h-0.9c-1.5,0-3.1-1.6-3.1-2
				c0-0.2-0.2-1.3-0.3-2.2c-0.1-0.7-0.2-1.4-0.2-1.4c-3.6-1.6-7.1-3.5-10.4-5.6c-2.6-1.9-2-15.2-1.5-21.9c0.2-2.3,0.3-3.8,0.3-3.8
				l27.1,1.7l3.8,0.2l2.2,0.5l0.6,0.1c0,0,1.6,11.9,2.3,12.9c0.8,1,0.3,4.3,0.2,6.2c0,0.8-0.1,1.6-0.3,2.4c0,0,1.1,3.3,0.9,5.2
				C75.4,127.4,75.5,128.8,75.9,130L75.9,130z"/>
			<circle id="Oval-Copy-2" class="st35" cx="46.9" cy="28" r="11"/>
			<path id="Path-Copy-32" class="st35" d="M44.7,32c0,0,0.7,9.7-1.3,11.9c-2.4,2.3-4.9,4.4-7.5,6.4l1.7,6.6l9.4,1l10.9-11.2
				l-2.5-2.9c0,0-1.9-6.2-0.3-9.3S44.7,32,44.7,32z"/>
			<path id="Path-Copy-31" class="st14" d="M67.9,54.9L67.9,54.9l-0.6,1l-3.7-1l-2.6-9.3l0.2-2.7l0.8-1.1c0,0,4.1,0.1,3.9,3.6
				C65.6,48.7,67.5,53.8,67.9,54.9z"/>
			<path id="Path-Copy-30" class="st14" d="M73.9,102.5c0,0-2.6,0.6-5.6,1c-3,0.4-6.4,0.6-7.8-0.2c-2.4-1.4-15.2-1-18.9-0.9h-0.6
				l1-3.5h25.4l0.3,1.5l3.6,0.2l2.1,0.5C73.7,101.9,73.9,102.5,73.9,102.5z"/>
			<path id="Path-Copy-29" class="st36" d="M59.2,43.9c0,0,3.8,0.1,3.6,3.4c-0.2,3.3,2.1,9.1,2.1,9.1L64,58.4c0,0-1.2,4.7-0.3,5.8
				c0.9,1.2,4.4,1.2,2.4,10.8c0,0-0.4,7.2,0.6,9.5c1,2.3,1,7.9,2.6,10.3c1.4,2.5,2.6,5.1,3.6,7.8c0,0-11.1,2.4-14,0.8
				c-2.9-1.7-20.8-0.8-20.8-0.8s0.1-2.9,0-3.3c-0.2-0.7,0-1.5,0.4-2.1c0.6-0.8,1.5-2.1,1-3.3s1.3-2.9,0.3-4.7
				c-0.9-1.8-2.1-2.2-1.9-3.2c0.1-1.1-0.3-2.3-1.1-3.2c-0.7-0.8-5.3-9.6-5.3-9.6L30.8,69c0,0-6-4.3-5.8-6.3c0.1-2,2.3-4.8,2.3-4.8
				l5.7-5.5c0,0,3.2,3.3,6.3,2.2c3.1-1.2,9.7-6.8,9.7-6.8s2.4-1.2,2.5-2.2c0.2-0.9,1.6-0.1,1.6-0.1s2.1-1.1,2.6-0.7
				c0.7,0.4,1.5,0.6,2.3,0.7L59.2,43.9z"/>
			<path id="Path-Copy-28" class="st35" d="M27.2,59.9l-1.8,1.4c-1.4,3-2.1,6.2-2.3,9.4c-0.5,4.9-1.2,9.8-2.3,14.6l-3.6,6.5
				c0,0-5.8,12.6-6.6,15.9c-0.8,3.3-4.2,9-4.2,9s-11.8,10.8-3.6,12.8c8.2,2,8.5-8.6,8.5-8.6s1.9-2.2,2.2-3.6
				C14,115.9,24.3,97,24.3,97s3.6-5.1,2.9-7.8c0,0,4.7-11.4,4.7-14.3c-0.1-2.4-0.3-4.8-0.8-7.1l0.8-6L27.2,59.9z"/>
			<path id="Path-Copy-27" class="st14" d="M51.9,81.9c0,0-9,4.7-10.8,5c-1.8,0.3,7.6-1,7.6-1L51.9,81.9z"/>
			<path id="Path-Copy-26" class="st14" d="M56.9,86.9c0,0-10.4,4.2-15,3.5C41.9,90.3,53.3,92.9,56.9,86.9z"/>
			<path id="Path-Copy-25" class="st14" d="M60.9,86.9c0,0-9.4,6.3-14.9,5.3c0,0,12.9,2.7,14.9,1.3l-5.8-1.7
				C55.1,91.7,61.5,88.1,60.9,86.9z"/>
			<path id="Path-Copy-24" class="st14" d="M47.9,7.3c-3-0.7-6.2-0.1-8.7,1.6c-1.8,1.3-2.9,3.4-4.9,4.4c-1,0.4-2.1,0.8-3.2,1.1
				c-4,1.6-6.3,5.6-5.7,9.7c0.3,1.7,1.1,3.3,1.5,4.9c0.7,3,0.1,6.1-0.7,9.1c-2.2,8.3-5.5,16.2-9.8,23.6c-0.3,0.5-0.5,1-0.5,1.6
				c0.1,0.4,0.3,0.7,0.6,1c4.1,4.6,10.6,6.2,16.9,6.4c2.3,0.2,4.6-0.2,6.7-1.1c1.3-0.7,2.4-1.7,3.3-2.9c2.2-2.9,3.2-6.4,3-10
				c-0.2-2.9-1.2-5.8-0.4-8.6c0.1-0.4,0.3-0.8,0.5-1c0.7-0.7,1.8-0.5,2.7-0.6c2.6-0.3,4.2-2.9,4.6-5.5s-0.3-5.1-0.4-7.6
				c0-3.3,1.1-6.6,3.1-9.3c0.9-1.2,1.9-2.3,2.2-3.7c0.4-1.8-0.7-3.1-1.6-4.6c-1.4-2.2-2.1-4.8-4.3-6.5C51.4,8.4,49.7,7.6,47.9,7.3z"
				/>
			<path id="Path-Copy-23" class="st37" d="M47.9,6.3c-3-0.7-6.1-0.1-8.7,1.6c-1.8,1.4-2.9,3.4-4.9,4.4c-1,0.4-2.1,0.8-3.2,1.1
				c-4,1.6-6.3,5.6-5.7,9.7c0.3,1.7,1.1,3.3,1.5,5c0.7,3,0.1,6.1-0.7,9.1c-2.2,8.3-5.5,16.2-9.8,23.6c-0.3,0.5-0.5,1-0.5,1.6
				c0.1,0.4,0.3,0.7,0.6,1c4.1,4.6,10.7,6.2,16.9,6.4c2.3,0.2,4.6-0.2,6.7-1.1c1.3-0.7,2.4-1.7,3.3-2.9c2.2-2.9,3.2-6.4,3-10
				c-0.2-2.8-1.2-5.8-0.4-8.6c0.1-0.4,0.3-0.7,0.5-1c0.7-0.7,1.8-0.5,2.7-0.6c2.6-0.3,4.2-3,4.6-5.5s-0.3-5.1-0.3-7.6
				c0-3.4,1.1-6.6,3.1-9.3c0.9-1.2,1.9-2.3,2.2-3.8c0.4-1.8-0.7-3.1-1.6-4.6c-1.4-2.2-2.2-4.8-4.3-6.5C51.4,7.3,49.7,6.6,47.9,6.3z"
				/>
			<path id="Path-Copy-22" class="st14" d="M42.9,111.8c0,0,1.9,11,5,14L42.9,111.8z"/>
			<path id="Path-Copy-21" d="M56.4,17.6c0,0.3,0,0.6,0,0.9c-0.3,1.4-1.3,2.5-2.2,3.7c-1.9,2.7-3,5.9-3,9.2c0,2.5,0.6,5,0.3,7.4
				c-0.3,2.4-1.9,5.1-4.4,5.4c-0.9,0.1-2-0.1-2.6,0.6c-0.3,0.3-0.4,0.7-0.5,1c-0.7,2.7,0.2,5.6,0.4,8.4c0.2,3.5-0.9,7-3,9.8
				c-0.8,1.2-1.9,2.2-3.1,2.9c-2,0.9-4.2,1.3-6.4,1.1c-5.9-0.2-12.1-1.7-16.1-6.1c-0.1,0.3-0.1,0.5-0.1,0.8c0.1,0.4,0.3,0.7,0.6,1
				c3.9,4.5,10.3,6.1,16.3,6.3c2.2,0.2,4.4-0.1,6.5-1.1c1.2-0.7,2.3-1.7,3.1-2.9c2.1-2.8,3.1-6.3,2.9-9.8c-0.2-2.8-1.1-5.7-0.4-8.4
				c0.1-0.4,0.3-0.7,0.5-1c0.7-0.7,1.7-0.5,2.6-0.6c2.5-0.3,4.1-2.9,4.4-5.4c0.3-2.5-0.3-5-0.3-7.4c0-3.3,1-6.5,3-9.2
				c0.8-1.1,1.9-2.3,2.2-3.7C57.1,19.5,56.9,18.4,56.4,17.6L56.4,17.6z"/>
			<path id="Path-Copy-18" class="st35" d="M92.2,9.3l-8.1,17c0,0-1.2,3.2-2,3.8C81.3,30.7,78,40.8,78,40.8L69.3,54l0,0l-0.6,0.9
				L65.3,54l-2.4-8.8l0.1-2.6v-0.3c0,0,5.4-5.6,6.6-6c0,0,0.9,0.1,2.7-4.2s3.4-5.2,3.4-5.2l0.9-3.1L86.7,8c0,0,8.4-11.9,10.7-6.6
				S92.2,9.3,92.2,9.3z"/>
			<path id="Path-Copy-17" class="st35" d="M58.9,130.7c0,0.3-0.1,0.6-0.3,0.8c-0.9,1.4-6.2,28.9-6.2,28.9c0.4,1.9-0.8,5.6-1.5,7.3
				c-0.8,1.7-2.5,10.5-2.5,10.5S48,197.1,46.9,200c-1.1,3,0.3,9.3,0.3,9.3c-0.1,2.9,1.6,6,2.7,7.5l0.2,0.3c0.3,0.5,0.6,0.8,0.6,0.8
				c0.3,0.6,0.7,1.1,1.2,1.5l0.2,0.2c1.4,1,3,1.6,4.7,2h0.2c0.7,0.1,1.1,0.2,1.1,0.2l0.4,2.3l-4.5,0.9l-8.6,0.6
				c0,0-10.1,0.8-7.8-3.7c0.2-0.3,0.3-0.6,0.4-0.9l0,0c0.1-0.2,0.2-0.4,0.2-0.7c1.4-4.3,0.4-9.5,0.4-9.5l-1.9-15.3
				c-3.2-14.2,2.5-30,2.5-30s-0.5-1.3,0.6-4.5c1.1-3.2,0-10.2,0-10.2s-0.6-9-1.4-13.5c-0.3-1.9-0.4-3.8-0.3-5.7
				c0-1.1,0.1-2.2,0.3-3.3l19.3-2.6C58,125.8,59.1,128.9,58.9,130.7z"/>
			<path id="Path-Copy-16" class="st35" d="M80.5,151c-0.2,1.3-0.4,4.8-0.4,4.8c0.8,2.9-1.2,9.8-1.2,9.8l-1,4
				c0.4,5-2.7,17.4-2.7,17.4s-2.1,11.4-3.2,16.4c-0.7,2.7-0.5,5.6,0.6,8.3l0.1,0.2c0,0.1,0,0.2,0.1,0.3c0,0.1,0.1,0.3,0.1,0.4
				c0.2,0.7,0.6,1.3,1.1,1.9c0.2,0.2,0.4,0.4,0.6,0.6l0,0c1,0.9,2.2,1.7,3.5,2.2l0,0l0.6,0.2c0.6,0.2,1.2,0.4,1.8,0.6l0,0h0.2
				l-0.4,2.6l-5.8-1.5l-7.8-2.6l-3.8-2.2c0,0,0-0.2,0.1-0.6c0,0,0,0,0-0.1c0-0.2,0.1-0.4,0.1-0.6c0.6-3.5,2.1-13.2,1.3-20.4
				c-0.9-8.9,2.7-21.1,3.6-24c0.5-1.7,0.7-3.4,0.7-5.2c-1.4-2.1-1.8-10.7-1.8-10.7s-2.6-5.5-4.8-11.3c-0.7-1.9-1.3-3.9-1.6-5.9
				c-0.3-1.4-0.4-2.9-0.3-4.3c0,0,17.7-16.5,19.7-0.5c0.1,0.5,0.1,1.1,0.2,1.6C81.5,147,80.7,149.7,80.5,151z"/>
			<path id="Path-Copy-15" class="st14" d="M58.9,130.6l-1,0.3c-0.8,0.2-1.6,0.4-2.4,0.5c-5.2,0.7-13.8,0.3-16.5,0.1
				c0-1.1,0.1-2.2,0.3-3.2l18.8-2.5C58,125.8,59.1,128.8,58.9,130.6z"/>
			<path id="Path-Copy-14" class="st24" d="M75.9,126.2c0,0-7.1,1.1-12.8,2.3c-1.9,0.4-3.7,0.9-5,1.3c-0.8,0.2-1.6,0.4-2.5,0.5
				c-6.4,0.9-17.8,0.1-17.8,0.1c-3.1-10.1,3.8-22.8,3.8-22.8c-0.2-1,1.4-4.1,1.4-4.1v-0.1l1-3.6h26.3l0.3,1.5l0.7,3.1l4.1,19.5
				L75.9,126.2z"/>
			<path id="Path-Copy-13" class="st14" d="M79.9,132.5l-0.2,0.1l-3,1.4c-3.3,1.6-13.1,1.9-16.5,1.9c-0.3-1.4-0.4-2.9-0.3-4.4
				c0,0,17.8-16.8,19.8-0.5C79.7,131.4,79.8,132,79.9,132.5z"/>
			<path id="Path-Copy-12" class="st24" d="M79.9,131.2l-0.6,0.3l-3.1,1.4c-3.4,1.6-13.6,1.9-16.8,1.9h-0.9c-1.5,0-3-1.5-3-1.9
				c0-0.2-0.2-1.2-0.3-2.1c-0.1-0.7-0.2-1.3-0.2-1.3c-3.5-1.5-6.9-3.3-10.2-5.3c-2.6-1.8-1.9-14.4-1.4-20.7c0.2-2.2,0.3-3.6,0.3-3.6
				l26.4,1.6l3.7,0.2l2.1,0.5l0.6,0.1c0,0,1.5,11.3,2.3,12.2s0.3,4.1,0.2,5.9c0,0.8-0.1,1.5-0.2,2.3c0,0,1.1,3.2,0.8,4.9
				C79.4,128.8,79.5,130,79.9,131.2L79.9,131.2z"/>
			<circle id="Oval-Copy" class="st35" cx="51.9" cy="27" r="11"/>
			<path id="Path-Copy-11" class="st35" d="M46.7,32c0,0,0.7,10.4-1.3,12.8c-2.4,2.4-4.9,4.7-7.5,6.9l1.7,7.1l9.4,1.1l10.9-12
				l-2.5-3.1c0,0-1.9-6.7-0.3-10S46.7,32,46.7,32z"/>
			<path id="Path-Copy-10" class="st14" d="M69.9,54L69.9,54l-0.6,0.9L66.1,54l-2.2-8.6l0.1-2.5l0.7-1c0,0,3.5,0.1,3.4,3.4
				C67.9,48.2,69.5,52.9,69.9,54z"/>
			<path id="Path-Copy-9" class="st14" d="M76.9,103.5c0,0-2.7,0.6-5.8,1c-3.1,0.4-6.6,0.6-8.1-0.2c-2.4-1.4-15.7-1-19.5-0.9h-0.6
				l1-3.5h26.2l0.3,1.5l3.7,0.2l2.1,0.5C76.7,102.9,76.9,103.5,76.9,103.5z"/>
			<path id="Path-Copy-8" class="st36" d="M63.5,42.9c0,0,3.7,0.1,3.5,3.5c-0.2,3.4,2,9.2,2,9.2l-0.8,2c0,0-1.2,4.8-0.2,5.9
				c0.9,1.2,4.3,1.2,2.3,10.9c0,0-0.4,7.3,0.6,9.7c1,2.4,1,8.1,2.5,10.4c1.4,2.5,2.6,5.2,3.5,7.9c0,0-10.9,2.5-13.7,0.8
				s-20.4-0.8-20.4-0.8s0.1-3,0-3.3c-0.2-0.7,0-1.5,0.4-2.2c0.6-0.8,1.5-2.2,1-3.4c-0.5-1.2,1.3-2.9,0.3-4.8c-0.9-1.8-2-2.2-1.8-3.2
				c0.1-1.2-0.3-2.3-1-3.2c-0.7-0.8-5.2-9.8-5.2-9.8l-0.8-4.2c0,0-5.8-4.3-5.7-6.4c0.1-2,2.2-4.9,2.2-4.9l5.6-5.6
				c0,0,3.1,3.4,6.1,2.2c3-1.2,9.5-6.9,9.5-6.9s2.3-1.3,2.5-2.2s1.6-0.1,1.6-0.1s2.1-1.2,2.5-0.8c0.7,0.4,1.5,0.6,2.3,0.8L63.5,42.9
				z"/>
			<path id="Path-Copy-7" class="st35" d="M31.2,60.9l-1.8,1.4c-1.4,2.9-2.1,6-2.3,9.2c-0.5,4.8-1.2,9.5-2.3,14.2L21.3,92
				c0,0-5.8,12.2-6.6,15.4c-0.8,3.2-4.2,8.7-4.2,8.7s-11.8,10.5-3.6,12.4s8.5-8.3,8.5-8.3s1.9-2.1,2.2-3.5C18,115.3,28.3,97,28.3,97
				s3.6-4.9,2.9-7.5c0,0,4.7-11.1,4.7-13.9c-0.1-2.3-0.3-4.6-0.8-6.9l0.8-5.8L31.2,60.9z"/>
			<path id="Path-Copy-6" class="st14" d="M55.9,83.9c0,0-8.2,4.7-9.8,5s6.9-1,6.9-1L55.9,83.9z"/>
			<path id="Path-Copy-5" class="st14" d="M62.9,86.9c0,0-11.1,4.2-16,3.5C46.9,90.3,59.1,92.9,62.9,86.9z"/>
			<path id="Path-Copy-4" class="st14" d="M63.9,87.9c0,0-10,6.3-15.9,5.3c0,0,13.8,2.7,15.9,1.3l-6.2-1.7
				C57.7,92.7,64.5,89.1,63.9,87.9z"/>
			<path id="Path-Copy-3" class="st14" d="M51.4,8.3c-2.9-0.7-5.9-0.1-8.3,1.6c-1.7,1.3-2.8,3.4-4.7,4.4c-1,0.4-2,0.8-3.1,1.1
				c-3.8,1.6-6,5.5-5.4,9.6c0.3,1.7,1.1,3.2,1.5,4.9c0.7,2.9,0.1,6-0.7,9c-2.1,8.1-5.2,16-9.3,23.3c-0.3,0.5-0.5,1-0.5,1.6
				c0.1,0.4,0.3,0.7,0.6,1c3.9,4.5,10.2,6.1,16.1,6.3c2.2,0.2,4.4-0.2,6.4-1.1c1.2-0.7,2.3-1.7,3.1-2.9c2.1-2.8,3.1-6.3,2.9-9.8
				c-0.2-2.8-1.1-5.7-0.4-8.4c0.1-0.4,0.2-0.7,0.5-1c0.6-0.7,1.7-0.5,2.6-0.6c2.5-0.3,4.1-2.9,4.3-5.4c0.3-2.5-0.3-5-0.3-7.4
				c0-3.3,1-6.5,2.9-9.2c0.8-1.1,1.8-2.2,2.1-3.7c0.4-1.8-0.7-3.1-1.6-4.5c-1.4-2.2-2-4.7-4.1-6.4C54.7,9.3,53.1,8.6,51.4,8.3z"/>
			<path id="Path-Copy-2" class="st37" d="M51.4,7.3c-2.8-0.7-5.9-0.1-8.3,1.6c-1.7,1.3-2.8,3.4-4.7,4.4c-1,0.4-2,0.8-3.1,1.1
				c-3.8,1.6-6,5.5-5.4,9.6c0.3,1.7,1.1,3.2,1.5,4.9c0.7,2.9,0.1,6-0.7,9c-2.1,8.1-5.2,16-9.3,23.3c-0.3,0.5-0.5,1-0.5,1.6
				c0.1,0.4,0.3,0.7,0.6,1c3.9,4.5,10.2,6.1,16.1,6.3c2.2,0.2,4.4-0.1,6.4-1.1c1.2-0.7,2.3-1.7,3.1-2.9c2.1-2.8,3.1-6.3,2.9-9.8
				c-0.2-2.8-1.1-5.7-0.4-8.4c0.1-0.4,0.2-0.7,0.5-1c0.6-0.7,1.7-0.5,2.6-0.6c2.5-0.3,4-2.9,4.3-5.4c0.3-2.5-0.3-5-0.3-7.4
				c0-3.3,1-6.5,2.9-9.2c0.8-1.1,1.8-2.3,2.1-3.7c0.3-1.8-0.7-3.1-1.6-4.5c-1.4-2.2-2.1-4.8-4.1-6.4C54.7,8.3,53.1,7.6,51.4,7.3z"/>
			<path id="Path-Copy" class="st14" d="M47.9,112.8c0,0,2.2,10.2,6,13L47.9,112.8z"/>
			<path id="Path-Copy-20" d="M30.4,26.4c-0.1-0.4-0.2-0.8-0.4-1.2C30.2,25.6,30.3,25.9,30.4,26.4z"/>
			<path id="Path-Copy-19" d="M61.4,17.6c0,0.3,0,0.6,0,0.9c-0.3,1.4-1.3,2.5-2.2,3.7c-1.9,2.7-3,5.9-3,9.2c0,2.5,0.6,5,0.3,7.4
				c-0.3,2.4-1.9,5.1-4.4,5.4c-0.9,0.1-2-0.1-2.6,0.6c-0.3,0.3-0.4,0.7-0.5,1c-0.7,2.7,0.2,5.6,0.4,8.4c0.2,3.5-0.9,7-3,9.8
				c-0.8,1.2-1.9,2.2-3.1,2.9c-2,0.9-4.2,1.3-6.4,1.1c-5.9-0.2-12.1-1.7-16.1-6.1c-0.1,0.3-0.1,0.5-0.1,0.8c0.1,0.4,0.3,0.7,0.6,1
				c3.9,4.5,10.3,6.1,16.3,6.3c2.2,0.2,4.4-0.1,6.5-1.1c1.2-0.7,2.3-1.7,3.1-2.9c2.1-2.8,3.1-6.3,2.9-9.8c-0.2-2.8-1.1-5.7-0.4-8.4
				c0.1-0.4,0.3-0.7,0.5-1c0.7-0.7,1.7-0.5,2.6-0.6c2.5-0.3,4.1-2.9,4.4-5.4c0.3-2.5-0.3-5-0.3-7.4c0-3.3,1-6.5,3-9.2
				c0.8-1.1,1.9-2.3,2.2-3.7C62.1,19.5,61.9,18.4,61.4,17.6L61.4,17.6z"/>
		</g>
		<g id="noun_x5F_play_x5F_356787-_x28_1_x29_" transform="translate(457.000000, 205.000000)">
			<g id="Group_20_" transform="translate(0.499208, 0.000000)">
				<g id="Shape_1_">
					<g class="st38">
						<path id="path-8_2_" d="M56.9,0C25.5,0,0,25.5,0,56.9s25.5,56.9,56.9,56.9s56.9-25.5,56.9-56.9S88.3,0,56.9,0z M56.9,109.6
							c-29,0-52.7-23.7-52.7-52.7S27.9,4.2,56.9,4.2s52.7,23.7,52.7,52.7S85.9,109.6,56.9,109.6z"/>
					</g>
					<g>
						<path id="path-8_1_" class="st12" d="M56.9,0C25.5,0,0,25.5,0,56.9s25.5,56.9,56.9,56.9s56.9-25.5,56.9-56.9S88.3,0,56.9,0z
							 M56.9,109.6c-29,0-52.7-23.7-52.7-52.7S27.9,4.2,56.9,4.2s52.7,23.7,52.7,52.7S85.9,109.6,56.9,109.6z"/>
					</g>
				</g>
				<g id="Shape_2_">
					<g class="st39">
						<path id="path-10_2_" d="M42.8,81.8l39-24.9L42.8,32V81.8z M47.1,39.7L74,56.9L47.1,74.1V39.7z"/>
					</g>
					<g>
						<path id="path-10_1_" class="st12" d="M42.8,81.8l39-24.9L42.8,32V81.8z M47.1,39.7L74,56.9L47.1,74.1V39.7z"/>
					</g>
				</g>
			</g>
		</g>
	</g>
</g>
</svg>
