<?xml version="1.0" encoding="iso-8859-1"?>
<!-- Generator: Adobe Illustrator 16.0.4, SVG Export Plug-In . SVG Version: 6.00 Build 0)  -->
<!DOCTYPE svg PUBLIC "-//W3C//DTD SVG 1.1//EN" "http://www.w3.org/Graphics/SVG/1.1/DTD/svg11.dtd">
<svg version="1.1" id="ai" xmlns="http://www.w3.org/2000/svg" xmlns:xlink="http://www.w3.org/1999/xlink" x="0px" y="0px"
	 width="56px" height="64px" viewBox="0 0 56 64" style="enable-background:new 0 0 56 64;" xml:space="preserve">
<g id="Layer_125">
	<path style="fill-rule:evenodd;clip-rule:evenodd;fill:#FFC35E;" d="M5.075,0.006c-2.802,0-5.073,2.273-5.073,5.074v53.841
		c0,2.803,2.271,5.074,5.073,5.074h45.774c2.802,0,5.074-2.271,5.074-5.074V20.316L37.02,0.006H5.075z"/>
</g>
<g id="Layer_7">
	<path style="fill-rule:evenodd;clip-rule:evenodd;fill:#FFB446;" d="M55.923,20.357v0.999c0,0-10.362,0-12.8,0
		s-6.312-1.26-6.128-6.707c0,0,0.253,5.708,6.003,5.708C48.728,20.357,55.923,20.357,55.923,20.357z"/>
</g>
<g id="Layer_6">
	<path style="opacity:0.5;fill-rule:evenodd;clip-rule:evenodd;fill:#FFFFFF;" d="M37.02,0.006c0,0,0,12.962,0,14.56
		c0,1.656,1.104,5.792,6.104,5.792s12.8,0,12.8,0L37.02,0.006z"/>
</g>
<g id="Layer_127">
	<g>
		<path style="fill:#FFFFFF;" d="M20.136,53.923c-0.306,0-0.594-0.18-0.72-0.486l-0.9-2.287h-5.978l-0.9,2.287
			c-0.126,0.306-0.414,0.486-0.72,0.486c-0.468,0-0.811-0.378-0.811-0.792c0-0.09,0.018-0.198,0.054-0.288l4.141-10.335
			c0.198-0.486,0.667-0.811,1.225-0.811c0.522,0,0.99,0.324,1.188,0.811l4.177,10.335c0.036,0.09,0.054,0.198,0.054,0.288
			C20.946,53.491,20.622,53.923,20.136,53.923z M15.526,43.354l-2.557,6.463h5.095L15.526,43.354z"/>
		<path style="fill:#FFFFFF;" d="M24.039,53.923c-0.414,0-0.738-0.324-0.738-0.738V42.417c0-0.396,0.324-0.72,0.774-0.72
			c0.396,0,0.72,0.324,0.72,0.72v10.767C24.795,53.599,24.471,53.923,24.039,53.923z"/>
	</g>
</g>
</svg>
