<?xml version="1.0" encoding="iso-8859-1"?>
<!-- Generator: Adobe Illustrator 16.0.4, SVG Export Plug-In . SVG Version: 6.00 Build 0)  -->
<!DOCTYPE svg PUBLIC "-//W3C//DTD SVG 1.1//EN" "http://www.w3.org/Graphics/SVG/1.1/DTD/svg11.dtd">
<svg version="1.1" xmlns="http://www.w3.org/2000/svg" xmlns:xlink="http://www.w3.org/1999/xlink" x="0px" y="0px" width="56px"
	 height="64px" viewBox="0 0 56 64" style="enable-background:new 0 0 56 64;" xml:space="preserve">
<g id="audio">
	<g id="Layer_128">
		<path style="fill-rule:evenodd;clip-rule:evenodd;fill:#379FD3;" d="M5.151,0.012c-2.802,0-5.073,2.272-5.073,5.073v53.842
			C0.078,61.729,2.35,64,5.151,64h45.774C53.728,64,56,61.729,56,58.927V20.321L37.097,0.012H5.151z"/>
		<g id="Layer_4">
			<path style="fill-rule:evenodd;clip-rule:evenodd;fill:#2987C8;" d="M56,20.357v1c0,0-10.362,0-12.8,0s-6.312-1.26-6.128-6.707
				c0,0,0.208,5.707,6.003,5.707C48.805,20.357,56,20.357,56,20.357z"/>
			<path style="opacity:0.5;fill-rule:evenodd;clip-rule:evenodd;fill:#FFFFFF;" d="M37.097,0.006c0,0,0,12.963,0,14.561
				c0,1.656,1.104,5.791,6.104,5.791s12.8,0,12.8,0L37.097,0.006z"/>
		</g>
		<path style="fill-rule:evenodd;clip-rule:evenodd;fill:#FFFFFF;" d="M29.798,34.036L15.633,35.85v13.438
			c-0.738-0.205-1.628-0.243-2.531-0.064c-2.009,0.394-3.325,1.702-2.938,2.918c0.386,1.215,2.325,1.88,4.333,1.48
			c1.764-0.348,2.994-1.397,3.005-2.473h0.002v-10.74l10.422-1.288v8.306c-0.75-0.212-1.655-0.251-2.572-0.068
			c-2.03,0.399-3.357,1.718-2.969,2.947c0.389,1.229,2.35,1.897,4.379,1.499c1.849-0.366,3.116-1.494,3.031-2.621V34.036z"/>
	</g>
</g>
<g id="nyt_x5F_exporter_x5F_info" style="display:none;">
</g>
</svg>
