<?xml version="1.0" encoding="iso-8859-1"?>
<!-- Generator: Adobe Illustrator 16.0.4, SVG Export Plug-In . SVG Version: 6.00 Build 0)  -->
<!DOCTYPE svg PUBLIC "-//W3C//DTD SVG 1.1//EN" "http://www.w3.org/Graphics/SVG/1.1/DTD/svg11.dtd">
<svg version="1.1" id="csv" xmlns="http://www.w3.org/2000/svg" xmlns:xlink="http://www.w3.org/1999/xlink" x="0px" y="0px"
	 width="56px" height="64px" viewBox="0 0 56 64" style="enable-background:new 0 0 56 64;" xml:space="preserve">
<g id="Layer_134">
	<path style="fill-rule:evenodd;clip-rule:evenodd;fill:#45B058;" d="M5.106,0C2.304,0,0.033,2.272,0.033,5.074v53.841
		c0,2.803,2.271,5.074,5.073,5.074H50.88c2.801,0,5.074-2.271,5.074-5.074V20.31L37.051,0H5.106z"/>
	<g>
		<path style="fill:#FFFFFF;" d="M20.306,43.197c0.126,0.144,0.198,0.324,0.198,0.522c0,0.378-0.306,0.72-0.703,0.72
			c-0.18,0-0.378-0.072-0.504-0.234c-0.702-0.846-1.891-1.387-3.007-1.387c-2.629,0-4.627,2.017-4.627,4.88
			c0,2.845,1.999,4.879,4.627,4.879c1.134,0,2.25-0.486,3.007-1.369c0.125-0.144,0.324-0.233,0.504-0.233
			c0.415,0,0.703,0.359,0.703,0.738c0,0.18-0.072,0.36-0.198,0.504c-0.937,0.972-2.215,1.693-4.015,1.693
			c-3.457,0-6.176-2.521-6.176-6.212c0-3.691,2.719-6.212,6.176-6.212C18.091,41.487,19.387,42.207,20.306,43.197z"/>
		<path style="fill:#FFFFFF;" d="M27.108,53.911c-1.782,0-3.187-0.594-4.213-1.495c-0.162-0.144-0.234-0.342-0.234-0.54
			c0-0.361,0.27-0.757,0.702-0.757c0.144,0,0.306,0.036,0.432,0.144c0.828,0.739,1.98,1.314,3.367,1.314
			c2.143,0,2.827-1.152,2.827-2.071c0-3.097-7.112-1.386-7.112-5.672c0-1.98,1.764-3.331,4.123-3.331
			c1.548,0,2.881,0.467,3.853,1.278c0.162,0.144,0.252,0.342,0.252,0.54c0,0.36-0.306,0.72-0.703,0.72
			c-0.144,0-0.306-0.054-0.432-0.162c-0.882-0.72-1.98-1.044-3.079-1.044c-1.44,0-2.467,0.774-2.467,1.909
			c0,2.701,7.112,1.152,7.112,5.636C31.537,52.128,30.349,53.911,27.108,53.911z"/>
		<path style="fill:#FFFFFF;" d="M44.102,42.657l-4.159,10.335c-0.198,0.486-0.685,0.81-1.188,0.81h-0.036
			c-0.522,0-1.008-0.324-1.207-0.81L33.37,42.657c-0.036-0.09-0.054-0.18-0.054-0.288c0-0.36,0.323-0.793,0.81-0.793
			c0.306,0,0.594,0.18,0.72,0.486l3.889,9.992l3.889-9.992c0.108-0.288,0.396-0.486,0.72-0.486c0.468,0,0.81,0.378,0.81,0.793
			C44.155,42.459,44.137,42.567,44.102,42.657z"/>
	</g>
	<g id="Layer_3">
		<path style="fill-rule:evenodd;clip-rule:evenodd;fill:#349C42;" d="M56.001,20.357v1c0,0-10.362,0-12.8,0
			s-6.312-1.26-6.128-6.707c0,0,0.208,5.707,6.003,5.707C48.806,20.357,56.001,20.357,56.001,20.357z"/>
		<path style="opacity:0.5;fill-rule:evenodd;clip-rule:evenodd;fill:#FFFFFF;" d="M37.098,0.006c0,0,0,12.963,0,14.561
			c0,1.656,1.104,5.791,6.104,5.791s12.8,0,12.8,0L37.098,0.006z"/>
	</g>
</g>
</svg>
