<?xml version="1.0" encoding="iso-8859-1"?>
<!-- Generator: Adobe Illustrator 16.0.4, SVG Export Plug-In . SVG Version: 6.00 Build 0)  -->
<!DOCTYPE svg PUBLIC "-//W3C//DTD SVG 1.1//EN" "http://www.w3.org/Graphics/SVG/1.1/DTD/svg11.dtd">
<svg version="1.1" id="eps" xmlns="http://www.w3.org/2000/svg" xmlns:xlink="http://www.w3.org/1999/xlink" x="0px" y="0px"
	 width="56px" height="64px" viewBox="0 0 56 64" style="enable-background:new 0 0 56 64;" xml:space="preserve">
<g id="Layer_133">
	<path style="fill-rule:evenodd;clip-rule:evenodd;fill:#FFC35E;" d="M5.106,0.009c-2.802,0-5.073,2.272-5.073,5.074v53.841
		c0,2.803,2.271,5.074,5.073,5.074h45.774c2.801,0,5.074-2.271,5.074-5.074V20.319L37.052,0.009H5.106z"/>
	<g>
		<path style="fill:#FFFFFF;" d="M17.45,53.912h-6.248c-0.594,0-1.081-0.487-1.081-1.081v-9.849c0-0.595,0.486-1.081,1.081-1.081
			h6.248c0.36,0,0.648,0.288,0.648,0.685c0,0.359-0.288,0.647-0.648,0.647h-5.833v3.871h5.708c0.36,0,0.648,0.288,0.648,0.685
			c0,0.36-0.288,0.648-0.648,0.648h-5.708v4.141h5.833c0.36,0,0.648,0.288,0.648,0.648C18.098,53.623,17.81,53.912,17.45,53.912z"/>
		<path style="fill:#FFFFFF;" d="M25.639,49.14h-3.331v4.141c0,0.414-0.324,0.738-0.756,0.738c-0.414,0-0.738-0.324-0.738-0.738
			V42.982c0-0.595,0.486-1.081,1.081-1.081h3.745c2.413,0,3.763,1.657,3.763,3.619C29.402,47.483,28.016,49.14,25.639,49.14z
			 M25.459,43.234h-3.151v4.573h3.151c1.422,0,2.395-0.936,2.395-2.287C27.854,44.17,26.881,43.234,25.459,43.234z"/>
		<path style="fill:#FFFFFF;" d="M35.718,54.127c-1.782,0-3.187-0.594-4.213-1.495c-0.162-0.144-0.234-0.342-0.234-0.54
			c0-0.361,0.27-0.757,0.702-0.757c0.144,0,0.306,0.036,0.432,0.144c0.829,0.739,1.981,1.314,3.367,1.314
			c2.143,0,2.827-1.152,2.827-2.071c0-3.097-7.112-1.386-7.112-5.672c0-1.98,1.764-3.331,4.123-3.331
			c1.548,0,2.881,0.468,3.853,1.279c0.162,0.144,0.252,0.342,0.252,0.54c0,0.36-0.306,0.72-0.702,0.72
			c-0.144,0-0.306-0.054-0.432-0.162c-0.882-0.72-1.98-1.044-3.079-1.044c-1.44,0-2.467,0.774-2.467,1.909
			c0,2.701,7.112,1.152,7.112,5.636C40.148,52.345,38.959,54.127,35.718,54.127z"/>
	</g>
	<g id="Layer_3">
		<path style="fill-rule:evenodd;clip-rule:evenodd;fill:#FFB446;" d="M56,20.357v1c0,0-10.361,0-12.799,0
			c-2.438,0-6.312-1.26-6.128-6.707c0,0,0.208,5.707,6.003,5.707C48.805,20.357,56,20.357,56,20.357z"/>
		<path style="opacity:0.5;fill-rule:evenodd;clip-rule:evenodd;fill:#FFFFFF;" d="M37.097,0.006c0,0,0,12.963,0,14.561
			c0,1.656,1.104,5.791,6.104,5.791c5,0,12.799,0,12.799,0L37.097,0.006z"/>
	</g>
</g>
</svg>
