<?xml version="1.0" encoding="iso-8859-1"?>
<!-- Generator: Adobe Illustrator 16.0.4, SVG Export Plug-In . SVG Version: 6.00 Build 0)  -->
<!DOCTYPE svg PUBLIC "-//W3C//DTD SVG 1.1//EN" "http://www.w3.org/Graphics/SVG/1.1/DTD/svg11.dtd">
<svg version="1.1" id="excel" xmlns="http://www.w3.org/2000/svg" xmlns:xlink="http://www.w3.org/1999/xlink" x="0px" y="0px"
	 width="56px" height="64px" viewBox="0 0 56 64" style="enable-background:new 0 0 56 64;" xml:space="preserve">
<g id="Layer_135">
	<path style="fill-rule:evenodd;clip-rule:evenodd;fill:#45B058;" d="M5.112,0.006c-2.802,0-5.073,2.273-5.073,5.074v53.841
		c0,2.803,2.271,5.074,5.073,5.074h45.774c2.801,0,5.074-2.271,5.074-5.074V20.316L37.058,0.006H5.112z"/>
	<g>
		<path style="fill:#FFFFFF;" d="M19.429,53.938c-0.216,0-0.415-0.09-0.54-0.27l-3.728-4.97l-3.745,4.97
			c-0.126,0.18-0.324,0.27-0.54,0.27c-0.396,0-0.72-0.306-0.72-0.72c0-0.144,0.035-0.306,0.144-0.432l3.89-5.131l-3.619-4.826
			c-0.09-0.126-0.145-0.27-0.145-0.414c0-0.342,0.288-0.72,0.721-0.72c0.216,0,0.432,0.108,0.576,0.288l3.438,4.628l3.438-4.646
			c0.127-0.18,0.324-0.27,0.541-0.27c0.378,0,0.738,0.306,0.738,0.72c0,0.144-0.036,0.288-0.127,0.414l-3.619,4.808l3.891,5.149
			c0.09,0.126,0.125,0.27,0.125,0.414C20.148,53.596,19.824,53.938,19.429,53.938z"/>
		<path style="fill:#FFFFFF;" d="M29.418,53.812h-5.455c-0.595,0-1.081-0.486-1.081-1.08V42.415c0-0.396,0.324-0.72,0.774-0.72
			c0.396,0,0.721,0.324,0.721,0.72v10.065h5.041c0.359,0,0.648,0.288,0.648,0.648C30.066,53.524,29.777,53.812,29.418,53.812z"/>
		<path style="fill:#FFFFFF;" d="M36.4,54.028c-1.782,0-3.188-0.594-4.213-1.495c-0.162-0.144-0.234-0.342-0.234-0.54
			c0-0.36,0.27-0.756,0.702-0.756c0.144,0,0.306,0.036,0.433,0.144c0.828,0.738,1.98,1.314,3.367,1.314
			c2.143,0,2.826-1.152,2.826-2.071c0-3.097-7.111-1.386-7.111-5.672c0-1.98,1.764-3.331,4.123-3.331
			c1.548,0,2.881,0.468,3.853,1.278c0.162,0.144,0.253,0.342,0.253,0.54c0,0.36-0.307,0.72-0.703,0.72
			c-0.145,0-0.307-0.054-0.432-0.162c-0.883-0.72-1.98-1.044-3.079-1.044c-1.44,0-2.467,0.774-2.467,1.909
			c0,2.701,7.112,1.152,7.112,5.636C40.83,52.246,39.642,54.028,36.4,54.028z"/>
	</g>
	<path style="fill-rule:evenodd;clip-rule:evenodd;fill:#349C42;" d="M55.953,20.352v1c0,0-10.363,0-12.801,0
		s-6.312-1.26-6.127-6.707c0,0,0.207,5.707,6.002,5.707C48.758,20.352,55.953,20.352,55.953,20.352z"/>
	<path style="opacity:0.5;fill-rule:evenodd;clip-rule:evenodd;fill:#FFFFFF;" d="M37.049,0c0,0,0,12.963,0,14.561
		c0,1.656,1.104,5.791,6.104,5.791s12.801,0,12.801,0L37.049,0z"/>
</g>
</svg>
