<?xml version="1.0" encoding="iso-8859-1"?>
<!-- Generator: Adobe Illustrator 16.0.4, SVG Export Plug-In . SVG Version: 6.00 Build 0)  -->
<!DOCTYPE svg PUBLIC "-//W3C//DTD SVG 1.1//EN" "http://www.w3.org/Graphics/SVG/1.1/DTD/svg11.dtd">
<svg version="1.1" id="exe" xmlns="http://www.w3.org/2000/svg" xmlns:xlink="http://www.w3.org/1999/xlink" x="0px" y="0px"
	 width="56px" height="64px" viewBox="0 0 56 64" style="enable-background:new 0 0 56 64;" xml:space="preserve">
<g id="Layer_136">
	<path style="fill-rule:evenodd;clip-rule:evenodd;fill:#8199AF;" d="M5.112,0.025c-2.802,0-5.073,2.272-5.073,5.074v53.841
		c0,2.803,2.271,5.074,5.073,5.074h45.774c2.801,0,5.074-2.271,5.074-5.074V20.335L37.058,0.025H5.112z"/>
	<g id="Layer_3">
		<path style="fill-rule:evenodd;clip-rule:evenodd;fill:#617F9B;" d="M55.961,20.377v1c0,0-10.361,0-12.799,0
			s-6.312-1.26-6.129-6.708c0,0,0.208,5.708,6.004,5.708C48.766,20.377,55.961,20.377,55.961,20.377z"/>
		<path style="opacity:0.5;fill-rule:evenodd;clip-rule:evenodd;fill:#FFFFFF;" d="M37.059,0.025c0,0,0,12.963,0,14.561
			c0,1.656,1.104,5.792,6.104,5.792s12.799,0,12.799,0L37.059,0.025z"/>
	</g>
	<g>
		<path style="fill:#FFFFFF;" d="M17.455,53.919h-6.247c-0.595,0-1.081-0.486-1.081-1.081V42.99c0-0.594,0.486-1.08,1.081-1.08
			h6.247c0.361,0,0.648,0.288,0.648,0.684c0,0.36-0.287,0.648-0.648,0.648h-5.833v3.871h5.708c0.359,0,0.648,0.288,0.648,0.685
			c0,0.36-0.289,0.648-0.648,0.648h-5.708v4.141h5.833c0.361,0,0.648,0.288,0.648,0.648C18.104,53.631,17.816,53.919,17.455,53.919z
			"/>
		<path style="fill:#FFFFFF;" d="M29.553,54.045c-0.217,0-0.414-0.09-0.541-0.27l-3.727-4.97l-3.746,4.97
			c-0.125,0.18-0.324,0.27-0.539,0.27c-0.396,0-0.721-0.306-0.721-0.72c0-0.144,0.036-0.306,0.145-0.432l3.889-5.131l-3.619-4.825
			c-0.09-0.126-0.145-0.271-0.145-0.415c0-0.342,0.289-0.72,0.721-0.72c0.217,0,0.432,0.108,0.576,0.288l3.439,4.627l3.438-4.646
			c0.126-0.18,0.324-0.27,0.54-0.27c0.379,0,0.738,0.306,0.738,0.72c0,0.145-0.035,0.289-0.126,0.415l-3.618,4.808l3.889,5.149
			c0.09,0.126,0.126,0.27,0.126,0.414C30.272,53.703,29.948,54.045,29.553,54.045z"/>
		<path style="fill:#FFFFFF;" d="M40.333,53.919h-6.247c-0.595,0-1.081-0.486-1.081-1.081V42.99c0-0.594,0.486-1.08,1.081-1.08
			h6.247c0.36,0,0.648,0.288,0.648,0.684c0,0.36-0.288,0.648-0.648,0.648H34.5v3.871h5.707c0.36,0,0.648,0.288,0.648,0.685
			c0,0.36-0.288,0.648-0.648,0.648H34.5v4.141h5.833c0.36,0,0.648,0.288,0.648,0.648C40.981,53.631,40.693,53.919,40.333,53.919z"/>
	</g>
</g>
</svg>
