<?xml version="1.0" encoding="iso-8859-1"?>
<!-- Generator: Adobe Illustrator 16.0.4, SVG Export Plug-In . SVG Version: 6.00 Build 0)  -->
<!DOCTYPE svg PUBLIC "-//W3C//DTD SVG 1.1//EN" "http://www.w3.org/Graphics/SVG/1.1/DTD/svg11.dtd">
<svg version="1.1" id="flash" xmlns="http://www.w3.org/2000/svg" xmlns:xlink="http://www.w3.org/1999/xlink" x="0px" y="0px"
	 width="56px" height="64px" viewBox="0 0 56 64" style="enable-background:new 0 0 56 64;" xml:space="preserve">
<g id="Layer_132">
	<path style="fill-rule:evenodd;clip-rule:evenodd;fill:#E53C3C;" d="M5.112,0.009c-2.802,0-5.073,2.273-5.073,5.074v53.841
		c0,2.803,2.271,5.074,5.073,5.074h45.775c2.801,0,5.074-2.271,5.074-5.074V20.319L37.057,0.009H5.112z"/>
	<g id="Layer_3">
		<path style="fill-rule:evenodd;clip-rule:evenodd;fill:#DE2D2D;" d="M55.961,20.346v1c0,0-10.361,0-12.799,0
			s-6.312-1.26-6.129-6.707c0,0,0.208,5.707,6.004,5.707C48.766,20.346,55.961,20.346,55.961,20.346z"/>
		<path style="opacity:0.5;fill-rule:evenodd;clip-rule:evenodd;fill:#FFFFFF;" d="M37.059-0.006c0,0,0,12.963,0,14.561
			c0,1.656,1.104,5.791,6.104,5.791s12.799,0,12.799,0L37.059-0.006z"/>
	</g>
	<g>
		<path style="fill:#FFFFFF;" d="M17.466,43.105h-5.833v3.871h5.708c0.36,0,0.648,0.288,0.648,0.685c0,0.36-0.288,0.648-0.648,0.648
			h-5.708v4.843c0,0.414-0.324,0.738-0.756,0.738c-0.414,0-0.738-0.324-0.738-0.738V42.854c0-0.594,0.486-1.081,1.081-1.081h6.248
			c0.36,0,0.648,0.288,0.648,0.685C18.114,42.817,17.826,43.105,17.466,43.105z"/>
		<path style="fill:#FFFFFF;" d="M27.024,53.783h-5.456c-0.594,0-1.081-0.487-1.081-1.081V42.385c0-0.396,0.324-0.72,0.774-0.72
			c0.396,0,0.72,0.324,0.72,0.72V52.45h5.042c0.36,0,0.648,0.288,0.648,0.648C27.672,53.495,27.384,53.783,27.024,53.783z"/>
		<path style="fill:#FFFFFF;" d="M39.246,53.891c-0.306,0-0.594-0.18-0.72-0.486l-0.9-2.287h-5.978l-0.9,2.287
			c-0.126,0.306-0.414,0.486-0.72,0.486c-0.468,0-0.811-0.378-0.811-0.792c0-0.09,0.018-0.198,0.054-0.288l4.141-10.335
			c0.198-0.486,0.667-0.811,1.225-0.811c0.522,0,0.99,0.324,1.188,0.811l4.177,10.335c0.036,0.09,0.054,0.198,0.054,0.288
			C40.056,53.458,39.732,53.891,39.246,53.891z M34.637,43.322l-2.557,6.464h5.095L34.637,43.322z"/>
	</g>
</g>
</svg>
