<?xml version="1.0" encoding="iso-8859-1"?>
<!-- Generator: Adobe Illustrator 16.0.4, SVG Export Plug-In . SVG Version: 6.00 Build 0)  -->
<!DOCTYPE svg PUBLIC "-//W3C//DTD SVG 1.1//EN" "http://www.w3.org/Graphics/SVG/1.1/DTD/svg11.dtd">
<svg version="1.1" xmlns="http://www.w3.org/2000/svg" xmlns:xlink="http://www.w3.org/1999/xlink" x="0px" y="0px" width="56px"
	 height="64px" viewBox="0 0 56 64" style="enable-background:new 0 0 56 64;" xml:space="preserve">
<g id="gdoc">
	<g id="Layer_137">
		<path style="fill-rule:evenodd;clip-rule:evenodd;fill:#3C8CEA;" d="M5.112,0.011c-2.802,0-5.073,2.273-5.073,5.074v53.841
			C0.039,61.729,2.311,64,5.112,64h45.775c2.801,0,5.074-2.271,5.074-5.074V20.321L37.057,0.011H5.112z"/>
		<g>
			<rect x="10.133" y="37.439" style="fill:#FFFFFF;" width="21.564" height="2.059"/>
			<rect x="10.133" y="42.24" style="fill:#FFFFFF;" width="21.564" height="2.057"/>
			<rect x="10.133" y="47.041" style="fill:#FFFFFF;" width="21.564" height="2.057"/>
			<rect x="10.133" y="51.841" style="fill:#FFFFFF;" width="12.233" height="2.058"/>
		</g>
		<g id="Layer_3">
			<path style="fill-rule:evenodd;clip-rule:evenodd;fill:#2D6FE4;" d="M55.96,20.377v1c0,0-10.361,0-12.799,0
				s-6.312-1.26-6.129-6.707c0,0,0.208,5.707,6.004,5.707C48.765,20.377,55.96,20.377,55.96,20.377z"/>
			<path style="opacity:0.5;fill-rule:evenodd;clip-rule:evenodd;fill:#FFFFFF;" d="M37.058,0.025c0,0,0,12.963,0,14.561
				c0,1.656,1.104,5.791,6.104,5.791s12.799,0,12.799,0L37.058,0.025z"/>
		</g>
	</g>
</g>
<g id="nyt_x5F_exporter_x5F_info" style="display:none;">
</g>
</svg>
