<?xml version="1.0" encoding="iso-8859-1"?>
<!-- Generator: Adobe Illustrator 16.0.4, SVG Export Plug-In . SVG Version: 6.00 Build 0)  -->
<!DOCTYPE svg PUBLIC "-//W3C//DTD SVG 1.1//EN" "http://www.w3.org/Graphics/SVG/1.1/DTD/svg11.dtd">
<svg version="1.1" id="gpres" xmlns="http://www.w3.org/2000/svg" xmlns:xlink="http://www.w3.org/1999/xlink" x="0px" y="0px"
	 width="56px" height="64px" viewBox="0 0 56 64" style="enable-background:new 0 0 56 64;" xml:space="preserve">
<g id="Layer_138">
	<path style="fill-rule:evenodd;clip-rule:evenodd;fill:#F8BE46;" d="M5.111,0.009c-2.801,0-5.072,2.272-5.072,5.074v53.841
		c0,2.803,2.271,5.074,5.072,5.074h45.775c2.801,0,5.074-2.271,5.074-5.074V20.318L37.057,0.009H5.111z"/>
	<path style="fill:#FFFFFF;" d="M10.123,37.465v11.9H22.54v-11.9H10.123z M21.412,47.107h-10.16v-7.386h10.16V47.107z"/>
	<path style="fill:#FFFFFF;" d="M22.086,41.979v2.259h8.386v7.385H20.312v-2.846h-1.129v5.104h12.419V41.979H22.086z"/>
</g>
<g id="Layer_3">
	<path style="fill-rule:evenodd;clip-rule:evenodd;fill:#F6AD34;" d="M55.96,20.377v1c0,0-10.361,0-12.799,0
		s-6.312-1.26-6.129-6.707c0,0,0.208,5.707,6.004,5.707C48.765,20.377,55.96,20.377,55.96,20.377z"/>
	<path style="opacity:0.5;fill-rule:evenodd;clip-rule:evenodd;fill:#FFFFFF;" d="M37.058,0.025c0,0,0,12.963,0,14.561
		c0,1.656,1.104,5.791,6.104,5.791s12.799,0,12.799,0L37.058,0.025z"/>
</g>
</svg>
