<?xml version="1.0" encoding="iso-8859-1"?>
<!-- Generator: Adobe Illustrator 16.0.4, SVG Export Plug-In . SVG Version: 6.00 Build 0)  -->
<!DOCTYPE svg PUBLIC "-//W3C//DTD SVG 1.1//EN" "http://www.w3.org/Graphics/SVG/1.1/DTD/svg11.dtd">
<svg version="1.1" id="gsheet" xmlns="http://www.w3.org/2000/svg" xmlns:xlink="http://www.w3.org/1999/xlink" x="0px" y="0px"
	 width="56px" height="64px" viewBox="0 0 56 64" style="enable-background:new 0 0 56 64;" xml:space="preserve">
<g id="Layer_139">
	<path style="fill-rule:evenodd;clip-rule:evenodd;fill:#20A971;" d="M5.131-0.001c-2.801,0-5.072,2.272-5.072,5.074v53.841
		c0,2.803,2.271,5.074,5.072,5.074h45.775c2.801,0,5.074-2.271,5.074-5.074V20.309L37.076-0.001H5.131z"/>
	<path style="fill:#FFFFFF;" d="M10.107,37.466v16.419h21.521V37.466H10.107z M16.565,52.544h-4.967v-3.58h4.967V52.544z
		 M16.565,47.532h-4.967v-3.579h4.967V47.532z M16.565,42.521h-4.967v-3.58h4.967V42.521z M30.197,52.544H18.042v-3.58h12.155
		V52.544z M30.197,47.532H18.042v-3.579h12.155V47.532z M30.197,42.521H18.042v-3.58h12.155V42.521z"/>
	<g id="Layer_3">
		<path style="fill-rule:evenodd;clip-rule:evenodd;fill:#189355;" d="M55.98,20.32v1c0,0-10.363,0-12.801,0
			s-6.312-1.26-6.127-6.707c0,0,0.207,5.707,6.002,5.707C48.785,20.32,55.98,20.32,55.98,20.32z"/>
		<path style="opacity:0.5;fill-rule:evenodd;clip-rule:evenodd;fill:#FFFFFF;" d="M37.076-0.031c0,0,0,12.963,0,14.561
			c0,1.656,1.104,5.791,6.104,5.791s12.801,0,12.801,0L37.076-0.031z"/>
	</g>
</g>
</svg>
