<?xml version="1.0" encoding="iso-8859-1"?>
<!-- Generator: Adobe Illustrator 16.0.4, SVG Export Plug-In . SVG Version: 6.00 Build 0)  -->
<!DOCTYPE svg PUBLIC "-//W3C//DTD SVG 1.1//EN" "http://www.w3.org/Graphics/SVG/1.1/DTD/svg11.dtd">
<svg version="1.1" id="html" xmlns="http://www.w3.org/2000/svg" xmlns:xlink="http://www.w3.org/1999/xlink" x="0px" y="0px"
	 width="56px" height="64px" viewBox="0 0 56 64" style="enable-background:new 0 0 56 64;" xml:space="preserve">
<g id="Layer_142">
	<path style="fill-rule:evenodd;clip-rule:evenodd;fill:#F7622C;" d="M5.135,0.008c-2.803,0-5.074,2.272-5.074,5.074v53.84
		c0,2.803,2.271,5.074,5.074,5.074H50.91c2.801,0,5.074-2.271,5.074-5.074V20.317L37.081,0.008H5.135z"/>
	<g id="Layer_3">
		<path style="fill-rule:evenodd;clip-rule:evenodd;fill:#F54921;" d="M55.976,20.352v1c0,0-10.361,0-12.799,0
			s-6.312-1.26-6.129-6.707c0,0,0.208,5.707,6.004,5.707C48.781,20.352,55.976,20.352,55.976,20.352z"/>
		<path style="opacity:0.5;fill-rule:evenodd;clip-rule:evenodd;fill:#FFFFFF;" d="M37.074,0c0,0,0,12.963,0,14.561
			c0,1.656,1.104,5.791,6.104,5.791s12.799,0,12.799,0L37.074,0z"/>
	</g>
	<g>
		<path style="fill:#FFFFFF;" d="M18.942,50.841c-0.126,0-0.231-0.021-0.336-0.063l-7.58-3.38c-0.483-0.21-0.798-0.714-0.798-1.28
			c0-0.504,0.315-1.008,0.798-1.219l7.58-3.4c0.105-0.043,0.21-0.063,0.336-0.063c0.441,0,0.882,0.356,0.882,0.903
			c0,0.336-0.189,0.672-0.525,0.818l-7.034,3.002l7.034,2.982c0.336,0.146,0.525,0.461,0.525,0.818
			C19.824,50.505,19.362,50.841,18.942,50.841z"/>
		<path style="fill:#FFFFFF;" d="M27.406,39.797l-4.43,13.291c-0.126,0.398-0.504,0.629-0.903,0.629
			c-0.525,0-0.924-0.398-0.924-0.881c0-0.105,0.021-0.189,0.063-0.295l4.43-13.29c0.126-0.378,0.483-0.63,0.903-0.63
			c0.525,0,0.903,0.42,0.903,0.902C27.448,39.607,27.427,39.713,27.406,39.797z"/>
		<path style="fill:#FFFFFF;" d="M37.59,47.397l-7.58,3.38c-0.105,0.043-0.231,0.063-0.336,0.063c-0.441,0-0.882-0.356-0.882-0.882
			c0-0.357,0.189-0.672,0.525-0.818l7.034-2.982l-7.034-3.002c-0.357-0.146-0.546-0.482-0.546-0.818
			c-0.021-0.547,0.441-0.903,0.903-0.903c0.105,0,0.231,0.021,0.336,0.063l7.58,3.4c0.483,0.211,0.798,0.715,0.798,1.219
			C38.388,46.684,38.073,47.188,37.59,47.397z"/>
	</g>
</g>
</svg>
