<?xml version="1.0" encoding="iso-8859-1"?>
<!-- Generator: Adobe Illustrator 16.0.4, SVG Export Plug-In . SVG Version: 6.00 Build 0)  -->
<!DOCTYPE svg PUBLIC "-//W3C//DTD SVG 1.1//EN" "http://www.w3.org/Graphics/SVG/1.1/DTD/svg11.dtd">
<svg version="1.1" id="image" xmlns="http://www.w3.org/2000/svg" xmlns:xlink="http://www.w3.org/1999/xlink" x="0px" y="0px"
	 width="56px" height="64px" viewBox="0 0 56 64" style="enable-background:new 0 0 56 64;" xml:space="preserve">
<g id="Layer_140">
	<path style="fill-rule:evenodd;clip-rule:evenodd;fill:#49C9A7;" d="M5.125,0.042c-2.801,0-5.072,2.273-5.072,5.074v53.841
		c0,2.803,2.271,5.073,5.072,5.073H50.9c2.801,0,5.074-2.271,5.074-5.073V20.353L37.07,0.042H5.125z"/>
	<g id="Layer_4">
		<path style="fill-rule:evenodd;clip-rule:evenodd;fill:#37BB91;" d="M55.977,20.352v1c0,0-10.361,0-12.799,0
			s-6.312-1.26-6.129-6.707c0,0,0.208,5.707,6.004,5.707C48.781,20.352,55.977,20.352,55.977,20.352z"/>
		<path style="opacity:0.5;fill-rule:evenodd;clip-rule:evenodd;fill:#FFFFFF;" d="M37.074,0c0,0,0,12.963,0,14.561
			c0,1.656,1.104,5.791,6.104,5.791s12.799,0,12.799,0L37.074,0z"/>
	</g>
</g>
<g id="Layer_160">
	<path style="fill-rule:evenodd;clip-rule:evenodd;fill:#FFFFFF;" d="M10.119,53.739V32.835h20.906v20.904H10.119z M28.918,34.896
		H12.227v12.6h16.691V34.896z M19.335,43.28l3.909-5.256l1.207,2.123l1.395-0.434l0.984,5.631H13.748l3.496-3.32L19.335,43.28z
		 M15.479,39.64c-0.91,0-1.649-0.688-1.649-1.538c0-0.849,0.739-1.538,1.649-1.538c0.912,0,1.65,0.689,1.65,1.538
		C17.129,38.952,16.391,39.64,15.479,39.64z"/>
</g>
</svg>
