<?xml version="1.0" encoding="iso-8859-1"?>
<!-- Generator: Adobe Illustrator 16.0.4, SVG Export Plug-In . SVG Version: 6.00 Build 0)  -->
<!DOCTYPE svg PUBLIC "-//W3C//DTD SVG 1.1//EN" "http://www.w3.org/Graphics/SVG/1.1/DTD/svg11.dtd">
<svg version="1.1" id="keynote" xmlns="http://www.w3.org/2000/svg" xmlns:xlink="http://www.w3.org/1999/xlink" x="0px" y="0px"
	 width="56px" height="64px" viewBox="0 0 56 64" style="enable-background:new 0 0 56 64;" xml:space="preserve">
<path style="fill-rule:evenodd;clip-rule:evenodd;fill:#DB7A2A;" d="M5.143,0.005c-2.801,0-5.072,2.272-5.072,5.074V58.92
	c0,2.803,2.271,5.074,5.072,5.074h45.775c2.801,0,5.075-2.271,5.075-5.074V20.314L37.088,0.005H5.143z"/>
<g id="Layer_2">
	<path style="fill-rule:evenodd;clip-rule:evenodd;fill:#D25B1F;" d="M55.976,20.352v1c0,0-10.361,0-12.799,0
		s-6.312-1.26-6.129-6.707c0,0,0.208,5.707,6.004,5.707C48.781,20.352,55.976,20.352,55.976,20.352z"/>
	<path style="opacity:0.5;fill-rule:evenodd;clip-rule:evenodd;fill:#FFFFFF;" d="M37.074,0c0,0,0,12.963,0,14.561
		c0,1.656,1.104,5.791,6.104,5.791s12.799,0,12.799,0L37.074,0z"/>
</g>
<g>
	<path style="fill:#FFFFFF;" d="M17.819,54.013c-0.198,0-0.396-0.09-0.54-0.252l-4.429-5.275l-1.207,1.368v3.403
		c0,0.414-0.324,0.738-0.756,0.738c-0.414,0-0.738-0.324-0.738-0.738V42.489c0-0.396,0.324-0.72,0.774-0.72
		c0.396,0,0.72,0.323,0.72,0.72v5.6l5.186-6.067c0.144-0.162,0.324-0.234,0.522-0.234c0.396,0,0.738,0.306,0.738,0.702
		c0,0.145-0.054,0.307-0.162,0.414l-4.105,4.682l4.555,5.275c0.108,0.126,0.162,0.271,0.162,0.433
		C18.54,53.635,18.251,54.013,17.819,54.013z"/>
	<path style="fill:#FFFFFF;" d="M28.745,53.887h-6.248c-0.594,0-1.081-0.486-1.081-1.08v-9.85c0-0.594,0.486-1.08,1.081-1.08h6.248
		c0.36,0,0.648,0.288,0.648,0.685c0,0.36-0.288,0.648-0.648,0.648h-5.833v3.871h5.708c0.36,0,0.648,0.288,0.648,0.684
		c0,0.36-0.288,0.648-0.648,0.648h-5.708v4.142h5.833c0.36,0,0.648,0.288,0.648,0.647C29.394,53.599,29.105,53.887,28.745,53.887z"
		/>
	<path style="fill:#FFFFFF;" d="M41.129,42.867l-4.033,5.942v4.447c0,0.414-0.324,0.738-0.756,0.738
		c-0.414,0-0.739-0.324-0.739-0.738V48.81l-4.051-5.942c-0.072-0.107-0.126-0.233-0.126-0.378c0-0.342,0.27-0.72,0.72-0.72
		c0.216,0,0.468,0.107,0.612,0.306l3.583,5.384l3.583-5.384c0.126-0.18,0.36-0.288,0.576-0.288c0.396,0,0.738,0.324,0.738,0.702
		C41.237,42.615,41.201,42.76,41.129,42.867z"/>
</g>
</svg>
