<?xml version="1.0" encoding="iso-8859-1"?>
<!-- Generator: Adobe Illustrator 16.0.4, SVG Export Plug-In . SVG Version: 6.00 Build 0)  -->
<!DOCTYPE svg PUBLIC "-//W3C//DTD SVG 1.1//EN" "http://www.w3.org/Graphics/SVG/1.1/DTD/svg11.dtd">
<svg version="1.1" id="link" xmlns="http://www.w3.org/2000/svg" xmlns:xlink="http://www.w3.org/1999/xlink" x="0px" y="0px"
	 width="56px" height="64px" viewBox="0 0 56 64" style="enable-background:new 0 0 56 64;" xml:space="preserve">
<g id="Layer_141">
	<path style="fill-rule:evenodd;clip-rule:evenodd;fill:#0C8FE8;" d="M5.15,0.006c-2.801,0-5.072,2.273-5.072,5.074v53.841
		c0,2.803,2.271,5.073,5.072,5.073h45.775c2.801,0,5.074-2.271,5.074-5.073V20.316L37.096,0.006H5.15z"/>
	<g id="Layer_3">
		<path style="fill-rule:evenodd;clip-rule:evenodd;fill:#0973E2;" d="M55.977,20.352v1c0,0-10.361,0-12.799,0
			s-6.312-1.26-6.129-6.707c0,0,0.208,5.707,6.004,5.707C48.781,20.352,55.977,20.352,55.977,20.352z"/>
		<path style="opacity:0.5;fill-rule:evenodd;clip-rule:evenodd;fill:#FFFFFF;" d="M37.074,0c0,0,0,12.963,0,14.561
			c0,1.656,1.104,5.791,6.104,5.791s12.799,0,12.799,0L37.074,0z"/>
	</g>
	<g id="link_copy_1_">
		<g>
			<path style="fill:#FFFFFF;" d="M28.25,35.611c-2.074-2.097-5.448-2.097-7.545,0l-3.055,3.055c-2.073,2.073-2.073,5.447,0,7.545
				c0.479,0.479,1.253,0.479,1.734,0c0.499-0.479,0.499-1.255,0-1.732c-1.118-1.14-1.118-2.94,0-4.079l3.076-3.055
				c1.117-1.117,2.94-1.117,4.056,0c1.117,1.116,1.117,2.939,0,4.057l-1.458,1.482c0.363,0.979,0.502,2.006,0.41,3.053l2.781-2.781
				C30.346,41.06,30.346,37.685,28.25,35.611z M20.546,41.562c-0.479,0.479-0.479,1.275,0,1.755c1.139,1.116,1.139,2.941,0,4.059
				l-3.055,3.053c-1.118,1.118-2.941,1.118-4.058,0c-1.117-1.117-1.117-2.939,0-4.057l1.459-1.459
				c-0.365-0.979-0.503-2.028-0.411-3.077l-2.802,2.803c-2.075,2.075-2.075,5.447,0,7.546c2.094,2.074,5.47,2.074,7.544,0
				l3.076-3.077c2.075-2.075,2.075-5.449,0-7.545C21.821,41.082,21.023,41.082,20.546,41.562z"/>
		</g>
	</g>
</g>
</svg>
