<?xml version="1.0" encoding="iso-8859-1"?>
<!-- Generator: Adobe Illustrator 16.0.4, SVG Export Plug-In . SVG Version: 6.00 Build 0)  -->
<!DOCTYPE svg PUBLIC "-//W3C//DTD SVG 1.1//EN" "http://www.w3.org/Graphics/SVG/1.1/DTD/svg11.dtd">
<svg version="1.1" id="mp4" xmlns="http://www.w3.org/2000/svg" xmlns:xlink="http://www.w3.org/1999/xlink" x="0px" y="0px"
	 width="56px" height="64px" viewBox="0 0 56 64" style="enable-background:new 0 0 56 64;" xml:space="preserve">
<g id="Layer_143">
	<path style="fill-rule:evenodd;clip-rule:evenodd;fill:#9B64B2;" d="M5.116,0.006c-2.801,0-5.072,2.272-5.072,5.074v53.841
		c0,2.803,2.271,5.074,5.072,5.074h45.775c2.801,0,5.074-2.271,5.074-5.074V20.316L37.062,0.006H5.116z"/>
	<g id="Layer_4">
		<path style="fill-rule:evenodd;clip-rule:evenodd;fill:#824B9E;" d="M55.977,20.352v1c0,0-10.361,0-12.799,0
			s-6.312-1.26-6.129-6.707c0,0,0.208,5.707,6.004,5.707C48.781,20.352,55.977,20.352,55.977,20.352z"/>
		<path style="opacity:0.5;fill-rule:evenodd;clip-rule:evenodd;fill:#FFFFFF;" d="M37.074,0c0,0,0,12.963,0,14.561
			c0,1.656,1.104,5.791,6.104,5.791s12.799,0,12.799,0L37.074,0z"/>
	</g>
</g>
<g id="Layer_158">
	<g>
		<path style="fill:#FFFFFF;" d="M21.13,53.879c-0.414,0-0.738-0.324-0.738-0.738v-9.254l-4.033,9.759
			c-0.054,0.144-0.198,0.233-0.378,0.233c-0.144,0-0.288-0.09-0.342-0.233l-4.015-9.759v9.254c0,0.414-0.324,0.738-0.756,0.738
			c-0.414,0-0.738-0.324-0.738-0.738V42.878c0-0.648,0.558-1.206,1.243-1.206c0.486,0,0.99,0.288,1.188,0.756l3.439,8.372
			l3.457-8.372c0.198-0.468,0.684-0.756,1.188-0.756c0.684,0,1.243,0.558,1.243,1.206v10.263
			C21.886,53.555,21.562,53.879,21.13,53.879z"/>
		<path style="fill:#FFFFFF;" d="M29.966,49h-3.331v4.141c0,0.414-0.324,0.738-0.756,0.738c-0.414,0-0.738-0.324-0.738-0.738V42.842
			c0-0.594,0.486-1.081,1.081-1.081h3.745c2.413,0,3.763,1.657,3.763,3.619C33.729,47.344,32.343,49,29.966,49z M29.786,43.094
			h-3.151v4.573h3.151c1.422,0,2.395-0.936,2.395-2.287C32.181,44.031,31.208,43.094,29.786,43.094z"/>
		<path style="fill:#FFFFFF;" d="M43.701,50.729h-1.17v2.413c0,0.414-0.324,0.738-0.757,0.738c-0.414,0-0.738-0.324-0.738-0.738
			v-2.413h-5.077c-0.378,0-0.738-0.324-0.738-0.81c0-0.162,0.053-0.342,0.144-0.486l4.807-7.22c0.234-0.342,0.648-0.558,1.081-0.558
			c0.684,0,1.278,0.594,1.278,1.26v6.5h1.17c0.342,0,0.63,0.288,0.63,0.667C44.331,50.44,44.042,50.729,43.701,50.729z
			 M41.036,43.148l-4.213,6.266h4.213V43.148z"/>
	</g>
</g>
</svg>
