<?xml version="1.0" encoding="iso-8859-1"?>
<!-- Generator: Adobe Illustrator 16.0.4, SVG Export Plug-In . SVG Version: 6.00 Build 0)  -->
<!DOCTYPE svg PUBLIC "-//W3C//DTD SVG 1.1//EN" "http://www.w3.org/Graphics/SVG/1.1/DTD/svg11.dtd">
<svg version="1.1" id="overlay" xmlns="http://www.w3.org/2000/svg" xmlns:xlink="http://www.w3.org/1999/xlink" x="0px" y="0px"
	 width="56px" height="63.997px" viewBox="0 0 56 63.997" style="enable-background:new 0 0 56 63.997;" xml:space="preserve">
<g id="Layer_157">
	<path style="fill-rule:evenodd;clip-rule:evenodd;fill:#A382D8;" d="M5.15,0.008c-2.801,0-5.072,2.272-5.072,5.074v53.841
		c0,2.803,2.271,5.074,5.072,5.074h45.775c2.801,0,5.074-2.271,5.074-5.074V20.317L37.096,0.008H5.15z"/>
	<g id="Layer_3">
		<path style="fill-rule:evenodd;clip-rule:evenodd;fill:#8C62CE;" d="M55.977,20.352v1c0,0-10.361,0-12.799,0
			s-6.312-1.26-6.129-6.707c0,0,0.208,5.707,6.004,5.707C48.781,20.352,55.977,20.352,55.977,20.352z"/>
		<path style="opacity:0.5;fill-rule:evenodd;clip-rule:evenodd;fill:#FFFFFF;" d="M37.074,0c0,0,0,12.963,0,14.561
			c0,1.656,1.104,5.791,6.104,5.791s12.799,0,12.799,0L37.074,0z"/>
	</g>
	<g>
		<g>
			<path style="fill:#FFFFFF;" d="M10.123,34.515v14.081h14.694V34.515H10.123z"/>
		</g>
		<path style="fill:#FFFFFF;" d="M15.467,39.858v14.081h14.694V39.858H15.467z"/>
		<rect x="15.467" y="39.858" style="fill:#CBBBEF;" width="9.351" height="8.737"/>
	</g>
</g>
</svg>
