<?xml version="1.0" encoding="iso-8859-1"?>
<!-- Generator: Adobe Illustrator 16.0.4, SVG Export Plug-In . SVG Version: 6.00 Build 0)  -->
<!DOCTYPE svg PUBLIC "-//W3C//DTD SVG 1.1//EN" "http://www.w3.org/Graphics/SVG/1.1/DTD/svg11.dtd">
<svg version="1.1" id="pack" xmlns="http://www.w3.org/2000/svg" xmlns:xlink="http://www.w3.org/1999/xlink" x="0px" y="0px"
	 width="56px" height="64px" viewBox="0 0 56 64" style="enable-background:new 0 0 56 64;" xml:space="preserve">
<g id="Layer_146">
	<path style="fill-rule:evenodd;clip-rule:evenodd;fill:#4E74B7;" d="M5.15,0.012c-2.801,0-5.072,2.272-5.072,5.074v53.841
		C0.078,61.729,2.35,64,5.15,64h45.775C53.727,64,56,61.729,56,58.927V20.321L37.096,0.012H5.15z"/>
	<g id="Layer_3">
		<path style="fill-rule:evenodd;clip-rule:evenodd;fill:#3A57A5;" d="M55.977,20.352v1c0,0-10.361,0-12.799,0
			s-6.312-1.26-6.129-6.707c0,0,0.208,5.707,6.004,5.707C48.781,20.352,55.977,20.352,55.977,20.352z"/>
		<path style="opacity:0.5;fill-rule:evenodd;clip-rule:evenodd;fill:#FFFFFF;" d="M37.074,0c0,0,0,12.963,0,14.561
			c0,1.656,1.104,5.791,6.104,5.791s12.799,0,12.799,0L37.074,0z"/>
	</g>
	<g>
		<path style="fill:#FFFFFF;" d="M29.187,40.872v11.917c0,0.662-0.529,1.191-1.191,1.191H11.311c-0.662,0-1.191-0.529-1.191-1.191
			V40.872c0-0.133,0.021-0.265,0.065-0.375l1.59-4.768c0.153-0.485,0.617-0.816,1.125-0.816h13.507c0.508,0,0.971,0.331,1.125,0.816
			l1.59,4.768C29.165,40.607,29.187,40.739,29.187,40.872z M26.737,40.872l-1.191-3.575H13.76l-1.191,3.575H26.737z"/>
	</g>
</g>
</svg>
