<?xml version="1.0" encoding="iso-8859-1"?>
<!-- Generator: Adobe Illustrator 16.0.4, SVG Export Plug-In . SVG Version: 6.00 Build 0)  -->
<!DOCTYPE svg PUBLIC "-//W3C//DTD SVG 1.1//EN" "http://www.w3.org/Graphics/SVG/1.1/DTD/svg11.dtd">
<svg version="1.1" id="keynote_copy" xmlns="http://www.w3.org/2000/svg" xmlns:xlink="http://www.w3.org/1999/xlink" x="0px"
	 y="0px" width="56px" height="64px" viewBox="0 0 56 64" style="enable-background:new 0 0 56 64;" xml:space="preserve">
<path style="fill-rule:evenodd;clip-rule:evenodd;fill:#6A6AE2;" d="M5.111-0.006c-2.801,0-5.072,2.272-5.072,5.074v53.841
	c0,2.803,2.271,5.074,5.072,5.074h45.775c2.801,0,5.074-2.271,5.074-5.074V20.304L37.057-0.006H5.111z"/>
<g id="Layer_2">
	<path style="fill-rule:evenodd;clip-rule:evenodd;fill:#4F4FDA;" d="M55.976,20.352v1c0,0-10.361,0-12.799,0
		s-6.312-1.26-6.129-6.707c0,0,0.208,5.707,6.004,5.707C48.781,20.352,55.976,20.352,55.976,20.352z"/>
	<path style="opacity:0.5;fill-rule:evenodd;clip-rule:evenodd;fill:#FFFFFF;" d="M37.074,0c0,0,0,12.963,0,14.561
		c0,1.656,1.104,5.791,6.104,5.791s12.799,0,12.799,0L37.074,0z"/>
</g>
<g>
	<path style="fill:#FFFFFF;" d="M14.959,49.006h-3.331v4.142c0,0.414-0.324,0.738-0.756,0.738c-0.414,0-0.738-0.324-0.738-0.738
		v-10.3c0-0.594,0.486-1.08,1.081-1.08h3.745c2.413,0,3.763,1.656,3.763,3.619S17.335,49.006,14.959,49.006z M14.779,43.101h-3.151
		v4.573h3.151c1.422,0,2.395-0.937,2.395-2.287S16.201,43.101,14.779,43.101z"/>
	<path style="fill:#FFFFFF;" d="M26.839,54.012c-3.421,0-6.176-2.503-6.176-6.23c0-3.727,2.754-6.212,6.176-6.212
		c1.8,0,3.169,0.685,4.123,1.639c0.144,0.126,0.198,0.324,0.198,0.504c0,0.396-0.288,0.703-0.684,0.703
		c-0.18,0-0.342-0.072-0.486-0.217c-0.756-0.81-1.963-1.296-3.151-1.296c-2.629,0-4.627,2.017-4.627,4.879
		c0,2.845,1.999,4.897,4.627,4.897c1.44,0,2.628-0.702,3.223-1.296v-2.449h-3.583c-0.36,0-0.648-0.288-0.648-0.684
		c0-0.36,0.288-0.648,0.648-0.648h3.998c0.594,0,1.08,0.486,1.08,1.08v2.377C31.556,52.913,28.963,54.012,26.839,54.012z"/>
	<path style="fill:#FFFFFF;" d="M38.322,53.993c-1.782,0-3.187-0.594-4.213-1.494c-0.162-0.145-0.234-0.342-0.234-0.54
		c0-0.36,0.27-0.757,0.702-0.757c0.144,0,0.306,0.036,0.432,0.145c0.828,0.738,1.98,1.314,3.367,1.314
		c2.143,0,2.827-1.152,2.827-2.07c0-3.098-7.112-1.387-7.112-5.672c0-1.98,1.764-3.331,4.123-3.331c1.548,0,2.881,0.468,3.853,1.278
		c0.162,0.144,0.252,0.342,0.252,0.54c0,0.36-0.306,0.72-0.703,0.72c-0.144,0-0.306-0.054-0.432-0.161
		c-0.882-0.721-1.98-1.045-3.079-1.045c-1.44,0-2.467,0.774-2.467,1.909c0,2.7,7.112,1.152,7.112,5.635
		C42.751,52.211,41.563,53.993,38.322,53.993z"/>
</g>
</svg>
