<?xml version="1.0" encoding="iso-8859-1"?>
<!-- Generator: Adobe Illustrator 16.0.4, SVG Export Plug-In . SVG Version: 6.00 Build 0)  -->
<!DOCTYPE svg PUBLIC "-//W3C//DTD SVG 1.1//EN" "http://www.w3.org/Graphics/SVG/1.1/DTD/svg11.dtd">
<svg version="1.1" id="pdf" xmlns="http://www.w3.org/2000/svg" xmlns:xlink="http://www.w3.org/1999/xlink" x="0px" y="0px"
	 width="56px" height="64px" viewBox="0 0 56 64" style="enable-background:new 0 0 56 64;" xml:space="preserve">
<g id="Layer_130">
	<path style="fill-rule:evenodd;clip-rule:evenodd;fill:#E04541;" d="M5.112,0.009c-2.802,0-5.073,2.272-5.073,5.074v53.841
		c0,2.803,2.271,5.074,5.073,5.074h45.774c2.802,0,5.075-2.271,5.075-5.074V20.319L37.057,0.009H5.112z"/>
	<g id="Layer_4">
		<path style="fill-rule:evenodd;clip-rule:evenodd;fill:#D83431;" d="M55.977,20.352v1c0,0-10.361,0-12.799,0
			s-6.312-1.26-6.129-6.707c0,0,0.208,5.707,6.004,5.707C48.781,20.352,55.977,20.352,55.977,20.352z"/>
		<path style="opacity:0.5;fill-rule:evenodd;clip-rule:evenodd;fill:#FFFFFF;" d="M37.074,0c0,0,0,12.963,0,14.561
			c0,1.656,1.104,5.791,6.104,5.791s12.799,0,12.799,0L37.074,0z"/>
	</g>
</g>
<g id="Layer_131">
	<g>
		<path style="fill:#FFFFFF;" d="M14.947,49.011h-3.331v4.141c0,0.414-0.324,0.738-0.756,0.738c-0.414,0-0.738-0.324-0.738-0.738
			V42.854c0-0.594,0.486-1.081,1.081-1.081h3.745c2.413,0,3.763,1.657,3.763,3.619C18.71,47.355,17.324,49.011,14.947,49.011z
			 M14.767,43.105h-3.151v4.573h3.151c1.422,0,2.395-0.936,2.395-2.287C17.162,44.042,16.189,43.105,14.767,43.105z"/>
		<path style="fill:#FFFFFF;" d="M25.243,53.783h-3.025c-0.594,0-1.081-0.487-1.081-1.081v-9.849c0-0.594,0.486-1.081,1.081-1.081
			h3.025c3.727,0,6.158,2.611,6.158,6.014C31.401,51.208,28.97,53.783,25.243,53.783z M25.243,43.105h-2.611v9.345h2.611
			c2.917,0,4.609-2.088,4.609-4.663C29.853,45.194,28.214,43.105,25.243,43.105z"/>
		<path style="fill:#FFFFFF;" d="M41.516,43.105h-5.833v3.871h5.708c0.36,0,0.648,0.288,0.648,0.685c0,0.36-0.288,0.648-0.648,0.648
			h-5.708v4.843c0,0.414-0.324,0.738-0.756,0.738c-0.414,0-0.738-0.324-0.738-0.738V42.854c0-0.594,0.486-1.081,1.081-1.081h6.248
			c0.36,0,0.648,0.288,0.648,0.685C42.164,42.817,41.876,43.105,41.516,43.105z"/>
	</g>
</g>
</svg>
