<?xml version="1.0" encoding="iso-8859-1"?>
<!-- Generator: Adobe Illustrator 16.0.4, SVG Export Plug-In . SVG Version: 6.00 Build 0)  -->
<!DOCTYPE svg PUBLIC "-//W3C//DTD SVG 1.1//EN" "http://www.w3.org/Graphics/SVG/1.1/DTD/svg11.dtd">
<svg version="1.1" id="ppt" xmlns="http://www.w3.org/2000/svg" xmlns:xlink="http://www.w3.org/1999/xlink" x="0px" y="0px"
	 width="56px" height="64px" viewBox="0 0 56 64" style="enable-background:new 0 0 56 64;" xml:space="preserve">
<g id="Layer_144">
	<path style="fill-rule:evenodd;clip-rule:evenodd;fill:#E34221;" d="M5.112-0.004c-2.802,0-5.073,2.273-5.073,5.074v53.841
		c0,2.803,2.271,5.074,5.073,5.074h45.774c2.801,0,5.074-2.271,5.074-5.074V20.306L37.058-0.004H5.112z"/>
	<g id="Layer_3">
		<path style="fill-rule:evenodd;clip-rule:evenodd;fill:#DC3119;" d="M55.977,20.352v1c0,0-10.361,0-12.799,0
			s-6.312-1.26-6.129-6.707c0,0,0.208,5.707,6.004,5.707C48.781,20.352,55.977,20.352,55.977,20.352z"/>
		<path style="opacity:0.5;fill-rule:evenodd;clip-rule:evenodd;fill:#FFFFFF;" d="M37.074,0c0,0,0,12.963,0,14.561
			c0,1.656,1.104,5.791,6.104,5.791s12.799,0,12.799,0L37.074,0z"/>
	</g>
	<g>
		<path style="fill:#FFFFFF;" d="M14.964,49.011h-3.331v4.141c0,0.414-0.324,0.738-0.756,0.738c-0.414,0-0.738-0.324-0.738-0.738
			V42.854c0-0.594,0.486-1.081,1.08-1.081h3.745c2.413,0,3.763,1.657,3.763,3.619C18.727,47.355,17.34,49.011,14.964,49.011z
			 M14.783,43.105h-3.15v4.573h3.15c1.423,0,2.395-0.936,2.395-2.287C17.178,44.042,16.206,43.105,14.783,43.105z"/>
		<path style="fill:#FFFFFF;" d="M25.98,49.011h-3.332v4.141c0,0.414-0.324,0.738-0.756,0.738c-0.414,0-0.738-0.324-0.738-0.738
			V42.854c0-0.594,0.486-1.081,1.08-1.081h3.746c2.412,0,3.763,1.657,3.763,3.619C29.743,47.355,28.356,49.011,25.98,49.011z
			 M25.8,43.105h-3.151v4.573H25.8c1.423,0,2.395-0.936,2.395-2.287C28.194,44.042,27.223,43.105,25.8,43.105z"/>
		<path style="fill:#FFFFFF;" d="M39.912,43.105h-3.277v10.047c0,0.414-0.324,0.738-0.756,0.738c-0.414,0-0.738-0.324-0.738-0.738
			V43.105h-3.259c-0.36,0-0.647-0.288-0.647-0.684c0-0.361,0.287-0.648,0.647-0.648h8.03c0.36,0,0.648,0.288,0.648,0.685
			C40.561,42.817,40.272,43.105,39.912,43.105z"/>
	</g>
</g>
</svg>
