<?xml version="1.0" encoding="iso-8859-1"?>
<!-- Generator: Adobe Illustrator 16.0.4, SVG Export Plug-In . SVG Version: 6.00 Build 0)  -->
<!DOCTYPE svg PUBLIC "-//W3C//DTD SVG 1.1//EN" "http://www.w3.org/Graphics/SVG/1.1/DTD/svg11.dtd">
<svg version="1.1" id="psd" xmlns="http://www.w3.org/2000/svg" xmlns:xlink="http://www.w3.org/1999/xlink" x="0px" y="0px"
	 width="56px" height="64px" viewBox="0 0 56 64" style="enable-background:new 0 0 56 64;" xml:space="preserve">
<g id="Layer_129">
	<path style="fill-rule:evenodd;clip-rule:evenodd;fill:#0C77C6;" d="M5.112,0.051c-2.802,0-5.073,2.273-5.073,5.075v53.841
		c0,2.802,2.271,5.073,5.073,5.073h45.775c2.801,0,5.074-2.271,5.074-5.073V20.361L37.058,0.051H5.112z"/>
	<g id="Layer_3">
		<path style="fill-rule:evenodd;clip-rule:evenodd;fill:#0959B7;" d="M55.977,20.352v1c0,0-10.361,0-12.799,0
			s-6.312-1.26-6.129-6.707c0,0,0.208,5.707,6.004,5.707C48.781,20.352,55.977,20.352,55.977,20.352z"/>
		<path style="opacity:0.5;fill-rule:evenodd;clip-rule:evenodd;fill:#FFFFFF;" d="M37.074,0c0,0,0,12.963,0,14.561
			c0,1.656,1.104,5.791,6.104,5.791s12.799,0,12.799,0L37.074,0z"/>
	</g>
	<g>
		<path style="fill:#FFFFFF;" d="M14.952,49.011h-3.331v4.141c0,0.414-0.324,0.738-0.756,0.738c-0.414,0-0.738-0.324-0.738-0.738
			V42.854c0-0.594,0.486-1.081,1.08-1.081h3.745c2.413,0,3.763,1.657,3.763,3.619C18.715,47.355,17.328,49.011,14.952,49.011z
			 M14.771,43.105h-3.15v4.573h3.15c1.423,0,2.395-0.936,2.395-2.287C17.166,44.042,16.194,43.105,14.771,43.105z"/>
		<path style="fill:#FFFFFF;" d="M25.031,53.999c-1.781,0-3.187-0.594-4.213-1.495c-0.162-0.144-0.234-0.342-0.234-0.54
			c0-0.36,0.271-0.756,0.703-0.756c0.144,0,0.306,0.036,0.432,0.144c0.828,0.739,1.98,1.314,3.367,1.314
			c2.143,0,2.826-1.152,2.826-2.071c0-3.097-7.111-1.386-7.111-5.672c0-1.98,1.764-3.331,4.123-3.331
			c1.549,0,2.881,0.467,3.854,1.278c0.162,0.144,0.252,0.342,0.252,0.54c0,0.36-0.307,0.72-0.703,0.72
			c-0.144,0-0.305-0.054-0.432-0.162c-0.883-0.72-1.98-1.044-3.078-1.044c-1.441,0-2.467,0.774-2.467,1.909
			c0,2.701,7.111,1.152,7.111,5.636C29.461,52.217,28.273,53.999,25.031,53.999z"/>
		<path style="fill:#FFFFFF;" d="M36.246,53.783h-3.025c-0.594,0-1.08-0.487-1.08-1.081v-9.849c0-0.594,0.486-1.081,1.08-1.081
			h3.025c3.727,0,6.157,2.611,6.157,6.014C42.403,51.208,39.973,53.783,36.246,53.783z M36.246,43.105h-2.611v9.345h2.611
			c2.916,0,4.609-2.088,4.609-4.663C40.855,45.194,39.217,43.105,36.246,43.105z"/>
	</g>
</g>
</svg>
