<?xml version="1.0" encoding="iso-8859-1"?>
<!-- Generator: Adobe Illustrator 16.0.4, SVG Export Plug-In . SVG Version: 6.00 Build 0)  -->
<!DOCTYPE svg PUBLIC "-//W3C//DTD SVG 1.1//EN" "http://www.w3.org/Graphics/SVG/1.1/DTD/svg11.dtd">
<svg version="1.1" id="rtf" xmlns="http://www.w3.org/2000/svg" xmlns:xlink="http://www.w3.org/1999/xlink" x="0px" y="0px"
	 width="56px" height="64px" viewBox="0 0 56 64" style="enable-background:new 0 0 56 64;" xml:space="preserve">
<g id="Layer_145">
	<path style="fill-rule:evenodd;clip-rule:evenodd;fill:#00A1EE;" d="M5.113,0.006c-2.803,0-5.074,2.273-5.074,5.074v53.841
		c0,2.803,2.271,5.074,5.074,5.074h45.774c2.801,0,5.074-2.271,5.074-5.074V20.316L37.058,0.006H5.113z"/>
	<g id="Layer_3">
		<path style="fill-rule:evenodd;clip-rule:evenodd;fill:#0089E9;" d="M55.977,20.352v1c0,0-10.361,0-12.799,0
			s-6.312-1.26-6.129-6.707c0,0,0.208,5.707,6.004,5.707C48.781,20.352,55.977,20.352,55.977,20.352z"/>
		<path style="opacity:0.5;fill-rule:evenodd;clip-rule:evenodd;fill:#FFFFFF;" d="M37.074,0c0,0,0,12.963,0,14.561
			c0,1.656,1.104,5.791,6.104,5.791s12.799,0,12.799,0L37.074,0z"/>
	</g>
	<g>
		<path style="fill:#FFFFFF;" d="M15.611,48.825l2.575,3.907c0.072,0.126,0.108,0.252,0.108,0.378c0,0.36-0.306,0.72-0.738,0.72
			c-0.234,0-0.45-0.108-0.594-0.324l-2.935-4.555h-2.395v4.141c0,0.414-0.324,0.738-0.756,0.738c-0.414,0-0.738-0.324-0.738-0.738
			V42.793c0-0.594,0.486-1.081,1.081-1.081h3.745c2.197,0,3.763,1.405,3.763,3.619C18.727,47.492,17.25,48.681,15.611,48.825z
			 M11.632,43.045v4.591h3.151c1.422,0,2.395-0.954,2.395-2.305c0-1.35-0.972-2.287-2.395-2.287H11.632z"/>
		<path style="fill:#FFFFFF;" d="M29.095,43.045h-3.277v10.047c0,0.414-0.324,0.738-0.756,0.738c-0.415,0-0.738-0.324-0.738-0.738
			V43.045h-3.259c-0.36,0-0.648-0.288-0.648-0.684c0-0.36,0.288-0.648,0.648-0.648h8.031c0.36,0,0.648,0.288,0.648,0.685
			C29.743,42.757,29.455,43.045,29.095,43.045z"/>
		<path style="fill:#FFFFFF;" d="M39.39,43.045h-5.833v3.871h5.708c0.36,0,0.648,0.288,0.648,0.685c0,0.36-0.288,0.648-0.648,0.648
			h-5.708v4.843c0,0.414-0.324,0.738-0.756,0.738c-0.414,0-0.738-0.324-0.738-0.738V42.793c0-0.594,0.486-1.081,1.081-1.081h6.248
			c0.36,0,0.648,0.288,0.648,0.685C40.038,42.757,39.75,43.045,39.39,43.045z"/>
	</g>
</g>
</svg>
