<?xml version="1.0" encoding="iso-8859-1"?>
<!-- Generator: Adobe Illustrator 16.0.4, SVG Export Plug-In . SVG Version: 6.00 Build 0)  -->
<!DOCTYPE svg PUBLIC "-//W3C//DTD SVG 1.1//EN" "http://www.w3.org/Graphics/SVG/1.1/DTD/svg11.dtd">
<svg version="1.1" xmlns="http://www.w3.org/2000/svg" xmlns:xlink="http://www.w3.org/1999/xlink" x="0px" y="0px" width="56px"
	 height="64px" viewBox="0 0 56 64" style="enable-background:new 0 0 56 64;" xml:space="preserve">
<g id="slide">
	<g id="Layer_147">
		<path style="fill-rule:evenodd;clip-rule:evenodd;fill:#1AB6D9;" d="M5.15,0.008c-2.801,0-5.072,2.273-5.072,5.074v53.842
			c0,2.803,2.271,5.073,5.072,5.073h45.775c2.801,0,5.074-2.271,5.074-5.073V20.318L37.096,0.008H5.15z"/>
		<path style="fill:#FFFFFF;" d="M10.121,34.772v19.09h19.918v-19.09H10.121z M28.226,50.24H11.931V38.396h16.295V50.24z"/>
		<path style="fill-rule:evenodd;clip-rule:evenodd;fill:#13A3CF;" d="M55.977,20.352v1c0,0-10.361,0-12.799,0
			s-6.312-1.26-6.129-6.707c0,0,0.208,5.707,6.004,5.707C48.781,20.352,55.977,20.352,55.977,20.352z"/>
		<path style="opacity:0.5;fill-rule:evenodd;clip-rule:evenodd;fill:#FFFFFF;" d="M37.074,0c0,0,0,12.963,0,14.561
			c0,1.656,1.104,5.791,6.104,5.791c5,0,12.799,0,12.799,0L37.074,0z"/>
	</g>
</g>
<g id="nyt_x5F_exporter_x5F_info" style="display:none;">
</g>
</svg>
