<?xml version="1.0" encoding="iso-8859-1"?>
<!-- Generator: Adobe Illustrator 16.0.4, SVG Export Plug-In . SVG Version: 6.00 Build 0)  -->
<!DOCTYPE svg PUBLIC "-//W3C//DTD SVG 1.1//EN" "http://www.w3.org/Graphics/SVG/1.1/DTD/svg11.dtd">
<svg version="1.1" id="stypi" xmlns="http://www.w3.org/2000/svg" xmlns:xlink="http://www.w3.org/1999/xlink" x="0px" y="0px"
	 width="56px" height="64px" viewBox="0 0 56 64" style="enable-background:new 0 0 56 64;" xml:space="preserve">
<g id="Layer_148">
	<path style="fill-rule:evenodd;clip-rule:evenodd;fill:#4298E5;" d="M5.072,0.006C2.271,0.006,0,2.278,0,5.08v53.841
		c0,2.803,2.271,5.074,5.072,5.074h45.775c2.801,0,5.074-2.271,5.074-5.074V20.315L37.018,0.006H5.072z"/>
	<g id="Layer_3">
		<path style="fill-rule:evenodd;clip-rule:evenodd;fill:#317EDE;" d="M55.977,20.352v1c0,0-10.361,0-12.799,0
			s-6.312-1.26-6.129-6.707c0,0,0.208,5.707,6.004,5.707C48.781,20.352,55.977,20.352,55.977,20.352z"/>
		<path style="opacity:0.5;fill-rule:evenodd;clip-rule:evenodd;fill:#FFFFFF;" d="M37.074,0c0,0,0,12.963,0,14.561
			c0,1.656,1.104,5.791,6.104,5.791s12.799,0,12.799,0L37.074,0z"/>
	</g>
	<g>
		<path style="fill:#FFFFFF;" d="M18.528,38.535c-0.955,0.271-2.824,1.156-2.824,3.436c0,2.281,0,9.219,0,9.935
			c0,0.952,0.713,2.313,2.584,1.871s9.084-2.35,10.309-2.723s2.313-1.565,2.313-3.195c0-1.635,0-9.256,0-10.209
			c0-0.951-0.646-2.244-2.484-1.836C26.59,36.221,18.528,38.535,18.528,38.535z"/>
		<path style="fill:#FFFFFF;" d="M13.044,49.183c-2.007-0.663-2.893-1.938-2.893-3.128c0-1.191,0-9.152,0-10.479
			c0-1.328,1.464-1.973,2.449-1.701c0.987,0.271,9.526,2.62,9.526,2.62s-3.401,0.85-4.458,1.122
			c-1.054,0.271-3.061,1.198-3.061,3.882s0,8.129,0,8.129L13.044,49.183z"/>
	</g>
</g>
</svg>
