<?xml version="1.0" encoding="iso-8859-1"?>
<!-- Generator: Adobe Illustrator 16.0.4, SVG Export Plug-In . SVG Version: 6.00 Build 0)  -->
<!DOCTYPE svg PUBLIC "-//W3C//DTD SVG 1.1//EN" "http://www.w3.org/Graphics/SVG/1.1/DTD/svg11.dtd">
<svg version="1.1" id="txt" xmlns="http://www.w3.org/2000/svg" xmlns:xlink="http://www.w3.org/1999/xlink" x="0px" y="0px"
	 width="56px" height="64px" viewBox="0 0 56 64" style="enable-background:new 0 0 56 64;" xml:space="preserve">
<g id="Layer_149">
	<path style="fill-rule:evenodd;clip-rule:evenodd;fill:#F9CA06;" d="M5.151-0.036c-2.803,0-5.074,2.272-5.074,5.074v53.841
		c0,2.803,2.271,5.074,5.074,5.074h45.774c2.801,0,5.074-2.271,5.074-5.074V20.274L37.097-0.036H5.151z"/>
	<g id="Layer_3">
		<path style="fill-rule:evenodd;clip-rule:evenodd;fill:#F7BC04;" d="M56.008,20.316v1c0,0-10.361,0-12.799,0
			s-6.312-1.26-6.129-6.708c0,0,0.208,5.708,6.004,5.708C48.813,20.316,56.008,20.316,56.008,20.316z"/>
		<path style="opacity:0.5;fill-rule:evenodd;clip-rule:evenodd;fill:#FFFFFF;" d="M37.106-0.036c0,0,0,12.963,0,14.561
			c0,1.656,1.104,5.792,6.104,5.792s12.799,0,12.799,0L37.106-0.036z"/>
	</g>
	<g>
		<path style="fill:#FFFFFF;" d="M18.763,43.045h-3.277v10.047c0,0.414-0.324,0.738-0.756,0.738c-0.414,0-0.738-0.324-0.738-0.738
			V43.045h-3.259c-0.36,0-0.648-0.288-0.648-0.684c0-0.36,0.288-0.648,0.648-0.648h8.03c0.36,0,0.648,0.288,0.648,0.685
			C19.411,42.757,19.123,43.045,18.763,43.045z"/>
		<path style="fill:#FFFFFF;" d="M30.463,53.848c-0.216,0-0.415-0.089-0.541-0.27l-3.727-4.97l-3.745,4.97
			c-0.126,0.181-0.324,0.27-0.54,0.27c-0.396,0-0.72-0.306-0.72-0.72c0-0.144,0.036-0.306,0.144-0.432l3.889-5.131l-3.619-4.826
			c-0.09-0.126-0.144-0.27-0.144-0.414c0-0.343,0.288-0.721,0.72-0.721c0.216,0,0.432,0.108,0.576,0.288l3.439,4.627l3.439-4.646
			c0.126-0.18,0.324-0.27,0.541-0.27c0.378,0,0.738,0.306,0.738,0.721c0,0.144-0.036,0.288-0.126,0.414l-3.619,4.808l3.89,5.149
			c0.09,0.126,0.126,0.27,0.126,0.415C31.184,53.506,30.859,53.848,30.463,53.848z"/>
		<path style="fill:#FFFFFF;" d="M41.658,43.045h-3.277v10.047c0,0.414-0.323,0.738-0.756,0.738c-0.414,0-0.738-0.324-0.738-0.738
			V43.045h-3.259c-0.36,0-0.648-0.288-0.648-0.684c0-0.36,0.288-0.648,0.648-0.648h8.03c0.36,0,0.648,0.288,0.648,0.685
			C42.307,42.757,42.019,43.045,41.658,43.045z"/>
	</g>
</g>
</svg>
