<?xml version="1.0" encoding="iso-8859-1"?>
<!-- Generator: Adobe Illustrator 16.0.4, SVG Export Plug-In . SVG Version: 6.00 Build 0)  -->
<!DOCTYPE svg PUBLIC "-//W3C//DTD SVG 1.1//EN" "http://www.w3.org/Graphics/SVG/1.1/DTD/svg11.dtd">
<svg version="1.1" id="unknown" xmlns="http://www.w3.org/2000/svg" xmlns:xlink="http://www.w3.org/1999/xlink" x="0px" y="0px"
	 width="56px" height="63.996px" viewBox="0 0 56 63.996" style="enable-background:new 0 0 56 63.996;" xml:space="preserve">
<g id="Layer_150">
	<path style="fill-rule:evenodd;clip-rule:evenodd;fill:#8199AF;" d="M5.113,0.007c-2.803,0-5.074,2.271-5.074,5.074v53.84
		c0,2.803,2.271,5.074,5.074,5.074h45.774c2.801,0,5.074-2.271,5.074-5.074V20.315L37.058,0.007H5.113z"/>
	<g id="Layer_3">
		<path style="fill-rule:evenodd;clip-rule:evenodd;fill:#617F9B;" d="M55.976,20.352v1c0,0-10.361,0-12.799,0
			s-6.312-1.26-6.129-6.707c0,0,0.208,5.707,6.004,5.707C48.781,20.352,55.976,20.352,55.976,20.352z"/>
		<path style="opacity:0.5;fill-rule:evenodd;clip-rule:evenodd;fill:#FFFFFF;" d="M37.074,0c0,0,0,12.963,0,14.561
			c0,1.656,1.104,5.791,6.104,5.791s12.799,0,12.799,0L37.074,0z"/>
	</g>
</g>
</svg>
