<?xml version="1.0" encoding="iso-8859-1"?>
<!-- Generator: Adobe Illustrator 16.0.4, SVG Export Plug-In . SVG Version: 6.00 Build 0)  -->
<!DOCTYPE svg PUBLIC "-//W3C//DTD SVG 1.1//EN" "http://www.w3.org/Graphics/SVG/1.1/DTD/svg11.dtd">
<svg version="1.1" id="video" xmlns="http://www.w3.org/2000/svg" xmlns:xlink="http://www.w3.org/1999/xlink" x="0px" y="0px"
	 width="56px" height="64px" viewBox="0 0 56 64" style="enable-background:new 0 0 56 64;" xml:space="preserve">
<g id="Layer_151">
	<path style="fill-rule:evenodd;clip-rule:evenodd;fill:#8E4C9E;" d="M5.15,0.011c-2.801,0-5.072,2.272-5.072,5.074v53.841
		C0.078,61.729,2.35,64,5.15,64h45.775C53.727,64,56,61.729,56,58.926V20.32L37.096,0.011H5.15z"/>
	<g id="Layer_3">
		<path style="fill-rule:evenodd;clip-rule:evenodd;fill:#713985;" d="M55.977,20.352v1c0,0-10.361,0-12.799,0
			s-6.312-1.26-6.129-6.707c0,0,0.208,5.707,6.004,5.707C48.781,20.352,55.977,20.352,55.977,20.352z"/>
		<path style="opacity:0.5;fill-rule:evenodd;clip-rule:evenodd;fill:#FFFFFF;" d="M37.074,0c0,0,0,12.963,0,14.561
			c0,1.656,1.104,5.791,6.104,5.791s12.799,0,12.799,0L37.074,0z"/>
	</g>
	<g>
		<path style="fill:#FFFFFF;" d="M24.531,45.529c0,0.368-0.163,0.736-0.449,0.981c-0.205,0.163-5.255,4.417-11.839,7.095
			c-0.164,0.062-0.327,0.103-0.511,0.103c-0.225,0-0.47-0.062-0.675-0.184c-0.348-0.205-0.593-0.573-0.613-0.981
			c-0.021-0.144-0.307-3.456-0.307-7.014s0.286-6.87,0.307-6.993c0.021-0.408,0.266-0.776,0.613-1.002
			c0.205-0.122,0.43-0.184,0.675-0.184c0.164,0,0.348,0.041,0.511,0.103c6.584,2.678,11.634,6.932,11.839,7.115
			C24.368,44.793,24.531,45.161,24.531,45.529z"/>
	</g>
</g>
</svg>
