<?xml version="1.0" encoding="iso-8859-1"?>
<!-- Generator: Adobe Illustrator 16.0.4, SVG Export Plug-In . SVG Version: 6.00 Build 0)  -->
<!DOCTYPE svg PUBLIC "-//W3C//DTD SVG 1.1//EN" "http://www.w3.org/Graphics/SVG/1.1/DTD/svg11.dtd">
<svg version="1.1" id="visio" xmlns="http://www.w3.org/2000/svg" xmlns:xlink="http://www.w3.org/1999/xlink" x="0px" y="0px"
	 width="56px" height="64px" viewBox="0 0 56 64" style="enable-background:new 0 0 56 64;" xml:space="preserve">
<g id="Layer_152">
	<path style="fill-rule:evenodd;clip-rule:evenodd;fill:#496AB3;" d="M5.111,0.006c-2.801,0-5.072,2.272-5.072,5.074v53.841
		c0,2.803,2.271,5.074,5.072,5.074h45.775c2.801,0,5.074-2.271,5.074-5.074V20.315L37.057,0.006H5.111z"/>
	<g id="Layer_3">
		<path style="fill-rule:evenodd;clip-rule:evenodd;fill:#374FA0;" d="M55.977,20.352v1c0,0-10.361,0-12.799,0
			s-6.312-1.26-6.129-6.707c0,0,0.208,5.707,6.004,5.707C48.781,20.352,55.977,20.352,55.977,20.352z"/>
		<path style="opacity:0.5;fill-rule:evenodd;clip-rule:evenodd;fill:#FFFFFF;" d="M37.074,0c0,0,0,12.963,0,14.561
			c0,1.656,1.104,5.791,6.104,5.791s12.799,0,12.799,0L37.074,0z"/>
	</g>
	<g>
		<path style="fill:#FFFFFF;" d="M20.915,42.686l-4.16,10.334c-0.198,0.486-0.684,0.81-1.188,0.81h-0.036
			c-0.522,0-1.008-0.324-1.207-0.81l-4.141-10.334c-0.036-0.091-0.054-0.181-0.054-0.289c0-0.36,0.324-0.792,0.811-0.792
			c0.306,0,0.594,0.181,0.72,0.486l3.889,9.993l3.889-9.993c0.108-0.288,0.396-0.486,0.72-0.486c0.468,0,0.81,0.378,0.81,0.792
			C20.968,42.487,20.95,42.595,20.915,42.686z"/>
		<path style="fill:#FFFFFF;" d="M24.062,53.83c-0.414,0-0.738-0.324-0.738-0.738V42.325c0-0.396,0.324-0.721,0.774-0.721
			c0.396,0,0.72,0.324,0.72,0.721v10.767C24.818,53.506,24.494,53.83,24.062,53.83z"/>
		<path style="fill:#FFFFFF;" d="M31.964,53.938c-1.782,0-3.187-0.594-4.213-1.495c-0.162-0.144-0.234-0.342-0.234-0.54
			c0-0.36,0.27-0.756,0.702-0.756c0.144,0,0.306,0.036,0.432,0.145c0.829,0.738,1.981,1.314,3.367,1.314
			c2.143,0,2.827-1.152,2.827-2.071c0-3.097-7.112-1.386-7.112-5.672c0-1.98,1.764-3.33,4.123-3.33c1.548,0,2.881,0.467,3.853,1.277
			c0.162,0.145,0.252,0.342,0.252,0.541c0,0.359-0.306,0.72-0.702,0.72c-0.144,0-0.306-0.054-0.432-0.162
			c-0.882-0.72-1.98-1.044-3.079-1.044c-1.44,0-2.467,0.774-2.467,1.909c0,2.701,7.112,1.152,7.112,5.636
			C36.394,52.156,35.205,53.938,31.964,53.938z"/>
	</g>
</g>
</svg>
