<?xml version="1.0" encoding="iso-8859-1"?>
<!-- Generator: Adobe Illustrator 16.0.4, SVG Export Plug-In . SVG Version: 6.00 Build 0)  -->
<!DOCTYPE svg PUBLIC "-//W3C//DTD SVG 1.1//EN" "http://www.w3.org/Graphics/SVG/1.1/DTD/svg11.dtd">
<svg version="1.1" id="webex" xmlns="http://www.w3.org/2000/svg" xmlns:xlink="http://www.w3.org/1999/xlink" x="0px" y="0px"
	 width="56px" height="64px" viewBox="0 0 56 64" style="enable-background:new 0 0 56 64;" xml:space="preserve">
<g id="Layer_153">
	<path style="fill-rule:evenodd;clip-rule:evenodd;fill:#80BC4B;" d="M5.152,0.011c-2.803,0-5.074,2.272-5.074,5.074v53.841
		C0.078,61.729,2.35,64,5.152,64h45.773C53.727,64,56,61.729,56,58.926V20.32L37.098,0.011H5.152z"/>
	<g id="Layer_4">
		<path style="fill-rule:evenodd;clip-rule:evenodd;fill:#60AB38;" d="M55.977,20.352v1c0,0-10.361,0-12.799,0
			s-6.312-1.26-6.129-6.707c0,0,0.208,5.707,6.004,5.707C48.781,20.352,55.977,20.352,55.977,20.352z"/>
		<path style="opacity:0.5;fill-rule:evenodd;clip-rule:evenodd;fill:#FFFFFF;" d="M37.074,0c0,0,0,12.963,0,14.561
			c0,1.656,1.104,5.791,6.104,5.791s12.799,0,12.799,0L37.074,0z"/>
	</g>
</g>
<g id="Layer_159">
	<g>
		<path style="fill:#CFE8AF;" d="M20.463,53.854c5.161-0.271,9.261-4.538,9.261-9.767c0-5.228-4.1-9.497-9.26-9.767L20.463,53.854z"
			/>
		<path style="fill:#FFFFFF;" d="M19.338,53.852c-5.119-0.316-9.174-4.565-9.174-9.764s4.056-9.447,9.174-9.763V53.852z"/>
	</g>
</g>
</svg>
