<?xml version="1.0" encoding="iso-8859-1"?>
<!-- Generator: Adobe Illustrator 16.0.4, SVG Export Plug-In . SVG Version: 6.00 Build 0)  -->
<!DOCTYPE svg PUBLIC "-//W3C//DTD SVG 1.1//EN" "http://www.w3.org/Graphics/SVG/1.1/DTD/svg11.dtd">
<svg version="1.1" id="word" xmlns="http://www.w3.org/2000/svg" xmlns:xlink="http://www.w3.org/1999/xlink" x="0px" y="0px"
	 width="56px" height="64px" viewBox="0 0 56 64" style="enable-background:new 0 0 56 64;" xml:space="preserve">
<g id="Layer_154">
	<path style="fill-rule:evenodd;clip-rule:evenodd;fill:#14A9DA;" d="M5.113-0.03c-2.803,0-5.074,2.273-5.074,5.074v53.841
		c0,2.803,2.271,5.075,5.074,5.075h45.774c2.801,0,5.073-2.272,5.073-5.075V20.28L37.059-0.03H5.113z"/>
	<g id="Layer_3">
		<path style="fill-rule:evenodd;clip-rule:evenodd;fill:#0F93D0;" d="M55.977,20.352v1c0,0-10.361,0-12.799,0
			s-6.312-1.26-6.129-6.707c0,0,0.208,5.707,6.004,5.707C48.781,20.352,55.977,20.352,55.977,20.352z"/>
		<path style="opacity:0.5;fill-rule:evenodd;clip-rule:evenodd;fill:#FFFFFF;" d="M37.074,0c0,0,0,12.963,0,14.561
			c0,1.656,1.104,5.791,6.104,5.791s12.799,0,12.799,0L37.074,0z"/>
	</g>
	<g>
		<path style="fill:#FFFFFF;" d="M14.244,53.863h-3.025c-0.594,0-1.08-0.486-1.08-1.081v-9.849c0-0.594,0.486-1.081,1.08-1.081
			h3.025c3.727,0,6.158,2.611,6.158,6.015C20.402,51.288,17.971,53.863,14.244,53.863z M14.244,43.186h-2.611v9.345h2.611
			c2.917,0,4.609-2.088,4.609-4.663C18.854,45.274,17.215,43.186,14.244,43.186z"/>
		<path style="fill:#FFFFFF;" d="M28.662,54.079c-3.564,0-5.959-2.665-5.959-6.212c0-3.547,2.395-6.212,5.959-6.212
			c3.548,0,5.961,2.665,5.961,6.212C34.623,51.414,32.21,54.079,28.662,54.079z M28.662,42.987c-2.7,0-4.41,2.071-4.41,4.88
			c0,2.791,1.71,4.879,4.41,4.879c2.684,0,4.412-2.089,4.412-4.879C33.074,45.058,31.346,42.987,28.662,42.987z"/>
		<path style="fill:#FFFFFF;" d="M47.113,43.366c0.127,0.144,0.198,0.324,0.198,0.522c0,0.378-0.306,0.721-0.702,0.721
			c-0.18,0-0.378-0.072-0.504-0.234c-0.702-0.846-1.891-1.387-3.007-1.387c-2.629,0-4.628,2.017-4.628,4.88
			c0,2.845,1.999,4.879,4.628,4.879c1.134,0,2.251-0.486,3.007-1.369c0.126-0.144,0.324-0.234,0.504-0.234
			c0.414,0,0.702,0.36,0.702,0.739c0,0.18-0.071,0.359-0.198,0.503c-0.936,0.972-2.215,1.693-4.015,1.693
			c-3.457,0-6.176-2.521-6.176-6.212c0-3.691,2.719-6.212,6.176-6.212C44.898,41.655,46.195,42.376,47.113,43.366z"/>
	</g>
</g>
</svg>
