<?xml version="1.0" encoding="iso-8859-1"?>
<!-- Generator: Adobe Illustrator 16.0.4, SVG Export Plug-In . SVG Version: 6.00 Build 0)  -->
<!DOCTYPE svg PUBLIC "-//W3C//DTD SVG 1.1//EN" "http://www.w3.org/Graphics/SVG/1.1/DTD/svg11.dtd">
<svg version="1.1" id="xml" xmlns="http://www.w3.org/2000/svg" xmlns:xlink="http://www.w3.org/1999/xlink" x="0px" y="0px"
	 width="56px" height="64px" viewBox="0 0 56 64" style="enable-background:new 0 0 56 64;" xml:space="preserve">
<g id="Layer_155">
	<path style="fill-rule:evenodd;clip-rule:evenodd;fill:#FC7B24;" d="M5.112-0.024c-2.803,0-5.074,2.272-5.074,5.074v53.841
		c0,2.803,2.271,5.074,5.074,5.074h45.774c2.801,0,5.074-2.271,5.074-5.074V20.285L37.058-0.024H5.112z"/>
	<g id="Layer_3">
		<path style="fill-rule:evenodd;clip-rule:evenodd;fill:#FB5C1B;" d="M55.977,20.352v1c0,0-10.361,0-12.799,0
			s-6.312-1.26-6.129-6.707c0,0,0.208,5.707,6.004,5.707C48.781,20.352,55.977,20.352,55.977,20.352z"/>
		<path style="opacity:0.5;fill-rule:evenodd;clip-rule:evenodd;fill:#FFFFFF;" d="M37.074,0c0,0,0,12.963,0,14.561
			c0,1.656,1.104,5.791,6.104,5.791s12.799,0,12.799,0L37.074,0z"/>
	</g>
	<g>
		<path style="fill:#FFFFFF;" d="M19.371,53.848c-0.217,0-0.414-0.089-0.541-0.27l-3.727-4.97l-3.745,4.97
			c-0.126,0.181-0.323,0.27-0.54,0.27c-0.396,0-0.721-0.306-0.721-0.72c0-0.144,0.037-0.306,0.145-0.432l3.889-5.131l-3.619-4.826
			c-0.09-0.126-0.144-0.27-0.144-0.414c0-0.343,0.288-0.721,0.72-0.721c0.217,0,0.433,0.108,0.576,0.288l3.439,4.627l3.439-4.646
			c0.125-0.18,0.324-0.27,0.54-0.27c0.378,0,0.737,0.306,0.737,0.721c0,0.144-0.035,0.288-0.125,0.414l-3.619,4.808l3.889,5.149
			c0.09,0.126,0.127,0.27,0.127,0.415C20.092,53.506,19.768,53.848,19.371,53.848z"/>
		<path style="fill:#FFFFFF;" d="M33.826,53.83c-0.414,0-0.738-0.324-0.738-0.738v-9.254l-4.033,9.759
			C29,53.74,28.855,53.83,28.676,53.83c-0.144,0-0.287-0.09-0.342-0.234l-4.016-9.759v9.254c0,0.414-0.324,0.738-0.756,0.738
			c-0.414,0-0.738-0.324-0.738-0.738V42.829c0-0.648,0.559-1.207,1.242-1.207c0.486,0,0.99,0.288,1.188,0.756l3.438,8.373
			l3.457-8.373c0.199-0.468,0.686-0.756,1.189-0.756c0.684,0,1.242,0.558,1.242,1.207v10.263
			C34.582,53.506,34.258,53.83,33.826,53.83z"/>
		<path style="fill:#FFFFFF;" d="M44.372,53.722h-5.456c-0.594,0-1.08-0.486-1.08-1.081V42.325c0-0.396,0.324-0.721,0.774-0.721
			c0.396,0,0.72,0.324,0.72,0.721V52.39h5.042c0.36,0,0.647,0.288,0.647,0.648C45.02,53.434,44.732,53.722,44.372,53.722z"/>
	</g>
</g>
</svg>
