<?xml version="1.0" encoding="iso-8859-1"?>
<!-- Generator: Adobe Illustrator 16.0.4, SVG Export Plug-In . SVG Version: 6.00 Build 0)  -->
<!DOCTYPE svg PUBLIC "-//W3C//DTD SVG 1.1//EN" "http://www.w3.org/Graphics/SVG/1.1/DTD/svg11.dtd">
<svg version="1.1" id="zip" xmlns="http://www.w3.org/2000/svg" xmlns:xlink="http://www.w3.org/1999/xlink" x="0px" y="0px"
	 width="56px" height="64px" viewBox="0 0 56 64" style="enable-background:new 0 0 56 64;" xml:space="preserve">
<g id="Layer_156">
	<path style="fill-rule:evenodd;clip-rule:evenodd;fill:#8199AF;" d="M5.113-0.026c-2.803,0-5.074,2.272-5.074,5.074v53.841
		c0,2.803,2.271,5.074,5.074,5.074h45.773c2.801,0,5.074-2.271,5.074-5.074V20.284L37.059-0.026H5.113z"/>
	<g id="Layer_3">
		<path style="fill-rule:evenodd;clip-rule:evenodd;fill:#617F9B;" d="M55.977,20.352v1c0,0-10.361,0-12.799,0
			s-6.312-1.26-6.129-6.707c0,0,0.208,5.707,6.004,5.707C48.781,20.352,55.977,20.352,55.977,20.352z"/>
		<path style="opacity:0.5;fill-rule:evenodd;clip-rule:evenodd;fill:#FFFFFF;" d="M37.074,0c0,0,0,12.963,0,14.561
			c0,1.656,1.104,5.791,6.104,5.791s12.799,0,12.799,0L37.074,0z"/>
	</g>
	<g>
		<path style="fill:#FFFFFF;" d="M18.438,53.906h-7.581c-0.378,0-0.756-0.342-0.756-0.828c0-0.18,0.054-0.36,0.162-0.504l6.68-9.345
			h-6.212c-0.36,0-0.648-0.288-0.648-0.684c0-0.36,0.288-0.648,0.648-0.648h7.454c0.378,0,0.756,0.342,0.756,0.829
			c0,0.18-0.054,0.36-0.162,0.504l-6.68,9.345h6.338c0.36,0,0.648,0.288,0.648,0.648C19.086,53.618,18.798,53.906,18.438,53.906z"/>
		<path style="fill:#FFFFFF;" d="M22.45,54.014c-0.414,0-0.738-0.324-0.738-0.738V42.509c0-0.396,0.324-0.721,0.774-0.721
			c0.396,0,0.72,0.324,0.72,0.721v10.767C23.206,53.689,22.882,54.014,22.45,54.014z"/>
		<path style="fill:#FFFFFF;" d="M31.289,49.135h-3.331v4.141c0,0.414-0.324,0.738-0.756,0.738c-0.414,0-0.738-0.324-0.738-0.738
			V42.977c0-0.594,0.486-1.081,1.081-1.081h3.745c2.413,0,3.763,1.657,3.763,3.619S33.666,49.135,31.289,49.135z M31.109,43.229
			h-3.151v4.573h3.151c1.422,0,2.395-0.936,2.395-2.287C33.503,44.165,32.531,43.229,31.109,43.229z"/>
	</g>
</g>
</svg>
