<svg viewBox="0 0 278.42 217.24" xmlns="http://www.w3.org/2000/svg"><path d="m142.32 162.22h.41a144.82 144.82 0 0 0 75.27-24.22 5.77 5.77 0 0 0 2.49-4.75v-11.58a129.62 129.62 0 0 0 -78.78-121.2 5.76 5.76 0 0 0 -4.57 0 129.62 129.62 0 0 0 -78.82 121.2v11.58a5.81 5.81 0 0 0 2.37 4.7 144.85 144.85 0 0 0 78.73 24.27z" fill="#032e61"/><path d="m85.25 101.42 37.75-55.28a5.86 5.86 0 0 1 1.51-1.51 5.79 5.79 0 0 1 8 1.51l18.51 27.05 6.81-9.7a5.41 5.41 0 0 1 1.5-1.49 5.79 5.79 0 0 1 8.06 1.47l26.3 38.06h13.76c-10.79-66.91-63.59-87.4-68-89.39 0 0-22 7.84-41.53 31.29a116.61 116.61 0 0 0 -26.39 58z" fill="#8cd3f8"/><path d="m179.66 101.54-17.02-24.58-8.26 11.94 9.54 12.62z" fill="#a372b5"/><path d="m154.38 88.9-8.71 12.6 18.25.02z" fill="#741b89"/><path d="m113.24 81.07 14.84 20.41h3.45l12.57-18.09-13.31-19.46-2.92-4.26z" fill="#a372b5"/><path d="m113.24 81.07-13.94 20.37 28.78.04z" fill="#741b89"/><path d="m144 142.06a3.59 3.59 0 0 0 -1.84-4.72l-5.36-2.34a17.36 17.36 0 0 1 -1.9-1 15.22 15.22 0 0 1 -4.79-21h-59.92c-.28 2.9-.28 5.79-.28 8.69v8.49a136.8 136.8 0 0 0 39.34 16.67c10.58 2.37 19.94 3.84 29.76 3.91l4.78-8.33z" fill="#009a44"/><path d="m208.74 113h-63.67l-4.83 5.82a3.4 3.4 0 0 0 -.52.88 3.56 3.56 0 0 0 1.92 4.68l5.32 2.36c.48.21.95.45 1.4.7a15.23 15.23 0 0 1 5.64 20.76l-1 1.68c3-.39 6.15-.9 9.41-1.57a138.48 138.48 0 0 0 16.43-4.24c.81-.25 2.48-.83 2.48-.83a138.59 138.59 0 0 0 27.57-13.08l.09-8.49c.02-2.9-.07-5.79-.24-8.67z" fill="#009a44"/><path d="m148.36 127.42c-.45-.25-.92-.49-1.4-.7l-5.32-2.36a3.56 3.56 0 0 1 -1.92-4.68 3.4 3.4 0 0 1 .52-.88l4.83-5.82h-15a15.22 15.22 0 0 0 4.79 21 17.36 17.36 0 0 0 1.9 1l5.33 2.35a3.59 3.59 0 0 1 1.84 4.72l-.18.35-4.75 8.34a105.2 105.2 0 0 0 14-.86l1-1.68a15.23 15.23 0 0 0 -5.64-20.78z" fill="#fff"/><path d="m169.67 131.87h17.27l-8.63-9.87z" fill="#046a38"/><path d="m100.6 138.86h17.27l-8.63-9.87z" fill="#046a38"/><path d="m92.3 118.61-8.63 9.86h17.27z" fill="#046a38"/><g fill="#032e61"><path d="m0 191.83h10.14v25.41h5.39v-25.41h9.96v-4.91h-25.49z"/><path d="m56.07 197.7c0-6.34-4-10.78-12.12-10.78h-9.7v30.32h5.35v-8.8h3.32a26 26 0 0 0 2.71-.13l6.43 8.93h6.26l-7.77-10.24c3.8-1.79 5.52-5.12 5.52-9.3zm-12.51 6h-4v-11.87h4c5 0 6.73 2.55 6.73 5.87s-1.72 6-6.73 6z"/><path d="m78.33 186.66-14.24 30.58h5.61l2.63-6h13l2.67 6h5.74l-14.2-30.58zm-4.1 20.27 4.62-10.44 4.61 10.44z"/><path d="m102.4 186.92h5.35v30.32h-5.35z"/><path d="m125.04 186.92h-5.35v30.32h19.71v-4.92h-14.36z"/><path d="m168.26 200.55h-14.8v-13.63h-5.34v30.32h5.34v-11.95h14.8v11.95h5.35v-30.28h-5.35z"/><path d="m185.55 217.24h19.71v-4.92h-14.36v-7.24h13.03v-4.75h-13.03v-8.5h14.36v-4.91h-19.71z"/><path d="m227.13 186.66-14.23 30.58h5.61l2.63-6h13l2.68 6h5.73l-14.23-30.58zm-4.13 20.27 4.62-10.44 4.62 10.44z"/><path d="m262.2 186.92h-11.43v30.32h11.43c9.27 0 16.22-6.51 16.22-15.18s-6.82-15.14-16.22-15.14zm0 25.4h-6.08v-20.49h6.08a10.25 10.25 0 1 1 0 20.49z"/></g></svg>