<?xml version="1.0" encoding="UTF-8"?>
<svg width="48px" height="48px" viewBox="0 0 48 48" version="1.1" xmlns="http://www.w3.org/2000/svg" xmlns:xlink="http://www.w3.org/1999/xlink">
    <title>Standard Icons / multi_select_checkbox</title>
    <defs>
        <rect id="path-1" x="0" y="0" width="48" height="48" rx="4"></rect>
    </defs>
    <g id="Standard-Icons-/-multi_select_checkbox" stroke="none" stroke-width="1" fill="none" fill-rule="evenodd">
        <mask id="mask-2" fill="white">
            <use xlink:href="#path-1"></use>
        </mask>
        <use id="Icon-Background" fill="#7614A1" xlink:href="#path-1"></use>
        <g id="multi_select_checkbox" mask="url(#mask-2)" fill="#FFFFFF" fill-rule="nonzero">
            <g transform="translate(7.566667, 7.000000)">
                <path d="M29.4666667,0 L11.3333333,0 C9.46333333,0 7.93333333,1.53 7.93333333,3.4 L7.93333333,3.96666667 C7.93333333,4.30666667 8.16,4.53333333 8.5,4.53333333 L24.9333333,4.53333333 C26.8033333,4.53333333 28.3333333,6.06333333 28.3333333,7.93333333 L28.3333333,25.5 C28.3333333,25.84 28.56,26.0666667 28.9,26.0666667 L29.4666667,26.0666667 C31.3366667,26.0666667 32.8666667,24.5366667 32.8666667,22.6666667 L32.8666667,3.4 C32.8666667,1.53 31.3366667,0 29.4666667,0 Z" id="Path"></path>
                <path d="M21.5333333,7.93333333 L3.4,7.93333333 C1.53,7.93333333 0,9.46333333 0,11.3333333 L0,30.6 C0,32.47 1.53,34 3.4,34 L21.5333333,34 C23.4033333,34 24.9333333,32.47 24.9333333,30.6 L24.9333333,11.3333333 C24.9333333,9.46333333 23.4033333,7.93333333 21.5333333,7.93333333 Z M20.0033333,17.5666667 L11.3333333,26.2366667 C10.9933333,26.5766667 10.5966667,26.7466667 10.1433333,26.7466667 C9.74666667,26.7466667 9.29333333,26.5766667 8.95333333,26.2366667 L4.76,22.0433333 C4.42,21.7033333 4.42,21.1933333 4.76,20.8533333 L5.95,19.6633333 C6.29,19.3233333 6.8,19.3233333 7.14,19.6633333 L10.1433333,22.6666667 L17.6233333,15.1866667 C17.9633333,14.8466667 18.4733333,14.8466667 18.8133333,15.1866667 L20.0033333,16.3766667 C20.2866667,16.7166667 20.2866667,17.2833333 20.0033333,17.5666667 Z" id="Shape"></path>
            </g>
        </g>
    </g>
</svg>