<?xml version="1.0" encoding="iso-8859-1"?>
<!-- Generator: Adobe Illustrator 16.0.4, SVG Export Plug-In . SVG Version: 6.00 Build 0)  -->
<!DOCTYPE svg PUBLIC "-//W3C//DTD SVG 1.1//EN" "http://www.w3.org/Graphics/SVG/1.1/DTD/svg11.dtd">
<svg version="1.1" xmlns="http://www.w3.org/2000/svg" xmlns:xlink="http://www.w3.org/1999/xlink" x="0px" y="0px" width="120px"
	 height="120px" viewBox="0 0 120 120" style="enable-background:new 0 0 120 120;" xml:space="preserve">
<g id="Custom2_-_fan_1_">
	<g id="Fan_x40_2x.png_1_">
		<g id="fan">
			<g>
				<path style="fill:#FFFFFF;" d="M46.667,67.4c0-1.333,0.2-2.6,0.533-3.8c-2.533,0.533-5.2,1.533-7.8,3
					C30.667,71.534,26,79.667,28.867,84.8c2.933,5.067,12.333,5.267,21.066,0.334c2.533-1.4,4.667-3.066,6.466-4.867
					C50.8,78.667,46.667,73.534,46.667,67.4z M60,54.067c3.667,0,7,1.467,9.4,3.866c0.8-2.6,1.267-5.533,1.267-8.732
					c-0.133-10-5-18.066-10.867-18.066c-5.866,0.066-10.533,8.199-10.399,18.199c0,3.134,0.466,6,1.333,8.533
					C53.133,55.534,56.399,54.067,60,54.067z M68.533,67.4c0-4.733-3.8-8.533-8.533-8.533s-8.533,3.8-8.533,8.533
					s3.8,8.533,8.533,8.533S68.533,72.134,68.533,67.4z M80.599,66.601c-2.6-1.467-5.267-2.467-7.8-3c0.4,1.2,0.6,2.467,0.6,3.8
					c0,6.134-4.2,11.267-9.8,12.866c1.8,1.801,3.933,3.467,6.466,4.867c8.733,4.933,18.133,4.733,21.066-0.334
					C93.999,79.667,89.333,71.534,80.599,66.601z"/>
			</g>
		</g>
	</g>
</g>
<g id="nyt_x5F_exporter_x5F_info" style="display:none;">
</g>
</svg>
