<?xml version="1.0" encoding="UTF-8"?>
<svg width="140px" height="81px" viewBox="0 0 140 81" version="1.1" xmlns="http://www.w3.org/2000/svg" xmlns:xlink="http://www.w3.org/1999/xlink">
    <title>Capture Donor Intent with Donation Allocations</title>
    <g id="Getting-Started-Page---End-User" stroke="none" stroke-width="1" fill="none" fill-rule="evenodd">
        <g id="Getting-Started-Tab---End-User-Dec-2020" transform="translate(-186.000000, -2582.000000)" fill-rule="nonzero">
            <g id="Capture-Donor-Intent-with-Donation-Allocations" transform="translate(186.000000, 2582.000000)">
                <circle id="Oval" fill="#F2F2F2" cx="72.295082" cy="1.14754098" r="1.14754098"></circle>
                <circle id="Oval" fill="#F2F2F2" cx="72.295082" cy="5.73770492" r="1.14754098"></circle>
                <circle id="Oval" fill="#F2F2F2" cx="77.1721311" cy="1.14754098" r="1.14754098"></circle>
                <circle id="Oval" fill="#F2F2F2" cx="77.1721311" cy="5.73770492" r="1.14754098"></circle>
                <circle id="Oval" fill="#F2F2F2" cx="81.7622951" cy="1.14754098" r="1.14754098"></circle>
                <circle id="Oval" fill="#F2F2F2" cx="81.7622951" cy="5.73770492" r="1.14754098"></circle>
                <circle id="Oval" fill="#F2F2F2" cx="81.7622951" cy="10.3278689" r="1.14754098"></circle>
                <circle id="Oval" fill="#F2F2F2" cx="81.7622951" cy="14.9180328" r="1.14754098"></circle>
                <circle id="Oval" fill="#F2F2F2" cx="86.6393443" cy="1.14754098" r="1.14754098"></circle>
                <circle id="Oval" fill="#F2F2F2" cx="86.6393443" cy="5.73770492" r="1.14754098"></circle>
                <circle id="Oval" fill="#F2F2F2" cx="86.6393443" cy="10.3278689" r="1.14754098"></circle>
                <circle id="Oval" fill="#F2F2F2" cx="86.6393443" cy="14.9180328" r="1.14754098"></circle>
                <circle id="Oval" fill="#F2F2F2" cx="91.5163934" cy="1.14754098" r="1.14754098"></circle>
                <circle id="Oval" fill="#F2F2F2" cx="91.5163934" cy="5.73770492" r="1.14754098"></circle>
                <circle id="Oval" fill="#F2F2F2" cx="96.1065574" cy="1.14754098" r="1.14754098"></circle>
                <circle id="Oval" fill="#F2F2F2" cx="96.1065574" cy="5.73770492" r="1.14754098"></circle>
                <path d="M131.187638,60.5327869 L122.684129,60.5327869 C122.684129,60.7820583 113.920211,60.9843655 113.920211,60.9843655 C113.782655,61.0899937 113.657287,61.2111889 113.54651,61.3456284 C113.21363,61.7505167 113.031688,62.2623062 113.032787,62.79068 L113.032787,63.1519429 C113.033243,64.3987525 114.024222,65.4093765 115.246797,65.4098361 L131.187634,65.4098361 C132.409955,65.4087535 133.400578,64.3984942 133.401639,63.1519429 L133.401639,62.79068 C133.399948,61.5443968 132.409696,60.5345141 131.187638,60.5327869 Z" id="Path" fill="#3F3D56"></path>
                <rect id="Rectangle" fill="#3F3D56" x="122.213115" y="65.4098361" width="2.29508197" height="14.9180328"></rect>
                <path d="M131.106557,80.189515 C131.106557,80.4310289 127.638599,80.2829314 123.360656,80.2829314 C119.082712,80.2829314 115.614754,80.4310289 115.614754,80.189515 C115.614754,79.9480011 119.082712,78.0327869 123.360656,78.0327869 C127.638599,78.0327869 131.106557,79.9479994 131.106557,80.189515 Z" id="Path" fill="#3F3D56"></path>
                <polygon id="Path" fill="#FFB8B8" points="111.598012 78.0327869 109.459888 78.032611 108.442623 69.7131148 111.598361 69.7132907"></polygon>
                <path d="M107.947096,77.4590164 L112.172131,77.4590164 L112.172131,80.0409836 L105.286885,80.0409836 L105.286885,80.0409836 C105.286885,78.6150022 106.477903,77.4590164 107.947096,77.4590164 L107.947096,77.4590164 Z" id="Path" fill="#2F2E41"></path>
                <polygon id="Path" fill="#FFB8B8" points="108.510971 76.8852459 106.434426 76.2392148 107.959747 67.9918033 111.02459 68.9452755"></polygon>
                <path d="M104.561192,75.4208048 L108.761666,75.4201332 L108.761243,78.063661 L101.916027,78.0647555 L101.916027,78.0647555 C101.916139,77.3636484 102.194888,76.6912122 102.690953,76.1953752 C103.187018,75.6995383 103.859763,75.420917 104.561192,75.4208048 Z" id="Path" fill="#2F2E41" transform="translate(105.338846, 76.742444) rotate(17.422620) translate(-105.338846, -76.742444) "></path>
                <path d="M125.620178,59.0188702 C125.569625,58.5971037 125.478747,58.1810546 125.34877,57.7763353 L124.939872,57.2665775 L123.875666,55.942623 L123.829284,55.9443929 C123.750641,55.9479329 123.423866,55.9656329 122.91862,56.0045727 L122.913215,56.0045727 C122.600738,56.0293526 122.218599,56.0612125 121.784758,56.1019223 C121.670456,56.1143122 121.550837,56.1249322 121.427642,56.1373221 L121.427642,57.9851945 L123.659618,57.9851945 C123.883973,57.9854876 124.073381,58.1505294 124.102442,58.3710529 C124.104186,58.3905228 124.106013,58.4082227 124.106013,58.4276926 C124.105915,58.6720372 123.906114,58.8700931 123.659618,58.8701908 L110.696285,58.8701908 C110.531111,58.9788866 110.372509,59.097089 110.221294,59.2241893 C109.764603,59.5746222 109.43552,60.0630048 109.283864,60.6154036 C108.526822,63.9146699 107.146572,70.0671643 106.739412,71.8743357 C106.67937,72.1513266 106.770973,72.4391864 106.980481,72.6318926 C107.056483,72.7021309 107.145684,72.7568601 107.243001,72.7929619 L108.853594,73.3912194 C108.919786,73.4154801 108.988751,73.4315319 109.058918,73.4390092 C109.067812,73.4390092 109.074962,73.4407792 109.083941,73.4407792 C109.10055,73.4422535 109.117226,73.4428444 109.133898,73.442623 C109.467202,73.4412333 109.765599,73.2374808 109.885628,72.9292513 L111.156983,69.622905 L113.115804,64.5253262 L113.890717,62.5093046 C114.788827,62.7181637 122.324014,64.3713368 124.847015,61.7074979 C125.095916,61.4450479 125.292254,61.1381149 125.425586,60.8030228 C125.637904,60.233317 125.704754,59.6203946 125.620178,59.0188702 L125.620178,59.0188702 Z" id="Path" fill="#2F2E41"></path>
                <path d="M127.785037,59.6957516 C127.74579,59.5382214 127.701136,59.3753813 127.64933,59.2107711 L126.175748,57.3770492 L126.129351,57.3788192 C126.03638,57.3841292 125.595246,57.4071392 124.918285,57.4620093 C124.150272,57.5257293 123.076744,57.6283894 121.871086,57.7894596 C121.835416,57.7929996 121.797914,57.7983096 121.762155,57.8036196 C121.64424,57.8195496 121.524582,57.8354797 121.404923,57.8531797 L121.404923,58.18063 L123.637623,58.18063 C123.862051,58.1809232 124.05152,58.3459658 124.08059,58.5664904 C124.082335,58.5859604 124.084163,58.6036605 124.084163,58.6231305 C124.084064,58.8674763 123.884199,59.0655333 123.637623,59.0656309 L115.74634,59.0656309 C115.401666,59.1771411 115.069385,59.2939612 114.751479,59.4196313 C113.083235,60.074532 111.834666,60.9329829 111.579215,62.0498541 C111.493479,62.4250945 111.398854,62.8375049 111.298818,63.2764654 C110.927283,64.9084071 110.475424,66.9067392 110.066386,68.7227611 L110.066386,68.7245311 C109.982399,69.0997715 109.898498,69.4643918 109.818085,69.8183922 C109.476902,71.3405938 109.18761,72.6309252 109.033938,73.3088359 C109.030366,73.3283059 109.026874,73.3460059 109.02321,73.3654759 L109.02321,73.3690159 C109.005404,73.5061485 109.022617,73.6455167 109.073271,73.7743463 L109.075016,73.7761057 L109.075016,73.7778757 C109.124145,73.9012523 109.204055,74.0102622 109.307268,74.0947061 C109.376258,74.1511057 109.45409,74.1959473 109.537683,74.2274562 L111.148799,74.8257168 C111.238511,74.8589591 111.333417,74.8763329 111.429194,74.8770492 C111.563453,74.8773687 111.695593,74.84387 111.813202,74.7796968 C111.98205,74.6890453 112.112575,74.5414953 112.18116,74.3637463 L115.649869,65.3438169 L116.187548,63.9437454 C117.085949,64.1526057 124.623579,65.8040174 127.147398,63.1419346 C127.645998,62.6071487 127.930528,61.9104401 127.947597,61.1825425 C127.965222,60.6817999 127.910481,60.1811332 127.785037,59.6957516 L127.785037,59.6957516 Z" id="Path" fill="#2F2E41"></path>
                <path d="M127.378163,43.8988966 C127.349755,43.8653928 127.319434,43.8318889 127.287462,43.8001485 C126.326112,42.7985842 124.938796,42.3140663 123.556243,42.4970255 C122.961703,42.5744231 122.372742,42.689274 121.792936,42.8408807 C121.044128,43.0316907 120.358493,43.4127748 119.80374,43.9464985 C118.930056,44.7860202 118.451759,45.9502397 118.485255,47.1558135 C118.492372,47.3973938 118.494118,47.6442641 118.490643,47.8946612 C118.490643,48.011043 118.488817,48.1291881 118.487084,48.2473332 L120.241443,48.2473332 C120.317566,48.2471133 120.393437,48.2559942 120.467413,48.2737836 C120.908089,48.3781567 121.219228,48.7681543 121.220055,49.2171811 L121.220055,57.4203312 C121.339253,57.453835 121.458452,57.4873389 121.575914,57.5226061 C121.613279,57.534939 121.648893,57.5455192 121.684426,57.5560993 C121.725349,57.5684428 121.766273,57.5807864 121.80545,57.5931299 C122.16661,57.7042215 122.519486,57.8217789 122.864078,57.9458018 L123.444172,57.9458018 C123.667738,57.9460939 123.856479,58.1105172 123.885437,58.3302143 C124.006461,58.377825 124.123836,58.4254357 124.239472,58.4730464 C124.6505,58.642329 125.040155,58.8116115 125.397837,58.975604 C125.880026,59.1942606 126.308857,59.4023371 126.668278,59.5839632 C126.781287,59.6410384 126.906163,59.6712262 127.032998,59.6721311 C127.199553,59.6715926 127.361602,59.6184737 127.495632,59.5204822 C127.523442,59.5001417 127.550151,59.4783634 127.575649,59.4552379 C127.768985,59.2756254 127.860239,59.012915 127.819432,58.7534207 C127.635756,57.368272 127.582154,55.9692218 127.659313,54.5742578 C127.709096,53.4016235 127.815871,52.1990121 127.954704,51.0369579 C128.02942,50.4074385 128.112999,49.7902625 128.200225,49.1960102 C128.283891,48.6282084 128.372856,48.0833302 128.460002,47.5684291 C128.691826,46.2452427 128.29235,44.8902442 127.378163,43.8988966 L127.378163,43.8988966 Z" id="Path" fill="#FF9E2D"></path>
                <path d="M120.150257,44.0568974 C120.061299,44.0188807 119.969753,43.987165 119.876304,43.9619869 C118.921281,43.7060209 117.922094,44.1856387 117.528745,45.0888335 L116.337607,47.8257075 L116.188525,48.1708366 L120.302821,48.1708366 C120.376997,48.1706214 120.450928,48.1793124 120.523013,48.1967213 L120.661684,47.8774769 L121.188758,46.6660736 C121.624681,45.6601252 121.160069,44.4928136 120.150257,44.0568974 L120.150257,44.0568974 Z" id="Path" fill="#FF9E2D"></path>
                <circle id="Oval" fill="#FFB8B8" cx="123.934426" cy="36.7213115" r="4.30327869"></circle>
                <path d="M128.433947,49.3687884 L125.903168,49.4353592 L125.719046,51.1609452 L125.677528,51.5603702 L121.713483,53.2877081 L121.352459,53.4453759 L121.352459,56.5163934 L121.713483,56.4165372 L122.854289,56.1012017 L122.859753,56.1012017 L127.88518,54.7119735 L127.942913,54.6962068 C128.776771,54.4625206 129.353667,53.725312 129.361801,52.8830275 L129.374404,50.8456097 L129.385246,49.3442623 L128.433947,49.3687884 Z" id="Path" fill="#FFB8B8"></path>
                <path d="M129.115185,45.8393712 C129.046854,44.696681 128.089459,43.8272347 126.976783,43.8974086 C125.864107,43.9675826 125.017498,44.9508032 125.085829,46.0934935 L125.354297,50.5919979 C125.368995,50.8316774 125.486676,51.0522451 125.675466,51.1939613 C125.82383,51.307551 126.006747,51.3631407 126.19141,51.3507601 L128.072751,51.2318093 L128.643108,51.1957636 C128.853038,51.1851568 129.049607,51.0868286 129.187159,50.9236184 C129.202246,50.906495 129.216296,50.8884383 129.229232,50.8695499 C129.340794,50.716217 129.395536,50.527093 129.383648,50.3360734 L129.115185,45.8393712 Z" id="Path" fill="#FF9E2D"></path>
                <path d="M122.062343,57.7715206 L121.832208,57.7715206 L121.832208,57.7482112 C121.714436,57.7643485 121.594923,57.7804857 121.47541,57.798416 L121.47541,58.1301262 L123.123774,58.1301262 C122.777686,58.0046131 122.423875,57.8850779 122.062343,57.7715206 Z M122.062343,57.7715206 L121.832208,57.7715206 L121.832208,57.7482112 C121.714436,57.7643485 121.594923,57.7804857 121.47541,57.798416 L121.47541,58.1301262 L123.123774,58.1301262 C122.777686,58.0046131 122.423875,57.8850779 122.062343,57.7715206 Z M123.7054,57.7715206 L121.832208,57.7715206 L121.832208,49.2546371 C121.830871,48.6556721 121.436096,48.1295795 120.86347,47.9636568 C120.74373,47.9273768 120.619276,47.9092471 120.494214,47.9098507 L104.616683,47.9098507 C103.878098,47.9107611 103.279579,48.5123116 103.278689,49.2546371 L103.278689,58.0404748 C103.278948,58.7830631 103.877837,59.3849846 104.616683,59.3852459 L123.7054,59.3852459 C124.114558,59.3845505 124.457874,59.0749865 124.502797,58.6662416 C124.506429,58.6370984 124.508197,58.6077543 124.508197,58.5783833 C124.507528,58.1330413 124.148491,57.7721891 123.705393,57.7715206 L123.7054,57.7715206 Z M124.151398,58.5783833 C124.151398,58.8259078 123.951677,59.0266403 123.7054,59.0266403 L104.616683,59.0266403 C104.074915,59.0263198 103.635806,58.5849862 103.635487,58.0404748 L103.635487,49.2546371 C103.63581,48.7101274 104.074917,48.268796 104.616683,48.2684675 L120.494214,48.2684675 C120.570538,48.268248 120.646609,48.2772783 120.720781,48.295367 C121.16262,48.4014962 121.474581,48.7980554 121.47541,49.2546371 L121.47541,58.1301262 L123.7054,58.1301262 C123.929556,58.1304232 124.118795,58.2976129 124.14783,58.5210064 C124.149563,58.5407261 124.151398,58.5586617 124.151398,58.5783833 L124.151398,58.5783833 Z M122.062343,57.7715206 L121.832208,57.7715206 L121.832208,57.7482112 C121.714436,57.7643485 121.594923,57.7804857 121.47541,57.798416 L121.47541,58.1301262 L123.123774,58.1301262 C122.777686,58.0046131 122.423875,57.8850779 122.062343,57.7715206 Z" id="Shape" fill="#3F3D56"></path>
                <circle id="Oval" fill="#FF9E2D" cx="112.315574" cy="53.7909836" r="1.00409836"></circle>
                <path d="M123.119482,35.0503523 C122.109155,35.9497199 120.754524,36.915055 119.517369,36.2561427 C118.705032,35.8234904 118.34337,34.8746979 118.533092,33.9765532 C118.874269,32.3614277 120.2755,31.4887446 121.632223,30.7832964 C123.395959,29.8662143 125.342281,29.0664553 127.317265,29.3048724 C129.292249,29.5432895 131.221868,31.1694463 131.128607,33.1496278 C131.053609,34.74205 129.748627,36.227607 130.161725,37.7677208 C130.577475,39.3177223 132.465552,39.9179395 134.073733,39.9967896 C135.681914,40.0756396 137.452245,39.9390105 138.727975,40.917874 C140.355405,42.1665986 140.329343,44.7777249 139.1708,46.4677986 C138.012256,48.1578722 136.055842,49.1088795 134.134231,49.8318233 C131.588211,50.7896777 128.789754,51.4817545 126.161681,50.7775434 C123.533608,50.0733322 121.232866,47.5609356 121.618334,44.8765023 C121.781155,43.7426017 122.379836,42.7247323 122.95758,41.7344598 C123.535325,40.7441873 124.116455,39.7116282 124.237775,38.5725764 C124.338874,37.6233656 124.036288,36.5755452 123.33371,35.9640989 C123.072802,35.7456452 122.982941,35.384515 123.111208,35.069909 L123.119482,35.0503523 Z" id="Path" fill="#2F2E41"></path>
                <path d="M0.211993718,80.3278689 L137.493538,80.3278689 C137.61028,80.3278689 137.704918,80.2636471 137.704918,80.1844262 C137.704918,80.1052054 137.61028,80.0409836 137.493538,80.0409836 L0.211993718,80.0409836 C0.136328908,80.0408354 0.0663177316,80.0681427 0.028421885,80.112585 C-0.00947396166,80.1570272 -0.00947396166,80.2118253 0.028421885,80.2562675 C0.0663177316,80.3007097 0.136328908,80.328017 0.211993718,80.3278689 Z" id="Path" fill="#3F3D56"></path>
                <path d="M7.17213115,62.79068 L7.17213115,63.1519429 C7.17319269,64.3984942 8.163815,65.4087535 9.38613631,65.4098361 L25.3269735,65.4098361 C26.549548,65.4093765 27.540528,64.3987525 27.5409836,63.1519429 L27.5409836,62.79068 C27.5420822,62.2623062 27.3601402,61.7505167 27.0272603,61.3456284 C26.9164839,61.2111889 26.7911159,61.0899937 26.6535593,60.9843655 C26.6535593,60.9843655 17.8896413,60.7820583 17.8896413,60.5327869 L9.38613631,60.5327869 C8.16407644,60.5345121 7.17382287,61.5443954 7.17213115,62.79068 L7.17213115,62.79068 Z" id="Path" fill="#3F3D56"></path>
                <rect id="Rectangle" fill="#3F3D56" transform="translate(17.213115, 72.868852) rotate(-180.000000) translate(-17.213115, -72.868852) " x="16.0655738" y="65.4098361" width="2.29508197" height="14.9180328"></rect>
                <path d="M9.75409836,80.189515 C9.75409836,80.4310289 13.2220565,80.2829314 17.5,80.2829314 C21.7779435,80.2829314 25.2459016,80.4310289 25.2459016,80.189515 C25.2459016,79.9480011 21.7779435,78.0327869 17.5,78.0327869 C13.2220565,78.0327869 9.75409836,79.9479994 9.75409836,80.189515 Z" id="Path" fill="#3F3D56"></path>
                <polygon id="Path" fill="#A0616A" points="28.9757587 78.3196721 31.1140003 78.3196721 32.1311475 70 28.9754098 70.0001759"></polygon>
                <path d="M28.5868711,77.6875707 L35.4324305,77.6875707 L35.4324305,80.3309677 L31.2317483,80.3309677 C29.771023,80.3309677 28.5868711,79.1474785 28.5868711,77.6875707 L28.5868711,77.6875707 L28.5868711,77.6875707 Z" id="Path" fill="#2F2E41" transform="translate(32.009651, 79.009269) rotate(179.997380) translate(-32.009651, -79.009269) "></path>
                <polygon id="Path" fill="#A0616A" points="32.3496845 77.1721311 34.4262295 76.5261 32.9009089 68.2786885 29.8360656 69.2321607"></polygon>
                <path d="M32.0609034,75.5553817 L38.9061211,75.5564762 L38.906544,78.200004 L34.706069,78.1993323 C33.245418,78.1990988 32.061137,77.0153617 32.0609034,75.5553817 L32.0609034,75.5553817 L32.0609034,75.5553817 Z" id="Path" fill="#2F2E41" transform="translate(35.483724, 76.877693) rotate(162.577380) translate(-35.483724, -76.877693) "></path>
                <path d="M30.9740859,73.2166513 L26.9685376,62.79637 C26.0699058,63.0055222 18.5338019,64.6581723 16.009748,61.9948499 C15.1447325,61.0820117 14.9760291,59.7595139 15.5083027,58.0639975 L16.9813295,56.2295082 L17.0271123,56.2319278 C17.584065,56.2609667 30.6785753,56.9883337 31.5762052,60.9027657 C32.3330381,64.2028781 33.7152371,70.3555861 34.1207965,72.1627658 C34.2057758,72.5497642 33.9919731,72.9400769 33.6182118,73.0802715 L32.0073528,73.6788609 C31.9176029,73.7123477 31.8224911,73.7295082 31.7265912,73.7295082 C31.3928018,73.7295082 31.0935733,73.5255293 30.9740859,73.2166513 L30.9740859,73.2166513 Z" id="Path" fill="#2F2E41"></path>
                <path d="M28.6790039,74.3641922 L24.6734557,63.9439109 C23.7747792,64.1530632 16.2387199,65.8055399 13.714666,63.1423909 C12.8496506,62.2295527 12.6809471,60.9070549 13.2132208,59.2115384 L14.6862476,57.3770492 L14.7320303,57.3794688 C15.2889831,57.4085077 28.3834934,58.1358747 29.2811232,62.0503067 C30.0379561,65.3504191 31.4201551,71.5031271 31.8257145,73.3103068 C31.9106938,73.6973052 31.6968911,74.0876179 31.3231298,74.2278125 L29.7122709,74.8264019 C29.622521,74.8598887 29.5274091,74.8770492 29.4315093,74.8770492 C29.0977198,74.8770492 28.7984914,74.6730703 28.6790039,74.3641922 L28.6790039,74.3641922 Z" id="Path" fill="#2F2E41"></path>
                <path d="M25.1460106,54.2213115 C23.9420134,54.2208531 22.8270511,53.5736681 22.210839,52.5175774 L20.942623,50.324018 L23.9569977,48.6418543 L25.2369298,50.4336549 L33.921377,49.4994552 C33.9636489,49.4213977 34.0111977,49.3464432 34.0636779,49.2751365 L34.0636779,49.2751365 C34.4007047,48.8223266 34.9104005,48.5371817 35.4655698,48.4908602 C36.023413,48.442003 36.574722,48.6416514 36.9777445,49.038472 C37.6352723,49.682317 37.7724196,50.7034946 37.3089117,51.504292 C37.0240158,51.9944567 36.5478609,52.3372637 35.9999904,52.4466477 C35.45212,52.5560317 34.8845653,52.4216045 34.4398168,52.0771155 C34.3888508,52.0373042 34.3399457,51.9948152 34.2932995,51.9498206 L25.9754634,54.1151523 C25.7043969,54.1857169 25.425749,54.2213802 25.1460106,54.2213115 Z" id="Path" fill="#A0616A"></path>
                <path d="M13.3614862,59.8076193 C13.1167059,59.6327055 12.9917071,59.3363055 13.038043,59.0406636 C13.5329133,55.8056009 12.9635316,51.1713114 12.39871,47.8532308 C12.1642534,46.4880418 12.59573,45.0934101 13.5619106,44.0934989 C14.5280912,43.0935877 15.9147749,42.6065848 17.3002158,42.7806072 C17.8946374,42.8584737 18.483491,42.9735837 19.0632428,43.1252463 L19.0632428,43.1252463 C21.0467687,43.6205855 22.4193487,45.4128278 22.3681048,47.4405598 C22.2836514,50.6423827 22.939265,54.6373393 23.2250639,56.2062154 C23.2644898,56.424073 23.2107728,56.6483769 23.0767809,56.8253947 C22.9453475,57.0006335 22.7454259,57.1127139 22.5262444,57.1340373 C19.359021,57.4545653 15.9435168,58.9862455 14.1894785,59.8706564 C14.0767487,59.9283361 13.951809,59.9586216 13.8249584,59.9590164 C13.6582016,59.9584733 13.4959212,59.905463 13.3614862,59.8076193 Z" id="Path" fill="#CCCCCC"></path>
                <path d="M21.8762805,51.5824438 C21.6791614,51.5044005 21.5212174,51.3501055 21.437663,51.1539597 L19.6766534,47.0535993 C19.3865633,46.3796002 19.4754733,45.6007844 19.9098593,45.0108094 C20.3442452,44.4208344 21.0580371,44.1094354 21.782095,44.1940274 C22.5061529,44.2786194 23.1303477,44.7463359 23.4193228,45.4208214 L25.180375,49.5211818 C25.3547973,49.9288007 25.1690478,50.4018151 24.7650978,50.5786929 L22.486942,51.5726712 C22.2928643,51.6580453 22.0729571,51.6615652 21.8762876,51.5824456 L21.8762805,51.5824438 Z" id="Path" fill="#CCCCCC"></path>
                <circle id="Oval" fill="#A0616A" cx="16.9262295" cy="37.0081967" r="4.30327869"></circle>
                <path d="M14.3277578,40.7792139 C14.2031132,40.9243233 14.0255628,41.0124067 13.8355118,41.0234188 C13.6454609,41.034431 13.4590759,40.9674352 13.3187727,40.8376778 C12.3476431,40.0448657 11.5774255,39.0304623 11.071711,37.8782194 C10.5055143,36.5171258 10.4225387,34.8561303 11.0669233,33.5803309 C11.6116535,32.5018319 12.5895116,31.8153121 13.5657224,31.2542147 C13.9399574,31.0163987 14.3500703,30.8415838 14.7799832,30.7366236 C15.2190887,30.6361091 15.6798637,30.7274886 16.0485378,30.9881996 C16.4427547,31.2905367 16.6390938,31.7877865 16.5588677,32.2806645 C17.005403,31.6873971 17.6074013,31.2317416 18.2969827,30.9650766 C18.7200889,30.7814228 19.1928096,30.7494907 19.6364214,30.8745981 C20.263347,31.0856365 20.7273944,31.7240986 20.9856252,32.410064 C21.1944594,32.9352373 21.2709471,33.5044308 21.2082447,34.0667175 C21.152987,34.6093173 20.8793291,35.1052628 20.4512435,35.4386179 C19.9398727,35.794473 19.2810541,35.7583309 18.6863442,35.6008332 C18.0916343,35.4433355 17.5144508,35.1762993 16.909364,35.1018478 C16.3042773,35.0273963 15.6336775,35.188814 15.2731661,35.7331102 C15.019285,36.116416 14.959432,36.6213476 14.9076295,37.1026571 L14.6381955,39.606066 C14.6191617,39.9642307 14.542652,40.3169108 14.4116466,40.6503687 C14.3894785,40.6968821 14.3612677,40.7402113 14.3277578,40.7792139 L14.3277578,40.7792139 Z" id="Path" fill="#2F2E41"></path>
                <path d="M29.8906055,67.704918 L22.847316,67.704918 C22.6160312,67.7056521 22.3973392,67.5991457 22.2546254,67.4162646 C22.1087579,67.2308906 22.0561523,66.9882679 22.1120568,66.7587235 C22.7708765,63.9858579 22.7708584,61.096101 22.1120038,58.3232437 C22.0561443,58.0936907 22.1087668,57.8510806 22.2546254,57.6657026 C22.3973392,57.4828215 22.6160312,57.3763151 22.847316,57.3770492 L29.8906055,57.3770492 C30.2622671,57.3778048 30.578873,57.6485273 30.6390689,58.017047 C31.0984524,61.0153429 31.0984524,64.0666243 30.6390689,67.0649203 C30.578873,67.43344 30.2622671,67.7041624 29.8906055,67.704918 L29.8906055,67.704918 Z" id="Path" fill="#CCCCCC"></path>
                <path d="M24.3852459,61.2003111 L24.3852459,61.0128037 C24.3855734,60.7478176 24.6286846,60.5330761 24.9286784,60.5327869 L28.7188626,60.5327869 C29.0188563,60.5330761 29.2619676,60.7478176 29.2622951,61.0128037 L29.2622951,61.2003111 C29.2619676,61.4652971 29.0188563,61.6800386 28.7188626,61.6803279 L24.9286784,61.6803279 C24.6286846,61.6800386 24.3855734,61.4652971 24.3852459,61.2003111 Z" id="Path" fill="#FFFFFF"></path>
                <path d="M24.3852459,63.4954252 L24.3852459,63.3078535 C24.3855734,63.0428852 24.6286846,62.8281581 24.9286784,62.8278689 L28.7188626,62.8278689 C29.0188563,62.8281581 29.2619676,63.0428852 29.2622951,63.3078535 L29.2622951,63.4954252 C29.2619676,63.7603935 29.0188563,63.9751206 28.7188626,63.9754098 L24.9286784,63.9754098 C24.6286846,63.9751206 24.3855734,63.7603935 24.3852459,63.4954252 Z" id="Path" fill="#FFFFFF"></path>
                <path d="M26.8501242,54.7853939 C26.6995474,54.5948324 26.6452275,54.3454462 26.7029013,54.1094837 C27.3830268,51.2596009 27.3830083,48.2895603 26.7028475,45.4396859 C26.6452217,45.2037137 26.6995613,44.9543401 26.8501314,44.7637757 C26.9974921,44.5758825 27.2232206,44.4664661 27.4619391,44.4672131 L34.7323581,44.4672131 C35.1160275,44.4679372 35.442875,44.7462051 35.5049637,45.1249892 C35.9792197,48.2065666 35.9792197,51.3426138 35.5049637,54.4241911 C35.442875,54.8029753 35.1160275,55.0812431 34.7323581,55.0819672 L27.4619319,55.0819672 C27.2232116,55.0827116 26.9974827,54.9732912 26.8501242,54.7853939 L26.8501242,54.7853939 Z" id="Path" fill="#FF9E2D"></path>
                <path d="M33.317485,48.4836066 L29.510382,48.4836066 C29.2150587,48.4832501 28.9757322,48.2185891 28.9754098,47.8920036 L28.9754098,47.6407833 C28.9757322,47.3141978 29.2150587,47.0495368 29.510382,47.0491803 L33.3174868,47.0491803 C33.6128102,47.0495368 33.8521367,47.3141978 33.852459,47.6407833 L33.852459,47.8920036 C33.8521367,48.2185899 33.6128091,48.4832512 33.317485,48.4836066 L33.317485,48.4836066 Z" id="Path" fill="#FFFFFF"></path>
                <path d="M33.317485,50.7786885 L29.510382,50.7786885 C29.2150587,50.778332 28.9757322,50.5136736 28.9754098,50.1870912 L28.9754098,49.9358596 C28.9757322,49.6092772 29.2150587,49.3446188 29.510382,49.3442623 L33.3174868,49.3442623 C33.6128102,49.3446188 33.8521367,49.6092772 33.852459,49.9358596 L33.852459,50.1870912 C33.8521367,50.5136744 33.6128091,50.7783331 33.317485,50.7786885 L33.317485,50.7786885 Z" id="Path" fill="#FFFFFF"></path>
                <path d="M23.4866482,58.7006893 C22.9587968,58.5171788 22.5342287,58.1190668 22.3188488,57.6056588 C22.2942692,57.5464193 22.2728439,57.4859322 22.254662,57.4244492 L12.9032305,54.7760027 C12.0780507,54.5389199 11.5069305,53.7912759 11.4982299,52.9367396 L11.4754098,49.3442623 L14.9223476,49.4360425 L15.1469789,51.5938913 L23.1434162,55.1659554 C23.2186997,55.1211957 23.2970252,55.0817076 23.377824,55.047778 L23.3778669,55.047778 C24.1878657,54.7098663 25.1248604,54.9469726 25.6741871,55.6288613 C26.2235137,56.3107499 26.2521479,57.2722954 25.7443617,57.9853487 C25.2365755,58.6984021 24.3153339,58.990291 23.4866482,58.7006893 Z" id="Path" fill="#A0616A"></path>
                <path d="M11.6735545,50.9240073 C11.5343189,50.763171 11.4635536,50.5518253 11.4770363,50.3370911 L11.7462297,45.8415462 C11.7893343,45.1018408 12.2139633,44.4420926 12.8598473,44.1113129 C13.5057313,43.7805331 14.2745139,43.8290936 14.8760306,44.238666 C15.4775472,44.6482383 15.8201979,45.3564521 15.7746546,46.0960035 L15.5055121,50.5915664 C15.4781845,51.0381768 15.1039701,51.3778498 14.6688874,51.3509673 L12.2167391,51.1961782 C12.0075289,51.1836174 11.8119207,51.085604 11.6735598,50.9240073 L11.6735545,50.9240073 Z" id="Path" fill="#CCCCCC"></path>
                <path d="M51.7598361,27.2540984 L37.1745902,27.2540984 C36.2909008,27.253093 35.5747811,26.5406434 35.5737705,25.6614831 L35.5737705,9.91228742 C35.5747801,9.03312667 36.2909004,8.32067656 37.1745902,8.31967213 L51.7598361,8.31967213 C52.6435254,8.32067753 53.3596452,9.03312707 53.3606557,9.91228742 L53.3606557,25.6614831 C53.3596442,26.540643 52.643525,27.253092 51.7598361,27.2540984 L51.7598361,27.2540984 Z M37.1745902,8.67358664 C36.4872694,8.67435218 35.9302777,9.22848922 35.9295082,9.91228742 L35.9295082,25.6614831 C35.9302787,26.3452809 36.4872698,26.8994173 37.1745902,26.9001839 L51.7598361,26.9001839 C52.4471561,26.8994164 53.0041466,26.3452805 53.004918,25.6614831 L53.004918,9.91228742 C53.0041476,9.22848962 52.4471565,8.67435316 51.7598361,8.67358664 L37.1745902,8.67358664 Z" id="Shape" fill="#3F3D56"></path>
                <path d="M78.1532787,27.2540984 L63.5680328,27.2540984 C62.6843434,27.253093 61.9682237,26.5406434 61.9672131,25.6614831 L61.9672131,9.91228742 C61.9682227,9.03312667 62.684343,8.32067656 63.5680328,8.31967213 L78.1532787,8.31967213 C79.036968,8.32067753 79.7530878,9.03312707 79.7540984,9.91228742 L79.7540984,25.6614831 C79.7530868,26.540643 79.0369676,27.253092 78.1532787,27.2540984 Z M63.5680328,8.67358664 C62.880712,8.67435218 62.3237203,9.22848922 62.3229508,9.91228742 L62.3229508,25.6614831 C62.3237213,26.3452809 62.8807124,26.8994173 63.5680328,26.9001839 L78.1532787,26.9001839 C78.8405987,26.8994164 79.3975892,26.3452805 79.3983607,25.6614831 L79.3983607,9.91228742 C79.3975902,9.22848962 78.8405991,8.67435316 78.1532787,8.67358664 L63.5680328,8.67358664 Z" id="Shape" fill="#3F3D56"></path>
                <path d="M39.9023626,14.9180328 L38.4173095,14.9180328 C37.9561748,14.9175213 37.5824787,14.5438252 37.5819672,14.0826905 L37.5819672,12.5976374 C37.5824787,12.1365026 37.9561748,11.7628066 38.4173095,11.7622951 L39.9023626,11.7622951 C40.3634974,11.7628066 40.7371934,12.1365026 40.7377049,12.5976374 L40.7377049,14.0826905 C40.7371934,14.5438252 40.3634974,14.9175213 39.9023626,14.9180328 Z" id="Path" fill="#FF9E2D"></path>
                <path d="M39.9023626,19.2213115 L38.4173095,19.2213115 C37.9561748,19.2208 37.5824787,18.8471039 37.5819672,18.3859691 L37.5819672,16.9009161 C37.5824787,16.4397813 37.9561748,16.0660853 38.4173095,16.0655738 L39.9023626,16.0655738 C40.3634974,16.0660853 40.7371934,16.4397813 40.7377049,16.9009161 L40.7377049,18.3859691 C40.7371934,18.8471039 40.3634974,19.2208 39.9023626,19.2213115 Z" id="Path" fill="#CCCCCC"></path>
                <path d="M50.5295155,14.057377 L43.8557286,14.057377 C43.5598067,14.0570206 43.3199951,13.7923596 43.3196721,13.4657741 L43.3196721,13.2145538 C43.3199951,12.8879683 43.5598067,12.6233073 43.8557286,12.6229508 L50.5295173,12.6229508 C50.8254392,12.6233073 51.0652508,12.8879683 51.0655738,13.2145538 L51.0655738,13.4657741 C51.0652508,13.7923604 50.8254381,14.0570217 50.5295155,14.057377 Z" id="Path" fill="#FF9E2D"></path>
                <path d="M66.8695757,14.6311475 L65.3845227,14.6311475 C64.9233879,14.630636 64.5496918,14.25694 64.5491803,13.7958052 L64.5491803,12.3107522 C64.5496918,11.8496174 64.9233879,11.4759214 65.3845227,11.4754098 L66.8695757,11.4754098 C67.3307105,11.4759214 67.7044065,11.8496174 67.704918,12.3107522 L67.704918,13.7958052 C67.7044065,14.25694 67.3307105,14.630636 66.8695757,14.6311475 L66.8695757,14.6311475 Z" id="Path" fill="#CCCCCC"></path>
                <path d="M77.2098453,13.7704918 L70.5360563,13.7704918 C70.2401345,13.7701353 70.000323,13.5054744 70,13.1788888 L70,12.9276686 C70.000324,12.6010835 70.2401349,12.3364231 70.5360563,12.3360656 L77.2098453,12.3360656 C77.5057667,12.3364231 77.7455776,12.6010835 77.7459016,12.9276686 L77.7459016,13.1788888 C77.7455786,13.5054744 77.5057671,13.7701353 77.2098453,13.7704918 Z" id="Path" fill="#CCCCCC"></path>
                <path d="M77.2090581,18.0737705 L64.7991386,18.0737705 C64.5027822,18.073414 64.2626186,17.808753 64.2622951,17.4821675 L64.2622951,17.2309472 C64.2626196,16.9043622 64.5027826,16.6397018 64.7991386,16.6393443 L77.2090581,16.6393443 C77.5054141,16.6397018 77.7455772,16.9043622 77.7459016,17.2309472 L77.7459016,17.4821675 C77.7455782,17.808753 77.5054145,18.073414 77.2090581,18.0737705 Z" id="Path" fill="#FF9E2D"></path>
                <path d="M77.2090581,20.942623 L64.7991386,20.942623 C64.5027822,20.9422665 64.2626186,20.6776055 64.2622951,20.35102 L64.2622951,20.0997997 C64.2626196,19.7732146 64.5027826,19.5085543 64.7991386,19.5081967 L77.2090581,19.5081967 C77.5054141,19.5085543 77.7455772,19.7732146 77.7459016,20.0997997 L77.7459016,20.35102 C77.7455782,20.6776055 77.5054145,20.9422665 77.2090581,20.942623 Z" id="Path" fill="#CCCCCC"></path>
                <path d="M77.2090581,24.0983607 L64.7991386,24.0983607 C64.5027822,24.0980042 64.2626186,23.8333432 64.2622951,23.5067577 L64.2622951,23.2555374 C64.2626196,22.9289523 64.5027826,22.664292 64.7991386,22.6639344 L77.2090581,22.6639344 C77.5054141,22.664292 77.7455772,22.9289523 77.7459016,23.2555374 L77.7459016,23.5067577 C77.7455782,23.8333432 77.5054145,24.0980042 77.2090581,24.0983607 Z" id="Path" fill="#CCCCCC"></path>
                <path d="M104.833607,27.2540984 L90.2483607,27.2540984 C89.3646713,27.253093 88.6485516,26.5406434 88.647541,25.6614831 L88.647541,9.91228742 C88.6485506,9.03312667 89.3646709,8.32067656 90.2483607,8.31967213 L104.833607,8.31967213 C105.717296,8.32067753 106.433416,9.03312707 106.434426,9.91228742 L106.434426,25.6614831 C106.433415,26.540643 105.717296,27.253092 104.833607,27.2540984 Z M90.2483607,8.67358664 C89.5610399,8.67435218 89.0040482,9.22848922 89.0032787,9.91228742 L89.0032787,25.6614831 C89.0040492,26.3452809 89.5610403,26.8994173 90.2483607,26.9001839 L104.833607,26.9001839 C105.520927,26.8994164 106.077917,26.3452805 106.078689,25.6614831 L106.078689,9.91228742 C106.077918,9.22848962 105.520927,8.67435316 104.833607,8.67358664 L90.2483607,8.67358664 Z" id="Shape" fill="#3F3D56"></path>
                <path d="M103.890173,13.7704918 L97.2163842,13.7704918 C96.9204624,13.7701353 96.6806509,13.5054744 96.6803279,13.1788888 L96.6803279,12.9276686 C96.6806519,12.6010835 96.9204628,12.3364231 97.2163842,12.3360656 L103.890173,12.3360656 C104.186095,12.3364231 104.425906,12.6010835 104.42623,12.9276686 L104.42623,13.1788888 C104.425906,13.5054744 104.186095,13.7701353 103.890173,13.7704918 Z" id="Path" fill="#CCCCCC"></path>
                <path d="M103.889386,18.0737705 L91.4794665,18.0737705 C91.1831101,18.073414 90.9429464,17.808753 90.942623,17.4821675 L90.942623,17.2309472 C90.9429474,16.9043622 91.1831105,16.6397018 91.4794665,16.6393443 L103.889386,16.6393443 C104.185742,16.6397018 104.425905,16.9043622 104.42623,17.2309472 L104.42623,17.4821675 C104.425906,17.808753 104.185742,18.073414 103.889386,18.0737705 Z" id="Path" fill="#CCCCCC"></path>
                <path d="M103.889386,20.942623 L91.4794665,20.942623 C91.1831101,20.9422665 90.9429464,20.6776055 90.942623,20.35102 L90.942623,20.0997997 C90.9429474,19.7732146 91.1831105,19.5085543 91.4794665,19.5081967 L103.889386,19.5081967 C104.185742,19.5085543 104.425905,19.7732146 104.42623,20.0997997 L104.42623,20.35102 C104.425906,20.6776055 104.185742,20.9422665 103.889386,20.942623 Z" id="Path" fill="#CCCCCC"></path>
                <path d="M103.889386,24.0983607 L91.4794665,24.0983607 C91.1831101,24.0980042 90.9429464,23.8333432 90.942623,23.5067577 L90.942623,23.2555374 C90.9429474,22.9289523 91.1831105,22.664292 91.4794665,22.6639344 L103.889386,22.6639344 C104.185742,22.664292 104.425905,22.9289523 104.42623,23.2555374 L104.42623,23.5067577 C104.425906,23.8333432 104.185742,24.0980042 103.889386,24.0983607 Z" id="Path" fill="#CCCCCC"></path>
                <path d="M50.5295155,18.3606557 L43.8557286,18.3606557 C43.5598067,18.3602993 43.3199951,18.0956383 43.3196721,17.7690528 L43.3196721,17.5178325 C43.3199951,17.191247 43.5598067,16.926586 43.8557286,16.9262295 L50.5295173,16.9262295 C50.8254392,16.926586 51.0652508,17.191247 51.0655738,17.5178325 L51.0655738,17.7690528 C51.0652508,18.0956391 50.8254381,18.3603003 50.5295155,18.3606557 Z" id="Path" fill="#CCCCCC"></path>
                <path d="M39.9023626,23.8114754 L38.4173095,23.8114754 C37.9561748,23.8109639 37.5824787,23.4372679 37.5819672,22.9761331 L37.5819672,21.49108 C37.5824787,21.0299453 37.9561748,20.6562492 38.4173095,20.6557377 L39.9023626,20.6557377 C40.3634974,20.6562492 40.7371934,21.0299453 40.7377049,21.49108 L40.7377049,22.9761331 C40.7371934,23.4372679 40.3634974,23.8109639 39.9023626,23.8114754 Z" id="Path" fill="#CCCCCC"></path>
                <path d="M50.5295155,22.9508197 L43.8557286,22.9508197 C43.5598067,22.9504632 43.3199951,22.6858022 43.3196721,22.3592167 L43.3196721,22.1079964 C43.3199951,21.7814109 43.5598067,21.5167499 43.8557286,21.5163934 L50.5295173,21.5163934 C50.8254392,21.5167499 51.0652508,21.7814109 51.0655738,22.1079964 L51.0655738,22.3592167 C51.0652508,22.685803 50.8254381,22.9504643 50.5295155,22.9508197 L50.5295155,22.9508197 Z" id="Path" fill="#CCCCCC"></path>
                <path d="M94.3845918,12.9098361 C94.3845918,12.9054571 94.3852459,12.9012281 94.3852459,12.8968377 C94.3852459,12.4437632 94.2039013,12.0092439 93.8810916,11.6888718 C93.5582819,11.3684997 93.1204563,11.1885246 92.6639344,11.1885246 L92.6639344,12.9098361 L94.3845918,12.9098361 Z" id="Path" fill="#FF9E2D"></path>
                <path d="M92.5210686,13.0652844 L92.5210686,11.4754098 C91.6511136,11.4751045 90.9450392,12.1789681 90.942623,13.0489072 C90.940219,13.9188462 91.6423826,14.6266111 92.512326,14.6311475 C93.3822693,14.6356406 94.0917412,13.9352016 94.0983607,13.0652844 L92.5210686,13.0652844 Z" id="Path" fill="#CCCCCC"></path>
            </g>
        </g>
    </g>
</svg>