<?xml version="1.0" encoding="UTF-8"?>
<svg width="140px" height="104px" viewBox="0 0 140 104" version="1.1" xmlns="http://www.w3.org/2000/svg" xmlns:xlink="http://www.w3.org/1999/xlink">
    <title>Collect Sustaining Gifts with Recurring Donations</title>
    <g id="Getting-Started-Page---End-User" stroke="none" stroke-width="1" fill="none" fill-rule="evenodd">
        <g id="Getting-Started-Tab---End-User-Dec-2020" transform="translate(-186.000000, -2368.000000)">
            <g id="Collect-Sustaining-Gifts-with-Recurring-Donations" transform="translate(186.000000, 2368.000000)">
                <path d="M100.699789,61.6633684 L101.800632,60.984 C101.905263,60.9176842 102.008421,60.8469474 102.114526,60.7806316 C97.2504226,59.9441325 93.6227626,55.8371163 93.3932632,50.9069474 C93.3123624,49.2610981 93.6234959,47.6195661 94.3010526,46.1174737 C95.5781819,43.2724309 98.0504419,41.1396277 101.052,40.2934737 L100.997474,44.6261053 L103.377474,39.9103158 C103.387238,39.9087712 103.397184,39.9087712 103.406947,39.9103158 C106.192332,39.7802597 108.915291,40.7620717 110.976753,42.6397458 C113.038215,44.5174198 114.269299,47.1371321 114.399158,49.9225263 C114.408,50.1229474 114.399158,50.3204211 114.399158,50.512 C115.227368,49.5673684 115.978947,48.5549474 116.477053,47.4452632 C117.485053,45.1978947 117.508632,42.6528421 117.424632,39.5595789 C117.265474,33.4290526 117.001684,27.2528421 116.656842,21.0943158 C111.523365,20.5241977 107.565491,16.3076722 107.321053,11.1484211 C107.306316,10.8256842 107.310737,10.5088421 107.321053,10.1934737 C107.321053,10.1153684 107.321053,10.0357895 107.332842,9.95768421 C107.353474,9.65263158 107.381474,9.35052632 107.428632,9.05284211 C107.428632,9.00273684 107.446316,8.95557895 107.455158,8.90547368 C107.498386,8.65298246 107.549965,8.4034386 107.609895,8.15684211 C107.633474,8.06547368 107.655579,7.97263158 107.680632,7.88126316 C107.754316,7.61305263 107.828,7.34926316 107.929684,7.08842105 C107.960632,7.00147368 107.997474,6.91747368 108.029895,6.832 C108.105053,6.64042105 108.186105,6.45178947 108.271579,6.26463158 C108.317263,6.16589474 108.361474,6.06863158 108.410105,5.96989474 C108.421895,5.94484211 108.432211,5.91978947 108.445474,5.89473684 L108.445474,5.89473684 C110.735017,1.37245477 115.927055,-0.870237703 120.789053,0.562947368 L120.718316,6.20126316 L123.076211,1.54442105 C127.045939,3.81668694 129.076208,8.40688595 128.086737,12.8726316 L128.098526,12.8726316 C128.082316,12.9477895 128.058737,13.02 128.041053,13.0936842 C128.008632,13.2322105 127.973263,13.3692632 127.934947,13.5063158 C127.884842,13.6816842 127.828842,13.8541053 127.771368,14.0265263 C127.727158,14.1547368 127.684421,14.2858947 127.635789,14.4126316 C127.565053,14.5983158 127.488421,14.7795789 127.402947,14.9608421 C127.355789,15.0669474 127.313053,15.1745263 127.255579,15.2791579 C127.120982,15.5503158 126.973614,15.8155789 126.813474,16.0749474 C126.758947,16.1648421 126.697053,16.2503158 126.639579,16.3402105 C126.527579,16.5141053 126.414105,16.6865263 126.291789,16.8545263 C126.216632,16.9576842 126.135579,17.0564211 126.056,17.1581053 C125.941053,17.3054737 125.823158,17.4528421 125.700842,17.5869474 C125.613895,17.6856842 125.525474,17.7829474 125.434105,17.8816842 C125.305895,18.0172632 125.173263,18.1484211 125.036211,18.2781053 C124.946316,18.3650526 124.854947,18.452 124.760632,18.5345263 C124.605895,18.6715789 124.443789,18.8027368 124.280211,18.9309474 C124.197684,18.9957895 124.118105,19.0635789 124.032632,19.1254737 C123.78407,19.3101754 123.527158,19.4835789 123.261895,19.6456842 C123.211789,19.6751579 123.158737,19.7002105 123.114526,19.7296842 C122.893474,19.8608421 122.672421,19.9831579 122.435158,20.0981053 C122.336421,20.1467368 122.233263,20.1894737 122.131579,20.2351579 C121.941474,20.3206316 121.749895,20.4031579 121.553895,20.4783158 C121.440421,20.5210526 121.324,20.5608421 121.207579,20.6006316 C121.014526,20.6669474 120.818526,20.7273684 120.618105,20.7818947 C120.500211,20.8143158 120.383789,20.8467368 120.264421,20.8747368 C120.049263,20.9263158 119.829684,20.9690526 119.608632,21.0058947 C119.593895,21.0058947 119.580632,21.0058947 119.565895,21.0147368 C119.711298,23.6123509 119.840491,26.2114386 119.953474,28.812 C121.220337,26.2112919 123.503389,24.2479432 126.264465,23.3847585 C129.02554,22.5215738 132.020349,22.8349247 134.542947,24.2509474 L132.684632,29.3425263 L136.507368,25.6715789 C138.553697,27.5472148 139.772632,30.1578546 139.896842,32.9309474 C139.945472,33.9039707 139.855663,34.8789694 139.630105,35.8267368 C138.647454,40.0235684 135.201662,43.194798 130.93785,43.8263896 C126.674038,44.4579811 122.456888,42.4218506 120.299789,38.6901053 C120.299789,38.9538947 120.318947,39.2191579 120.326316,39.4829474 C120.395579,42.2122105 120.482526,45.6075789 119.122316,48.6404211 C118.201263,50.6962105 116.717263,52.3658947 115.250947,53.8616842 C114.297474,54.8357895 113.308632,55.7774737 112.294737,56.6896842 C111.297841,58.0283144 109.996558,59.1103595 108.498526,59.8463158 C106.833263,61.1294035 105.109053,62.3309474 103.325895,63.4509474 L102.242737,64.1494737 C101.242105,64.7698947 100.216421,65.4065263 99.2098947,66.0652632 C99.3867368,66.0475789 99.5621053,66.0284211 99.7418947,66.0210526 C104.313457,65.8068563 108.498799,68.5734486 110.093053,72.8633684 L103.523368,78.2113684 L110.744421,76.5357895 C110.740411,80.1494976 108.881483,83.508104 105.821441,85.4303538 C102.761399,87.3526036 98.9287892,87.5692931 95.6715789,86.0042105 C95.8336842,86.2075789 95.9972632,86.4094737 96.1593684,86.6113684 C96.4821053,87.0136842 96.8033684,87.4130526 97.1172632,87.8094737 C101.390947,93.2223158 102.581684,98.3625263 100.464,102.281053 L97.8909474,100.889895 C99.9541053,97.076 96.8593684,92.1951579 94.8212632,89.6221053 C94.5132632,89.2330526 94.1978947,88.8410526 93.8795789,88.4431579 C91.1488421,85.0536842 88.0541053,81.2044211 88.1322105,76.4871579 C88.2427368,69.384 95.1528421,65.1 100.699789,61.6633684 Z" id="Path" fill="#F2F2F2" fill-rule="nonzero"></path>
                <ellipse id="Oval" fill="#3F3D56" fill-rule="nonzero" cx="67.1263158" cy="100.748421" rx="67.1263158" ry="3.09473684"></ellipse>
                <path d="M121.356421,99.5945263 C121.798526,98.7825263 121.297474,97.7877895 120.725684,97.0627368 C120.153895,96.3376842 119.456842,95.5890526 119.471579,94.6621053 C119.492211,93.3357895 120.899579,92.5532632 122.025474,91.8503158 C122.859236,91.3281315 123.628422,90.7093207 124.317053,90.0067368 C124.606082,89.7363963 124.845056,89.4170993 125.022947,89.0635789 C125.254316,88.5448421 125.248421,87.9553684 125.233684,87.3865263 C125.184561,85.4943158 125.091228,83.6040702 124.953684,81.7157895" id="Path" stroke="#3F3D56" stroke-width="4"></path>
                <path d="M127.092,81.6155789 C127.058529,80.9120548 126.669971,80.2737091 126.060421,79.9208421 L125.597684,80.8374737 L125.610947,79.7292632 C124.968683,79.5368399 124.272967,79.6685102 123.745438,80.0823271 C123.217909,80.496144 122.924363,81.1404949 122.958316,81.8101053 C122.993065,82.5472006 123.418409,83.2097665 124.074127,83.5482208 C124.729845,83.8866752 125.516316,83.8495987 126.137285,83.4509577 C126.758254,83.0523167 127.11938,82.3526743 127.084632,81.6155789 L127.092,81.6155789 Z" id="Path" fill="#57B793" fill-rule="nonzero"></path>
                <path d="M123.403368,95.6155789 C122.957023,96.4826117 121.964574,96.9187265 121.024033,96.6611373 C120.083492,96.4035481 119.451749,95.52261 119.509467,94.5491429 C119.567186,93.5756758 120.298603,92.7755623 121.262993,92.6309203 C122.227383,92.4862783 123.161343,93.0366139 123.502105,93.9503158 L122.211158,95.0010526 L123.63179,94.6709474 C123.631955,94.9995212 123.553642,95.3233829 123.403368,95.6155789 L123.403368,95.6155789 Z" id="Path" fill="#57B793" fill-rule="nonzero"></path>
                <path d="M122.382105,91.5938947 C121.834032,91.62029 121.29802,91.4272732 120.892597,91.0575252 C120.487174,90.6877772 120.245741,90.1717602 120.221684,89.6235789 C120.205253,89.2999609 120.266389,88.9771011 120.4,88.6818947 C120.650676,88.1222933 121.13634,87.7024636 121.726316,87.5353684 L121.716,88.3886316 L122.184632,87.4602105 L122.184632,87.4602105 C123.326117,87.4069006 124.29469,88.289041 124.348,89.4305263 C124.40131,90.5720116 123.51917,91.5405847 122.377684,91.5938947 L122.382105,91.5938947 Z" id="Path" fill="#57B793" fill-rule="nonzero"></path>
                <path d="M127.402947,88.2471579 C126.263497,88.3008749 125.296243,87.4207138 125.242526,86.2812632 C125.188809,85.1418125 126.06897,84.1745591 127.208421,84.1208421 C127.595193,84.1017726 127.979449,84.1927267 128.316632,84.3831579 L127.951158,85.3852632 L128.702737,84.6631579 C129.106047,85.0317851 129.346661,85.5453433 129.371789,86.0911579 C129.381178,86.2823285 129.363315,86.4738625 129.318737,86.66 C129.106814,87.5578756 128.324572,88.2059326 127.402947,88.2471579 L127.402947,88.2471579 Z" id="Path" fill="#57B793" fill-rule="nonzero"></path>
                <path d="M126.813474,82.1608421 C126.336,82.2138947 125.871789,82.3627368 125.392842,82.3922105 C124.913895,82.4216842 124.387789,82.3067368 124.084211,81.9338947 C123.920632,81.7334737 123.839579,81.48 123.701053,81.2618947 C123.570572,81.0580841 123.391908,80.8895426 123.180842,80.7711579 C122.840389,81.4828193 122.935568,82.3263229 123.426046,82.9442238 C123.916524,83.5621247 124.716423,83.8462352 125.486777,83.67616 C126.25713,83.5060848 126.863057,82.9116023 127.047789,82.1446316 C126.968211,82.1475789 126.890105,82.1534737 126.813474,82.1608421 Z" id="Path" fill="#000000" fill-rule="nonzero" opacity="0.1"></path>
                <path d="M127.402947,88.2471579 C126.677305,88.2839765 125.985788,87.9363899 125.582408,87.3320745 C125.179027,86.7277592 125.123256,85.9558131 125.435579,85.2997895 C125.599756,85.4106431 125.740886,85.5522735 125.851158,85.7168421 C125.998526,85.9393684 126.086947,86.1957895 126.260842,86.4006316 C126.582105,86.7793684 127.133263,86.9031579 127.632842,86.8795789 C128.132421,86.856 128.612842,86.716 129.106526,86.6703158 C129.174316,86.6703158 129.245053,86.6585263 129.314316,86.6570526 C129.103978,87.554576 128.323761,88.203654 127.402947,88.2471579 L127.402947,88.2471579 Z" id="Path" fill="#000000" fill-rule="nonzero" opacity="0.1"></path>
                <path d="M122.382105,91.5938947 C121.834032,91.62029 121.29802,91.4272732 120.892597,91.0575252 C120.487174,90.6877772 120.245741,90.1717602 120.221684,89.6235789 C120.205253,89.2999609 120.266389,88.9771011 120.4,88.6818947 C120.57151,88.7940632 120.721295,88.9363583 120.842105,89.1018947 C121.002737,89.3288421 121.102947,89.5896842 121.284211,89.7989474 C121.633474,90.188 122.22,90.3250526 122.749053,90.3117895 C123.278105,90.2985263 123.754105,90.1747368 124.264,90.1364211 C124.006173,90.9700407 123.253717,91.5527964 122.382105,91.5938947 Z" id="Path" fill="#000000" fill-rule="nonzero" opacity="0.1"></path>
                <path d="M123.403368,95.6155789 C122.93538,96.6569554 121.711798,97.121778 120.670421,96.6537894 C119.629045,96.1858007 119.164222,94.9622186 119.632211,93.9208421 C119.801992,94.0336819 119.954827,94.1701414 120.086105,94.3261053 C120.282105,94.5663158 120.411789,94.8374737 120.640211,95.0629474 C121.063158,95.4770526 121.745474,95.6524211 122.352632,95.6642105 C122.703531,95.6688134 123.054394,95.6525743 123.403368,95.6155789 L123.403368,95.6155789 Z" id="Path" fill="#000000" fill-rule="nonzero" opacity="0.1"></path>
                <path d="M118.238105,98.6587368 C118.238105,98.6587368 119.869474,98.6086316 120.361684,98.2578947 C120.853895,97.9071579 122.866947,97.4886316 122.995158,98.0515789 C123.123368,98.6145263 125.448842,100.851579 123.605263,100.860421 C121.761684,100.869263 119.322737,100.565684 118.832,100.270947 C118.341263,99.9762105 118.238105,98.6587368 118.238105,98.6587368 Z" id="Path" fill="#656380" fill-rule="nonzero"></path>
                <path d="M123.637684,100.664421 C121.795579,100.679158 119.355158,100.369684 118.864421,100.074947 C118.491579,99.848 118.341263,99.0301053 118.292632,98.6528421 L118.238105,98.6528421 C118.238105,98.6528421 118.341263,99.9688421 118.827579,100.273895 C119.313895,100.578947 121.757263,100.875158 123.600842,100.863368 C124.132842,100.863368 124.317053,100.668842 124.306737,100.388842 C124.237474,100.555368 124.034105,100.661474 123.637684,100.664421 Z" id="Path" fill="#000000" fill-rule="nonzero" opacity="0.2"></path>
                <path d="M28.6498947,95.0482105 C27.58,93.0675789 28.7972632,90.6418947 30.1884211,88.8764211 C31.5795789,87.1109474 33.2831579,85.2747368 33.2463158,83.0244211 C33.1932632,79.7911579 29.7625263,77.8827368 27.0214737,76.1688421 C24.9874871,74.8968788 23.1112064,73.3886321 21.4317895,71.6755789 C20.7583158,70.9873684 20.1054737,70.2534737 19.7134737,69.3751579 C19.1475789,68.1107368 19.1623158,66.6738947 19.1991579,65.2886316 C19.3170526,60.6710877 19.5449825,56.062386 19.8829474,51.4625263" id="Path" stroke="#3F3D56" stroke-width="4"></path>
                <path d="M14.6705263,51.2105263 C14.7525396,49.4963278 15.7009336,47.9415835 17.1875789,47.0842105 L18.3164211,49.3168421 L18.2825263,46.6141053 C20.3867829,45.994048 22.6505052,46.8054566 23.8817168,48.621079 C25.1129284,50.4367014 25.029161,52.839992 23.6745228,54.5654838 C22.3198846,56.2909757 20.0051608,56.9428011 17.949183,56.1777377 C15.8932052,55.4126742 14.5676622,53.4062451 14.6705263,51.2149474 L14.6705263,51.2105263 Z" id="Path" fill="#57B793" fill-rule="nonzero"></path>
                <path d="M23.6629474,85.3351579 C24.7053395,87.3666403 26.9832295,88.4435642 29.2147214,87.9598843 C31.4462132,87.4762043 33.0737696,85.5527679 33.1814737,83.272 C33.2166754,82.574669 33.1047043,81.8777368 32.8528421,81.2265263 C32.0989944,79.270878 30.214104,77.9853699 28.1182271,77.9974018 C26.0223503,78.0096035 24.152449,79.316819 23.4212632,81.2810526 L26.5705263,83.8423158 L23.1058867,83.0362105 C23.1044594,83.8361185 23.2955213,84.6246279 23.6629474,85.3351579 Z" id="Path" fill="#57B793" fill-rule="nonzero"></path>
                <path d="M26.152,75.5469474 C28.7114183,75.6639769 30.9518141,73.8432729 31.3606709,71.3140133 C31.7695276,68.7847537 30.216884,66.350902 27.7509474,65.6555789 L27.7774737,67.732 L26.6427368,65.4728421 L26.6294737,65.4728421 C23.8471794,65.3430261 21.4864476,67.4932846 21.3566316,70.2755789 C21.2268156,73.0578732 23.3770741,75.4186051 26.1593684,75.5484211 L26.152,75.5469474 Z" id="Path" fill="#57B793" fill-rule="nonzero"></path>
                <path d="M13.9115789,67.4018947 C16.0523691,67.5061941 18.0252012,66.2459071 18.8304696,64.259603 C19.6357379,62.2732989 19.0974882,59.9949932 17.4884438,58.5790705 C15.8793993,57.1631479 13.5511429,56.918993 11.6833684,57.9703158 L12.5675789,60.4122105 L10.7416842,58.6482105 C9.75588932,59.5452825 9.16737149,60.797606 9.10589474,62.1290526 C9.08249109,62.59553 9.12566163,63.0629628 9.23410526,63.5172632 C9.74913693,65.7124378 11.6591577,67.2987059 13.9115789,67.4018947 L13.9115789,67.4018947 Z" id="Path" fill="#57B793" fill-rule="nonzero"></path>
                <path d="M15.3484211,52.5545263 C16.5126316,52.6827368 17.6444211,53.0437895 18.8115789,53.116 C19.9787368,53.1882105 21.2623158,52.9096842 22.0006316,52.0018947 C22.3985263,51.5126316 22.5974737,50.8936842 22.9334737,50.3602105 C23.251846,49.86314 23.6882493,49.4525563 24.2037895,49.1650526 C25.080104,50.9094407 24.8709441,53.0029018 23.6668294,54.539432 C22.4627148,56.0759622 20.4799595,56.7795305 18.5766563,56.3456481 C16.6733531,55.9117658 15.1914221,54.4183777 14.7722105,52.5117895 C14.9682105,52.5206316 15.1597895,52.5338947 15.3484211,52.5545263 Z" id="Path" fill="#000000" fill-rule="nonzero" opacity="0.1"></path>
                <path d="M13.9115789,67.4018947 C15.6789984,67.4833855 17.3599831,66.6332183 18.3417605,65.1613062 C19.323538,63.6893941 19.4626634,61.8107941 18.7084211,60.2103158 C18.3080644,60.4795277 17.9637382,60.8238538 17.6945263,61.2242105 C17.3349474,61.7665263 17.1183158,62.3928421 16.6953684,62.8909474 C15.9098947,63.8134737 14.5688421,64.1155789 13.3515789,64.0610526 C12.1343158,64.0065263 10.9597895,63.6587368 9.74842105,63.5482105 C9.58042105,63.5334737 9.40947368,63.5216842 9.24,63.5172632 C9.75442684,65.7104156 11.6613859,67.2961394 13.9115789,67.4018947 L13.9115789,67.4018947 Z" id="Path" fill="#000000" fill-rule="nonzero" opacity="0.1"></path>
                <path d="M26.152,75.5469474 C27.9016599,75.6291141 29.5685726,74.7972368 30.5548312,73.3497026 C31.5410897,71.9021683 31.7053266,70.0464625 30.9886316,68.4482105 C30.5734037,68.7240519 30.2122744,69.073693 29.9231579,69.4797895 C29.5311579,70.0324211 29.2865263,70.6690526 28.8282105,71.1789474 C27.9778947,72.1265263 26.5484211,72.4610526 25.2589474,72.4301053 C24.0107368,72.4035789 22.8082105,72.0970526 21.5673684,72.0012632 C22.1967298,74.0304756 24.0297309,75.4480907 26.152,75.5469474 Z" id="Path" fill="#000000" fill-rule="nonzero" opacity="0.1"></path>
                <path d="M23.6629474,85.3351579 C24.7053395,87.3666403 26.9832295,88.4435642 29.2147214,87.9598843 C31.4462132,87.4762043 33.0737696,85.5527679 33.1814737,83.272 C33.2166754,82.574669 33.1047043,81.8777368 32.8528421,81.2265263 C32.43796,81.4990391 32.0655327,81.8312442 31.7475789,82.2124211 C31.2686316,82.8018947 30.9517895,83.4591579 30.3976842,84.0044211 C29.3661053,85.0153684 27.7023158,85.4338947 26.2212632,85.4781053 C25.3664157,85.4810541 24.5121451,85.4333213 23.6629474,85.3351579 Z" id="Path" fill="#000000" fill-rule="nonzero" opacity="0.1"></path>
                <polygon id="Path" fill="#FF9E2D" fill-rule="nonzero" points="63.5482105 97.9926316 44.0955789 101.971579 43.6534737 101.927368 26.5587368 100.203158 26.5587368 78.54 47.4850526 75.0031579 62.664 76.7715789 62.6684211 76.8673684 62.6698947 76.9145263"></polygon>
                <polygon id="Path" fill="#000000" fill-rule="nonzero" opacity="0.1" points="63.5482105 97.9926316 44.0955789 101.971579 43.6534737 101.927368 43.6534737 79.7189474 62.6684211 76.8673684"></polygon>
                <polygon id="Path" fill="#000000" fill-rule="nonzero" opacity="0.05" points="62.6698947 76.9145263 62.664 76.9189474 43.6534737 79.7189474 26.5587368 78.54 47.4850526 75.0031579 62.664 76.7715789 62.6684211 76.8673684"></polygon>
                <polygon id="Path" fill="#3F3D56" fill-rule="nonzero" points="84.9166316 98.8768421 65.464 102.855789 65.0218947 102.811579 47.9271579 101.087368 47.9271579 79.4242105 68.8534737 75.8873684 84.0324211 77.6557895 84.0368421 77.7515789 84.0383158 77.7987368"></polygon>
                <polygon id="Path" fill="#000000" fill-rule="nonzero" opacity="0.1" points="84.9166316 98.8768421 65.464 102.855789 65.0218947 102.811579 65.0218947 80.6031579 84.0368421 77.7515789"></polygon>
                <polygon id="Path" fill="#000000" fill-rule="nonzero" opacity="0.05" points="84.0383158 77.7987368 84.0324211 77.8031579 65.0218947 80.6031579 47.9271579 79.4242105 68.8534737 75.8873684 84.0324211 77.6557895 84.0368421 77.7515789"></polygon>
                <polygon id="Path" fill="#3F3D56" fill-rule="nonzero" points="71.5061053 77.6557895 52.0534737 81.6347368 51.6113684 81.5905263 34.5166316 79.8663158 34.5166316 58.2031579 55.4429474 54.6663158 70.6218947 56.4347368 70.6263158 56.5305263 70.6277895 56.5776842"></polygon>
                <polygon id="Path" fill="#000000" fill-rule="nonzero" opacity="0.1" points="71.5061053 77.6557895 52.0534737 81.6347368 51.6113684 81.5905263 51.6113684 59.3821053 70.6263158 56.5305263"></polygon>
                <polygon id="Path" fill="#000000" fill-rule="nonzero" opacity="0.05" points="70.6277895 56.5776842 70.6218947 56.5821053 51.6113684 59.3821053 34.5166316 58.2031579 55.4429474 54.6663158 70.6218947 56.4347368 70.6263158 56.5305263"></polygon>
                <polygon id="Path" fill="#3F3D56" fill-rule="nonzero" points="82.5587368 78.5635789 72.4065263 80.6414737 72.1751579 80.6178947 63.2534737 79.7174737 63.2534737 68.4113684 74.1749474 66.5648421 82.0974737 67.4888421 82.1004211 67.5389474 82.1004211 67.5625263"></polygon>
                <polygon id="Path" fill="#000000" fill-rule="nonzero" opacity="0.1" points="82.5587368 78.5635789 72.4065263 80.6414737 72.1751579 80.6178947 72.1751579 69.0273684 82.1004211 67.5389474"></polygon>
                <polygon id="Path" fill="#000000" fill-rule="nonzero" opacity="0.05" points="82.1004211 67.5625263 82.0974737 67.5654737 72.1751579 69.0273684 63.2534737 68.4113684 74.1749474 66.5648421 82.0974737 67.4888421 82.1004211 67.5389474"></polygon>
                <polygon id="Path" fill="#3F3D56" fill-rule="nonzero" points="55.2955789 56.6056842 45.1433684 58.6821053 44.912 58.66 35.9903158 57.7595789 35.9903158 46.4534737 46.9117895 44.6069474 54.8343158 45.5309474 54.8372632 45.5810526 54.8372632 45.6046316"></polygon>
                <polygon id="Path" fill="#000000" fill-rule="nonzero" opacity="0.1" points="55.2955789 56.6056842 45.1433684 58.6821053 44.912 58.66 44.912 47.0694737 54.8372632 45.5810526"></polygon>
                <polygon id="Path" fill="#000000" fill-rule="nonzero" opacity="0.05" points="54.8372632 45.6046316 54.8343158 45.6075789 44.912 47.0694737 35.9903158 46.4534737 46.9117895 44.6069474 54.8343158 45.5309474 54.8372632 45.5810526"></polygon>
                <polygon id="Path" fill="#FF9E2D" fill-rule="nonzero" points="73.1271579 56.1635789 62.9749474 58.24 62.7435789 58.2178947 53.8218947 57.3174737 53.8218947 46.0113684 64.7433684 44.1648421 72.6658947 45.0888421 72.6688421 45.1389474 72.6688421 45.1625263"></polygon>
                <polygon id="Path" fill="#000000" fill-rule="nonzero" opacity="0.1" points="73.1271579 56.1635789 62.9749474 58.24 62.7435789 58.2178947 62.7435789 46.6273684 72.6688421 45.1389474"></polygon>
                <polygon id="Path" fill="#000000" fill-rule="nonzero" opacity="0.05" points="72.6688421 45.1625263 72.6658947 45.1654737 62.7435789 46.6273684 53.8218947 46.0113684 64.7433684 44.1648421 72.6658947 45.0888421 72.6688421 45.1389474"></polygon>
                <polygon id="Path" fill="#3F3D56" fill-rule="nonzero" points="78.4324211 44.8162105 68.2802105 46.8926316 68.0488421 46.8705263 59.1271579 45.9701053 59.1271579 34.664 70.0486316 32.8174737 77.9711579 33.7414737 77.9741053 33.7915789 77.9741053 33.8151579"></polygon>
                <polygon id="Path" fill="#000000" fill-rule="nonzero" opacity="0.1" points="78.4324211 44.8162105 68.2802105 46.8926316 68.0488421 46.8705263 68.0488421 35.28 77.9741053 33.7915789"></polygon>
                <polygon id="Path" fill="#000000" fill-rule="nonzero" opacity="0.05" points="77.9741053 33.8151579 77.9711579 33.8181053 68.0488421 35.28 59.1271579 34.664 70.0486316 32.8174737 77.9711579 33.7414737 77.9741053 33.7915789"></polygon>
                <path d="M85.3469474,21.7029474 C85.2393684,22.6608421 84.5084211,23.4330526 84.2372632,24.3555789 C83.8305263,25.7482105 84.532,27.244 85.4987368,28.3345263 C87.0724427,30.0847386 89.2811653,31.1323163 91.6322105,31.2435789 C91.9741471,31.2730063 92.3185406,31.2354634 92.6461053,31.1330526 C92.9377923,31.0143383 93.2006178,30.834431 93.4168421,30.6054737 C94.1418947,29.876 94.5324211,28.8665263 94.6871579,27.8482105 C94.8418947,26.8298947 94.7829474,25.7938947 94.7225263,24.7667368 C94.7224454,24.5541643 94.6834888,24.3433988 94.6075789,24.1448421 C94.50891,23.9560061 94.3730632,23.78908 94.2082105,23.6541053 C93.6855309,23.1737684 93.1094863,22.7549617 92.4913684,22.4058947 C92.2261053,22.2585263 91.9416842,22.1111579 91.7722105,21.8562105 C91.6559125,21.6531876 91.5803261,21.4294319 91.5496842,21.1974737 L91.3595789,20.2307368 C91.325956,19.9519985 91.2308216,19.6842128 91.0810526,19.4467368 C90.7465263,18.9957895 90.1054737,18.9338947 89.544,18.9117895 L87.4808421,18.8307368 C86.8397895,18.8056842 85.9968421,18.6214737 85.3705263,18.7482105 C84.7810526,18.8646316 84.98,19.404 85.0861053,19.8932632 C85.2395993,20.4850109 85.32708,21.0919391 85.3469474,21.7029474 L85.3469474,21.7029474 Z" id="Path" fill="#FFC0C6" fill-rule="nonzero"></path>
                <path d="M85.3469474,21.7029474 C85.2393684,22.6608421 84.5084211,23.4330526 84.2372632,24.3555789 C83.8305263,25.7482105 84.532,27.244 85.4987368,28.3345263 C87.0724427,30.0847386 89.2811653,31.1323163 91.6322105,31.2435789 C91.9741471,31.2730063 92.3185406,31.2354634 92.6461053,31.1330526 C92.9377923,31.0143383 93.2006178,30.834431 93.4168421,30.6054737 C94.1418947,29.876 94.5324211,28.8665263 94.6871579,27.8482105 C94.8418947,26.8298947 94.7829474,25.7938947 94.7225263,24.7667368 C94.7224454,24.5541643 94.6834888,24.3433988 94.6075789,24.1448421 C94.50891,23.9560061 94.3730632,23.78908 94.2082105,23.6541053 C93.6855309,23.1737684 93.1094863,22.7549617 92.4913684,22.4058947 C92.2261053,22.2585263 91.9416842,22.1111579 91.7722105,21.8562105 C91.6559125,21.6531876 91.5803261,21.4294319 91.5496842,21.1974737 L91.3595789,20.2307368 C91.325956,19.9519985 91.2308216,19.6842128 91.0810526,19.4467368 C90.7465263,18.9957895 90.1054737,18.9338947 89.544,18.9117895 L87.4808421,18.8307368 C86.8397895,18.8056842 85.9968421,18.6214737 85.3705263,18.7482105 C84.7810526,18.8646316 84.98,19.404 85.0861053,19.8932632 C85.2395993,20.4850109 85.32708,21.0919391 85.3469474,21.7029474 L85.3469474,21.7029474 Z" id="Path" fill="#000000" fill-rule="nonzero" opacity="0.1"></path>
                <path d="M98.4494737,64.8465263 L97.5741053,74.4431579 C97.3456842,76.9602105 97.1128421,79.4875789 96.6648421,81.9722105 C96.5174737,82.8284211 96.3288421,83.6802105 96.1136842,84.5246316 C95.5153684,86.8692632 94.6473684,89.1608421 94.3673684,91.5644211 C94.3585263,91.6336842 94.3511579,91.7117895 94.3437895,91.7751579 C94.2863158,92.3056842 94.2362105,92.8421053 94.0490526,93.3372632 C93.9016842,93.7042105 93.6938947,94.0387368 93.5421053,94.4012632 C93.2473684,95.1263158 93.2002105,95.928 93.1633684,96.7134737 C92.1010754,96.1137867 90.9377292,95.714183 89.7311579,95.5345263 C89.1416842,95.4475789 88.5006316,95.3871579 88.1101053,94.9450526 C87.668,94.4646316 87.7195789,93.7292632 87.7932632,93.0837895 C88.0251228,91.0795789 88.256,89.0763509 88.4858947,87.0741053 C88.5625312,86.2125501 88.7104052,85.3588239 88.928,84.5216842 C89.0075789,84.2431579 89.1033684,83.9690526 89.2006316,83.6949474 C89.3347368,83.3176842 89.4703158,82.9404211 89.572,82.5528421 C89.7130309,81.9301331 89.8105299,81.2983596 89.8637895,80.6621053 C90.1010526,78.6461053 90.3869474,76.6345263 90.6374737,74.62 L90.6507368,74.5138947 C91.0265263,71.4604211 91.3124211,68.3922105 91.2298947,65.3166316 C91.2181053,64.8612632 91.1989474,64.4058947 91.1694737,63.9490526 C91.1282105,63.2873684 91.0677895,62.9366316 91.6115789,62.5225263 C92.2172632,62.0656842 93.0145263,61.7458947 93.7071579,61.4467368 C94.08,61.2846316 98.1856842,59.8256842 98.2755789,60.1469474 C98.4661804,60.8293417 98.5652928,61.5340309 98.5703158,62.2425263 C98.5786258,63.1121006 98.5382821,63.9814589 98.4494737,64.8465263 L98.4494737,64.8465263 Z" id="Path" fill="#605D82" fill-rule="nonzero"></path>
                <path d="M96.6648421,81.9722105 C96.5174737,82.8284211 96.3288421,83.6802105 96.1136842,84.5246316 C95.5153684,86.8692632 94.6473684,89.1608421 94.3673684,91.5644211 C94.3585263,91.6336842 94.3511579,91.7117895 94.3437895,91.7751579 C92.5134737,89.1608421 90.972,86.3490526 89.1858947,83.7067368 C89.32,83.3294737 89.4555789,82.9522105 89.5572632,82.5646316 C89.7037948,81.9384029 89.8062216,81.3026674 89.8637895,80.6621053 C90.1010526,78.6461053 90.3869474,76.6345263 90.6374737,74.62 L90.6507368,74.5138947 C90.7541469,74.9414046 90.9023342,75.3568227 91.0928421,75.7532632 C92.2924211,78.1907368 95.1425263,79.4227368 96.5366316,81.7555789 C96.582807,81.8282807 96.6255439,81.9004912 96.6648421,81.9722105 Z" id="Path" fill="#000000" fill-rule="nonzero" opacity="0.1"></path>
                <path d="M81.8130526,60.5418947 C81.8734737,62.496 82.1858947,64.4338947 82.4983158,66.3644211 L83.1423158,70.3433684 C83.4945263,72.5244211 83.8629474,74.7482105 84.8945263,76.7008421 C85.6667368,78.1627368 86.7778947,79.4094737 87.7844211,80.7195789 C90.2572632,83.9410526 92.1155789,87.5913684 94.4602105,90.9071579 C95.1425263,91.8709474 96.1166316,92.9143158 97.2793684,92.7124211 C98.0427368,92.5812632 98.5968421,91.9446316 99.1951579,91.4553684 C99.9025263,90.8776842 100.754316,90.4547368 101.311368,89.7296842 C101.868421,89.0046316 101.977474,87.8021053 101.222947,87.2863158 C100.965053,87.1109474 100.651158,87.0446316 100.359368,86.9326316 C99.1907368,86.4905263 98.4332632,85.3469474 97.9528421,84.1915789 C97.4724211,83.0362105 97.1791579,81.7968421 96.5381053,80.7225263 C95.144,78.3896842 92.2924211,77.1576842 91.0928421,74.7187368 C90.4208421,73.3541053 90.356,71.7713684 90.3058947,70.2578947 L90.1747368,66.3806316 C90.16,65.9562105 90.1496842,65.5155789 90.3221053,65.128 C90.7804211,64.0964211 92.1656842,63.9991579 93.2886316,63.868 C94.5621203,63.7193065 95.7958134,63.3302457 96.9242105,62.7214737 C97.5711579,62.3722105 98.2018947,61.9271579 98.5452632,61.2787368 C98.8606316,60.6892632 98.9033684,59.9951579 98.9402105,59.3261053 L99.3292632,52.2981053 C99.3631579,51.6938947 99.3926316,51.0675789 99.1818947,50.5016842 C98.6469474,49.0781053 96.8490526,48.6124211 95.3296842,48.6802105 C92.5031579,48.8069474 89.8947368,50.0227368 87.2244211,50.8450526 C86.5627368,51.0484211 85.8981053,51.2311579 85.2157895,51.3682105 C84.6263158,51.4875789 83.8894737,51.4389474 83.3235789,51.6305263 C82.3096842,51.9724211 82.3347368,54.1917895 82.1917895,55.1113684 C81.8968425,56.9058157 81.7700468,58.7238779 81.8130526,60.5418947 L81.8130526,60.5418947 Z" id="Path" fill="#605D82" fill-rule="nonzero"></path>
                <path d="M96.8962105,93.0101053 C97.1452632,93.2621053 97.2263158,93.6305263 97.2911579,93.9783158 C97.6513761,95.9084624 97.8387848,97.8668826 97.8511579,99.8303158 C97.8350239,100.013502 97.8713122,100.197499 97.9557895,100.360842 C98.0264456,100.457637 98.121549,100.533923 98.2313684,100.581895 C98.952,100.925263 99.7875789,100.446316 100.388842,99.9202105 C101.501474,98.9461053 102.443158,97.6374737 102.506526,96.1593684 C102.522737,95.7791579 102.48,95.3945263 102.546316,95.0187368 C102.643579,94.4616842 102.969263,93.9768421 103.255158,93.4905263 C103.744322,92.6615925 104.139737,91.7808055 104.434105,90.8644211 C104.543158,90.5195789 104.616842,90.0863158 104.345684,89.8461053 C104.250728,89.7706414 104.142167,89.7141095 104.025895,89.6795789 L100.769053,88.4711579 C100.486105,88.3665263 99.7846316,90.1688421 99.6741053,90.3663158 C99.4014737,90.8482105 99.1303158,91.1208421 98.5835789,91.2328421 C98.0368421,91.3448421 97.3618947,91.1827368 96.8402105,91.4612632 C95.956,91.9313684 96.3966316,92.5075789 96.8962105,93.0101053 Z" id="Path" fill="#535070" fill-rule="nonzero"></path>
                <path d="M91.8738947,94.1227368 C91.8135306,94.0023847 91.7292932,93.8955838 91.6263158,93.8088421 C91.4758337,93.7130135 91.3044652,93.6548797 91.1267368,93.6393684 C90.5077895,93.5332632 89.7738947,93.464 89.3450526,93.9252632 C88.9442105,94.3570526 89.0134737,95.06 88.6789474,95.5463158 C88.5728421,95.6936842 88.4284211,95.8263158 88.3370526,95.9884211 C88.2234825,96.2365631 88.172865,96.5088852 88.1896842,96.7812632 C88.172,97.5313684 88.1543158,98.2844211 88.2073684,99.0330526 C88.2501053,99.6608421 88.3547368,100.319579 88.7482105,100.811789 C89.3789474,101.601684 90.5166316,101.715158 91.5246316,101.765263 L92.3425263,101.808 C92.567419,101.834321 92.7953316,101.813237 93.0115789,101.746105 C93.2823733,101.621578 93.4909006,101.392304 93.5892632,101.110947 C94.0151579,100.052842 93.3416842,98.9136842 92.9261053,97.8526316 C92.4471579,96.6309474 92.5326316,95.2766316 91.8738947,94.1227368 Z" id="Path" fill="#535070" fill-rule="nonzero"></path>
                <path d="M85.1111579,16.3018947 C85.1007054,16.1946254 85.1163799,16.0864201 85.1568421,15.9865263 C85.2762105,15.7757895 85.5886316,15.8391579 85.8244211,15.8922105 C86.772,16.1309474 87.7711579,15.9143158 88.7482105,15.9703158 C89.7252632,16.0263158 90.8246316,16.5141053 91.0206316,17.472 C91.729475,16.9703506 92.3403444,16.3429982 92.8229474,15.6210526 C93.0941053,15.2157895 93.3298947,14.7515789 93.2930526,14.2652632 C93.24,13.5637895 92.652,13.0391579 92.1141053,12.5941053 L90.4930526,11.2677895 C90.2795025,11.0719114 90.0330555,10.9152629 89.7650526,10.8050526 C89.3907368,10.6768421 88.9810526,10.7387368 88.5861053,10.7387368 C87.4071579,10.7387368 86.1427368,10.2008421 85.092,10.7387368 C84.6498947,10.9642105 84.3212632,11.3517895 84.0029474,11.7290526 L82.5543158,13.4444211 C82.4446614,13.5537666 82.3645473,13.6891493 82.3214737,13.8378947 C82.2802105,14.0471579 82.3877895,14.2534737 82.4261053,14.4642105 C82.4938947,14.8473684 82.3288421,15.2570526 82.4555789,15.6254737 C82.6663158,16.2355789 83.4090526,16.3225263 83.8629474,16.6732632 C84.0309474,16.8029474 84.2962105,17.2465263 84.4981053,17.2406316 C84.8532632,17.2332632 85.1008421,16.5848421 85.1111579,16.3018947 Z" id="Path" fill="#3F3D56" fill-rule="nonzero"></path>
                <circle id="Oval" fill="#FFC0C6" fill-rule="nonzero" cx="87.5692632" cy="16.7189474" r="4.64210526"></circle>
                <path d="M88.6568421,26.8770526 C88.334196,25.953869 87.4519132,25.3450284 86.4743158,25.3709474 C86.3376556,25.3970215 86.1962441,25.378958 86.0705263,25.3193684 C85.9992623,25.2649595 85.9421443,25.1941939 85.904,25.1130526 C85.6225714,24.6049972 85.3958292,24.0685221 85.2275789,23.5126316 C85.1538947,23.2665263 85.0522105,22.9762105 84.8031579,22.9128421 C84.6027368,22.8612632 84.3978947,22.9909474 84.2637895,23.1486316 C84.144923,23.3178392 84.0159885,23.4797455 83.8776842,23.6334737 C83.2882105,24.1551579 82.2566316,23.6791579 81.6391579,24.1581053 C81.5374737,24.2362105 81.4534737,24.3364211 81.3444211,24.4086316 C81.238322,24.473287 81.1237525,24.5228842 81.004,24.556 C79.8053714,24.9459486 78.6303488,25.405034 77.4848421,25.9309474 C77.8974737,28.4126316 78.3189474,30.9414737 79.2856842,33.2625263 C79.7454737,34.3677895 80.2656842,35.4509474 80.6341053,36.5901053 C81.4505263,39.1145263 81.4858947,41.8157895 81.4962105,44.4698947 C81.4962105,46.2854737 81.4962105,48.1393684 80.9067368,49.8576842 C80.7741053,50.2467368 80.612,50.6328421 80.5751579,51.0366316 C80.5383158,51.4404211 80.6591579,51.8972632 80.9907368,52.1389474 C81.182688,52.2655574 81.4028438,52.3429915 81.6317895,52.3644211 C82.6501053,52.5117895 83.6757895,52.2435789 84.6778947,52.0107368 C87.3644211,51.3888421 90.1054737,51.0322105 92.8391579,50.6844211 L97.4223158,50.0949474 C97.7511063,50.0719546 98.0728375,49.9885243 98.3713684,49.8488421 C99.2098947,49.3905263 99.2894737,48.1290526 98.7677895,47.3273684 C98.5187368,46.9427368 98.1665263,46.6273684 97.9557895,46.2206316 C97.7450526,45.8138947 97.7288421,45.2421053 98.0898947,44.9606316 C98.8267368,44.3858947 98.6056842,43.3204211 98.6410526,42.3890526 C98.7392982,39.7835789 98.7260351,37.1800702 98.6012632,34.5785263 C98.5637499,34.0390252 98.5548953,33.4979133 98.5747368,32.9574737 C98.6263158,32.0408421 98.8532632,31.1433684 99.0802105,30.2517895 L100.472842,24.7696842 C100.108842,24.1949474 99.4117895,23.8294737 98.7530526,23.6644211 C98.0943158,23.4993684 97.4061053,23.4507368 96.7562105,23.2488421 C95.4298947,22.8362105 94.2391579,21.7898947 92.8494737,21.8871579 C92.7440854,21.8890339 92.6404165,21.9141962 92.5458947,21.9608421 C92.2334737,22.1391579 92.2821053,22.5901053 92.2629474,22.9496842 C92.2187368,23.7469474 91.6322105,24.4115789 90.9867368,24.8787368 C90.3412632,25.3458947 89.6014737,25.6848421 89.0075789,26.2168421 C88.7988073,26.3742341 88.6703953,26.6159509 88.6568421,26.8770526 Z" id="Path" fill="#3F3D56" fill-rule="nonzero"></path>
                <path d="M70.2637895,32.0776842 C69.9563233,32.2775743 69.6294754,32.4459355 69.2882105,32.5802105 C68.964,32.7084211 68.6176842,32.8101053 68.3524211,33.0341053 C68.2210852,33.148053 68.1108405,33.2842377 68.0267368,33.4364211 C67.7068823,34.0039686 67.7211146,34.700585 68.0638833,35.2545948 C68.4066519,35.8086045 69.0236742,36.1322717 69.6743158,36.0993684 C70.1002105,36.0772632 70.5025263,35.9048421 70.8930526,35.7353684 L74.1675789,34.3103158 C74.7216842,34.0701053 75.32,33.7901053 75.5823158,33.2448421 C75.6123756,33.1937922 75.6238316,33.1339087 75.6147368,33.0753684 C75.5893757,33.0111366 75.5410573,32.9586166 75.4791579,32.928 C74.7412496,32.4479118 74.0957976,31.8389007 73.5736842,31.1301053 C73.4395789,30.9473684 73.2789474,30.5170526 73.0844211,30.4065263 C72.3917895,30.0218947 70.8193684,31.7181053 70.2637895,32.0776842 Z" id="Path" fill="#FFC0C6" fill-rule="nonzero"></path>
                <path d="M105.266737,30.9208421 L106.473684,32.3002105 C106.733053,32.5949474 106.992421,32.8896842 107.228211,33.208 C107.808455,34.0071073 108.273759,34.8836444 108.610526,35.812 C108.872842,36.5002105 109.090947,37.2341053 108.999579,37.9650526 C108.938351,38.3397946 108.837069,38.7068804 108.697474,39.06 C108.476362,39.7388615 108.201892,40.399167 107.876632,41.0347368 C107.605017,41.516998 107.298147,41.9785347 106.958526,42.4155789 C106.023682,43.6542863 105.000749,44.8239849 103.897684,45.9155789 C103.485053,46.3237895 103.308211,46.9854737 103.132842,47.5366316 C102.801263,48.5549474 102.012842,49.3492632 101.250947,50.1008421 C101.005896,50.3599016 100.734777,50.5929946 100.441895,50.7964211 C100.003255,51.0794596 99.4901404,51.2251842 98.9682105,51.2149474 C98.7404706,51.2162508 98.5150116,51.1695522 98.3065263,51.0778947 C97.7848421,50.8303158 97.5195789,50.2275789 97.4650526,49.6528421 C97.4168986,49.1306021 97.5041993,48.6047674 97.7185263,48.1261053 C98.4111579,46.592 100.189895,45.9273684 101.446947,44.8073684 C102.183789,44.1515789 102.748211,43.3263158 103.305263,42.5113684 C103.682562,42.0019756 103.997704,41.4493642 104.244,40.8652632 C104.524,40.1151579 104.414947,39.228 104.661053,38.4675789 C104.764211,38.1448421 104.955789,37.8545263 105.060421,37.5347368 C105.165053,37.2149474 105.200421,36.8362105 105.004421,36.5606316 C104.85756,36.3844637 104.669869,36.2468575 104.457684,36.1597895 C103.654526,35.7530526 102.755579,35.2284211 102.602316,34.3397895 C102.540932,33.8476794 102.669529,33.3506833 102.961895,32.9501053 C103.252673,32.5546386 103.592916,32.198052 103.974316,31.8890526 C104.323579,31.5736842 104.914526,31.2244211 105.266737,30.9208421 Z" id="Path" fill="#FFC0C6" fill-rule="nonzero"></path>
                <path d="M69.4886316,34.0023158 C69.2764211,33.572 69.0096842,33.1328421 68.5793684,32.9191579 C68.1561174,32.7365595 67.6763037,32.7365595 67.2530526,32.9191579 C66.8360528,33.0994479 66.4454102,33.3354199 66.0917895,33.6206316 L65.0513684,34.3884211 C64.8155244,34.5432035 64.6068876,34.7359062 64.4338947,34.9587368 C64.2688982,35.2290932 64.1596663,35.5297315 64.1126316,35.8429474 C63.9652632,36.5606316 63.8458947,37.2989474 63.9490526,38.0254737 C64.1141053,39.2044211 64.8214737,40.2242105 65.5995789,41.1202105 C66.0858947,41.6772632 66.6871579,42.2402105 67.4269474,42.2652632 C67.7467368,42.2755789 68.1018947,42.1488421 68.2345263,41.8585263 C68.2807701,41.7431782 68.305253,41.6202637 68.3067368,41.496 C68.3863158,40.1873684 67.9176842,38.9096842 67.3724211,37.7174737 C67.2250526,37.3932632 67.0658947,37.0572632 67.0776842,36.7021053 C67.0731619,36.6418062 67.0887056,36.581704 67.1218947,36.5311579 C67.1686752,36.4821338 67.2313481,36.4513196 67.2987368,36.4442105 C68.0458947,36.2968421 69.3338947,36.8774737 69.8570526,36.0477895 C70.196,35.4995789 69.7303158,34.4901053 69.4886316,34.0023158 Z" id="Path" fill="#FFC0C6" fill-rule="nonzero"></path>
                <path d="M84.8665263,14.8414737 C84.8572838,14.7341069 84.8734386,14.6260719 84.9136842,14.5261053 C85.0330526,14.3138947 85.3454737,14.3787368 85.5812632,14.4317895 C86.5288421,14.6705263 87.528,14.4538947 88.5050526,14.5098947 C89.4821053,14.5658947 90.58,15.0536842 90.7774737,16.0115789 C91.4856261,15.5091218 92.0963606,14.8819079 92.5797895,14.1606316 C92.8509474,13.7538947 93.0867368,13.2896842 93.0498947,12.8033684 C92.9968421,12.1018947 92.4073684,11.5772632 91.8709474,11.1336842 L90.2498947,9.80736842 C90.036881,9.61151336 89.7909209,9.45485723 89.5233684,9.34463158 C89.1475789,9.21642105 88.7393684,9.27831579 88.3444211,9.27831579 C87.1654737,9.27831579 85.9010526,8.74042105 84.8503158,9.27831579 C84.4082105,9.50378947 84.0795789,9.89136842 83.7612632,10.2686316 L82.3111579,11.984 C82.2021409,12.0935892 82.1225586,12.2289298 82.0797895,12.3774737 C82.0385263,12.5867368 82.1461053,12.7930526 82.1844211,13.0037895 C82.2522105,13.3869474 82.0871579,13.7966316 82.2138947,14.1635789 C82.4246316,14.7751579 83.1673684,14.8621053 83.6212632,15.2128421 C83.7892632,15.3425263 84.0545263,15.7861053 84.2564211,15.7802105 C84.6056842,15.7728421 84.8532632,15.1244211 84.8665263,14.8414737 Z" id="Path" fill="#3F3D56" fill-rule="nonzero"></path>
                <path d="M75.0075789,27.5623158 C74.8204792,27.6837993 74.6559238,27.8368856 74.5212632,28.0147368 C74.3517895,28.2726316 74.3164211,28.6042105 74.1705263,28.8694737 C73.8581053,29.4501053 73.1256842,29.6578947 72.6703158,30.1338947 C72.596491,30.1989626 72.5449466,30.2855572 72.5229474,30.3814737 C72.5201449,30.5110933 72.5634961,30.6374909 72.6452632,30.7381053 L74.8469474,34.1983158 C75.5837895,34.2631579 76.2823158,33.8033684 77.0162105,33.8652632 C77.2888421,33.8873684 77.5703158,33.9816842 77.8326316,33.9006316 C78.0201153,33.8171118 78.1959693,33.7096179 78.3557895,33.5808421 C78.7978947,33.3037895 79.3755789,33.2713684 79.7425263,32.9073684 C80.1094737,32.5433684 80.1404211,32.0084211 80.136,31.5117895 C80.1426106,31.0807607 80.0985899,30.6504464 80.0048421,30.2296842 C79.6806316,28.9033684 78.6652632,27.8806316 78.0286316,26.7046316 C77.7176842,26.1313684 77.5496842,25.7968421 76.8938947,26.1903158 C76.2381053,26.5837895 75.628,27.1084211 75.0075789,27.5623158 Z" id="Path" fill="#3F3D56" fill-rule="nonzero"></path>
                <path d="M101.741684,25.8130526 C102.155478,26.0817278 102.528669,26.4082697 102.849895,26.7827368 C103.184421,27.2145263 103.374526,27.7450526 103.697263,28.1871579 C104.02,28.6292632 104.434105,28.9475789 104.787789,29.3425263 C105.325684,29.9408421 105.689684,30.6688421 106.046316,31.3924211 C105.173283,32.5283341 104.221911,33.6018279 103.199158,34.6050526 C103.085077,34.7392129 102.9346,34.8374832 102.765895,34.888 C102.53357,34.912967 102.304274,34.8193654 102.155789,34.6389474 C101.996632,34.4738947 101.884632,34.2675789 101.732842,34.0951579 C101.375238,33.726341 100.898565,33.4960971 100.387368,33.4452632 C99.8804249,33.3958817 99.3702669,33.3884881 98.8621053,33.4231579 C98.7505661,33.4363821 98.6375705,33.4174643 98.5364211,33.3686316 C98.4611712,33.316947 98.4003137,33.2469608 98.3595789,33.1652632 C97.7701053,32.1513684 97.9543158,30.8781053 98.1650526,29.7197895 L98.6469474,27.0671579 C98.7172786,26.5607051 98.8524945,26.0654091 99.0492632,25.5934737 C99.232,25.2029474 99.6387368,24.5397895 100.142737,24.6576842 C100.646737,24.7755789 101.315789,25.5065263 101.741684,25.8130526 Z" id="Path" fill="#3F3D56" fill-rule="nonzero"></path>
                <polygon id="Path" fill="#FF9E2D" fill-rule="nonzero" points="59.7166316 45.2583158 49.5644211 47.3347368 49.3330526 47.3126316 40.4113684 46.4122105 40.4113684 35.1061053 51.3328421 33.2595789 59.2553684 34.1835789 59.2583158 34.2336842 59.2583158 34.2572632"></polygon>
                <polygon id="Path" fill="#000000" fill-rule="nonzero" opacity="0.1" points="59.7166316 45.2583158 49.5644211 47.3347368 49.3330526 47.3126316 49.3330526 35.7221053 59.2583158 34.2336842"></polygon>
                <polygon id="Path" fill="#000000" fill-rule="nonzero" opacity="0.05" points="59.2583158 34.2572632 59.2553684 34.2602105 49.3330526 35.7221053 40.4113684 35.1061053 51.3328421 33.2595789 59.2553684 34.1835789 59.2583158 34.2336842"></polygon>
                <polygon id="Path" fill="#3F3D56" fill-rule="nonzero" points="65.0218947 34.0583158 54.8696842 36.1362105 54.6383158 36.1126316 45.7166316 35.2122105 45.7166316 23.9061053 56.6381053 22.0595789 64.5606316 22.9835789 64.5635789 23.0336842 64.5635789 23.0572632"></polygon>
                <polygon id="Path" fill="#000000" fill-rule="nonzero" opacity="0.1" points="65.0218947 34.0583158 54.8696842 36.1362105 54.6383158 36.1126316 54.6383158 24.5221053 64.5635789 23.0336842"></polygon>
                <polygon id="Path" fill="#000000" fill-rule="nonzero" opacity="0.05" points="64.5635789 23.0572632 64.5606316 23.0602105 54.6383158 24.5221053 45.7166316 23.9061053 56.6381053 22.0595789 64.5606316 22.9835789 64.5635789 23.0336842"></polygon>
            </g>
        </g>
    </g>
</svg>