<?xml version="1.0" encoding="UTF-8"?>
<svg width="137px" height="137px" viewBox="0 0 137 137" version="1.1" xmlns="http://www.w3.org/2000/svg" xmlns:xlink="http://www.w3.org/1999/xlink">
    <title>Communicate_illustrations</title>
    <defs>
        <linearGradient x1="50.0388782%" y1="99.9911902%" x2="50.0388782%" y2="0.00772962824%" id="linearGradient-1">
            <stop stop-color="#808080" stop-opacity="0.25" offset="0%"></stop>
            <stop stop-color="#808080" stop-opacity="0.12" offset="54%"></stop>
            <stop stop-color="#808080" stop-opacity="0.1" offset="100%"></stop>
        </linearGradient>
    </defs>
    <g id="Communicate_illustrations" stroke="none" stroke-width="1" fill="none" fill-rule="evenodd">
        <g id="undraw_buy_house_560d-(5)" transform="translate(-765.000000, 87.000000)"></g>
        <g id="undraw_youtube_tutorial_2gn3-(1)" transform="translate(0.000000, 18.000000)" fill-rule="nonzero">
            <path d="M79.5982124,15.1172832 C70.8156637,14.8129735 62.450177,11.9759823 54.4629558,8.87469027 C46.4757345,5.77339823 38.562469,2.33627434 29.9908761,0.692274336 C24.4769292,-0.364929204 18.171292,-0.511628319 13.7290973,2.44175221 C9.453,5.2860177 8.0720885,10.2010442 7.33010619,14.7535664 C6.77119469,18.1822035 6.44263717,21.7854248 7.97267257,24.999469 C9.03593805,27.2266283 10.9236283,29.0997699 12.2293717,31.2335752 C16.7697699,38.6606726 13.563,47.8178496 8.63827434,55.0679381 C6.33473451,58.4699027 3.65171681,61.7142566 1.87071681,65.3356637 C0.0897168142,68.9570708 -0.734707965,73.1046549 0.823212389,76.7975929 C2.36900885,80.4590088 6.04982301,83.208708 10.0373717,85.142469 C18.1373451,89.0706106 27.6824867,90.195708 36.99,90.8322124 C57.5945575,92.2361593 78.3082301,91.6299646 98.9661327,91.0237699 C106.61146,90.7970531 114.289522,90.5679115 121.811186,89.3858319 C125.986655,88.7299292 130.297912,87.6884867 133.328885,85.1727788 C137.178221,81.9793451 138.132372,76.5720885 135.552407,72.5639292 C131.226602,65.8485044 119.263956,64.1802566 116.240257,56.9726018 C114.575646,53.0056637 116.285115,48.5865044 118.703832,44.9069027 C123.892858,37.0130354 132.59054,30.0890796 133.048823,21.0664779 C133.364044,14.8699558 129.182513,8.66373451 122.718053,5.73217699 C115.940796,2.65876991 106.544779,3.04552212 101.544885,8.13270796 C96.3995044,13.3714425 87.3526549,15.3864336 79.5982124,15.1172832 Z" id="Path" fill="#AB6ACB" opacity="0.1"></path>
            <polygon id="Path" fill="#D0D2D5" points="80.5244779 91.6433009 56.882885 91.3402035 56.9519912 90.7340088 58.0952743 80.7317965 78.8574425 80.7317965 80.3850531 90.7340088 80.5014425 91.4917522"></polygon>
            <polygon id="Path" fill="#000000" opacity="0.1" points="80.5014425 91.4917522 68.7036814 91.4917522 56.882885 91.3402035 56.9519912 90.7340088 80.3850531 90.7340088"></polygon>
            <rect id="Rectangle" fill="#D0D2D5" x="52.9426195" y="90.8855575" width="31.3705752" height="1"></rect>
            <path d="M114.243475,20.6554779 C114.24603,20.1323212 114.040677,19.6295679 113.672568,19.2578213 C113.304459,18.8860747 112.80375,18.6757873 112.280593,18.6732212 L24.6721239,18.6732212 C24.1487566,18.6754666 23.6477357,18.8856128 23.2793651,19.2573942 C22.9109944,19.6291757 22.7054748,20.1321121 22.7080291,20.6554779 L22.7080291,73.7581327 L114.243475,73.7581327 L114.243475,20.6554779 Z" id="Path" fill="#444053"></path>
            <path d="M22.7080531,73.2307434 L22.7080531,79.4503009 C22.7080531,80.5350272 23.5873975,81.4143717 24.6721239,81.4143717 L112.280593,81.4143717 C113.364846,81.4137024 114.243451,80.5345539 114.243451,79.4503009 L114.243451,73.2307434 L22.7080531,73.2307434 Z" id="Path" fill="#D0D2D5"></path>
            <rect id="Rectangle" fill="#AB6ACB" opacity="0.1" x="26.4967699" y="22.007292" width="84.4126106" height="47.7378319"></rect>
            <path d="M68.9303982,79.0538517 C69.5584163,79.0542539 70.1518908,78.7664546 70.5404513,78.2730708 L70.5404513,78.2730708 C70.5986232,78.1987554 70.6516861,78.1205788 70.6992743,78.0390796 L69.5766018,77.8547965 L70.7889912,77.8644956 C71.0253254,77.3523156 71.0393668,76.765211 70.8277876,76.2423186 L69.1995487,77.0909912 L70.7016991,75.9877168 C70.3170437,75.3278981 69.596806,74.9373663 68.833979,74.9749898 C68.071152,75.0126133 67.3928393,75.4721232 67.0749788,76.1665909 C66.7571184,76.8610585 66.8526725,77.6747703 67.3227699,78.276708 L67.3227699,78.276708 C67.711303,78.768347 68.3037675,79.0547495 68.9303982,79.0538517 Z" id="Path" fill="#AB6ACB"></path>
            <polygon id="Path" fill="#000000" opacity="0.1" points="70.9769115 81.4143717 80.4080885 90.8855575 78.961708 81.4143717"></polygon>
            <rect id="Rectangle" fill="#FFFFFF" x="28.9761062" y="30.6201062" width="55.4061947" height="33.219469" rx="2.6"></rect>
            <rect id="Rectangle" fill="#FFFFFF" x="26.5513274" y="22.0121416" width="84.3823009" height="2.78849558"></rect>
            <rect id="Rectangle" fill="#AB6ACB" x="26.9150442" y="22.4970973" width="2.42477876" height="1.69734513" rx="0.78"></rect>
            <rect id="Rectangle" fill="#AB6ACB" opacity="0.3" x="55.7699115" y="22.4970973" width="25.460177" height="1.69734513" rx="0.58"></rect>
            <path d="M80.4747699,23.520354 L80.4129381,23.520354 L80.3899027,23.5009558 C80.4677023,23.4086312 80.5106115,23.2919184 80.5111416,23.1711858 C80.5091344,22.8943028 80.2832861,22.6713445 80.0064001,22.6728951 C79.7295141,22.6744619 79.5061903,22.8999487 79.5072963,23.1768368 C79.5084105,23.4537249 79.7335352,23.6774138 80.0104248,23.6767522 C80.1311203,23.6760173 80.2477656,23.633133 80.3401947,23.5555133 L80.3632301,23.5749115 L80.3632301,23.6379558 L80.7511947,24.0259204 L80.8724336,23.9046814 L80.4747699,23.520354 Z M80.0092124,23.520354 C79.8672772,23.5208443 79.7390677,23.435657 79.6845248,23.3046193 C79.6299818,23.1735815 79.6598817,23.022583 79.7602456,22.9222191 C79.8606096,22.8218552 80.011608,22.7919552 80.1426458,22.8464982 C80.2736836,22.9010412 80.3588708,23.0292507 80.3583805,23.1711858 C80.3590318,23.2639891 80.3224537,23.3531803 80.2568303,23.4188037 C80.1912069,23.4844272 80.1020157,23.5210053 80.0092124,23.520354 L80.0092124,23.520354 Z" id="Shape" fill="#444053"></path>
            <circle id="Oval" fill="#AB6ACB" cx="109.721239" cy="23.3457699" r="1"></circle>
            <rect id="Rectangle" fill="#FFFFFF" x="88.3831858" y="27.8316106" width="7.88053097" height="5.33451327" rx="2.43"></rect>
            <rect id="Rectangle" fill="#FFFFFF" x="98.3247788" y="27.8316106" width="10.1840708" height="1" rx="0.5"></rect>
            <rect id="Rectangle" fill="#FFFFFF" x="98.3247788" y="29.6501947" width="10.1840708" height="1" rx="0.5"></rect>
            <rect id="Rectangle" fill="#FFFFFF" x="98.3247788" y="31.4687788" width="10.1840708" height="1" rx="0.5"></rect>
            <rect id="Rectangle" fill="#FFFFFF" x="88.3831858" y="36.1970973" width="7.88053097" height="5.33451327" rx="2.43"></rect>
            <rect id="Rectangle" fill="#FFFFFF" x="98.3247788" y="36.1970973" width="10.1840708" height="1" rx="0.5"></rect>
            <rect id="Rectangle" fill="#FFFFFF" x="98.3247788" y="38.0156814" width="10.1840708" height="1" rx="0.5"></rect>
            <rect id="Rectangle" fill="#FFFFFF" x="98.3247788" y="39.8342655" width="10.1840708" height="1" rx="0.5"></rect>
            <rect id="Rectangle" fill="#FFFFFF" x="88.3831858" y="44.5625841" width="7.88053097" height="5.33451327" rx="2.43"></rect>
            <rect id="Rectangle" fill="#FFFFFF" x="98.3247788" y="44.5625841" width="10.1840708" height="1" rx="0.5"></rect>
            <rect id="Rectangle" fill="#FFFFFF" x="98.3247788" y="46.3811681" width="10.1840708" height="1" rx="0.5"></rect>
            <rect id="Rectangle" fill="#FFFFFF" x="98.3247788" y="48.1997522" width="10.1840708" height="1" rx="0.5"></rect>
            <rect id="Rectangle" fill="#FFFFFF" x="88.3831858" y="52.9280708" width="7.88053097" height="5.33451327" rx="2.43"></rect>
            <rect id="Rectangle" fill="#FFFFFF" x="98.3247788" y="52.9280708" width="10.1840708" height="1" rx="0.5"></rect>
            <rect id="Rectangle" fill="#FFFFFF" x="98.3247788" y="54.7466549" width="10.1840708" height="1" rx="0.5"></rect>
            <rect id="Rectangle" fill="#FFFFFF" x="98.3247788" y="56.5652389" width="10.1840708" height="1" rx="0.5"></rect>
            <rect id="Rectangle" fill="#FFFFFF" x="88.3831858" y="61.2935575" width="7.88053097" height="5.33451327" rx="2.43"></rect>
            <rect id="Rectangle" fill="#FFFFFF" x="98.3247788" y="61.2935575" width="10.1840708" height="1" rx="0.5"></rect>
            <rect id="Rectangle" fill="#FFFFFF" x="98.3247788" y="63.1121416" width="10.1840708" height="1" rx="0.5"></rect>
            <rect id="Rectangle" fill="#FFFFFF" x="98.3247788" y="64.9307257" width="10.1840708" height="1" rx="0.5"></rect>
            <rect id="Rectangle" fill="#AB6ACB" opacity="0.1" x="36.968177" y="39.4232655" width="12.467" height="1"></rect>
            <rect id="Rectangle" fill="#AB6ACB" opacity="0.1" x="38.0763009" y="36.0067522" width="1.20026549" height="3.41651327"></rect>
            <rect id="Rectangle" fill="#AB6ACB" opacity="0.1" x="39.8306283" y="36.0067522" width="1.20026549" height="3.41651327"></rect>
            <rect id="Rectangle" fill="#AB6ACB" opacity="0.1" x="41.5849558" y="36.0067522" width="1.20026549" height="3.41651327"></rect>
            <rect id="Rectangle" fill="#AB6ACB" opacity="0.1" x="43.3392832" y="36.0067522" width="1.20026549" height="3.41651327"></rect>
            <rect id="Rectangle" fill="#AB6ACB" opacity="0.1" x="45.0936106" y="36.0067522" width="1.20026549" height="3.41651327"></rect>
            <rect id="Rectangle" fill="#AB6ACB" opacity="0.1" x="46.8491504" y="36.0067522" width="1.20026549" height="3.41651327"></rect>
            <rect id="Rectangle" fill="#AB6ACB" opacity="0.1" x="38.0763009" y="36.6529558" width="1.20026549" height="1"></rect>
            <rect id="Rectangle" fill="#AB6ACB" opacity="0.1" x="39.8306283" y="36.6529558" width="1.20026549" height="1"></rect>
            <rect id="Rectangle" fill="#AB6ACB" opacity="0.1" x="41.5849558" y="36.6529558" width="1.20026549" height="1"></rect>
            <rect id="Rectangle" fill="#AB6ACB" opacity="0.1" x="43.3392832" y="36.6529558" width="1.20026549" height="1"></rect>
            <rect id="Rectangle" fill="#AB6ACB" opacity="0.1" x="45.0936106" y="36.6529558" width="1.20026549" height="1"></rect>
            <rect id="Rectangle" fill="#AB6ACB" opacity="0.1" x="46.8491504" y="36.6529558" width="1.20026549" height="1"></rect>
            <rect id="Rectangle" fill="#AB6ACB" opacity="0.1" x="38.0763009" y="38.3151416" width="1.20026549" height="1"></rect>
            <rect id="Rectangle" fill="#AB6ACB" opacity="0.1" x="39.8306283" y="38.3151416" width="1.20026549" height="1"></rect>
            <rect id="Rectangle" fill="#AB6ACB" opacity="0.1" x="41.5849558" y="38.3151416" width="1.20026549" height="1"></rect>
            <rect id="Rectangle" fill="#AB6ACB" opacity="0.1" x="43.3392832" y="38.3151416" width="1.20026549" height="1"></rect>
            <rect id="Rectangle" fill="#AB6ACB" opacity="0.1" x="45.0936106" y="38.3151416" width="1.20026549" height="1"></rect>
            <rect id="Rectangle" fill="#AB6ACB" opacity="0.1" x="46.8491504" y="38.3151416" width="1.20026549" height="1"></rect>
            <rect id="Rectangle" fill="#AB6ACB" opacity="0.1" x="64.3014956" y="41.0854513" width="12.467" height="1"></rect>
            <rect id="Rectangle" fill="#AB6ACB" opacity="0.1" x="65.4096195" y="37.6689381" width="1.20026549" height="3.41651327"></rect>
            <rect id="Rectangle" fill="#AB6ACB" opacity="0.1" x="67.1639469" y="37.6689381" width="1.20026549" height="3.41651327"></rect>
            <rect id="Rectangle" fill="#AB6ACB" opacity="0.1" x="68.9182743" y="37.6689381" width="1.20026549" height="3.41651327"></rect>
            <rect id="Rectangle" fill="#AB6ACB" opacity="0.1" x="70.6738142" y="37.6689381" width="1.20026549" height="3.41651327"></rect>
            <rect id="Rectangle" fill="#AB6ACB" opacity="0.1" x="72.4281416" y="37.6689381" width="1.20026549" height="3.41651327"></rect>
            <rect id="Rectangle" fill="#AB6ACB" opacity="0.1" x="74.182469" y="37.6689381" width="1.20026549" height="3.41651327"></rect>
            <rect id="Rectangle" fill="#AB6ACB" opacity="0.1" x="65.4096195" y="38.3151416" width="1.20026549" height="1"></rect>
            <rect id="Rectangle" fill="#AB6ACB" opacity="0.1" x="67.1639469" y="38.3151416" width="1.20026549" height="1"></rect>
            <rect id="Rectangle" fill="#AB6ACB" opacity="0.1" x="68.9182743" y="38.3151416" width="1.20026549" height="1"></rect>
            <rect id="Rectangle" fill="#AB6ACB" opacity="0.1" x="70.6738142" y="38.3151416" width="1.20026549" height="1"></rect>
            <rect id="Rectangle" fill="#AB6ACB" opacity="0.1" x="72.4281416" y="38.3151416" width="1.20026549" height="1"></rect>
            <rect id="Rectangle" fill="#AB6ACB" opacity="0.1" x="74.182469" y="38.3151416" width="1.20026549" height="1"></rect>
            <rect id="Rectangle" fill="#AB6ACB" opacity="0.1" x="65.4096195" y="39.9773274" width="1.20026549" height="1"></rect>
            <rect id="Rectangle" fill="#AB6ACB" opacity="0.1" x="67.1639469" y="39.9773274" width="1.20026549" height="1"></rect>
            <rect id="Rectangle" fill="#AB6ACB" opacity="0.1" x="68.9182743" y="39.9773274" width="1.20026549" height="1"></rect>
            <rect id="Rectangle" fill="#AB6ACB" opacity="0.1" x="70.6738142" y="39.9773274" width="1.20026549" height="1"></rect>
            <rect id="Rectangle" fill="#AB6ACB" opacity="0.1" x="72.4281416" y="39.9773274" width="1.20026549" height="1"></rect>
            <rect id="Rectangle" fill="#AB6ACB" opacity="0.1" x="74.182469" y="39.9773274" width="1.20026549" height="1"></rect>
            <rect id="Rectangle" fill="#AB6ACB" opacity="0.1" x="64.3014956" y="45.7943717" width="12.467" height="1"></rect>
            <rect id="Rectangle" fill="#AB6ACB" opacity="0.1" x="65.4096195" y="42.3778584" width="1.20026549" height="3.41651327"></rect>
            <rect id="Rectangle" fill="#AB6ACB" opacity="0.1" x="67.1639469" y="42.3778584" width="1.20026549" height="3.41651327"></rect>
            <rect id="Rectangle" fill="#AB6ACB" opacity="0.1" x="68.9182743" y="42.3778584" width="1.20026549" height="3.41651327"></rect>
            <rect id="Rectangle" fill="#AB6ACB" opacity="0.1" x="70.6738142" y="42.3778584" width="1.20026549" height="3.41651327"></rect>
            <rect id="Rectangle" fill="#AB6ACB" opacity="0.1" x="72.4281416" y="42.3778584" width="1.20026549" height="3.41651327"></rect>
            <rect id="Rectangle" fill="#AB6ACB" opacity="0.1" x="74.182469" y="42.3778584" width="1.20026549" height="3.41651327"></rect>
            <rect id="Rectangle" fill="#AB6ACB" opacity="0.1" x="65.4096195" y="43.0240619" width="1.20026549" height="1"></rect>
            <rect id="Rectangle" fill="#AB6ACB" opacity="0.1" x="67.1639469" y="43.0240619" width="1.20026549" height="1"></rect>
            <rect id="Rectangle" fill="#AB6ACB" opacity="0.1" x="68.9182743" y="43.0240619" width="1.20026549" height="1"></rect>
            <rect id="Rectangle" fill="#AB6ACB" opacity="0.1" x="70.6738142" y="43.0240619" width="1.20026549" height="1"></rect>
            <rect id="Rectangle" fill="#AB6ACB" opacity="0.1" x="72.4281416" y="43.0240619" width="1.20026549" height="1"></rect>
            <rect id="Rectangle" fill="#AB6ACB" opacity="0.1" x="74.182469" y="43.0240619" width="1.20026549" height="1"></rect>
            <rect id="Rectangle" fill="#AB6ACB" opacity="0.1" x="65.4096195" y="44.6862478" width="1.20026549" height="1"></rect>
            <rect id="Rectangle" fill="#AB6ACB" opacity="0.1" x="67.1639469" y="44.6862478" width="1.20026549" height="1"></rect>
            <rect id="Rectangle" fill="#AB6ACB" opacity="0.1" x="68.9182743" y="44.6862478" width="1.20026549" height="1"></rect>
            <rect id="Rectangle" fill="#AB6ACB" opacity="0.1" x="70.6738142" y="44.6862478" width="1.20026549" height="1"></rect>
            <rect id="Rectangle" fill="#AB6ACB" opacity="0.1" x="72.4281416" y="44.6862478" width="1.20026549" height="1"></rect>
            <rect id="Rectangle" fill="#AB6ACB" opacity="0.1" x="74.182469" y="44.6862478" width="1.20026549" height="1"></rect>
            <path d="M44.6159292,46.7303363 C44.5229454,46.6111735 44.4378948,46.4860276 44.3613274,46.355708 L46.1568761,46.0610973 L44.2170531,46.075646 C43.8410117,45.2569263 43.818214,44.3195904 44.1540088,43.4835575 L46.7545841,44.8317345 L44.3528407,43.0664956 C44.9619626,41.9977725 46.1188195,41.3607612 47.3476343,41.4174434 C48.576449,41.4741256 49.6697506,42.2149313 50.1779,43.3351914 C50.6860495,44.4554515 50.5232518,45.7660232 49.7564602,46.7279115 C49.9026086,46.9123219 50.0278466,47.1123775 50.1298761,47.3244071 L47.7996637,48.5367965 L50.2838496,47.703885 C50.6368896,48.7502171 50.4385863,49.9040231 49.7564602,50.7724425 C50.8144371,52.1138927 50.6628579,54.0433881 49.4083864,55.2031747 C48.1539148,56.3629613 46.2184746,56.3629613 44.964003,55.2031747 C43.7095315,54.0433881 43.5579523,52.1138927 44.6159292,50.7724425 C43.6828088,49.5852743 43.6828088,47.9138673 44.6159292,46.7266991 L44.6159292,46.7303363 Z" id="Path" fill="#AB6ACB" opacity="0.1"></path>
            <path d="M50.4572212,48.7526018 C50.4573158,49.4855109 50.2104476,50.197072 49.7564602,50.7724425 C50.8144371,52.1138927 50.6628579,54.0433881 49.4083864,55.2031747 C48.1539148,56.3629613 46.2184746,56.3629613 44.964003,55.2031747 C43.7095315,54.0433881 43.5579523,52.1138927 44.6159292,50.7724425 C44.1758319,50.2183805 50.4572212,48.3852478 50.4572212,48.7526018 Z" id="Path" fill="#AB6ACB" opacity="0.1"></path>
            <path d="M47.7099469,56.9410796 C47.7156465,56.9496993 47.7209069,56.9586015 47.725708,56.9677522 L46.6151593,56.9677522 C46.6212212,56.9592655 46.6248584,56.9495664 46.6309204,56.9410796 C46.5353334,56.774833 46.4859401,56.5860501 46.4878584,56.394292 C46.4873474,56.2628664 46.5099172,56.1323718 46.5545398,56.0087522 L46.5545398,56.0087522 C46.6163717,56.0184513 46.6927522,56.0293628 46.7812566,56.0390619 C47.0388528,56.0648291 47.2983773,56.0648291 47.5559735,56.0390619 C47.6303333,56.0317876 47.7067139,56.0220885 47.785115,56.0099646 C47.7845425,56.0119447 47.7845425,56.0140465 47.785115,56.0160265 C47.8292626,56.1376376 47.8514308,56.2661308 47.8505841,56.3955044 C47.8530236,56.5866296 47.8044784,56.7749514 47.7099469,56.9410796 Z" id="Path" fill="#3F3D56" opacity="0.2"></path>
            <path d="M43.7187611,56.9677522 L37.5355752,56.9677522 C37.5222389,56.9325929 37.510115,56.8950088 37.4992035,56.8586372 C37.2813636,56.1580602 37.3065698,55.4044378 37.5707345,54.7199823 C36.3283773,53.8610465 35.8349716,52.2636142 36.376531,50.8536726 C36.2522789,50.7681306 36.1343702,50.6737226 36.0237257,50.5711858 L37.6507522,49.7600973 L35.800646,50.3468938 C35.1993939,49.6760594 34.9011718,48.7870946 34.9762212,47.8893805 L37.8629204,48.410708 L35.0477522,47.4323097 C35.3125138,46.2295797 36.2299104,45.2772248 37.4219029,44.9676897 C38.6138954,44.6581546 39.8787489,45.0438256 40.6952447,45.9657761 C41.5117406,46.8877266 41.7416936,48.1899239 41.2903451,49.3357611 C41.4855992,49.4716355 41.6656652,49.6281263 41.8274336,49.802531 L39.9579292,51.6465752 L42.0856726,50.1165398 C42.7334853,51.0129073 42.884886,52.1757738 42.4881858,53.2081327 C43.6948591,54.0437344 44.197826,55.5803852 43.7187611,56.9677522 Z" id="Path" fill="#AB6ACB" opacity="0.1"></path>
            <path d="M43.7187611,56.9677522 L37.5355752,56.9677522 C37.5222389,56.9325929 37.510115,56.8950088 37.4992035,56.8586372 C37.2813636,56.1580602 37.3065698,55.4044378 37.5707345,54.7199823 C36.9887876,54.317469 42.448177,50.7106106 42.5560796,51.0622035 C42.7739149,51.7631922 42.7487103,52.5171942 42.4845487,53.2020708 C43.6952999,54.0374217 44.2001611,55.5777941 43.7187611,56.9677522 Z" id="Path" fill="#AB6ACB" opacity="0.1"></path>
            <path d="M71.694646,52.5376814 C71.3191195,53.1679352 70.7420577,53.6531626 70.056708,53.9149558 C70.0860235,54.1482188 70.090494,54.3839348 70.0700442,54.6181416 L67.4500708,54.460531 L70.0094248,55.0158053 C69.9340946,55.3646514 69.8022247,55.698831 69.6190354,56.005115 C69.3959468,56.3802131 69.098965,56.7060682 68.746115,56.9629027 L65.1792655,56.9629027 L65.1792655,57.0562566 L61.5420973,57.0562566 C61.5493717,57.0247345 61.556646,56.9944248 61.5651327,56.9629027 C61.8343567,55.9453282 62.5764794,55.1192938 63.5595133,54.7430177 C63.368001,53.245105 64.2260178,51.810569 65.6363363,51.2707345 C65.6171507,51.120778 65.608239,50.9696854 65.6096637,50.8185133 L67.3009469,51.4865398 L65.6278496,50.503292 C65.7275298,49.6077066 66.1919886,48.7928204 66.9117699,48.2506726 L68.4527168,50.7457699 L67.2973097,47.9984956 C68.5911909,47.2825367 70.2044029,47.522939 71.2333157,48.5850425 C72.2622285,49.647146 72.4513094,51.2671752 71.694646,52.5376814 L71.694646,52.5376814 Z" id="Path" fill="#AB6ACB" opacity="0.1"></path>
            <path d="M69.6190354,56.0099646 C69.3959468,56.3850626 69.098965,56.7109177 68.746115,56.9677522 L65.1792655,56.9677522 L65.1792655,57.0611062 L61.5420973,57.0611062 C61.5493717,57.0295841 61.556646,56.9992743 61.5651327,56.9677522 C61.8343567,55.9501778 62.5764794,55.1241433 63.5595133,54.7478673 C63.5292035,54.5053894 64.2336018,54.5417611 65.1732035,54.6993717 C67.014823,55.008531 69.7439115,55.8014336 69.6190354,56.0099646 Z" id="Path" fill="#AB6ACB" opacity="0.1"></path>
            <path d="M54.158646,47.2795487 C54.158646,47.2795487 54.6072301,49.7043274 53.6057965,50.4960177 C52.6043628,51.287708 54.454469,56.033 57.5072655,55.4789381 C60.5600619,54.9248761 61.8039735,50.9446018 61.8039735,50.9446018 C61.8039735,50.9446018 58.7463274,50.3117345 59.8799115,47.0952655 L54.158646,47.2795487 Z" id="Path" fill="#EE8E9E"></path>
            <path d="M54.158646,47.2795487 C54.158646,47.2795487 54.6072301,49.7043274 53.6057965,50.4960177 C52.6043628,51.287708 54.454469,56.033 57.5072655,55.4789381 C60.5600619,54.9248761 61.8039735,50.9446018 61.8039735,50.9446018 C61.8039735,50.9446018 58.7463274,50.3117345 59.8799115,47.0952655 L54.158646,47.2795487 Z" id="Path" fill="#000000" opacity="0.1"></path>
            <circle id="Oval" fill="#EE8E9E" cx="56.8610619" cy="43.9976106" r="5.06172566"></circle>
            <path d="M65.1792655,53.6203451 L65.1792655,57.0611062 L48.4652655,57.0611062 L48.4652655,53.7767434 C48.4652655,52.9253062 48.9747205,52.1565062 49.758885,51.8247965 L50.2377788,51.621115 C51.4501681,51.1046372 52.9232212,50.4632832 53.4045398,50.1965575 C53.4572542,50.1702348 53.5068652,50.1381097 53.5524513,50.1007788 C53.8155398,49.8376903 53.7634071,50.1795841 53.7634071,50.1795841 C53.7634071,50.1795841 53.7561327,50.2450531 53.7512832,50.3578053 C53.7221858,51.1325221 53.8337257,54.1768319 57.4017876,53.9234425 C60.8825575,53.6809646 61.0389558,51.3265044 61.0037965,50.6342301 C61.0018244,50.5701499 60.9965638,50.5062133 60.9880354,50.4426726 C61.228773,50.4999449 61.4643724,50.5769911 61.6924336,50.6730265 C62.4198673,50.942177 63.4940442,51.3737876 63.7813805,51.577469 C63.8710973,51.6405133 63.9802124,51.7059823 64.0990265,51.7726637 C64.2338196,51.8478188 64.3598691,51.9376799 64.4748673,52.0406018 C64.9232688,52.443318 65.1792655,53.0176476 65.1792655,53.6203451 L65.1792655,53.6203451 Z" id="Path" fill="#AB6ACB"></path>
            <path d="M61.6924336,50.6730265 C61.397823,52.038177 60.4727699,54.5951062 57.1386991,54.6617876 C53.5863982,54.7321062 53.380292,51.1992035 53.4033274,50.1965575 C53.4568076,50.1709257 53.5068986,50.1387534 53.5524513,50.1007788 C53.8167522,49.8376903 53.7634071,50.1795841 53.7634071,50.1795841 C53.7634071,50.1795841 53.3160354,54.2132035 57.4005752,53.9234425 C61.485115,53.6336814 60.9831858,50.443885 60.9831858,50.443885 C60.9831858,50.4244867 61.2874956,50.5299646 61.6924336,50.6730265 Z" id="Path" fill="#000000" opacity="0.1"></path>
            <path d="M50.8694336,44.251 C51.2132875,44.1650498 51.5748295,44.2970871 51.7823628,44.5844071 C51.966646,44.842646 51.994531,45.1542301 52.0175664,45.4524779 C52.2370088,45.4985487 52.3606726,45.2500088 52.3812832,45.0620885 C52.4625133,44.2970708 52.4685752,43.5175044 52.7256018,42.7779469 C52.9826283,42.0383894 53.5439646,41.3230796 54.4059735,41.0405929 C54.700521,40.9385381 55.0152468,40.9086038 55.3237522,40.9533009 C55.506823,40.9836106 55.6789823,41.0478673 55.8608407,41.0745398 C56.4912832,41.1788053 57.1762832,40.8805575 57.7667168,41.0878761 C58.137708,41.2188142 58.3729115,41.5206991 58.5462832,41.8225841 C58.6216936,41.9853721 58.7241808,42.1341836 58.8493805,42.2626814 C59.1003451,42.4881858 59.4931593,42.5463805 59.8532389,42.6166991 C60.2133186,42.6870177 60.6061327,42.809469 60.7601062,43.0871062 C60.8983186,43.3380708 60.7964779,43.6278319 60.7504071,43.8994071 C60.6791617,44.3296195 60.7511464,44.7713244 60.9553009,45.1566549 C61.0219823,45.2778938 61.1577699,45.4245929 61.3190177,45.3845841 C61.3912235,45.360179 61.4522988,45.3107166 61.491177,45.2451593 C61.9046018,44.6656372 61.8936903,43.911531 62.4125929,43.3889912 C62.5859646,43.2144071 62.8102566,43.0786195 62.9787788,42.9040354 C63.2378299,42.6412518 63.3479914,42.2661566 63.272177,41.9050265 C63.178823,41.5049381 62.8587522,41.1775929 62.6005133,40.826 C62.2651408,40.3805808 62.0208371,39.8734344 61.8815664,39.3335487 C61.8572593,39.2707539 61.8572593,39.2011487 61.8815664,39.138354 C61.9305589,39.0746818 61.9936354,39.0232246 62.0658496,38.9880177 C62.3565909,38.7930988 62.4573066,38.4125595 62.3010531,38.0993363 C62.154354,37.7998761 61.8318584,37.5719469 61.4681416,37.4361593 C61.0992284,37.3149576 60.7183814,37.2336668 60.3321327,37.1936814 C60.077531,37.2300531 59.7792832,37.0857788 59.7004779,36.8820973 C59.6653186,36.7911681 59.6653186,36.6929646 59.6301593,36.6020354 C59.5333601,36.4167225 59.3524557,36.2900894 59.1452035,36.2625664 C58.9283435,36.2274905 58.7063004,36.2432618 58.4965752,36.3086372 C58.2540973,36.376531 57.978885,36.4783717 57.7691416,36.3595575 C57.6588142,36.2977257 57.5981947,36.1849735 57.4793805,36.1340531 C57.2369027,36.0322124 56.9871504,36.2383186 56.8137788,36.4080531 C56.6467229,36.5861434 56.4415641,36.7241593 56.213646,36.8117788 C55.9701332,36.9045501 55.6982551,36.8863954 55.4692389,36.7620708 C55.3031416,36.6565929 55.2194867,36.4868584 55.0873363,36.3522832 C54.8377213,36.1296901 54.5183201,36.0010721 54.1841062,35.9885664 C53.8404366,35.9703293 53.4960854,36.0079991 53.1644867,36.1001062 C52.5315777,36.2543499 51.9271597,36.5080664 51.3737876,36.8517876 C51.0954206,37.0047583 50.8592538,37.2242643 50.6863628,37.4907168 C50.5840543,37.6950236 50.5313056,37.9205554 50.5323894,38.1490442 C50.5057168,38.8655664 50.7433451,39.6196726 51.3628761,40.1216018 C50.9846106,40.2792124 50.8573097,40.6659646 50.7688053,41.0090708 C50.6269558,41.5570708 50.4851062,42.1135575 50.5384513,42.6712566 C50.5651239,42.9598053 50.6439292,43.248354 50.6014956,43.5356903 C50.5674799,43.6709748 50.5487726,43.8096529 50.5457257,43.949115 C50.58218,44.1062189 50.7101714,44.2255817 50.8694336,44.251 L50.8694336,44.251 Z" id="Path" fill="#454B69"></path>
            <g id="Group" opacity="0.1" transform="translate(50.435398, 37.705310)" fill="#000000">
                <path d="M12.7579735,3.97421239 C12.7035382,4.09302453 12.6297966,4.20199824 12.5397434,4.29670796 C12.3712212,4.47371681 12.1469292,4.61071681 11.9735575,4.78166372 C11.4546549,5.30056637 11.4655664,6.05952212 11.0521416,6.63904425 C11.0135475,6.70458307 10.9523142,6.75374216 10.8799823,6.77725664 C10.7223717,6.81847788 10.5865841,6.67541593 10.5162655,6.54932743 C10.4361475,6.39580335 10.3754649,6.23289729 10.3356195,6.06437168 C10.3271327,6.10680531 10.318646,6.14923894 10.3113717,6.18561062 C10.2401263,6.61582301 10.312111,7.05752795 10.5162655,7.44285841 C10.5829469,7.56409735 10.7187345,7.71079646 10.8799823,7.67078761 C10.9521881,7.64638254 11.0132634,7.59692018 11.0521416,7.53136283 C11.4655664,6.95184071 11.4546549,6.19773451 11.9735575,5.67519469 C12.1469292,5.50061062 12.3712212,5.36482301 12.5397434,5.19023894 C12.7987945,4.92745536 12.908956,4.5523601 12.8331416,4.19123009 C12.8145265,4.11681804 12.7893727,4.0441964 12.7579735,3.97421239 Z" id="Path"></path>
                <path d="M11.6280265,0.385539823 C11.5555684,0.420364079 11.49241,0.471888095 11.4437434,0.535876106 C11.4195152,0.59826732 11.4195152,0.667467193 11.4437434,0.729858407 C11.4915863,0.918247777 11.5527641,1.10299683 11.6268142,1.28270796 L11.6268142,1.28270796 C11.9175555,1.08778902 12.0182712,0.707249723 11.8620177,0.394026549 C11.8384117,0.344094462 11.8099879,0.296585985 11.7771504,0.252176991 C11.7341007,0.30355793 11.6838775,0.348472994 11.6280265,0.385539823 Z" id="Path"></path>
                <path d="M0.934752212,1.50942478 C0.505212195,1.15550563 0.222249691,0.6548132 0.140637168,0.104265487 C0.118889255,0.212913069 0.106718668,0.323259721 0.104265487,0.434035398 C0.0764421678,0.963426401 0.215998298,1.48814048 0.503141593,1.93376106 C0.589968641,1.74407573 0.743618571,1.5930154 0.934752212,1.50942478 L0.934752212,1.50942478 Z" id="Path"></path>
                <path d="M10.3150088,5.30056637 C10.3610796,5.02777876 10.4629204,4.7380177 10.324708,4.48826549 C10.1707345,4.20941593 9.77792035,4.08817699 9.41784071,4.01785841 C9.05776106,3.94753982 8.6649469,3.88813274 8.4139823,3.66384071 C8.28878253,3.53534286 8.18629532,3.38653144 8.11088496,3.22374336 C7.93993805,2.92185841 7.70230973,2.61754867 7.33131858,2.4890354 C6.74088496,2.28171681 6.05588496,2.57875221 5.42544248,2.47569912 C5.24358407,2.44538938 5.07142478,2.38234513 4.88835398,2.35446018 C4.57985804,2.30938113 4.26504142,2.33932406 3.97057522,2.44175221 C3.10856637,2.72545133 2.54723009,3.44076106 2.29020354,4.17910619 C2.03317699,4.91745133 2.02711504,5.6970177 1.94588496,6.46324779 C1.92527434,6.64995575 1.80161062,6.89970796 1.58216814,6.85363717 C1.55913274,6.55417699 1.53124779,6.24744248 1.3469646,5.98435398 C1.13911882,5.69748562 0.777635866,5.56594999 0.434035398,5.65215929 C0.33216741,5.62938821 0.241587657,5.57143434 0.178221239,5.48848673 C0.191549489,5.59962839 0.191549489,5.71196453 0.178221239,5.82310619 C0.144205593,5.95839069 0.125498273,6.09706888 0.122451327,6.23653097 C0.154403498,6.39526618 0.279675235,6.51861805 0.438884956,6.54811504 C0.782738796,6.46216485 1.14428078,6.5942021 1.35181416,6.88152212 C1.53609735,7.13976106 1.5639823,7.45134513 1.5870177,7.74959292 C1.80646018,7.79566372 1.93012389,7.54712389 1.95073451,7.35920354 C2.0319646,6.59418584 2.03802655,5.81461947 2.2950531,5.07506195 C2.55207965,4.33550442 3.11341593,3.62019469 3.97542478,3.33770796 C4.26997231,3.23565317 4.58469811,3.20571887 4.89320354,3.25041593 C5.07627434,3.28072566 5.24843363,3.3449823 5.43029204,3.37165487 C6.06073451,3.47592035 6.74573451,3.17767257 7.33616814,3.38499115 C7.70715929,3.5159292 7.94236283,3.81781416 8.11573451,4.11969912 C8.19114488,4.28248719 8.29363208,4.43129861 8.41883186,4.55979646 C8.66979646,4.78530088 9.06261062,4.84349558 9.42269027,4.91381416 C9.78276991,4.98413274 10.1501239,5.09809735 10.3113717,5.35512389 C10.3053097,5.33693805 10.3113717,5.31875221 10.3150088,5.30056637 Z" id="Path"></path>
                <path d="M0.173371681,4.92351327 C0.193340998,4.69767066 0.179859374,4.47011717 0.133362832,4.24821239 C0.0978334623,4.48249398 0.0901014301,4.72015224 0.110327434,4.95624779 C0.110327434,5.01686726 0.123663717,5.07748673 0.132150442,5.13689381 C0.145486726,5.06536283 0.163672566,4.99504425 0.173371681,4.92351327 Z" id="Path"></path>
            </g>
            <rect id="Rectangle" fill="#444053" opacity="0.6" x="42.3123894" y="56.8149912" width="29.0973451" height="1"></rect>
            <ellipse id="Oval" fill="#AB6ACB" cx="116.035363" cy="91.9645841" rx="7.21007965" ry="1.38697345"></ellipse>
            <ellipse id="Oval" fill="#3F3D56" cx="115.915336" cy="91.3753628" rx="1" ry="1.09842478"></ellipse>
            <ellipse id="Oval" fill="#3F3D56" cx="115.915336" cy="90.0320354" rx="1" ry="1.09842478"></ellipse>
            <ellipse id="Oval" fill="#3F3D56" cx="115.915336" cy="88.6899204" rx="1" ry="1.09842478"></ellipse>
            <ellipse id="Oval" fill="#3F3D56" cx="115.915336" cy="87.3465929" rx="1" ry="1.09842478"></ellipse>
            <ellipse id="Oval" fill="#3F3D56" cx="115.915336" cy="86.0032655" rx="1" ry="1.09842478"></ellipse>
            <ellipse id="Oval" fill="#3F3D56" cx="115.915336" cy="84.6599381" rx="1" ry="1.09842478"></ellipse>
            <ellipse id="Oval" fill="#3F3D56" cx="115.915336" cy="83.3166106" rx="1" ry="1.09842478"></ellipse>
            <path d="M119.056637,74.1266991 C119.171085,73.9802955 119.275585,73.8263808 119.369434,73.6659912 L117.162885,73.3022743 L119.548867,73.3204602 C120.010616,72.3139205 120.038235,71.1618103 119.625248,70.1343009 L116.426965,71.7952743 L119.37792,69.6263097 C118.624339,68.3234175 117.206288,67.5503974 115.702909,67.6229552 C114.19953,67.695513 112.862514,68.6015013 112.237906,69.9709093 C111.613298,71.3403173 111.805668,72.9438823 112.736451,74.1266991 C112.558643,74.3524627 112.405039,74.5962781 112.278168,74.8541327 L115.141832,76.3417345 L112.089035,75.3172655 C111.653603,76.60432 111.897089,78.0241979 112.736451,79.092646 C111.440804,80.7409369 111.629346,83.1081712 113.169566,84.5305949 C114.709785,85.9530186 117.084516,85.9530186 118.624735,84.5305949 C120.164955,83.1081712 120.353497,80.7409369 119.05785,79.092646 C120.204041,77.6339349 120.204041,75.5805606 119.05785,74.1218496 L119.056637,74.1266991 Z" id="Path" fill="#AB6ACB"></path>
            <path d="M111.876804,76.6120973 C111.875149,77.513755 112.178048,78.389558 112.736451,79.0974956 C111.440804,80.7457865 111.629346,83.1130207 113.169566,84.5354444 C114.709785,85.9578681 117.084516,85.9578681 118.624735,84.5354444 C120.164955,83.1130207 120.353497,80.7457865 119.05785,79.0974956 C119.59615,78.4149204 111.876804,76.1610885 111.876804,76.6120973 Z" id="Path" fill="#000000" opacity="0.1"></path>
            <ellipse id="Oval" fill="#AB6ACB" opacity="0.1" cx="35.159292" cy="98.2714336" rx="12.0026549" ry="2.5460177"></ellipse>
            <path d="M39.1783628,97.9756106 C38.935885,97.8871062 38.6764336,97.9016549 38.4230442,97.8737699 C37.8969183,97.8129674 37.407037,97.5752937 37.033646,97.1996814 C36.7935137,96.9568911 36.6046763,96.668275 36.4783717,96.3510088 C36.5583894,96.3801062 36.6384071,96.4104159 36.7208496,96.4431504 C36.4783717,95.8769646 36.7329735,95.2416726 36.9560531,94.6694248 C37.3343186,93.6995133 37.6919735,92.7243481 38.0290177,91.7439292 C38.8776903,89.2597434 39.6051239,86.6761416 39.5893628,84.0331327 C39.5893628,83.0777699 39.4135664,82.1745398 39.3796195,81.2203894 C39.3541593,80.512354 39.4632743,79.805531 39.4584248,79.0962832 C39.4584248,78.9968673 39.4584248,78.8986637 39.4511504,78.7992478 C39.8907112,78.4144467 40.1267538,77.8474071 40.0900796,77.2643628 C40.0777596,77.1144741 40.0563008,76.9654772 40.025823,76.8182035 C39.9828915,76.5623584 39.9262315,76.3090073 39.8560885,76.0592478 C39.7760708,75.7961593 39.6669558,75.5439823 39.5736018,75.2869558 C39.3929558,74.7886637 39.2705044,74.2697611 39.116531,73.7629823 C39.1735737,73.7688296 39.2292731,73.7839831 39.2814159,73.8078407 C39.2425826,73.7622833 39.2158919,73.7076509 39.203823,73.6490177 C39.1132917,73.3263976 39.0643993,72.9935223 39.0583363,72.6584956 L39.1613894,72.6124248 C39.2078033,72.2853182 39.190928,71.9523399 39.1116814,71.6316018 C39.1698761,71.1114867 39.2608053,70.5877345 39.3165752,70.0700442 C39.3371858,69.8760619 39.3286991,69.6323717 39.1504779,69.5850885 C39.1141062,69.3074513 39.0995575,69.026177 39.0850088,68.746115 C39.0340885,67.7689292 38.9835723,66.7921475 38.9334602,65.8157699 C38.8825398,64.8349469 38.8316195,63.8553363 38.8122212,62.8733009 C38.798885,62.2501327 38.7916106,61.6051416 38.6436991,61.008646 C38.6692597,60.722855 38.6400439,60.4348117 38.5576195,60.1599735 C38.332115,59.4458761 37.631354,58.8796903 36.9208938,58.9196991 C36.7090075,58.616529 36.4470207,58.3516722 36.146177,58.1364956 C36.2880265,57.8188496 36.4577611,57.4915044 36.5971858,57.2344779 C37.7344071,56.8646991 38.5661062,55.7432389 38.5661062,54.4096106 C38.5677844,53.9214339 38.4535141,53.4398363 38.2326991,53.0044513 C38.2535627,52.9509469 38.271373,52.8963015 38.2860442,52.8407788 C38.3469261,52.578942 38.3279225,52.3048668 38.2314867,52.0539381 C38.1973587,51.957594 38.1568562,51.8636283 38.1102478,51.7726637 C38.0787257,51.7120442 38.0447788,51.6514248 38.0096195,51.5932301 L37.9477876,51.4998761 C37.9102035,51.4428938 37.8714071,51.3883363 37.8265487,51.3349912 C37.7404406,51.219375 37.6481653,51.1084827 37.5501239,51.0027965 C37.4293974,50.8721394 37.296212,50.7535719 37.1524602,50.6487788 C36.9575011,50.5038808 36.7345576,50.4010791 36.4977699,50.3468938 C36.360849,50.3198588 36.2214698,50.3072618 36.0819204,50.3093097 C35.9982655,50.3093097 35.9133982,50.3093097 35.8297434,50.3165841 C35.6600088,50.3262832 35.4914867,50.3384071 35.3229646,50.3371947 C35.2671947,50.3371947 35.2102124,50.3371947 35.1544425,50.328708 C34.8577808,50.2891646 34.5644083,50.2279778 34.2766726,50.1456372 L34.1311858,50.1153274 C34.0814779,50.1056283 34.0329823,50.0971416 33.9832743,50.0910796 C33.8502695,50.0733056 33.7161507,50.0652018 33.5819735,50.0666271 L33.4473982,50.0666271 C33.3129841,50.0733029 33.1790202,50.0870636 33.0460973,50.1080531 L32.9127345,50.1286637 C32.5759681,50.1814027 32.2477464,50.27885 31.9367611,50.4184248 C31.8967522,50.4366106 31.855531,50.4572212 31.8155221,50.4790442 L31.7912743,50.4923805 C31.7585398,50.509354 31.7258053,50.5275398 31.6942832,50.5469381 L31.6760973,50.5578496 L31.5730442,50.6233186 L31.5645575,50.6293805 C30.6019204,51.2767965 30.0333097,52.5037345 29.8890354,53.7209735 C29.7277876,55.0873363 30.0102743,56.4646106 30.2927611,57.8091504 L30.5473628,59.0215398 C30.5582743,59.0760973 30.5703982,59.1294425 30.5813097,59.184 C30.2233066,59.4777524 29.9479534,59.8596536 29.7823451,60.2921239 C29.5398673,60.8983186 29.5338053,61.5542212 29.5532035,62.2113363 C29.5532035,62.3446991 29.5604779,62.4780619 29.5738142,62.6114248 C29.5435044,62.8636018 29.5168319,63.1169912 29.4998584,63.3715929 C29.4234779,64.5476106 29.5665398,65.7296903 29.5289558,66.9081327 C29.4998584,67.8162124 29.3628584,68.7267168 29.4295398,69.6287345 C29.4877345,70.4289115 29.7023274,71.2048407 29.9144956,71.9771327 L30.2200177,73.0779823 C30.2299235,73.1349428 30.2565052,73.1876841 30.2963982,73.229531 C30.3465634,73.2632186 30.4079569,73.2758457 30.4673451,73.2646903 C30.2686013,73.7161552 30.1024822,74.1812887 29.9702655,74.6565133 C29.8789157,74.9475596 29.8187665,75.2474929 29.7908319,75.5512566 C29.750823,76.106531 29.8793363,76.6581681 30.0078496,77.1976814 C30.2018319,78.005941 30.3950059,78.8174336 30.5873717,79.6321593 C30.7231593,80.2019823 30.8585428,80.7714012 30.9935221,81.3404159 C31.2602478,82.4630885 31.5281858,83.5930354 31.5778938,84.7484425 C31.6056089,85.3287007 31.5649159,85.9102042 31.4566549,86.4809469 C31.1068786,88.1901455 31.0560136,89.9470387 31.3063186,91.6736106 C31.5086561,93.130276 31.8368243,94.5666711 32.2871416,95.9666814 C32.3853451,95.9145487 32.4847611,95.8660531 32.5866018,95.8211947 L32.5441681,95.9 C32.4043392,96.1424779 32.2750177,96.3910177 32.1562035,96.6456195 C32.0761141,96.8110878 32.006862,96.9815856 31.948885,97.1560354 C31.7936991,97.6409912 31.7694513,98.157469 31.7476283,98.667885 C31.7365238,98.7660033 31.7451807,98.8653519 31.7730885,98.9600708 C31.8397699,99.1431416 32.0313274,99.2364956 32.2095487,99.2874159 C32.7333009,99.4365398 33.2776637,99.3831947 33.8220265,99.3128761 C33.824548,99.3249134 33.8282014,99.3366856 33.8329381,99.3480354 C33.8996195,99.5311062 34.0899646,99.6244602 34.2693982,99.6753805 C35.0186549,99.8887611 35.8091327,99.6875044 36.5814248,99.6147611 C37.3537168,99.5420177 38.1126726,99.5953628 38.8558673,99.4171416 C38.9666362,99.393467 39.0730038,99.3525564 39.1710885,99.2959027 C39.3621735,99.1622463 39.5023457,98.9678 39.5687522,98.7442655 C39.5920177,98.6863484 39.6075093,98.6256048 39.614823,98.5636195 C39.6451327,98.2981062 39.4184159,98.064115 39.1783628,97.9756106 Z M36.6141593,86.7476726 C36.5723554,87.0317042 36.4907266,87.308426 36.3716814,87.5696726 C35.7884694,88.8098463 35.3702727,90.1210929 35.1277699,91.4699292 C34.9686487,92.3609629 34.8766526,93.2626862 34.8525575,94.1674956 C34.8404336,94.8343097 34.8658938,95.532646 34.5882566,96.1315664 L34.688885,96.1158053 C34.6573628,96.174 34.6270531,96.2370442 34.5979558,96.283115 L34.5834071,96.3097876 C34.4154905,96.0238718 34.3031879,95.7087663 34.2524248,95.3810973 C34.2524248,95.3701858 34.1978673,95.3616991 34.1142124,95.3568496 C33.7714777,93.4417456 33.6526734,91.4932743 33.7601947,89.5507168 C33.7618293,89.3150954 33.7944392,89.0807118 33.8571858,88.8535929 C33.9190177,88.6583982 34.0232832,88.480177 34.0996637,88.2910442 C34.2207787,87.9733097 34.3022201,87.6418431 34.3421416,87.3041593 C34.4741884,86.4411256 34.5253309,85.567644 34.4949027,84.6950973 C34.4658053,83.871885 34.6561504,83.0535221 34.8186106,82.2339469 C34.8962035,81.8447699 34.9677345,81.4543805 35.006531,81.0639912 L35.0138053,80.9851858 C35.735137,82.1751761 36.2392463,83.4838899 36.5026195,84.8502832 C36.6490544,85.4715648 36.6867919,86.1135128 36.6141593,86.7476726 Z M31.4251327,69.2262212 L31.4639292,69.2601681 C31.5811179,69.3632671 31.6890305,69.4764537 31.7864248,69.5984248 C31.8348864,69.6515696 31.8698204,69.7156152 31.8882655,69.7851327 C31.9246372,69.9621416 31.7779381,70.1124779 31.6579115,70.2422035 C31.6057566,70.2984312 31.5567808,70.3575261 31.5112124,70.4192124 C31.4853481,70.0215487 31.4578673,69.623885 31.4287699,69.2262212 L31.4251327,69.2262212 Z" id="Shape" fill="url(#linearGradient-1)"></path>
            <path d="M29.7471858,61.6269646 L29.613823,62.6562832 C29.5689646,63.0054513 29.5241062,63.3534071 29.4998584,63.7037876 C29.4186283,64.8701062 29.5689646,66.0412743 29.5301681,67.2100177 C29.498646,68.1096106 29.3555841,69.0079912 29.4246903,69.9063717 C29.4865221,70.6992743 29.7120265,71.470354 29.937531,72.2341593 L30.2576018,73.3253097 C30.2685417,73.382331 30.2964292,73.4347257 30.3376195,73.475646 C30.3992922,73.5121537 30.4725357,73.5238554 30.5425133,73.5083805 L31.9634336,73.3798673 C31.8725044,72.9628053 31.7718761,72.5311947 31.7209558,72.1032212 C31.6821593,71.7686018 31.6591239,71.4315575 31.6348761,71.0945133 C31.559708,70.0445841 31.4736283,68.9946549 31.3923982,67.9423009 L31.2408496,66.099469 C31.1765929,65.299292 31.1099115,64.4954779 30.9086549,63.7183363 C30.7067089,62.9333611 30.3068126,62.2132973 29.7471858,61.6269646 Z" id="Path" fill="#AB6ACB"></path>
            <path d="M29.7471858,61.6269646 L29.613823,62.6562832 C29.5689646,63.0054513 29.5241062,63.3534071 29.4998584,63.7037876 C29.4186283,64.8701062 29.5689646,66.0412743 29.5301681,67.2100177 C29.498646,68.1096106 29.3555841,69.0079912 29.4246903,69.9063717 C29.4865221,70.6992743 29.7120265,71.470354 29.937531,72.2341593 L30.2576018,73.3253097 C30.2685417,73.382331 30.2964292,73.4347257 30.3376195,73.475646 C30.3992922,73.5121537 30.4725357,73.5238554 30.5425133,73.5083805 L31.9634336,73.3798673 C31.8725044,72.9628053 31.7718761,72.5311947 31.7209558,72.1032212 C31.6821593,71.7686018 31.6591239,71.4315575 31.6348761,71.0945133 C31.559708,70.0445841 31.4736283,68.9946549 31.3923982,67.9423009 L31.2408496,66.099469 C31.1765929,65.299292 31.1099115,64.4954779 30.9086549,63.7183363 C30.7067089,62.9333611 30.3068126,62.2132973 29.7471858,61.6269646 Z" id="Path" fill="#000000" opacity="0.1"></path>
            <path d="M32.2786549,96.6674425 C32.1952398,96.8315707 32.1223493,97.0008387 32.0604248,97.1742212 C31.8979646,97.653115 31.8737168,98.1671681 31.849469,98.6727345 C31.8387537,98.7701322 31.8478261,98.8686907 31.8761416,98.9624956 C31.9464602,99.144354 32.1477168,99.2364956 32.3356372,99.2862035 C33.1224779,99.4983717 33.9517522,99.2995398 34.7604159,99.2267965 C35.5690796,99.1540531 36.3680442,99.2073982 37.148823,99.0316018 C37.2641197,99.0093426 37.3755976,98.9705499 37.4798053,98.9164248 C37.6774992,98.7877298 37.8251233,98.5951766 37.8980796,98.3708496 C37.9215909,98.3133538 37.9374865,98.2530317 37.9453628,98.1914159 C37.970823,97.9246903 37.7392566,97.6943363 37.4870796,97.6070442 C37.2349027,97.5197522 36.9596903,97.5330885 36.694177,97.5064159 C35.5698501,97.3913822 34.662898,96.535645 34.4827788,95.4198938 C34.4730796,95.3616991 33.1685487,95.3968584 33.0279115,95.4720265 C32.8678761,95.560531 32.770885,95.7799735 32.6799558,95.9290973 C32.5368938,96.1691504 32.4031268,96.4152655 32.2786549,96.6674425 Z" id="Path" fill="#A26565"></path>
            <path d="M32.2786549,96.6674425 C32.1952398,96.8315707 32.1223493,97.0008387 32.0604248,97.1742212 C31.8979646,97.653115 31.8737168,98.1671681 31.849469,98.6727345 C31.8387537,98.7701322 31.8478261,98.8686907 31.8761416,98.9624956 C31.9464602,99.144354 32.1477168,99.2364956 32.3356372,99.2862035 C33.1224779,99.4983717 33.9517522,99.2995398 34.7604159,99.2267965 C35.5690796,99.1540531 36.3680442,99.2073982 37.148823,99.0316018 C37.2641197,99.0093426 37.3755976,98.9705499 37.4798053,98.9164248 C37.6774992,98.7877298 37.8251233,98.5951766 37.8980796,98.3708496 C37.9215909,98.3133538 37.9374865,98.2530317 37.9453628,98.1914159 C37.970823,97.9246903 37.7392566,97.6943363 37.4870796,97.6070442 C37.2349027,97.5197522 36.9596903,97.5330885 36.694177,97.5064159 C35.5698501,97.3913822 34.662898,96.535645 34.4827788,95.4198938 C34.4730796,95.3616991 33.1685487,95.3968584 33.0279115,95.4720265 C32.8678761,95.560531 32.770885,95.7799735 32.6799558,95.9290973 C32.5368938,96.1691504 32.4031268,96.4152655 32.2786549,96.6674425 Z" id="Path" fill="#000000" opacity="0.1"></path>
            <path d="M34.4427699,97.0529823 C34.3588392,97.2164519 34.2859332,97.3853508 34.2245398,97.5585487 C34.0608673,98.0435044 34.0366195,98.5514956 34.0135841,99.0570619 C34.002282,99.1544535 34.0113653,99.2531313 34.0402566,99.346823 C34.1093628,99.5286814 34.3106195,99.620823 34.4985398,99.6717434 C35.2853805,99.8826991 36.1158673,99.6838673 36.9233186,99.6111239 C37.7307699,99.5383805 38.5321593,99.5917257 39.3117257,99.4159292 C39.4275581,99.3925176 39.5391598,99.3516379 39.642708,99.2946903 C39.8406732,99.1662886 39.9883796,98.973628 40.0609823,98.749115 C40.0844935,98.6916193 40.1003892,98.6312972 40.1082655,98.5696814 C40.1337257,98.3041681 39.9021593,98.0726018 39.6499823,97.9853097 C39.3978053,97.8980177 39.1225929,97.9125664 38.8570796,97.8846814 C37.7333158,97.769374 36.8266882,96.91444 36.6456814,95.7993717 C36.6359823,95.741177 35.3314513,95.7751239 35.1908142,95.850292 C35.0295664,95.9387965 34.9325752,96.1582389 34.841646,96.3073628 C34.7034336,96.5534779 34.567646,96.8008053 34.4427699,97.0529823 Z" id="Path" fill="#A26565"></path>
            <path d="M40.0840177,84.1737699 C40.1009912,86.7937434 39.3396106,89.3543097 38.4460796,91.811823 C38.0920619,92.7865841 37.7166254,93.7528584 37.3197699,94.710646 C37.0845664,95.2780442 36.8190531,95.9084867 37.0712301,96.4686106 C36.3437965,96.1921858 35.6042389,96.0297257 34.8392212,96.1570265 C35.1301947,95.5629558 35.1023097,94.8718938 35.115646,94.2172035 C35.1403365,93.3199438 35.2360099,92.4260461 35.4017699,91.543885 C35.6585586,90.2012487 36.0987368,88.9002958 36.7099381,87.6775752 C36.8334874,87.4197342 36.9188455,87.1452815 36.9633274,86.8628496 C37.0627434,86.2396814 36.9851504,85.5995398 36.8554248,84.9824336 C36.576342,83.6193997 36.0459817,82.3202225 35.2914425,81.1512832 L35.2841681,81.2288761 C35.2388808,81.618775 35.173323,82.0060515 35.0877611,82.3891327 C34.9168142,83.2002212 34.7167699,84.0125221 34.7470796,84.8284602 C34.7787044,85.6936318 34.7251009,86.5598158 34.5870442,87.4144867 C34.5425862,87.7500786 34.4549737,88.0785237 34.3263805,88.3916726 C34.2427257,88.5795929 34.1336106,88.7553894 34.0681416,88.9505841 C34.0026059,89.1751651 33.9683365,89.4077071 33.9663009,89.641646 C33.8693097,91.6142035 33.9663009,93.6170708 34.3688142,95.5508319 C33.6935133,95.4974867 33.0182124,95.6926814 32.4144425,95.9957788 C31.942365,94.6115361 31.597428,93.1871492 31.3839115,91.740292 C31.1208472,90.0291786 31.1742702,88.2843017 31.5415221,86.5924867 C31.6559788,86.0282786 31.6987506,85.451878 31.668823,84.8769558 C31.6166903,83.7312478 31.3354159,82.611 31.055354,81.4980265 L30.6285929,79.8006814 C30.426528,78.9924218 30.2244631,78.1877994 30.0223982,77.3868142 C29.887823,76.8521504 29.7520354,76.3053628 29.794469,75.7549381 C29.824065,75.4529634 29.8875074,75.1552719 29.9836018,74.867469 C30.2862989,73.8886045 30.7390571,72.9626384 31.3257168,72.1226195 C33.6619912,72.2535575 36.0261504,72.0353274 38.3575752,71.8558938 C38.4706205,71.8335744 38.5879257,71.8534127 38.6873451,71.9116637 C38.7668094,71.9923861 38.8142089,72.0992503 38.820708,72.2123363 L39.6972655,77.1831327 C39.8391949,77.874004 39.9223388,78.5756576 39.9458053,79.2805664 C39.9458053,79.9837522 39.8366903,80.6845133 39.8633628,81.3864867 C39.8997345,82.3321504 40.0791681,83.2268938 40.0840177,84.1737699 Z" id="Path" fill="#454B69"></path>
            <path d="M35.2865929,81.2288761 C35.2413056,81.618775 35.1757478,82.0060515 35.0901858,82.3891327 C34.5821947,81.5101504 34.0341947,80.6529912 33.5662124,79.7521858 C33.4449735,79.5206195 33.3310088,79.2854159 33.2158319,79.0502124 L32.8703009,78.3470265 C32.8060442,78.2148761 32.7417876,78.0827257 32.6835929,77.9481504 C32.588837,77.7548264 32.5160436,77.5514927 32.4665752,77.3419558 C32.6363097,77.3104336 33.0557965,77.7687168 33.181885,77.8887434 C33.4390774,78.1434134 33.6819292,78.4121694 33.9093186,78.6937699 C34.185492,79.0067943 34.4391137,79.3390145 34.6682743,79.6879292 C34.9616935,80.1620816 35.1708836,80.683416 35.2865929,81.2288761 Z" id="Path" fill="#000000" opacity="0.1"></path>
            <path d="M37.2324779,57.1132389 C37.2324779,57.1132389 35.9352212,59.1803628 36.1752743,59.6131858 C36.4153274,60.0460088 32.0895221,59.2288584 32.0895221,59.2288584 C32.0895221,59.2288584 34.4451947,57.1617345 34.2039292,56.2960885 C33.9626637,55.4304425 37.2324779,57.1132389 37.2324779,57.1132389 Z" id="Path" fill="#EFB7B9"></path>
            <circle id="Oval" fill="#EFB7B9" cx="36.0794956" cy="54.8060619" r="2.93276991"></circle>
            <path d="M37.2761239,59.2809912 C36.9620902,58.8452593 36.536046,58.5025807 36.0431239,58.2892566 C35.7590879,58.1875313 35.4653641,58.1152176 35.1665664,58.0734513 L33.9966106,57.8673451 C33.7104867,57.8164248 33.4037522,57.7691416 33.1370265,57.8867434 C33.002164,57.9559094 32.8793463,58.0463851 32.7733097,58.1546814 C32.3671593,58.5317345 31.9731327,58.9451593 31.4627168,59.1633894 C31.323292,59.2227965 31.1778053,59.2664425 31.0383805,59.3258496 C30.4673451,59.5683274 30.0405841,60.0848053 29.7993186,60.6594779 C29.5447168,61.2583982 29.5374425,61.9094513 29.5568407,62.5605044 C29.5565032,62.785259 29.5788435,63.0094741 29.6235221,63.2297434 C29.6818828,63.4395415 29.7560507,63.6446178 29.8453894,63.8432124 C30.0065895,64.2682428 30.1418179,64.7026744 30.2503274,65.1441062 C30.5534248,66.3039587 30.8056018,67.4759351 31.0068584,68.6600354 C31.0239316,68.8296541 31.0737518,68.9943491 31.1535575,69.1449912 C31.266585,69.2957772 31.4033435,69.4272127 31.5584956,69.5341681 C31.6815691,69.6352134 31.7948242,69.7476566 31.8967522,69.87 C31.9475485,69.9199685 31.9854148,69.9815533 32.0070796,70.0494336 C32.0446637,70.2240177 31.8858407,70.374354 31.7646018,70.5016549 C31.5036957,70.7678744 31.3150734,71.0962943 31.2166018,71.4558053 C31.1557915,71.52959 31.1246681,71.6233924 31.1293097,71.7188938 C31.1545641,71.785323 31.1641079,71.8566941 31.1571947,71.9274248 C31.1333296,71.9917731 31.0956731,72.0501199 31.0468673,72.0983717 C30.9336987,72.2458492 30.8895233,72.4349199 30.9256283,72.6172743 C31.8343799,73.012138 32.8069604,73.2396759 33.7965664,73.2889381 C34.0390442,73.3010619 34.2815221,73.3010619 34.524,73.3301593 C34.6961593,73.3519823 34.8658938,73.3871416 35.0380531,73.4077522 C35.287887,73.4312028 35.5390236,73.4376837 35.7897345,73.4271504 C37.0954779,73.4004779 38.4388053,73.3677434 39.6378584,72.8500531 C39.7506106,72.2353717 39.5069204,71.6085664 39.3541593,71.0023717 C39.1116814,70.0324602 39.0510619,69.0395133 38.8692035,68.061115 C38.7479646,67.3930885 38.5661062,66.7347611 38.4630531,66.061885 C38.36,65.3890088 38.3418142,64.691885 38.5212478,64.0371947 C38.6849204,63.4576726 38.7346283,62.8660265 38.9043628,62.2877168 C39.0740973,61.7094071 39.1929115,61.0826018 39.001354,60.510354 C38.7588761,59.8023186 38.0229558,59.2409823 37.2761239,59.2809912 Z" id="Path" fill="#AB6ACB"></path>
            <path d="M38.7164425,53.2505664 C38.8595044,52.7304513 38.5782301,52.1885133 38.2436106,51.7653894 C37.8798938,51.3107434 37.4167611,50.9009558 36.8481504,50.7869912 C36.3862301,50.6936372 35.9073363,50.8063894 35.4369292,50.7688053 C35.0210796,50.7360708 34.6209912,50.5857345 34.2075664,50.5263274 C33.8324585,50.485896 33.4534658,50.5001899 33.082469,50.5687611 C32.7303966,50.621101 32.386242,50.71722 32.058,50.854885 C30.8092389,51.4089469 30.0781681,52.7740973 29.9084336,54.1283363 C29.7386991,55.4825752 30.0357345,56.8477257 30.3315575,58.1801416 L30.5994956,59.3852566 C30.8783451,60.6400796 31.1571947,61.8997522 31.2311504,63.1824602 C31.3051062,64.4651681 31.1668938,65.781823 30.6395044,66.9529912 C32.3450587,66.0368186 33.6665769,64.5407034 34.365177,62.7350885 C34.5543097,62.2392212 34.6949469,61.7239558 34.9059027,61.2365752 C35.0865487,60.8170885 35.318115,60.4194248 35.4781504,59.9914513 C35.6590429,59.5084233 35.7458745,58.9952531 35.7339646,58.4796018 C35.7242655,58.0916372 35.6600088,57.7060973 35.6709204,57.3181327 C35.6818319,56.9301681 35.7812478,56.5264425 36.0491858,56.2451681 C36.2916637,55.9966283 36.6250708,55.8814513 36.9318053,55.7202035 C37.4146761,55.4721614 37.8365945,55.1202178 38.1672301,54.6896726 C38.36,54.4374956 38.3709115,54.3259558 38.4194071,54.0398319 C38.4679027,53.753708 38.6412743,53.5257788 38.7164425,53.2505664 Z" id="Path" fill="#A26565"></path>
            <path d="M38.7200796,75.2808938 C38.7503894,75.5827788 38.6958319,75.8870885 38.7613009,76.1865487 C38.8110088,76.4096283 38.9261858,76.610885 38.9940796,76.829115 C39.0612492,77.0810927 39.0958818,77.3406333 39.0971327,77.6014071 C39.1068319,77.8196372 39.0898584,78.0863628 38.8958761,78.1882035 C38.8110088,78.2330619 38.7091681,78.2330619 38.6206637,78.2718584 C38.5321593,78.3106549 38.4569912,78.4161327 38.5079115,78.4985752 C38.5588319,78.5810177 38.6461239,78.5676814 38.7261416,78.5834425 C38.8061593,78.5992035 38.8922389,78.681646 38.8473805,78.7483274 C38.8291198,78.7701649 38.8045617,78.7858312 38.7770619,78.7931858 C38.6961185,78.8181135 38.6193099,78.8548836 38.5491327,78.9023009 C38.4792249,78.9531797 38.443277,79.0386142 38.4557788,79.1241681 C38.4656818,79.1648427 38.4936382,79.1987571 38.5316755,79.2162401 C38.5697127,79.2337231 38.6136558,79.2328556 38.6509735,79.213885 C38.6153995,79.2898952 38.5959959,79.3724639 38.5939912,79.4563628 C38.9043628,79.5897257 39.2523186,79.4151416 39.543292,79.2466195 C39.6691103,79.1764257 39.7905708,79.0986911 39.9070088,79.0138407 C40.3849204,78.6469219 40.650077,78.0671189 40.6150442,77.4656195 C40.601186,77.3168245 40.5781062,77.169033 40.5459381,77.0230973 C40.5011744,76.7688905 40.4416668,76.5175016 40.3677168,76.2702035 C40.2840619,76.0095398 40.1700973,75.761 40.0718938,75.5051858 C39.8633628,74.960823 39.7287876,74.391 39.5396549,73.8393628 C39.5270195,73.782171 39.4948703,73.731161 39.4487257,73.6950885 C39.4070152,73.6745278 39.3604891,73.6657255 39.3141504,73.6696283 C39.1018946,73.6584861 38.8891427,73.678087 38.6824956,73.727823 C38.5612566,73.7641947 38.3539381,73.8490619 38.2969558,73.9703009 C38.2399735,74.0915398 38.3309027,74.1933805 38.3854602,74.2940088 C38.5597156,74.5982607 38.6733508,74.933402 38.7200796,75.2808938 Z" id="Path" fill="#EFB7B9"></path>
            <path d="M38.5224602,60.5491504 C38.5847152,60.6128989 38.6370288,60.6856475 38.677646,60.7649558 C39.094708,61.5226991 39.0995575,62.428354 39.1189558,63.2927876 C39.1407788,64.2626991 39.1941239,65.2326106 39.247469,66.2085841 L39.406292,69.1183186 C39.4220531,69.3959558 39.4366018,69.6735929 39.4766106,69.9488053 C39.6633186,69.9960885 39.6705929,70.2385664 39.6499823,70.4337611 C39.5154071,71.6194779 39.182,72.840354 39.5287434,73.9812124 C39.542112,74.0397527 39.5700532,74.093967 39.6099735,74.138823 C39.4338951,74.0836452 39.2455313,74.0811168 39.0680354,74.1315487 C38.8946637,74.1679204 38.727354,74.232177 38.5527699,74.2721858 C38.332115,74.3218938 38.0823628,74.3437168 37.9320265,74.5146637 C37.7616445,74.0022342 37.6259542,73.4789152 37.5258761,72.9482566 C37.4434336,72.4633009 37.4203982,71.9637965 37.2239912,71.5152124 C37.1451858,71.3345664 37.0384956,71.1672566 36.9415044,70.993885 C36.4335133,70.0870177 36.1837611,69.0625487 35.9400708,68.0514159 C35.8307186,67.5720677 35.8044731,67.0775038 35.8624779,66.5892743 C35.897748,66.3665951 35.9180002,66.1417957 35.9230973,65.9163982 C35.9083381,65.6785166 35.8771457,65.4419405 35.8297434,65.2083628 C35.7267449,64.5228204 35.7751627,63.8230374 35.9715929,63.1582124 C36.1534513,62.5411062 36.3134867,61.8912655 36.6990265,61.3723628 C37.0845664,60.8534602 37.8786814,60.5576372 38.5224602,60.5491504 Z" id="Path" fill="#000000" opacity="0.1"></path>
            <path d="M38.6667345,60.4521593 C38.729004,60.5163482 38.7813125,60.5894982 38.8219204,60.669177 C39.2389823,61.425708 39.2438319,62.3325752 39.2632301,63.1970088 C39.2850531,64.1669204 39.3383982,65.1368319 39.3917434,66.1067434 L39.5505664,69.0164779 C39.5663274,69.294115 39.5808761,69.5717522 39.620885,69.8469646 C39.8075929,69.8942478 39.8148673,70.1367257 39.7930442,70.3319204 C39.6596814,71.5176372 39.3262743,72.7373009 39.6718053,73.8793717 C39.685174,73.937912 39.7131152,73.9921262 39.7530354,74.0369823 C39.576957,73.9818045 39.3885933,73.9792761 39.2110973,74.029708 C39.0377257,74.0660796 38.8704159,74.1303363 38.6958319,74.1691327 C38.475177,74.2200531 38.2254248,74.2406637 38.0750885,74.4116106 C37.9052517,73.8968242 37.7707677,73.3710406 37.6725752,72.8379292 C37.5901327,72.3529735 37.5670973,71.8546814 37.3706903,71.4060973 C37.2853958,71.2276608 37.1911126,71.0536618 37.0882035,70.8847699 C36.579,69.9779027 36.3304602,68.9522212 36.0867699,67.9410885 C35.9773939,67.4617436 35.9511481,66.9671756 36.009177,66.4789469 C36.1004926,66.0218839 36.0893127,65.5502582 35.9764425,65.0980354 C35.8734261,64.4128965 35.9218455,63.7135042 36.118292,63.0490973 C36.3001504,62.4319912 36.4601858,61.7821504 36.8457257,61.2632478 C37.2312655,60.7443451 38.0229558,60.4618584 38.6667345,60.4521593 Z" id="Path" fill="#AB6ACB"></path>
            <g id="Group" opacity="0.1" transform="translate(30.552212, 50.435398)" fill="#000000">
                <path d="M7.69139823,1.32999115 C7.32768142,0.875345133 6.86454867,0.465557522 6.29593805,0.35159292 C5.8340177,0.258238938 5.35512389,0.37099115 4.88471681,0.33340708 C4.46886726,0.300672566 4.06877876,0.150336283 3.65535398,0.0909292035 C3.28024608,0.0504977611 2.90125345,0.0647916641 2.53025664,0.133362832 C2.17818421,0.185702809 1.83402961,0.281821727 1.50578761,0.419486726 C1.32847619,0.498900628 1.15918069,0.595118937 1.00022124,0.706823009 C1.292394,0.59331486 1.59607416,0.512008257 1.90587611,0.464345133 C2.27645469,0.395686192 2.6550603,0.381391482 3.02976106,0.421911504 C3.44439823,0.475256637 3.84327434,0.624380531 4.26033628,0.657115044 C4.72953097,0.694699115 5.20842478,0.583159292 5.67155752,0.675300885 C6.24016814,0.789265487 6.70572566,1.20026549 7.06580531,1.6549115 C7.40163717,2.07682301 7.68169912,2.61876106 7.53984956,3.1400885 C7.46468142,3.4140885 7.29009735,3.65414159 7.24281416,3.93662832 C7.19553097,4.21911504 7.18340708,4.33429204 6.98942478,4.58646903 C6.74070209,4.90987053 6.43997636,5.18970115 6.09953097,5.41453097 C6.19288496,5.37088496 6.28866372,5.32723894 6.37959292,5.27995575 C6.86246372,5.03191366 7.28438208,4.67996998 7.6150177,4.24942478 C7.80778761,3.99724779 7.81869912,3.88570796 7.86719469,3.59958407 C7.91569027,3.31346018 8.08906195,3.07825664 8.16423009,2.80304425 C8.30729204,2.2950531 8.0260177,1.75311504 7.69139823,1.32999115 Z" id="Path"></path>
                <path d="M5.49697345,5.81704425 C5.54718981,5.76497278 5.60196585,5.71750022 5.66064602,5.67519469 C5.38058407,5.8109823 5.08597345,5.92979646 4.87138053,6.16015044 C4.60344248,6.44021239 4.50766372,6.84515044 4.49311504,7.23311504 C4.47856637,7.62107965 4.54767257,8.00661947 4.55615929,8.39337168 C4.56807477,8.90941828 4.48124552,9.42298651 4.30034513,9.90643363 C4.14030973,10.3344071 3.90874336,10.7308584 3.72809735,11.1515575 C3.51835398,11.6365133 3.37771681,12.1529912 3.18858407,12.6488584 C2.58248891,14.2143484 1.50625476,15.5536055 0.107902655,16.4824336 C0.100628319,16.4981947 0.0945663717,16.5151681 0.0872920354,16.5309292 C1.79284628,15.6147566 3.11436447,14.1186415 3.8129646,12.3130265 C4.00209735,11.8171593 4.14273451,11.3018938 4.35369027,10.8145133 C4.53433628,10.3950265 4.76590265,9.99736283 4.92593805,9.56938938 C5.10683056,9.08636137 5.19366208,8.57319117 5.18175221,8.05753982 C5.1720531,7.66957522 5.10779646,7.2840354 5.11870796,6.8960708 C5.12961947,6.50810619 5.2290354,6.09831858 5.49697345,5.81704425 Z" id="Path"></path>
            </g>
        </g>
    </g>
</svg>