<?xml version="1.0" encoding="UTF-8"?>
<svg width="137px" height="137px" viewBox="0 0 137 137" version="1.1" xmlns="http://www.w3.org/2000/svg" xmlns:xlink="http://www.w3.org/1999/xlink">
    <title>company_info_illustration</title>
    <g id="company_info_illustration" stroke="none" stroke-width="1" fill="none" fill-rule="evenodd">
        <g id="undraw_buy_house_560d-(5)" transform="translate(-765.000000, 87.000000)"></g>
        <g id="undraw_personal_file_222m" transform="translate(0.000000, 35.000000)" fill-rule="nonzero">
            <ellipse id="Oval" fill="#D0CDE1" cx="107.85062" cy="65.7545934" rx="29.0572606" ry="1.39279113"></ellipse>
            <path d="M107.778858,37.5447183 L109.968291,46.0591797 C109.968291,46.0591797 110.049382,52.0598481 110.535916,54.4114607 C111.022451,56.7630733 112.644259,62.4393821 112.644259,62.4393821 L114.590423,62.7637429 L114.184971,54.816911 C114.184971,54.816911 114.184971,50.032595 113.779521,48.978423 C113.37407,47.9242511 112.563169,37.139268 112.563169,37.139268 L107.778858,37.5447183 Z" id="Path" fill="#FFB8B8"></path>
            <path d="M107.778858,37.5447183 L109.968291,46.0591797 C109.968291,46.0591797 110.049382,52.0598481 110.535916,54.4114607 C111.022451,56.7630733 112.644259,62.4393821 112.644259,62.4393821 L114.590423,62.7637429 L114.184971,54.816911 C114.184971,54.816911 114.184971,50.032595 113.779521,48.978423 C113.37407,47.9242511 112.563169,37.139268 112.563169,37.139268 L107.778858,37.5447183 Z" id="Path" fill="#000000" opacity="0.1"></path>
            <path d="M113.849008,1.85729203 L113.849001,1.85729203 C111.14603,1.85729203 108.954839,4.28903317 108.954839,7.2887368 L108.954839,11.0998919 L110.126975,11.0998919 L110.805576,9.68782838 L110.635924,11.0998919 L118.169968,11.0998919 L118.786879,9.81619814 L118.632659,11.0998919 L119.480911,11.0998919 L119.480911,8.10745235 C119.480911,4.65558794 116.959418,1.85729203 113.849008,1.85729203 Z" id="Path" fill="#2F2E41"></path>
            <path d="M105.71106,36.2067323 C105.71106,36.2067323 104.737979,40.3423267 106.035421,40.7477783 C107.332863,41.1532299 107.008502,36.2067323 107.008502,36.2067323 L105.71106,36.2067323 Z" id="Path" fill="#FFB8B8"></path>
            <polygon id="Path" fill="#3F3D56" points="107.332916 15.204341 106.684128 15.9341636 106.846325 29.9627357 105.38668 36.6121738 108.630364 36.9365675 110.252079 23.5566562 109.765616 16.7451479"></polygon>
            <polygon id="Path" fill="#000000" opacity="0.1" points="107.332916 15.204341 106.684128 15.9341636 106.846325 29.9627357 105.38668 36.6121738 108.630364 36.9365675 110.252079 23.5566562 109.765616 16.7451479"></polygon>
            <circle id="Oval" fill="#FFB8B8" cx="113.415987" cy="7.08319502" r="3.48414931"></circle>
            <path d="M111.418408,9.1736846 C111.418408,9.1736846 112.440424,14.4695905 111.975871,15.0270552 C111.511318,15.5845198 116.900135,14.0050377 116.900135,14.0050377 C116.900135,14.0050377 115.134835,10.3815232 116.06394,8.33748953 L111.418408,9.1736846 Z" id="Path" fill="#FFB8B8"></path>
            <path d="M120.22619,32.3954973 C120.22619,32.3954973 121.199271,36.5310918 119.901829,36.9365434 C118.604387,37.341995 118.928748,32.3954973 118.928748,32.3954973 L120.22619,32.3954973 Z" id="Path" fill="#FFB8B8"></path>
            <path d="M112.725355,36.5716372 C112.725355,36.5716372 111.346822,44.8428286 111.427907,46.0591797 C111.508991,47.2755308 111.427907,47.4377112 111.427907,47.4377112 C111.427907,47.4377112 110.049375,51.0056761 109.643925,53.032933 C109.238474,55.0601898 108.346477,57.6550686 108.346477,57.6550686 C108.346477,57.6550686 107.292305,60.0066812 108.184296,60.0066812 C109.076288,60.0066812 110.292651,59.6823217 110.292651,59.6823217 C110.289465,58.745667 110.603908,57.835598 111.184643,57.1006972 C112.157724,55.8710868 115.076968,50.1136884 115.076968,49.3838747 C115.076968,48.654061 115.563509,46.5457221 115.563509,46.5457221 L117.428583,37.5447196 L112.725355,36.5716372 Z" id="Path" fill="#FFB8B8"></path>
            <path d="M107.049047,31.05751 C107.049047,31.05751 105.670516,38.031257 106.886872,38.1934399 C108.103228,38.3556228 109.806115,37.139268 111.995549,38.5177994 C114.184982,39.8963309 117.834037,39.5719714 117.834037,39.5719714 C117.834037,39.5719714 120.34783,33.1658527 118.077307,31.6251408 C115.806784,30.0844289 107.049047,31.05751 107.049047,31.05751 Z" id="Path" fill="#2F2E41"></path>
            <path d="M108.589759,59.0335963 C108.946655,58.8782349 109.3389,58.8221998 109.725021,58.8714159 C110.094517,58.9261789 110.471059,58.8392847 110.779193,58.6281459 C110.779193,58.6281459 110.130471,60.9797585 110.211567,61.8717501 C110.292663,62.7637416 109.968296,66.5749765 108.265403,66.1695236 C106.562511,65.7640707 106.075971,64.5477209 106.724692,62.4393758 C107.373412,60.3310306 107.211233,57.8983297 107.211233,57.8983297 C107.211233,57.8983297 108.394694,56.6759111 108.613865,56.8411253 C108.833036,57.0063394 108.589759,59.0335963 108.589759,59.0335963 Z" id="Path" fill="#2F2E41"></path>
            <path d="M114.022797,62.0339305 C114.022797,62.0339305 113.211895,60.2499486 112.238814,61.8717501 C111.265733,63.4935515 111.184643,63.8990031 111.184643,63.8990031 C111.184643,63.8990031 108.427579,66.4127961 110.373741,66.6560661 C112.319903,66.8993361 113.860616,66.5749765 113.860616,66.1695262 C113.860616,65.7640758 114.833698,65.8451654 114.914787,65.5208046 C114.995877,65.1964438 114.752607,62.1961109 114.752607,62.1961109 L114.022797,62.0339305 Z" id="Path" fill="#2F2E41"></path>
            <path d="M115.84733,11.8797043 L115.84733,11.8797043 C115.84733,11.8797043 112.441546,12.5284246 112.036096,12.44733 C111.944746,12.4312025 111.85239,12.4214085 111.75969,12.4180181 C110.96676,12.3819712 110.180426,12.5769738 109.496217,12.9793357 C108.366997,13.6352795 106.684144,14.8026449 106.684144,15.9342054 C106.684144,17.6370976 108.873577,20.556341 108.873577,20.556341 C108.873577,20.556341 106.846324,27.5300905 107.008503,28.1788121 C107.170682,28.8275337 105.792152,31.0169646 106.684142,31.7467758 C107.576133,32.4765869 116.090595,31.7467758 117.631307,32.4765869 C119.172019,33.2063981 118.442208,22.7457745 118.442208,22.7457745 C118.442208,22.7457745 122.577804,13.258232 120.469461,12.3662404 C119.787239,12.0776085 119.198414,11.8569005 118.713974,11.6903809 C117.771763,11.3660491 116.738704,11.434276 115.84733,11.8797043 L115.84733,11.8797043 Z" id="Path" fill="#3F3D56"></path>
            <path d="M119.009837,12.44733 L120.870495,12.7548178 C120.870495,12.7548178 121.685811,13.5825915 121.685811,13.9880419 C121.685811,14.3934922 121.52363,31.9089587 121.28036,32.4765844 C121.03709,33.0442101 118.361117,32.8009452 118.361117,32.8009452 L118.847656,22.826864 L119.009837,12.44733 Z" id="Path" fill="#3F3D56"></path>
            <path d="M115.240327,3.35347511 C114.762969,2.7124534 114.014251,2.33037659 113.215082,2.31997598 L113.118996,2.31997598 C111.266373,2.31997598 109.764534,3.99639003 109.764534,6.06434425 L109.764534,6.06435185 L110.3853,6.06435185 L110.485552,5.30126945 L110.632541,6.06435185 L114.314261,6.06435185 L114.622719,5.41877037 L114.545603,6.06435185 L115.269902,6.06435185 C115.607886,7.74286521 115.122259,9.42137858 113.813022,11.0998919 L115.046855,11.0998919 L115.663764,9.80872772 L115.509544,11.0998919 L117.86152,11.0998919 L118.324204,8.13020802 C118.324204,5.90618775 117.031974,4.02026373 115.240327,3.35347511 Z" id="Path" fill="#2F2E41"></path>
            <circle id="Oval" fill="#2F2E41" cx="115.916562" cy="1.83309039" r="1.83309039"></circle>
            <rect id="Rectangle" stroke="#2F2E41" x="12.4568833" y="2.35369039" width="77.2404025" height="49.4192148"></rect>
            <rect id="Rectangle" fill="#AB6ACB" x="52.7243918" y="11.2766042" width="34.7764852" height="40.4505428"></rect>
            <rect id="Rectangle" fill="#FFFFFF" x="64.4869788" y="15.0404272" width="21.0919679" height="1"></rect>
            <rect id="Rectangle" fill="#FFFFFF" x="64.4869788" y="16.9114889" width="21.0919679" height="1"></rect>
            <rect id="Rectangle" fill="#FFFFFF" x="64.4869788" y="18.7825506" width="7.14405366" height="1"></rect>
            <rect id="Rectangle" fill="#AB6ACB" x="21.1752417" y="33.3306718" width="21.0919679" height="1"></rect>
            <rect id="Rectangle" fill="#AB6ACB" x="21.1752417" y="35.2017334" width="21.0919679" height="1"></rect>
            <rect id="Rectangle" fill="#FFFFFF" x="21.1752417" y="37.0727951" width="7.14405366" height="1"></rect>
            <rect id="Rectangle" fill="#FFFFFF" x="59.5450583" y="25.4733723" width="21.0919679" height="1"></rect>
            <rect id="Rectangle" fill="#FFFFFF" x="59.5450583" y="27.344434" width="21.0919679" height="1"></rect>
            <rect id="Rectangle" fill="#FFFFFF" x="59.5450583" y="29.1747755" width="21.0919679" height="1"></rect>
            <rect id="Rectangle" fill="#FFFFFF" x="59.5450583" y="31.005117" width="21.0919679" height="1"></rect>
            <rect id="Rectangle" fill="#FFFFFF" x="59.5450583" y="32.8354585" width="21.0919679" height="1"></rect>
            <rect id="Rectangle" fill="#FFFFFF" x="59.5450583" y="34.6657988" width="21.0919679" height="1"></rect>
            <rect id="Rectangle" fill="#FFFFFF" x="59.5450583" y="36.4961403" width="21.0919679" height="1"></rect>
            <rect id="Rectangle" fill="#FFFFFF" x="59.5450583" y="38.3264818" width="21.0919679" height="1"></rect>
            <rect id="Rectangle" fill="#FFFFFF" x="59.5450583" y="40.1568234" width="21.0919679" height="1"></rect>
            <rect id="Rectangle" fill="#FFFFFF" x="59.5450583" y="41.9871649" width="21.0919679" height="1"></rect>
            <rect id="Rectangle" fill="#FFFFFF" x="59.5450583" y="43.8175052" width="21.0919679" height="1"></rect>
            <path d="M39.4068315,19.8074714 C39.4093764,22.128287 38.3604863,24.3253369 36.5542412,25.7826188 C36.224442,26.0505384 35.8726919,26.2902432 35.5027105,26.4991984 C35.2794236,26.6260212 35.0497121,26.7411831 34.8145008,26.8442206 C34.0348813,27.188279 33.2030121,27.3989531 32.353606,27.4674516 C32.144949,27.4848404 31.9341555,27.4933807 31.7212256,27.4930807 C31.299935,27.4935365 30.8793363,27.4589456 30.4637822,27.3896579 C30.3173504,27.3667794 30.1727584,27.3384082 30.029991,27.3054573 C29.780431,27.2499414 29.5339185,27.1815183 29.2914471,27.1004638 C28.2944448,26.7679515 27.3764411,26.2340332 26.5944362,25.5318607 C26.3929808,25.3532808 26.2020027,25.16322 26.0224549,24.9626269 C23.721286,22.4183794 23.3851354,18.657061 25.198679,15.7450801 C27.0122225,12.8330991 30.5361782,11.4758042 33.8345411,12.4188715 C37.1329039,13.3619389 39.4068315,16.3769359 39.4068315,19.8074714 L39.4068315,19.8074714 Z" id="Path" fill="#AB6ACB"></path>
            <path d="M89.651525,23.9974759 C82.5754345,23.9974759 76.8391381,29.7337723 76.8391381,36.8098526 L76.8391381,36.8098691 C76.8391381,38.8821496 75.1592228,40.5620648 73.0869423,40.5620648 L66.8637667,40.5620648 C63.9026058,40.5620648 61.0627264,41.7383814 58.9688695,43.8322383 C56.8750125,45.9260953 55.6986959,48.7659747 55.6986959,51.727147 L55.6986959,51.727147 L89.651525,51.727147 L89.651525,23.9974759 L89.651525,23.9974759 Z" id="Path" fill="#3F3D56"></path>
            <rect id="Rectangle" fill="#2F2E41" x="50.2076726" y="2.35369039" width="1.64730725" height="49.4192148"></rect>
            <path d="M9.72101226,61.7370051 C9.73652669,63.3273915 8.79647245,63.8918442 7.63028337,63.9032208 C7.60319485,63.903485 7.57623421,63.9033933 7.54940146,63.903103 C7.49534175,63.902464 7.44183325,63.9005226 7.38887595,63.8972786 C6.33562451,63.8330228 5.5121203,63.2572594 5.49769225,61.7782026 C5.48276026,60.2475632 7.42018083,58.2968414 7.56550086,58.152585 L7.56575409,58.1524584 C7.57127461,58.1469606 7.57410071,58.1442118 7.57410071,58.1442118 C7.57410071,58.1442118 9.70550417,60.1467466 9.72101226,61.7370051 Z" id="Path" fill="#D0CDE1"></path>
            <ellipse id="Oval" fill="#D0CDE1" cx="7.59704251" cy="63.6795081" rx="7.59704251" ry="1"></ellipse>
        </g>
    </g>
</svg>