<?xml version="1.0" encoding="UTF-8"?>
<svg width="140px" height="106px" viewBox="0 0 140 106" version="1.1" xmlns="http://www.w3.org/2000/svg" xmlns:xlink="http://www.w3.org/1999/xlink">
    <title>Connect a Contact to an Organization with Affiliations</title>
    <g id="Getting-Started-Page---End-User" stroke="none" stroke-width="1" fill="none" fill-rule="evenodd">
        <g id="Getting-Started-Tab---End-User-Dec-2020" transform="translate(-186.000000, -1636.000000)" fill-rule="nonzero">
            <g id="Connect-a-Contact-to-an-Organization-with-Affiliations" transform="translate(186.000000, 1636.000000)">
                <path d="M64.358964,23 L29.641036,23 C29.29138,23 29,22.7054492 29,22.3519882 L29,13.6480118 C29,13.2945508 29.29138,13 29.641036,13 L64.358964,13 C64.70862,13 65,13.2945508 65,13.6480118 L65,22.3519882 C65,22.7054492 64.70862,23 64.358964,23 Z M29.641036,13.2503682 C29.422501,13.2503682 29.262242,13.4270987 29.262242,13.6332842 L29.262242,22.3372607 C29.262242,22.5581738 29.43707,22.7201767 29.641036,22.7201767 L64.358964,22.7201767 C64.577499,22.7201767 64.737758,22.5434462 64.737758,22.3372607 L64.737758,13.6480118 C64.737758,13.4270987 64.56293,13.2650957 64.358964,13.2650957 L29.641036,13.2503682 Z" id="Shape" fill="#3F3D56"></path>
                <ellipse id="Oval" fill="#FF9E2D" transform="translate(35.382010, 17.320841) rotate(-80.781636) translate(-35.382010, -17.320841) " cx="35.3820101" cy="17.3208414" rx="2.61361015" ry="2.60886389"></ellipse>
                <path d="M40.4483696,16 C40.1942935,16 40,16.2166667 40,16.5 C40,16.7833333 40.1942935,17 40.4483696,17 L61.5516304,17 C61.8057065,17 62,16.7833333 62,16.5 C62,16.2166667 61.8057065,16 61.5516304,16 L40.4483696,16 Z" id="Path" fill="#E6E6E6"></path>
                <path d="M42.4041916,19 C42.1751497,19 42,19.2166667 42,19.5 C42,19.7833333 42.1751497,20 42.4041916,20 L50.5958084,20 C50.8248503,20 51,19.7833333 51,19.5 C51,19.2166667 50.8248503,19 50.5958084,19 C50.5958084,19 50.5958084,19 50.5958084,19 L42.4041916,19 L42.4041916,19 Z" id="Path" fill="#E6E6E6"></path>
                <path d="M49.347864,53 L33.652136,53 C33.2964255,53 33,52.697733 33,52.3350126 L33,35.6649874 C33,35.302267 33.2964255,35 33.652136,35 L49.347864,35 C49.7035745,35 50,35.302267 50,35.6649874 L50,52.3350126 C50,52.7128463 49.7035745,53 49.347864,53 Z M33.652136,35.2720403 C33.4298169,35.2720403 33.2667829,35.4534005 33.2667829,35.6649874 L33.2667829,52.3350126 C33.2667829,52.5617128 33.4446382,52.7279597 33.652136,52.7279597 L49.347864,52.7279597 C49.5701831,52.7279597 49.7332171,52.5465995 49.7332171,52.3350126 L49.7332171,35.6649874 C49.7332171,35.4382872 49.5553618,35.2720403 49.347864,35.2720403 L33.652136,35.2720403 Z" id="Shape" fill="#3F3D56"></path>
                <path d="M37.4041916,40 C37.1751497,40 37,40.2166667 37,40.5 C37,40.7833333 37.1751497,41 37.4041916,41 L45.5958084,41 C45.8248503,41 46,40.7833333 46,40.5 C46,40.2166667 45.8248503,40 45.5958084,40 L37.4041916,40 Z" id="Path" fill="#E6E6E6"></path>
                <path d="M37.4041916,42 C37.1751497,42 37,42.2166667 37,42.5 C37,42.7833333 37.1751497,43 37.4041916,43 C37.4041916,43 37.4041916,43 37.4041916,43 L45.5958084,43 C45.8248503,43 46,42.7833333 46,42.5 C46,42.2166667 45.8248503,42 45.5958084,42 L37.4041916,42 Z" id="Path" fill="#E6E6E6"></path>
                <path d="M41.5,50 C40.1243386,50 39,48.8888889 39,47.5 C39,46.1111111 40.1111111,45 41.5,45 C42.8756614,45 44,46.1111111 44,47.5 L44,47.5 C44,48.8756614 42.8756614,50 41.5,50 Z" id="Path" fill="#FF9E2D"></path>
                <path d="M74.652136,0 L90.347864,0 C90.7035745,0 91,0.302267003 91,0.664987406 L91,17.3350126 C91,17.697733 90.7035745,18 90.347864,18 L74.652136,18 C74.2964255,18 74,17.697733 74,17.3350126 L74,0.664987406 C74,0.302267003 74.2964255,0 74.652136,0 Z M90.347864,17.7279597 C90.5701831,17.7279597 90.7332171,17.5465995 90.7332171,17.3350126 L90.7332171,0.664987406 C90.7332171,0.438287154 90.5553618,0.272040302 90.347864,0.272040302 L74.652136,0.272040302 C74.4298169,0.272040302 74.2667829,0.453400504 74.2667829,0.664987406 L74.2667829,17.3350126 C74.2667829,17.5617128 74.4446382,17.7279597 74.652136,17.7279597 L90.347864,17.7279597 Z" id="Shape" fill="#3F3D56"></path>
                <path d="M86.5958084,15 C86.8248503,15 87,14.7833333 87,14.5 C87,14.2166667 86.8248503,14 86.5958084,14 C86.5958084,14 86.5958084,14 86.5958084,14 L78.4041916,14 C78.1751497,14 78,14.2166667 78,14.5 C78,14.7833333 78.1751497,15 78.4041916,15 C78.4041916,15 78.4041916,15 78.4041916,15 L86.5958084,15 Z" id="Path" fill="#E6E6E6"></path>
                <path d="M86.5958084,11 C86.8248503,11 87,10.7833333 87,10.5 C87,10.2166667 86.8248503,10 86.5958084,10 C86.5958084,10 86.5958084,10 86.5958084,10 L78.4041916,10 C78.1751497,10 78,10.2166667 78,10.5 C78,10.7833333 78.1751497,11 78.4041916,11 C78.4041916,11 78.4041916,11 78.4041916,11 L86.5958084,11 Z" id="Path" fill="#E6E6E6"></path>
                <path d="M82.5,3 C83.8756614,3 85,4.11111111 85,5.5 C85,6.88888889 83.8888889,8 82.5,8 C81.1111111,8 80,6.88888889 80,5.5 C80,5.5 80,5.5 80,5.5 C80,4.12433862 81.1243386,3.01322751 82.5,3 Z" id="Path" fill="#FF9E2D"></path>
                <path d="M59.652136,51 L75.347864,51 C75.7035745,51 76,51.302267 76,51.6649874 L76,68.3350126 C76,68.697733 75.7035745,69 75.347864,69 L59.652136,69 C59.2964255,69 59,68.697733 59,68.3350126 L59,51.6649874 C59,51.302267 59.2964255,51 59.652136,51 Z M75.347864,68.743073 C75.5701831,68.743073 75.7332171,68.5617128 75.7332171,68.3501259 L75.7332171,51.6649874 C75.7332171,51.4382872 75.5553618,51.2720403 75.347864,51.2720403 L59.652136,51.2720403 C59.4298169,51.2720403 59.2667829,51.4534005 59.2667829,51.6649874 L59.2667829,68.3350126 C59.2667829,68.5617128 59.4446382,68.7279597 59.652136,68.7279597 L75.347864,68.7279597 L75.347864,68.743073 Z" id="Shape" fill="#3F3D56"></path>
                <path d="M71.5958084,65 C71.8248503,65 72,64.7833333 72,64.5 C72,64.2166667 71.8248503,64 71.5958084,64 C71.5958084,64 71.5958084,64 71.5958084,64 L63.4041916,64 C63.1751497,64 63,64.2166667 63,64.5 C63,64.7833333 63.1751497,65 63.4041916,65 C63.4041916,65 63.4041916,65 63.4041916,65 L71.5958084,65 Z" id="Path" fill="#E6E6E6"></path>
                <path d="M71.5958084,62 C71.8248503,62 72,61.7833333 72,61.5 C72,61.2166667 71.8248503,61 71.5958084,61 C71.5958084,61 71.5958084,61 71.5958084,61 L63.4041916,61 C63.1751497,61 63,61.2166667 63,61.5 C63,61.7833333 63.1751497,62 63.4041916,62 C63.4041916,62 63.4041916,62 63.4041916,62 L71.5958084,62 Z" id="Path" fill="#E6E6E6"></path>
                <path d="M66.5,54 C67.8756614,54 69,55.1111111 69,56.5 C69,57.8888889 67.8888889,59 66.5,59 C65.1111111,59 64,57.8888889 64,56.5 C64,56.5 64,56.5 64,56.5 C64,55.1111111 65.1243386,54 66.5,54 Z" id="Path" fill="#FF9E2D"></path>
                <path d="M29.317372,32.9397569 C32.0577848,30.8378329 35.2671453,29.4027262 38.6816704,28.7504049 C42.1255047,28.0980837 45.6719213,28.286532 49.0131733,29.2722619 C50.6984539,29.7651268 52.3104615,30.4609362 53.8345414,31.3451938 C55.3879305,32.2439476 56.7801188,33.3456456 58.1283433,34.5053279 C59.4912224,35.6795061 60.8101377,36.9261645 62.2316352,38.0278625 C66.2909633,41.2459807 71.3321506,43 76.5345386,43 C76.9595224,43 77.3991608,42.985504 77.8241446,42.9710079 C78.0586185,42.9565119 78.0586185,42.5941112 77.8241446,42.6086073 C72.5191743,42.8985278 67.2874771,41.3329568 63.037639,38.1873189 C61.557523,37.1001168 60.2239531,35.8534584 58.8464194,34.6357921 C57.5128495,33.4616139 56.1499704,32.3309237 54.6405451,31.3886819 C47.0787643,26.677473 37.406719,26.8949134 30.0647573,31.939531 C29.7277012,32.1714674 29.3906451,32.4178999 29.0682435,32.6788284 C28.8777336,32.8237887 29.126862,33.0702211 29.317372,32.9397569 L29.317372,32.9397569 Z" id="Path" fill="#3F3D56"></path>
                <circle id="Oval" fill="#3F3D56" cx="29" cy="33" r="2"></circle>
                <circle id="Oval" fill="#3F3D56" cx="99" cy="58" r="2"></circle>
                <path d="M109.357371,48 L78.6426289,48 C78.2921041,48 78,47.6954315 78,47.3299492 L78,30.6700508 C78,30.3045685 78.2921041,30 78.6426289,30 L109.357371,30 C109.707896,30 110,30.3045685 110,30.6700508 L110,47.3299492 C110,47.7106599 109.707896,48 109.357371,48 Z M78.6426289,30.2741117 C78.4235509,30.2741117 78.2628937,30.4568528 78.2628937,30.6700508 L78.2628937,47.3299492 C78.2628937,47.5583756 78.4381561,47.7258883 78.6426289,47.7258883 L109.357371,47.7258883 C109.576449,47.7258883 109.737106,47.5431472 109.737106,47.3299492 L109.737106,30.6700508 C109.737106,30.4416244 109.561844,30.2741117 109.357371,30.2741117 L78.6426289,30.2741117 Z" id="Shape" fill="#3F3D56"></path>
                <circle id="Oval" fill="#FF9E2D" cx="83.5" cy="35.5" r="2.5"></circle>
                <path d="M89.4530201,34 C89.1963087,34 89,34.2166667 89,34.5 C89,34.7833333 89.1963087,35 89.4530201,35 C89.4530201,35 89.4530201,35 89.4530201,35 L106.54698,35 C106.803691,35 107,34.7833333 107,34.5 C107,34.2166667 106.803691,34 106.54698,34 L106.54698,34 L89.4530201,34 Z" id="Path" fill="#E6E6E6"></path>
                <path d="M89.4041916,36 C89.1751497,36 89,36.2166667 89,36.5 C89,36.7833333 89.1751497,37 89.4041916,37 C89.4041916,37 89.4041916,37 89.4041916,37 L97.5958084,37 C97.8248503,37 98,36.7833333 98,36.5 C98,36.2166667 97.8248503,36 97.5958084,36 L89.4041916,36 Z" id="Path" fill="#E6E6E6"></path>
                <path d="M81.5857143,41 C81.2571429,41 81,41.2166667 81,41.5 C81,41.7833333 81.2714286,42 81.5857143,42 L105.414286,42 C105.742857,42 106,41.7833333 106,41.5 C106,41.2166667 105.728571,41 105.414286,41 L81.5857143,41 Z" id="Path" fill="#E6E6E6"></path>
                <path d="M81.5857143,44 C81.2571429,44 81,44.2166667 81,44.5 C81,44.7833333 81.2714286,45 81.5857143,45 L105.414286,45 C105.742857,45 106,44.7833333 106,44.5 C106,44.2166667 105.728571,44 105.414286,44 L81.5857143,44 Z" id="Path" fill="#E6E6E6"></path>
                <path d="M76.2937968,59.5138619 C78.0508525,58.719679 79.9998554,59.4048564 81.6535548,60.1523226 C82.5099348,60.5260557 83.3515497,60.9309333 84.222695,61.2423775 C84.9609536,61.4915329 85.7139775,61.6783995 86.4965317,61.8029772 C88.0321097,62.0521326 89.6119833,62.0677048 91.1475613,61.8341216 C92.6979045,61.6005384 94.2187174,61.1489442 95.6361741,60.4481947 C97.0536307,59.7630173 98.3677311,58.8598289 99.5194147,57.769774 C99.6670664,57.6296241 99.8147181,57.4894742 99.9476047,57.3337521 C100.110022,57.1624577 99.8590137,56.8821579 99.6818316,57.0534522 C98.5596784,58.205796 97.2898735,59.155701 95.887182,59.8720228 C94.4992557,60.5883446 93.0079732,61.1022276 91.4723951,61.3669552 C89.9368171,61.6472551 88.3717087,61.6628273 86.8213655,61.4448163 C86.0535765,61.3358108 85.2857875,61.1645165 84.5475288,60.9309333 C83.6911487,60.6350612 82.8495338,60.2924725 82.0374493,59.9031672 C80.3689847,59.155701 78.523338,58.4082348 76.6924565,58.93769 C76.4857441,58.9999789 76.2790316,59.0778399 76.0723192,59.1712732 C75.8951371,59.2802787 76.0723192,59.6228674 76.2937968,59.5138619 L76.2937968,59.5138619 Z" id="Path" fill="#3F3D56"></path>
                <path d="M106.025768,56.3519252 L103.335498,57.7151417 C102.381804,58.1979475 101.456579,58.1127465 101.100723,57.1045343 L101.100723,57.1045343 C100.773336,56.1815231 101.271534,55.173311 102.196759,54.846707 C102.282165,54.8183067 102.36757,54.7899063 102.452975,54.7757061 L105.000903,54.3071005 L115.932794,50.6860567 L122.551712,46 L125,49.8624467 L117.341983,53.9804965 L106.025768,56.3519252 Z" id="Path" fill="#FFB8B8"></path>
                <polygon id="Path" fill="#FFB8B8" points="117.714286 103 116 102.676768 116.190476 99 118 99"></polygon>
                <polygon id="Path" fill="#FFB8B8" points="138 99.3125 136.313253 100 135 96.078125 136.638554 95"></polygon>
                <path d="M137,95.1138268 L134.463519,96.1696927 L122.397321,79.9357542 L118.599765,99 L116.063284,98.5307263 C114.443949,82.0914804 113.111221,65.3442737 114.744887,57.4106145 L124.116969,57 L128.373099,70.8875698 L130.436676,80.3023743 L137,95.1138268 Z" id="Path" fill="#2F2E41"></path>
                <path d="M117.660655,105.95466 L117.660655,105.95466 C117.311759,106.044202 116.936025,105.999431 116.600549,105.835271 L115.446509,105.253248 C114.480336,105.193553 113.822802,105.417408 113.286039,104.626453 C112.977401,104.178743 112.910305,103.566872 113.12501,103.044544 L113.12501,103.044544 C113.326296,102.522215 113.769126,102.164047 114.27905,102.104352 L115.8625,101 L115.943014,101.835726 C116.667644,102.29836 117.526464,102.089428 118.438961,101.656642 L118.935466,103.581796 C119.190429,104.581682 118.667085,105.626339 117.768008,105.924813 C117.741169,105.939737 117.700912,105.95466 117.660655,105.95466 Z" id="Path" fill="#2F2E41"></path>
                <path d="M139.190143,102.406105 L139.190143,102.406105 C138.87874,102.618813 138.513179,102.709974 138.147619,102.679587 L136.874926,102.542846 C135.940716,102.846715 135.372066,103.287326 134.627405,102.740361 C134.194148,102.421298 133.963981,101.85914 134.004598,101.281788 L134.004598,101.281788 C134.045216,100.704437 134.370159,100.203052 134.830495,99.9599569 L136.008412,98.3190628 L136.333355,99.0939294 C137.159251,99.2610575 137.917451,98.7596732 138.648572,98 L139.691097,99.6712811 C140.232668,100.537309 140.043118,101.737592 139.271379,102.345331 C139.25784,102.360524 139.217222,102.375718 139.190143,102.406105 Z" id="Path" fill="#2F2E41"></path>
                <circle id="Oval" fill="#FFB8B8" cx="120" cy="36" r="4"></circle>
                <polygon id="Path" fill="#FFB8B8" points="125 46 119.690141 44.92 119 40.7466667 122.732394 40"></polygon>
                <path d="M123.301012,58 L114,58 L116.097558,52.3977724 C115.945761,50.4715471 116.718545,49.0452582 117.808723,47.8101214 L119.202495,44.075303 C121.451849,42.5019739 123.149215,42.619606 124.956978,44.6634633 C127.109734,47.8983454 125.619365,52.7653726 123.301012,58 Z" id="Path" fill="#FF9E2D"></path>
                <path d="M119.383825,70.2212776 L119.111442,73.3311097 C119.011091,74.4365003 118.451989,75.2029044 117.391129,74.9523492 L117.391129,74.9523492 C116.43062,74.7312711 115.82851,73.7437888 116.04355,72.7563066 C116.057886,72.6678754 116.086557,72.5794441 116.129565,72.4910129 L117.090074,69.985461 L119.856911,58.4009681 L119.398161,50 L124,50 L123.426562,58.9905097 L119.383825,70.2212776 Z" id="Path" fill="#FFB8B8"></path>
                <path d="M124,51 L119,51 L119.352304,47.39625 C119.406504,46.1102646 120.327913,45.0635322 121.506775,45.003719 L121.506775,45.003719 C122.753388,44.9289524 123.823848,45.990638 123.878049,47.3663434 C123.878049,47.3812967 123.878049,47.3812967 123.878049,47.39625 L124,51 Z" id="Path" fill="#FF9E2D"></path>
                <circle id="Oval" fill="#2F2E41" cx="125.5" cy="30.5" r="1.5"></circle>
                <path d="M124.216658,30.4184417 C124.282102,29.6276625 125.051066,29.0033632 126,29.0172365 C125.967278,29.0172365 125.934556,29.0033632 125.885473,29.0033632 C124.903818,28.9478699 124.06941,29.5860426 124.003966,30.4045684 C123.938523,31.2369675 124.691125,31.9445067 125.65642,32 C125.689142,32 125.738225,32 125.770947,32 C124.838374,31.9028868 124.167576,31.2092208 124.216658,30.4184417 Z" id="Path" fill="#2F2E41"></path>
                <path d="M123.719308,31.4058739 C122.359544,30.3066131 118.46249,31.7081706 118.224181,32.4501717 C116.3878,32.6975054 115,33.7418031 115,35.6105465 L115,35.6105465 C116.093418,36.0502508 117.327018,35.9952878 118.672763,35.6105465 C120.817545,37.3144008 120.957726,39.4717001 119.654036,41.9312962 L121.252108,41.9587777 L123.228671,39.1144404 L123.326799,42 L126.999562,41.9312962 L126.999562,37.7953274 C127.01358,36.4212514 126.691162,35.0609161 126.060344,33.8379885 C125.485598,32.7524684 124.588435,32.1203934 123.719308,31.4058739 Z" id="Path" fill="#2F2E41"></path>
                <circle id="Oval" fill="#FFB8B8" cx="120" cy="38" r="1"></circle>
                <path d="M26,39.2801198 C26,39.2801198 26.3715621,31.4910158 28.3132738,33.2619212 C30.2549855,35.0328265 27.4622767,40 27.4622767,40 L26,39.2801198 Z" id="Path" fill="#FFB9B9"></path>
                <path d="M17.7835582,62 C17.7835582,62 23.0465169,67.6083398 20.1080316,67.9822291 C17.1695464,68.3561184 16,62.7062354 16,62.7062354 L17.7835582,62 Z" id="Path" fill="#FFB9B9"></path>
                <path d="M9.69827586,34.0310782 L9.69827586,34.0310782 C10.9445813,34.3821051 11.8793103,35.5229426 12.0689655,36.9124241 L13.6268473,48.8473387 L15.8078818,58.3689434 C15.8078818,58.3689434 16.8916256,59.4220242 16.4581281,60.007069 C16.0246305,60.5921138 17,63.0639283 17,63.0639283 L14.2770936,64 C14.2770936,64 13.9519704,61.5281856 13.4100985,61.4111766 C12.9359606,61.3087938 7.57142857,45.8636101 6.28448276,42.1193231 C6.10837438,41.6074089 6,41.3148864 6,41.3148864 C6,41.3148864 6.21674877,33.4460334 9.69827586,34.0310782 Z" id="Path" fill="#575A89"></path>
                <path d="M9.95068412,97 L11.5086981,100.180864 C12.724709,103.143861 11.6480326,103.681268 8.67133934,102.214294 L8,98.466974 L9.95068412,97 Z" id="Path" fill="#FFB9B9"></path>
                <path d="M11.7747398,101.109649 C11.7747398,101.109649 12.5873877,99.8052428 12.8766353,100.024932 C13.1658828,100.244622 14.3779678,101.192032 14.3779678,101.192032 L15.9481688,102.688666 C15.9481688,102.688666 21.2510407,103.251621 17.8764859,105.091519 C14.5019311,106.931418 12.6424825,105.407323 12.6424825,105.407323 C12.6424825,105.407323 7.93187938,105.654474 8.00074784,104.336337 C8.06961631,103.018201 9.59849626,100.944882 9.59849626,100.944882 C9.59849626,100.944882 11.5130396,102.235557 11.7747398,101.109649 Z" id="Path" fill="#2F2E41"></path>
                <path d="M3,60.6287637 L4.67307692,80.9617428 C4.67307692,80.9617428 4.73076923,93.1179596 6.50480769,95.4707758 C8.27884615,97.8235919 8.33653846,99 8.33653846,99 L12,97.0974141 C12,97.0974141 10.1105769,93.9312788 10.5,93.4374779 C10.7451923,93.1324832 10.9038462,92.7693943 11.0048077,92.3917818 L10.0096154,79.843429 L11.8990385,58 L3,60.6287637 Z" id="Path" fill="#2F2E41"></path>
                <polygon id="Path" fill="#FFB9B9" points="7 97.3924051 5.46590909 101 2 99.7088608 3.83238636 97"></polygon>
                <path d="M4.8282771,99.0488656 C4.8282771,99.0488656 6.12425613,98.2823869 6.27921014,98.5916678 C6.43416415,98.9009486 7.08215367,100.218754 7.08215367,100.218754 L7.81466355,102.141674 C7.81466355,102.141674 12.2660698,104.84452 8.46265306,104.992437 C4.65923636,105.140354 3.68725209,103.069517 3.68725209,103.069517 C3.68725209,103.069517 -0.581026653,101.294514 0.0669628592,100.205307 C0.714952372,99.1161005 2.98291566,98 2.98291566,98 C2.98291566,98 4.10985395,99.8960262 4.8282771,99.0488656 Z" id="Path" fill="#2F2E41"></path>
                <path d="M17.1066282,59.5524101 L18,78.276205 C18,78.276205 9.88760807,95.1973986 8.99423631,95.648049 C8.4610951,95.924254 8.05763689,96.4185157 7.88472622,97 L3,95.7643458 L5.21902017,92.1736802 L10.1037464,80.1805662 C10.1037464,80.1805662 10.8818444,79.8462127 11.0979827,78.7268554 C11.314121,77.6074981 11.7608069,77.6074981 10.6512968,77.3749044 C9.54178674,77.1423106 9.54178674,76.0229533 9.54178674,76.0229533 L5.88184438,59 L17.1066282,59.5524101 Z" id="Path" fill="#2F2E41"></path>
                <circle id="Oval" fill="#FFB9B9" cx="12.5" cy="26.5" r="4.5"></circle>
                <path d="M8.85448351,27 C8.85448351,27 8.50302164,32.0854364 8.02931217,32.590098 C7.55560269,33.0947596 12.9803402,32.9912393 12.9803402,32.9912393 C12.9803402,32.9912393 12.6288784,28.6951455 12.9803402,28.3069442 C13.3318021,27.918743 8.85448351,27 8.85448351,27 Z" id="Path" fill="#FFB9B9"></path>
                <path d="M18,61 C18,61 5.35237173,59.8925962 3,61 C3,61 3.87124879,57.8216073 3.63891578,57.4908244 C3.47918683,57.2463326 3.92933204,48.1857562 3.78412391,42.9651384 C3.69699903,40.0168555 3.01452081,37.1404821 5.01839303,34.9544382 C5.70087125,34.2065811 6.45595353,33.5881608 7.25459826,33.2861416 C7.25459826,33.2861416 7.03678606,31.186389 8.15488867,31.0713341 C8.15488867,31.0713341 12.4094869,30.6254962 13.9777348,31.9630098 C14.4714424,32.380084 14.7909003,33.6744521 14.8344627,34.7818558 C14.0648596,38.5642869 14.3407551,42.7494103 15.0377541,47.0927343 C15.0813166,47.3659898 15.124879,47.6536271 15.1829622,47.9268826 C15.9235237,52.2270609 17.0561471,56.6710579 18,61 Z" id="Path" fill="#575A89"></path>
                <path d="M10.814105,28.5918747 C11.1792166,28.5648122 11.5443281,28.6865932 11.8953968,28.7407181 C13.2013726,28.9030928 14.5494767,27.9965008 14.8443745,26.7651594 C14.87246,26.6027847 14.9145882,26.44041 14.9988447,26.2915665 C15.1954432,25.9803484 15.658854,25.9126923 16.0380083,25.9938796 C16.4171625,26.0750669 16.7682313,26.2374416 17.1473855,26.2509729 C17.7371811,26.2780353 18.3129338,25.9262235 18.6218744,25.4526306 C18.9167721,24.9519753 19.0431569,24.3836639 18.9869859,23.8018213 L18.7061309,24.085977 C18.5937889,23.8559462 18.5516606,23.5853217 18.5797461,23.3282284 C18.2708056,23.2470411 17.9478223,23.3282284 17.7231383,23.544728 C17.4703688,23.5717904 17.6669673,23.0981976 17.4703688,22.9358229 C17.3861123,22.881698 17.2737703,22.8681668 17.1614283,22.881698 C16.6278038,22.881698 16.1924785,22.4892925 15.7852387,22.1780743 C15.0550157,21.6368254 14.2124507,21.2579511 13.3137146,21.0820452 C12.7098764,20.9737954 12.0779526,20.9467329 11.5021998,21.1632325 C11.0387891,21.3662009 10.6315493,21.6503566 10.2804805,22.0021684 C9.39578724,22.8275731 8.59535046,23.8018213 8.23023894,24.9384441 C7.93534118,25.8720986 7.92129843,26.859878 8.20215344,27.8070637 C8.3566237,28.2941877 8.80599172,29.9585283 9.46600099,29.999122 C10.2804805,30.0397157 9.7749415,28.6595308 10.814105,28.5918747 Z" id="Path" fill="#2F2E41"></path>
                <path d="M12.0996979,35 L13.6925982,35.1772238 C13.6925982,35.1772238 15.2424471,38.2786409 15.141994,38.9284617 C15.0415408,39.5782824 14.7832326,39.1795288 15.4864048,40.2133345 C16.189577,41.2471402 18.1699396,43.935035 18.4282477,44.3190199 C18.6865559,44.7030049 25.3882175,39.4453645 24.9720544,37.8651187 C24.9720544,37.8651187 27.0959215,39.4305959 28,39.637357 C28,39.637357 21.0830816,48.9711456 20.1216012,50.1674065 C19.1601208,51.3636674 18.3851964,51.1126003 17.0506042,50.4037049 C15.7160121,49.6948096 9,42.6501622 9,42.6501622 L12.0996979,35 Z" id="Path" fill="#575A89"></path>
                <path d="M14,49 L9,43.4615385 L10.2630208,43 L13.8697917,48.1634615 C13.9088542,48.4375 13.9479167,48.7259615 14,49 Z" id="Path" fill="#000000" opacity="0.1"></path>
            </g>
        </g>
    </g>
</svg>