<?xml version="1.0" encoding="UTF-8"?>
<svg width="78px" height="108px" viewBox="0 0 78 108" version="1.1" xmlns="http://www.w3.org/2000/svg" xmlns:xlink="http://www.w3.org/1999/xlink">
    <title>Connect_Two Contacts with Relationships</title>
    <defs>
        <linearGradient x1="50.0062252%" y1="100.011192%" x2="50.0062252%" y2="-0.0230463576%" id="linearGradient-1">
            <stop stop-color="#808080" stop-opacity="0.25" offset="0%"></stop>
            <stop stop-color="#808080" stop-opacity="0.12" offset="53.51%"></stop>
            <stop stop-color="#808080" stop-opacity="0.1" offset="100%"></stop>
        </linearGradient>
        <linearGradient x1="50.0301325%" y1="100.009139%" x2="50.0301325%" y2="-0.0251655629%" id="linearGradient-2">
            <stop stop-color="#808080" stop-opacity="0.25" offset="0%"></stop>
            <stop stop-color="#808080" stop-opacity="0.12" offset="53.51%"></stop>
            <stop stop-color="#808080" stop-opacity="0.1" offset="100%"></stop>
        </linearGradient>
    </defs>
    <g id="Getting-Started-Page---End-User" stroke="none" stroke-width="1" fill="none" fill-rule="evenodd">
        <g id="Getting-Started-Tab---End-User-Dec-2020" transform="translate(-220.000000, -1434.000000)" fill-rule="nonzero">
            <g id="Connect_Two-Contacts-with-Relationships" transform="translate(220.000000, 1434.000000)">
                <path d="M18,18.3751952 L22.2027711,14.1462562 C22.2027711,14.1462562 26.8358601,7.50078073 30.1923394,9.31318314 C33.5488187,11.1255855 25.3584354,15.3545245 25.3584354,15.3545245 L21.1556643,22 L18,18.3751952 Z" id="Path" fill="#A0616A"></path>
                <path d="M4.70987014,101 C4.70987014,101 1.51975235,106.071413 3.85433855,106.429395 C6.18892475,106.787377 17.6733488,107.300485 17.8908568,106.775444 C18.1083649,106.250404 19.8049275,104.496292 18.5288804,103.804193 C17.2528333,103.112094 12.1486448,102.575121 12.1486448,102.575121 L10.4520822,101.178991 L4.70987014,101 Z" id="Path" fill="#2F2E41"></path>
                <path d="M4.1349212,42.3340791 C4.1349212,42.3340791 -2.06392046,50.3477855 2.97181232,58.5526194 L4.1349212,72.3684129 C4.1349212,72.3684129 2.00696063,91.385607 4.71647564,97.8020328 L5.09977289,100 L11.880169,100 L10.1355057,83.1807731 C10.1355057,83.1807731 10.3337629,81.1739335 10.9153173,80.7780264 C11.4968717,80.3821192 21,58.7573989 21,58.7573989 C21,58.7573989 19.4535939,55.7539655 20.0351483,55.1532789 C20.6167028,54.5525922 19.4535939,42.5388587 18.8720394,42.1429515 C18.2772678,41.7333924 4.1349212,42.3340791 4.1349212,42.3340791 Z" id="Path" fill="#2F2E41"></path>
                <polygon id="Path" fill="#A0616A" points="15.2902098 98.8939394 16 104 9 103.560606 9.90559441 98"></polygon>
                <circle id="Oval" fill="#A0616A" cx="14" cy="11" r="6"></circle>
                <path d="M9.56289979,11 L9,18.7647059 L15,22 C15,22 13.9637527,14.7794118 14.7185501,12.8382353 L9.56289979,11 Z" id="Path" fill="#A0616A"></path>
                <path d="M15.168151,21.494564 L14.5773255,19.0525355 L6.50718653,16 C6.50718653,16 5.71494326,16 5.91636104,17.4291416 C6.11777882,18.8582833 6.11777882,18.6501558 6.11777882,18.6501558 C6.11777882,18.6501558 3.36506918,19.8711701 3.1636514,21.9108188 C2.96223362,23.9504675 -0.179883722,24.5609746 0.00810620497,27.6135102 C0.196096132,30.6660457 1.18975717,32.2894396 1.18975717,32.2894396 C1.18975717,32.2894396 0.209523984,34.731468 1.78058266,36.1606097 C1.78058266,36.1606097 3.35164133,39.0050178 2.57282592,41.0446665 C1.79401051,43.0843153 0.800349467,46.5392305 2.96223362,45.9287234 C5.12411778,45.3182163 20.0961727,44.3053295 20.0961727,44.3053295 C20.0961727,44.3053295 22.2580568,35.9663574 19.8947549,32.9138219 C19.8947549,32.9138219 19.8947549,31.0823006 18.1222784,27.4192579 C16.349802,23.7562153 15.168151,21.494564 15.168151,21.494564 Z" id="Path" fill="#575A89"></path>
                <path d="M5,44.5772269 C5,44.5772269 7.76588898,55.3638548 11.154465,56.5400918 C11.154465,56.5400918 11.7916331,64.3861272 15.3974256,63.9851373 C19.003218,63.5841474 15.3974256,56.5400918 15.3974256,56.5400918 L11.3716814,43 L5,44.5772269 Z" id="Path" fill="#A0616A"></path>
                <path d="M15,22.2167006 C15,22.2167006 17.8545664,17.2636071 18.6201092,18.0938131 C19.3856521,18.9240191 23.1874155,21.4005659 22.992786,23.0469066 C22.7981565,24.6932473 21.0854166,24.6932473 21.0854166,24.6932473 L17.0890236,28 L15,22.2167006 Z" id="Path" fill="#575A89"></path>
                <path d="M18.8524221,57 L21.3437999,58.7184164 L23,75.659025 C23,75.659025 16.9838887,98.6749797 15.313533,98.8779423 C13.6431774,99.0809049 6.8060438,99.0809049 7.00422159,98.485548 C7.20239937,97.8901911 8.24991053,95.5087637 8.24991053,94.9134069 C8.24991053,94.31805 10.4157106,89.5551952 10.4157106,89.5551952 L13.2326663,78.4328467 L12.6098218,69.7054565 L18.8524221,57 Z" id="Path" fill="#2F2E41"></path>
                <path d="M16.0354842,101.985982 C16.0354842,101.985982 7.68126066,99.5161479 7.28796118,100.085115 C6.89466169,100.654082 4.23649967,106.395476 7.95250168,107.029098 C11.6685037,107.662721 25,108.813586 25,107.106685 C25,105.399784 24.6067005,104.26185 23.41324,104.26185 C22.2197795,104.26185 16.8492072,101.792016 16.4559078,101.223049 C16.0626083,100.654082 16.0354842,101.985982 16.0354842,101.985982 Z" id="Path" fill="#2F2E41"></path>
                <path d="M7.89253356,11.73488 C7.63333447,11.1751823 8.20933245,10.5712979 8.74213059,10.8806045 L8.75653054,10.8806045 C9.13092923,11.1162667 9.33252852,11.5581334 9.27492872,12 C10.0381261,11.219369 9.47652802,9.65810688 10.2973251,8.95112028 C10.6717238,8.62708476 11.2909217,8.55344032 11.492521,8.08211592 C11.6077206,7.80226706 11.5357208,7.49296042 11.6365205,7.21311156 C11.78052,6.80070271 12.2557183,6.62395606 12.6877168,6.56504051 C14.0269121,6.35883608 15.3805074,6.71232938 16.6909028,7.05109379 C17.1661011,7.18365378 17.6844993,7.31621377 18.0300981,7.68443596 C18.4044968,8.06738703 18.5340963,8.61235587 18.7500956,9.09840916 C18.9660948,9.58446245 20.4636896,9.54027578 20.9820878,9.46663135 C21.1692871,8.9363914 19.8300918,8.90693362 19.7148922,8.36196478 C19.4124933,6.87434714 20.4492896,5.28362729 19.9452914,3.8549252 C19.6428925,2.98592084 18.8364953,2.42622311 18.0300981,2.02854315 C15.783706,0.923876587 13.2349149,0.702943274 10.8445232,1.39520099 C10.5997241,1.45411654 10.3693249,1.55721875 10.1821256,1.71923651 C9.87972661,2.01381426 9.82212681,2.48513866 9.62052752,2.85336085 C9.15972913,3.70763633 8.05093301,3.91384075 7.30213563,4.53245403 C6.17893955,5.46037394 6.04934001,7.13946712 6.00614016,8.62708476 C5.99174021,9.37825802 5.97734026,10.1441602 6.2797392,10.8364179 C6.58213814,11.5139467 7.28773568,12.0736444 8.00773316,11.9263556 C7.95013336,11.86744 7.92133346,11.8085245 7.89253356,11.73488 Z" id="Path" fill="#2F2E41"></path>
                <path d="M10.099217,23.7532196 C8.47497397,22.6592433 6.29543417,22.7672904 4.81001533,24.0098313 C3.407891,25.171337 1.89470731,26.8325603 2.00576667,28.547807 C2.21400295,31.7216889 3.43565583,44.7953808 5.05989887,44.9844631 C6.68414191,45.1735454 12.5980525,43.5933575 12.5980525,42.6074282 C12.5980525,41.621499 11.1681633,40.4329815 11.1681633,40.4329815 L12.9034657,30.3305832 C13.3338207,27.8319954 12.3065216,25.2793841 10.1963939,23.8072431 C10.1686291,23.7937373 10.1408643,23.7802314 10.099217,23.7532196 Z" id="Path" fill="#575A89"></path>
                <g id="Group" opacity="0.5" transform="translate(31.000000, 5.000000)" fill="url(#linearGradient-1)">
                    <ellipse id="Oval" cx="10.5" cy="10.0263158" rx="10.4309211" ry="9.93421053"></ellipse>
                </g>
                <circle id="Oval" fill="#F5F5F5" cx="42" cy="15" r="10"></circle>
                <path d="M48,15.0283251 C48,18.3608374 45.4440433,20 42.1371841,20 C38.8303249,20 36,18.3608374 36,15.0283251 C36,11.6958128 38.6859206,9 41.9927798,9 C45.299639,9 48,11.6958128 48,15.0283251 Z" id="Path" fill="#333333"></path>
                <path d="M42.1371841,24.9997759 C44.2166065,24.9997759 46.267148,24.3976591 48,23.2507699 C47.6101083,21.1146889 46.1083032,21 46.1083032,21 L37.8483755,21 C37.8483755,21 36.433213,21.1146889 36,23.0787366 C37.8050542,24.3403146 39.9422383,25.014112 42.1371841,24.9997759 Z" id="Path" fill="#FF9E2D"></path>
                <path d="M39,18 L42,18 L42,18 L42,20.5454545 C42,21.3535354 41.371179,22 40.5851528,22 L40.4148472,22 C39.628821,22 39,21.3535354 39,20.5454545 L39,18 L39,18 Z" id="Path" fill="#000000" opacity="0.1"></path>
                <path d="M39.2751092,18 L41.7248908,18 C41.8689956,18 42,18.1208054 42,18.2818792 L42,20.5503356 C42,21.3557047 41.371179,22 40.5851528,22 L40.4148472,22 C39.628821,22 39,21.3557047 39,20.5503356 L39,18.2818792 C39,18.1208054 39.1179039,18 39.2751092,18 L39.2751092,18 Z" id="Path" fill="#FDA57D"></path>
                <path d="M39,19.5610191 C39.9694323,20.1428167 41.0305677,20.1428167 42,19.5817976 L42,19 L39,19 L39,19.5610191 Z" id="Path" fill="#000000" opacity="0.1"></path>
                <circle id="Oval" fill="#FDA57D" cx="41" cy="15" r="4"></circle>
                <path d="M37,16 C37,16 39.4762476,15.6696478 41.3577102,13.0532584 C41.3577102,13.0532584 43.8339577,16.0264282 45.5576203,15.696076 C45.5576203,15.696076 46.5529747,14.5464503 45.5576203,13.4100388 C44.5622658,12.2736272 43.7854039,10.8200776 42.4501723,11.0182889 C41.1149408,11.2165002 39.5005245,11.2957847 38.7964933,11.9697032 C38.0924622,12.6436217 37,16 37,16 Z" id="Path" fill="#000000" opacity="0.1"></path>
                <path d="M37,16 C37,16 39.4762476,15.6696478 41.3577102,13.0532584 C41.3577102,13.0532584 43.8339577,16.0264282 45.5576203,15.696076 C45.5576203,15.696076 46.5529747,14.5464503 45.5576203,13.4100388 C44.5622658,12.2736272 43.7854039,10.8200776 42.4501723,11.0182889 C41.1149408,11.2165002 39.5005245,11.2957847 38.7964933,11.9697032 C38.0924622,12.6436217 37,16 37,16 Z" id="Path" fill="#333333"></path>
                <ellipse id="Oval" fill="#FDA57D" cx="37.5" cy="16" rx="1" ry="1"></ellipse>
                <ellipse id="Oval" fill="#FDA57D" cx="45.5" cy="16" rx="1" ry="1"></ellipse>
                <g id="Group" opacity="0.5" transform="translate(53.000000, 22.000000)" fill="url(#linearGradient-2)">
                    <ellipse id="Oval" cx="10.4861842" cy="10" rx="10.4309211" ry="10"></ellipse>
                </g>
                <circle id="Oval" fill="#F5F5F5" cx="63" cy="32" r="10"></circle>
                <path d="M59.8772563,32 C59.8772563,32 58.6642599,37.1686532 58,36.8808105 C58,36.8808105 64.368231,41.6489869 70,36.8808105 C70,36.8808105 69.0036101,33.238975 67.5740072,32 L59.8772563,32 Z" id="Path" fill="#333333"></path>
                <path d="M64.1371841,42.9997759 C66.2166065,42.9997759 68.267148,42.3976591 70,41.2507699 C69.6101083,39.1146889 68.1083032,39 68.1083032,39 L59.8483755,39 C59.8483755,39 58.433213,39.1146889 58,41.0787366 C59.7906137,42.3403146 61.9422383,43.014112 64.1371841,42.9997759 Z" id="Path" fill="#FF9E2D"></path>
                <circle id="Oval" fill="#333333" cx="63" cy="33" r="4"></circle>
                <path d="M61,36 L64,36 L64,36 L64,38.5454545 C64,39.3535354 63.371179,40 62.5851528,40 L62.4148472,40 C61.628821,40 61,39.3535354 61,38.5454545 L61,36 L61,36 L61,36 Z" id="Path" fill="#000000" opacity="0.1"></path>
                <path d="M61.2751092,36 L63.7248908,36 C63.8689956,36 64,36.1208054 64,36.2818792 L64,38.5503356 C64,39.3557047 63.371179,40 62.5851528,40 L62.4148472,40 C61.628821,40 61,39.3557047 61,38.5503356 L61,36.2818792 C61.0131004,36.1208054 61.1310044,36 61.2751092,36 L61.2751092,36 Z" id="Path" fill="#BE7C5E"></path>
                <path d="M61,37.5610191 C61.9694323,38.1428167 63.0305677,38.1428167 64,37.5817976 L64,37 L61,37 L61,37.5610191 Z" id="Path" fill="#000000" opacity="0.1"></path>
                <circle id="Oval" fill="#BE7C5E" cx="63" cy="34" r="4"></circle>
                <path d="M59,32 L67,32 C67,32 66.3216,28.8065004 63.288,29.0092623 C60.2544,29.2120241 59,32 59,32 Z" id="Path" fill="#333333"></path>
                <ellipse id="Oval" fill="#BE7C5E" cx="59.5" cy="33" rx="1" ry="1"></ellipse>
                <ellipse id="Oval" fill="#BE7C5E" cx="67.5" cy="33" rx="1" ry="1"></ellipse>
                <path d="M59,32 L67,32 C67,32 66.3216,28.8065004 63.288,29.0092623 C60.2544,29.2120241 59,32 59,32 Z" id="Path" fill="#000000" opacity="0.1"></path>
                <path d="M63.5,22.2785548 C68.5932401,22.2785548 72.7214452,26.4067599 72.7214452,31.5 C72.7214452,36.5932401 68.5932401,40.7214452 63.5,40.7214452 C58.4067599,40.7214452 54.2785548,36.5932401 54.2785548,31.5 L54.2785548,31.5 C54.2785548,26.4201632 58.4067599,22.2785548 63.5,22.2785548 L63.5,22.2785548 M63.5,20 C57.1468531,20 52,25.1468531 52,31.5 C52,37.8531469 57.1468531,43 63.5,43 C69.8531469,43 75,37.8531469 75,31.5 L75,31.5 C75,25.1602564 69.8531469,20.0134033 63.5,20 Z" id="Shape" fill="#CCCCCC"></path>
                <rect id="Rectangle" fill="#CCCCCC" x="61" y="17" width="3" height="3"></rect>
                <polygon id="Rectangle" fill="#CCCCCC" transform="translate(69.602078, 21.027993) rotate(-59.002835) translate(-69.602078, -21.027993) " points="68.1542911 19.6589213 71.0560073 19.6524431 71.0498652 22.3970654 68.1481491 22.4035436"></polygon>
                <polygon id="Rectangle" fill="#CCCCCC" transform="translate(74.409889, 25.734439) rotate(-29.000065) translate(-74.409889, -25.734439) " points="72.9656914 24.3618039 75.8599862 24.3555816 75.8540868 27.1070735 72.9597919 27.1132958"></polygon>
                <polygon id="Rectangle" fill="#CCCCCC" transform="translate(74.474166, 38.985706) rotate(-57.999476) translate(-74.474166, -38.985706) " points="73.1020759 37.5413906 75.8528508 37.5351383 75.8462563 40.4300207 73.0954815 40.4362731"></polygon>
                <polygon id="Rectangle" fill="#CCCCCC" transform="translate(52.113450, 25.741313) rotate(-60.999935) translate(-52.113450, -25.741313) " points="50.7408152 24.2971157 53.4923071 24.2912163 53.4860848 27.1855112 50.7345929 27.1914106"></polygon>
                <polygon id="Rectangle" fill="#CCCCCC" transform="translate(52.043300, 38.972317) rotate(-32.000524) translate(-52.043300, -38.972317) " points="50.5989847 37.6002265 53.4938671 37.593632 53.4876148 40.3444069 50.5927324 40.3510014"></polygon>
                <polygon id="Rectangle" fill="#CCCCCC" transform="translate(56.924965, 21.029591) rotate(-30.997165) translate(-56.924965, -21.029591) " points="55.5558925 19.5818044 58.3005148 19.5756623 58.2940366 22.4773785 55.5494143 22.4835205"></polygon>
                <rect id="Rectangle" fill="#CCCCCC" x="61" y="43" width="3" height="3"></rect>
                <polygon id="Rectangle" fill="#CCCCCC" transform="translate(69.610069, 43.803658) rotate(-30.997165) translate(-69.610069, -43.803658) " points="68.240997 42.3558713 70.9856193 42.3497292 70.9791411 45.2514454 68.2345189 45.2575874"></polygon>
                <polygon id="Rectangle" fill="#CCCCCC" transform="translate(56.929249, 43.790142) rotate(-59.002835) translate(-56.929249, -43.790142) " points="55.481462 42.4210698 58.3831782 42.4145916 58.3770361 45.1592139 55.47532 45.1656921"></polygon>
                <rect id="Rectangle" fill="#CCCCCC" x="49" y="31" width="3" height="3"></rect>
                <rect id="Rectangle" fill="#CCCCCC" x="75" y="31" width="3" height="3"></rect>
                <path d="M41.4933023,5.27722772 C41.6004659,5.27722772 41.7076296,5.27722772 41.8147932,5.27722772 C46.905067,5.45136867 50.8835178,9.72451951 50.7093768,14.8147932 C50.5352359,19.7711124 46.4630169,23.7093768 41.4933023,23.7093768 C41.3861386,23.7093768 41.278975,23.7093768 41.1718113,23.7093768 C36.0815376,23.5352359 32.1030868,19.262085 32.2772277,14.1718113 C32.4513687,9.21549214 36.5235877,5.29062318 41.4933023,5.27722772 M41.4933023,3 L41.4933023,5.27722772 L41.4933023,3 C35.1438556,3 30,8.15725102 30,14.5066977 C30,20.695399 34.9161328,25.7722772 41.104834,25.9866045 C41.2387886,25.9866045 41.3727432,26 41.5066977,26 C47.8561444,26 53,20.842749 53,14.4933023 C53,8.30460105 48.0838672,3.22772277 41.895166,3.01339546 C41.7612114,3.01339546 41.6272568,3 41.4933023,3 Z" id="Shape" fill="#CCCCCC"></path>
                <polygon id="Rectangle" fill="#CCCCCC" transform="translate(41.550794, 1.633956) rotate(-88.011761) translate(-41.550794, -1.633956) " points="40.0982492 0.263744283 43.0038212 0.26323546 43.0033388 3.00416687 40.0977668 3.00467569"></polygon>
                <polygon id="Rectangle" fill="#CCCCCC" transform="translate(48.185752, 3.538495) rotate(-57.010720) translate(-48.185752, -3.538495) " points="46.7382647 2.16928365 49.6395933 2.16258156 49.6332389 4.90770554 46.7319104 4.91440763"></polygon>
                <polygon id="Rectangle" fill="#CCCCCC" transform="translate(52.839742, 8.416997) rotate(-27.013466) translate(-52.839742, -8.416997) " points="51.3955882 7.04398982 54.2895253 7.03805176 54.2838954 9.79000445 51.3899583 9.7959425"></polygon>
                <polygon id="Rectangle" fill="#CCCCCC" transform="translate(52.436802, 21.653731) rotate(-56.014367) translate(-52.436802, -21.653731) " points="51.0649288 20.2091698 53.8154776 20.2027209 53.8086757 23.0982929 51.058127 23.1047419"></polygon>
                <polygon id="Rectangle" fill="#CCCCCC" transform="translate(30.545877, 7.650263) rotate(-59.010697) translate(-30.545877, -7.650263) " points="29.1734897 6.20587221 31.924741 6.19973083 31.9182635 9.09465363 29.1670122 9.100795"></polygon>
                <polygon id="Rectangle" fill="#CCCCCC" transform="translate(30.029175, 20.876828) rotate(-30.013517) translate(-30.029175, -20.876828) " points="28.5849101 19.5043475 31.4794661 19.4979915 31.4734399 22.2493091 28.5788839 22.2556651"></polygon>
                <polygon id="Rectangle" fill="#CCCCCC" transform="translate(35.518462, 3.111236) rotate(-29.012866) translate(-35.518462, -3.111236) " points="34.1495006 1.66313865 36.8936485 1.65723752 36.8874244 4.55933343 34.1432765 4.56523456"></polygon>
                <polygon id="Rectangle" fill="#CCCCCC" transform="translate(40.646910, 27.743275) rotate(-88.011761) translate(-40.646910, -27.743275) " points="39.1943652 26.3730635 42.0999372 26.3725547 42.0994547 29.1134861 39.1938827 29.1139949"></polygon>
                <polygon id="Rectangle" fill="#CCCCCC" transform="translate(47.392483, 26.302550) rotate(-29.012866) translate(-47.392483, -26.302550) " points="46.023521 24.8544529 48.767669 24.8485517 48.7614449 27.7506476 46.0172969 27.7565488"></polygon>
                <polygon id="Rectangle" fill="#CCCCCC" transform="translate(34.729714, 25.858649) rotate(-57.010720) translate(-34.729714, -25.858649) " points="33.282227 24.4894381 36.1835556 24.482736 36.1772012 27.22786 33.2758726 27.234562"></polygon>
                <polygon id="Rectangle" fill="#CCCCCC" transform="translate(28.395691, 14.323608) rotate(-88.011764) translate(-28.395691, -14.323608) " points="27.1624863 12.660174 29.6294814 12.659742 29.6288958 15.9870418 27.1619007 15.9874738"></polygon>
                <polygon id="Rectangle" fill="#CCCCCC" transform="translate(54.526262, 15.231727) rotate(-88.011769) translate(-54.526262, -15.231727) " points="53.2930576 13.5682928 55.7600527 13.5678607 55.7594671 16.8951605 53.292472 16.8955926"></polygon>
            </g>
        </g>
    </g>
</svg>