<?xml version="1.0" encoding="UTF-8"?>
<svg width="141px" height="102px" viewBox="0 0 141 102" version="1.1" xmlns="http://www.w3.org/2000/svg" xmlns:xlink="http://www.w3.org/1999/xlink">
    <title>Create a Report from a Standard Report Type</title>
    <g id="Getting-Started-Page---End-User" stroke="none" stroke-width="1" fill="none" fill-rule="evenodd">
        <g id="Getting-Started-Tab---End-User-Dec-2020" transform="translate(-186.000000, -4020.000000)">
            <g id="Create-a-Report-from-a-Standard-Report-Type" transform="translate(186.000000, 4021.000000)">
                <rect id="Rectangle" fill="#F1F1F1" fill-rule="nonzero" x="0" y="3.47928994" width="136.189349" height="77.8698225"></rect>
                <rect id="Rectangle" stroke="#3F3D56" stroke-width="0.5" x="3.81065089" y="0" width="136.189349" height="77.8698225"></rect>
                <line x1="3.81065089" y1="4.15636142" x2="140" y2="4.15636142" id="Path" stroke="#3F3D56" stroke-width="0.5"></line>
                <circle id="Oval" fill="#FF9E2D" fill-rule="nonzero" cx="6.95857988" cy="2.15384615" r="1.15976331"></circle>
                <circle id="Oval" fill="#FF9E2D" fill-rule="nonzero" cx="10.4378698" cy="2.15384615" r="1.15976331"></circle>
                <circle id="Oval" fill="#FF9E2D" fill-rule="nonzero" cx="13.9171598" cy="2.15384615" r="1.15976331"></circle>
                <path d="M87.1588639,53.8994135 C93.3483602,47.7099209 95.1999372,38.4014223 91.8502071,30.314458 C88.5004769,22.2274938 80.609112,16.9546561 71.855845,16.9546561 L71.855845,38.5963946 L87.1588639,53.8994135 Z" id="Path" fill="#3F3D56" fill-rule="nonzero"></path>
                <path d="M71.8558367,16.9546528 C61.9604371,16.9558405 53.3258985,23.6677711 50.8836661,33.2570586 C48.4414338,42.8463461 52.8134832,52.8708388 61.5028052,57.6052466 L71.8558367,38.5963946 L71.8558367,16.9546528 Z" id="Path" fill="#FF9E2D" fill-rule="nonzero"></path>
                <rect id="Rectangle" fill="#FF9E2D" fill-rule="nonzero" x="25.3491124" y="57.0148989" width="4.14416402" height="4.14416402"></rect>
                <rect id="Rectangle" fill="#3F3D56" fill-rule="nonzero" x="31.3351264" y="57.0148989" width="4.14416402" height="4.14416402"></rect>
                <rect id="Rectangle" fill="#575A89" fill-rule="nonzero" x="37.3211404" y="57.0148989" width="4.14416402" height="4.14416402"></rect>
                <rect id="Rectangle" fill="#3F3D56" fill-rule="nonzero" x="96.9510488" y="57.9358239" width="17.0371169" height="1"></rect>
                <rect id="Rectangle" fill="#3F3D56" fill-rule="nonzero" x="96.9510488" y="60.0079067" width="17.0371169" height="1"></rect>
                <rect id="Rectangle" fill="#3F3D56" fill-rule="nonzero" x="96.9510488" y="62.0799879" width="17.0371169" height="1"></rect>
                <polygon id="Path" fill="#FFB9B9" fill-rule="nonzero" points="104.436521 92.8178462 104.710391 95.0995976 106.261988 95.8297515 107.996 95.2821775 109.182438 95.8297515 109.547598 93.7305799 107.448426 91.3575385"></polygon>
                <path d="M105.531761,94.5519905 C105.531761,94.5519905 104.116746,92.9023647 104.094107,93.7271785 C104.071469,94.5519922 100.968351,97.3813044 100.968351,97.3813044 C100.968351,97.3813044 96.1311441,98.8415955 99.8731337,99.7542779 C103.615123,100.66696 111.829266,98.0201815 112.103071,97.4725728 C112.376877,96.924964 109.821366,92.7266275 109.547561,93.0916994 C109.273756,93.4567714 107.904735,94.7345273 105.531761,94.5519905 Z" id="Path" fill="#2F2E41" fill-rule="nonzero"></path>
                <path d="M102.06357,67.445338 C102.06357,67.445338 101.515962,71.734943 102.06357,72.3738201 C102.611179,73.0126973 102.337374,74.2904533 102.06357,74.4729917 C101.789767,74.6555302 102.428642,75.3856741 102.884984,75.7507477 C103.341326,76.1158213 103.980202,77.7586476 103.980202,77.7586476 C103.980202,77.7586476 106.444444,84.2386892 106.444444,84.8775664 C106.444444,85.5164436 107.539661,86.8854663 107.448393,87.3418066 C107.357124,87.798147 108.08727,89.2584398 107.996003,89.5322433 C107.904737,89.8060469 109.182489,92.2702904 108.817416,92.6353624 C108.452342,93.0004343 103.432593,94.2781903 103.706398,93.4567763 C103.980204,92.6353624 104.162739,91.6314116 103.980202,91.6314116 C103.797665,91.6314116 102.976253,90.6274625 103.158788,90.2623938 C103.341323,89.8973252 97.682697,80.3141612 97.682697,80.3141612 L102.06357,67.445338 Z" id="Path" fill="#2F2E41" fill-rule="nonzero"></path>
                <path d="M105.531761,94.5519905 C105.531761,94.5519905 104.116746,92.9023647 104.094107,93.7271785 C104.071469,94.5519922 100.968351,97.3813044 100.968351,97.3813044 C100.968351,97.3813044 96.1311441,98.8415955 99.8731337,99.7542779 C103.615123,100.66696 111.829266,98.0201815 112.103071,97.4725728 C112.376877,96.924964 109.821366,92.7266275 109.547561,93.0916994 C109.273756,93.4567714 107.904735,94.7345273 105.531761,94.5519905 Z" id="Path" fill="#000000" fill-rule="nonzero" opacity="0.1"></path>
                <path d="M102.06357,67.445338 C102.06357,67.445338 101.515962,71.734943 102.06357,72.3738201 C102.611179,73.0126973 102.337374,74.2904533 102.06357,74.4729917 C101.789767,74.6555302 102.428642,75.3856741 102.884984,75.7507477 C103.341326,76.1158213 103.980202,77.7586476 103.980202,77.7586476 C103.980202,77.7586476 106.444444,84.2386892 106.444444,84.8775664 C106.444444,85.5164436 107.539661,86.8854663 107.448393,87.3418066 C107.357124,87.798147 108.08727,89.2584398 107.996003,89.5322433 C107.904737,89.8060469 109.182489,92.2702904 108.817416,92.6353624 C108.452342,93.0004343 103.432593,94.2781903 103.706398,93.4567763 C103.980204,92.6353624 104.162739,91.6314116 103.980202,91.6314116 C103.797665,91.6314116 102.976253,90.6274625 103.158788,90.2623938 C103.341323,89.8973252 97.682697,80.3141612 97.682697,80.3141612 L102.06357,67.445338 Z" id="Path" fill="#000000" fill-rule="nonzero" opacity="0.1"></path>
                <polygon id="Path" fill="#FFB9B9" fill-rule="nonzero" points="92.7542249 91.6849231 91.7502012 94.2403787 92.2066509 97.799858 95.1272663 97.6172781 96.7699882 96.1569704 96.7699882 93.0539408"></polygon>
                <path d="M93.3018237,94.7879692 C93.3018237,94.7879692 92.2978746,91.5023134 91.7502641,92.4149957 C91.4033699,93.0011653 91.0983816,93.611143 90.8375834,94.2403605 C90.8375834,94.2403605 86.3654417,97.1609411 85.1789557,97.1609411 C83.9924698,97.1609411 82.8972507,98.6212322 84.4488019,99.1688426 C86.0003531,99.716453 97.8652256,100.446597 98.0477607,99.1688426 C98.2302959,97.8910883 97.8652256,93.7840185 97.3176168,94.2403605 C96.770008,94.6967025 93.9407008,95.7006549 93.3018237,94.7879692 Z" id="Path" fill="#2F2E41" fill-rule="nonzero"></path>
                <path d="M91.0201186,54.3561647 C91.0201186,54.3561647 89.1034871,57.6418206 88.920947,58.0068925 C88.7384069,58.3719645 87.7344611,60.744938 89.6510925,61.6576204 C91.567724,62.5703027 93.210552,54.9950436 93.210552,54.9950436 L91.0201186,54.3561647 Z" id="Path" fill="#FFB9B9" fill-rule="nonzero"></path>
                <path d="M93.0280201,49.0626107 C93.0280201,49.0626107 90.1074379,54.7212383 90.6550466,54.9037751 C91.2026554,55.086312 93.3930921,56.1815295 93.3930921,56.1815295 L94.3970428,50.4316334 L93.0280201,49.0626107 Z" id="Path" fill="#575A88" fill-rule="nonzero"></path>
                <path d="M93.0280201,49.0626107 C93.0280201,49.0626107 90.1074379,54.7212383 90.6550466,54.9037751 C91.2026554,55.086312 93.3930921,56.1815295 93.3930921,56.1815295 L94.3970428,50.4316334 L93.0280201,49.0626107 Z" id="Path" fill="#000000" fill-rule="nonzero" opacity="0.1"></path>
                <path d="M93.2105553,53.8085609 C93.2105553,53.8085609 92.5716781,58.5545079 92.8454833,59.558457 C93.1192885,60.5624062 92.6629465,75.6216594 93.0280201,76.4430717 C93.3930937,77.264484 93.6668973,82.5580414 93.6668973,83.1969186 C93.6668973,83.8357957 92.9367434,89.0380831 92.7542149,89.4944234 C92.5716864,89.9507638 92.0240611,91.5023233 92.2978746,92.2324689 C92.571688,92.9626144 96.3136743,94.7879692 96.8612781,94.1491053 C97.4088819,93.5102414 96.9525465,91.5023266 97.4088869,91.4110582 C97.8652272,91.3197898 98.4128376,87.0301865 98.4128376,87.0301865 L101.424688,70.2368386 C101.424688,70.2368386 107.083316,56.1815378 105.805562,54.812515 C104.527807,53.4434923 93.2105553,53.8085609 93.2105553,53.8085609 Z" id="Path" fill="#2F2E41" fill-rule="nonzero"></path>
                <circle id="Oval" fill="#FFB9B9" fill-rule="nonzero" cx="96.5874795" cy="16.9362059" r="4.47214178"></circle>
                <path d="M94.9446516,20.5869354 C94.9446516,20.5869354 96.4049427,24.4201983 96.2224059,25.2416123 C96.0398691,26.0630263 100.512011,23.7813212 100.512011,23.7813212 C100.512011,23.7813212 100.238206,19.3091794 100.512011,18.1226935 C100.785816,16.9362076 94.9446516,20.5869354 94.9446516,20.5869354 Z" id="Path" fill="#FFB9B9" fill-rule="nonzero"></path>
                <path d="M107.207432,45.5588232 C107.187385,46.3245652 107.174589,46.7809056 107.174589,46.7809056 C107.174589,46.7809056 107.448393,50.9792488 106.992053,52.3482665 C106.535712,53.7172843 106.535712,54.72124 106.261899,55.6339224 C106.181593,55.8995082 105.089093,56.0418873 103.554892,56.1048625 C102.147521,56.1623619 100.368706,56.1541508 98.6610817,56.1149011 C95.8335936,56.0491905 93.1977581,55.897694 92.7542066,55.8164575 C91.7502559,55.6339224 92.9367434,54.0823628 92.5716698,53.2609489 C92.2065962,52.4395349 93.2105553,41.9436852 93.2105553,41.9436852 C93.2105553,41.9436852 93.1192869,36.0112523 93.5756289,33.7295472 C94.0319709,31.4478421 95.7660656,27.797116 96.1311375,27.340774 C96.4962095,26.884432 96.2224059,26.6106284 95.4009837,26.0630196 C94.5795614,25.5154109 95.4009837,23.4162426 95.4009837,23.4162426 C96.9525432,22.1384883 100.877076,21.9559515 100.877076,21.9559515 C100.877076,21.9559515 106.900776,28.1621879 107.265849,29.4399422 C107.48671,30.2120679 107.407319,36.3799659 107.31057,41.1423467 C107.273166,42.9339574 107.233905,44.5274937 107.207432,45.5588232 Z" id="Path" fill="#575A88" fill-rule="nonzero"></path>
                <path d="M99.5080601,56.911675 C99.5080601,56.911675 96.0398708,64.0305938 98.7779146,64.4869342 C101.515958,64.9432746 102.884984,58.0068925 102.884984,58.0068925 L99.5080601,56.911675 Z" id="Path" fill="#FFB9B9" fill-rule="nonzero"></path>
                <path d="M92.4058684,14.6694005 C92.2477164,13.9023728 92.8339155,13.1853707 93.4513022,12.7035221 C94.7958523,11.6607449 96.4500325,11.0966573 98.1515562,11.1006795 C99.3484469,11.1072024 100.583706,11.4238161 101.488346,12.2075378 C102.543512,13.1216649 103.024834,14.5876024 102.936241,15.9808559 C102.847648,17.3741093 102.241717,18.6955503 101.424407,19.827365 C101.032135,20.3705832 100.402135,20.9329044 99.7753077,20.6961553 C99.5300359,20.5813216 99.3195702,20.40355 99.1653351,20.180937 C98.763274,19.6820635 98.4129308,19.1436369 98.1197008,18.5739491 C97.8953695,18.1380123 97.7010412,17.678529 97.3830937,17.3053337 C97.0651463,16.9321385 96.5872989,16.6514542 96.1016282,16.7184686 C95.7004462,16.7738258 95.3069136,17.0562414 94.9242812,16.9235579 C94.4985917,16.7759366 94.3956892,16.2315967 94.3618357,15.7823143 C94.3247233,15.2898573 94.3510102,14.7194111 94.2142675,14.2538208 C94.0647011,14.3336772 92.4793692,15.0369112 92.4058684,14.6694005 Z" id="Path" fill="#2F2E41" fill-rule="nonzero"></path>
                <path d="M107.207432,45.5588232 C106.185233,49.2451475 103.84056,55.4577725 103.706398,55.7251875 C103.672618,55.79364 103.619698,55.9278014 103.5549,56.1048608 C102.147529,56.1623602 100.368714,56.1541491 98.6610899,56.1148994 C98.9257811,55.4230907 99.2342566,54.7550073 99.2342566,54.5387015 C99.2342566,54.0823612 101.424693,42.3087638 101.424693,42.3087638 C101.424693,42.3087638 99.6906036,37.1064781 98.1390374,32.7256047 C96.5874712,28.3447314 102.748081,29.2117787 102.748081,29.2117787 C106.033737,28.3903598 106.626982,29.8050225 106.626982,29.8050225 C106.626982,29.8050225 106.916297,37.4989288 107.31058,41.1423534 C107.411897,42.0760308 107.519587,42.7432012 107.630931,42.9476409 C107.77697,43.2150575 107.579811,44.2208341 107.207432,45.5588232 Z" id="Path" fill="#000000" fill-rule="nonzero" opacity="0.1"></path>
                <path d="M101.424693,26.2455631 C101.424693,26.2455631 97.2263501,27.9796578 98.7779146,32.3605311 C100.329479,36.7414045 102.06357,41.9436852 102.06357,41.9436852 C102.06357,41.9436852 99.8731337,53.7172876 99.8731337,54.1736296 C99.8731337,54.6299716 98.504116,57.0942118 99.0517198,57.5505522 C99.5993236,58.0068925 103.250063,58.9195699 103.341325,58.4632346 C103.621056,57.4118919 103.956174,56.3760734 104.345276,55.3601155 C104.527811,54.9950436 108.817416,43.5865181 108.269807,42.582569 C107.722198,41.5786199 107.265858,29.4399489 107.265858,29.4399489 C107.265858,29.4399489 104.710347,25.4241491 101.424693,26.2455631 Z" id="Path" fill="#575A88" fill-rule="nonzero"></path>
                <path d="M92.1292781,60.6923129 L75.9978485,45.5549744 L66.4732194,65.2265484 C69.6484727,66.9594066 73.2089312,67.864871 76.8262509,67.8594641 C82.8024615,67.8594641 88.2128916,64.6086911 92.1292781,60.6923129 Z" id="Path" fill="#575A89" fill-rule="nonzero"></path>
                <path d="M92.1292781,60.6923129 L75.9978485,45.5549744 L66.4732194,65.2265484 C69.6484727,66.9594066 73.2089312,67.864871 76.8262509,67.8594641 C82.8024615,67.8594641 88.2128916,64.6086911 92.1292781,60.6923129 Z" id="Path" fill="#000000" fill-rule="nonzero" opacity="0.1"></path>
                <path d="M90.8038343,61.8520762 L75.5008071,46.5490573 L65.1477756,65.5579093 C73.5762559,70.1436151 84.0175355,68.6354474 90.8038343,61.8520762 Z" id="Path" fill="#575A89" fill-rule="nonzero"></path>
                <line x1="65.7751479" y1="99.9053254" x2="131.384615" y2="99.9053254" id="Path" stroke="#3F3D56" stroke-width="0.5"></line>
                <line x1="122.2858" y1="100.06441" x2="122.2858" y2="80.8299808" id="Path" stroke="#3F3D56" stroke-width="0.5" fill="#3F3D56" fill-rule="nonzero"></line>
                <circle id="Oval" fill="#3F3D56" fill-rule="nonzero" cx="122.2858" cy="80.8299808" r="2.72002107"></circle>
                <path d="M122.2858,92.6845579 C122.2858,92.6845579 121.897225,84.3271493 113.931452,85.2985853" id="Path" fill="#3F3D56" fill-rule="nonzero"></path>
            </g>
        </g>
    </g>
</svg>