<?xml version="1.0" encoding="UTF-8"?>
<svg width="137px" height="65px" viewBox="0 0 137 65" version="1.1" xmlns="http://www.w3.org/2000/svg" xmlns:xlink="http://www.w3.org/1999/xlink">
    <title>household_illustration</title>
    <g id="Getting-Started-Page---End-User" stroke="none" stroke-width="1" fill="none" fill-rule="evenodd">
        <g id="Getting-Started-Tab---End-User-Dec-2020" transform="translate(-188.000000, -1248.000000)" fill-rule="nonzero">
            <g id="Explore-NPSP-Section---Expanded" transform="translate(95.000000, 1107.000000)">
                <g id="household_illustration" transform="translate(93.000000, 141.000000)">
                    <path d="M15.1697907,63.6870358 L14.9346893,63.6340853 C17.5561078,51.9763131 24.1439546,41.3900351 33.4846544,33.825247 C47.8410516,22.2165139 67.1675588,18.8282492 84.6167927,24.8609154 C102.066027,30.8935817 115.173028,45.4949766 119.293985,63.4918246 L119.059119,63.545245 C113.509988,39.1805746 92.156219,22.1639468 67.130482,22.1639468 C42.4326955,22.1639468 20.5800701,39.6268909 15.1697907,63.6870358 Z" id="Path" fill="#3F3D56"></path>
                    <polygon id="Path" fill="#A0616A" points="126.697889 58.1376429 127.059367 60.7884785 124.529024 61.0294635 124.890501 57.7761653"></polygon>
                    <path d="M114.769129,21.7489006 C114.769129,21.7489006 115.010114,25.0021988 115.010114,25.1226913 C115.010114,25.2431838 113.323219,33.557168 113.323219,33.557168 C113.323219,33.557168 110.913369,38.1358839 113.323219,38.0153914 C115.733069,37.8948989 115.010114,33.6776605 115.010114,33.6776605 L117.540457,26.6890941 L116.456025,21.7489006 L114.769129,21.7489006 Z" id="Path" fill="#A0616A"></path>
                    <polygon id="Path" fill="#A0616A" points="118.745383 58.1376429 118.383905 60.7884785 120.914248 61.0294635 120.55277 57.7761653"></polygon>
                    <path d="M115.974055,33.3161829 L115.371592,34.1596306 C115.371592,34.1596306 115.010114,37.7744063 115.371592,38.9793316 C115.733069,40.1842568 116.456025,45.7269129 116.456025,46.0883905 C116.456025,46.4498681 116.576517,46.6908531 116.456025,46.8113456 C116.335532,46.9318382 115.974055,46.9318382 116.21504,47.1728232 C116.456025,47.4138083 116.456025,48.1367634 116.456025,48.1367634 L116.456025,48.739226 L118.022427,57.6556728 C118.022427,57.6556728 117.058487,58.7401055 117.781442,58.7401055 C118.504398,58.7401055 121.155233,58.7401055 121.034741,57.5351803 L120.793755,57.4146878 C120.793755,57.4146878 120.432278,49.4621812 120.55277,49.1007036 C120.673263,48.739226 120.55277,48.0162709 120.55277,48.0162709 C120.55277,48.0162709 120.311785,47.6547933 120.55277,47.5343008 C120.793755,47.4138083 120.793755,46.4498681 120.793755,46.4498681 L121.878188,39.0998241 C121.878188,39.0998241 122.842128,44.0400176 123.444591,44.5219877 C124.047054,45.0039578 123.926561,46.208883 123.926561,46.208883 L124.408531,56.8122252 C124.408531,56.8122252 123.926561,58.0171504 124.408531,58.2581354 C124.890501,58.4991205 126.938874,59.3425682 127.059367,58.1376429 C127.179859,56.9327177 127.782322,46.4498681 127.782322,45.967898 C127.782322,45.4859279 127.661829,45.2449428 127.782322,44.8834653 C127.902814,44.5219877 127.661829,44.5219877 127.782322,44.5219877 C127.902814,44.5219877 127.541337,44.1605101 127.541337,43.9195251 L127.541337,38.0153914 C127.541337,38.0153914 127.661829,36.8104661 127.782322,36.5694811 C127.902814,36.328496 127.661829,36.087511 127.782322,35.7260334 C127.902814,35.3645558 127.541337,34.1596306 127.541337,34.1596306 L122.119173,32.7137203 L115.974055,33.3161829 Z" id="Path" fill="#2F2E41"></path>
                    <path d="M120.191293,60.3065084 C120.191293,60.3065084 120.793755,59.7040457 119.950308,59.7040457 C119.408815,59.7150892 118.875479,59.8381668 118.383905,60.0655233 L117.781442,62.2343887 C117.781442,62.2343887 115.311346,64.2225154 118.082674,63.9815303 C120.854002,63.7405453 120.432278,63.9212841 120.432278,63.9212841 C120.432278,63.9212841 121.275726,63.680299 121.396218,63.439314 C121.516711,63.1983289 121.155233,59.7040457 121.155233,59.7040457 C121.155233,59.7040457 120.793755,60.6679859 120.191293,60.3065084 Z" id="Path" fill="#2F2E41"></path>
                    <path d="M125.372471,60.3065084 C125.372471,60.3065084 124.770009,59.7040457 125.613456,59.7040457 C126.154949,59.7150892 126.688285,59.8381668 127.179859,60.0655233 L127.782322,62.2343887 C127.782322,62.2343887 130.252419,64.2225154 127.481091,63.9815303 C124.709763,63.7405453 124.770009,63.9212841 124.770009,63.9212841 C124.770009,63.9212841 123.926561,63.680299 123.806069,63.439314 C123.685576,63.1983289 124.408531,59.7040457 124.408531,59.7040457 C124.408531,59.7040457 124.770009,60.6679859 125.372471,60.3065084 Z" id="Path" fill="#2F2E41"></path>
                    <rect id="Rectangle" fill="#3F3D56" x="34.4778574" y="21.3792055" width="1.07269916" height="42.3716094"></rect>
                    <path d="M45.4503513,26.7789791 C45.5186368,41.5952749 35.0945887,53.6545547 35.0945887,53.6545547 C35.0945887,53.6545547 24.5598273,41.6918713 24.4915406,26.8755732 C24.4232539,12.059275 34.8473031,-2.40985086e-06 34.8473031,-2.40985086e-06 C34.8473031,-2.40985086e-06 45.3820633,11.9626834 45.4503513,26.7789791 Z" id="Path" fill="#FE9E2C"></path>
                    <rect id="Rectangle" fill="#F2F2F2" x="27.1710642" y="46.208883" width="83.0193492" height="17.5919085"></rect>
                    <polygon id="Path" fill="#3F3D56" points="24.5202287 48.1367634 33.557168 29.2194371 105.73219 29.2194371 112.479771 48.1367634"></polygon>
                    <rect id="Rectangle" fill="#F2F2F2" x="47.0523307" y="30.4243624" width="33.4969217" height="11.0853122"></rect>
                    <polygon id="Path" fill="#3F3D56" points="49.2211961 21.387423 43.9195251 32.4727353 83.682058 32.4727353 80.5492524 21.387423"></polygon>
                    <rect id="Rectangle" fill="#CCCCCC" x="50.0043975" y="49.7031662" width="26.4481091" height="14.0976253"></rect>
                    <rect id="Rectangle" fill="#CCCCCC" x="30.4243624" y="50.1851363" width="14.0976253" height="13.6156552"></rect>
                    <rect id="Rectangle" fill="#3F3D56" x="81.0312225" y="51.028584" width="7.28979771" height="12.7722076"></rect>
                    <rect id="Rectangle" fill="#3F3D56" x="0" y="63.7405453" width="137" height="1"></rect>
                    <rect id="Rectangle" fill="#3F3D56" x="21.6771955" y="35.7933683" width="1" height="27.9607108"></rect>
                    <path d="M28.9178624,39.3566395 C28.9629266,49.1338029 22.0841723,57.0916317 22.0841723,57.0916317 C22.0841723,57.0916317 15.1323561,49.1975459 15.0872991,39.4203824 C15.0422421,29.643219 21.9209892,21.685389 21.9209892,21.685389 C21.9209892,21.685389 28.8728006,29.5794784 28.9178624,39.3566395 Z" id="Path" fill="#FE9E2C"></path>
                    <path d="M28.9178624,39.3566395 C28.9629266,49.1338029 22.0841723,57.0916317 22.0841723,57.0916317 C22.0841723,57.0916317 15.1323561,49.1975459 15.0872991,39.4203824 C15.0422421,29.643219 21.9209892,21.685389 21.9209892,21.685389 C21.9209892,21.685389 28.8728006,29.5794784 28.9178624,39.3566395 Z" id="Path" fill="#000000" opacity="0.1"></path>
                    <rect id="Rectangle" fill="#3F3D56" x="12.4749356" y="35.7933683" width="1" height="27.9607108"></rect>
                    <path d="M19.7156025,39.3566395 C19.7606667,49.1338029 12.8819124,57.0916317 12.8819124,57.0916317 C12.8819124,57.0916317 5.93009621,49.1975459 5.88503923,39.4203824 C5.83998226,29.643219 12.7187306,21.685389 12.7187306,21.685389 C12.7187306,21.685389 19.6705419,29.5794784 19.7156025,39.3566395 Z" id="Path" fill="#FE9E2C"></path>
                    <rect id="Rectangle" fill="#3F3D56" x="96.2132806" y="51.7515391" width="3.55452946" height="3.31354442"></rect>
                    <rect id="Rectangle" fill="#3F3D56" x="100.972735" y="51.7515391" width="3.55452946" height="3.31354442"></rect>
                    <rect id="Rectangle" fill="#3F3D56" x="96.2132806" y="56.2700088" width="3.55452946" height="3.43403694"></rect>
                    <rect id="Rectangle" fill="#3F3D56" x="100.972735" y="56.2700088" width="3.55452946" height="3.43403694"></rect>
                    <rect id="Rectangle" fill="#3F3D56" x="50.1248901" y="33.4576303" width="2.78180609" height="2.59320878"></rect>
                    <rect id="Rectangle" fill="#3F3D56" x="53.8496803" y="33.4576303" width="2.78180609" height="2.59320878"></rect>
                    <rect id="Rectangle" fill="#3F3D56" x="50.1248901" y="36.9938244" width="2.78180609" height="2.68750743"></rect>
                    <rect id="Rectangle" fill="#3F3D56" x="53.8496803" y="36.9938244" width="2.78180609" height="2.68750743"></rect>
                    <rect id="Rectangle" fill="#3F3D56" x="70.9700967" y="33.4576303" width="2.78180609" height="2.59320878"></rect>
                    <rect id="Rectangle" fill="#3F3D56" x="74.694887" y="33.4576303" width="2.78180609" height="2.59320878"></rect>
                    <rect id="Rectangle" fill="#3F3D56" x="70.9700967" y="36.9938244" width="2.78180609" height="2.68750743"></rect>
                    <rect id="Rectangle" fill="#3F3D56" x="74.694887" y="36.9938244" width="2.78180609" height="2.68750743"></rect>
                    <rect id="Rectangle" fill="#3F3D56" x="60.6077397" y="33.4576303" width="2.78180609" height="2.59320878"></rect>
                    <rect id="Rectangle" fill="#3F3D56" x="64.3325299" y="33.4576303" width="2.78180609" height="2.59320878"></rect>
                    <rect id="Rectangle" fill="#3F3D56" x="60.6077397" y="36.9938244" width="2.78180609" height="2.68750743"></rect>
                    <rect id="Rectangle" fill="#3F3D56" x="64.3325299" y="36.9938244" width="2.78180609" height="2.68750743"></rect>
                    <rect id="Rectangle" fill="#F2F2F2" x="82.6578716" y="52.3225689" width="1.75150704" height="1.63276046"></rect>
                    <rect id="Rectangle" fill="#F2F2F2" x="85.0031104" y="52.3225689" width="1.75150704" height="1.63276046"></rect>
                    <rect id="Rectangle" fill="#F2F2F2" x="82.6578716" y="54.5490611" width="1.75150704" height="1.69213435"></rect>
                    <rect id="Rectangle" fill="#F2F2F2" x="85.0031104" y="54.5490611" width="1.75150704" height="1.69213435"></rect>
                    <circle id="Oval" fill="#F2F2F2" cx="87.35708" cy="58.3183817" r="1"></circle>
                    <rect id="Rectangle" fill="#F2F2F2" x="50.0043975" y="51.2093228" width="26.5083553" height="1"></rect>
                    <rect id="Rectangle" fill="#F2F2F2" x="50.0043975" y="52.2937555" width="26.5083553" height="1"></rect>
                    <rect id="Rectangle" fill="#F2F2F2" x="50.0043975" y="53.3781882" width="26.5083553" height="1"></rect>
                    <rect id="Rectangle" fill="#F2F2F2" x="50.0043975" y="54.4626209" width="26.5083553" height="1"></rect>
                    <rect id="Rectangle" fill="#F2F2F2" x="50.0043975" y="55.5470536" width="26.5083553" height="1"></rect>
                    <rect id="Rectangle" fill="#F2F2F2" x="50.0043975" y="56.6314864" width="26.5083553" height="1"></rect>
                    <rect id="Rectangle" fill="#F2F2F2" x="50.0043975" y="57.7159191" width="26.5083553" height="1"></rect>
                    <rect id="Rectangle" fill="#F2F2F2" x="50.0043975" y="58.8003518" width="26.5083553" height="1"></rect>
                    <rect id="Rectangle" fill="#F2F2F2" x="50.0043975" y="59.8847845" width="26.5083553" height="1"></rect>
                    <rect id="Rectangle" fill="#F2F2F2" x="50.0043975" y="60.9692172" width="26.5083553" height="1"></rect>
                    <rect id="Rectangle" fill="#F2F2F2" x="50.0043975" y="62.05365" width="26.5083553" height="1"></rect>
                    <rect id="Rectangle" fill="#F2F2F2" x="30.4243624" y="51.2093228" width="14.0976253" height="1"></rect>
                    <rect id="Rectangle" fill="#F2F2F2" x="30.4243624" y="52.2937555" width="14.0976253" height="1"></rect>
                    <rect id="Rectangle" fill="#F2F2F2" x="30.4243624" y="53.3781882" width="14.0976253" height="1"></rect>
                    <rect id="Rectangle" fill="#F2F2F2" x="30.4243624" y="54.4626209" width="14.0976253" height="1"></rect>
                    <rect id="Rectangle" fill="#F2F2F2" x="30.4243624" y="55.5470536" width="14.0976253" height="1"></rect>
                    <rect id="Rectangle" fill="#F2F2F2" x="30.4243624" y="56.6314864" width="14.0976253" height="1"></rect>
                    <rect id="Rectangle" fill="#F2F2F2" x="30.4243624" y="57.7159191" width="14.0976253" height="1"></rect>
                    <rect id="Rectangle" fill="#F2F2F2" x="30.4243624" y="58.8003518" width="14.0976253" height="1"></rect>
                    <rect id="Rectangle" fill="#F2F2F2" x="30.4243624" y="59.8847845" width="14.0976253" height="1"></rect>
                    <rect id="Rectangle" fill="#F2F2F2" x="30.4243624" y="60.9692172" width="14.0976253" height="1"></rect>
                    <rect id="Rectangle" fill="#F2F2F2" x="30.4243624" y="62.05365" width="14.0976253" height="1"></rect>
                    <circle id="Oval" fill="#FE9E2C" cx="105.671944" cy="29.1591909" r="9.75989446"></circle>
                    <polygon id="Path" fill="#FFFFFF" points="111.817062 28.1952507 106.635884 28.1952507 106.635884 23.0140721 104.708004 23.0140721 104.708004 28.1952507 99.526825 28.1952507 99.526825 30.123131 104.708004 30.123131 104.708004 35.3043096 106.635884 35.3043096 106.635884 30.123131 111.817062 30.123131"></polygon>
                    <circle id="Oval" fill="#A0616A" cx="117.540457" cy="9.09718558" r="3.13280563"></circle>
                    <path d="M116.456025,11.3865435 C116.456025,11.3865435 116.937995,13.796394 116.937995,14.1578716 C116.937995,14.5193492 118.986368,15.6037819 118.986368,15.6037819 L121.275726,12.7119613 C121.275726,12.7119613 119.829815,10.6635884 119.829815,10.1816183 L116.456025,11.3865435 Z" id="Path" fill="#A0616A"></path>
                    <path d="M118.263412,14.5193492 C118.263412,14.5193492 117.213229,14.2398282 116.894873,13.7771261 C116.894873,13.7771261 113.564204,17.0496922 113.564204,17.6521548 L116.21504,22.3513632 C116.21504,22.3513632 116.21504,24.0382586 116.456025,24.1587511 C116.69701,24.2792436 116.456025,24.1587511 116.456025,24.6407212 C116.456025,25.1226913 115.733069,28.2554969 115.974055,28.737467 C116.21504,29.2194371 116.456025,28.8579595 116.21504,29.5809147 C115.974055,30.3038698 115.371592,34.1596306 115.371592,34.1596306 C115.371592,34.1596306 117.540457,33.4366755 120.673263,34.6416007 C123.806069,35.8465259 127.541337,34.1596306 127.541337,34.1596306 C127.541337,34.1596306 126.577397,31.9907652 126.818382,31.26781 C127.059367,30.5448549 126.215919,29.2194371 126.215919,29.2194371 L125.613456,18.1341249 C125.613456,18.1341249 126.456904,13.1939314 125.854442,12.9529464 L124.649516,12.4709763 L120.790864,11.9967273 C120.790864,11.9967273 119.829815,14.3988566 118.263412,14.5193492 Z" id="Path" fill="#D0CDE1"></path>
                    <path d="M114.769129,16.8087071 L113.564204,17.6521548 C113.564204,17.6521548 112.961741,19.4595427 113.564204,20.3029903 C114.166667,21.146438 114.407652,22.3513632 114.407652,22.3513632 L116.817502,22.1103782 L114.769129,16.8087071 Z" id="Path" fill="#D0CDE1"></path>
                    <path d="M123.685576,17.8931398 C123.685576,17.8931398 122.987821,19.6873663 123.133572,21.4625718 C123.160229,21.7804099 123.267254,22.0862531 123.444591,22.3513632 L123.444591,22.3513632 L114.896316,26.4096816 C114.896316,26.4096816 111.033861,26.8095866 111.997801,28.496482 C112.961741,30.1833773 116.456025,27.6530343 116.456025,27.6530343 C116.456025,27.6530343 125.613456,26.3276165 126.336412,25.0021988 C127.059367,23.676781 127.541337,18.1341249 127.541337,18.1341249 L123.685576,17.8931398 Z" id="Path" fill="#A0616A"></path>
                    <path d="M115.148577,5.78634742 L114.605156,5.56879094 C114.605156,5.56879094 115.7414,4.3178484 117.322279,4.42663026 L116.877648,3.93712576 C116.877648,3.93712576 117.964491,3.50202003 118.952538,4.64417589 C119.471931,5.24459014 120.072878,5.95033413 120.447503,6.74535224 L121.029473,6.74535224 L120.78658,7.28017398 L121.636704,7.81499571 L120.764136,7.71892702 C120.846783,8.18065367 120.818493,8.65541272 120.681599,9.10405726 L120.704987,9.52677998 C120.704987,9.52677998 119.693559,7.96188935 119.693559,7.74433407 L119.693559,8.28822287 C119.693559,8.28822287 119.150137,7.7987256 119.150137,7.47239449 L118.853726,7.85311713 L118.70552,7.25483681 L116.877648,7.85311713 L117.17406,7.36361987 L116.037816,7.52678602 L116.482446,6.9285057 C116.482446,6.9285057 115.197996,7.63555583 115.148583,8.23383977 C115.09917,8.83212371 114.456968,9.59355694 114.456968,9.59355694 L114.160556,9.04966814 C114.160556,9.04966814 113.71592,6.6021758 115.148577,5.78634742 Z" id="Path" fill="#2F2E41"></path>
                    <path d="M124.047054,12.9529464 L125.854442,12.9529464 C125.854442,12.9529464 127.179859,13.1939314 127.541337,15.6037819 C127.902814,18.0136324 128.264292,18.616095 127.902814,18.616095 C127.541337,18.616095 123.203606,18.4956025 123.203606,18.3751099 C123.203606,18.2546174 124.047054,12.9529464 124.047054,12.9529464 Z" id="Path" fill="#D0CDE1"></path>
                </g>
            </g>
        </g>
    </g>
</svg>