<?xml version="1.0" encoding="UTF-8"?>
<svg width="137px" height="137px" viewBox="0 0 137 137" version="1.1" xmlns="http://www.w3.org/2000/svg" xmlns:xlink="http://www.w3.org/1999/xlink">
    <title>features_illustration</title>
    <defs>
        <linearGradient x1="49.976522%" y1="100%" x2="49.976522%" y2="-0.00844175216%" id="linearGradient-1">
            <stop stop-color="#808080" stop-opacity="0.25" offset="0%"></stop>
            <stop stop-color="#808080" stop-opacity="0.12" offset="54%"></stop>
            <stop stop-color="#808080" stop-opacity="0.1" offset="100%"></stop>
        </linearGradient>
        <linearGradient x1="49.9918143%" y1="100.014074%" x2="49.9918143%" y2="-0.0189852106%" id="linearGradient-2">
            <stop stop-color="#808080" stop-opacity="0.25" offset="0%"></stop>
            <stop stop-color="#808080" stop-opacity="0.12" offset="54%"></stop>
            <stop stop-color="#808080" stop-opacity="0.1" offset="100%"></stop>
        </linearGradient>
    </defs>
    <g id="features_illustration" stroke="none" stroke-width="1" fill="none" fill-rule="evenodd">
        <g id="undraw_buy_house_560d-(5)" transform="translate(-765.000000, 87.000000)"></g>
        <g id="undraw_features_overview_jg7a" transform="translate(0.000000, 30.000000)">
            <path d="M76.2095584,10.5150966 C68.3122079,10.469724 60.7425483,8.45190432 53.505621,6.21730451 C46.2687005,3.98270469 39.0960442,1.49351426 31.3612787,0.399530819 C26.3866789,-0.301223551 20.7176265,-0.279797608 16.7815547,2.11108556 C12.9942042,4.4124839 11.8447654,8.25402944 11.2637443,11.8069549 C10.8251426,14.4801564 10.5982797,17.2882153 12.0350782,19.7471573 C13.0320147,21.4536707 14.7624747,22.8665225 15.9761914,24.4948942 C20.1971021,30.1601656 17.4886109,37.3378565 13.2034223,43.0737075 C11.1868629,45.7645538 8.84765409,48.3419687 7.315069,51.1903588 C5.7824839,54.0387489 5.12080037,57.2791076 6.59036799,60.1111132 C8.04733211,62.919172 11.4074241,64.9735419 15.0271481,66.3889144 C22.3800276,69.2612511 30.9781325,69.9254554 39.3518951,70.2165961 C57.8928979,70.8618951 76.4943974,69.9367985 95.045483,69.0129623 C101.911868,68.6701472 108.80724,68.3248114 115.542548,67.2484729 C119.283266,66.6485465 123.138675,65.7448758 125.815658,63.7270561 C129.218602,61.1635051 129.974811,56.9463753 127.580147,53.8963293 C123.567194,48.7780497 112.786164,47.7433027 109.935253,42.2154094 C108.364857,39.1716651 109.81678,35.7044434 111.921564,32.7955566 C116.436136,26.5555658 124.120488,20.989862 124.362475,13.9772769 C124.528841,9.16022079 120.654526,4.43390984 114.79012,2.29887764 C108.634572,0.0529346826 100.202833,0.557074517 95.8016927,4.61540018 C91.274517,8.79345906 83.1881141,10.5554278 76.2095584,10.5150966 Z" id="Path" fill="#AB6ACB" fill-rule="nonzero" opacity="0.1"></path>
            <g id="db976b58-83c4-4bad-bfc1-713fe8b9d2f6" transform="translate(52.178473, 6.175713)">
                <path d="M19.54046,24.5692548 C19.54046,24.5692548 16.0770193,18.4326127 10.859172,16.6643422 C8.66632272,15.9362018 6.76870381,14.5166361 5.45101196,12.6186201 C4.83249165,11.712829 4.29838529,10.7521969 3.85540938,9.74880405" id="Path" stroke="#535461" stroke-width="2"></path>
                <path d="M0.575979761,8.61448942 C1.16960442,9.19172953 3.93859246,9.78787489 3.93859246,9.78787489 C3.93859246,9.78787489 3.25926403,7.03905244 2.66563937,6.46181233 C2.071194,5.8847688 1.12151461,5.89887576 0.54447106,6.49332111 C-0.0325724931,7.08776645 -0.0184655676,8.03744585 0.575979761,8.61448942 Z" id="Path" fill="#AB6ACB" fill-rule="nonzero"></path>
                <path d="M2.14763569,13.5928703 C2.96056118,13.754195 5.60981601,12.7496964 5.60981601,12.7496964 C5.60981601,12.7496964 3.53402024,10.808758 2.72613615,10.6474333 C1.91277619,10.4876848 1.12391592,11.0175416 0.964167433,11.8309016 C0.804418942,12.6442615 1.33427573,13.4331218 2.14763569,13.5928703 L2.14763569,13.5928703 Z" id="Path" fill="#AB6ACB" fill-rule="nonzero"></path>
                <path d="M7.84441582,18.9733027 C8.62709292,18.7023275 10.4067065,16.4992364 10.4067065,16.4992364 C10.4067065,16.4992364 7.64654094,15.8690616 6.86386385,16.1387764 C6.35030464,16.3084034 5.96784957,16.7413931 5.86292939,17.2719665 C5.75800922,17.8025399 5.94687674,18.3485078 6.35722016,18.7008353 C6.76756357,19.0531628 7.3358181,19.157272 7.84441582,18.9733027 L7.84441582,18.9733027 Z" id="Path" fill="#AB6ACB" fill-rule="nonzero"></path>
                <path d="M13.0773873,22.0762833 C13.8940938,21.9414259 16.0203036,20.0698068 16.0203036,20.0698068 C16.0203036,20.0698068 13.4063385,18.9808648 12.5883717,19.1157222 C11.7708353,19.2507601 11.217561,20.0229742 11.352599,20.8405106 C11.4876369,21.6580469 12.2598509,22.2113212 13.0773873,22.0762833 L13.0773873,22.0762833 Z" id="Path" fill="#AB6ACB" fill-rule="nonzero"></path>
                <path d="M7.91121435,10.5982797 C7.91121435,11.4275897 6.41265869,13.829816 6.41265869,13.829816 C6.41265869,13.829816 4.91158234,11.42885 4.91158234,10.59954 C4.91158234,9.77121451 5.58307284,9.09972401 6.41139834,9.09972401 C7.23972385,9.09972401 7.91121435,9.77121451 7.91121435,10.59954 L7.91121435,10.5982797 Z" id="Path" fill="#AB6ACB" fill-rule="nonzero"></path>
                <path d="M13.984839,14.3037075 C13.7327691,15.095207 11.5901748,16.9390984 11.5901748,16.9390984 C11.5901748,16.9390984 10.8768169,14.1978381 11.1238454,13.4101196 C11.371299,12.619382 12.2129192,12.1789632 13.0036569,12.4264167 C13.7943945,12.6738703 14.2348133,13.5154905 13.9873597,14.3062282 L13.984839,14.3037075 Z" id="Path" fill="#AB6ACB" fill-rule="nonzero"></path>
                <path d="M19.3929991,18.714931 C19.2833487,19.5366789 17.4760074,21.7183441 17.4760074,21.7183441 C17.4760074,21.7183441 16.310184,19.1371481 16.4198344,18.3154002 C16.5301618,17.4943834 17.2851654,16.9182559 18.1061822,17.0285833 C18.9271989,17.1389106 19.5033265,17.8939142 19.3929991,18.714931 Z" id="Path" fill="#AB6ACB" fill-rule="nonzero"></path>
                <path d="M0.575979761,8.61448942 C1.16960442,9.19172953 3.93859246,9.78787489 3.93859246,9.78787489 C3.93859246,9.78787489 3.25926403,7.03905244 2.66563937,6.46181233 C2.071194,5.8847688 1.12151461,5.89887576 0.54447106,6.49332111 C-0.0325724931,7.08776645 -0.0184655676,8.03744585 0.575979761,8.61448942 Z" id="Path" fill="#000000" fill-rule="nonzero" opacity="0.25"></path>
                <path d="M2.14763569,13.5928703 C2.96056118,13.754195 5.60981601,12.7496964 5.60981601,12.7496964 C5.60981601,12.7496964 3.53402024,10.808758 2.72613615,10.6474333 C1.91277619,10.4876848 1.12391592,11.0175416 0.964167433,11.8309016 C0.804418942,12.6442615 1.33427573,13.4331218 2.14763569,13.5928703 L2.14763569,13.5928703 Z" id="Path" fill="#000000" fill-rule="nonzero" opacity="0.25"></path>
                <path d="M7.84441582,18.9733027 C8.62709292,18.7023275 10.4067065,16.4992364 10.4067065,16.4992364 C10.4067065,16.4992364 7.64654094,15.8690616 6.86386385,16.1387764 C6.35030464,16.3084034 5.96784957,16.7413931 5.86292939,17.2719665 C5.75800922,17.8025399 5.94687674,18.3485078 6.35722016,18.7008353 C6.76756357,19.0531628 7.3358181,19.157272 7.84441582,18.9733027 L7.84441582,18.9733027 Z" id="Path" fill="#000000" fill-rule="nonzero" opacity="0.25"></path>
                <path d="M13.0773873,22.0762833 C13.8940938,21.9414259 16.0203036,20.0698068 16.0203036,20.0698068 C16.0203036,20.0698068 13.4063385,18.9808648 12.5883717,19.1157222 C11.7708353,19.2507601 11.217561,20.0229742 11.352599,20.8405106 C11.4876369,21.6580469 12.2598509,22.2113212 13.0773873,22.0762833 L13.0773873,22.0762833 Z" id="Path" fill="#000000" fill-rule="nonzero" opacity="0.25"></path>
                <path d="M7.91121435,10.5982797 C7.91121435,11.4275897 6.41265869,13.829816 6.41265869,13.829816 C6.41265869,13.829816 4.91158234,11.42885 4.91158234,10.59954 C4.91158234,9.77121451 5.58307284,9.09972401 6.41139834,9.09972401 C7.23972385,9.09972401 7.91121435,9.77121451 7.91121435,10.59954 L7.91121435,10.5982797 Z" id="Path" fill="#000000" fill-rule="nonzero" opacity="0.25"></path>
                <path d="M13.984839,14.3037075 C13.7327691,15.095207 11.5901748,16.9390984 11.5901748,16.9390984 C11.5901748,16.9390984 10.8768169,14.1978381 11.1238454,13.4101196 C11.371299,12.619382 12.2129192,12.1789632 13.0036569,12.4264167 C13.7943945,12.6738703 14.2348133,13.5154905 13.9873597,14.3062282 L13.984839,14.3037075 Z" id="Path" fill="#000000" fill-rule="nonzero" opacity="0.25"></path>
                <path d="M19.3929991,18.714931 C19.2833487,19.5366789 17.4760074,21.7183441 17.4760074,21.7183441 C17.4760074,21.7183441 16.310184,19.1371481 16.4198344,18.3154002 C16.5301618,17.4943834 17.2851654,16.9182559 18.1061822,17.0285833 C18.9271989,17.1389106 19.5033265,17.8939142 19.3929991,18.714931 Z" id="Path" fill="#000000" fill-rule="nonzero" opacity="0.25"></path>
                <path d="M19.3425851,24.4482613 C19.3425851,24.4482613 18.6619963,17.4331555 14.6099724,13.7025207 C12.8997815,12.1487245 11.7397622,10.0820947 11.3040754,7.81290708 C11.1059212,6.73402253 11.0071999,5.63922888 11.0091252,4.54229991" id="Path" stroke="#535461" stroke-width="2"></path>
                <path d="M8.46954922,2.17536339 C8.77833487,2.94417663 11.0683901,4.61161914 11.0683901,4.61161914 C11.0683901,4.61161914 11.5611868,1.8224655 11.2511408,1.05365225 C11.0566653,0.548221332 10.6048199,0.186884629 10.0689971,0.108302737 C9.53317442,0.0297208449 8.99660321,0.24609981 8.66518921,0.674405622 C8.3337752,1.10271143 8.25899661,1.67641578 8.46954922,2.17536339 L8.46954922,2.17536339 Z" id="Path" fill="#AB6ACB" fill-rule="nonzero"></path>
                <path d="M7.88474701,7.35918123 C8.56281509,7.83559338 11.3897792,7.98935603 11.3897792,7.98935603 C11.3897792,7.98935603 10.2882337,5.38043238 9.61142594,4.90402024 C8.93379999,4.42721102 7.99794538,4.59000514 7.52113615,5.26763109 C7.04432693,5.94525705 7.20712106,6.88111166 7.88474701,7.35792088 L7.88474701,7.35918123 Z" id="Path" fill="#AB6ACB" fill-rule="nonzero"></path>
                <path d="M10.9171481,14.5923275 C11.7426771,14.6616467 14.2621159,13.3672677 14.2621159,13.3672677 C14.2621159,13.3672677 11.9934867,11.6720975 11.1679577,11.6027783 C10.3424165,11.5331711 9.6167553,12.1459767 9.54714811,12.9715179 C9.47754093,13.7970592 10.0903465,14.5227203 10.9158878,14.5923275 L10.9171481,14.5923275 Z" id="Path" fill="#AB6ACB" fill-rule="nonzero"></path>
                <path d="M14.4436063,19.5480221 C15.2451886,19.7559798 17.9473781,18.9065041 17.9473781,18.9065041 C17.9473781,18.9065041 15.9976173,16.8521343 15.196035,16.6378749 C14.6678101,16.4712151 14.0907314,16.6092525 13.6950969,16.9968997 C13.2994624,17.3845469 13.1496857,17.9586907 13.3055391,18.4902043 C13.4613925,19.0217179 13.8975014,19.4240651 14.4398252,19.5366789 L14.4436063,19.5480221 Z" id="Path" fill="#AB6ACB" fill-rule="nonzero"></path>
                <path d="M14.3730267,6.96217111 C14.0377737,7.71838086 11.6935235,9.30894204 11.6935235,9.30894204 C11.6935235,9.30894204 11.2939926,6.50592456 11.6292456,5.74845446 C11.9644042,4.99078025 12.8503203,4.64826366 13.6079945,4.98342226 C14.3656687,5.31858086 14.7081853,6.2044969 14.3730267,6.96217111 L14.3730267,6.96217111 Z" id="Path" fill="#AB6ACB" fill-rule="nonzero"></path>
                <path d="M18.4225299,12.8114535 C17.8755382,13.4328059 15.1632659,14.2482521 15.1632659,14.2482521 C15.1632659,14.2482521 15.6207728,11.454057 16.1715455,10.8314443 C16.5252401,10.4286693 17.0669453,10.2451836 17.592606,10.3501046 C18.1182667,10.4550255 18.5480226,10.8324132 18.7199887,11.3401092 C18.8919549,11.8478052 18.7800055,12.4086785 18.4263109,12.8114535 L18.4225299,12.8114535 Z" id="Path" fill="#AB6ACB" fill-rule="nonzero"></path>
                <path d="M21.5797056,19.0350598 C21.1461454,19.7408556 18.610322,21.0037259 18.610322,21.0037259 C18.610322,21.0037259 18.588896,18.1717203 19.0224563,17.4646642 C19.4670753,16.7846884 20.3719928,16.5818644 21.0643092,17.0070128 C21.7566256,17.4321613 21.9850413,18.3309602 21.5797056,19.0350598 L21.5797056,19.0350598 Z" id="Path" fill="#AB6ACB" fill-rule="nonzero"></path>
            </g>
            <path d="M104.169154,75.2302668 C104.540957,75.9864765 101.910607,76.799402 98.6526035,77.033827 C95.7336339,77.2443054 93.3339282,76.9014903 93.030184,76.2864397 C92.7264397,75.6713891 94.5854554,74.9252622 97.4414075,74.5887489 C100.628832,74.2156854 103.797351,74.4816191 104.169154,75.2302668 Z" id="Path" fill="#AB6ACB" fill-rule="nonzero" opacity="0.1"></path>
            <polygon id="Path" fill="#FFFFFF" fill-rule="nonzero" points="27.5701472 35.2330727 67.7223643 21.0125483 67.7223643 70.1397148 27.5701472 69.3028427"></polygon>
            <polygon id="Path" fill="#AB6ACB" fill-rule="nonzero" opacity="0.2" points="27.5701472 35.2330727 67.7223643 21.0125483 67.7223643 70.1397148 27.5701472 69.3028427"></polygon>
            <polygon id="Path" fill="#FFFFFF" fill-rule="nonzero" points="0 43.345943 22.9068537 35.2330727 22.9068537 69.3028427 0 69.3028427"></polygon>
            <polygon id="Path" fill="#AB6ACB" fill-rule="nonzero" opacity="0.2" points="0 43.345943 22.9068537 35.2330727 22.9068537 69.3028427 0 69.3028427"></polygon>
            <polygon id="Path" fill="#FFFFFF" fill-rule="nonzero" points="67.7223643 21.0125483 107.873321 35.2330727 107.873321 69.3028427 67.7223643 70.1397148"></polygon>
            <polygon id="Path" fill="#AB6ACB" fill-rule="nonzero" opacity="0.5" points="67.7223643 21.0125483 107.873321 35.2330727 107.873321 69.3028427 67.7223643 70.1397148"></polygon>
            <polygon id="Path" fill="#FFFFFF" fill-rule="nonzero" points="135.858123 43.4480313 112.662649 35.2330727 112.662649 69.3028427 135.858123 69.3028427"></polygon>
            <polygon id="Path" fill="#AB6ACB" fill-rule="nonzero" opacity="0.5" points="135.858123 43.4480313 112.662649 35.2330727 112.662649 69.3028427 135.858123 69.3028427"></polygon>
            <path d="M13.3483625,49.2607636 C13.1857774,49.2607636 13.0534407,49.4825851 13.0534407,49.756081 L13.0534407,55.9217111 C13.0620413,56.5300518 12.9186481,57.130917 12.6362649,57.669816 C12.3728519,58.1323643 11.96954,58.4260258 11.583873,58.4260258 L11.3318031,58.4260258 C10.9536983,58.4260258 10.5831555,58.1437075 10.2932751,57.6458694 C9.99104316,57.1084197 9.83340639,56.501757 9.83576817,55.885161 L9.83576817,47.9298344 C9.82787376,47.490069 9.94124967,47.0566242 10.1634591,46.6770469 C10.3739374,46.3443146 10.649954,46.1603036 10.9398344,46.1603036 C11.2297148,46.1603036 11.4956486,46.3443146 11.6960442,46.6745262 C11.9085806,47.0600082 12.015536,47.4947862 12.0060902,47.9348758 L12.0060902,55.3633763 C12.0060902,55.9053266 11.7540202,56.3842594 11.4565777,56.3842594 C11.2045078,56.3842594 10.9221895,55.9759062 10.9221895,55.3633763 L10.9221895,51.1210396 C10.9221895,50.848804 10.7898528,50.6257222 10.6272677,50.6257222 C10.4646826,50.6257222 10.3310856,50.848804 10.3310856,51.1210396 L10.3310856,55.3583349 C10.3310856,56.4850874 10.8150598,57.334563 11.4565777,57.334563 C11.7691444,57.334563 12.0577645,57.1404692 12.2657222,56.7863109 C12.4982991,56.3471638 12.6125365,55.8550308 12.5971941,55.3583349 L12.5971941,47.9298344 C12.6101688,47.2443502 12.4400555,46.5678124 12.1043974,45.9699908 C11.7918307,45.4469457 11.374655,45.1608464 10.9297516,45.1608464 C10.4848482,45.1608464 10.0676725,45.4469457 9.75132475,45.9699908 C9.41481935,46.5687953 9.24507705,47.246894 9.25978841,47.9336155 L9.25978841,55.8876817 C9.25978841,56.7989144 9.49169273,57.724011 9.87735971,58.3617479 C10.2630267,58.9994848 10.7848114,59.3700276 11.3191996,59.3700276 L11.5775713,59.3700276 C12.1006164,59.3700276 12.6249218,58.9994848 13.0156302,58.3516651 C13.2179104,58.0095812 13.370272,57.6403482 13.4680957,57.255161 C13.5810355,56.8188431 13.6377903,56.3698878 13.636991,55.9191904 L13.636991,49.7434775 C13.636991,49.4699816 13.5109476,49.2481601 13.3433211,49.2481601 L13.3483625,49.2607636 Z" id="Path" fill="#FFFFFF" fill-rule="nonzero"></path>
            <path d="M69.7742134,62.9884913 C69.7742134,62.9884913 70.5216007,63.9665225 69.4288776,65.4423919 C68.3361546,66.9182613 67.4337443,68.1660074 67.7992456,69.0835419 C67.7992456,69.0835419 69.4477829,66.3422815 70.7887948,66.3107728 C72.1298068,66.279264 71.2488224,64.6370285 69.7742134,62.9884913 Z" id="Path" fill="#AB6ACB" fill-rule="nonzero"></path>
            <path d="M69.7742134,62.9884913 C69.8390992,63.0834102 69.8904278,63.1869159 69.9267157,63.2960166 C71.2349586,64.8336431 71.9319319,66.2679209 70.674103,66.304471 C69.5019779,66.3385005 68.0966881,68.4332015 67.7601748,68.9625483 C67.7705169,69.0053448 67.7835668,69.0474412 67.7992456,69.0885833 C67.7992456,69.0885833 69.4477829,66.3473229 70.7887948,66.3158142 C72.1298068,66.2843054 71.2488224,64.6370285 69.7742134,62.9884913 Z" id="Path" fill="#000000" fill-rule="nonzero" opacity="0.1"></path>
            <path d="M71.1631187,64.234977 C71.1631187,64.5790524 71.1240478,64.8575897 71.0761546,64.8575897 C71.0282613,64.8575897 70.9904508,64.5790524 70.9904508,64.234977 C70.9904508,63.8909016 71.0383441,64.0522263 71.0862374,64.0522263 C71.1341306,64.0522263 71.1631187,63.8909016 71.1631187,64.234977 Z" id="Path" fill="#FFD037" fill-rule="nonzero"></path>
            <path d="M71.6395308,64.645851 C71.3383073,64.8096964 71.0748942,64.909264 71.0522079,64.8676725 C71.0295216,64.826081 71.2551242,64.6584545 71.5563477,64.4895676 C71.8575713,64.3206808 71.7390984,64.4454554 71.7617847,64.4895676 C71.784471,64.5336799 71.9420147,64.4807452 71.6395308,64.645851 Z" id="Path" fill="#FFD037" fill-rule="nonzero"></path>
            <path d="M65.8255382,62.9884913 C65.8255382,62.9884913 65.0781509,63.9665225 66.170874,65.4423919 C67.2635971,66.9182613 68.1634867,68.1660074 67.7992456,69.0835419 C67.7992456,69.0835419 66.1519687,66.3422815 64.8096964,66.3107728 C63.4674241,66.279264 64.3496688,64.6370285 65.8255382,62.9884913 Z" id="Path" fill="#AB6ACB" fill-rule="nonzero"></path>
            <path d="M65.8255382,62.9884913 C65.7606525,63.0834102 65.7093238,63.1869159 65.6730359,63.2960166 C64.3635327,64.8336431 63.6665593,66.2679209 64.9256486,66.304471 C66.0965133,66.3385005 67.5030635,68.4332015 67.8395768,68.9625483 C67.8288032,69.0053681 67.8153326,69.0474637 67.7992456,69.0885833 C67.7992456,69.0885833 66.1519687,66.3473229 64.8096964,66.3158142 C63.4674241,66.2843054 64.3496688,64.6370285 65.8255382,62.9884913 Z" id="Path" fill="#000000" fill-rule="nonzero" opacity="0.1"></path>
            <path d="M64.4366329,64.234977 C64.4366329,64.5790524 64.4744434,64.8575897 64.5223367,64.8575897 C64.57023,64.8575897 64.6093008,64.5790524 64.6093008,64.234977 C64.6093008,63.8909016 64.5601472,64.0522263 64.5135143,64.0522263 C64.4668813,64.0522263 64.4366329,63.8909016 64.4366329,64.234977 Z" id="Path" fill="#FFD037" fill-rule="nonzero"></path>
            <path d="M63.9589604,64.645851 C64.2614443,64.8096964 64.5248574,64.909264 64.5475437,64.8676725 C64.57023,64.826081 64.3446274,64.6584545 64.0434039,64.4895676 C63.7421803,64.3206808 63.8606532,64.4454554 63.8379669,64.4895676 C63.8152806,64.5336799 63.6526955,64.4807452 63.9589604,64.645851 Z" id="Path" fill="#FFD037" fill-rule="nonzero"></path>
            <ellipse id="Oval" fill="#AB6ACB" fill-rule="nonzero" opacity="0.1" cx="67.7992456" cy="75.3613431" rx="7.81416743" ry="1.19859246"></ellipse>
            <path d="M71.8222815,67.7664765 L71.784471,68.0714811 L71.7315363,68.5025207 L71.7101104,68.6814903 L71.6571757,69.1137902 L71.6344894,69.2927599 L71.5828151,69.7237994 L70.984149,74.6265593 C70.9312144,75.0639006 70.2165961,75.4054554 69.3532567,75.4054554 L66.2464949,75.4054554 C65.3831555,75.4054554 64.6697976,75.0639006 64.6156026,74.6265593 L64.0169365,69.7237994 L63.9640018,69.2927599 L63.9425759,69.1137902 L63.8896412,68.6814903 L63.8669549,68.5025207 L63.8152806,68.0714811 L63.7774701,67.7664765 C63.7472217,67.5144066 64.134149,67.3089696 64.6231647,67.3089696 L70.9778473,67.3089696 C71.4668629,67.3089696 71.8525299,67.5181877 71.8222815,67.7664765 Z" id="Path" fill="#444053" fill-rule="nonzero"></path>
            <polygon id="Path" fill="#9D9CB5" fill-rule="nonzero" points="71.784471 68.0714811 71.7315363 68.5025207 63.8669549 68.5025207 63.8152806 68.0714811"></polygon>
            <polygon id="Path" fill="#9D9CB5" fill-rule="nonzero" points="71.7101104 68.6827507 71.6571757 69.1137902 63.9425759 69.1137902 63.8896412 68.6827507"></polygon>
            <polygon id="Path" fill="#9D9CB5" fill-rule="nonzero" points="71.6344894 69.2940202 71.5828151 69.7250598 64.0169365 69.7250598 63.9640018 69.2940202"></polygon>
            <path d="M52.6069917,41.1441122 L51.4033579,42.7434959 C51.3828542,42.7739675 51.3461923,42.7893258 51.310092,42.7825667 L50.066127,42.4851242 C50.0181423,42.4669148 49.9848312,42.4228266 49.9804232,42.3716927 L49.7586017,40.7244158 C49.7519654,40.6802495 49.7623245,40.6352098 49.7875897,40.5983809 L50.9887029,39.0015179 C51.0813447,38.8694694 51.0698169,38.6907883 50.9609752,38.5717387 C50.7335102,38.3446737 50.4299651,38.2099643 50.1089788,38.1936339 C50.0913887,38.1916672 50.0736343,38.1916672 50.0560442,38.1936339 C49.7207912,38.2188408 49.0023919,38.4671297 48.4478381,39.2472861 C47.9096688,40.0034959 47.3462925,41.3974425 47.845391,42.9552346 C47.9046274,43.1430267 47.9714259,43.3913155 47.7722907,43.6547286 C47.5731555,43.9181417 42.4221067,50.3345814 42.4221067,50.3345814 C41.9393928,50.8853542 41.9746826,51.9037167 42.4221067,52.496081 C42.6149873,52.7702606 42.9252127,52.9382022 43.2602392,52.9498068 C43.5875583,52.9437985 43.888047,52.7675181 44.0529991,52.4847378 C44.0529991,52.4847378 48.8599724,45.704057 49.0943974,45.3952714 C49.1583923,45.2904553 49.2693067,45.2232487 49.3918399,45.2150414 C49.4750811,45.2193457 49.5550607,45.2487887 49.6212236,45.2994848 C49.876898,45.4741047 50.1800054,45.5660487 50.4896044,45.5628979 C51.2080037,45.5628979 51.9629531,45.1217755 52.424241,44.5117663 C52.899868,43.8984548 53.1764984,43.1543236 53.2170009,42.3792548 C53.2329591,41.9562727 53.1340948,41.5368616 52.9309016,41.1655382 C52.9035903,41.1035664 52.8446421,41.0614341 52.7771659,41.0556579 C52.7096898,41.0498817 52.6444383,41.0813822 52.6069917,41.1378105 L52.6069917,41.1441122 Z M43.5324747,51.724747 C43.4735265,51.8145445 43.3733281,51.8686276 43.2659108,51.8686276 C43.1584935,51.8686276 43.058295,51.8145445 42.9993468,51.724747 C42.8552406,51.511549 42.8552406,51.2321493 42.9993468,51.0189512 C43.058295,50.9291538 43.1584935,50.8750707 43.2659108,50.8750707 C43.3733281,50.8750707 43.4735265,50.9291538 43.5324747,51.0189512 C43.6769619,51.2318919 43.6774608,51.5112917 43.5337351,51.724747 L43.5324747,51.724747 Z" id="Shape" fill="#FFFFFF" fill-rule="nonzero"></path>
            <path d="M95.2206716,44.2357498 C94.8879393,40.3891628 92.280276,37.3920515 89.1079761,37.3920515 C87.0082337,37.3920515 85.1593008,38.7015547 84.0489328,40.7017295 C83.7081148,40.5249789 83.3300487,40.4320827 82.946127,40.4307544 C81.3429623,40.4307544 80.0473229,42.1952438 80.0183349,44.1840754 C78.3798804,44.8344158 77.3010212,46.8308096 77.3010212,48.9255106 C77.3010212,51.4928427 78.969724,53.7589512 81.0266145,53.7589512 L94.5678105,53.7589512 C96.6259614,53.7589512 98.2946642,51.490322 98.2946642,48.9255106 C98.2946642,46.6392364 96.9662557,44.6239374 95.2206716,44.2357498 L95.2206716,44.2357498 Z M92.1618031,43.3535051 L86.6805428,50.2224103 L86.6805428,50.2224103 C86.6099632,50.3093744 86.4284729,50.5034683 86.2041306,50.5034683 C86.0096927,50.4808364 85.8347982,50.3745189 85.7251978,50.2123275 L83.4250598,47.3450322 C83.3597247,47.2589817 83.3597247,47.1399419 83.4250598,47.0538914 L84.1548022,46.143919 C84.1813755,46.1066481 84.2237504,46.0838308 84.269494,46.0821619 C84.3152898,46.0836379 84.3577449,46.1064983 84.3841858,46.143919 L86.205391,48.4125483 L91.2064581,42.1271849 C91.2334107,42.0903467 91.2755589,42.0676516 91.32115,42.0654278 C91.3672734,42.0656533 91.4102645,42.0888023 91.4358418,42.1271849 L92.1529807,43.0535419 C92.2253762,43.1378444 92.2290525,43.2612619 92.1618031,43.349724 L92.1618031,43.3535051 Z" id="Shape" fill="#FFFFFF" fill-rule="nonzero"></path>
            <ellipse id="Oval" fill="#FFFFFF" fill-rule="nonzero" cx="128.414499" cy="48.6646182" rx="1.24648574" ry="1.6624011"></ellipse>
            <path d="M128.414499,50.9685373 C128.277051,50.9678948 128.140548,50.9457821 128.009926,50.9029991 L126.779825,52.575483 C126.758603,52.6043513 126.758603,52.6436616 126.779825,52.6725299 L128.734627,55.445299 C128.866885,55.6373066 128.866885,55.8910283 128.734627,56.0830359 C128.678572,56.1597972 128.590171,56.2063239 128.495161,56.2090708 C128.400448,56.2065108 128.312354,56.1599003 128.256955,56.0830359 L126.309715,53.3102668 C126.301308,53.2975937 126.287112,53.2899748 126.271904,53.2899748 C126.256697,53.2899748 126.2425,53.2975937 126.234094,53.3102668 L125.758942,53.9555658 C125.361932,54.4924747 124.835106,54.4118123 124.267948,54.4155934 C123.700791,54.4193744 123.150018,54.0967249 122.746707,53.5522539 L122.29046,52.9321619 C122.282054,52.9194888 122.267857,52.91187 122.252649,52.91187 C122.237442,52.91187 122.223245,52.9194888 122.214839,52.9321619 L120.267599,55.704931 C120.211544,55.7816923 120.123143,55.828219 120.028132,55.830966 C119.933419,55.8284059 119.845325,55.7817955 119.789926,55.704931 C119.657668,55.5129234 119.657668,55.2592017 119.789926,55.0671941 L121.744729,52.294425 C121.762329,52.2644699 121.762329,52.2273332 121.744729,52.1973781 L118.948013,48.4012052 C118.913983,48.3558326 118.859788,48.3873413 118.859788,48.4490984 L118.859788,56.0464857 C118.859788,56.6564949 119.237893,57.1555934 119.690359,57.1555934 L128.830414,57.5336983 C129.287921,57.5336983 129.660984,57.0295584 129.660984,56.4245906 L129.660984,50.2577001 C129.347157,50.6950414 128.906035,50.9685373 128.414499,50.9685373 Z" id="Path" fill="#FFFFFF" fill-rule="nonzero"></path>
            <path d="M126.68782,48.6646182 C126.686294,48.2846077 126.758635,47.9079224 126.900819,47.5555106 L119.687838,47.1774057 C119.489786,47.1822978 119.303022,47.2706448 119.173615,47.4206532 L123.248326,52.9535879 C123.473952,53.2966119 123.852522,53.5082348 124.262907,53.5207452 C124.641012,53.5207452 125.009034,53.6984545 125.278749,53.3316927 L127.368408,50.4933855 C126.953753,50.0711684 126.68782,49.4094848 126.68782,48.6646182 L126.68782,48.6646182 Z" id="Path" fill="#FFFFFF" fill-rule="nonzero"></path>
            <path d="M136.85632,68.5920055 C136.85632,68.5920055 135.382971,68.503781 135.5569,69.534747 C135.537435,69.6412605 135.588167,69.748306 135.682935,69.8006808 C135.682935,69.8006808 135.682935,69.7237994 135.834177,69.7502668 C135.887075,69.7588233 135.940772,69.7613601 135.994241,69.7578289 C136.066249,69.7522717 136.134643,69.7240318 136.189595,69.6771665 L136.189595,69.6771665 C136.189595,69.6771665 136.60299,69.505759 136.764315,68.8289512 C136.764315,68.8289512 136.884048,68.6814903 136.879006,68.6436799 L136.626937,68.7495492 C136.674439,68.8529653 136.680749,68.9705964 136.644581,69.0785005 C136.644581,69.0785005 136.637019,68.755851 136.589126,68.7634131 C136.579043,68.7634131 136.463091,68.8264305 136.463091,68.8264305 C136.463091,68.8264305 136.609292,69.1377369 136.499641,69.3645998 C136.499641,69.3645998 136.541233,68.9864949 136.417718,68.8491168 L136.24253,68.9512052 C136.24253,68.9512052 136.413937,69.2725943 136.297985,69.5360074 C136.297985,69.5360074 136.328234,69.1326955 136.20598,68.9751518 L136.047176,69.1011868 C136.047176,69.1011868 136.2085,69.4200552 136.110193,69.6380957 C136.110193,69.6380957 136.09759,69.1679853 136.013146,69.1339558 C135.952999,69.1848204 135.899251,69.2428007 135.853082,69.3066237 C135.853082,69.3066237 135.962732,69.5372677 135.894673,69.6582613 C135.894673,69.6582613 135.853082,69.3456946 135.819052,69.3444342 C135.746815,69.4502356 135.695085,69.5686594 135.66655,69.6935511 C135.673647,69.5621352 135.714918,69.4348467 135.786283,69.3242686 C135.70649,69.3392995 135.632866,69.3774263 135.574545,69.433919 C135.574545,69.433919 135.595971,69.2877185 135.826615,69.2738546 C135.868138,69.2132022 135.916332,69.157398 135.970294,69.1074885 C135.849397,69.0970776 135.727644,69.1112251 135.612355,69.14908 C135.612355,69.14908 135.73839,69.0104416 136.011886,69.0734591 L136.168169,68.9474241 C136.029608,68.9247971 135.888294,68.9247971 135.749733,68.9474241 C135.749733,68.9474241 135.893413,68.8213891 136.209761,68.914655 L136.381168,68.8125667 C136.250062,68.7836781 136.115778,68.7718171 135.981638,68.7772769 C136.126771,68.7229489 136.287102,68.7256511 136.430322,68.784839 L136.556357,68.730644 C136.556357,68.730644 136.372346,68.6940938 136.319411,68.6890524 C136.266477,68.684011 136.262695,68.6676265 136.262695,68.6676265 C136.378796,68.6486664 136.497878,68.6621886 136.606771,68.7066973 C136.693141,68.6758219 136.776643,68.6374448 136.85632,68.5920055 Z" id="Path" fill="#AB6ACB" fill-rule="nonzero"></path>
            <ellipse id="Oval" fill="#AB6ACB" fill-rule="nonzero" opacity="0.1" cx="135.841739" cy="69.8901656" rx="1.04230911" ry="1"></ellipse>
            <path d="M114.164986,68.6348574 C114.164986,68.6348574 112.387893,68.5277277 112.597111,69.769172 C112.574815,69.8987309 112.638397,70.0279284 112.754655,70.0893008 C112.754655,70.0893008 112.754655,69.9972953 112.937406,70.028804 C113.001081,70.039614 113.065842,70.0425769 113.130239,70.0376265 C113.217708,70.0320556 113.300939,69.9979662 113.367185,69.9405796 L113.367185,69.9405796 C113.367185,69.9405796 113.871325,69.7338822 114.060377,68.9171757 C114.060377,68.9171757 114.205317,68.7394664 114.199016,68.6928335 L113.899052,68.8188684 C113.956277,68.9432564 113.963939,69.0847791 113.920478,69.2146182 C113.920478,69.2146182 113.911656,68.8264305 113.85368,68.8365133 C113.842337,68.8365133 113.697397,68.910874 113.697397,68.910874 C113.697397,68.910874 113.873845,69.2889788 113.741509,69.5624747 C113.741509,69.5624747 113.791923,69.0974057 113.641941,68.9322999 L113.431463,69.0583349 C113.431463,69.0583349 113.6369,69.4477829 113.498261,69.7666513 C113.498261,69.7666513 113.533551,69.278896 113.387351,69.0885833 L113.195777,69.2385649 C113.195777,69.2385649 113.389871,69.6166697 113.271398,69.8851242 C113.271398,69.8851242 113.256274,69.3179669 113.154186,69.275115 C113.081623,69.3362642 113.016859,69.406108 112.961352,69.4830727 C112.961352,69.4830727 113.087387,69.7616099 113.011766,69.9090708 C113.011766,69.9090708 112.961352,69.530966 112.919761,69.530966 C112.833011,69.6592079 112.770633,69.8023363 112.73575,69.9531831 C112.744092,69.7945094 112.79361,69.6407429 112.87943,69.5070193 C112.785133,69.524214 112.697693,69.5679341 112.62736,69.6330543 C112.62736,69.6330543 112.653827,69.455345 112.924802,69.4402208 C112.97485,69.3665524 113.03321,69.2988886 113.09873,69.2385649 C112.952705,69.2260382 112.805655,69.2431869 112.666431,69.2889788 C112.666431,69.2889788 112.81011,69.1213523 113.147884,69.1969733 L113.336937,69.0432107 C113.169979,69.0161489 112.999754,69.0161489 112.832797,69.0432107 C112.832797,69.0432107 113.005465,68.8957498 113.388611,69.0028795 L113.594048,68.8768445 C113.435666,68.8418529 113.273367,68.8278688 113.111334,68.835253 C113.111334,68.835253 113.301647,68.7319043 113.654545,68.8428151 L113.800745,68.7772769 C113.800745,68.7772769 113.580184,68.734425 113.514646,68.7268629 C113.449108,68.7193008 113.446587,68.7016559 113.446587,68.7016559 C113.586874,68.6785722 113.730811,68.6947106 113.862502,68.7482889 C113.966546,68.7196809 114.067787,68.6817156 114.164986,68.6348574 L114.164986,68.6348574 Z" id="Path" fill="#AB6ACB" fill-rule="nonzero"></path>
            <ellipse id="Oval" fill="#AB6ACB" fill-rule="nonzero" opacity="0.1" cx="112.941187" cy="70.2027323" rx="1.25782889" ry="1"></ellipse>
            <path d="M103.015934,56.2103312 C103.015934,56.2103312 103.160874,56.0704324 103.112981,55.9759062 C103.084643,55.9165159 103.084643,55.8475043 103.112981,55.7881141 C103.112981,55.7881141 102.78781,54.5101196 102.666817,54.3815639 C102.587382,54.2879143 102.526245,54.1801769 102.486587,54.0639558 C102.499205,54.0389968 102.505277,54.0112414 102.504232,53.9832935 C102.498872,53.8544646 102.454966,53.7302104 102.378197,53.6266145 C102.283659,53.4868366 102.231572,53.3226963 102.228215,53.1539834 C102.226952,53.1329966 102.226952,53.1119528 102.228215,53.090966 L102.228215,53.090966 L102.228215,53.090966 C102.154839,52.8984632 101.992002,52.7539804 101.792134,52.7040386 C101.833726,52.4330635 101.890442,52.1620883 101.908086,51.8898528 C101.964802,51.0365961 101.647194,50.2085465 101.334627,49.4094848 C101.266357,49.2114158 101.174534,49.0222679 101.061132,48.8461086 C100.778429,48.4737038 100.350093,48.2398159 99.883965,48.2033303 C99.7143535,48.1820658 99.5421349,48.1988571 99.3798252,48.2524839 C99.2195757,48.3244454 99.072582,48.4228672 98.9450046,48.5436247 C98.8101472,48.6570561 98.6752898,48.7730083 98.5505152,48.8965225 L98.535391,48.9116467 L98.4912787,48.9582797 L98.4736339,48.9759246 L98.4320423,49.0225575 L98.4169181,49.038942 C98.3992732,49.060368 98.380368,49.0817939 98.3627231,49.1044802 L98.3627231,49.1044802 C98.3463385,49.1259062 98.329954,49.1460718 98.3148298,49.1674977 L98.2997056,49.1889236 L98.2669365,49.2355566 L98.2518123,49.2595032 C98.2404692,49.2758878 98.2316467,49.2922723 98.2215639,49.3086569 L98.2077001,49.3313431 C98.1950966,49.3552898 98.1812328,49.3792364 98.1686293,49.4044434 L98.1232567,49.5052714 L98.1232567,49.5191352 L98.0967893,49.5859338 C98.0627599,49.6665961 98.0299908,49.7472585 97.9883993,49.8241398 L97.9883993,49.8241398 L97.9808372,49.8367433 L97.890092,49.9463937 C97.8486835,50.0008477 97.8139841,50.0600906 97.7867433,50.1228427 L97.7779209,50.1430083 C97.7779209,50.1518307 97.7716191,50.1619135 97.7678381,50.170736 L97.7590156,50.1934223 C97.7566588,50.2032531 97.7537126,50.2129333 97.7501932,50.2224103 C97.7501932,50.2299724 97.7501932,50.2375345 97.7501932,50.2463569 L97.7426311,50.2740846 C97.7426311,50.2829071 97.7426311,50.2904692 97.7426311,50.2992916 C97.7426311,50.3081141 97.7426311,50.3181969 97.7363293,50.3270193 L97.7363293,50.3534867 L97.7363293,50.3812144 C97.7363293,50.3912971 97.7363293,50.4013799 97.7363293,50.4127231 C97.7363293,50.4240662 97.7363293,50.4278473 97.7363293,50.434149 C97.7363293,50.4404508 97.7363293,50.4694388 97.7363293,50.4870837 C97.7363293,50.5047286 97.7363293,50.5009476 97.7363293,50.5085097 C97.7357013,50.5198441 97.7357013,50.5312046 97.7363293,50.5425391 C97.7357096,50.5500885 97.7357096,50.557676 97.7363293,50.5652254 C97.7357066,50.5757191 97.7357066,50.5862404 97.7363293,50.5967341 L97.7363293,50.6194204 C97.7363293,50.6307636 97.7363293,50.6408464 97.7363293,50.6509292 C97.7357417,50.6584798 97.7357417,50.6660648 97.7363293,50.6736155 L97.7438914,50.7063845 C97.7438914,50.7063845 97.7438914,50.7202484 97.7438914,50.7265501 L97.7552346,50.7618399 C97.7552346,50.7618399 97.7552346,50.7731831 97.7615363,50.7782245 C97.7678381,50.7832659 97.7741398,50.8135143 97.7817019,50.8298988 C97.8204284,50.9143453 97.8677299,50.9945889 97.9228611,51.0693652 C97.9594112,51.1197792 97.9972217,51.1689328 98.0350322,51.2193468 L98.0892272,51.2949678 C98.1259348,51.3451745 98.1592001,51.3978095 98.1887948,51.4525115 C98.3688453,51.7960721 98.3539883,52.2091933 98.149724,52.5389328 L98.1043514,52.6082521 C98.0794602,52.6466959 98.0619374,52.6894345 98.0526771,52.734287 C98.0437253,52.8132001 98.0700077,52.8920475 98.124517,52.9498068 L98.0123459,52.9787948 C97.9203404,53.0040018 97.8573229,53.0241674 97.8573229,53.0241674 C97.7810095,53.0174448 97.7042527,53.0174448 97.6279393,53.0241674 C97.5219874,53.0576226 97.4267643,53.1184958 97.3519227,53.2006164 C97.3519227,53.2006164 96.8704692,53.2585925 96.7129255,53.1186937 C96.5553818,52.9787948 96.0033487,52.9309016 96.0033487,52.9309016 C96.0033487,52.9309016 95.8470653,52.625897 95.6781785,52.5313707 C95.5092916,52.4368445 95.1009384,52.2616559 95.0883349,52.1683901 C95.053192,52.0696754 95.0002189,51.9782541 94.9320515,51.8986753 C94.8491302,51.8809042 94.7647532,51.870779 94.6799816,51.8684269 L94.6535143,51.8230543 L94.3170009,51.2420331 C94.3170009,51.2420331 93.8947838,50.7492364 93.6666605,50.7026035 C93.4385373,50.6559706 93.9880497,51.2256486 94.014517,51.2521159 C93.8522755,51.1361157 93.6267533,51.1733269 93.5103772,51.335299 C93.3314075,51.5344342 93.8065593,52.0020239 94.1014811,52.2603956 L94.1493744,52.3019871 C94.1514828,52.3278333 94.1552719,52.3535147 94.1607176,52.3788684 C94.2930543,53.0708004 95.0265777,53.6694664 95.0265777,53.6694664 C95.0265777,53.6694664 95.1110212,54.0563937 95.3882981,54.15092 C95.6088592,54.2252806 96.7935879,54.7621895 97.4111592,54.8693192 C97.3594848,55.0029163 97.298988,55.3129623 97.554839,55.7692088 C97.554839,55.7692088 97.6153358,56.5783533 97.4829991,56.6842226 C97.3506624,56.790092 97.3569641,57.9622171 97.3569641,57.9622171 C97.3569641,57.9622171 96.8528243,60.0027231 97.3569641,60.4362833 C97.3889324,60.4637275 97.4251035,60.4858558 97.4640938,60.5018215 C97.4640938,60.5333303 97.4729163,60.5660994 97.4766973,60.6001288 C97.4993836,60.8043054 97.5069457,61.0160442 97.4527507,61.1042686 C97.3267157,61.3034039 97.4943422,61.8428335 97.4943422,61.8428335 C97.4943422,61.8428335 97.0078473,64.599218 97.2246274,65.5722079 C97.3614875,66.2992373 97.4256614,67.0380813 97.4162006,67.7778197 C97.4162006,67.7778197 97.3443606,68.6335971 97.7174241,69.1503404 C97.758429,69.2725284 97.7825979,69.3997329 97.789264,69.5284453 C97.8137378,69.7756474 97.8788933,70.0171061 97.9820975,70.2430635 C98.0665409,70.4069089 98.2341674,71.1001012 98.0904876,71.2866329 C97.9468077,71.4731647 98.2467709,73.5161914 98.2467709,73.5161914 C98.2467709,73.5161914 98.0060442,74.1463661 98.2467709,74.4778381 L98.254333,74.4866605 C98.1115592,74.4849782 97.9696177,74.4646403 97.8321159,74.4261638 C97.5624011,74.3354186 97.764057,74.6782337 98.0841858,74.9126587 C97.944287,75.2302668 97.7527139,75.6562649 97.6884361,75.7949034 C97.4098988,75.8427967 96.8578657,75.9209384 96.5339558,75.844057 C96.0890524,75.739448 96.7267893,76.4540662 97.3279761,76.5838822 C97.7524798,76.6631703 98.1845554,76.6944557 98.6160534,76.6771481 L99.004241,76.2486293 C99.3178849,76.2907411 99.6348547,76.3025588 99.9507636,76.283919 L99.9167341,76.6821895 L100.144857,76.6821895 L100.144857,76.2687948 C100.288537,76.254931 100.437259,76.2360258 100.591021,76.2082981 C100.591021,76.2082981 100.599844,75.7722171 100.572116,75.3600828 L100.712015,75.3726863 L100.733441,75.144563 L101.228758,75.2340478 L101.673661,71.579034 C101.673661,71.579034 101.722815,70.2191168 101.831205,69.4566053 C101.939595,68.6940938 101.601822,66.1368445 101.601822,66.1368445 C101.601822,66.1368445 101.577875,66.0108096 101.553928,65.7738638 C101.529982,65.5369181 101.553928,64.1543146 101.553928,64.1543146 C101.553928,64.1543146 101.734158,63.3981049 101.698868,63.333827 C101.663579,63.2695492 101.710212,62.9468997 101.710212,62.9468997 C102.466421,61.4054922 101.536283,60.0128059 101.212374,59.5994112 C101.231052,59.5820079 101.242331,59.5580949 101.243882,59.5326127 C101.245756,59.5238897 101.245756,59.5148683 101.243882,59.5061454 C101.192844,59.3757849 101.13218,59.2494013 101.062392,59.1280405 L101.251444,58.8873137 C101.316983,58.9818399 101.363615,59.0524195 101.363615,59.0524195 C101.363615,59.0524195 101.567792,58.5949126 101.773229,58.4222447 C101.978666,58.2495768 102.964259,56.6048206 102.964259,56.6048206 C102.964259,56.6048206 103.193643,56.451058 103.072649,56.3225023 C102.951656,56.1939466 103.015934,56.2103312 103.015934,56.2103312 Z M99.9835327,69.1818491 C99.9673919,69.1286573 99.9378848,69.0804913 99.8978289,69.0419503 C99.8978289,69.0419503 99.8625391,68.7898804 99.8499356,68.4659706 C99.9217755,68.7180405 99.9948758,68.9007912 99.9948758,68.9007912 L99.9835327,69.1818491 Z M100.55069,75.1773321 C100.55069,75.1546458 100.55069,75.1319595 100.55069,75.1105336 L100.568335,75.1105336 L100.55069,75.1773321 Z M100.699411,58.4928243 L100.699411,58.4777001 C100.693975,58.4119362 100.723689,58.3481938 100.777553,58.3100736 C100.805664,58.2927089 100.821715,58.2610923 100.819144,58.2281509 C100.813287,58.1750983 100.793261,58.1245993 100.761168,58.0819503 C100.785115,58.0995952 100.859476,58.1399264 100.90989,57.9937259 C100.91744,57.970962 100.92127,57.9471296 100.921233,57.9231463 C100.909207,57.8009558 100.859429,57.6855426 100.778813,57.5929347 L101.323284,56.4460166 C101.382833,56.4637325 101.443454,56.4776247 101.504775,56.4876081 L101.504775,56.4876081 C101.362355,56.9287305 101.245143,57.4542962 101.245143,57.4542962 L100.824186,58.3806532 C100.852702,58.3917133 100.877881,58.4099463 100.897286,58.4335879 L100.699411,58.4928243 Z" id="Shape" fill="url(#linearGradient-1)" fill-rule="nonzero"></path>
            <path d="M98.8882889,74.4576725 C98.8882889,74.4576725 98.1812328,74.5446366 97.8371573,74.4261638 C97.4930819,74.3076909 97.9430267,74.9303036 98.4080957,75.0828059 C98.7363467,75.1790998 99.074744,75.2366273 99.4163753,75.2542134 L99.9621067,74.7399908 L100.541868,74.7853634 L100.44104,75.353781 L100.62127,75.3701656 L100.690589,74.6265593 L98.8882889,74.4576725 Z" id="Path" fill="#444053" fill-rule="nonzero"></path>
            <path d="M98.8882889,74.4576725 C98.8882889,74.4576725 98.1812328,74.5446366 97.8371573,74.4261638 C97.4930819,74.3076909 97.9430267,74.9303036 98.4080957,75.0828059 C98.7363467,75.1790998 99.074744,75.2366273 99.4163753,75.2542134 L99.9621067,74.7399908 L100.541868,74.7853634 L100.44104,75.353781 L100.62127,75.3701656 L100.690589,74.6265593 L98.8882889,74.4576725 Z" id="Path" fill="#000000" fill-rule="nonzero" opacity="0.1"></path>
            <path d="M97.8674057,75.7570929 C97.8674057,75.7570929 97.0179301,75.9423643 96.5881509,75.8377553 C96.1583717,75.7331463 96.7746826,76.4427231 97.3557038,76.5700184 C97.765331,76.6493015 98.182799,76.680601 98.5996688,76.6632843 L99.2046366,75.9776541 L99.9129531,75.9663109 L99.854977,76.6683257 L100.076799,76.6683257 L100.076799,75.7570929 L97.8674057,75.7570929 Z" id="Path" fill="#444053" fill-rule="nonzero"></path>
            <path d="M97.8674057,75.7570929 C97.8674057,75.7570929 97.0179301,75.9423643 96.5881509,75.8377553 C96.1583717,75.7331463 96.7746826,76.4427231 97.3557038,76.5700184 C97.765331,76.6493015 98.182799,76.680601 98.5996688,76.6632843 L99.2046366,75.9776541 L99.9129531,75.9663109 L99.854977,76.6683257 L100.076799,76.6683257 L100.076799,75.7570929 L97.8674057,75.7570929 Z" id="Path" fill="#000000" fill-rule="nonzero" opacity="0.1"></path>
            <path d="M101.005676,59.6082337 C101.005676,59.6082337 102.458859,61.2240018 101.587958,63.048988 C101.587958,63.048988 101.541325,63.3754186 101.575354,63.4333947 C101.609384,63.4913707 101.436716,64.2475805 101.436716,64.2475805 C101.436716,64.2475805 101.412769,65.6188408 101.436716,65.8520055 C101.460662,66.0851702 101.483349,66.2112052 101.483349,66.2112052 C101.483349,66.2112052 101.808519,68.7457682 101.70391,69.5019779 C101.599301,70.2581877 101.552668,71.6067617 101.552668,71.6067617 L101.122889,75.2340478 L98.8908096,74.8156118 L99.8990892,69.8384913 L99.934379,68.9562466 C99.934379,68.9562466 99.515943,67.876127 99.7012144,67.3291352 C99.8864857,66.7821435 99.6545814,59.8187121 99.6545814,59.8187121 L101.005676,59.6082337 Z" id="Path" fill="#444053" fill-rule="nonzero"></path>
            <path d="M101.005676,59.6082337 C101.005676,59.6082337 102.458859,61.2240018 101.587958,63.048988 C101.587958,63.048988 101.541325,63.3754186 101.575354,63.4333947 C101.609384,63.4913707 101.436716,64.2475805 101.436716,64.2475805 C101.436716,64.2475805 101.412769,65.6188408 101.436716,65.8520055 C101.460662,66.0851702 101.483349,66.2112052 101.483349,66.2112052 C101.483349,66.2112052 101.808519,68.7457682 101.70391,69.5019779 C101.599301,70.2581877 101.552668,71.6067617 101.552668,71.6067617 L101.122889,75.2340478 L98.8908096,74.8156118 L99.8990892,69.8384913 L99.934379,68.9562466 C99.934379,68.9562466 99.515943,67.876127 99.7012144,67.3291352 C99.8864857,66.7821435 99.6545814,59.8187121 99.6545814,59.8187121 L101.005676,59.6082337 Z" id="Path" fill="#000000" fill-rule="nonzero" opacity="0.02"></path>
            <path d="M99.9368997,67.4211408 C99.6848298,67.908896 99.8436339,69.094885 99.8436339,69.094885 C100.180147,69.3860258 99.9948758,71.9205888 99.9948758,71.9205888 C99.9948758,71.9205888 100.22678,74.419862 100.372981,74.7110028 C100.519181,75.0021435 100.499016,76.1982153 100.499016,76.1982153 C98.7899816,76.5120423 97.6733119,75.8377553 97.6733119,75.8377553 C97.6733119,75.8377553 98.2203036,74.5937902 98.2316467,74.5358142 C98.2379485,74.5030451 98.3110488,74.5912695 98.3324747,74.6177369 L98.2316467,74.4778381 C97.9984821,74.1526679 98.2316467,73.5250138 98.2316467,73.5250138 C98.2316467,73.5250138 97.940506,71.5084545 98.0804048,71.315621 C98.2203036,71.1227875 98.0577185,70.4434591 97.9757958,70.280874 C97.8756992,70.0559765 97.8127057,69.8163455 97.789264,69.5712971 C97.7825394,69.4448619 97.7592336,69.319858 97.7199448,69.199494 C97.3594848,68.6877921 97.428804,67.8395768 97.428804,67.8395768 C97.438441,67.1067968 97.3763885,66.3748308 97.2435327,65.6541306 C97.0343146,64.6887029 97.504425,61.9562649 97.504425,61.9562649 C97.504425,61.9562649 97.3481417,61.4218767 97.4640938,61.2240018 C97.5170285,61.1357774 97.5094664,60.9265593 97.4867801,60.719862 C97.4590524,60.4677921 97.4061178,60.2333671 97.4061178,60.2333671 L100.580938,59.6737718 C100.647737,59.7846826 100.706973,59.8918123 100.764949,59.995161 C101.814821,61.934839 101.106504,62.6544986 101.106504,62.6544986 L100.432217,64.7239926 C100.432217,64.7239926 100.192751,66.9321251 99.9368997,67.4211408 Z" id="Path" fill="#444053" fill-rule="nonzero"></path>
            <path d="M94.9093652,52.2490524 L94.4556394,52.6271573 C94.4556394,52.6271573 94.3661546,52.5565777 94.2476817,52.449448 C93.9628427,52.1973781 93.5040754,51.7297884 93.6767433,51.5331739 C93.7293353,51.4564348 93.8108569,51.4043653 93.9025965,51.3889169 C93.994336,51.3734685 94.0884146,51.3959681 94.1632383,51.4512511 C94.1380313,51.4235235 93.6112052,50.8601472 93.8279853,50.9055198 C94.0447654,50.9508924 94.4581601,51.439908 94.4581601,51.439908 L94.7833303,52.0158878 L94.9093652,52.2490524 Z" id="Path" fill="#EFB7B9" fill-rule="nonzero"></path>
            <polygon id="Path" fill="#EFB7B9" fill-rule="nonzero" points="100.98299 58.5281141 100.448602 58.6906992 100.854434 59.3990156 101.319503 58.7953082"></polygon>
            <circle id="Oval" fill="#EFB7B9" fill-rule="nonzero" cx="99.7276817" cy="50.3434039" r="1.5225023"></circle>
            <path d="M98.8315731,50.899218 C98.8315731,50.899218 100.217958,53.0960074 98.9021527,53.2825391 C97.5863477,53.4690708 100.666642,54.8050414 100.666642,54.8050414 L101.817341,53.6429991 C101.817341,53.6429991 100.620009,51.5735051 100.809062,50.7832659 C100.998114,49.9930267 98.8315731,50.899218 98.8315731,50.899218 Z" id="Path" fill="#EFB7B9" fill-rule="nonzero"></path>
            <path d="M100.76873,59.995161 C100.461849,60.0888407 100.14899,60.1616866 99.8322907,60.2132015 C99.8322907,60.2132015 98.1182153,60.9694112 97.4943422,60.7173413 C97.4666145,60.4652714 97.4136799,60.2308464 97.4136799,60.2308464 L100.580938,59.6737718 C100.651518,59.7846826 100.713275,59.8918123 100.76873,59.995161 Z" id="Path" fill="#000000" fill-rule="nonzero" opacity="0.1"></path>
            <path d="M102.345428,54.2479669 L102.035382,54.8894848 L101.686265,55.6104048 L101.635851,55.7137534 L101.221196,56.609862 L100.69437,57.7441766 C100.69437,57.7441766 100.880902,57.9647378 100.820405,58.1399264 C100.759908,58.315115 100.680506,58.2319319 100.670423,58.2218491 C100.679246,58.235713 100.796458,58.3869549 100.691849,58.4537534 C100.628974,58.5083029 100.602165,58.5936039 100.62253,58.6743146 C100.62253,58.6743146 101.052309,59.3838914 101.134232,59.6397424 C101.216155,59.8955934 99.8322907,60.1161546 99.8322907,60.1161546 C99.8322907,60.1161546 97.8674057,60.9883165 97.3783901,60.5572769 C96.8893744,60.1262374 97.3783901,58.1046366 97.3783901,58.1046366 C97.3783901,58.1046366 97.3783901,56.9425943 97.504425,56.8379853 C97.63046,56.7333763 97.5737443,55.9305336 97.5737443,55.9305336 C97.2372309,55.3142226 97.4691352,54.9651058 97.4691352,54.9651058 L97.3758694,53.3846274 C97.3758694,53.3846274 97.5271113,53.2220423 97.6430635,53.2106992 C97.7168152,53.2032268 97.7911333,53.2032268 97.864885,53.2106992 C97.864885,53.2106992 97.9253818,53.1892732 98.0148666,53.1653266 C98.2013983,53.1123919 98.510184,53.0392916 98.6198344,53.0934867 C98.7824195,53.1754094 99.82977,52.9674517 99.82977,52.9674517 C100.280528,52.9014184 100.734471,52.8593476 101.189687,52.8414167 C101.34519,52.8321865 101.501137,52.8492298 101.650975,52.8918307 C101.856402,52.9380936 102.0241,53.0858386 102.095879,53.2837994 C102.07849,53.4728157 102.128001,53.6619388 102.235777,53.8181877 C102.42483,54.1206716 102.345428,54.2479669 102.345428,54.2479669 Z" id="Path" fill="#FF6484" fill-rule="nonzero"></path>
            <path d="M94.9093652,52.2490524 L94.4556394,52.6271573 C94.4556394,52.6271573 94.3661546,52.5565777 94.2476817,52.449448 C94.2111316,52.0574793 94.5451242,52.005805 94.7808096,52.0158878 L94.9093652,52.2490524 Z" id="Path" fill="#000000" fill-rule="nonzero" opacity="0.1"></path>
            <path d="M97.5762649,53.3770653 L97.3783901,53.3884085 C97.3783901,53.3884085 96.9133211,53.4463845 96.7620791,53.3064857 C96.6108372,53.1665869 96.0764489,53.1212144 96.0764489,53.1212144 C96.0764489,53.1212144 95.925207,52.8187305 95.7626219,52.7254646 C95.6000368,52.6321987 95.204287,52.4582705 95.1929439,52.3650046 C95.159386,52.2673989 95.1081145,52.1768192 95.0417019,52.0978105 C95.0417019,52.0978105 94.16954,51.8885925 94.2980957,52.5742226 C94.4266513,53.2598528 95.1349678,53.8534775 95.1349678,53.8534775 C95.1349678,53.8534775 95.2168905,54.2315823 95.4840846,54.3298896 C95.7512787,54.4281969 97.4829991,55.2373413 97.7627967,55.0281233 C98.0425943,54.8189052 97.5762649,53.3770653 97.5762649,53.3770653 Z" id="Path" fill="#FF6484" fill-rule="nonzero"></path>
            <path d="M102.238298,53.8144066 C102.130521,53.6581577 102.081011,53.4690346 102.098399,53.2800184 C102.026621,53.0820576 101.858923,52.9343126 101.653496,52.8880497 C101.579891,52.8661136 101.504339,52.8513409 101.427893,52.8439374 C101.630347,52.8916127 101.795203,53.0379939 101.866495,53.2333855 C101.848228,53.422473 101.897816,53.6118931 102.006394,53.7677737 C102.191665,54.0702576 102.111003,54.1988132 102.111003,54.1988132 L101.800957,54.8390708 L101.45058,55.5625115 L101.401426,55.6658602 L100.986771,56.5619687 L100.459945,57.6962833 C100.459945,57.6962833 100.645216,57.9168445 100.58598,58.0920331 C100.526743,58.2672217 100.447341,58.1840386 100.435998,58.1739558 C100.446081,58.1878197 100.562033,58.3390616 100.458684,58.4058602 C100.395852,58.4604553 100.36864,58.545491 100.388105,58.6264213 C100.388105,58.6264213 100.819144,59.3359982 100.899807,59.5918491 C100.980469,59.8477001 99.5978657,60.0682613 99.5978657,60.0682613 C99.5978657,60.0682613 98.2329071,60.6732291 97.4956026,60.6265961 C98.1257774,60.8723643 99.8310304,60.1148942 99.8310304,60.1148942 C99.8310304,60.1148942 101.217415,59.894333 101.132971,59.6384821 C101.048528,59.3826311 100.62127,58.6730543 100.62127,58.6730543 C100.600905,58.5923436 100.627713,58.5070425 100.690589,58.4524931 C100.791417,58.3856946 100.677985,58.2344526 100.669163,58.2205888 C100.679246,58.2306716 100.764949,58.3012511 100.819144,58.1386661 C100.873339,57.976081 100.693109,57.7429163 100.693109,57.7429163 L101.219936,56.6086017 L101.634591,55.7124931 L101.685005,55.6091444 L102.034121,54.8882245 L102.344167,54.2467065 C102.344167,54.2467065 102.42483,54.1168905 102.238298,53.8144066 Z" id="Path" fill="#000000" fill-rule="nonzero" opacity="0.1"></path>
            <path d="M102.133689,54.0740386 L102.342907,54.2479669 C102.380862,54.3631254 102.440308,54.4700429 102.518096,54.5630543 C102.634048,54.6890892 102.947875,55.9570009 102.947875,55.9570009 C102.920967,56.016267 102.920967,56.0842666 102.947875,56.1435327 C102.994508,56.2367985 102.854609,56.3766973 102.854609,56.3766973 C102.854609,56.3766973 102.78529,56.3527507 102.901242,56.4813063 C103.017194,56.609862 102.796633,56.7598436 102.796633,56.7598436 C102.796633,56.7598436 101.843809,58.3869549 101.645934,58.5621435 C101.448059,58.7373321 101.250184,59.1923183 101.250184,59.1923183 C101.250184,59.1923183 100.836789,58.5419779 100.738482,58.5293744 L101.145575,57.6105796 C101.145575,57.6105796 101.424112,56.3325851 101.63333,56.0981601 C101.842548,55.8637351 101.528721,55.0634131 101.528721,55.0634131 L102.133689,54.0740386 Z" id="Path" fill="#FF6484" fill-rule="nonzero"></path>
            <path d="M102.267286,56.4447562 C102.093358,56.6539742 101.785833,56.6968261 101.511076,56.6678381 C101.470745,56.6678381 101.431674,56.6577553 101.391343,56.6501932 C101.332107,56.63885 101.27287,56.6249862 101.214894,56.6086017 C101.007316,56.5487188 100.811915,56.4527247 100.637654,56.325023 C100.601126,56.2919368 100.558243,56.2666359 100.511619,56.2506624 C100.398166,56.2372998 100.288438,56.2961906 100.236863,56.3981233 C100.177626,56.4926495 100.149899,56.6035603 100.089402,56.6980865 C99.9557449,56.878446 99.7428964,56.9827559 99.5184637,56.9778841 C99.2970677,56.9717329 99.0781973,56.9291512 98.870644,56.8518491 C99.0563092,56.6539174 99.1980449,56.4189798 99.2865593,56.1624379 C99.3245653,55.9921279 99.3356228,55.8169106 99.3193284,55.6431739 C99.2689144,54.8201656 98.9828151,53.9530451 98.3110488,53.4741122 C98.1950966,53.3909292 98.0589788,53.2926219 98.016127,53.1678473 C98.2026587,53.1149126 98.5114443,53.0418123 98.6210948,53.0960074 C98.7836799,53.1779301 99.8310304,52.9699724 99.8310304,52.9699724 C100.281788,52.9039391 100.735732,52.8618683 101.190948,52.8439374 C101.346451,52.8347072 101.502397,52.8517505 101.652236,52.8943514 C101.576871,53.2362373 101.56406,53.5889478 101.614425,53.9354002 C101.662202,54.1491991 101.739399,54.3553392 101.843809,54.5479301 C101.904305,54.6626219 101.969844,54.7773137 102.031601,54.8920055 C102.20931,55.2096136 102.378197,55.5284821 102.409706,55.8864213 C102.436543,56.0839661 102.385467,56.2842026 102.267286,56.4447562 L102.267286,56.4447562 Z" id="Path" fill="#000000" fill-rule="nonzero" opacity="0.1"></path>
            <path d="M99.9684085,58.0832107 C100.057114,58.0597042 100.149197,58.0516043 100.240644,58.059264 C100.31712,58.0820399 100.387097,58.1226439 100.444821,58.1777369 L99.8474149,58.1777369 C99.6936523,58.1777369 99.4617479,58.1865593 99.3432751,58.0781693 C99.4466237,57.9735603 99.8171665,58.1008556 99.9684085,58.0832107 Z" id="Path" fill="#000000" fill-rule="nonzero" opacity="0.1"></path>
            <path d="M97.8976541,50.1644342 C97.7131259,50.4180607 97.6739682,50.7494688 97.7943054,51.0391168 C97.890092,51.2647194 98.074103,51.439908 98.1875345,51.6566881 C98.3609189,51.9985251 98.3466411,52.4054431 98.149724,52.734287 C98.105508,52.791345 98.0737369,52.857034 98.0564581,52.9271205 C98.0287305,53.1048298 98.2127415,53.2321251 98.358942,53.3354738 C99.029448,53.8144066 99.3155474,54.6815271 99.3672217,55.5045354 C99.3845699,55.6781944 99.3739317,55.8535123 99.335713,56.0237994 C99.2475117,56.2804877 99.1057384,56.5154877 98.9197976,56.7132107 C99.1274982,56.7899884 99.3462814,56.8325532 99.5676173,56.8392456 C99.7920889,56.8429801 100.004616,56.7383586 100.138556,56.5581877 C100.199052,56.4649218 100.22678,56.354011 100.286017,56.2582245 C100.337312,56.1560197 100.447247,56.0970178 100.560773,56.1107636 C100.607226,56.1271066 100.650039,56.1523665 100.686808,56.1851242 C100.943095,56.3735649 101.244187,56.4917426 101.56023,56.5279393 C101.831205,56.559448 102.13873,56.5140754 102.31644,56.3048574 C102.434974,56.1430265 102.486036,55.9414903 102.458859,55.7427415 C102.398362,55.0382061 101.802217,54.4823919 101.664839,53.7917203 C101.552668,53.2308648 101.754324,52.6574057 101.790874,52.0877277 C101.846329,51.2432935 101.538804,50.4202852 101.23758,49.630046 C101.170778,49.4341151 101.081987,49.2463857 100.972907,49.0704508 C100.703547,48.7064431 100.289959,48.4766723 99.8385925,48.440276 C99.6735656,48.4184837 99.5057326,48.4353101 99.3483165,48.4894296 C99.1926791,48.560584 99.0503187,48.6577641 98.9273597,48.7767893 C98.64,49.0288592 98.3438178,49.2809292 98.17115,49.6313063 C98.1030911,49.7724655 98.0589788,49.9237075 97.9833579,50.0598252" id="Path" fill="#925978" fill-rule="nonzero"></path>
            <g id="Group" opacity="0.1" transform="translate(97.677093, 49.027599)" fill="#000000" fill-rule="nonzero">
                <path d="M0.495317387,0.829310028 C0.569678013,0.691931923 0.621352346,0.540689972 0.681849126,0.400791168 C0.747096125,0.269813144 0.828382594,0.147460074 0.923836247,0.036550138 C0.749987221,0.197809252 0.605425234,0.387999948 0.496577737,0.598666053 C0.431039558,0.736044158 0.386927323,0.88224471 0.315087397,1.01584177 L0.407092916,0.937700092 C0.383609528,0.969952623 0.362142636,1.00362618 0.342815087,1.03852806 C0.401816127,0.975124378 0.453014517,0.904885265 0.495317387,0.829310028 Z" id="Path"></path>
                <path d="M4.07092916,7.30372585 C3.75486637,7.26675835 3.45386293,7.14818123 3.1975069,6.95965041 C3.16011375,6.9277585 3.11746931,6.90259828 3.07147194,6.88528979 C2.95794343,6.87327242 2.84873188,6.93238693 2.79671573,7.03401104 C2.78455765,7.05391729 2.77361464,7.07454065 2.76394664,7.09576817 C2.80348628,7.07791753 2.84789006,7.07392119 2.8899816,7.08442502 C2.93643475,7.10076804 2.9792481,7.12602791 3.01601656,7.15878565 C3.27230396,7.34722639 3.57339619,7.46540401 3.88943882,7.50160074 C4.16041398,7.53310948 4.46793928,7.48773689 4.64564857,7.27851886 C4.66793474,7.25161778 4.68736449,7.22247316 4.70362466,7.19155474 C4.51154807,7.29960971 4.28844572,7.33916372 4.07092916,7.30372585 L4.07092916,7.30372585 Z" id="Path"></path>
                <path d="M2.07327507,7.61377185 C1.85235916,7.60698812 1.63400525,7.564424 1.42671573,7.48773689 C1.61186656,7.28915943 1.75314734,7.0538346 1.84137075,6.79706532 C1.88000592,6.62727256 1.89107035,6.45236949 1.87413983,6.27906164 C1.82372585,5.45605336 1.53888684,4.58767249 0.865860166,4.11 C0.719659614,4.00539098 0.536908924,3.87809568 0.563376265,3.70038638 C0.582169751,3.63061985 0.614266791,3.56514188 0.657902484,3.5075529 C0.854832119,3.1791689 0.869114131,2.77260763 0.695712971,2.43121435 C0.582281509,2.21443422 0.398270469,2.03798528 0.301223551,1.81364305 C0.198098709,1.56223707 0.212894851,1.2778737 0.341554738,1.03852806 C0.30938083,1.07237866 0.275295641,1.10435982 0.239466421,1.13431463 C0.213404271,1.17041694 0.185206115,1.20492811 0.155022999,1.23766329 C0.0261055033,1.47656283 0.0117523113,1.76084863 0.115952162,2.01151794 C0.21173873,2.23712052 0.39574977,2.41230911 0.509181233,2.62908924 C0.68256564,2.97092623 0.668287818,3.37784417 0.471370745,3.70668813 C0.427154701,3.76374615 0.395383585,3.82943508 0.378104876,3.89952162 C0.350377185,4.07723091 0.534388224,4.20452622 0.680588776,4.30787489 C1.35109476,4.78680773 1.63719411,5.65392824 1.68886845,6.47693652 C1.70621666,6.6505955 1.69557844,6.82591336 1.65735971,6.99620055 C1.56915842,7.25288881 1.42738509,7.48788883 1.24144434,7.68561178 C1.44914492,7.76238952 1.66792817,7.80495435 1.88926403,7.81164673 C2.11373561,7.8153812 2.32626262,7.71075973 2.46020239,7.53058878 C2.46776449,7.51798528 2.47532659,7.50538178 2.48162833,7.49277829 C2.35912205,7.56966189 2.21789095,7.61150814 2.07327507,7.61377185 L2.07327507,7.61377185 Z" id="Path"></path>
            </g>
            <path d="M8.95352346,71.6596964 C8.69214212,71.6256784 8.44159129,71.533982 8.22,71.391242 L8.19731371,71.3748574 C8.21550026,71.3486305 8.22834785,71.3190811 8.2351242,71.2878933 C8.2039899,71.2279102 8.18757346,71.1613805 8.18723091,71.0937994 C8.18819031,71.0296264 8.17529342,70.9660017 8.14942042,70.9072677 L8.14942042,70.5921803 C8.07483011,70.4867627 8.03757057,70.3594593 8.04355106,70.23046 C8.03472861,69.9695676 8.02464581,68.6890524 8.02464581,68.6890524 C8.01004907,68.6219991 8.00706497,68.5529384 8.01582337,68.4848758 C8.02464581,68.3361546 8.02464581,68.2806992 8.02464581,68.2806992 C7.99353409,68.1944035 7.98401462,68.101805 7.99691812,68.0109844 C8.00499089,67.9250675 7.98072247,67.8392292 7.92885925,67.7702576 L8.0725391,67.0644618 C8.0725391,67.0644618 8.15194112,64.6294664 7.9200368,63.8946826 L7.9200368,63.8946826 C7.9200368,63.8946826 7.9200368,63.8946826 7.9200368,63.8858602 C7.93894204,63.4132291 7.65158234,62.6255106 7.81416743,62.0759982 C7.97675253,61.5264857 7.99691812,61.4080129 7.99691812,61.4080129 C7.99691812,61.4080129 7.27851886,59.6069733 7.09702852,59.1797148 C6.99264074,58.9028358 6.86619988,58.6347811 6.71892364,58.3781325 C6.70716038,58.362168 6.69581723,58.3470439 6.6848942,58.3327599 L6.66598896,58.3100736 C6.70549181,58.2450386 6.72923087,58.1716633 6.73530819,58.0958142 C6.74539098,57.9697792 6.72648574,57.8109752 6.82353266,57.7177093 C6.86050803,57.6876688 6.90016573,57.6610897 6.94200552,57.6383073 C7.09275763,57.5395053 7.17396869,57.3633849 7.15122355,57.1845814 C7.12306219,57.0462896 7.05719587,56.9184827 6.96091076,56.815299 C6.97150375,56.7536796 6.97698393,56.6912898 6.97729531,56.6287672 C6.97671371,56.3421002 6.85766425,56.0684233 6.64834407,55.8725575 L6.64834407,55.8725575 L6.64834407,55.8145814 C6.64980136,55.6860088 6.60956143,55.5604248 6.53365225,55.4566421 L6.5601196,55.4755474 L6.51474701,55.4364765 C6.49280386,55.4137571 6.46777131,55.3942402 6.44038638,55.3785005 C6.00560309,55.0816827 5.44146729,55.0525033 4.97838086,55.3028795 C4.864586,55.3628332 4.76688944,55.4492903 4.69354186,55.5549494 C4.54356026,55.7868537 4.58137075,56.0855566 4.50322907,56.3489696 C4.4250874,56.6123827 4.25115915,56.8064765 4.10369825,57.0257774 C3.95623735,57.2450782 3.83398344,57.5047102 3.88943882,57.7605612 C3.92977001,57.9470929 4.06084637,58.1134591 4.05832567,58.3025115 C4.04559294,58.5094129 3.88618225,58.6773255 3.68022079,58.700782 L3.68022079,58.700782 L3.62350506,58.700782 C3.81093663,58.814193 4.02257636,58.8815722 4.24107636,58.8973965 C4.24107636,58.9150414 4.23099356,58.9314259 4.22721251,58.9490708 C4.05580497,59.6145354 3.89826127,60.4614903 3.89826127,60.4614903 C3.89826127,60.4614903 4.00413063,61.3160074 3.78356946,61.9839926 C3.56300828,62.6519779 3.59199632,64.0270193 3.59199632,64.0270193 C3.59199632,64.0270193 4.20452622,63.7106716 4.24359706,63.9148482 C4.28266789,64.1190248 4.24359706,64.1744802 4.24359706,64.1744802 C4.33209905,64.2211766 4.42296661,64.2632449 4.51583257,64.3005152 L4.51583257,64.3824379 L4.48810488,64.7479393 C4.47830332,64.8236094 4.49010038,64.9005087 4.52213431,64.9697608 C4.575069,65.0718491 4.52213431,65.3478657 4.52213431,65.3478657 C4.52213431,65.3478657 4.47676173,65.3755934 4.52213431,65.5066697 C4.54227836,65.6128596 4.52998132,65.7226547 4.48684453,65.8217571 C4.48684453,65.8217571 4.43264949,66.5174701 4.4225667,66.6661914 C4.37813014,66.8608506 4.31393974,67.0504657 4.23099356,67.2320883 C4.23099356,67.2320883 4.39483901,67.4362649 4.23099356,67.465253 C4.06714811,67.494241 4.04950322,67.7425299 4.04950322,67.7425299 C4.04950322,67.7425299 3.85793008,67.9013339 3.85793008,67.9567893 C3.27902745,68.6007608 2.90326303,69.4013977 2.77781049,70.2581877 C2.77781049,70.2581877 2.57615455,70.4434591 2.60514259,70.619908 C2.62152714,70.7194756 2.58875805,70.7535051 2.55724931,70.7648482 C2.5925391,70.7648482 2.63160994,70.7925759 2.61396504,70.87954 C2.58623735,71.0282613 2.50935603,71.3433487 2.50935603,71.3433487 L2.52321987,71.3433487 L2.52321987,71.3433487 C2.36567617,71.524839 2.1375529,71.8285833 2.10226311,72.0995584 L2.10226311,72.1323275 L2.01403864,72.325161 L2.77024839,72.6591536 L2.83704692,72.5570653 C2.83704692,72.5570653 3.17229991,72.9351702 3.55544618,73.020874 C3.62128301,73.0353303 3.6884394,73.0429329 3.75584177,73.0435603 C3.96923445,73.0390115 4.18009285,72.9963276 4.37845446,72.9175253 C4.37845446,72.9175253 4.65573137,72.5747102 3.93733211,72.509172 C3.93733211,72.509172 3.51637534,72.0264581 3.55922723,71.8222815 C3.57272806,71.7362785 3.58156343,71.6496077 3.58569457,71.5626495 C3.58569457,71.5437443 3.58569457,71.524839 3.58569457,71.5071941 L3.63484821,71.5147562 L3.64367065,71.3584729 C3.66547577,71.3325439 3.67592391,71.2989281 3.67265869,71.265207 C3.67265869,71.2009292 3.61468261,71.1908464 3.67265869,71.1542962 C3.73063477,71.1177461 3.72937443,71.1542962 3.72937443,71.0622907 C3.72937443,70.9702852 3.69156394,70.9967525 3.77726771,70.9034867 C3.86297148,70.8102208 3.76844526,70.6438546 3.76844526,70.6438546 C3.87569665,70.563742 3.94394369,70.441905 3.95623735,70.3086017 C3.9474149,70.1145078 4.59775529,68.8793652 4.73135235,68.8327323 C4.8649494,68.7860994 4.8750322,68.5441122 4.8750322,68.5441122 C4.8750322,68.5441122 5.05778289,68.5819227 5.11449862,68.5441122 C5.20438008,68.443503 5.28455826,68.3346295 5.35396504,68.218942 C5.35396504,68.218942 6.08118675,66.3813523 6.09126955,65.6856394 L6.13916283,65.5280957 C6.13916283,65.5280957 6.41643974,65.889816 6.37736891,66.149448 C6.33829807,66.40908 6.59036799,66.5956118 6.59036799,66.5956118 L6.59036799,67.3845906 C6.61808214,67.5219901 6.63326862,67.6616214 6.63574057,67.8017663 C6.62691812,67.9278013 6.74917203,68.0613983 6.7025391,68.1735695 C6.6773542,68.2741045 6.6773542,68.3792994 6.7025391,68.4798344 C6.7025391,68.4798344 6.6924563,68.7394664 6.7025391,68.813827 C6.7126219,68.8881877 6.66472861,69.7414443 6.91427783,70.1132475 C6.91427783,70.1132475 7.01888684,70.3817019 6.91427783,70.5581509 C6.80966881,70.7345998 7.00880405,70.9110488 7.00880405,70.9110488 C7.00880405,70.9110488 6.88276909,71.1152254 7.00880405,71.2639466 C7.08062452,71.3576153 7.11276207,71.4757547 7.09828887,71.5928979 C7.04787489,71.7819503 7.01132475,72.0289788 7.09828887,72.2016467 L7.09828887,72.2016467 L7.12097516,72.4675805 L7.85449862,72.4108648 L7.85449862,72.2634039 C8.17055019,72.3410021 8.49792658,72.3614898 8.82118675,72.3239006 C9.07371768,72.3011285 9.30552263,72.1747309 9.46144434,71.9747838 C9.46144434,71.9747838 9.75636615,71.4643422 8.95352346,71.6596964 Z" id="Path" fill="url(#linearGradient-2)" fill-rule="nonzero"></path>
            <path d="M9.32406624,71.9798252 C9.17425265,72.1772858 8.94828678,72.3026191 8.70145354,72.325161 C8.38901196,72.362702 8.07231218,72.3417597 7.7675345,72.2634039 L7.7675345,72.4121251 L7.05921803,72.4675805 L7.03779209,72.2029071 L7.03779209,72.2029071 C6.95586937,72.0289788 6.99367985,71.7769089 7.04409384,71.5878565 C7.06695608,71.4985579 7.09601454,71.4109614 7.13105796,71.3257038 C7.13105796,71.3257038 7.74106716,70.8077001 7.94398344,71.1996688 C7.98809555,71.2799234 8.04916945,71.3495992 8.12295308,71.4038454 C8.33585807,71.5452441 8.57801954,71.6365933 8.83126955,71.6710396 C9.61016559,71.4719043 9.32406624,71.9798252 9.32406624,71.9798252 Z" id="Path" fill="#FF6484" fill-rule="nonzero"></path>
            <path d="M7.44110396,71.4719043 C7.44110396,71.4719043 7.44110396,71.9520975 7.79148114,71.9432751 C8.14185833,71.9344526 8.18975161,71.7517019 8.07884085,71.6281877 C8.00322229,71.5407051 7.93808283,71.4446878 7.88474701,71.3420883 L7.44110396,71.4719043 Z" id="Path" fill="#000000" fill-rule="nonzero" opacity="0.1"></path>
            <path d="M4.41626495,72.9225667 C4.22568601,73.0009331 4.02234131,73.0436526 3.81633855,73.0486017 C3.75109485,73.0478366 3.68608433,73.0406601 3.62224471,73.0271757 C3.25296228,72.9439926 2.92905244,72.5646274 2.92905244,72.5646274 L2.86477461,72.6667157 L2.13377185,72.3339834 L2.21695492,72.1398896 L2.21695492,72.1058602 C2.25098436,71.8411868 2.46902484,71.5374425 2.62278749,71.3572125 C2.70975161,71.2563845 2.77781049,71.1908464 2.77781049,71.1908464 L3.6600552,71.3168813 C3.6600552,71.3168813 3.6600552,71.4303128 3.6600552,71.5689512 C3.65695881,71.6559285 3.64854074,71.7426347 3.63484821,71.8285833 C3.59829807,72.0314995 4.00413063,72.5116927 4.00413063,72.5116927 C4.68471941,72.5772309 4.41626495,72.9225667 4.41626495,72.9225667 Z" id="Path" fill="#FF6484" fill-rule="nonzero"></path>
            <path d="M2.66059798,70.774931 C2.64574024,70.778946 2.63008313,70.778946 2.61522539,70.774931 C2.63022505,70.7721862 2.64559831,70.7721862 2.66059798,70.774931 Z" id="Path" fill="#444053" fill-rule="nonzero"></path>
            <path d="M3.6499724,71.3244434 C3.6499724,71.3244434 3.6499724,71.4378749 3.6499724,71.5765133 L2.61774609,71.4114075 C2.61774609,71.4114075 2.61774609,71.391242 2.62908924,71.3584729 C2.70975161,71.2563845 2.77781049,71.1908464 2.77781049,71.1908464 L3.6499724,71.3244434 Z" id="Path" fill="#000000" fill-rule="nonzero" opacity="0.1"></path>
            <path d="M8.12547378,71.398804 C7.96919043,71.7605244 7.04031279,71.6748206 7.04031279,71.6748206 C7.04554328,71.64572 7.04765581,71.6161447 7.04661454,71.5865961 C7.06947678,71.4972976 7.09853523,71.4097011 7.13357866,71.3244434 C7.13357866,71.3244434 7.74358786,70.8064397 7.94650414,71.1984085 C7.99106149,71.2772957 8.05210529,71.3456475 8.12547378,71.398804 Z" id="Path" fill="#000000" fill-rule="nonzero" opacity="0.1"></path>
            <path d="M8.14059798,71.2967157 C8.04859246,71.7113707 7.04031279,71.6193652 7.04031279,71.6193652 C7.06004942,71.4961666 7.03013619,71.3701685 6.95712971,71.268988 C6.83109476,71.1202668 6.95712971,70.9173505 6.95712971,70.9173505 C6.95712971,70.9173505 6.76303588,70.7421619 6.8651242,70.565713 C6.96721251,70.389264 6.8651242,70.1220699 6.8651242,70.1220699 C6.62565777,69.7527875 6.67103036,68.9020515 6.66094756,68.8289512 C6.65086477,68.755851 6.66094756,68.496219 6.66094756,68.496219 C6.63647693,68.3960232 6.63647693,68.2914101 6.66094756,68.1912144 C6.70632015,68.0803036 6.58784729,67.9504876 6.59793008,67.8219319 C6.5966845,67.6836909 6.58361322,67.54581 6.55885925,67.4097976 L6.55885925,66.6245998 C6.42240123,66.5189622 6.34616612,66.3533156 6.35468261,66.1809568 C6.39123275,65.9213247 6.12277829,65.5621251 6.12277829,65.5621251 L6.0774057,65.7184085 C6.06732291,66.4116007 5.36530819,68.2391076 5.36530819,68.2391076 C5.29842963,68.3534677 5.2212264,68.4614678 5.13466421,68.5617571 C5.07920883,68.5995676 4.90402024,68.5617571 4.90402024,68.5617571 C4.90402024,68.5617571 4.89393744,68.8024839 4.76538178,68.8478565 C4.63682613,68.8932291 4.00917203,70.1233303 4.01673413,70.3174241 C4.00667146,70.4528824 3.93926659,70.5776043 3.83146274,70.6602392 C3.83146274,70.6602392 3.92346826,70.8266053 3.84028519,70.9186109 C3.75710212,71.0106164 3.7949126,70.9828887 3.7949126,71.0761546 C3.7949126,71.1694204 3.7949126,71.1316099 3.73945722,71.1681601 C3.68400184,71.2047102 3.73945722,71.214793 3.73945722,71.2790708 C3.74194584,71.3121169 3.73206347,71.3449084 3.71172953,71.3710764 L3.70290708,71.5260994 L2.62152714,71.3534315 C2.62152714,71.3534315 2.69462741,71.0383441 2.72235511,70.8908832 C2.73873965,70.803919 2.70092916,70.7812328 2.66689972,70.7761914 C2.69714811,70.7648482 2.72865685,70.7308188 2.71353266,70.6325115 C2.68580497,70.4560626 2.8798988,70.2720515 2.8798988,70.2720515 C2.9917651,69.4217479 3.34817469,68.6222345 3.90582337,67.9706532 C3.90582337,67.9151978 4.08983441,67.7576541 4.08983441,67.7576541 C4.08983441,67.7576541 4.10873965,67.5055842 4.26628335,67.4803772 C4.42382705,67.4551702 4.26628335,67.2497332 4.26628335,67.2497332 C4.34584605,67.0683913 4.40747661,66.8797005 4.45029439,66.6863569 C4.46037718,66.538896 4.51205152,65.8457038 4.51205152,65.8457038 C4.55377129,65.7466556 4.56560035,65.6375653 4.54608096,65.5318767 C4.50322907,65.4058418 4.54608096,65.374333 4.54608096,65.374333 C4.54608096,65.374333 4.59901564,65.0970561 4.54608096,64.9962282 C4.51554785,64.926544 4.50465197,64.849837 4.51457222,64.7744066 L4.53977921,64.4114259 L4.57885005,63.8694756 C4.57885005,63.8694756 7.4524471,63.3791996 7.76627415,63.7762098 C7.80104633,63.825257 7.82627265,63.8804128 7.84063477,63.9387948 C8.064977,64.6697976 7.98809568,67.0896688 7.98809568,67.0896688 L7.84945722,67.7916835 C7.90012361,67.8606744 7.92346864,67.9459735 7.9149954,68.03115 C7.90284706,68.1215679 7.91235048,68.2135783 7.94272309,68.2996044 C7.94272309,68.2996044 7.94272309,68.3550598 7.93264029,68.5025207 C7.92456427,68.5706647 7.92797246,68.6396806 7.94272309,68.7066973 C7.94272309,68.7066973 7.95154554,69.9809108 7.96036799,70.2405428 C7.95468772,70.3685552 7.99049339,70.4949802 8.0624563,70.6010028 L8.0624563,70.9148298 C8.08742698,70.9733622 8.099877,71.0364709 8.09900644,71.1001012 C8.09732707,71.167988 8.11157132,71.2353245 8.14059798,71.2967157 L8.14059798,71.2967157 Z" id="Path" fill="#444053" fill-rule="nonzero"></path>
            <path d="M3.81633855,73.046081 C3.75109485,73.0453159 3.68608433,73.0381394 3.62224471,73.024655 C3.25296228,72.9414719 2.92905244,72.5621067 2.92905244,72.5621067 L2.86477461,72.664195 L2.13377185,72.3314627 L2.21695492,72.1373689 L2.21695492,72.1033395 L2.97316467,72.4814443 C2.97316467,72.4814443 3.57813247,72.7751058 3.81633855,73.046081 Z" id="Path" fill="#000000" fill-rule="nonzero" opacity="0.1"></path>
            <path d="M8.70145354,72.325161 C8.38901196,72.362702 8.07231218,72.3417597 7.7675345,72.2634039 L7.7675345,72.4121251 L7.05921803,72.4675805 L7.03779209,72.2029071 C7.26213431,72.2029071 7.62385465,72.2117295 7.78013799,72.2029071 C8.09135689,72.2018345 8.40128457,72.2429604 8.70145354,72.325161 Z" id="Path" fill="#000000" fill-rule="nonzero" opacity="0.1"></path>
            <path d="M3.02231831,70.5367249 C3.05900349,70.5343394 3.09580464,70.5390466 3.13070837,70.5505888 C3.1669514,70.5727828 3.20149597,70.5976381 3.23405704,70.6249494 C3.25836914,70.6381462 3.28155382,70.6533216 3.30337626,70.670322 C3.32984361,70.6967893 3.34118675,70.7358602 3.36765409,70.7623275 C3.41806808,70.8114811 3.49368905,70.8013983 3.56426863,70.8240846 C3.57183073,70.8240846 3.57939282,70.8240846 3.58065585,70.8379485 C3.58078109,70.8455807 3.57630656,70.8525411 3.56931003,70.8555934 C3.53596768,70.8739831 3.49552266,70.8739831 3.46218031,70.8555934 C3.42983551,70.8369925 3.40015783,70.8140983 3.37395584,70.7875345 C3.32265156,70.7419809 3.26379301,70.7057274 3.2000276,70.6804048 C3.11306348,70.645115 2.96182153,70.6362925 2.90636615,70.5543698 C2.94309184,70.5394529 2.98281785,70.5334077 3.02231831,70.5367249 L3.02231831,70.5367249 Z" id="Path" fill="#000000" fill-rule="nonzero" opacity="0.1"></path>
            <path d="M2.94795768,70.7308188 C2.967228,70.7362978 2.98582786,70.7439069 3.00341306,70.7535051 L3.09793928,70.8013983 C3.03087648,70.8059763 2.96391791,70.7910966 2.9051058,70.7585465 C2.88373125,70.7506622 2.86307024,70.7409642 2.84334867,70.7295584 C2.8780084,70.7236588 2.91345014,70.7240858 2.94795768,70.7308188 Z" id="Path" fill="#000000" fill-rule="nonzero" opacity="0.1"></path>
            <path d="M3.07399264,70.8934039 C3.094078,70.8908599 3.11440406,70.8908599 3.13448942,70.8934039 C3.17075221,70.9066662 3.20412703,70.9267766 3.23279669,70.9526403 C3.30219801,71.0080055 3.3885278,71.0378204 3.47730451,71.0370837 C3.46069389,71.0444679 3.44247746,71.047504 3.42436983,71.0459062 L3.22523459,71.0459062 C3.20350114,71.0490431 3.18142986,71.0490431 3.15969641,71.0459062 C3.13113533,71.0396128 3.10357135,71.0294354 3.07777369,71.0156578 C3.04374425,71.0005336 2.90384545,70.9602024 2.90257656,70.9135695 C2.90132475,70.8669365 3.0399632,70.8934039 3.07399264,70.8934039 Z" id="Path" fill="#000000" fill-rule="nonzero" opacity="0.1"></path>
            <path d="M7.59360626,71.1290892 C7.65441919,71.1341222 7.71554401,71.1341222 7.77635695,71.1290892 C7.84100263,71.1266411 7.9037542,71.1065955 7.95784729,71.0711132 C8.01078197,71.030782 7.99943882,70.9879301 7.93264029,70.9854094 C7.86941194,70.9879286 7.80730497,71.00292 7.7498896,71.0295216 C7.72020063,71.0419373 7.69154289,71.0566876 7.66418583,71.0736339 C7.65158234,71.0862374 7.60620975,71.1303496 7.59360626,71.1290892 Z" id="Path" fill="#000000" fill-rule="nonzero" opacity="0.1"></path>
            <path d="M7.81920883,71.2299172 C7.81920883,71.2526035 7.79022079,71.265207 7.76879485,71.2727691 C7.71675584,71.2930907 7.66193923,71.3054138 7.60620975,71.3093192 C7.59234591,71.3093192 7.55327507,71.3093192 7.55831647,71.2878933 C7.56335787,71.2664673 7.62133395,71.2727691 7.63519779,71.2702484 C7.69740966,71.2611636 7.75890036,71.2476862 7.81920883,71.2299172 L7.81920883,71.2299172 Z" id="Path" fill="#000000" fill-rule="nonzero" opacity="0.1"></path>
            <path d="M7.26213431,71.1908464 C7.33884368,71.1825742 7.41624779,71.197967 7.48395584,71.2349586 C7.46927473,71.2625083 7.43939229,71.2784456 7.40833487,71.2752898 C7.37841488,71.271905 7.34913139,71.2642658 7.32137075,71.2526035 C7.27433906,71.2385287 7.2255229,71.2313124 7.17643054,71.2311776 C7.15462566,71.2330744 7.13269725,71.2330744 7.11089236,71.2311776 C7.04535419,71.2198344 7.06678013,71.1946274 7.11089236,71.1883257 C7.16131277,71.1862482 7.21181114,71.1870899 7.26213431,71.1908464 L7.26213431,71.1908464 Z" id="Path" fill="#000000" fill-rule="nonzero" opacity="0.1"></path>
            <path d="M4.7225299,67.5622999 C4.62997014,67.4975728 4.52035745,67.4616198 4.4074425,67.4589512 C4.52179882,67.4520305 4.63448836,67.4889927 4.7225299,67.5622999 Z" id="Path" fill="#000000" fill-rule="nonzero" opacity="0.1"></path>
            <path d="M4.63682613,67.1892364 C4.71997242,67.1898542 4.80140585,67.2129342 4.8725115,67.256035 L4.79436983,67.2333487 C4.74272874,67.2168946 4.68950194,67.2059113 4.63556578,67.2005796 C4.60531739,67.2005796 4.57380865,67.2005796 4.54356026,67.2005796 C4.51331187,67.2005796 4.47298068,67.1917571 4.43769089,67.1904968 C4.49944802,67.1904968 4.56876725,67.1867157 4.63682613,67.1892364 Z" id="Path" fill="#000000" fill-rule="nonzero" opacity="0.1"></path>
            <path d="M4.92040478,67.3669457 C4.94687213,67.3669457 4.97838086,67.3833303 4.98342226,67.4097976 C4.91745227,67.378237 4.84867339,67.3529197 4.77798528,67.3341766 C4.73891444,67.3215731 4.61918123,67.2686385 4.59145354,67.3051886 C4.69102116,67.3341766 4.80571297,67.3442594 4.92040478,67.3669457 Z" id="Path" fill="#000000" fill-rule="nonzero" opacity="0.1"></path>
            <path d="M5.1724747,66.5464581 C5.29353273,66.5055722 5.4026282,66.4354394 5.4900828,66.3422815 C5.48797417,66.4264295 5.4440019,66.503972 5.37287029,66.5489788 C5.30208248,66.5930217 5.22325893,66.6225805 5.14096596,66.635943 C5.0589748,66.6502693 4.97900039,66.6743886 4.90275989,66.7077829 C4.86620975,66.7254278 4.75277829,66.8338178 4.71622815,66.8338178 C4.67967801,66.8338178 4.74395584,66.7544158 4.76034039,66.7418123 C4.88748891,66.6570013 5.02632859,66.5911904 5.1724747,66.5464581 L5.1724747,66.5464581 Z" id="Path" fill="#000000" fill-rule="nonzero" opacity="0.1"></path>
            <path d="M7.44110396,67.7450506 C7.40203312,67.7311868 6.92436063,67.8231923 6.95334867,67.7311868 C6.97225391,67.674471 7.12727691,67.695897 7.1650874,67.6971573 C7.25891796,67.699759 7.35188183,67.7158897 7.44110396,67.7450506 L7.44110396,67.7450506 Z" id="Path" fill="#000000" fill-rule="nonzero" opacity="0.1"></path>
            <path d="M6.92057958,56.6968261 C6.92057958,56.7743944 6.91211971,56.8517313 6.89537259,56.9274701 C6.77359503,57.4748245 6.24531103,57.8316048 5.69208718,57.7401175 C5.13886332,57.6486303 4.75356602,57.1407698 4.81448607,56.5833514 C4.87540612,56.025933 5.36130539,55.6132853 5.92123077,55.6434536 C6.48115615,55.673622 6.91990491,56.136089 6.92057958,56.6968261 L6.92057958,56.6968261 Z" id="Path" fill="#FBBEBE" fill-rule="nonzero"></path>
            <path d="M6.41265869,57.1303864 C6.41265869,57.1303864 6.07110396,58.1285833 6.26519779,58.3314995 C6.45929163,58.5344158 4.8699908,58.6554094 4.8699908,58.6554094 C4.8699908,58.6554094 5.53419503,57.4631187 5.4699172,57.1669365 C5.40563937,56.8707544 6.41265869,57.1303864 6.41265869,57.1303864 Z" id="Path" stroke="#AB6ACB"></path>
            <path d="M7.83559338,63.9362741 C7.83686519,63.9593631 7.83686519,63.9825045 7.83559338,64.0055934 C7.81668813,64.4769641 6.97603496,65.4285281 6.78194112,65.265943 C6.58784729,65.1033579 5.26952162,64.7945722 5.26952162,64.7945722 C5.26952162,64.7945722 5.07542778,64.4895676 4.8725115,64.4895676 C4.75676586,64.4798788 4.64345369,64.4509118 4.53725851,64.4038638 L4.57632935,63.8619135 C4.57632935,63.8619135 7.4499264,63.3716375 7.76375345,63.7686477 C7.79821563,63.819406 7.82260435,63.876313 7.83559338,63.9362741 L7.83559338,63.9362741 Z" id="Path" fill="#000000" fill-rule="nonzero" opacity="0.1"></path>
            <path d="M7.83559338,63.9224103 C7.82677093,64.1580957 7.61125115,64.5147746 7.37304508,64.7920515 C7.13483901,65.0693284 6.87898804,65.265943 6.78194112,65.1878013 C6.71076615,65.1414056 6.63359304,65.1049392 6.5525575,65.0794112 C6.11521619,64.9193468 5.26700092,64.7164305 5.26700092,64.7164305 C5.26700092,64.7164305 5.07290708,64.4114259 4.8699908,64.4114259 C4.66707452,64.4114259 4.27762649,64.2085097 4.27762649,64.2085097 C4.27762649,64.2085097 4.31543698,64.1530543 4.27762649,63.950138 C4.23981601,63.7472217 3.6474517,64.0610488 3.6474517,64.0610488 C3.6474517,64.0610488 3.61972401,62.6935695 3.83146274,62.0281049 C4.04320147,61.3626403 3.94237351,60.5156854 3.94237351,60.5156854 C3.94237351,60.5156854 4.0948758,59.6788132 4.2599816,59.0158694 C4.35954922,58.6188592 4.46415823,58.2848666 4.54356026,58.2331923 C4.75655934,58.0945538 5.86440662,58.2331923 5.86440662,58.2331923 C6.07805779,58.236015 6.2912119,58.2545501 6.50214351,58.2886477 C6.55665876,58.3103569 6.60326191,58.348167 6.63574057,58.3970377 L6.66850966,58.4436707 C6.81375286,58.6987811 6.93728238,58.9656555 7.03779209,59.2414719 C7.21424103,59.6662098 7.9074333,61.4584269 7.9074333,61.4584269 C7.9074333,61.4584269 7.88852806,61.5844618 7.73098436,62.1238914 C7.57344066,62.6633211 7.85449862,63.4510396 7.83559338,63.9224103 Z" id="Path" fill="#65617D" fill-rule="nonzero"></path>
            <path d="M7.04157314,64.4668813 L7.37304508,64.7920515 C7.37304508,64.7920515 7.67804968,65.8444434 7.28103956,65.7511776 C6.88402944,65.6579117 6.5525575,65.0794112 6.5525575,65.0794112 L7.04157314,64.4668813 Z" id="Path" fill="#FBBEBE" fill-rule="nonzero"></path>
            <path d="M7.88222631,61.5378289 C7.09576817,61.5290064 6.89285189,60.4287213 6.89285189,60.4287213 C6.89285189,60.4287213 6.8373965,59.3385189 6.73530819,59.1356026 C6.67452778,58.9370969 6.643522,58.7306749 6.64330267,58.5230727 C6.78854586,58.7781831 6.91207538,59.0450575 7.0125851,59.320874 C7.18903404,59.7456118 7.88222631,61.5378289 7.88222631,61.5378289 Z" id="Path" fill="#000000" fill-rule="nonzero" opacity="0.1"></path>
            <path d="M7.909954,61.4546458 C7.12349586,61.4458234 6.92057958,60.3455382 6.92057958,60.3455382 C6.92057958,60.3455382 6.8651242,59.2553358 6.76303588,59.0524195 C6.70225547,58.8539139 6.67124969,58.6474919 6.67103036,58.4398896 C6.81627356,58.6950001 6.93980308,58.9618744 7.04031279,59.2376909 C7.21676173,59.6624287 7.909954,61.4546458 7.909954,61.4546458 Z" id="Path" fill="#65617D" fill-rule="nonzero"></path>
            <path d="M6.50214351,58.7423735 C6.50214351,58.7423735 6.27149954,58.1121987 5.89339466,58.7423735 C5.65479065,59.1799174 5.52185278,59.6672124 5.50520699,60.1653082 L5.43966881,61.9020699 C5.50026899,62.0140227 5.5395843,62.136242 5.55562098,62.2625299 C5.55562098,62.3885649 5.7824839,62.7666697 5.7824839,62.7666697 C5.7824839,62.7666697 5.83793928,63.4964121 6.04967801,63.6174057 L6.25385465,64.2173321 C6.25385465,64.2173321 6.26267709,64.6143422 6.40131555,64.7718859 C6.48320349,64.8879948 6.50735586,65.0352313 6.46685373,65.1714167 L7.28860166,64.884057 C7.28860166,64.884057 7.19533579,64.9180865 7.28860166,64.6697976 C7.38186753,64.4215087 7.23314627,64.0975989 7.23314627,64.0975989 C7.23314627,64.0975989 6.70632015,62.9519411 6.64078197,62.785575 C6.57524379,62.6192088 6.48449862,62.425115 6.51474701,62.2310212 C6.5449954,62.0369273 6.52230911,59.9762557 6.57020239,59.6624287 C6.61809568,59.3486017 6.50214351,58.7423735 6.50214351,58.7423735 Z" id="Path" fill="#000000" fill-rule="nonzero" opacity="0.1"></path>
            <path d="M6.58784729,58.6554094 C6.58784729,58.6554094 6.35720331,58.0252346 5.97783809,58.6554094 C5.73992651,59.0932318 5.60703415,59.58036 5.58965041,60.0783441 L5.52537259,61.8151058 C5.58560232,61.9272164 5.62489505,62.0493656 5.64132475,62.1755658 C5.64132475,62.3016007 5.86692732,62.6797056 5.86692732,62.6797056 C5.86692732,62.6797056 5.9223827,63.409448 6.13538178,63.5291812 L6.33829807,64.130368 C6.33829807,64.130368 6.34838086,64.5273781 6.48701932,64.6849218 C6.56890726,64.8010306 6.59305963,64.9482672 6.5525575,65.0844526 L7.37304508,64.7970929 C7.37304508,64.7970929 7.28103956,64.8311224 7.37304508,64.5815731 C7.4650506,64.3320239 7.315069,64.0068537 7.315069,64.0068537 C7.315069,64.0068537 6.78950322,62.861196 6.72396504,62.6948298 C6.65842686,62.5284637 6.56768169,62.3343698 6.59793008,62.140276 C6.62817847,61.9461822 6.60549218,59.8855106 6.65212511,59.5704232 C6.69875805,59.2553358 6.58784729,58.6554094 6.58784729,58.6554094 Z" id="Path" fill="#FF6484" fill-rule="nonzero"></path>
            <path d="M6.60423183,64.0887764 C6.6392752,64.0932491 6.67334138,64.103469 6.7050598,64.1190248 C6.73026679,64.1316283 6.75169273,64.1517939 6.77689972,64.1656578 C6.80565106,64.1822082 6.83825132,64.1909016 6.87142594,64.1908648 C6.83447969,64.1927487 6.79746143,64.1927487 6.76051518,64.1908648 C6.7374691,64.1924397 6.71433908,64.1894414 6.6924563,64.1820423 C6.67170618,64.1722808 6.65223478,64.1600053 6.63448022,64.1454922 C6.61186515,64.1287538 6.58732289,64.1147901 6.56137994,64.1039006 C6.54121435,64.0963385 6.51978841,64.0938178 6.51222631,64.0736523 C6.54325587,64.0761768 6.57402696,64.081235 6.60423183,64.0887764 Z" id="Path" fill="#000000" fill-rule="nonzero" opacity="0.1"></path>
            <path d="M6.91679853,64.3370653 C6.95208832,64.3370653 6.98611776,64.3295032 7.02140754,64.3269825 C7.07236466,64.3250913 7.1233898,64.3276215 7.17390984,64.3345446 C7.09972376,64.3724775 7.01590209,64.3873986 6.93318307,64.3773965 C6.90965239,64.3710844 6.88487383,64.3710844 6.86134315,64.3773965 C6.83613615,64.3874793 6.76051518,64.4731831 6.75421343,64.3975621 C6.74791168,64.3219411 6.87394664,64.3383257 6.91679853,64.3370653 Z" id="Path" fill="#000000" fill-rule="nonzero" opacity="0.1"></path>
            <path d="M6.49206072,55.5877185 L6.35720331,55.4894112 C6.3717157,55.4941758 6.38566268,55.5005154 6.39879485,55.5083165 C6.42716022,55.5236589 6.45272751,55.5436866 6.47441582,55.5675529 L6.51726771,55.6066237 L6.49206072,55.5877185 Z" id="Path" fill="#000000" fill-rule="nonzero" opacity="0.1"></path>
            <path d="M6.63826127,58.3932567 C6.61375122,58.4485769 6.57451253,58.4960993 6.52482981,58.5306348 C6.49508885,58.5509179 6.46096984,58.5638744 6.42526219,58.5684453 C6.37517593,58.5733515 6.32461416,58.5682097 6.27654094,58.5533211 C6.21503606,58.5368095 6.15445359,58.517036 6.0950506,58.4940846 C5.97866571,58.4452865 5.85957707,58.4032057 5.73837167,58.3680497 C5.55415781,58.3119671 5.35408015,58.3527413 5.20650414,58.4764397 C5.08929163,58.5949126 5.06156394,58.7789236 4.94561178,58.8973965 C4.78932843,59.0562006 4.53473781,59.0461178 4.31543698,59.014609 L4.26376265,59.0070469 C4.36333027,58.6100368 4.46793928,58.2760442 4.54734131,58.2243698 C4.76034039,58.0857314 5.86818767,58.2243698 5.86818767,58.2243698 C6.08183884,58.2271926 6.29499295,58.2457277 6.50592456,58.2798252 C6.5606724,58.3030942 6.60689283,58.3427117 6.63826127,58.3932567 L6.63826127,58.3932567 Z" id="Path" fill="#000000" fill-rule="nonzero" opacity="0.1"></path>
            <path d="M4.8145276,56.6968261 C4.81290571,56.2725145 5.06625198,55.8887299 5.45706615,55.7234808 C5.84788033,55.5582317 6.29970437,55.643847 6.60297148,55.9406164 L6.60297148,55.9406164 C6.60297148,56.1233671 6.56642134,56.3187213 6.61809568,56.4888684 C6.68188898,56.6498191 6.77602199,56.7970089 6.89537259,56.9224287 C6.7763953,57.4435753 6.2860204,57.7930467 5.75457946,57.7354284 C5.22313852,57.67781 4.81905649,57.2313623 4.8145276,56.6968261 Z" id="Path" fill="#000000" fill-rule="nonzero" opacity="0.1"></path>
            <path d="M6.51726771,55.5511684 C6.09819504,55.1708931 5.4826556,55.1018227 4.98972401,55.3797608 C4.87919852,55.4404637 4.78494729,55.5269327 4.7149678,55.6318307 C4.5700276,55.8624747 4.60657774,56.1611776 4.53095676,56.4220699 C4.45533579,56.6829623 4.28770929,56.8783165 4.14528979,57.0963569 C4.00287029,57.3143974 3.88439742,57.5727691 3.93859246,57.8273597 C3.97766329,58.0126311 4.1049586,58.1789972 4.1024379,58.3680497 C4.09199249,58.5864478 3.91516125,58.759984 3.69660534,58.7663201 C3.88346256,58.8813758 4.09530524,58.9496842 4.31417663,58.9654554 C4.53473781,58.9969641 4.78932843,59.0070469 4.94435143,58.8482429 C5.06030359,58.72977 5.08803128,58.545759 5.20524379,58.4272861 C5.3528198,58.3035876 5.55289746,58.2628135 5.73711132,58.318896 C5.92112236,58.3617479 6.09126955,58.444931 6.27528059,58.499126 C6.32335381,58.5140146 6.37391558,58.5191565 6.42400184,58.5142502 C6.58154554,58.4928243 6.67607176,58.3176357 6.68615455,58.1588316 C6.69623735,58.0327967 6.67733211,57.875253 6.77059798,57.7807268 C6.80624702,57.7507122 6.84464769,57.7241271 6.88528979,57.7013247 C7.03227689,57.6003643 7.11057634,57.4257711 7.08820607,57.2488592 C7.04409384,56.9362925 6.7101012,56.7447194 6.61683533,56.4371941 C6.56516099,56.2607452 6.60423183,56.0716927 6.60171113,55.888942 C6.59919043,55.7061914 6.52861086,55.495713 6.35594296,55.4339558" id="Path" fill="#444053" fill-rule="nonzero"></path>
            <path d="M7.07182153,57.2488592 C7.02896964,56.9362925 6.69371665,56.7447194 6.60045078,56.4371941 C6.54877645,56.2607452 6.58910764,56.0716927 6.58532659,55.888942 C6.58769932,55.761212 6.5488028,55.6361244 6.47441582,55.5322631 L6.50088316,55.5511684 C6.48701932,55.5373045 6.47189512,55.524701 6.45677093,55.5120975 C6.43546619,55.4897099 6.41131294,55.4702178 6.384931,55.4541214 L6.33703772,55.4213523 L6.36224471,55.445299 L6.33577737,55.4263937 C6.41032815,55.5301735 6.44924203,55.6553169 6.44668813,55.7830727 C6.44668813,55.9658234 6.41013799,56.1611776 6.46181233,56.3300644 C6.55129715,56.6338086 6.89033119,56.8342042 6.93318307,57.1429899 C6.95525901,57.3198577 6.87702529,57.4943044 6.73026679,57.5954554 C6.6896247,57.6182578 6.65122402,57.6448428 6.61557498,57.6748574 C6.52230911,57.7681233 6.54121435,57.9269273 6.53113155,58.0529623 C6.51852806,58.2117663 6.42778289,58.3869549 6.27023919,58.4083809 C6.2197391,58.4128102 6.16885665,58.4076792 6.12025759,58.3932567 C5.9375069,58.3453634 5.76609936,58.2558786 5.58208832,58.2130267 C5.39789737,58.1564658 5.19758852,58.197287 5.05022079,58.3214167 C4.93426863,58.4386293 4.90528059,58.6239006 4.78932843,58.7423735 C4.63304508,58.8999172 4.37845446,58.8910948 4.15915363,58.859586 C4.01479304,58.8432715 3.87273486,58.8107165 3.73567617,58.7625391 C3.71723879,58.764418 3.69865817,58.764418 3.68022079,58.7625391 C3.86722325,58.8772793 4.07898707,58.9455623 4.29779209,58.9616743 C4.51835327,58.9931831 4.77294388,59.0032659 4.92796688,58.8444618 C5.04391904,58.725989 5.07290708,58.5419779 5.18885925,58.4235051 C5.33643526,58.2998066 5.53651292,58.2590325 5.72072677,58.315115 C5.90473781,58.3579669 6.07614535,58.44115 6.25889604,58.495345 C6.30736802,58.510402 6.3583754,58.5155456 6.40887764,58.5104692 C6.56642134,58.4890432 6.66094756,58.3138546 6.66977001,58.1550506 C6.67985281,58.0290156 6.66094756,57.8714719 6.75421343,57.7769457 C6.78986247,57.7469312 6.82826315,57.7203461 6.86890524,57.6975437 C7.0145886,57.5972448 7.09271549,57.4244922 7.07182153,57.2488592 L7.07182153,57.2488592 Z" id="Path" fill="#000000" fill-rule="nonzero" opacity="0.1"></path>
            <path d="M11.1276265,72.3012144 C11.3292824,72.9729807 8.61827047,73.4078013 5.42580497,73.284287 C2.56355106,73.1746366 0.318868445,72.6478105 0.153762649,72.0970377 C-0.0113431463,71.5462649 1.93967801,71.0975805 4.76790248,71.088758 C7.9225575,71.088758 10.9259706,71.629448 11.1276265,72.3012144 Z" id="Path" fill="#AB6ACB" fill-rule="nonzero" opacity="0.1"></path>
        </g>
    </g>
</svg>