<?xml version="1.0" encoding="UTF-8"?>
<svg width="140px" height="98px" viewBox="0 0 140 98" version="1.1" xmlns="http://www.w3.org/2000/svg" xmlns:xlink="http://www.w3.org/1999/xlink">
    <title>Find Records with Global Search</title>
    <g id="Getting-Started-Page---End-User" stroke="none" stroke-width="1" fill="none" fill-rule="evenodd">
        <g id="Getting-Started-Tab---End-User-Dec-2020" transform="translate(-186.000000, -3105.000000)" fill-rule="nonzero">
            <g id="Find-Records-with-Global-Search" transform="translate(186.000000, 3105.000000)">
                <path d="M133.483779,18.9562765 L6.51621835,18.9562765 C2.9190942,18.9522125 0.00406281959,16.0371801 -1.23764831e-14,12.440056 L-1.23764831e-14,6.51622053 C0.00406281959,2.91909637 2.9190942,0.00406402152 6.51621835,6.18824156e-15 L133.483779,6.18824156e-15 C137.080904,0.00406282191 139.995937,2.91909552 140,6.51622053 L140,12.440056 C139.995937,16.037181 137.080904,18.9522137 133.483779,18.9562765 L133.483779,18.9562765 Z M6.51621835,0.394921928 C3.13710705,0.398753142 0.398751941,3.13710923 0.394921928,6.51622053 L0.394921928,12.440056 C0.398751941,15.8191673 3.13710705,18.5575234 6.51621835,18.5613546 L133.483779,18.5613546 C136.862891,18.5575234 139.601246,15.8191673 139.605076,12.440056 L139.605076,6.51622053 C139.601246,3.13710923 136.862891,0.398753142 133.483779,0.394921928 L6.51621835,0.394921928 Z" id="Shape" fill="#3F3D56"></path>
                <rect id="Rectangle" fill="#E6E6E6" x="12.440056" y="5.72637449" width="91.8194638" height="7.50352535" rx="3.75176267"></rect>
                <rect id="Rectangle" fill="#FF9E2D" x="23.4978852" y="38.6317655" width="91.8194638" height="7.50352535" rx="3.75176267"></rect>
                <rect id="Rectangle" fill="#E6E6E6" x="23.4978852" y="62.4892569" width="91.8194638" height="7.50352535" rx="3.75176267"></rect>
                <rect id="Rectangle" fill="#E6E6E6" x="23.4978852" y="86.3467484" width="91.8194638" height="7.50352535" rx="3.75176267"></rect>
                <path d="M127.657435,13.5313092 C127.470242,13.7986418 127.10178,13.8636156 126.834439,13.6764345 L123.610592,11.433223 C123.343253,11.2460344 123.278278,10.8775668 123.465467,10.6102277 C123.652655,10.3428885 124.021123,10.2779137 124.288462,10.4651023 L127.512309,12.7083138 C127.779643,12.895506 127.844617,13.2639686 127.657435,13.5313092 L127.657435,13.5313092 Z" id="Path" fill="#FF9E2D"></path>
                <path d="M123.997423,10.9826952 C122.668584,12.8805185 120.052858,13.3417718 118.155035,12.0129333 C116.257211,10.6840948 115.795958,8.06836856 117.124796,6.17054499 C118.453634,4.27272141 121.06936,3.81146761 122.967184,5.14030575 C124.862618,6.47066641 125.323495,9.08425873 123.997423,10.9826952 L123.997423,10.9826952 Z M117.983874,6.77206345 C116.987253,8.1954279 117.333195,10.1572138 118.756557,11.1538378 C120.17992,12.1504617 122.141707,11.8045233 123.138333,10.3811624 C124.134959,8.95780142 123.789025,6.99601428 122.365665,5.99938538 C120.941838,5.0048259 118.981639,5.35048396 117.98387,6.77206345 L117.983874,6.77206345 Z" id="Shape" fill="#FF9E2D"></path>
                <path d="M129.830746,49.7146532 L10.1692516,49.7146532 C10.060197,49.7146532 9.97179067,49.6262469 9.97179067,49.5171922 C9.97179067,49.4081375 10.060197,49.3197313 10.1692516,49.3197313 L129.830746,49.3197313 C129.939801,49.3197313 130.028207,49.4081375 130.028207,49.5171922 C130.028207,49.6262469 129.939801,49.7146532 129.830746,49.7146532 L129.830746,49.7146532 Z" id="Path" fill="#3F3D56"></path>
                <path d="M129.830746,73.5819795 L10.1692516,73.5819795 C10.060197,73.5819795 9.97179067,73.4935732 9.97179067,73.3845185 C9.97179067,73.2754638 10.060197,73.1870575 10.1692516,73.1870575 L129.830746,73.1870575 C129.939801,73.1870575 130.028207,73.2754638 130.028207,73.3845185 C130.028207,73.4935732 129.939801,73.5819795 129.830746,73.5819795 L129.830746,73.5819795 Z" id="Path" fill="#3F3D56"></path>
                <path d="M129.830746,97.4492078 L10.1692516,97.4492078 C10.060197,97.4492078 9.97179067,97.3608015 9.97179067,97.2517468 C9.97179067,97.1426921 10.060197,97.0542858 10.1692516,97.0542858 L129.830746,97.0542858 C129.939801,97.0542858 130.028207,97.1426921 130.028207,97.2517468 C130.028207,97.3608015 129.939801,97.4492078 129.830746,97.4492078 L129.830746,97.4492078 Z" id="Path" fill="#3F3D56"></path>
            </g>
        </g>
    </g>
</svg>