<?xml version="1.0" encoding="UTF-8"?>
<svg width="137px" height="137px" viewBox="0 0 137 137" version="1.1" xmlns="http://www.w3.org/2000/svg" xmlns:xlink="http://www.w3.org/1999/xlink">
    <title>guide_illustration_1</title>
    <g id="guide_illustration_1" stroke="none" stroke-width="1" fill="none" fill-rule="evenodd">
        <g id="undraw_buy_house_560d-(5)" transform="translate(-765.000000, 87.000000)"></g>
        <g id="undraw_my_files_swob" transform="translate(0.000000, 33.000000)" fill-rule="nonzero">
            <path d="M136.709091,52.437055 C135.991504,56.9984321 133.768057,61.4258066 130.098845,64.2275184 C126.487828,66.9869135 121.86126,67.9672481 117.395081,68.8100537 C112.038526,69.8221258 106.667248,70.7472138 101.281249,71.5853176 C100.517773,71.7069778 99.753723,71.8245239 98.9890996,71.9379559 L67.6184041,71.9379559 C67.5866367,71.8956393 67.5531466,71.8515595 67.5214638,71.8074797 C67.4703313,71.7334257 67.4191846,71.6593716 67.3697676,71.5853176 C67.3416147,71.543001 67.3133755,71.4989212 67.2851344,71.4548414 L86.9623739,71.4548414 C88.1249402,71.4538206 89.0674098,70.5121554 89.0694233,69.3495904 L89.0694233,43.0850859 C89.1963255,42.6866046 89.3144453,42.2863601 89.4220617,41.8808348 C89.9238537,39.9924685 90.2502413,38.0618092 90.3970697,36.1134345 C90.5028771,34.7557768 90.5346463,33.3981192 90.5116595,32.0386983 C90.4464867,28.302495 89.958079,24.5662916 89.4273142,20.8565362 C89.3885716,20.5832415 89.3480217,20.3081835 89.3091927,20.0348888 C88.9353767,17.4571025 88.5951353,14.6518644 89.8945424,12.3932157 C91.380943,9.80837659 94.6798678,8.73106642 97.6508635,8.99554519 C102.995108,9.47337015 107.4965,13.5657382 109.836259,18.3951205 C112.174295,23.2227395 112.697919,28.7133187 112.911255,34.0734216 C113.024122,36.9156868 113.011811,39.8849017 112.615093,42.7359828 C113.95505,39.6715555 115.29624,36.6071282 116.638665,33.5427009 C117.354531,31.9082221 118.107418,30.2208476 119.433342,29.0254036 C122.205031,26.5234345 126.78933,27.0277073 129.749736,29.3057511 C132.708419,31.5855581 134.330508,35.1877588 135.409598,38.7617485 C136.746111,43.1820527 137.428487,47.8756797 136.709091,52.437055 Z" id="Path" fill="#F2F2F2"></path>
            <path d="M124.886553,27.6620244 C126.824707,31.094659 127.713898,35.0307713 127.692618,38.9587164 C127.662625,42.8531268 126.801105,46.6962056 125.165723,50.2307291 C123.686513,53.4221903 121.625644,56.3101236 119.088606,58.7467038 C116.584746,61.177817 113.613705,63.0756946 110.35524,64.3255077 C106.574226,65.742585 102.484937,66.1311592 98.5046927,65.4515754 C97.9517475,65.3565523 97.4028888,65.2413683 96.8581166,65.1060234 C96.5276222,65.0245639 96.3866215,65.5345371 96.7174986,65.6160865 C100.859282,66.6426791 105.202877,66.5177547 109.278812,65.2548156 C112.673635,64.1626448 115.806089,62.3806138 118.479614,60.0205446 C121.186368,57.6540571 123.424774,54.8004338 125.078517,51.6079564 C126.888069,48.1127202 127.943782,44.2765609 128.177366,40.3476179 C128.408379,36.3607539 127.740008,32.3028492 126.015843,28.686266 C125.806915,28.2480224 125.582733,27.8176173 125.343296,27.3950507 C125.267127,27.2744521 125.109093,27.2359026 124.985949,27.3078829 C124.862804,27.3798631 124.818848,27.5364798 124.886555,27.6620244 L124.886553,27.6620244 Z" id="Path" fill="#FFFFFF"></path>
            <path d="M96.8148444,8.92558879 C98.9638502,12.8869763 100.638543,17.0878104 101.804279,21.4411859 C104.137873,30.1603459 104.48925,39.2914264 102.832616,48.1641361 C102.005677,52.5971606 100.656937,56.9167254 98.8145454,61.0326854 C96.9774495,65.1139683 94.3325825,69.4141938 89.8148338,70.8431884 C89.3049667,71.0036946 88.7823646,71.1205174 88.2526847,71.1923921 C87.916943,71.2384713 88.0598708,71.7482171 88.3933028,71.7024552 C93.0666178,71.0610537 96.3138828,67.1785565 98.350424,63.2208928 C100.457641,59.1258799 101.958091,54.6789869 102.95595,50.1893188 C104.933501,41.2310015 104.862374,31.9417399 102.747875,23.0147552 C101.697429,18.5676268 100.127422,14.2595265 98.0702281,10.1792887 C97.8118288,9.66831569 97.5456139,9.16142509 97.2715833,8.65861687 C97.1088866,8.35948081 96.6519978,8.62617414 96.8148444,8.92559232 L96.8148444,8.92558879 Z" id="Path" fill="#FFFFFF"></path>
            <path d="M74.6958805,8.15625533 L43.0289388,8.15625533 C41.6907024,8.15798341 40.6062783,9.24240756 40.6045502,10.580644 L40.6045502,26.4476067 L45.4780369,26.4476067 C46.2027257,26.4456361 46.8769407,26.8184268 47.2605991,27.4332309 L48.9497509,30.1220983 L50.5648628,32.6910581 L50.8680824,33.1741727 L52.7159073,36.1134133 L52.7370868,36.146914 L77.1202657,36.146914 L77.1202657,10.5806334 C77.1185318,9.24240249 76.0341115,8.15798534 74.6958805,8.15625533 L74.6958805,8.15625533 Z" id="Path" fill="#CCCCCC"></path>
            <path d="M62.143729,13.0067976 L46.4530431,13.0067976 C45.5868623,13.0067976 44.8846841,13.7089759 44.8846841,14.5751567 C44.8846841,15.4413375 45.5868623,16.1435158 46.4530431,16.1435158 L62.143729,16.1435158 C63.0099098,16.1435158 63.712088,15.4413375 63.712088,14.5751567 C63.712088,13.7089759 63.0099098,13.0067976 62.143729,13.0067976 Z" id="Path" fill="#FFFFFF"></path>
            <path d="M70.8450115,20.7084175 L46.5958723,20.7084175 C45.6503281,20.7084175 44.8838131,21.4749325 44.8838131,22.4204767 C44.8838131,23.3660209 45.6503281,24.1325359 46.5958723,24.1325359 L70.8450115,24.1325359 C71.7905557,24.1325359 72.5570707,23.3660209 72.5570707,22.4204767 C72.5570707,21.4749325 71.7905557,20.7084175 70.8450115,20.7084175 L70.8450115,20.7084175 Z" id="Path" fill="#FFFFFF"></path>
            <path d="M72.3931415,27.6853691 C72.1118374,27.0844618 71.5085032,26.7003463 70.8450115,26.6997449 L46.5958723,26.6997449 C46.5588452,26.6997449 46.5235549,26.7015081 46.486535,26.7032712 C46.8029224,26.8761341 47.0694942,27.1275179 47.2605991,27.4332326 L48.9497509,30.1221001 L70.8450115,30.1221001 C71.4302268,30.1222651 71.9748757,29.8231216 72.2887002,29.329167 C72.6025247,28.8352125 72.6419265,28.2150699 72.3931415,27.6853691 Z" id="Path" fill="#FFFFFF"></path>
            <path d="M72.5395005,34.172148 C72.424134,33.324385 71.7005879,32.6919639 70.8450115,32.6910669 L50.5648628,32.6910669 L50.8680824,33.1741815 L52.7159073,36.113426 L70.8450115,36.113426 C71.2012663,36.1141759 71.5486747,36.0024942 71.8377537,35.7942845 C72.288156,35.4733639 72.555343,34.954402 72.555343,34.401363 C72.555343,34.3246805 72.5501658,34.2480853 72.5395005,34.172148 L72.5395005,34.172148 Z" id="Path" fill="#FFFFFF"></path>
            <path d="M91.8957827,21.8209915 L89.4273142,20.8565256 L77.1202692,16.0535912 L62.3958107,10.3073493 C61.1479497,9.82308818 59.7435131,10.439745 59.2555556,11.6861652 L58.7407177,13.0067959 L57.5153506,16.143514 L55.7345093,20.7084175 L54.3979958,24.1325359 L53.3964729,26.6997431 L52.0599594,30.1220983 L51.0567139,32.6910581 L51.028561,32.765121 L50.8680824,33.1741815 L52.7159073,36.1134222 L52.7370868,36.1469228 L86.9623739,36.1469228 C87.5987591,36.1463405 88.2011139,36.4342259 88.600379,36.9297799 L88.7449308,36.5630361 L90.5116489,32.038686 L93.2728337,24.9629975 C93.758167,23.7151367 93.1422683,22.3098458 91.8957827,21.8209915 L91.8957827,21.8209915 Z" id="Path" fill="#AB6ACB"></path>
            <path d="M78.4391331,21.7751467 L77.1202657,21.2602947 L63.8222875,16.0712214 C63.0150731,15.7588349 62.1070568,16.1565257 61.7892798,16.9616332 C61.4764133,17.7693434 61.875197,18.6780254 62.6814637,18.9945933 L67.0736025,20.7084157 L72.5060069,22.8277722 L77.1202657,24.6297542 L77.2983075,24.6985187 C78.1051296,25.0117609 79.0132251,24.6125308 79.3278681,23.8062539 C79.6425111,22.9999771 79.2448588,22.0911896 78.4391296,21.7751467 L78.4391331,21.7751467 Z" id="Path" fill="#FFFFFF"></path>
            <path d="M83.7428281,32.114505 L77.1202692,29.5296659 L72.3931415,27.6853673 L69.8681963,26.6997431 L63.2915245,24.1325359 L61.1545167,23.2985462 C60.3282084,22.9759136 59.3923224,23.3378711 58.9981331,24.1325359 C58.9770401,24.1766157 58.9558606,24.2224587 58.9382111,24.2700649 C58.7730934,24.6928024 58.7826959,25.1638226 58.9649056,25.5794793 C59.1471154,25.995136 59.4870023,26.3213708 59.9097756,26.4863969 L60.4562963,26.6997431 L69.2229227,30.1220983 L77.1202586,33.2041575 L82.4979935,35.3041189 C82.6957768,35.3813808 82.9062988,35.4208537 83.118637,35.4204923 C83.9424917,35.4219467 84.6504564,34.8361939 84.8033001,34.02664 C84.9561439,33.2170862 84.510481,32.4135285 83.7428069,32.114505 L83.7428281,32.114505 Z" id="Path" fill="#FFFFFF"></path>
            <path d="M77.1202692,35.9600262 L76.6953118,35.7942862 L72.5395005,34.1721498 L68.7433011,32.6910687 L62.1595695,30.1221089 L58.9752346,28.8790587 C58.4052567,28.6560666 57.7595871,28.7543874 57.2818181,29.1369276 C56.804049,29.5194677 56.5668984,30.1280034 56.6598361,30.7329521 C56.7527739,31.3379007 57.1616546,31.8471871 57.7322196,32.0686726 L59.326145,32.6910793 L67.2780711,35.7942968 L68.096215,36.1134345 L68.1808482,36.1469351 L77.5980818,36.1469351 L77.1202692,35.9600262 Z" id="Path" fill="#FFFFFF"></path>
            <path d="M61.0346743,36.1134239 L60.2165286,35.7942862 L56.7976769,34.4595501 C56.313851,34.2700435 55.7700938,34.3109025 55.3200208,34.570584 C54.8699478,34.8302655 54.5624317,35.2805712 54.4843481,35.7942862 C54.4673988,35.8997681 54.4609105,36.0066664 54.4649777,36.1134239 C54.4646293,36.1246218 54.4652339,36.1358291 54.466785,36.1469246 L61.1210266,36.1469246 L61.0346743,36.1134239 Z" id="Path" fill="#FFFFFF"></path>
            <path d="M68.096222,36.1134239 L67.2780781,35.7942862 L54.4843481,35.7942862 C54.4673988,35.8997681 54.4609105,36.0066664 54.4649777,36.1134239 L52.7159038,36.1134239 L52.7370833,36.1469246 L68.1808535,36.1469246 L68.096222,36.1134239 Z M68.096222,36.1134239 L52.7159003,36.1134239 L52.7370797,36.1469246 L68.1808499,36.1469246 L68.096222,36.1134239 Z M68.096222,36.1134239 L52.7159003,36.1134239 L52.7370797,36.1469246 L68.1808499,36.1469246 L68.096222,36.1134239 Z M68.1808552,36.1469246 L68.096222,36.1134239 L52.7159003,36.1134239 L52.7370797,36.1469246 L68.1808552,36.1469246 Z M37.3232767,71.4548396 C36.1613164,71.4530647 35.2198054,70.511549 35.2180364,69.3495887 L35.2180364,28.5546208 C35.2190397,27.3920572 36.1607144,26.4495892 37.3232767,26.4476067 L40.6045519,26.4476067 L40.6045519,26.0949683 L37.323275,26.0949683 C35.9661905,26.0975162 34.8669651,27.1975348 34.8653962,28.5546208 L34.8653962,69.3495887 C34.866533,70.3125578 35.4294984,71.1862996 36.3059098,71.5853158 L67.3697676,71.5853158 C67.3416147,71.5429992 67.3133755,71.4989194 67.2851344,71.4548396 L37.3232767,71.4548396 Z M88.7449396,36.5630378 C88.2821669,36.0719631 87.6371443,35.7937896 86.9623757,35.7942862 L52.9327746,35.7942862 L51.0285628,32.7651228 L50.9826757,32.6910599 L49.3676503,30.1221001 L47.5585697,27.2445711 C47.1079265,26.5301141 46.3227436,26.0962599 45.4780386,26.0949701 L37.3232767,26.0949701 C35.9661922,26.0975179 34.8669668,27.1975366 34.865398,28.5546226 L34.865398,69.3495904 C34.8665348,70.3125596 35.4295001,71.1863014 36.3059116,71.5853176 C36.6249361,71.7321909 36.9720637,71.8079934 37.3232732,71.8074823 L86.9623739,71.8074823 C87.3141654,71.8079837 87.6618816,71.7321876 87.9815481,71.5853176 C88.857935,71.1862731 89.420889,70.312549 89.4220623,69.3495904 L89.4220623,38.2539405 C89.4220623,37.6241425 89.179954,37.0184536 88.7449379,36.5630343 L88.7449396,36.5630378 Z M89.0694251,69.3495887 C89.0674116,70.5121536 88.1249419,71.4538188 86.9623757,71.4548396 L37.323275,71.4548396 C36.1613147,71.4530647 35.2198036,70.511549 35.2180346,69.3495887 L35.2180346,28.5546208 C35.219038,27.3920572 36.1607126,26.4495892 37.323275,26.4475989 L45.4780369,26.4475989 C46.2027257,26.4456361 46.8769407,26.8184268 47.2605991,27.4332309 L48.9497509,30.1220983 L50.5648628,32.6910581 L50.8680824,33.1741727 L52.7159073,36.1134133 L52.7370868,36.146914 L86.9623739,36.146914 C88.1256384,36.1479105 89.0684074,37.0906637 89.0694251,38.2539281 L89.0694251,69.3495887 Z M68.0962238,36.1134239 L52.715902,36.1134239 L52.7370815,36.1469246 L68.1808517,36.1469246 L68.0962238,36.1134239 Z M68.0962238,36.1134239 L52.715902,36.1134239 L52.7370815,36.1469246 L68.1808517,36.1469246 L68.0962238,36.1134239 Z M68.0962238,36.1134239 L52.715902,36.1134239 L52.7370815,36.1469246 L68.1808517,36.1469246 L68.0962238,36.1134239 Z M68.0962238,36.1134239 L67.2780799,35.7942862 L52.9327729,35.7942862 L51.028561,32.7651228 L50.8680824,33.1741833 L52.7159073,36.1134239 L52.7370868,36.1469246 L68.180857,36.1469246 L68.0962238,36.1134239 Z" id="Shape" fill="#3F3D56"></path>
            <polygon id="Path" fill="#FFB8B8" points="27.6694157 50.7393694 26.6594595 52.8509678 18.0344543 49.9603912 19.5248803 46.8439498"></polygon>
            <path d="M25.9241917,52.5086012 L30.655574,52.5086012 L30.655574,55.3507782 L23.2993617,55.3507782 L23.2993617,55.1334401 C23.2993617,53.683785 24.4745367,52.5086012 25.9241917,52.5086012 Z" id="Path" fill="#2F2E41" transform="translate(26.977468, 53.929690) rotate(-64.438400) translate(-26.977468, -53.929690) "></path>
            <polygon id="Path" fill="#FFB8B8" points="29.7025521 69.5958237 27.3633256 69.5168327 27.2647632 60.4110051 30.0070553 60.5728662"></polygon>
            <path d="M25.4491576,68.8194906 L30.1805399,68.8194906 L30.1805399,71.6616676 L22.8243276,71.6616676 L22.8243276,71.4443295 C22.8243276,69.9946744 23.9995026,68.8194906 25.4491576,68.8194906 Z" id="Path" fill="#2F2E41" transform="translate(26.502434, 70.240579) rotate(1.933090) translate(-26.502434, -70.240579) "></path>
            <path d="M33.4696907,31.4868546 C33.4696907,31.4868546 26.3102505,29.6731315 23.0646429,32.3459874 L21.2509199,37.5962435 L13.996024,47.905832 L24.4965363,54.2061359 L26.4057203,49.4331758 L21.8236821,47.1421549 L27.3603123,42.3691948 L26.4057203,67.57041 L30.0331682,68.1431653 C30.0331682,68.1431653 38.0517306,37.0234848 33.4696907,31.4868546 Z" id="Path" fill="#2F2E41"></path>
            <path d="M22.6078105,33.1225253 L22.6950656,32.9674032 C23.6149227,31.3321063 23.4658696,28.6691313 23.1788854,26.72322 C22.938513,25.0933255 22.9457368,22.2209786 22.9941188,20.0983161 C23.0187441,18.6225456 24.0633655,17.3611336 25.5086894,17.0618954 C27.6866791,16.6086511 30.3605136,16.5126329 31.7605196,16.4956539 L31.761685,16.5911249 L31.7605196,16.4956539 C32.5517645,16.4925067 33.2002303,17.1227434 33.2196278,17.9137568 C33.26223,20.1995586 33.248992,24.3678762 32.6817379,26.604268 C31.8398509,29.9235241 33.1563292,32.1791277 33.1697541,32.2014938 L33.2491789,32.334241 L22.6078105,33.1225253 Z" id="Path" fill="#AB6ACB"></path>
            <path d="M18.9250372,42.2766184 C19.3968251,42.050679 19.7443045,41.6273718 19.8739761,41.1205999 C20.0036477,40.613828 19.9021913,40.0756482 19.5969067,39.6508732 L23.6373981,22.2273279 L20.5827054,22.2273279 L17.0167594,39.3074581 C16.3219161,39.8801971 16.1652575,40.8821192 16.6521063,41.6396252 C17.138955,42.3971313 18.1154286,42.6707899 18.9250372,42.2766184 Z" id="Path" fill="#FFB8B8"></path>
            <path d="M43.4929016,25.1258035 L36.7500155,18.7473974 L34.9276122,21.2987588 L39.4836169,25.3080435 L33.508666,30.0528525 C33.4655084,30.0499379 33.4225288,30.0462899 33.3785707,30.0462899 C32.3545974,30.0452911 31.5113092,30.8505805 31.465128,31.8735123 C31.4189467,32.8964441 32.1862412,33.7744448 33.2061389,33.8657185 C34.2260366,33.9569922 35.1370395,33.2291873 35.2732278,32.2143105 L35.2920939,32.2331766 L43.4929016,25.1258035 Z" id="Path" fill="#FFB8B8"></path>
            <path d="M25.079786,17.2858577 C25.079786,17.2858577 20.8690831,16.5952261 20.4872462,19.8408372 C20.1054094,23.0864483 19.914491,23.0864483 19.914491,23.0864483 C19.914491,23.0864483 22.9691837,22.5136949 23.7328591,23.2773667 C24.4965345,24.0410386 25.079786,17.2858577 25.079786,17.2858577 Z" id="Path" fill="#AB6ACB"></path>
            <path d="M31.36959,16.7861445 C31.36959,16.7861445 34.8061195,16.2133911 36.333465,17.7407365 C37.8608104,19.268082 38.6244858,19.6499206 38.6244858,19.6499206 C38.6244858,19.6499206 35.1879563,21.5591046 36.5243834,23.2773685 C36.5243834,23.2773685 32.8969355,21.5591046 32.324182,22.1318598 C31.7514286,22.704615 31.36959,16.7861445 31.36959,16.7861445 Z" id="Path" fill="#AB6ACB"></path>
            <path d="M28.3554313,5.70186947 C27.271421,4.83614232 26.9865915,3.16529243 27.615529,1.92876958 C28.2444666,0.692246718 29.6664226,-0.0527211969 31.0525893,0.00291279279 C32.438756,0.0585467825 33.7449231,0.854372201 34.5479794,1.98559019 C35.6760572,3.57464561 35.9127815,5.78321432 37.4127887,7.02726072 C38.7676164,8.15089523 40.7084674,8.11871521 42.4663414,8.02932492 C43.058899,7.99919197 43.6706243,7.96426314 44.2023394,7.70098511 C44.7340546,7.43770708 45.1684733,6.88244625 45.0999363,6.29309588 C45.5415488,6.99218202 45.2853429,7.97235972 44.6928576,8.54917556 C44.1003723,9.1259914 43.2567379,9.36764918 42.4354626,9.46387184 C39.4876233,9.7737082 36.5951469,8.50461723 34.8270433,6.12563322 C34.215415,5.2818719 33.7433856,4.29933682 32.9041064,3.68157438 C32.0648271,3.06381193 30.66544,3.02081121 30.1502036,3.92665803 C29.8953748,4.37468506 29.9203856,4.93666012 29.6860469,5.39573178 C29.4517081,5.85480344 28.6907251,6.10233793 28.4650754,5.63893234" id="Path" fill="#2F2E41"></path>
            <circle id="Oval" fill="#2F2E41" cx="28.1897177" cy="9.61920198" r="5.28957529"></circle>
            <circle id="Oval" fill="#FFB8B8" cx="28.1577846" cy="10.9922699" r="4.33058058"></circle>
            <path d="M24.2091148,7.81171532 C24.7976682,7.94044947 24.6050766,8.92775575 25.0701537,9.31071924 C25.4896822,9.65617611 26.0938452,9.30090884 26.6218647,9.17229634 C27.288494,9.00992225 27.9862331,9.2477874 28.6017016,9.55102994 C29.2171701,9.85427247 29.810634,10.2306011 30.4820521,10.371875 C31.1534703,10.513149 31.9494632,10.3539205 32.3258482,9.78025368 C32.6857315,9.23173707 32.5532524,8.49204638 32.2716971,7.89949758 C31.5575443,6.39651557 30.051361,5.42995487 28.3874988,5.40689696 C26.7236366,5.38383906 25.1912476,6.30829103 24.4357202,7.79090613" id="Path" fill="#2F2E41"></path>
            <path d="M126.24453,71.7616332 C126.24453,71.8588882 126.165466,71.9376552 126.068211,71.9379524 L0.176319176,71.9379524 C0.0789407841,71.9379524 0,71.8590116 0,71.7616332 C0,71.6642548 0.0789407841,71.5853141 0.176319176,71.5853141 L126.068211,71.5853141 C126.165466,71.5856113 126.24453,71.6643782 126.24453,71.7616332 Z" id="Path" fill="#3F3D56"></path>
        </g>
    </g>
</svg>