<?xml version="1.0" encoding="UTF-8"?>
<svg width="137px" height="137px" viewBox="0 0 137 137" version="1.1" xmlns="http://www.w3.org/2000/svg" xmlns:xlink="http://www.w3.org/1999/xlink">
    <title>import_illustration_1</title>
    <defs>
        <linearGradient x1="49.98833%" y1="100.00047%" x2="49.98833%" y2="-0.00720250172%" id="linearGradient-1">
            <stop stop-color="#808080" stop-opacity="0.25" offset="0%"></stop>
            <stop stop-color="#808080" stop-opacity="0.12" offset="54%"></stop>
            <stop stop-color="#808080" stop-opacity="0.1" offset="100%"></stop>
        </linearGradient>
    </defs>
    <g id="import_illustration_1" stroke="none" stroke-width="1" fill="none" fill-rule="evenodd">
        <g id="undraw_buy_house_560d-(5)" transform="translate(-765.000000, 87.000000)"></g>
        <g id="undraw_uploading_go67" transform="translate(0.000000, 21.000000)">
            <path d="M79.9713949,14.991945 C71.2615324,14.6891454 62.966169,11.8778193 55.0435855,8.80137525 C47.121002,5.72493124 39.2764735,2.31608055 30.7752063,0.693074656 C25.3073183,-0.355284872 19.0548428,-0.503320236 14.6487721,2.42777996 C10.4095776,5.25390963 9.0395776,10.11889 8.30209234,14.6366601 C7.74897839,18.0374361 7.42195481,21.6145088 8.94133595,24.7972692 C9.99507859,27.0070334 11.867053,28.8642043 13.1616896,30.98111 C17.6646562,38.3451965 14.4818959,47.4264931 9.60076621,54.6169745 C7.31294695,57.9894892 4.65638507,61.211277 2.88938114,64.7991159 C1.12237721,68.3869548 0.305491159,72.5036837 1.85044204,76.1668861 C3.38328094,79.8004813 7.03437132,82.524332 10.9882613,84.4420629 C19.0211984,88.3367387 28.4833497,89.452387 37.7180648,90.083556 C58.1496365,91.4818173 78.6915619,90.8762181 99.1769646,90.2706189 C106.759067,90.0458743 114.373468,89.8184381 121.831758,88.6462672 C125.974057,87.9949116 130.250933,86.9613556 133.257397,84.4743615 C137.074018,81.3077505 138.020098,75.944833 135.463124,71.9747937 C131.17279,65.3145481 119.313811,63.6592436 116.311385,56.5118271 C114.660118,52.5781238 116.355796,48.1949312 118.753969,44.5465324 C123.900216,36.7181532 132.525295,29.8520039 132.980167,20.9039391 C133.292387,14.7591257 129.146051,8.60489194 122.734774,5.69666994 C116.013969,2.64848723 106.695815,3.0320334 101.740668,8.07734774 C96.6321022,13.2599312 87.6611591,15.2584086 79.9713949,14.991945 Z" id="Path" fill="#AB6ACB" fill-rule="nonzero" opacity="0.1"></path>
            <g id="Group" opacity="0.1" transform="translate(0.000000, 42.930255)" fill="#AB6ACB" fill-rule="nonzero">
                <path d="M11.620776,1.25964637 C11.620776,1.25964637 1.56244597,-2.97147348 0.239548134,4.65773084 C0.239548134,4.65773084 -0.448143418,5.84739686 0.50870334,6.82981336 C0.50870334,6.82981336 0.714607073,6.30226916 1.68625737,6.84730845 C2.03330282,7.03924608 2.40194234,7.18923177 2.78441061,7.29410609 C3.300933,7.43658662 3.84977389,7.40730251 4.34820236,7.21066798 L4.34820236,7.21066798 C4.34820236,7.21066798 7.65746562,7.03167976 10.4405305,2.70231827 C10.4405305,2.70231827 11.6342338,1.96483301 11.6934479,1.68760314 L9.69900786,1.82218075 C9.69900786,1.82218075 9.85242633,3.28234774 9.02611984,4.15844794 C9.02611984,4.15844794 9.758222,1.8921611 9.40697446,1.82890963 C9.33564833,1.81545187 8.35323183,1.94464637 8.35323183,1.94464637 C8.35323183,1.94464637 8.6075835,4.48412574 7.276611,5.79760314 C7.276611,5.79760314 8.5120334,3.21505894 7.97506876,1.99040275 L6.50278978,2.27436149 C6.50278978,2.27436149 6.90652259,4.94572692 5.45039293,6.49875246 C5.45039293,6.49875246 6.6481336,3.75336935 6.18518664,2.35914538 L4.77615914,2.83285855 C4.77615914,2.83285855 5.1152947,5.44500982 3.89736739,6.73560904 C3.89736739,6.73560904 4.96053045,3.42365422 4.45990177,2.96743615 C4.45990177,2.96743615 3.19218075,3.48152259 2.92167976,3.77490177 C2.92167976,3.77490177 3.12220039,5.65898821 2.34837917,6.33860511 C2.34837917,6.33860511 2.82343811,4.05078585 2.58792731,3.95658153 C2.58792731,3.95658153 1.11564833,5.06550098 0.666159136,6.02234774 C0.666159136,6.02234774 1.22600196,4.56083497 2.40355599,3.73452849 C2.40355599,3.73452849 1.41441061,3.56765226 0.654047151,3.9808055 C0.654047151,3.9808055 1.16275049,3.01050098 2.76018664,3.47075639 C2.76018664,3.47075639 3.94312377,2.65117878 4.17998035,2.66329077 C4.17998035,2.66329077 2.66867387,1.99040275 1.57724951,2.07384086 C1.57724951,2.07384086 2.74807466,1.40095285 4.54872299,2.52467583 L5.95505894,2.01731827 C5.95505894,2.01731827 4.00368369,1.01740668 3.02665029,1.02144401 C3.02665029,1.02144401 4.32666994,0.518123772 6.31976424,1.91773084 L7.7597446,1.62435167 C7.7597446,1.62435167 6.14481336,0.635206287 5.05608055,0.405078585 C5.05608055,0.405078585 6.3614833,0.197829077 8.17558939,1.55571709 L9.15935167,1.47362475 C9.15935167,1.47362475 7.96833988,0.771129666 7.60767191,0.60021611 C7.24700393,0.429302554 7.26315324,0.318948919 7.26315324,0.318948919 C8.1211269,0.468160166 8.92070023,0.853036371 9.57250491,1.43055992 C9.57250491,1.43055992 11.6127014,1.38480354 11.620776,1.25964637 Z" id="Path"></path>
            </g>
            <g id="Group" opacity="0.1" transform="translate(1.345776, 31.087426)" fill="#AB6ACB" fill-rule="nonzero">
                <path d="M9.90625737,5.51768173 C9.90625737,5.51768173 6.33860511,-2.72788802 1.20850688,1.05374263 C1.20850688,1.05374263 0.123811395,1.36865422 0.131841192,2.49372299 C0.131841192,2.49372299 0.554459725,2.29723969 0.822269155,3.17603143 C0.920468696,3.48775185 1.05603183,3.78644262 1.22600196,4.06558939 C1.45064514,4.44499106 1.79332987,4.74040893 2.20168959,4.90669941 L2.20168959,4.90669941 C2.20168959,4.90669941 4.27014735,6.68581532 8.39225933,5.69936149 C8.39225933,5.69936149 9.5227112,5.9402554 9.71515717,5.8110609 L8.45551081,4.75193517 C8.45551081,4.75193517 7.71398821,5.70743615 6.7208055,5.75319253 C6.7208055,5.75319253 8.44743615,4.82460707 8.27517682,4.58640472 C8.24018664,4.53795678 7.58210216,4.05616896 7.58210216,4.05616896 C7.58210216,4.05616896 6.28746562,5.70878193 4.7559725,5.73435167 C4.7559725,5.73435167 6.96169941,4.90266208 7.33986248,3.87045187 L6.30361493,3.19756385 C6.30361493,3.19756385 5.0197446,5.01301572 3.27158153,5.10722004 C3.27158153,5.10722004 5.5472888,4.15844794 6.06675835,3.0656778 L4.95918468,2.54486248 C4.95918468,2.54486248 3.67262279,4.29437132 2.2178389,4.36031434 C2.2178389,4.36031434 4.73713163,2.998389 4.69810413,2.4425835 C4.69810413,2.4425835 3.65243615,2.02539293 3.32002947,2.0496169 C3.32002947,2.0496169 2.36856582,3.28100196 1.51938114,3.24601179 C1.51938114,3.24601179 3.10605108,2.15727898 3.01992141,1.96752456 C3.01992141,1.96752456 1.51265226,1.78719057 0.701149312,2.10210216 C0.701149312,2.10210216 1.86659136,1.55302554 3.03607073,1.73335953 C3.03607073,1.73335953 2.5435167,1.06989194 1.8585167,0.885520629 C1.8585167,0.885520629 2.71443026,0.598870334 3.40077603,1.78046169 C3.40077603,1.78046169 4.56890963,1.96887033 4.70617878,2.10883104 C4.70617878,2.10883104 4.19343811,0.845147348 3.49498035,0.275884086 C3.49498035,0.275884086 4.57160118,0.545039293 5.00224951,2.23667976 L6.12731827,2.73596267 C6.12731827,2.73596267 5.53786837,1.02951866 4.95380157,0.476404715 C4.95380157,0.476404715 6.01292731,0.917819253 6.40051081,2.88534381 L7.42330059,3.52997053 C7.42330059,3.52997053 7.02764244,2.02270138 6.51221022,1.26502947 C6.51221022,1.26502947 7.4058055,1.886778 7.70860511,3.72645383 L8.34111984,4.23784872 C8.34111984,4.23784872 8.03293713,3.14238703 7.91585462,2.8355501 C7.7987721,2.52871316 7.87144401,2.47219057 7.87144401,2.47219057 C8.29656045,3.04925059 8.55241183,3.73338506 8.61027505,4.44778978 C8.61027505,4.44778978 9.82685658,5.58631631 9.90625737,5.51768173 Z" id="Path"></path>
            </g>
            <path d="M125.59724,89.7834479 C125.462662,89.296277 125.328084,88.8023772 125.058929,88.3784578 C124.809258,88.0186812 124.512318,87.6941298 124.1761,87.4135363 C123.200413,86.5266699 122.001326,85.6263458 120.708035,85.8510904 C120.306942,85.9387353 119.91947,86.0799637 119.556051,86.2709725 C119.367642,86.3584479 119.177888,86.4459234 118.984096,86.5199411 C118.438108,86.748016 117.834714,86.8006895 117.257466,86.670668 C116.961395,86.5912672 116.685511,86.4486149 116.393477,86.3597937 C116.254322,86.3182622 116.112134,86.2876648 115.968212,86.2682809 C116.250151,86.1406339 116.524273,85.9963828 116.789136,85.8362868 C118.241228,84.9386542 119.399941,83.323723 119.237102,81.6145874 C119.183271,81.0359037 118.984096,80.4827898 118.787613,79.9377505 C118.615354,79.4613458 118.442646,78.9844925 118.269489,78.5071906 C118.04609,77.8867878 117.815963,77.2556189 117.406847,76.7401866 C116.951974,76.1668861 116.306002,75.7779568 115.638497,75.4872692 C114.2039,74.8641749 112.636071,74.6448134 111.088428,74.4321807 L110.980766,74.4173772 L110.980766,57.6974558 C110.982558,57.4107541 110.86992,57.1351796 110.66782,56.9318163 C110.46572,56.7284531 110.190853,56.6141005 109.904145,56.6141061 L107.867986,56.6141061 C107.778268,56.0650295 107.688549,55.5164014 107.598831,54.968222 C107.341788,53.405776 107.07667,51.8123772 106.35668,50.4046955 C105.885658,49.4828389 105.134715,48.6053929 104.124037,48.4237132 C103.925084,48.405152 103.729535,48.3598861 103.542662,48.2891356 C103.246591,48.1437917 103.085098,47.8208055 102.856316,47.5812574 C102.269558,46.9662377 101.315403,46.9568173 100.528124,46.6392141 C99.8337033,46.3633301 99.2657859,45.8425147 98.6332711,45.4428193 C98.0007564,45.0431238 97.2134774,44.7578193 96.5123281,45.0188998 C96.5123281,45.0700393 96.5029077,45.119833 96.4975246,45.1709725 L96.0480354,44.9691061 C95.563556,44.7457073 95.0683104,44.5142338 94.6793811,44.1454912 C94.1787525,43.6731238 93.9122888,43.0500295 93.7050393,42.3852161 C93.6835069,42.3152358 93.6633202,42.2506385 93.6431336,42.1766208 C94.5031527,41.2978152 95.0854083,40.1852575 95.317279,38.9777112 C95.3536149,39.0947937 95.3912967,39.213222 95.4276326,39.3316503 C95.4607299,39.4520414 95.5058146,39.5688107 95.5622102,39.6802063 C95.5808933,39.7170194 95.6020245,39.7525379 95.6254617,39.7865226 C95.6698653,39.8525832 95.7254216,39.9104164 95.7896464,39.9574361 C95.8533873,40.0038408 95.928009,40.0330406 96.0063163,40.04222 C96.0438116,40.0475216 96.0818662,40.0475216 96.1193615,40.04222 C96.325879,39.9985767 96.4961494,39.8531374 96.5715422,39.6559823 C96.5930036,39.6030733 96.6087926,39.5480372 96.6186444,39.4917976 C96.6238454,39.457926 96.6269913,39.4237705 96.6280648,39.3895187 C96.6280648,39.3787525 96.6280648,39.3679862 96.6280648,39.35722 C96.6280648,39.3464538 96.6280648,39.3101179 96.6280648,39.2872397 C96.6280648,39.2643615 96.6280648,39.2616699 96.6280648,39.249558 C96.6280648,39.237446 96.6280648,39.2038016 96.6280648,39.1822692 L96.6280648,39.147279 C96.6280648,39.1203635 96.6199902,39.0934479 96.6146071,39.0678782 C96.609224,39.0423084 96.6146071,39.0530747 96.6146071,39.0463458 C96.6078782,39.0113556 96.5998035,38.9777112 96.5930747,38.942721 C96.5924253,38.9351088 96.5924253,38.9274551 96.5930747,38.9198428 L96.572888,38.8350589 L96.560776,38.7839194 L96.560776,38.7704617 L96.560776,38.7704617 C96.5473183,38.7179764 96.5352063,38.6641454 96.5230943,38.6103143 C96.4252728,38.142799 96.4003055,37.6629722 96.4490766,37.1878291 C96.5301543,36.4908313 96.658751,35.8001862 96.8339686,35.1207171 L96.8622299,34.9982515 L96.8945285,34.8555992 C96.9160609,34.7587033 96.9362475,34.6618075 96.9564342,34.5649116 L96.9564342,34.5649116 C96.9739293,34.4828193 96.9900786,34.3993811 97.0048821,34.315943 C97.0196857,34.2325049 97.0304519,34.1692534 97.0412181,34.0952358 C97.0412181,34.0858153 97.0412181,34.0777407 97.0412181,34.0683202 C97.1234482,33.5667271 97.1455854,33.0571192 97.1071611,32.5502849 L97.1071611,32.5502849 C97.0439096,31.846444 96.8258939,31.1802849 96.3467976,30.6487033 C96.0090079,30.2732318 95.5649018,29.996002 95.251336,29.6016896 C94.956611,29.2316012 94.7910806,28.7767289 94.4869352,28.4147151 C93.6458251,27.4107662 91.4885462,26.636945 90.1643026,26.5023674 C88.647613,26.3489489 86.1969548,26.7365324 84.9749902,27.6328193 C84.5228094,27.9638802 84.2132809,28.4402849 83.8983694,28.8938114 C83.3196857,29.7362672 82.6616012,30.5760314 81.7343615,31.047053 C81.3831139,31.2246955 80.9820727,31.3592731 80.7492534,31.6688016 C80.6085863,31.8786436 80.516624,32.1172857 80.4800982,32.3672593 C80.3012063,33.2443351 80.2083561,34.136779 80.2028684,35.0318959 C80.182756,35.4234277 80.2328918,35.8153985 80.3509037,36.1892633 C80.3697446,36.2404028 80.3926228,36.292888 80.4168468,36.3426817 L80.4168468,36.3426817 C80.4383792,36.3870923 80.4626031,36.4315029 80.4881729,36.4772593 L80.5043222,36.5055206 C80.6667467,36.738672 80.811163,36.9838648 80.9363163,37.2389686 C80.9659526,37.3108488 80.9876146,37.3857631 81.0009136,37.4623674 C81.0239856,37.6599629 81.0112206,37.8600999 80.9632318,38.0531631 L80.9632318,38.0531631 C80.9632318,38.0827701 80.9524656,38.1110314 80.9457367,38.1392927 L80.9336248,38.2011984 C80.9336248,38.2200393 80.9336248,38.2402259 80.9228585,38.2590668 C80.9120923,38.3173838 80.9026719,38.3752521 80.8945972,38.4326719 C80.8945972,38.4730452 80.8865226,38.5147642 80.8851768,38.5564833 C80.8756383,38.7231673 80.9075414,38.8896182 80.9780354,39.0409627 C80.995735,39.0770359 81.0169196,39.1112919 81.0412868,39.1432417 C81.089504,39.2077737 81.1515896,39.2606615 81.2229666,39.2980059 C81.3833079,39.3582551 81.5506066,39.3980451 81.7209037,39.4164342 C82.224224,39.5294794 82.5391356,39.9143713 82.7436935,40.3867387 C82.7890508,40.4927649 82.8290264,40.6010133 82.8634676,40.7110707 C82.9474049,40.9871986 83.0103866,41.2692665 83.0518762,41.5548723 C83.2806582,41.5427603 83.41389,41.3408939 83.4946365,41.1201866 C83.5198841,41.0474188 83.5410015,40.9732831 83.557888,40.8981336 C83.5888409,40.7568271 83.6197937,40.6155206 83.6520923,40.4742141 C84.1833128,41.6013502 85.0389936,42.5441923 86.1094794,43.1819155 C86.1471611,43.2922692 86.1834971,43.4039686 86.2171415,43.5170138 C86.3934381,44.1266503 86.478222,44.7658939 86.1727308,45.2988212 C85.9547151,45.6769843 85.5873183,45.9111493 85.1782024,46.0726424 C85.1193332,45.993556 85.0434466,45.9287074 84.9561493,45.882888 C84.6008644,45.7052456 84.1755992,45.9219155 83.8795285,46.1870334 C83.3412181,46.6742043 82.9024951,47.3726621 82.1932711,47.5328094 C81.9375737,47.5920236 81.6549607,47.5799116 81.4409823,47.7360216 C81.3000799,47.8685389 81.182277,48.0236385 81.0924263,48.1949312 C80.7798646,48.6433967 80.2605989,48.9020153 79.7143517,48.881277 C79.4680747,48.869165 79.1760413,48.8126424 79.0078193,48.9929764 C78.8826621,49.127554 78.8732417,49.3415324 78.738664,49.4693811 C78.5569843,49.6470236 78.2622593,49.5595481 78.0092534,49.5487819 C77.6398081,49.5497442 77.2870049,49.7025445 77.0335658,49.9713556 C77.0176744,49.4283731 76.8097706,48.9086135 76.4468075,48.5044597 C76.0834479,48.130334 75.5787819,47.937888 75.1481336,47.6445088 C74.0715128,46.9124067 73.5332024,45.6258448 72.9720138,44.446945 C72.4108251,43.2680452 71.6706483,42.0245481 70.4459921,41.5952456 C70.164725,41.4956582 69.7731041,41.4875835 69.6466012,41.760776 C69.6035808,41.8747957 69.5965356,41.9992606 69.6264145,42.1174067 C69.7448428,42.7445383 70.1916405,43.2478585 70.5778782,43.7525246 C71.227888,44.603055 71.7729273,45.6433399 71.6154715,46.7065029 C71.4311002,47.9648035 70.3100688,48.9418369 70.1754912,50.2055206 C70.116277,50.7626719 70.2575835,51.3225147 70.2562377,51.8823576 C70.2562377,52.2322593 70.2010609,52.5861984 70.2764244,52.9266798 C70.3564652,53.1853537 70.4512738,53.4392249 70.5603831,53.6870432 C70.6816701,54.0937003 70.7442082,54.515606 70.7461002,54.9399607 C70.8412017,56.7235625 70.9358546,58.507613 71.0300589,60.292112 C71.1013851,61.6230845 70.8106974,62.9365619 70.5173183,64.246002 C70.1535701,65.0221961 69.8712434,65.8339981 69.6748625,66.6683988 C69.3438016,68.1258743 69.3343811,69.6788998 69.8094401,71.0973477 C70.0637917,71.8684774 70.4540668,72.5911591 70.6626621,73.3757466 C70.6626621,73.3932417 70.6707367,73.409391 70.6747741,73.4255403 C70.6949607,73.5924165 70.7178389,73.7592927 70.7487917,73.9248232 C70.7870523,74.1160926 70.8369385,74.3048514 70.8981729,74.4900491 C70.9592276,74.8090413 71.0586397,75.1194782 71.1942436,75.4145972 C71.3829832,75.789472 71.6601109,76.1127876 72.0017092,76.3566405 C71.8079175,76.7361493 71.4943517,77.0416405 71.2857564,77.4130747 C70.9223969,78.0563556 70.9075933,78.8463261 71.0394794,79.5757367 C71.293831,80.9834185 72.0541945,82.2417191 73.0581434,83.2645088 C73.0133215,83.2619226 72.9683877,83.2619226 72.9235658,83.2645088 C72.5951465,83.3008291 72.2798459,83.4137657 72.003055,83.594224 C69.8780747,84.8363752 68.6628389,87.4969745 69.106945,89.9328291 C69.1944204,90.4092338 69.3464931,90.8910216 69.6640963,91.2530354 C69.9285206,91.5412456 70.2683798,91.7496366 70.645167,91.8545972 C70.8804957,91.9254162 71.1228026,91.9705385 71.3678487,91.9891749 C73.024499,92.1237525 74.628664,91.3553143 76.2893517,91.2907171 C76.8399368,91.2820174 77.390529,91.3076368 77.9379273,91.3674263 C78.7373183,91.4338179 79.5385036,91.4759856 80.3414833,91.4939293 C81.6455403,91.5248821 82.380334,91.1776719 83.2133694,90.2019843 C83.4180875,89.9598572 83.5887835,89.6909091 83.7207269,89.4025933 C84.4286051,89.36222 85.210501,89.3003143 85.7770727,89.2532122 L85.7851473,89.332613 C85.8161002,89.6017682 85.8632024,89.9112967 86.0785265,90.0822102 C86.2001163,90.1646174 86.3376659,90.2205542 86.4822593,90.2463949 C87.8428389,90.5814931 89.2195678,90.9192829 90.6191749,90.9192829 C91.2764602,90.9056292 91.9324494,90.8548574 92.5840079,90.7672102 L95.046778,90.4832515 C95.763457,90.5754894 96.4708259,90.7294806 97.1609921,90.9435069 C97.8715619,91.1857466 98.5363752,91.5450688 99.2307957,91.8276817 C100.845727,92.4830747 102.58447,92.7172397 104.305717,92.9460216 C104.599096,92.9850491 104.93554,93.0119646 105.153556,92.811444 C105.433477,92.5422888 105.339273,92.0914538 105.261218,91.7146365 C105.228919,91.5612181 105.204695,91.4051081 105.184509,91.248998 C106.346326,91.5543797 107.482844,91.9489664 108.583939,92.4292436 L108.777731,92.5140275 C108.832908,92.8074067 109.104754,93.0429175 109.364489,93.3591749 C109.449756,93.4922484 109.549503,93.6154657 109.661906,93.7265717 C109.789969,93.8109736 109.936125,93.8639958 110.088517,93.881336 C111.907279,94.2199684 113.764329,94.3037621 115.606198,94.1303045 C115.982981,94.0790772 116.363971,94.0660018 116.743379,94.091277 C117.021934,94.1290073 117.296632,94.1911522 117.564303,94.2769941 L119.122711,94.722446 C120.270658,95.0521611 121.448212,95.3845678 122.639224,95.3105501 C122.881098,95.2947064 123.121372,95.2600602 123.357868,95.2069253 C124.299912,94.9889096 125.178703,94.4613654 125.630884,93.6135265 C126.237829,92.4601965 125.943104,91.0430943 125.59724,89.7834479 Z M79.886611,68.734165 C79.8386291,69.3177117 79.6863899,69.8879249 79.4371218,70.4177308 C79.2702456,70.7555206 79.0549214,71.0663949 78.8988114,71.4055305 C78.750776,71.7123674 78.6404224,72.2923969 78.5744794,72.9289489 C78.4937328,72.9154912 78.4116405,72.9033792 78.3308939,72.8939587 C78.450668,72.4740766 78.540835,72.0434283 78.660609,71.6222004 C78.9445678,70.620943 79.4115521,69.6748625 79.886611,68.734165 Z" id="Shape" fill="url(#linearGradient-1)" fill-rule="nonzero"></path>
            <path d="M81.9604519,89.4322004 C81.6764931,88.7862279 81.4073379,88.0433595 81.6912967,87.397387 C81.8766493,87.0169616 82.1950595,86.717704 82.5862377,86.556277 C82.9733299,86.3984308 83.3813426,86.2977877 83.7974361,86.2575147 C85.1034363,86.0862175 86.4249821,86.0681513 87.7351768,86.2036837 C87.8307269,86.9600098 87.6288605,87.7271022 87.4552554,88.4578585 C87.2977996,89.1307466 87.2076326,89.230334 86.5132122,89.2653242 C86.063723,89.2895481 82.0667682,89.6704028 81.9604519,89.4322004 Z" id="Path" fill="#FBBEBE" fill-rule="nonzero"></path>
            <ellipse id="Oval" fill="#464353" fill-rule="nonzero" cx="93.9445874" cy="79.6914735" rx="19.2445972" ry="5.38310413"></ellipse>
            <ellipse id="Oval" fill="#000000" fill-rule="nonzero" opacity="0.1" cx="93.9445874" cy="79.6914735" rx="19.2445972" ry="5.38310413"></ellipse>
            <path d="M97.3951572,51.2740668 C96.7354985,52.5487375 95.639904,53.5440377 94.307947,54.078664 C93.5236999,54.3644923 92.6984227,54.5217313 91.8640177,54.5443026 C90.9502358,54.5860216 90.017613,54.5268075 89.1590079,54.2145874 C88.0070236,53.7973969 87.0501768,52.9441749 86.3328782,51.9496464 C85.6155796,50.9551179 85.1216798,49.8192829 84.6923772,48.6740275 C84.4662868,48.0778487 84.2509627,47.4426424 84.357279,46.8128193 C85.0503536,46.6553635 85.8093713,46.42389 86.1673477,45.8088703 C86.4728389,45.2813261 86.388055,44.6488114 86.2117583,44.0459037 C86.1619646,43.8749902 86.1040963,43.7054224 86.0462279,43.5425835 C85.9116503,43.1523084 85.4473576,42.4107859 85.7703438,42.0770334 C85.9762475,41.8657466 86.83889,41.7580845 87.1363065,41.6208153 C88.05278,41.1982417 88.8979273,40.5872593 89.9045678,40.3867387 C90.7752849,40.2131336 91.6742633,40.3759725 92.5436346,40.5563065 C92.6589524,40.5730775 92.7697127,40.6128963 92.8693124,40.673389 C92.9828746,40.7690936 93.0668871,40.8951124 93.1115521,41.0367485 C93.3591749,41.6396562 93.5045187,42.3058153 93.7036935,42.9342927 C93.910943,43.5923772 94.1774067,44.2100884 94.6766896,44.6770727 C95.0656189,45.041778 95.5608644,45.2705599 96.0453438,45.492613 L97.2377014,46.038998 C97.4497964,46.1184129 97.6421687,46.2428351 97.8015815,46.4037033 C97.957508,46.6180272 98.0507041,46.8715206 98.0707367,47.1358055 C98.28438,48.5519362 98.0480779,49.9994045 97.3951572,51.2740668 L97.3951572,51.2740668 Z" id="Path" fill="#FBBEBE" fill-rule="nonzero"></path>
            <path d="M93.6983104,42.9342927 C91.7462764,44.9648416 88.6695662,45.4216747 86.2117583,44.0459037 C86.1619646,43.8749902 86.1040963,43.7054224 86.0462279,43.5425835 C85.9116503,43.1523084 85.4473576,42.4107859 85.7703438,42.0770334 C85.9762475,41.8657466 86.83889,41.7580845 87.1363065,41.6208153 C88.05278,41.1982417 88.8979273,40.5872593 89.9045678,40.3867387 C90.7752849,40.2131336 91.6742633,40.3759725 92.5436346,40.5563065 C92.6589524,40.5730775 92.7697127,40.6128963 92.8693124,40.673389 C92.9828746,40.7690936 93.0668871,40.8951124 93.1115521,41.0367485 C93.3537917,41.6396562 93.4991356,42.3058153 93.6983104,42.9342927 Z" id="Path" fill="#000000" fill-rule="nonzero" opacity="0.1"></path>
            <circle id="Oval" fill="#FBBEBE" fill-rule="nonzero" cx="89.2343713" cy="38.3761493" r="6.19056974"></circle>
            <path d="M108.095422,58.4672397 L107.586719,55.3854126 C107.329676,53.8391159 107.064558,52.2632122 106.345914,50.870334 C105.873546,49.9578978 105.123949,49.0885265 104.113271,48.9081925 C103.914186,48.8904484 103.718528,48.845157 103.531896,48.7736149 C103.235825,48.6309627 103.074332,48.310668 102.846896,48.0738114 C102.260138,47.4655206 101.304637,47.4561002 100.518703,47.1465717 C99.8242829,46.8774165 99.2563654,46.3592927 98.6238507,45.9636346 C97.991336,45.5679764 97.204057,45.2907466 96.5042534,45.5437525 C96.3912083,46.748222 96.2714342,47.9796071 95.7600393,49.0764145 C95.0859129,50.5225406 93.794682,51.5868191 92.2464496,51.9724403 C90.6982173,52.3580614 89.0586406,52.0237647 87.7849705,51.06278 C86.5858841,50.1597642 85.817446,48.7668861 85.4594695,47.3094106 C85.3719941,46.9541257 85.2724067,46.5463556 84.9453831,46.3835167 C84.591444,46.2058743 84.1661788,46.4211984 83.8687623,46.682279 C83.323723,47.1654126 82.8903831,47.8571415 82.1825049,48.0199804 C81.9268075,48.0791945 81.6441945,48.0670825 81.4315619,48.2218468 C81.2902449,48.3522617 81.17195,48.5055902 81.0816601,48.6753733 C80.7669729,49.120031 80.2493198,49.3760745 79.7049312,49.356336 C79.4586542,49.344224 79.1666208,49.2877014 78.9983988,49.4666896 C78.8732417,49.6012672 78.8638212,49.8112083 78.7292436,49.9363654 C78.5475639,50.1126621 78.2528389,50.0265324 77.999833,50.017112 C77.5207367,49.9969253 77.0752849,50.3037623 76.8007466,50.69 C76.5262083,51.0762377 76.3970138,51.5539882 76.2624361,52.0169352 C77.7333694,55.292554 79.0791454,58.5722102 80.5500786,61.8478291 C80.6189934,61.9712891 80.655566,62.1101725 80.6563949,62.2515619 C80.6268959,62.3983111 80.5642984,62.5363938 80.4733694,62.6552947 C79.7520334,63.8140079 79.7749116,65.2714833 79.8543124,66.6334086 C79.9337132,67.995334 80.030609,69.4339686 79.4223183,70.6545874 C79.2567878,70.9896857 79.0414637,71.2965226 78.8840079,71.6316208 C78.5152652,72.3906385 78.3820334,74.8184185 78.5973576,75.6339587 L109.011896,75.6339587 C108.431866,74.0392141 108.652574,70.8389587 108.773694,69.1459725 C108.858477,67.9616896 108.639116,66.7787525 108.544912,65.5944695 C108.347083,63.17611 108.495118,60.8815619 108.095422,58.4672397 Z" id="Path" fill="#F86D70" fill-rule="nonzero"></path>
            <path d="M109.652485,74.6919155 C110.100629,74.521002 110.594528,74.5829077 111.074971,74.6475049 C112.621267,74.8587917 114.190442,75.0754617 115.623694,75.6931729 C116.296582,75.981169 116.937171,76.3660609 117.392043,76.9326326 C117.795776,77.4426817 118.031287,78.0671218 118.254686,78.6821415 L118.771464,80.0938605 C118.967947,80.6321709 119.167122,81.1812475 119.222299,81.7532024 C119.383792,83.4475344 118.225079,85.0449705 116.767603,85.9251081 C115.310128,86.8052456 113.594263,87.1188114 111.922809,87.4471807 C110.251356,87.7755501 108.573173,88.1389096 106.908448,88.5238016 C106.13199,88.7253023 105.344211,88.8803415 104.549303,88.9880943 C102.767495,89.1899607 100.904941,88.8925442 99.2119548,89.4819941 C98.5390668,89.7175049 97.8782908,90.0674067 97.179833,90.2302456 C96.7165635,90.3318818 96.247941,90.4073646 95.7761886,90.456336 L92.5718959,90.822387 C91.9203068,90.9095357 91.2643204,90.9598579 90.6070629,90.9731139 C89.2074558,90.9731139 87.8307269,90.642053 86.4714931,90.3109921 C86.3269818,90.2856377 86.1894236,90.2301559 86.0677603,90.1481532 C85.8524361,89.9785855 85.805334,89.6784774 85.7743811,89.4066306 C85.637112,88.2035069 85.5168893,86.9990373 85.4137132,85.793222 C85.3814145,85.4016012 85.3571906,84.9776817 85.571169,84.6479666 C85.8403242,84.2442338 86.3651768,84.1177308 86.8442731,84.0396758 C88.8758005,83.707335 90.9338185,83.5645172 92.991778,83.6130648 C93.7736739,82.831169 95.0629273,82.8271316 96.0870629,82.4018664 C96.4638228,82.2288451 96.8284614,82.0305644 97.1784872,81.8083792 C99.0096573,80.7399343 101.055955,80.0930817 103.168536,79.9148723 C103.58243,79.9022407 103.993631,79.8435622 104.394538,79.7399214 C105.1872,79.4936444 105.909882,78.8234479 106.724077,78.9876326 C106.82501,78.709057 106.89499,78.336277 107.127809,78.1451768 C107.243546,78.0469352 107.386198,77.9809921 107.492515,77.8760216 C107.717259,77.6485855 107.737446,77.290609 107.703802,76.9730059 C107.670157,76.6554028 107.594794,76.329725 107.676886,76.0201965 C107.711041,75.9030094 107.761316,75.7911372 107.826267,75.6877898 C108.231346,74.9799116 108.840982,74.6246267 109.652485,74.6919155 Z" id="Path" fill="#464353" fill-rule="nonzero"></path>
            <path d="M109.652485,74.6919155 C110.100629,74.521002 110.594528,74.5829077 111.074971,74.6475049 C112.621267,74.8587917 114.190442,75.0754617 115.623694,75.6931729 C116.296582,75.981169 116.937171,76.3660609 117.392043,76.9326326 C117.795776,77.4426817 118.031287,78.0671218 118.254686,78.6821415 L118.771464,80.0938605 C118.967947,80.6321709 119.167122,81.1812475 119.222299,81.7532024 C119.383792,83.4475344 118.225079,85.0449705 116.767603,85.9251081 C115.310128,86.8052456 113.594263,87.1188114 111.922809,87.4471807 C110.251356,87.7755501 108.573173,88.1389096 106.908448,88.5238016 C106.13199,88.7253023 105.344211,88.8803415 104.549303,88.9880943 C102.767495,89.1899607 100.904941,88.8925442 99.2119548,89.4819941 C98.5390668,89.7175049 97.8782908,90.0674067 97.179833,90.2302456 C96.7165635,90.3318818 96.247941,90.4073646 95.7761886,90.456336 L92.5718959,90.822387 C91.9203068,90.9095357 91.2643204,90.9598579 90.6070629,90.9731139 C89.2074558,90.9731139 87.8307269,90.642053 86.4714931,90.3109921 C86.3269818,90.2856377 86.1894236,90.2301559 86.0677603,90.1481532 C85.8524361,89.9785855 85.805334,89.6784774 85.7743811,89.4066306 C85.637112,88.2035069 85.5168893,86.9990373 85.4137132,85.793222 C85.3814145,85.4016012 85.3571906,84.9776817 85.571169,84.6479666 C85.8403242,84.2442338 86.3651768,84.1177308 86.8442731,84.0396758 C88.8758005,83.707335 90.9338185,83.5645172 92.991778,83.6130648 C93.7736739,82.831169 95.0629273,82.8271316 96.0870629,82.4018664 C96.4638228,82.2288451 96.8284614,82.0305644 97.1784872,81.8083792 C99.0096573,80.7399343 101.055955,80.0930817 103.168536,79.9148723 C103.58243,79.9022407 103.993631,79.8435622 104.394538,79.7399214 C105.1872,79.4936444 105.909882,78.8234479 106.724077,78.9876326 C106.82501,78.709057 106.89499,78.336277 107.127809,78.1451768 C107.243546,78.0469352 107.386198,77.9809921 107.492515,77.8760216 C107.717259,77.6485855 107.737446,77.290609 107.703802,76.9730059 C107.670157,76.6554028 107.594794,76.329725 107.676886,76.0201965 C107.711041,75.9030094 107.761316,75.7911372 107.826267,75.6877898 C108.231346,74.9799116 108.840982,74.6246267 109.652485,74.6919155 Z" id="Path" fill="#000000" fill-rule="nonzero" opacity="0.05"></path>
            <path d="M83.1985658,90.26389 C82.3655305,91.2288114 81.6320825,91.5733301 80.3280255,91.5423772 C79.525943,91.5235363 78.7247577,91.4818173 77.9244695,91.41722 C77.377472,91.35807 76.8273671,91.3324524 76.2772397,91.3405108 C74.6165521,91.4051081 73.0137328,92.1654715 71.3570825,92.0322397 C71.112121,92.0129592 70.8698824,91.9678496 70.6344008,91.8976621 C70.260664,91.7935952 69.9229885,91.5881953 69.6587132,91.3041749 C69.34111,90.9448527 69.1890373,90.4684479 69.1015619,89.9974263 C68.6588016,87.5831041 69.8726916,84.9534578 71.9976719,83.7247642 C72.2749273,83.5457059 72.5901022,83.4337359 72.9181827,83.3977224 C73.2398942,83.3964231 73.5579151,83.4662774 73.8494597,83.6022986 L73.8696464,83.6103733 C74.7329766,83.9656029 75.5170635,84.4889374 76.1763065,85.1499411 C76.2763252,85.2644875 76.3956655,85.3605974 76.5288998,85.4338998 C76.6618614,85.4841153 76.8026236,85.5105366 76.9447446,85.5119548 L78.7130943,85.6236542 C79.0126926,85.6325952 79.3104672,85.673652 79.6013065,85.7461198 C79.9219346,85.8580588 80.2340679,85.9929867 80.535275,86.1498527 C81.4867387,86.5751179 82.5418271,86.6881631 83.57,86.8523477 C83.6690806,86.8578231 83.7636311,86.8956432 83.8391552,86.9600098 C83.8801895,87.0110479 83.9087585,87.0709506 83.9225933,87.1349607 C84.2140508,88.2334857 83.9429517,89.405057 83.1985658,90.26389 L83.1985658,90.26389 Z" id="Path" fill="#3F3D56" fill-rule="nonzero"></path>
            <path d="M73.8642633,83.6103733 C73.178183,84.2654953 72.5829876,85.0096027 72.0945678,85.8228291 C71.3107911,87.1649361 70.8183253,88.6570068 70.6492043,90.2019843 C70.58507,90.7655927 70.5801085,91.3343664 70.6344008,91.8990079 C70.2605129,91.7945631 69.9228215,91.5886878 69.6587132,91.3041749 C69.34111,90.9448527 69.1890373,90.4684479 69.1015619,89.9974263 C68.6588016,87.5831041 69.8726916,84.9534578 71.9976719,83.7247642 C72.2749273,83.5457059 72.5901022,83.4337359 72.9181827,83.3977224 C73.2398942,83.3964231 73.5579151,83.4662774 73.8494597,83.6022986 L73.8642633,83.6103733 Z" id="Path" fill="#000000" fill-rule="nonzero" opacity="0.1"></path>
            <path d="M108.112917,86.9573183 C109.102063,86.9304028 110.212328,86.880609 110.939047,87.5467682 C111.632122,88.1765914 111.723635,89.2155305 111.769391,90.1508448 L111.821876,91.2368861 C111.838026,91.567947 111.851483,91.9097741 111.718251,92.216611 C111.481385,92.7549214 110.831385,93.0146562 110.237898,92.9837033 C109.644411,92.9527505 109.099371,92.6930157 108.557024,92.4588507 C107.084618,91.8245294 105.551517,91.3416025 103.981385,91.0175246 C104.032525,90.2665815 104.117757,89.5192272 104.237083,88.7754617 C104.319175,88.2600295 104.332633,87.397387 104.677151,86.9694303 C105.041857,86.5172495 105.516916,86.7621807 106.012161,86.8456189 C106.707055,86.951661 107.410697,86.9890743 108.112917,86.9573183 L108.112917,86.9573183 Z" id="Path" fill="#FBBEBE" fill-rule="nonzero"></path>
            <path d="M81.9752554,76.0457662 C81.9752554,76.1803438 81.7639686,76.0457662 81.7451277,75.9017682 C81.5970923,74.8130354 80.7331041,73.9154028 79.7264637,73.4793713 C78.7198232,73.0433399 77.573222,73.0204617 76.4831434,73.1240864 C74.8345678,73.2801965 72.9908546,73.9113654 72.3812181,75.452279 C72.2385658,75.812947 72.1739686,76.203222 71.9990177,76.5490864 C71.8052259,76.9285953 71.4889686,77.2313949 71.2790275,77.6001375 C70.9170138,78.2380354 70.9022102,79.0199312 71.0327505,79.7412672 C71.383998,81.6657269 72.700167,83.311611 74.2949116,84.4514833 C75.8896562,85.5913556 77.753556,86.2723183 79.6120727,86.8859921 C84.5263924,88.5067735 89.5684231,89.7110086 94.6847642,90.485943 C95.5137623,90.6111002 96.350835,90.7268369 97.1448428,90.9933006 C97.8554126,91.2315029 98.5202259,91.5881336 99.2146464,91.868055 C100.829578,92.5167191 102.566974,92.7481925 104.288222,92.9756287 C104.581601,93.0133104 104.918045,93.0402259 105.134715,92.8410511 C105.414637,92.5813163 105.321778,92.1291356 105.242377,91.7563556 C104.950113,90.3401452 105.194228,88.8658602 105.927377,87.6194401 C106.215373,87.1349607 106.589499,86.6383694 106.535668,86.0771807 C106.471071,85.4231336 105.819715,84.9601866 105.171051,84.8552161 C104.522387,84.7502456 103.862957,84.9050098 103.211601,84.9897937 C102.986857,85.0194008 102.741925,85.0382417 102.538713,84.9238507 C102.441906,84.8584837 102.354125,84.7806573 102.277633,84.6923772 C101.357087,83.8043395 99.9692863,83.6103516 98.8405206,84.2119352 C98.5996267,84.3465128 98.2349214,84.0464047 97.9846071,83.9333595 L95.1571316,82.650835 C91.9057367,81.1799018 88.6381925,79.7022397 85.198389,78.7709627 C84.9239354,78.7170135 84.6630924,78.6085577 84.4312967,78.4520138 C84.2603831,78.3174361 84.1379175,78.1344106 83.9804617,77.9850295 C83.6372888,77.6606974 83.1595383,77.5315029 82.7477308,77.3013752 C82.3359234,77.0712475 81.8783595,76.5073674 81.9752554,76.0457662 Z" id="Path" fill="#464353" fill-rule="nonzero"></path>
            <path d="M125.603969,93.6337132 C125.151788,94.4721316 124.274342,94.9942927 123.332299,95.2096169 C123.095889,95.2629706 122.855562,95.2971744 122.613654,95.3118959 C121.422642,95.3859136 120.246434,95.0561984 119.098487,94.7305206 L117.540079,94.2891061 C117.272165,94.2047713 116.99752,94.143539 116.719155,94.1060806 C116.340196,94.0807676 115.959648,94.0938433 115.58332,94.1451081 C113.741451,94.3164611 111.884754,94.2331361 110.065639,93.8974853 C109.913453,93.8810569 109.76729,93.8289546 109.639028,93.7454126 C109.526659,93.6352607 109.426905,93.5129386 109.341611,93.3807073 C108.917692,92.8706582 108.461473,92.5732417 108.963448,91.9003536 C109.25279,91.5100786 109.789754,91.3149411 110.014499,90.8667976 C110.239244,90.4186542 110.095246,89.7821022 109.962014,89.3191552 C109.780334,88.6799116 109.182809,88.4040275 108.968831,87.8172692 C108.808684,87.3745088 109.077839,86.8604224 109.482917,86.6195285 C109.887996,86.3786346 110.388625,86.3597937 110.855609,86.4216994 C111.322593,86.4836051 111.780157,86.6154912 112.249833,86.6518271 C113.630599,86.7621807 115.042318,86.0502652 116.367908,86.4513065 C116.659941,86.5401277 116.935825,86.6814342 117.231896,86.7594892 C117.809096,86.8885985 118.412077,86.836431 118.958527,86.6101081 C119.152318,86.5374361 119.342073,86.4499607 119.530481,86.363831 C119.893832,86.1746726 120.28079,86.0348245 120.68112,85.9479862 C121.974411,85.7259332 123.173497,86.6208743 124.149185,87.4942829 C124.484113,87.7722541 124.780545,88.093577 125.030668,88.4497839 C125.299823,88.869666 125.442475,89.3581827 125.568978,89.8399705 C125.925609,91.0875049 126.220334,92.4898035 125.603969,93.6337132 Z" id="Path" fill="#3F3D56" fill-rule="nonzero"></path>
            <path d="M125.603969,93.6337132 C125.151788,94.4721316 124.274342,94.9942927 123.332299,95.2096169 C123.698746,94.4976558 123.863931,93.6991826 123.810049,92.9002652 C123.729303,91.6204322 123.166768,90.4146169 122.44947,89.3514538 C122.008187,88.696992 121.506239,88.085552 120.950275,87.5252358 C120.522318,87.0945874 119.99612,86.7527603 119.535864,86.3584479 C119.899215,86.1692895 120.286173,86.0294414 120.686503,85.9426031 C121.979794,85.7205501 123.17888,86.6154912 124.154568,87.4888998 C124.489496,87.766871 124.785928,88.0881939 125.036051,88.4444008 C125.305206,88.8642829 125.447859,89.3527996 125.574361,89.8345874 C125.925609,91.0875049 126.220334,92.4898035 125.603969,93.6337132 Z" id="Path" fill="#000000" fill-rule="nonzero" opacity="0.1"></path>
            <path d="M84.9574951,28.3285855 C84.5053143,28.655609 84.1957859,29.1252849 83.8808743,29.5761198 C83.3008448,30.4091552 82.6441061,31.2408448 81.7168664,31.7051375 C81.3656189,31.8814342 80.9645776,32.014666 80.7317583,32.3215029 C80.5935694,32.5290146 80.503876,32.7649772 80.469332,33.0118861 C80.2917052,33.8800716 80.198859,34.7634628 80.1921022,35.6496071 C80.1921022,36.0910216 80.210943,36.5458939 80.4060806,36.9469352 C80.5904519,37.3237525 80.9228585,37.6427014 80.9914931,38.0531631 C81.0439784,38.3734578 80.9255501,38.6924067 80.883831,39.0140472 C80.842112,39.3356876 80.9147839,39.7165422 81.2122004,39.8699607 C81.3724528,39.9302422 81.5398136,39.9695946 81.7101375,39.9870432 C82.6050786,40.1862181 82.9051866,41.2359234 83.04111,42.1039489 C83.3452554,42.0864538 83.4825246,41.7378978 83.545776,41.4539391 L84.4783988,37.3076031 C84.579332,36.8581139 84.747554,36.3372986 85.1956974,36.1798428 C85.4958055,36.0762181 85.8241749,36.1731139 86.1377407,36.2000295 C87.3691257,36.3009627 88.4107564,35.349499 89.6152259,35.0870727 C90.0008294,35.0097138 90.3950003,34.9839185 90.7873969,35.0103635 C91.7375147,35.0574656 92.8423969,35.4477407 93.0442633,36.3346071 C93.0779077,36.4786051 93.0980943,36.6508644 93.2326719,36.7221906 C93.3672495,36.7935167 93.5018271,36.7329568 93.6498625,36.7221906 C94.2527701,36.6616306 94.608055,37.3399018 94.7816601,37.8943615 L95.4141749,39.9130255 C95.5083792,40.2185167 95.6671807,40.5778389 95.9982417,40.6168664 C96.3037328,40.6545481 96.5634676,40.3652063 96.609224,40.078556 C96.6549804,39.7919057 96.5553929,39.4944892 96.4894499,39.2064931 C96.1920334,37.8809037 96.6469057,36.5243615 96.9241356,35.1960806 C97.2013654,33.8677996 97.2511591,32.3416896 96.3212279,31.3188998 C95.9834381,30.9488114 95.539332,30.6729273 95.2244204,30.2826523 C94.9310413,29.9166012 94.7655108,29.467112 94.4613654,29.1077898 C93.6202554,28.1159528 91.4629764,27.3502063 90.1400786,27.2237033 C88.6341552,27.0581729 86.1794597,27.4417191 84.9574951,28.3285855 Z" id="Path" fill="#3F3D56" fill-rule="nonzero"></path>
            <g id="Group" opacity="0.1" transform="translate(80.073674, 33.106090)" fill="#000000" fill-rule="nonzero">
                <path d="M15.9299509,6.56738703 C15.59889,6.52701375 15.4400884,6.16365422 15.3458841,5.86354617 C15.1350458,5.18976097 14.9242076,4.51687295 14.7133694,3.84488212 C14.5397642,3.28907662 14.1844794,2.6108055 13.5815717,2.6727112 C13.4469941,2.68751473 13.2881925,2.74269155 13.1643811,2.6727112 C13.0405697,2.60273084 13.0096169,2.42912574 12.9759725,2.2851277 C12.7741061,1.39691552 11.669224,1.00798625 10.7191061,0.960884086 C10.3267091,0.935115416 9.93262714,0.960904936 9.54693517,1.03759332 C8.33573674,1.30674853 7.30083497,2.24879175 6.0694499,2.1505501 C5.75184676,2.12498035 5.42347741,2.02808448 5.12740668,2.13170923 C4.67388016,2.28781925 4.51104126,2.80459725 4.41010806,3.25946955 L3.47748527,7.40445972 C3.41423379,7.68976424 3.27696464,8.03832024 2.97281925,8.05446955 C2.83824165,7.18778978 2.53678782,6.13808448 1.64184676,5.93890963 C1.47174309,5.9201655 1.30454218,5.8808507 1.14390963,5.82182711 C1.02682708,5.75787416 0.935167052,5.65576584 0.884174853,5.53248527 C0.859950884,5.65764244 0.831689587,5.78279961 0.815540275,5.90795678 C0.775166994,6.22825147 0.846493124,6.61045187 1.14390963,6.76387033 C1.30416208,6.82415179 1.47152281,6.86350418 1.64184676,6.88095285 C2.53678782,7.0801277 2.83689587,8.12983301 2.97281925,8.99785855 C3.27696464,8.98036346 3.41423379,8.63180747 3.47748527,8.34784872 L4.41010806,4.20151277 C4.51104126,3.75202358 4.67926326,3.23120825 5.12740668,3.07375246 C5.42751473,2.9701277 5.75588409,3.06702358 6.0694499,3.0939391 C7.30083497,3.1948723 8.34246562,2.24340864 9.54693517,1.98098232 C9.93078365,1.90409909 10.3231127,1.87830583 10.713723,1.90427308 C11.6638409,1.95137525 12.768723,2.34165029 12.9705894,3.2285167 C13.0042338,3.37251473 13.0244204,3.54477407 13.158998,3.6161002 C13.2935756,3.68742633 13.4281532,3.6268664 13.5761886,3.6161002 C14.1790963,3.55554028 14.5343811,4.23381139 14.7079862,4.78827112 C14.9179273,5.46205632 15.1287656,6.13494434 15.340501,6.80693517 C15.4347053,7.11242633 15.5935069,7.47174853 15.9245678,7.51077603 C16.2300589,7.54845776 16.4897937,7.25911591 16.5355501,6.97246562 C16.5562296,6.73126632 16.5287828,6.48836193 16.4548035,6.25785855 C16.3570351,6.45628507 16.1509087,6.5778468 15.9299509,6.56738703 Z" id="Path"></path>
                <path d="M0.919165029,4.00502947 C0.850530452,3.59456778 0.51543222,3.27561886 0.333752456,2.89880157 C0.216945714,2.64464612 0.149361727,2.37065698 0.134577603,2.09133595 C0.134577603,2.24206287 0.121119843,2.39278978 0.119774067,2.54486248 C0.119774067,2.98627701 0.138614931,3.44114931 0.333752456,3.84219057 C0.483133595,4.14768173 0.729410609,4.41683694 0.853222004,4.7277112 C0.91850186,4.49274632 0.940840884,4.24792885 0.919165029,4.00502947 Z" id="Path"></path>
                <path d="M16.8558448,1.14121807 C16.6109136,2.31473477 16.2287132,3.50978389 16.3471415,4.68599214 C16.4238507,3.8179666 16.6768566,2.94455796 16.8558448,2.0832613 C17.0050111,1.42964049 17.0576063,0.757690922 17.0119548,0.0888212181 C16.982676,0.442620599 16.9305304,0.794154222 16.8558448,1.14121807 L16.8558448,1.14121807 Z" id="Path"></path>
            </g>
            <path d="M81.5230747,64.4155697 C81.3602358,67.0882809 79.3994401,69.2966994 78.6525344,71.8671316 C78.4668173,72.5104126 78.3551179,73.1779175 78.0886542,73.7902456 C77.5503438,75.0216306 76.4427701,75.9152259 75.2625246,76.5450491 C74.8319097,76.7939456 74.3609005,76.9652216 73.8709921,77.0510609 C72.7682846,77.1799227 71.7010639,76.612275 71.1915521,75.6258841 C70.8833694,75.0000982 70.8403045,74.2801081 70.6532417,73.60722 C70.4446464,72.8307073 70.0543713,72.1147544 69.8000196,71.3516994 C69.3316896,69.948055 69.34111,68.4111788 69.665442,66.9685069 C69.9727527,65.7139221 70.4590804,64.5101138 71.1094597,63.3941257 C71.203664,63.2285953 71.2992141,63.0644106 71.3974558,62.9015717 C71.675062,62.4308152 71.9867699,61.9810203 72.3300786,61.5557957 C73.1375442,60.5827996 74.1751375,59.8345481 75.2019646,59.0970629 C75.2803732,59.03246 75.3723924,58.9864504 75.4711198,58.9624853 L75.4872692,58.9624853 C75.6030474,58.9584167 75.7178092,58.9853648 75.8196758,59.0405403 C77.2437021,59.6561979 78.6105014,60.3965662 79.9041061,61.2529961 C80.367053,61.5611788 81.0978094,61.9056974 81.3400491,62.4305501 C81.5822888,62.9554028 81.5580648,63.8449607 81.5230747,64.4155697 Z" id="Path" fill="#FBBEBE" fill-rule="nonzero"></path>
            <path d="M76.1803438,52.1165226 C76.0492484,52.2537558 75.947581,52.4163321 75.8815815,52.5942731 C74.7937414,55.0459155 74.1511955,57.6716951 73.9840373,60.3486346 C73.986964,60.4791613 73.956875,60.6083127 73.8965619,60.7241061 C73.8370862,60.8011504 73.7708829,60.8727581 73.6987328,60.9380845 C73.5663046,61.0950517 73.5047651,61.2998375 73.528731,61.5038022 C73.5526968,61.7077668 73.6600295,61.8927102 73.8252358,62.0147053 C74.0472888,61.596169 74.5788703,61.4602456 75.0512377,61.4239096 C77.3134872,61.2449214 79.5232515,62.2973183 81.7922299,62.2179175 C81.6320825,61.6648035 81.4019548,61.133222 81.2714145,60.5733792 C80.6940766,58.0877308 82.134057,55.3813752 81.2512279,52.9872397 C81.0749312,52.5081434 80.7802063,52.0371218 80.3159136,51.8271807 C80.1236764,51.7495313 79.9224973,51.696185 79.7170432,51.6683792 C79.1437426,51.5647544 78.0025246,51.1219941 77.4480648,51.2996365 C77.2435069,51.3655796 77.1627603,51.5580255 76.9931925,51.6737623 C76.7415324,51.8392927 76.3997053,51.8971611 76.1803438,52.1165226 Z" id="Path" fill="#F86D70" fill-rule="nonzero"></path>
            <path d="M77.1075835,74.3689293 C76.4038749,75.5625223 75.1286074,76.3026875 73.7431434,76.3216503 C73.3744155,76.3313196 73.0077269,76.2639406 72.6665226,76.1238212 C71.8065717,75.7443124 71.3207466,74.8049607 71.1404126,73.8817583 C70.9600786,72.958556 71.0166012,72.0057466 70.8887525,71.0731238 C70.7864735,70.3302554 70.5684578,69.6089194 70.4554126,68.8673969 C70.1781827,67.0331041 70.7245678,65.2216896 71.1134971,63.3954715 C71.2077014,63.2299411 71.3032515,63.0657564 71.4014931,62.9029175 C71.6790993,62.432161 71.9908072,61.9823661 72.3341159,61.5571415 C73.1415815,60.5841454 74.1791749,59.8358939 75.206002,59.0984086 L74.1293811,59.0984086 C74.1823866,59.059633 74.2520167,59.0519804 74.3121784,59.0783184 C74.3723401,59.1046565 74.4139497,59.1610086 74.4214145,59.2262574 C74.5277308,60.1683006 75.8560118,61.1103438 76.1453536,62.0254715 C76.3243418,62.5880059 76.539666,63.1397741 76.683664,63.7130747 C76.7971696,64.2013544 76.8834324,64.6955687 76.942053,65.1934283 C77.1331532,66.5867551 77.3233563,67.9773903 77.5126621,69.365334 C77.7508644,71.059666 77.9554224,72.8912672 77.1075835,74.3689293 Z" id="Path" fill="#000000" fill-rule="nonzero" opacity="0.1"></path>
            <path d="M75.325776,56.69889 L76.6244499,52.6252259 C76.8182417,52.0155894 77.014725,51.3965324 77.0376031,50.755943 C77.0604813,50.1153536 76.8922593,49.4438114 76.4441159,48.9862475 C76.0807564,48.6161591 75.5774361,48.4250589 75.1467878,48.1357171 C74.070167,47.4103438 73.5318566,46.1399312 72.970668,44.9704519 C72.4094794,43.8009725 71.6706483,42.5776621 70.4459921,42.1443222 C70.1633792,42.0447348 69.7731041,42.0366601 69.6466012,42.3071611 C69.6028457,42.4196199 69.5957798,42.5430366 69.6264145,42.6597544 C69.7448428,43.2815029 70.1902947,43.7780943 70.5778782,44.2746857 C71.227888,45.1157957 71.7715815,46.1453143 71.6154715,47.1977112 C71.4297544,48.4438998 70.3100688,49.410167 70.1754912,50.6630845 C70.116277,51.2148527 70.2575835,51.7679666 70.2562377,52.3237721 C70.2562377,52.6682908 70.1997151,53.0195383 70.2764244,53.3559823 C70.35604,53.6161189 70.450856,53.871358 70.5603831,54.1203831 C70.6802503,54.5227509 70.7427717,54.9400132 70.7461002,55.3598428 L71.0300589,60.6568173 C71.1834774,63.5219745 69.6291061,66.3090766 70.0570629,69.1352063 C70.1701081,69.8767289 70.3881238,70.5980648 70.4904028,71.3409332 C70.6249804,72.273556 70.5617289,73.2250196 70.7420629,74.1495678 C70.9223969,75.0741159 71.4149509,76.0121218 72.2681729,76.3916306 C72.6093772,76.53175 72.9760657,76.5991291 73.3447937,76.5894597 C74.7302577,76.5704969 76.0055252,75.8303317 76.7092338,74.6367387 C77.5570727,73.1563851 77.3525147,71.3274754 77.1210413,69.6398723 L76.5504322,65.4679666 C76.4918116,64.970107 76.4055488,64.4758927 76.2920432,63.987613 C76.149391,63.4143124 75.9340668,62.8625442 75.7537328,62.3000098 C75.1763949,60.460334 74.7444008,58.5264538 75.325776,56.69889 Z" id="Path" fill="#FBBEBE" fill-rule="nonzero"></path>
            <rect id="Rectangle" fill="#3F3D56" fill-rule="nonzero" x="80.9578487" y="57.0151473" width="30.0108055" height="19.1100196" rx="7.97"></rect>
            <rect id="Rectangle" fill="#000000" fill-rule="nonzero" opacity="0.2" x="80.9578487" y="57.0151473" width="30.0108055" height="19.1100196" rx="7.97"></rect>
            <circle id="Oval" fill="#FFFFFF" fill-rule="nonzero" cx="95.8959627" cy="66.5701572" r="1"></circle>
            <path d="M60.484558,82.2269155 L62.1142927,82.2269155 C63.9724217,82.2269155 65.4787328,83.7332267 65.4787328,85.5913556 L65.4787328,90.5855305 L57.1201179,90.5855305 L57.1201179,85.5913556 C57.1201179,83.7332267 58.626429,82.2269155 60.484558,82.2269155 Z" id="Path" fill="#3F3D56" fill-rule="nonzero"></path>
            <path d="M60.484558,82.2269155 L62.1142927,82.2269155 C63.9724217,82.2269155 65.4787328,83.7332267 65.4787328,85.5913556 L65.4787328,90.5855305 L57.1201179,90.5855305 L57.1201179,85.5913556 C57.1201179,83.7332267 58.626429,82.2269155 60.484558,82.2269155 Z" id="Path" fill="#000000" fill-rule="nonzero" opacity="0.1"></path>
            <circle id="Oval" fill="#3F3D56" fill-rule="nonzero" cx="60.9663458" cy="83.3977407" r="1"></circle>
            <circle id="Oval" fill="#3F3D56" fill-rule="nonzero" cx="60.9663458" cy="82.5620138" r="1"></circle>
            <circle id="Oval" fill="#3F3D56" fill-rule="nonzero" cx="60.9663458" cy="81.7262868" r="1"></circle>
            <circle id="Oval" fill="#3F3D56" fill-rule="nonzero" cx="60.9663458" cy="80.8905599" r="1"></circle>
            <circle id="Oval" fill="#3F3D56" fill-rule="nonzero" cx="60.9663458" cy="80.054833" r="1"></circle>
            <circle id="Oval" fill="#3F3D56" fill-rule="nonzero" cx="60.9663458" cy="79.2191061" r="1"></circle>
            <circle id="Oval" fill="#3F3D56" fill-rule="nonzero" cx="60.9663458" cy="78.3833792" r="1"></circle>
            <circle id="Oval" fill="#3F3D56" fill-rule="nonzero" cx="61.9689489" cy="78.7171316" r="1"></circle>
            <circle id="Oval" fill="#3F3D56" fill-rule="nonzero" cx="62.6377996" cy="78.3833792" r="1"></circle>
            <circle id="Oval" fill="#3F3D56" fill-rule="nonzero" cx="63.3066503" cy="78.0482809" r="1"></circle>
            <circle id="Oval" fill="#3F3D56" fill-rule="nonzero" cx="60.9663458" cy="77.5463065" r="1"></circle>
            <circle id="Oval" fill="#3F3D56" fill-rule="nonzero" cx="60.9663458" cy="76.7105796" r="1"></circle>
            <circle id="Oval" fill="#3F3D56" fill-rule="nonzero" cx="60.9663458" cy="75.8748527" r="1"></circle>
            <circle id="Oval" fill="#3F3D56" fill-rule="nonzero" cx="60.9663458" cy="75.0391257" r="1"></circle>
            <path d="M63.7372986,72.8818468 C63.5717682,72.9060707 63.4048919,72.9235658 63.2380157,72.934332 C63.3931565,72.7989661 63.5371694,72.6513529 63.668664,72.4929175 C63.575547,72.2120512 63.439344,71.9473632 63.2649312,71.7083301 C63.0991453,71.8014565 62.91585,71.8591946 62.7266208,71.8778978 C62.5610904,71.9021218 62.3942141,71.9209627 62.2273379,71.9317289 C62.4515967,71.7183229 62.6649489,71.4937416 62.8665815,71.2588409 C61.8694764,70.3620432 60.3808981,70.2850914 59.2966354,71.074293 C58.2123728,71.8634945 57.8280616,73.3036653 58.3749706,74.5281469 C58.9218797,75.7526285 60.2508883,76.4275529 61.5622328,76.1467676 C62.8735772,75.8659824 63.8097054,74.7060466 63.8072837,73.3649804 C63.8072837,73.2011915 63.7929162,73.0377181 63.7642141,72.8764637 L63.7372986,72.8818468 Z" id="Path" fill="#AB6ACB" fill-rule="nonzero"></path>
            <path d="M65.9726326,76.2045678 C65.8018026,76.3091473 65.6094551,76.3735699 65.4100982,76.3929764 C65.2445678,76.4172004 65.0776916,76.4346955 64.9108153,76.4454617 C65.0881796,76.2863715 65.2537008,76.1145533 65.4060609,75.9313752 C64.5704112,75.7134999 63.7061555,76.167004 63.4106243,76.978448 C63.1150932,77.7898921 63.485272,78.6929821 64.2653114,79.0635472 C65.0453509,79.4341123 65.9792634,79.150543 66.4215748,78.4088283 C66.8638863,77.6671137 66.6694422,76.7106642 65.9726326,76.2005305 L65.9726326,76.2045678 Z" id="Path" fill="#AB6ACB" fill-rule="nonzero"></path>
            <circle id="Oval" fill="#3F3D56" fill-rule="nonzero" cx="59.9623969" cy="78.7171316" r="1"></circle>
            <circle id="Oval" fill="#3F3D56" fill-rule="nonzero" cx="59.2935462" cy="78.3833792" r="1"></circle>
            <circle id="Oval" fill="#3F3D56" fill-rule="nonzero" cx="58.6246955" cy="78.0482809" r="1"></circle>
            <path d="M55.9587132,76.2045678 C56.1294429,76.3093622 56.3218413,76.3738019 56.5212475,76.3929764 C56.686778,76.4172004 56.8536542,76.4346955 57.0205305,76.4454617 C56.8428317,76.2867185 56.6772857,76.1148746 56.5252849,75.9313752 C57.3609345,75.7134999 58.2251903,76.167004 58.5207215,76.978448 C58.8162526,77.7898921 58.4460738,78.6929821 57.6660343,79.0635472 C56.8859949,79.4341123 55.9520824,79.150543 55.509771,78.4088283 C55.0674595,77.6671137 55.2619036,76.7106642 55.9587132,76.2005305 L55.9587132,76.2045678 Z" id="Path" fill="#AB6ACB" fill-rule="nonzero"></path>
            <path d="M60.484558,82.72889 L62.1142927,82.72889 C63.9724217,82.72889 65.4787328,84.2352011 65.4787328,86.0933301 L65.4787328,90.5168959 C65.4787328,90.8320345 65.2232624,91.0875049 64.9081238,91.0875049 L57.6907269,91.0875049 C57.3755882,91.0875049 57.1201179,90.8320345 57.1201179,90.5168959 L57.1201179,86.0933301 C57.1201179,84.2352011 58.626429,82.72889 60.484558,82.72889 Z" id="Path" fill="#3F3D56" fill-rule="nonzero"></path>
            <g id="Group" opacity="0.1" transform="translate(58.137525, 70.518664)" fill="#000000" fill-rule="nonzero">
                <path d="M5.65091356,2.54620825 C5.58319973,2.61854526 5.51130156,2.68684852 5.43558939,2.75076621 C5.51229862,2.75076621 5.58766208,2.73865422 5.66437132,2.73057957 C5.66167976,2.66867387 5.65764244,2.60676817 5.65091356,2.54620825 Z" id="Path"></path>
                <path d="M4.43164047,1.74681729 C4.59986248,1.73605108 4.76539293,1.71855599 4.93226916,1.69433202 C5.08198614,1.67536038 5.22830487,1.63549645 5.36695481,1.57590373 C5.29888541,1.44136258 5.22060098,1.31223827 5.13278978,1.18966601 C5.04908312,1.24062701 4.95841827,1.27915957 4.86363458,1.30405697 C4.73166719,1.46292143 4.58720887,1.61097996 4.43164047,1.74681729 L4.43164047,1.74681729 Z" id="Path"></path>
                <path d="M0.320294695,3.18276031 C0.318253858,2.14340874 0.884742304,1.18615051 1.79679984,0.687746144 C2.70885738,0.189341778 3.82044731,0.229594714 4.6940668,0.792662083 L4.73713163,0.746905697 C3.97553459,0.0692715525 2.90913683,-0.148114981 1.94306067,0.177330793 C0.976984516,0.502776568 0.259493248,1.32110863 0.0631603243,2.32144431 C-0.133172599,3.32177999 0.221783951,4.35059821 0.993182711,5.01705305 C0.557944725,4.50506519 0.319382501,3.85474457 0.320294695,3.18276031 Z" id="Path"></path>
            </g>
            <g id="Group" opacity="0.1" transform="translate(63.251473, 75.767191)" fill="#000000" fill-rule="nonzero">
                <path d="M1.65934185,1.01202358 C1.82621807,1.00125737 1.9930943,0.983762279 2.15862475,0.95953831 C2.3581109,0.940740205 2.55059236,0.876272731 2.72115914,0.771129666 C3.10329587,1.05256512 3.34790239,1.48307259 3.39404715,1.95541257 C3.4005747,1.89687706 3.40372007,1.83801372 3.40346758,1.77911591 C3.40603985,1.24902093 3.15619891,0.749339054 2.73057957,0.433339882 C2.55974953,0.537919416 2.36740207,0.602342011 2.16804519,0.621748527 L2.03346758,0.637897839 C1.91862415,0.772096082 1.79354009,0.897180145 1.65934185,1.01202358 Z" id="Path"></path>
                <path d="M1.72663065,0.441414538 C1.78245073,0.442051567 1.83817984,0.446096421 1.89350688,0.453526523 C1.98098232,0.360667976 2.06711198,0.26108055 2.15458743,0.164184676 C1.653123,0.0302366735 1.11788282,0.137252656 0.706474602,0.453720519 C0.29506638,0.770188382 0.054338767,1.2600707 0.0551746364,1.77911591 C0.0551746364,1.83563851 0.0551746364,1.89081532 0.0632514735,1.94599214 C0.148973413,1.09167993 0.868028532,0.441272463 1.72663065,0.441414538 Z" id="Path"></path>
            </g>
            <g id="Group" opacity="0.1" transform="translate(55.176817, 75.767191)" fill="#000000" fill-rule="nonzero">
                <path d="M1.84371316,1.01202358 C1.67683694,1.00125737 1.50996071,0.983762279 1.34443026,0.95953831 C1.14489368,0.940978836 0.952359185,0.876493598 0.781895874,0.771129666 C0.399759141,1.05256512 0.15515262,1.48307259 0.109007859,1.95541257 C0.102480308,1.89687706 0.0993349387,1.83801372 0.0995874263,1.77911591 C0.0970151562,1.24902093 0.346856096,0.749339054 0.772475442,0.433339882 C0.943205195,0.538134351 1.13560354,0.602573988 1.33500982,0.621748527 L1.46958743,0.637897839 C1.58370546,0.772765417 1.70884558,0.897905546 1.84371316,1.01202358 Z" id="Path"></path>
                <path d="M1.77642436,0.441414538 C1.72015732,0.44205346 1.66398056,0.446098186 1.60820236,0.453526523 C1.52207269,0.360667976 1.43594303,0.26108055 1.34846758,0.164184676 C1.849932,0.0302366735 2.38517219,0.137252656 2.79658041,0.453720519 C3.20798863,0.770188382 3.44871624,1.2600707 3.44788037,1.77911591 C3.44788037,1.83563851 3.44788037,1.89081532 3.43980354,1.94599214 C3.3540816,1.09167993 2.63502648,0.441272463 1.77642436,0.441414538 Z" id="Path"></path>
            </g>
            <rect id="Rectangle" fill="#AB6ACB" fill-rule="nonzero" x="21.2780648" y="24.1768664" width="30.4145383" height="11.8428291"></rect>
            <rect id="Rectangle" stroke="#3F3D56" stroke-width="9" x="21.2780648" y="24.1768664" width="49.9282908" height="11.8428291" rx="5.92141454"></rect>
            <path d="M48.6323084,29.4644204 C48.430688,28.449164 47.6094592,27.6722042 46.5845985,27.5270939 C45.5597378,27.3819835 44.5550939,27.9004174 44.0795481,28.8197937 C43.0475044,28.9286704 42.2818486,29.8272623 42.3381817,30.8635031 C42.3945147,31.8997438 43.2530705,32.710039 44.290835,32.7064071 L48.5192633,32.7064071 C49.4188155,32.7041677 50.1464491,31.9735223 50.1449751,31.0739686 C50.1485342,30.2207452 49.4841114,29.5137616 48.6323084,29.4644204 Z M46.7630255,30.4239587 L46.7630255,31.6593811 L45.7213949,31.6593811 L45.7213949,30.4239587 L44.6165128,30.4239587 L46.2422102,28.7969155 L47.8679077,30.4239587 L46.7630255,30.4239587 Z" id="Shape" fill="#FFFFFF" fill-rule="nonzero"></path>
        </g>
    </g>
</svg>