<?xml version="1.0" encoding="UTF-8"?>
<svg width="137px" height="137px" viewBox="0 0 137 137" version="1.1" xmlns="http://www.w3.org/2000/svg" xmlns:xlink="http://www.w3.org/1999/xlink">
    <title>nature_run_illustration</title>
    <g id="nature_run_illustration" stroke="none" stroke-width="1" fill="none" fill-rule="evenodd">
        <g id="undraw_buy_house_560d-(5)" transform="translate(-765.000000, 87.000000)"></g>
        <g id="undraw_nature_fun_n9lv-(1)" transform="translate(0.000000, 19.000000)" fill-rule="nonzero">
            <circle id="Oval" fill="#AB6ACB" cx="55.1038249" cy="22.2006095" r="9.64524588"></circle>
            <polyline id="Path" fill="#F2F2F2" points="43.2714641 62.2569353 31.9418172 51.0935452 29.132192 48.3249918 20.7462166 40.062232 10.3508142 51.1595133 0 62.2105185"></polyline>
            <polygon id="Path" fill="#F2F2F2" points="99.066191 62.3243101 22.4643429 62.3243101 31.9418172 52.0507166 49.4522177 31.5119692 50.6323306 30.1279035 66.4717248 11.5485092 77.4317248 28.907 77.7186653 29.3613224 91.6620021 51.4416715"></polygon>
            <polyline id="Path" fill="#F2F2F2" points="137 62.2569353 118.079231 39.9318429 108.80374 28.9880185 99.838961 40.228348 91.6620021 50.4843593 82.3097125 62.2105185"></polyline>
            <polygon id="Path" fill="#000000" opacity="0.1" points="29.132192 48.3249918 24.1398501 51.6722084 18.245615 49.3502413 10.3508142 51.1595133 20.7462166 40.062232"></polygon>
            <polygon id="Path" fill="#000000" opacity="0.1" points="77.4317248 28.907 75.7593121 31.8453265 72.0093943 27.9167741 67.9008008 31.8453265 65.5785524 27.3808706 61.8272279 31.8453265 60.7554209 28.9885811 58.2559446 31.8453265 53.7900821 28.9885811 50.6323306 30.1279035 66.4717248 11.5485092"></polygon>
            <polygon id="Path" fill="#000000" opacity="0.1" points="118.079231 39.9318429 113.447675 45.5991982 109.696772 41.1338984 103.981171 45.7778326 99.838961 40.228348 108.80374 28.9880185"></polygon>
            <path d="M118.136291,62.4732842 L117.886296,62.344161 C121.132943,56.0674793 119.396849,47.9162325 117.368859,42.1834998 C115.991794,38.3302586 114.235374,34.6233363 112.125468,31.1173304 L112.363238,30.967058 C114.484099,34.4908843 116.249676,38.2166719 117.633964,42.0895451 C119.680634,47.8747583 121.428958,56.1073148 118.136291,62.4732842 Z" id="Path" fill="#2F2E41"></path>
            <polygon id="Rectangle" fill="#2F2E41" transform="translate(119.770011, 36.036225) rotate(-79.644778) translate(-119.770011, -36.036225) " points="114.693685 35.8956131 124.846337 35.8956131 124.846337 36.1768366 114.693685 36.1768366"></polygon>
            <polygon id="Rectangle" fill="#2F2E41" transform="translate(113.017968, 44.685934) rotate(-42.939680) translate(-113.017968, -44.685934) " points="112.87726 37.7690231 113.158675 37.7690231 113.158675 51.6028456 112.87726 51.6028456"></polygon>
            <polygon id="Rectangle" fill="#2F2E41" transform="translate(123.074950, 54.039631) rotate(-54.137150) translate(-123.074950, -54.039631) " points="118.995288 53.8989517 127.154611 53.8989517 127.154611 54.1803095 118.995288 54.1803095"></polygon>
            <circle id="Oval" fill="#AB6ACB" cx="121.387064" cy="26.9631388" r="1.40657084"></circle>
            <circle id="Oval" fill="#3F3D56" cx="106.055441" cy="37.7937343" r="1.40657084"></circle>
            <circle id="Oval" fill="#3F3D56" cx="112.244353" cy="39.2003051" r="1.40657084"></circle>
            <circle id="Oval" fill="#AB6ACB" cx="109.431211" cy="44.6859314" r="1.40657084"></circle>
            <circle id="Oval" fill="#3F3D56" cx="127.013347" cy="48.2023585" r="1.40657084"></circle>
            <circle id="Oval" fill="#3F3D56" cx="122.371663" cy="49.7495864" r="1.40657084"></circle>
            <circle id="Oval" fill="#3F3D56" cx="125.606776" cy="54.2506131" r="1.40657084"></circle>
            <circle id="Oval" fill="#3F3D56" cx="110.837782" cy="28.6510238" r="1.40657084"></circle>
            <path d="M83.1126774,62.19197 L82.8626819,62.0628468 C86.1093288,55.7861651 84.3732349,47.6349183 82.3452453,41.9021856 C80.9681798,38.0489444 79.2117597,34.3420221 77.1018544,30.8360163 L77.339624,30.6857439 C79.4604847,34.2095701 81.2260616,37.9353577 82.6103502,41.8082309 C84.6570205,47.5934441 86.4053444,55.8260006 83.1126774,62.19197 Z" id="Path" fill="#2F2E41"></path>
            <polygon id="Rectangle" fill="#2F2E41" transform="translate(84.746223, 35.754795) rotate(-79.644778) translate(-84.746223, -35.754795) " points="79.6698969 35.6141836 89.8225484 35.6141836 89.8225484 35.8954071 79.6698969 35.8954071"></polygon>
            <polygon id="Rectangle" fill="#2F2E41" transform="translate(77.994354, 44.404620) rotate(-42.939680) translate(-77.994354, -44.404620) " points="77.8536463 37.4877083 78.1350618 37.4877083 78.1350618 51.3215309 77.8536463 51.3215309"></polygon>
            <polygon id="Rectangle" fill="#2F2E41" transform="translate(88.051336, 53.758317) rotate(-54.137150) translate(-88.051336, -53.758317) " points="83.9716743 53.6176378 92.1309976 53.6176378 92.1309976 53.8989955 83.9716743 53.8989955"></polygon>
            <circle id="Oval" fill="#3F3D56" cx="86.3634497" cy="26.6818246" r="1.40657084"></circle>
            <circle id="Oval" fill="#3F3D56" cx="71.0318275" cy="37.5124201" r="1.40657084"></circle>
            <circle id="Oval" fill="#3F3D56" cx="77.2207392" cy="38.9189909" r="1.40657084"></circle>
            <circle id="Oval" fill="#3F3D56" cx="74.4075975" cy="44.4046172" r="1.40657084"></circle>
            <circle id="Oval" fill="#AB6ACB" cx="91.9897331" cy="47.9210443" r="1.40657084"></circle>
            <circle id="Oval" fill="#3F3D56" cx="87.3480493" cy="49.4682723" r="1.40657084"></circle>
            <circle id="Oval" fill="#3F3D56" cx="90.5831622" cy="53.969299" r="1.40657084"></circle>
            <circle id="Oval" fill="#3F3D56" cx="75.8141684" cy="28.3697096" r="1.40657084"></circle>
            <path d="M24.3493349,62.19197 L24.5993304,62.0628468 C21.3526836,55.7861651 23.0887774,47.6349183 25.116767,41.9021856 C26.4938325,38.0489444 28.2502526,34.3420221 30.3601579,30.8360163 L30.1223883,30.6857439 C28.0015276,34.2095701 26.2359507,37.9353577 24.8516622,41.8082309 C22.8049919,47.5934441 21.0566679,55.8260006 24.3493349,62.19197 Z" id="Path" fill="#2F2E41"></path>
            <polygon id="Rectangle" fill="#2F2E41" transform="translate(22.716121, 35.754207) rotate(-10.354910) translate(-22.716121, -35.754207) " points="22.5755091 30.6778692 22.8567333 30.6778692 22.8567333 40.830544 22.5755091 40.830544"></polygon>
            <polygon id="Rectangle" fill="#2F2E41" transform="translate(29.467658, 44.404617) rotate(-47.060320) translate(-29.467658, -44.404617) " points="22.5507472 44.2639091 36.3845697 44.2639091 36.3845697 44.5453245 22.5507472 44.5453245"></polygon>
            <polygon id="Rectangle" fill="#2F2E41" transform="translate(19.410678, 53.758312) rotate(-35.862850) translate(-19.410678, -53.758312) " points="19.2699996 49.6786504 19.5513574 49.6786504 19.5513574 57.8379737 19.2699996 57.8379737"></polygon>
            <circle id="Oval" fill="#3F3D56" cx="21.0985626" cy="26.6818246" r="1.40657084"></circle>
            <circle id="Oval" fill="#3F3D56" cx="36.4301848" cy="37.5124201" r="1.40657084"></circle>
            <circle id="Oval" fill="#3F3D56" cx="30.2412731" cy="38.9189909" r="1.40657084"></circle>
            <circle id="Oval" fill="#3F3D56" cx="33.0544148" cy="44.4046172" r="1.40657084"></circle>
            <circle id="Oval" fill="#3F3D56" cx="15.4722793" cy="47.9210443" r="1.40657084"></circle>
            <circle id="Oval" fill="#3F3D56" cx="20.113963" cy="49.4682723" r="1.40657084"></circle>
            <circle id="Oval" fill="#AB6ACB" cx="16.8788501" cy="53.969299" r="1.40657084"></circle>
            <circle id="Oval" fill="#3F3D56" cx="31.6478439" cy="28.3697096" r="1.40657084"></circle>
            <rect id="Rectangle" fill="#2F2E41" x="0" y="62.1274098" width="137" height="1"></rect>
            <path d="M31.5905965,62.0659497 C31.5905965,62.0659497 29.3231115,63.2869024 29.2358999,64.3334348 C29.1486883,65.3799671 27.8405253,67.9962943 27.8405253,67.9962943 C27.8405253,67.9962943 22.6950796,66.5137082 22.607868,66.4264966 C22.5206564,66.3392849 22.1718128,67.9962943 22.1718128,67.9962943 L24.0032439,68.2579278 L27.4044729,69.4788805 C27.4044729,69.4788805 28.1893718,70.612623 29.4975361,69.0428252 C30.8057004,67.4730275 34.1197164,64.0718013 34.1197164,64.0718013 L31.5905965,62.0659497 Z" id="Path" fill="#2F2E41"></path>
            <path d="M31.1545427,66.3392864 C31.1545427,66.3392864 34.0325048,69.1300368 33.9452932,69.7405153 C33.8580815,70.3509938 32.5499186,75.3220149 32.5499186,75.3220149 L33.5964495,75.8452817 L34.2941368,75.4092265 L35.6895127,69.3916703 C35.6895127,69.3916703 36.2147727,68.6546581 35.2108496,67.8022115 C34.2069266,66.9497648 33.5092379,63.9845925 33.5092379,63.9845925 L31.1545427,66.3392864 Z" id="Path" fill="#2F2E41"></path>
            <g id="Group-2" transform="translate(35.250636, 60.187583) rotate(-22.000000) translate(-35.250636, -60.187583) translate(29.750636, 56.187583)">
                <circle id="Oval" fill="#A0616A" cx="8.25878841" cy="2.01651494" r="1.48258615"></circle>
                <path d="M7.25586823,1.79848802 C7.25586823,1.79848802 5.77328208,1.10080075 5.59886027,1.27522257 C5.42443845,1.44964439 5.94770531,3.5427076 5.94770531,3.5427076 C5.94770531,3.5427076 7.34307985,2.75780872 7.51750166,2.75780872 C7.69192348,2.75780872 7.25586823,1.79848802 7.25586823,1.79848802 Z" id="Path" fill="#A0616A"></path>
                <path d="M6.38375211,2.75780872 C6.38375211,2.75780872 5.94769827,1.01358914 5.77327505,1.01358914 C5.59885183,1.01358914 3.94184527,1.27522257 2.89531436,2.49617529 C1.84878346,3.71712801 0.715040944,4.41481387 0.366202936,4.67644871 C0.0173649276,4.93808355 -0.244274128,5.19971557 0.366202936,5.46134759 C0.976679999,5.72297961 1.67436727,6.42066829 1.93599929,6.85672354 C2.19763131,7.29277878 3.94185089,6.76951614 3.94185089,6.76951614 C3.94185089,6.76951614 4.72674977,5.28692999 4.9883832,5.28692999 C5.25001663,5.28692999 6.64538554,3.28107417 6.38375211,2.75780872 Z" id="Path" fill="#AB6ACB"></path>
                <path d="M9.97832408,1.98974509 C10.0182563,1.88244466 10.0325542,1.76729552 10.0200767,1.65348745 C10.0119552,1.4029589 9.99462904,1.12888997 9.82429754,0.944997715 C9.73702966,0.85078138 9.61440903,0.787119984 9.55289266,0.674390364 C9.52058561,0.595420531 9.49428722,0.514124092 9.47422174,0.431194265 C9.38635694,0.230281007 9.20680623,0.0842215431 8.99221383,0.0390943574 C8.78048893,-0.00334439068 8.56329771,-0.011294095 8.34903681,0.0155525813 C8.04166637,0.021690703 7.73709232,0.0753104013 7.44610553,0.174511965 C7.15179012,0.277583527 6.92171656,0.511019528 6.82292573,0.806799316 C6.79721516,0.920679488 6.78498078,1.03718726 6.78647445,1.15392412 L6.7737281,1.63950895 C6.87338395,1.72729826 7.01752579,1.74281296 7.13358096,1.67824169 C7.25181309,1.62572033 7.35197359,1.53747208 7.47203004,1.48926749 C7.59083888,1.4291705 7.73511051,1.45532086 7.8252678,1.55329459 C7.84883856,1.59634038 7.86939203,1.64097083 7.88677996,1.68686397 C8.12614596,2.16347346 8.76929486,1.65622463 9.10339622,1.66352474 C9.40232769,1.67005545 9.75926614,2.45955944 9.97832408,1.98974509 Z" id="Path" fill="#2F2E41"></path>
            </g>
            <g id="Group" transform="translate(38.672791, 61.419408) rotate(-67.000000) translate(-38.672791, -61.419408) translate(36.672791, 55.919408)">
                <path d="M1.22095272,2.09306181 C1.22095272,2.09306181 3.4283687e-12,3.75006977 3.4283687e-12,4.9710239 C3.4283687e-12,6.19197803 0.697687269,8.19782822 0.697687269,8.19782822 C0.697687269,8.19782822 1.30816433,11.1630005 1.83142978,10.1164696 C2.35469524,9.06993872 1.48258615,7.67456277 1.48258615,7.67456277 L1.13374252,4.53496866 L1.83142978,2.87796069 L1.22095272,2.09306181 Z" id="Path" fill="#A0616A"></path>
                <path d="M3.57564936,1.66267e-12 C3.57564936,1.66267e-12 3.16106683,2.09939419 2.71427663,2.48867814 C2.26748644,2.87796209 2.16241982,3.25507218 1.86611441,3.37175426 C1.56980901,3.48843634 0.523271078,2.26748362 0.523271078,2.18027342 C0.523271078,2.09306321 3.57564936,1.66267e-12 3.57564936,1.66267e-12 Z" id="Path" fill="#AB6ACB"></path>
            </g>
            <g id="Group-Copy" transform="translate(29.511665, 58.706468) rotate(27.000000) translate(-29.511665, -58.706468) translate(25.011665, 53.206468)">
                <path d="M3.67181761,2.61431504 C3.67181761,2.61431504 2.45086489,4.27132301 2.45086489,5.49227713 C2.45086489,6.71323126 3.14855216,8.71908146 3.14855216,8.71908146 C3.14855216,8.71908146 3.75902922,11.6842538 4.28229468,10.6377229 C4.80556013,9.59119195 3.93345104,8.195816 3.93345104,8.195816 L3.58460741,5.05622189 L4.28229468,3.39921392 L3.67181761,2.61431504 Z" id="Path" fill="#A0616A" transform="translate(3.450178, 6.737867) rotate(29.000000) translate(-3.450178, -6.737867) "></path>
                <path d="M7.95885951,1.37055438 C7.95885951,1.37055438 8.03811872,3.84905486 7.59132852,4.23833882 C7.14453833,4.62762277 7.03947171,5.00473285 6.74316631,5.12141493 C6.44686091,5.23809702 5.40032297,4.0171443 5.40032297,3.92993409 C5.40032297,3.84272389 7.95885951,1.37055438 7.95885951,1.37055438 Z" id="Path" fill="#AB6ACB" transform="translate(6.682309, 3.249911) rotate(29.000000) translate(-6.682309, -3.249911) "></path>
            </g>
            <path d="M22.8825614,66.5270987 C22.8825614,66.5270987 21.9101821,65.8160209 21.8229705,66.0776529 C21.7357589,66.3392849 20.427596,69.3044587 20.8636512,69.4788819 C21.2997065,69.6533051 22.6078694,67.9090841 22.695081,67.9090841 C22.7822926,67.9090841 22.6339894,66.4532791 22.8825614,66.5270987 Z" id="Path" fill="#2F2E41"></path>
            <path d="M34.119715,74.8859596 C34.119715,74.8859596 35.4278793,75.5836469 35.6895127,75.5836469 C35.9511462,75.5836469 36.4744102,75.9324905 35.8639275,76.1069123 C35.2534448,76.2813342 32.549906,76.5429676 32.4626986,76.2813271 C32.3754912,76.0196867 32.4626986,75.3220064 32.4626986,75.3220064 C32.4626986,75.3220064 34.119715,75.1475916 34.119715,74.8859596 Z" id="Path" fill="#2F2E41"></path>
            <rect id="Rectangle" fill="#2F2E41" x="24.0523614" y="77.7403462" width="21.9425051" height="1"></rect>
            <rect id="Rectangle" fill="#2F2E41" x="81.0184805" y="91.9467117" width="9.00205339" height="1"></rect>
            <rect id="Rectangle" fill="#2F2E41" x="24.8963039" y="89.5555413" width="9.00205339" height="1"></rect>
            <rect id="Rectangle" fill="#2F2E41" x="74.8882214" y="69.7228924" width="38.70405" height="1"></rect>
            <path d="M31.1488179,11.3060417 C29.6132595,9.76436403 27.3988617,9.10980369 25.2718987,9.56886593 C23.1449357,10.0279282 21.3976315,11.5375423 20.6346263,13.5753187 L32.3736697,13.0314076 C32.0642734,12.3921148 31.6502966,11.8089737 31.1488179,11.3060417 Z" id="Path" fill="#F2F2F2"></path>
            <path d="M56.4670931,1.8820171 C54.9315346,0.340339386 52.7171369,-0.314220948 50.5901739,0.144841289 C48.4632108,0.603903525 46.7159067,2.11351762 45.9529015,4.15129411 L57.6919448,3.60738301 C57.3825485,2.96809013 56.9685718,2.38494907 56.4670931,1.8820171 Z" id="Path" fill="#F2F2F2"></path>
            <path d="M101.055389,25.3717502 C99.5198303,23.8300724 97.3054326,23.1755121 95.1784696,23.6345743 C93.0515065,24.0936366 91.3042023,25.6032507 90.5411972,27.6410272 L102.280241,27.0971161 C101.970844,26.4578232 101.556867,25.8746821 101.055389,25.3717502 L101.055389,25.3717502 Z" id="Path" fill="#F2F2F2"></path>
            <rect id="Rectangle" fill="#2F2E41" x="95.5061602" y="87.5863421" width="21.2392197" height="1"></rect>
        </g>
    </g>
</svg>