<?xml version="1.0" encoding="UTF-8"?>
<svg width="137px" height="137px" viewBox="0 0 137 137" version="1.1" xmlns="http://www.w3.org/2000/svg" xmlns:xlink="http://www.w3.org/1999/xlink">
    <title>settings_illustration</title>
    <defs>
        <linearGradient x1="49.9691814%" y1="100.009159%" x2="49.9691814%" y2="0.032662489%" id="linearGradient-1">
            <stop stop-color="#808080" stop-opacity="0.25" offset="0%"></stop>
            <stop stop-color="#808080" stop-opacity="0.12" offset="54%"></stop>
            <stop stop-color="#808080" stop-opacity="0.1" offset="100%"></stop>
        </linearGradient>
    </defs>
    <g id="settings_illustration" stroke="none" stroke-width="1" fill="none" fill-rule="evenodd">
        <g id="undraw_buy_house_560d-(5)" transform="translate(-765.000000, 87.000000)"></g>
        <g id="undraw_personal_settings_kihd" transform="translate(0.000000, 27.000000)">
            <path d="M137.000085,49.7355507 C137.007397,53.6989436 135.925318,57.5881298 133.871993,60.9781731 C133.871993,65.1240997 131.939143,68.8820192 128.803951,71.6208217 C128.019149,72.3053719 127.174252,72.9178022 126.27951,73.4506818 C126.243584,73.4734353 126.20646,73.4949913 126.169336,73.5165472 C126.102273,73.5560664 126.03521,73.5955857 125.966949,73.6363024 L125.903479,73.6734266 L125.903479,73.6734266 C122.93489,75.3269206 119.589289,76.1849786 116.191329,76.1646995 L26.0072465,76.1646995 C25.288715,76.1646995 24.5765705,76.1355944 23.8708129,76.0781119 C21.3627277,75.8805735 18.8981648,75.3098411 16.5585577,74.3847727 C16.101891,74.2043415 15.6540064,74.010338 15.2149038,73.8027622 C15.0057314,73.7045629 14.7985548,73.6035693 14.5933741,73.4997815 C14.465236,73.4351136 14.3370979,73.3680507 14.2101573,73.3009878 C12.7347764,72.5235114 11.3506439,71.5840205 10.0833916,70.4999126 C6.01171329,66.9994668 3.48727273,62.16375 3.48727273,56.8226661 C1.20323464,53.3055872 -0.00841139433,49.2000545 -4.34988114e-05,45.0064161 C-4.34988114e-05,33.1338811 9.48940559,23.5091521 21.1966783,23.5091521 C21.5559441,23.5091521 21.9152098,23.5199301 22.2744755,23.5390909 C22.3259703,23.5390909 22.3762675,23.5390909 22.4277622,23.5462762 C24.4013287,20.1823514 27.0395367,17.0914685 30.2118531,14.3706294 C38.862972,6.95777972 51.5067308,2.28493007 65.5911451,2.28493007 C77.4253584,2.28493007 88.2428497,5.58418706 96.528715,11.0354458 C99.6685283,9.26053702 103.21492,8.33009915 106.821678,8.33496503 C118.526556,8.33496503 128.018357,17.9596941 128.018357,29.832229 C128.016614,30.5834429 127.976644,31.3340815 127.898601,32.0812325 C133.624384,36.1344303 137.019664,42.7203805 137.000085,49.7355507 Z" id="Path" fill="#AB6ACB" fill-rule="nonzero" opacity="0.1"></path>
            <g id="Group" opacity="0.2" transform="translate(9.460664, 41.914336)" fill-rule="nonzero">
                <path d="M7.10986888,32.3087675 C7.10986888,32.3638549 7.10388112,32.4177448 7.09789336,32.4704371 C6.64122669,32.2900058 6.19334207,32.0960023 5.75423951,31.8884266 C5.51966678,31.8575784 5.30150463,31.7512296 5.13270979,31.5854458 C5.00457168,31.520778 4.87643357,31.453715 4.74949301,31.3866521 C4.77823686,31.3264506 4.8106311,31.268061 4.84649476,31.2118094 C5.09319056,30.8214073 5.46802448,30.5771066 5.88118007,30.5902797 C6.29433566,30.6034528 6.65240385,30.870507 6.87395105,31.2740822 C7.0433898,31.5917913 7.1248393,31.9490114 7.10986888,32.3087675 L7.10986888,32.3087675 Z" id="Path" fill="#3F3D56"></path>
                <path d="M7.17453671,30.2585577 C7.1663724,30.6177637 7.06261614,30.9683027 6.87395105,31.2740822 C6.62725524,31.6632867 6.25242133,31.9075874 5.83926573,31.8944143 L5.75423951,31.8884266 C5.51966678,31.8575784 5.30150463,31.7512296 5.13270979,31.5854458 C5.01824447,31.4767314 4.9216515,31.3506352 4.84649476,31.2118094 C4.51045026,30.5635706 4.53493316,29.7873719 4.91116259,29.1615997 C5.15785839,28.7711976 5.53269231,28.5268969 5.9458479,28.5400699 C6.3590035,28.553243 6.71707168,28.8202972 6.93861888,29.2238724 C7.10805763,29.5415815 7.18950713,29.8988016 7.17453671,30.2585577 Z" id="Path" fill="#3F3D56"></path>
                <ellipse id="Oval" fill="#3F3D56" transform="translate(5.958854, 28.171498) rotate(-88.190000) translate(-5.958854, -28.171498) " cx="5.95885396" cy="28.1714983" rx="1.67777098" ry="1.28138112"></ellipse>
                <ellipse id="Oval" fill="#3F3D56" transform="translate(6.022995, 26.121232) rotate(-88.190000) translate(-6.022995, -26.121232) " cx="6.02299461" cy="26.1212323" rx="1.67777098" ry="1.28138112"></ellipse>
                <ellipse id="Oval" fill="#3F3D56" transform="translate(6.097326, 23.937768) rotate(-88.281642) translate(-6.097326, -23.937768) " cx="6.09732631" cy="23.9377681" rx="1.67852581" ry="1.28195761"></ellipse>
                <path d="M1.73285839,9.88579545 C1.56421411,9.65745278 1.41213532,9.41732837 1.27778846,9.16726399 L4.66207168,8.72057692 L1.01911713,8.63315559 C0.362091274,7.07471402 0.3755178,5.31453973 1.05624126,3.76630245 L5.86082168,6.45480769 L1.45981643,2.99986888 C2.67000231,1.04253159 4.87294155,-0.073941884 7.16702901,0.107391727 C9.46111646,0.288725338 11.4612941,1.73742955 12.3489417,3.86058777 C13.2365893,5.98374599 12.862717,8.42499032 11.3803409,10.1851836 C11.6423949,10.5405255 11.8652385,10.9231741 12.0449825,11.326451 L7.60326049,13.459292 L12.3132343,12.0425874 C12.9158384,14.0309313 12.4734799,16.1891181 11.1372378,17.7800612 C13.0377737,20.3586579 12.6370363,23.9649645 10.2167795,26.0634293 C7.79652263,28.1618941 4.16982139,28.0475468 1.88656652,25.8007836 C-0.396688361,23.5540203 -0.569446961,19.9296319 1.48975524,17.4758829 C-0.191742226,15.1938016 -0.0927683761,12.0573203 1.72926573,9.88579545 L1.73285839,9.88579545 Z" id="Path" fill="#AB6ACB"></path>
                <path d="M12.57433,14.0269318 C12.531824,15.4041551 12.0254391,16.7266636 11.1372378,17.7800612 C13.0377737,20.3586579 12.6370363,23.9649645 10.2167795,26.0634293 C7.79652263,28.1618941 4.16982139,28.0475468 1.88656652,25.8007836 C-0.396688361,23.5540203 -0.569446961,19.9296319 1.48975524,17.4758829 C0.702963287,16.4064685 12.5958566,13.3371416 12.57433,14.0269318 Z" id="Path" fill="#000000" opacity="0.1"></path>
            </g>
            <path d="M114.725524,16.5753234 L114.725524,73.9596416 C114.725524,75.1772605 113.738449,76.1643372 112.52083,76.1643372 L24.4791696,76.1643372 C24.2733219,76.1643372 24.0684857,76.135547 23.8708129,76.0781119 C22.9251722,75.8078931 22.2735463,74.9431322 22.2744745,73.9596416 L22.2744745,48.3511801 C22.2744745,48.2206469 22.2744745,48.0913112 22.2744745,47.9619755 L22.2744745,23.5390909 C22.3259703,23.5390909 22.3762675,23.5390909 22.4277622,23.5462762 C24.4013287,20.1823514 27.0395367,17.0914685 30.2118531,14.3706294 L112.52083,14.3706294 C113.738449,14.3706294 114.725524,15.3577045 114.725524,16.5753234 Z" id="Path" fill="#FFFFFF" fill-rule="nonzero"></path>
            <rect id="Rectangle" fill="#3F3D56" fill-rule="nonzero" x="85.2860927" y="21.8229983" width="16.5058654" height="4.3063986" rx="2.1531993"></rect>
            <rect id="Rectangle" fill="#000000" fill-rule="nonzero" opacity="0.1" x="86.3614948" y="22.5427273" width="14.3538636" height="2.86574301" rx="1.4328715"></rect>
            <rect id="Rectangle" fill="#AB6ACB" fill-rule="nonzero" x="95.1730857" y="22.6996066" width="5.18300699" height="2.55198427" rx="1.27599213"></rect>
            <circle id="Oval" fill="#FFFFFF" fill-rule="nonzero" cx="97.7250699" cy="23.9761976" r="1"></circle>
            <rect id="Rectangle" fill="#3F3D56" fill-rule="nonzero" x="85.2860927" y="50.210979" width="16.5058654" height="4.3063986" rx="2.1531993"></rect>
            <rect id="Rectangle" fill="#000000" fill-rule="nonzero" opacity="0.1" x="86.3614948" y="50.930708" width="14.3538636" height="2.86574301" rx="1.4328715"></rect>
            <rect id="Rectangle" fill="#AB6ACB" fill-rule="nonzero" x="95.1730857" y="51.0875874" width="5.18300699" height="2.55198427" rx="1.27599213"></rect>
            <circle id="Oval" fill="#FFFFFF" fill-rule="nonzero" cx="97.7250699" cy="52.3641783" r="1"></circle>
            <rect id="Rectangle" fill="#3F3D56" fill-rule="nonzero" x="85.2860927" y="64.4043706" width="16.5058654" height="4.3063986" rx="2.1531993"></rect>
            <rect id="Rectangle" fill="#000000" fill-rule="nonzero" opacity="0.1" x="86.3614948" y="65.1252972" width="14.3538636" height="2.86574301" rx="1.4328715"></rect>
            <rect id="Rectangle" fill="#AB6ACB" fill-rule="nonzero" x="95.1730857" y="65.2821766" width="5.18300699" height="2.55198427" rx="1.27599213"></rect>
            <circle id="Oval" fill="#FFFFFF" fill-rule="nonzero" cx="97.7250699" cy="66.5575699" r="1"></circle>
            <rect id="Rectangle" fill="#AB6ACB" fill-rule="nonzero" x="35.208042" y="19.1117395" width="9.64868007" height="2.55198427" rx="1.27599213"></rect>
            <rect id="Rectangle" fill="#AB6ACB" fill-rule="nonzero" x="35.208042" y="22.6996066" width="26.7928409" height="2.55198427" rx="1.27599213"></rect>
            <rect id="Rectangle" fill="#AB6ACB" fill-rule="nonzero" x="35.208042" y="26.2886713" width="26.7928409" height="2.55198427" rx="1.27599213"></rect>
            <g id="Group" opacity="0.5" transform="translate(35.208042, 33.291958)" fill="#AB6ACB" fill-rule="nonzero">
                <rect id="Rectangle" x="0" y="0.0131730769" width="9.64868007" height="2.55198427" rx="1.27599213"></rect>
                <rect id="Rectangle" x="0" y="3.60223776" width="19.9991259" height="2.55198427" rx="1.27599213"></rect>
                <rect id="Rectangle" x="0" y="7.1901049" width="26.7928409" height="2.55198427" rx="1.27599213"></rect>
            </g>
            <rect id="Rectangle" fill="#AB6ACB" fill-rule="nonzero" x="35.208042" y="47.4997203" width="9.64868007" height="2.55198427" rx="1.27599213"></rect>
            <rect id="Rectangle" fill="#AB6ACB" fill-rule="nonzero" x="35.208042" y="51.0875874" width="26.7928409" height="2.55198427" rx="1.27599213"></rect>
            <rect id="Rectangle" fill="#AB6ACB" fill-rule="nonzero" x="35.208042" y="54.6766521" width="16.645979" height="2.55198427" rx="1.27599213"></rect>
            <rect id="Rectangle" fill="#AB6ACB" fill-rule="nonzero" x="35.208042" y="61.6931119" width="9.64868007" height="2.55198427" rx="1.27599213"></rect>
            <rect id="Rectangle" fill="#AB6ACB" fill-rule="nonzero" x="35.208042" y="65.2821766" width="26.7928409" height="2.55198427" rx="1.27599213"></rect>
            <rect id="Rectangle" fill="#AB6ACB" fill-rule="nonzero" x="35.208042" y="68.8700437" width="21.5559441" height="2.55198427" rx="1.27599213"></rect>
            <line x1="31.1363636" y1="31.1351661" x2="109.216783" y2="31.1351661" id="Path" stroke="#3F3D56" opacity="0.7" stroke-linecap="round"></line>
            <line x1="31.1363636" y1="45.5656731" x2="109.216783" y2="45.5656731" id="Path" stroke="#3F3D56" opacity="0.7" stroke-linecap="round"></line>
            <line x1="31.1363636" y1="59.9961801" x2="109.216783" y2="59.9961801" id="Path" stroke="#3F3D56" opacity="0.7" stroke-linecap="round"></line>
            <line x1="31.1363636" y1="74.7859528" x2="109.216783" y2="74.7859528" id="Path" stroke="#3F3D56" opacity="0.7" stroke-linecap="round"></line>
            <ellipse id="Oval" fill="#AB6ACB" fill-rule="nonzero" opacity="0.1" cx="95.2054196" cy="82.3305332" rx="17.6854545" ry="1.25743007"></ellipse>
            <circle id="Oval" fill="#AB6ACB" fill-rule="nonzero" opacity="0.1" cx="8.44513986" cy="16.9070455" r="2.59030594"></circle>
            <circle id="Oval" fill="#AB6ACB" fill-rule="nonzero" opacity="0.1" cx="19.2410752" cy="2.59030594" r="2.59030594"></circle>
            <circle id="Oval" fill="#AB6ACB" fill-rule="nonzero" opacity="0.1" cx="18.3632692" cy="12.4258042" r="4.34112762"></circle>
            <rect id="Rectangle" fill="#3F3D56" fill-rule="nonzero" x="85.2860927" y="36.0163899" width="16.5058654" height="4.3063986" rx="2.1531993"></rect>
            <rect id="Rectangle" fill="#000000" fill-rule="nonzero" opacity="0.1" x="86.3614948" y="36.7373164" width="14.3538636" height="2.86574301" rx="1.4328715"></rect>
            <path d="M86.8429108,79.1582168 C87.0309266,79.1306731 87.2189423,79.0923514 87.4033654,79.0492395 C87.3792634,79.2337514 87.3259015,79.4132415 87.2452885,79.5809528 C87.0620629,79.928243 86.7039948,80.1378147 86.3746678,80.350979 C86.28111,80.2635396 86.1389345,80.2540279 86.0345629,80.3282255 C85.6381731,80.567736 85.3220192,80.9054458 84.9016783,81.1114248 C84.7543794,81.183278 84.6010927,81.2407605 84.4573864,81.3209965 C84.1087277,81.5334397 83.820164,81.8314847 83.6190997,82.1868269 C83.4993444,82.3724476 83.4023427,82.6167483 83.5197028,82.8011713 C83.564715,82.8635745 83.6227345,82.9154652 83.6897552,82.9532605 C83.8604258,83.0723538 84.0649454,83.1332477 84.2729633,83.1273552 C84.3927185,83.1161276 84.5124738,83.0706206 84.643007,83.0502622 C84.8070717,83.021521 84.974729,83.0358916 85.1399913,83.021521 C85.3797299,82.9905739 85.614669,82.9298277 85.8393619,82.8406906 L86.6620804,82.553278 C86.8944227,82.4781887 87.1206317,82.3853029 87.3386976,82.2754458 C87.4692308,82.2047902 87.5925787,82.1221591 87.725507,82.0574913 C87.8750734,81.9911407 88.0296371,81.936683 88.1877622,81.8946241 L88.6548077,81.7581031 C88.7219047,81.7324123 88.7941313,81.7229736 88.8655769,81.7305594 C88.9302448,81.742535 88.9853322,81.7832517 89.0511976,81.8000175 C89.1517483,81.8178936 89.2552723,81.8079553 89.3505857,81.7712762 L89.8918794,81.6179895 C90.0061651,81.5921109 90.115139,81.5467389 90.214021,81.4838636 C90.4619143,81.3078234 90.5062238,80.9581381 90.5050262,80.6527622 C90.5037994,80.1901709 90.4515902,79.7291239 90.3493444,79.277972 C90.2800467,79.3061194 90.219346,79.3519546 90.1733042,79.4109003 C90.1180377,79.3329919 90.0584667,79.2582282 89.9948689,79.186958 C89.7455066,78.8969313 89.5613235,78.5567441 89.4547727,78.1893969 C89.6502632,78.0441447 89.8133938,77.8598072 89.9337937,77.6481031 C89.6475787,76.5571329 89.3541783,75.4493969 88.7721678,74.4865647 C88.581757,74.1728059 88.3638024,73.878208 88.1733916,73.5692395 C87.6069493,72.6710752 87.4907867,71.5334003 86.8429108,70.6951136 C86.7166526,70.5207699 86.7166526,70.2850517 86.8429108,70.110708 C86.9171591,70.0125087 87.0369143,69.9202972 87.0141608,69.7981469 C86.9973951,69.7107255 86.9063811,69.6304895 86.9411101,69.5490559 C86.9578759,69.5095367 86.9985927,69.4879808 87.029729,69.4592395 C87.1399038,69.35625 87.1255332,69.1826049 87.1363112,69.0317133 C87.1602622,68.6508916 87.3865997,68.3131818 87.6045542,68.0066084 C87.6487415,67.933262 87.707419,67.8696947 87.7770017,67.8197902 C87.8356818,67.7838636 87.9051399,67.7670979 87.9638199,67.7311713 C88.169799,67.6006381 88.1554283,67.2976573 88.2536276,67.0725175 C88.3829633,66.7755245 88.7086976,66.6258304 88.9218619,66.3851224 C89.1937063,66.078549 89.2631643,65.6522203 89.5493794,65.3851661 C89.5787382,65.3570426 89.6103826,65.3314067 89.643986,65.3085227 C89.5198289,65.7628226 89.4629392,66.2328692 89.4751311,66.7036713 C89.4475874,68.3239598 89.849965,70.0005332 89.6619493,71.6136364 C89.5134528,72.8902273 90.2930594,74.1632255 91.3984003,74.801521 C91.8312438,75.0323057 92.2836935,75.2242662 92.7504371,75.3751486 C93.4426224,75.623042 94.1324126,75.8781206 94.8114248,76.1631381 C95.2904458,76.3643269 95.7630798,76.5802855 96.2293269,76.811014 C96.8047425,77.0921225 97.3644284,77.4043473 97.9059003,77.7463024 C98.5717395,78.1738287 99.2387762,78.6073427 99.7118094,79.2456381 C100.001257,79.2309276 100.279401,79.1286073 100.509379,78.9522378 C100.691407,79.0959441 100.911757,79.2049213 101.083007,79.3641958 C101.319472,79.6105985 101.4778,79.9214201 101.538077,80.2575699 L101.466224,80.2575699 C101.474607,80.4168444 101.481792,80.5761189 101.490175,80.7365909 C101.496473,80.7774073 101.490208,80.8191738 101.472212,80.8563462 C101.45486,80.8800906 101.432857,80.9000557 101.407544,80.9150262 L101.038698,81.1653147 C100.770446,81.3461451 100.47465,81.5748776 100.46028,81.8994143 C100.452813,81.9938459 100.481492,82.0875886 100.540516,82.1616783 C100.630774,82.2456318 100.746003,82.297779 100.868645,82.3101748 C101.510533,82.4454983 102.16799,82.577229 102.81826,82.4898077 C103.127229,82.4478934 103.446976,82.3461014 103.648164,82.1065909 C103.832587,81.8886364 103.887675,81.5928409 103.937972,81.3114161 C104.018208,80.8323951 104.085271,80.3425962 104.137963,79.8563899 C104.154133,79.5259418 104.221186,79.1999663 104.336757,78.889965 C104.345702,78.8629802 104.363955,78.8400577 104.388252,78.8252972 C104.415795,78.8133217 104.448129,78.8252972 104.476871,78.8133217 C104.505612,78.8013462 104.524773,78.7570367 104.534353,78.7211101 C104.652928,78.2481779 104.710479,77.7620129 104.705603,77.2744668 C104.711233,77.1478419 104.692115,77.0213344 104.649318,76.902028 C104.546787,76.6997586 104.35846,76.5545534 104.136766,76.5068357 C103.918542,76.4624717 103.697054,76.4360373 103.474519,76.4277972 C103.288771,76.4099223 103.104882,76.3762693 102.924843,76.3272028 C102.851948,76.2996375 102.773644,76.2893884 102.69611,76.297264 C102.616445,76.308063 102.557065,76.3761451 102.557194,76.4565385 C102.561362,76.4841749 102.571143,76.5106656 102.585935,76.5343794 L102.399117,76.4972552 C102.248226,76.4697115 102.039851,76.4038462 101.813514,76.3487587 C101.813514,76.3104371 101.815909,76.2705186 101.820699,76.2290035 C101.821714,76.1415909 101.772299,76.0614087 101.693759,76.0230245 L98.5298252,74.3320804 L97.9382343,74.0159266 C96.6424825,73.3225437 95.3036189,72.6818531 94.0042745,71.9884703 C93.9180507,72.0148164 93.8461976,71.9154196 93.821049,71.8268007 C93.7959003,71.7381818 93.7779371,71.6327972 93.6953059,71.593278 C93.6545892,71.5741171 93.6006993,71.5753147 93.5755507,71.5405857 C93.5541444,71.5094762 93.5459607,71.4711423 93.5527972,71.4340035 C93.5947115,70.8028934 94.0461888,70.2208829 93.9563724,69.5957605 C93.9180507,69.3287063 93.7803322,69.0652448 93.8366171,68.8029808 C93.8785315,68.6221503 94.0078671,68.4748514 94.0761276,68.3024038 C94.2318094,67.916792 94.0761276,67.4533392 94.2461801,67.0761101 C94.3595116,66.828172 94.4365465,66.5652049 94.4749126,66.2953059 C94.5551122,65.7574664 94.7166321,65.2349495 94.9539336,64.7456731 C95.0685969,64.4988632 95.2186758,64.270114 95.3994231,64.0666608 C95.4940297,63.9636713 95.6006119,63.8714598 95.6916259,63.7648776 C95.9670629,63.4355507 96.0688549,62.9972465 96.1466958,62.5673252 C96.288007,61.7996941 96.3862063,61.0033217 96.2089685,60.2416783 C96.1490909,59.983007 96.0580769,59.7255332 96.0616696,59.4596766 C96.0616696,59.1411276 96.1898077,58.7758741 96.0353234,58.5207955 C96.1944581,58.3930168 96.3006762,58.2108677 96.333514,58.0094406 C96.3357654,57.9369644 96.349926,57.8653524 96.3754283,57.7974738 C96.4280433,57.7235929 96.4963354,57.6622527 96.5754196,57.6178409 C96.8275538,57.4254655 96.9475615,57.1059103 96.8843881,56.7951224 C97.0484528,56.8693706 97.2209003,56.7029108 97.2987413,56.5388462 C97.3765822,56.3747815 97.4352622,56.1795804 97.601722,56.1053322 C97.714292,56.0574301 97.8412325,56.0861713 97.9609878,56.055035 C98.1513986,56.0059353 98.2675612,55.8155245 98.4016871,55.6754108 C98.674729,55.3808129 99.0615385,55.2287238 99.4196066,55.0478934 C100.480638,54.5077972 101.345271,53.6539423 102.191941,52.8132605 C102.63348,52.4032583 103.034515,51.9516932 103.389493,51.4648164 C103.4841,51.3247028 103.570323,51.179799 103.651757,51.0313024 L103.673313,51.0205245 L103.680498,51.0468706 C103.693671,51.0995629 103.70924,51.1522552 103.724808,51.20375 C103.763129,51.3235052 103.806241,51.4516434 103.844563,51.5737937 C103.973899,51.9330594 104.114012,52.3162762 104.377474,52.5881206 C104.458276,52.6710315 104.550161,52.7423635 104.650516,52.8000874 C104.868225,52.9170319 105.107342,52.9887262 105.353479,53.0108566 C105.446888,53.0228322 105.541495,53.0300175 105.636101,53.0348077 C105.730708,53.0395979 105.825315,53.0431906 105.918724,53.0455857 L107.856364,53.0970804 C107.190524,52.1318531 107.137832,50.8768182 107.182142,49.7020192 C107.293514,46.6841871 107.881512,43.6388112 107.335428,40.6688811 C107.269563,40.3096154 107.182142,39.9503497 106.96299,39.6617395 C106.675577,39.2845105 106.203741,39.1024825 105.743881,38.9959003 C105.284021,38.8893182 104.806198,38.8378234 104.376276,38.6450175 C104.01701,38.4809528 103.686486,38.2174913 103.298479,38.1312675 C103.0126,38.0833681 102.720365,38.0882387 102.436241,38.1456381 C102.086556,38.1975321 101.738867,38.2590064 101.393173,38.3300612 L101.309344,38.3480245 L101.312937,38.3480245 L101.255455,38.3611976 L101.239886,38.3611976 L101.188392,38.3731731 L101.169231,38.3731731 L101.121329,38.3863462 L101.099773,38.3923339 L101.055463,38.4067045 L101.030315,38.4150874 L100.989598,38.4282605 L100.963252,38.4390385 L100.92493,38.4534091 L100.896189,38.4653846 L100.86146,38.4809528 L100.832719,38.4953234 L100.800385,38.5108916 L100.771643,38.5276573 L100.741705,38.5444231 L100.712963,38.5635839 L100.68542,38.5815472 L100.656678,38.6019056 L100.632727,38.6210664 L100.605184,38.6450175 L100.58243,38.6653759 C100.573046,38.6739615 100.564244,38.6831631 100.556084,38.6929196 L100.535726,38.713278 C100.526287,38.7239236 100.51749,38.7351205 100.509379,38.7468094 C100.509379,38.7527972 100.498601,38.758785 100.493811,38.7659703 C100.489021,38.7731556 100.472255,38.7971066 100.461477,38.8150699 L100.461477,38.8222552 C100.434458,38.8672498 100.412375,38.9150295 100.395612,38.964764 C100.387229,38.9899126 100.378846,39.0150612 100.372858,39.0402098 C100.360497,39.091434 100.351693,39.1434522 100.346512,39.1958916 C100.346512,39.2222378 100.346512,39.2497815 100.340524,39.2761276 C100.340524,39.3288199 100.340524,39.3827098 100.340524,39.4354021 C100.345356,39.5253192 100.355352,39.6148842 100.370463,39.7036538 C99.5071199,40.2138699 98.9662058,41.1316199 98.9380022,42.1340603 C98.9097987,43.1365008 99.3982565,44.083212 100.231547,44.6411626 C100.23733,44.688456 100.240528,44.7360295 100.241128,44.7836713 L100.241128,44.8148077 C100.234422,44.9842193 100.216822,45.1530238 100.188435,45.3201748 C99.7150817,45.2282542 99.2335216,45.1853151 98.7513724,45.1920367 C98.4639598,45.1920367 98.1741521,45.2183829 97.8843444,45.2411364 C97.5737049,44.8663876 97.2842445,44.4745766 97.0173164,44.067535 L96.3778234,43.1298514 C96.1582132,42.8234604 95.9582211,42.5034731 95.7790472,42.1718094 C95.6221678,41.8676311 95.5000175,41.544292 95.3251748,41.2496941 C94.9659091,40.642535 94.3791084,40.1263899 94.3060577,39.4234266 L94.1372028,39.4581556 C94.0449913,39.307264 93.9288287,39.1479895 93.8857168,39.0605682 C93.6544411,38.5616842 93.4762249,38.0398802 93.3540035,37.50375 C93.2953234,37.2259178 93.251014,36.9361101 93.0989248,36.6965997 C92.9952508,36.5469763 92.869706,36.4137616 92.726486,36.3014073 C92.4954966,36.0839575 92.2246796,35.913172 91.9289161,35.7984353 C91.6620712,35.7014366 91.3670372,35.7187661 91.1133829,35.8463374 C91.0743539,35.8282304 91.0343775,35.8122399 90.9936276,35.7984353 C90.6927009,35.6839438 90.3548612,35.7232691 90.088278,35.9038199 C89.836792,36.0966259 89.7290122,36.4271503 89.6906906,36.7421066 C89.6244717,37.1779235 89.6991538,37.6234989 89.9038549,38.0139073 C90.1433654,38.4426311 90.5720892,38.7324388 90.9265647,39.0725437 C91.1732618,39.3115072 91.3892815,39.5802245 91.5696503,39.8725087 C91.625265,40.5194066 91.6087974,41.1704821 91.5205507,41.8137413 C91.4750437,42.0891783 91.4007955,42.3598252 91.3792395,42.6376573 C91.2918182,43.6412063 91.813951,44.6447552 91.6271329,45.6315385 C91.5639209,45.9355933 91.6998591,46.2463777 91.9660402,46.4063549 C92.234292,46.5512587 92.5480507,46.5704196 92.8426486,46.6458654 C93.4210664,46.7943619 93.9204458,47.1644056 94.5048514,47.3021241 C94.7743007,47.366792 95.054528,47.3787675 95.3227797,47.4506206 L95.3646941,47.4637937 C95.1580431,47.6976757 95.0105994,47.9777776 94.9347727,48.2805245 C94.8150175,48.7834965 94.9275874,49.3211976 94.8078322,49.8241696 C94.7096329,50.2385227 94.4629371,50.6001836 94.2198339,50.9510664 C93.7519901,51.6280828 93.2833479,52.3066958 92.8139073,52.9869056 C92.5001919,53.4639574 92.1540833,53.9189002 91.7780245,54.3485227 C91.1325437,55.0538811 90.0188199,55.6131381 89.6906906,56.4610052 C89.6835052,56.4406469 89.6739248,56.4202885 89.6667395,56.3999301 C89.2020892,56.7412325 89.0284441,57.3771329 88.6584003,57.8190297 C88.4775699,58.0333916 88.2548252,58.2070367 88.0596241,58.4058304 C87.8177913,58.6624091 87.596369,58.9374851 87.3973776,59.228549 C86.8465035,59.9925874 86.2920367,60.7602185 85.898042,61.6164685 C85.6920629,62.061958 85.5327885,62.5254108 85.3687238,62.9864685 C84.7244406,64.8031556 83.6729895,66.5264336 83.2358829,68.4053934 C83.1293007,68.8640559 82.850271,69.2784091 82.8083566,69.7478497 C82.7616521,70.2484266 82.9903846,70.7298427 83.2275,71.1717395 C83.5867657,71.8471591 83.9867483,72.5034178 84.3052972,73.1979983 C84.4933129,73.602771 84.6561801,74.0207168 84.8657517,74.4159091 C85.0944843,74.847028 85.3747115,75.2470105 85.614222,75.6721416 C86.1974301,76.7631119 86.5327448,77.9690472 86.8429108,79.1582168 Z M94.7659178,44.8423514 L94.7084353,44.8136101 C94.4936811,44.7207174 94.2970484,44.590575 94.1276224,44.4291958 C93.6114773,43.8783217 93.3899301,43.0484178 93.2282605,42.3071329 C93.2090997,42.218514 93.1923339,42.1310927 93.1767657,42.0424738 C93.8030857,42.9322552 94.3946766,43.8519755 94.7659178,44.8447465 L94.7659178,44.8423514 Z" id="Shape" fill="url(#linearGradient-1)" fill-rule="nonzero"></path>
            <path d="M92.4127273,37.651049 C92.3540472,37.3744143 92.3109353,37.0870017 92.1588462,36.8498864 C92.0546615,36.700992 91.9287122,36.5685837 91.7852098,36.4570892 C91.552893,36.2410695 91.2813442,36.0715547 90.9852448,35.9577098 C90.6842811,35.8447089 90.3473232,35.8834858 90.0798951,36.0618969 C89.8272115,36.2535052 89.7206294,36.5816346 89.6811101,36.9001836 C89.6149383,37.3332844 89.689665,37.7761869 89.8942745,38.1636014 C90.1397727,38.5899301 90.5637063,38.8749476 90.9193794,39.2150524 C91.1776965,39.4641732 91.402344,39.7459891 91.5876136,40.0533392 C91.6720893,40.2127063 91.7741157,40.3621307 91.891792,40.4988287 C92.0124369,40.634601 92.1897498,40.7059694 92.3708129,40.6916346 C92.5201476,40.6521429 92.655667,40.5721575 92.7624126,40.460507 C92.908514,40.3323689 93.3013112,40.1012413 93.3132867,39.90125 C93.3228671,39.7371853 93.0162937,39.3659441 92.9408479,39.2114598 C92.7104513,38.7113312 92.5334324,38.1883026 92.4127273,37.651049 Z" id="Path" fill="#FBBEBE" fill-rule="nonzero"></path>
            <path d="M92.4127273,37.651049 C92.3540472,37.3744143 92.3109353,37.0870017 92.1588462,36.8498864 C92.0546615,36.700992 91.9287122,36.5685837 91.7852098,36.4570892 C91.552893,36.2410695 91.2813442,36.0715547 90.9852448,35.9577098 C90.6842811,35.8447089 90.3473232,35.8834858 90.0798951,36.0618969 C89.8272115,36.2535052 89.7206294,36.5816346 89.6811101,36.9001836 C89.6149383,37.3332844 89.689665,37.7761869 89.8942745,38.1636014 C90.1397727,38.5899301 90.5637063,38.8749476 90.9193794,39.2150524 C91.1776965,39.4641732 91.402344,39.7459891 91.5876136,40.0533392 C91.6720893,40.2127063 91.7741157,40.3621307 91.891792,40.4988287 C92.0124369,40.634601 92.1897498,40.7059694 92.3708129,40.6916346 C92.5201476,40.6521429 92.655667,40.5721575 92.7624126,40.460507 C92.908514,40.3323689 93.3013112,40.1012413 93.3132867,39.90125 C93.3228671,39.7371853 93.0162937,39.3659441 92.9408479,39.2114598 C92.7104513,38.7113312 92.5334324,38.1883026 92.4127273,37.651049 Z" id="Path" fill="#000000" fill-rule="nonzero" opacity="0.1"></path>
            <path d="M100.696198,45.5345367 C100.064549,45.3652355 99.4124192,45.2846261 98.7585577,45.2950262 C97.6675874,45.3105944 96.5442832,45.5752535 95.5048077,45.2399388 C95.2374466,45.1488845 94.9772542,45.0380025 94.7263986,44.9082168 C94.5114105,44.8161477 94.3143789,44.6868204 94.1443881,44.5261976 C93.6270455,43.9789161 93.4043007,43.1538024 93.2438287,42.4185052 C93.1020537,41.6786152 93.0199568,40.9285298 92.9983304,40.1754895 C92.7288811,40.3012325 92.4438636,40.4245804 92.1480682,40.3994318 C91.8522727,40.3742832 91.549292,40.1467483 91.549292,39.8497552 C91.5936014,40.5467308 91.6259353,41.2520892 91.5097727,41.9394843 C91.4642657,42.2125262 91.3900175,42.4819755 91.3696591,42.7574126 C91.2810402,43.7549738 91.8043706,44.7513374 91.6175524,45.734528 C91.5532998,46.037033 91.6898113,46.3467162 91.9564598,46.5033566 C92.2247115,46.6482605 92.5396678,46.6662238 92.8342657,46.7428671 C93.4126836,46.8901661 93.9120629,47.2578147 94.4988636,47.3955332 C94.7683129,47.4590035 95.0497378,47.470979 95.3179895,47.5428322 C95.7000087,47.6446241 96.0484965,47.8637762 96.4388986,47.9320367 C96.7311014,47.984729 97.0376748,47.9488024 97.3286801,47.973951 C97.5861538,47.995507 97.8376399,48.0625699 98.0963112,48.0697552 C98.7286189,48.0853234 99.325,47.7284528 99.7441434,47.254222 C100.163287,46.7799913 100.430341,46.1057692 100.696198,45.5345367 Z" id="Path" fill="#F86D70" fill-rule="nonzero"></path>
            <path d="M100.696198,45.5345367 C100.064549,45.3652355 99.4124192,45.2846261 98.7585577,45.2950262 C97.6675874,45.3105944 96.5442832,45.5752535 95.5048077,45.2399388 C95.2374466,45.1488845 94.9772542,45.0380025 94.7263986,44.9082168 C94.5114105,44.8161477 94.3143789,44.6868204 94.1443881,44.5261976 C93.6270455,43.9789161 93.4043007,43.1538024 93.2438287,42.4185052 C93.1020537,41.6786152 93.0199568,40.9285298 92.9983304,40.1754895 C92.7288811,40.3012325 92.4438636,40.4245804 92.1480682,40.3994318 C91.8522727,40.3742832 91.549292,40.1467483 91.549292,39.8497552 C91.5936014,40.5467308 91.6259353,41.2520892 91.5097727,41.9394843 C91.4642657,42.2125262 91.3900175,42.4819755 91.3696591,42.7574126 C91.2810402,43.7549738 91.8043706,44.7513374 91.6175524,45.734528 C91.5532998,46.037033 91.6898113,46.3467162 91.9564598,46.5033566 C92.2247115,46.6482605 92.5396678,46.6662238 92.8342657,46.7428671 C93.4126836,46.8901661 93.9120629,47.2578147 94.4988636,47.3955332 C94.7683129,47.4590035 95.0497378,47.470979 95.3179895,47.5428322 C95.7000087,47.6446241 96.0484965,47.8637762 96.4388986,47.9320367 C96.7311014,47.984729 97.0376748,47.9488024 97.3286801,47.973951 C97.5861538,47.995507 97.8376399,48.0625699 98.0963112,48.0697552 C98.7286189,48.0853234 99.325,47.7284528 99.7441434,47.254222 C100.163287,46.7799913 100.430341,46.1057692 100.696198,45.5345367 Z" id="Path" fill="#000000" fill-rule="nonzero" opacity="0.1"></path>
            <path d="M102.427858,76.3643269 C102.623264,76.3885509 102.812708,76.4477775 102.987115,76.5391696 C103.214618,76.7008869 103.384873,76.9306889 103.473322,77.1954283 C103.734388,77.8397115 103.788278,78.5486626 103.800253,79.2444406 C103.809834,79.8060927 103.790673,80.3809178 103.589484,80.9054458 C103.534528,81.070943 103.439495,81.2202802 103.31285,81.3401573 C103.200557,81.4281559 103.070696,81.4910447 102.932028,81.5245804 C102.631442,81.6072115 102.284152,81.606014 102.038654,81.4144056 C101.765612,81.2012413 101.697351,80.8240122 101.639869,80.4827098 C101.562028,80.0228497 101.451853,79.5330507 101.109353,79.2156993 C100.855472,78.9761888 100.491416,78.8564336 100.306993,78.5666259 C100.086643,78.2181381 100.202806,77.7630682 100.34292,77.3750612 C100.462675,77.038549 100.643505,76.3571416 100.995586,76.1846941 C101.347666,76.0122465 102.062605,76.2984615 102.427858,76.3643269 Z" id="Path" fill="#FBBEBE" fill-rule="nonzero"></path>
            <path d="M89.4571678,78.0169493 C89.5627544,78.3928845 89.7500379,78.7408719 90.0056469,79.0360664 C90.1613287,79.2156993 90.3565297,79.4336538 90.2750962,79.6563986 C90.2407944,79.7321002 90.1905496,79.7995018 90.1277972,79.8539948 C88.9709615,80.9844843 87.3530682,81.5305682 85.7483479,81.7365472 C85.7228263,81.7431914 85.6960286,81.7431914 85.670507,81.7365472 C85.6238024,81.7161888 85.6118269,81.6563112 85.6070367,81.6048164 C85.5806909,81.4377925 85.5806909,81.2676708 85.6070367,81.1006469 C85.6848776,80.7090472 86.0285752,80.4324126 86.3650874,80.2156556 C86.7015997,79.9988986 87.0692483,79.7905245 87.2560664,79.4372465 C87.4895892,78.9989423 87.3913899,78.4277098 87.669222,78.0169493 C87.8943619,77.6828322 88.3135052,77.5379283 88.7122902,77.4780507 C88.8500087,77.4564948 89.1434091,77.3056031 89.2607692,77.3750612 C89.3781294,77.4445192 89.416451,77.8792308 89.4571678,78.0169493 Z" id="Path" fill="#FBBEBE" fill-rule="nonzero"></path>
            <path d="M102.585935,76.3236101 C102.585881,76.2434743 102.645373,76.1757761 102.724851,76.1655332 C102.802285,76.1579114 102.880443,76.1677323 102.953584,76.1942745 C103.133458,76.2443083 103.317397,76.2783711 103.50326,76.2960664 C103.726164,76.303836 103.948056,76.3298702 104.166705,76.3739073 C104.388222,76.4203401 104.576976,76.5642159 104.680455,76.765507 C104.723157,76.8844222 104.742275,77.0105197 104.73674,77.1367483 C104.741655,77.6211384 104.684097,78.1041409 104.56549,78.5738112 C104.555909,78.6097378 104.541538,78.6516521 104.506809,78.6648252 C104.47208,78.6779983 104.446932,78.6648252 104.419388,78.6779983 C104.39431,78.6918531 104.375781,78.7151226 104.367893,78.7426661 C104.251943,79.0497075 104.184472,79.3729208 104.167902,79.700708 C104.11521,80.179729 104.048147,80.6659353 103.967911,81.1449563 C103.921206,81.4251836 103.862526,81.7197815 103.678103,81.9353409 C103.475717,82.1748514 103.15597,82.2742483 102.847002,82.3161626 C102.195533,82.4023864 101.538077,82.2718531 100.894991,82.1377273 C100.772186,82.1254918 100.656646,82.0738139 100.565664,81.9904283 C100.506608,81.9168208 100.477906,81.8234315 100.485428,81.7293619 C100.499799,81.4072203 100.796792,81.1796853 101.063846,81.0000524 L101.43389,80.7521591 C101.459675,80.7378372 101.481806,80.7177557 101.498558,80.693479 C101.516777,80.6563762 101.523053,80.6145394 101.516521,80.5737238 L101.49257,80.0947028 C101.991854,80.1036198 102.445887,80.3860679 102.674554,80.83 C102.724851,80.931792 102.773951,81.0503497 102.879336,81.0898689 C103.021808,81.1224537 103.164415,81.0360411 103.201477,80.8946678 C103.233195,80.7574795 103.229486,80.6144768 103.190699,80.4791171 C102.973942,79.3210839 103.025437,78.1307168 102.893706,76.960708 C102.88528,76.8289279 102.84412,76.70133 102.773951,76.5894668 C102.717666,76.5092308 102.599108,76.4313899 102.585935,76.3236101 Z" id="Path" fill="#F86D70" fill-rule="nonzero"></path>
            <rect id="Rectangle" fill="#AB6ACB" fill-rule="nonzero" transform="translate(89.312264, 38.170188) rotate(180.000000) translate(-89.312264, -38.170188) " x="86.7207605" y="36.8941958" width="5.18300699" height="2.55198427" rx="1.27599213"></rect>
            <circle id="Oval" fill="#FFFFFF" fill-rule="nonzero" cx="89.3517832" cy="38.1695892" r="1"></circle>
            <path d="M86.4764598,80.8132343 C86.4225699,80.9030507 86.3375437,80.9725087 86.2872465,81.0647203 C86.2282479,81.1554489 86.2456689,81.2758589 86.3279633,81.3461451 C86.3818342,81.3697149 86.441794,81.3755851 86.4992133,81.3629108 C87.6559048,81.2184811 88.7415798,80.7265868 89.6128497,79.9521941 C89.7578118,79.830073 89.8862338,79.6895737 89.9948689,79.5342483 C90.0966608,79.379764 90.1828846,79.1905507 90.3541346,79.1258829 C90.4583595,79.5755748 90.5121818,80.0354748 90.5146066,80.4970804 C90.5146066,80.8012587 90.4714948,81.1473514 90.2236014,81.3233916 C90.1240724,81.3853215 90.0147328,81.4298673 89.9002622,81.4551224 L89.3589685,81.6084091 C89.2631117,81.6445479 89.1593512,81.6544693 89.0583829,81.6371503 C88.9949126,81.6203846 88.9386276,81.5796678 88.8727622,81.5676923 C88.8013166,81.5601065 88.72909,81.5695452 88.661993,81.595236 L88.19375,81.731757 C88.0354866,81.772861 87.8808786,81.8269338 87.7314948,81.8934266 C87.5973689,81.9568969 87.474021,82.0383304 87.3434878,82.108986 C87.1251445,82.2184805 86.8985031,82.3105786 86.6656731,82.3844231 L85.8429545,82.6706381 C85.6175814,82.7587068 85.3823302,82.8190277 85.1423864,82.850271 C84.9771241,82.8646416 84.8082692,82.850271 84.6442045,82.8778147 C84.5244493,82.8993706 84.4046941,82.9448776 84.2729633,82.954458 C84.0651121,82.9608944 83.860683,82.9004472 83.6897552,82.7820105 C83.6230498,82.7442887 83.5650932,82.6928624 83.5197028,82.6311189 C83.3999476,82.4478934 83.5041346,82.2059878 83.6190997,82.0203671 C83.8216501,81.6677243 84.1099987,81.3719611 84.4573864,81.1605245 C84.6010927,81.081486 84.7555769,81.0240035 84.9028759,80.9521503 C85.3232168,80.7485664 85.6405682,80.4084615 86.036958,80.1761364 C86.411792,79.9569843 86.6525,80.5234266 86.4764598,80.8132343 Z" id="Path" fill="#F86D70" fill-rule="nonzero"></path>
            <path d="M98.0424213,47.6554021 C98.4776397,47.9540121 98.9760435,48.1478814 99.4986451,48.2218444 C99.7719213,48.2557331 100.047227,48.2705387 100.322561,48.2661538 C101.471342,48.2649613 102.618076,48.1692332 103.751154,47.9799388 C103.300874,47.4829545 102.844607,46.9512413 102.673357,46.3033654 C102.588832,45.9598657 102.570946,45.6033467 102.620664,45.2531119 C102.689716,44.8056271 102.797093,44.3649034 102.941608,43.9358042 C102.458366,43.9611611 101.97388,43.9487487 101.49257,43.8986801 C101.21833,43.8699388 100.545306,43.6208479 100.306993,43.8100612 C100.06868,43.9992745 100.251906,44.6088287 100.255498,44.8950437 C100.256096,44.9054139 100.256096,44.9158099 100.255498,44.9261801 C100.243859,45.3621645 100.150004,45.792031 99.9788636,46.1931906 C99.6363636,46.9668094 98.8938811,47.6039073 98.0424213,47.6554021 Z" id="Path" fill="#FBBEBE" fill-rule="nonzero"></path>
            <path d="M100.256696,44.8890559 C100.955766,45.3459099 101.818663,45.4769828 102.621862,45.2483217 C102.690914,44.8008368 102.79829,44.3601132 102.942806,43.931014 C102.459563,43.9563709 101.975078,43.9439585 101.493767,43.8938899 C101.219528,43.8651486 100.546503,43.6160577 100.308191,43.805271 C100.069878,43.9944843 100.253103,44.6028409 100.256696,44.8890559 Z" id="Path" fill="#000000" fill-rule="nonzero" opacity="0.1"></path>
            <circle id="Oval" fill="#FBBEBE" fill-rule="nonzero" cx="101.837465" cy="42.3382692" r="2.88729895"></circle>
            <path d="M89.5876889,56.9472115 C89.5856913,57.4210341 89.8331735,57.8609519 90.2391696,58.1052448 C90.4614139,58.2219818 90.6994074,58.3058846 90.9457255,58.3543357 C92.2630332,58.6728846 93.6186626,58.9291608 94.9754895,58.8513199 C95.2696088,58.8488264 95.560284,58.7877602 95.830542,58.6716871 C96.1034569,58.5507647 96.3004681,58.3046123 96.3586626,58.0118357 C96.3600217,57.9401503 96.3737979,57.8692433 96.3993794,57.802264 C96.4520389,57.7287382 96.5203407,57.6677983 96.5993706,57.6238287 C96.8514287,57.4340425 96.9720748,57.1163568 96.9095367,56.8070979 C97.0736014,56.8813462 97.246049,56.7148864 97.3238899,56.5520192 C97.4017308,56.3891521 97.4616084,56.1927535 97.6268706,56.1220979 C97.7394406,56.0741958 97.8663811,56.1029371 97.9861364,56.0718007 C98.1765472,56.022701 98.2927098,55.8322902 98.4268357,55.6945717 C98.6998776,55.4023689 99.0890822,55.2514773 99.4459528,55.0706469 C100.509379,54.5353409 101.37521,53.6862762 102.224274,52.8515822 C102.665671,52.4449279 103.06672,51.9965545 103.421827,51.5127185 C103.516953,51.373606 103.604888,51.2297111 103.685288,51.0815997 C103.941172,50.5899323 104.163235,50.0813899 104.34993,49.5595105 C104.45771,49.2792832 104.566687,48.9846853 104.522378,48.6876923 C104.522378,48.6613462 104.512797,48.635 104.506809,48.6074563 C104.451406,48.416885 104.362606,48.2376643 104.244545,48.0781381 C103.951145,47.6470192 103.566731,47.2398514 103.061364,47.1057255 C102.555997,46.9715997 102.053024,47.1332692 101.539274,47.2422465 C101.369234,47.2803522 101.196781,47.3067602 101.023129,47.321285 C100.479441,47.3596066 99.9453322,47.2135052 99.416014,47.0686014 L98.8435839,46.9105245 C98.5573689,46.831486 98.4136626,46.4853934 98.1250524,46.4243182 C97.9952731,46.4047699 97.8628796,46.4116951 97.7358479,46.4446766 C97.1478497,46.556049 96.5538636,46.7009528 96.0353234,47.0003409 C95.9194316,47.0666302 95.8089178,47.1419077 95.704799,47.2254808 C95.3284941,47.5064964 95.0576887,47.9059555 94.9359703,48.3595629 C94.816215,48.8589423 94.928785,49.3930507 94.8090297,49.8924301 C94.7108304,50.3043881 94.4629371,50.6636538 94.2210315,51.0109441 L92.8103147,53.031215 C92.4958081,53.5046017 92.1493068,53.9559336 91.7732343,54.3820542 C91.013986,55.2071678 89.6080594,55.8275 89.5876889,56.9472115 Z" id="Path" fill="#F86D70" fill-rule="nonzero"></path>
            <path d="M93.3528059,37.651049 C93.2941259,37.3744143 93.251014,37.0870017 93.0989248,36.8498864 C92.9947402,36.700992 92.8687909,36.5685837 92.7252885,36.4570892 C92.4929717,36.2410695 92.2214229,36.0715547 91.9253234,35.9577098 C91.6243598,35.8447089 91.2874019,35.8834858 91.0199738,36.0618969 C90.7672902,36.2535052 90.660708,36.5816346 90.6211888,36.9001836 C90.555017,37.3332844 90.6297436,37.7761869 90.8343531,38.1636014 C91.0738636,38.5899301 91.503785,38.8749476 91.859458,39.2150524 C92.1177751,39.4641732 92.3424227,39.7459891 92.5276923,40.0533392 C92.612168,40.2127063 92.7141943,40.3621307 92.8318706,40.4988287 C92.9525156,40.634601 93.1298285,40.7059694 93.3108916,40.6916346 C93.4602263,40.6521429 93.5957457,40.5721575 93.7024913,40.460507 C93.8485927,40.3323689 94.2413899,40.1012413 94.2533654,39.90125 C94.2629458,39.7371853 93.9563724,39.3659441 93.8809266,39.2114598 C93.65053,38.7113312 93.4735111,38.1883026 93.3528059,37.651049 L93.3528059,37.651049 Z" id="Path" fill="#FBBEBE" fill-rule="nonzero"></path>
            <path d="M83.2071416,71.0915035 C83.5664073,71.7621329 83.9663899,72.4088112 84.2909266,73.1033916 C84.4789423,73.5069668 84.6418094,73.9213199 84.8513811,74.3141171 C85.0801136,74.7416434 85.3615385,75.1392308 85.601049,75.5607692 C86.1998252,76.6265909 86.5387325,77.8289336 86.8488986,79.0133129 C87.7156553,78.884398 88.5497621,78.590916 89.3062762,78.1486801 C89.3571247,78.1199541 89.4063033,78.0883679 89.4535752,78.0540734 C89.656115,77.9092471 89.8251894,77.7226118 89.9493619,77.506792 C89.6631469,76.4289948 89.3697465,75.3236538 88.7865385,74.3668094 C88.5961276,74.0554458 88.3781731,73.7680332 88.1877622,73.455472 C87.6213199,72.5632955 87.5039598,71.4387937 86.8560839,70.6040997 C86.7291136,70.4317551 86.7291136,70.1968288 86.8560839,70.0244843 C86.9303322,69.9274825 87.0500874,69.835271 87.0273339,69.7143182 C87.0105682,69.6268969 86.9195542,69.5478584 86.9542832,69.4664248 C86.971049,69.4269056 87.0117657,69.4053497 87.0429021,69.3766084 C87.1530769,69.276014 87.1387063,69.1023689 87.1494843,68.9538724 C87.1734353,68.5754458 87.3997727,68.2437238 87.6189248,67.9347552 C87.6634524,67.8619998 87.7220855,67.7988878 87.7913724,67.7491346 C87.8500524,67.713208 87.9195105,67.6964423 87.9781906,67.6605157 C88.1841696,67.5323776 88.169799,67.2305944 88.2691958,67.0066521 C88.3985315,66.7120542 88.7242657,66.5623601 88.9386276,66.3240472 C89.210472,66.0198689 89.2787325,65.5971329 89.5661451,65.3312762 C89.5958113,65.3035035 89.6274276,65.2778903 89.6607517,65.2546329 C89.5361363,65.7072082 89.4792341,66.1757439 89.4918969,66.6449913 C89.4643531,68.2545017 89.8667308,69.9190997 89.678715,71.5178322 C89.5302185,72.7848427 90.3110227,74.049458 91.4175612,74.6841608 C91.8515553,74.9132983 92.3047595,75.1040368 92.771993,75.2541958 C93.4641783,75.4996941 94.1563636,75.7523776 94.8353759,76.0361976 C95.3143969,76.2349913 95.7934178,76.4505507 96.2556731,76.6792832 C96.8311039,76.9581586 97.3908027,77.2683917 97.9322465,77.6085839 C98.5992832,78.0325175 99.2675175,78.4636364 99.7405507,79.0971416 C100.199213,79.0851661 100.619554,78.809729 100.909362,78.4540559 C101.19917,78.0983829 101.38,77.6684615 101.548855,77.2433304 C101.696154,76.8756818 101.842255,76.4984528 101.853034,76.1020629 C101.853297,76.0151624 101.80404,75.9357004 101.726093,75.8972815 L98.5573689,74.220708 L97.9585927,73.9069493 C96.6616434,73.2183566 95.3239773,72.5812587 94.0198427,71.8938636 C93.9324213,71.9190122 93.8605682,71.8196154 93.8354196,71.7333916 C93.810271,71.6471678 93.7923077,71.5393881 93.7096766,71.5010664 C93.6677622,71.4819056 93.6150699,71.4819056 93.5899213,71.4483741 C93.5693642,71.4173611 93.561637,71.3795837 93.5683654,71.3429895 C93.6102797,70.715472 94.0629545,70.1382517 93.9719406,69.516722 C93.9336189,69.2508654 93.7959003,68.989799 93.8521853,68.7299301 C93.8940997,68.5490997 94.0234353,68.4029983 94.0916958,68.2317483 C94.2461801,67.8485315 94.0916958,67.3934615 94.2617483,67.0138374 C94.3752225,66.7676275 94.4522736,66.5062186 94.4904808,66.2378234 C94.572087,65.7033728 94.7356818,65.1847167 94.9754895,64.7001661 C95.0902019,64.4544771 95.2402924,64.2269206 95.420979,64.0247465 C95.5167832,63.9229545 95.6233654,63.830743 95.7131818,63.7253584 C95.9898164,63.3984266 96.0904108,62.9625175 96.1694493,62.5421766 C96.3107605,61.7793357 96.4089598,60.9853584 96.231722,60.2320979 C96.1718444,59.9746241 96.0808304,59.7195455 96.0844231,59.4548864 C96.0844231,59.1063986 96.2413024,58.6980332 95.9993969,58.4453497 C95.8973692,58.3546685 95.7735956,58.2919566 95.6401311,58.2633217 C95.0767863,58.1114166 94.5020864,58.0052873 93.9216434,57.9459703 L91.2798427,57.6022727 C90.9746571,57.5821326 90.6760219,57.5045281 90.3996416,57.3735402 C90.0403759,57.1759441 89.8008654,56.8082955 89.6571591,56.4250787 C89.1925087,56.763986 89.0176661,57.3950962 88.6476224,57.8334003 C88.466792,58.0477622 88.2440472,58.2202098 88.0488462,58.4166084 C87.8062626,58.6711425 87.5844084,58.9446559 87.3854021,59.2345367 C86.8333304,59.9925874 86.2776661,60.7566259 85.8824738,61.6056906 C85.6776923,62.0475874 85.523208,62.5086451 85.3531556,62.9661101 C84.7076748,64.7708217 83.6550262,66.4833217 83.2179196,68.3479108 C83.1101399,68.8041783 82.8311101,69.2149388 82.7891958,69.6819843 C82.7400962,70.1765734 82.9688287,70.6555944 83.2071416,71.0915035 Z" id="Path" fill="#434175" fill-rule="nonzero"></path>
            <path d="M97.0652185,56.1101224 C97.1294536,56.2301886 97.1627898,56.3643565 97.1622203,56.5005245 C97.1035402,56.2083217 96.7011626,56.0466521 96.676014,55.758042 C96.6640385,55.6251136 96.6879895,55.6311014 96.7706206,55.701757 C96.8963636,55.8059441 96.9502535,55.9951573 97.0652185,56.1101224 Z" id="Path" fill="#000000" fill-rule="nonzero" opacity="0.1"></path>
            <path d="M95.8425175,56.9963112 C95.9268207,57.0684076 95.9901187,57.1619065 96.025743,57.266958 C96.0927915,57.4147056 96.105515,57.5813834 96.0616696,57.7375962 C96.0029895,57.7100524 95.9826311,57.6381993 95.9646678,57.574729 C95.9375622,57.4767277 95.8972758,57.3828604 95.8449126,57.2956993 C95.7970105,57.2202535 95.5778584,57.0406206 95.5802535,56.9579895 C95.5766608,56.8334441 95.7838374,56.9520017 95.8425175,56.9963112 Z" id="Path" fill="#000000" fill-rule="nonzero" opacity="0.1"></path>
            <path d="M95.7012063,47.2254808 C95.8868697,47.3845196 96.0911488,47.5204376 96.3095629,47.6302535 C96.881993,47.9200612 97.5154983,48.0721503 98.091521,48.348785 C98.3755771,48.4931055 98.6514353,48.6530233 98.9178322,48.8278059 C99.4890647,49.1870717 100.0591,49.5463374 100.629135,49.9115909 C100.766402,49.9907705 100.893143,50.0869331 101.006364,50.1978059 C101.212343,50.4181556 101.211145,50.7965822 101.399161,51.0360927 C101.609147,51.2754563 101.910682,51.4146932 102.229065,51.4193094 C102.544366,51.421979 102.857689,51.3692856 103.154773,51.2636276 C103.335002,51.2102825 103.511775,51.1458921 103.684091,51.0708217 C103.8643,50.9948205 104.034766,50.8975261 104.191853,50.781014 C104.508986,50.5580559 104.724413,50.2181124 104.790629,49.8361451 C104.811263,49.5747739 104.776578,49.3119885 104.688837,49.0649213 C104.641328,48.9040362 104.58044,48.7474087 104.506809,48.5966783 C104.464629,48.5111373 104.415777,48.4290508 104.360708,48.3511801 C103.967911,47.7943182 103.275726,47.5320542 102.606294,47.401521 C102.253016,47.3332605 101.89375,47.2913462 101.539274,47.2314685 C101.369234,47.2695742 101.196781,47.2959822 101.023129,47.310507 C100.479441,47.3488287 99.9453322,47.2027273 99.416014,47.0578234 L98.8435839,46.8997465 C98.5573689,46.820708 98.4136626,46.4746154 98.1250524,46.4135402 C97.9952731,46.393992 97.8628796,46.4009172 97.7358479,46.4338986 C97.1478497,46.545271 96.5538636,46.6901748 96.0353234,46.9895629 C95.9178212,47.0591405 95.8060904,47.1380329 95.7012063,47.2254808 L95.7012063,47.2254808 Z" id="Path" fill="#000000" fill-rule="nonzero" opacity="0.1"></path>
            <path d="M94.3060577,39.5623427 C94.3791084,40.2605157 94.9683042,40.7730682 95.3275699,41.3754371 C95.5024126,41.6688374 95.6245629,41.9897815 95.7814423,42.2927622 C95.9607319,42.6243586 96.1607195,42.9443387 96.3802185,43.2508042 L97.0209091,44.1813024 C97.3981381,44.7285839 97.7789598,45.2806556 98.2603759,45.7381206 C99.0986626,45.8806294 99.8052185,46.5045542 100.601591,46.807535 C101.239886,47.0470455 101.934467,47.082972 102.603899,47.2135052 C103.27333,47.3440385 103.965516,47.6051049 104.358313,48.1631643 C104.505158,48.3837272 104.615922,48.626278 104.686442,48.8816958 C104.774156,49.1283545 104.808842,49.3907441 104.788234,49.651722 C104.722315,50.034126 104.506857,50.3745494 104.189458,50.5977885 C103.874419,50.8160867 103.523942,50.9781567 103.153575,51.0768094 C102.856343,51.1818955 102.543122,51.2345719 102.227867,51.2325506 C101.909201,51.2276136 101.607397,51.0884534 101.396766,50.8492745 C101.209948,50.609764 101.211145,50.2277448 101.005166,50.0109878 C100.891946,49.9001149 100.765204,49.8039523 100.627937,49.7247727 L98.9166346,48.6469755 C98.6502377,48.4721929 98.3743795,48.3122751 98.0903234,48.1679545 C97.5143007,47.8865297 96.8807955,47.7344406 96.3083654,47.4494231 C95.7359353,47.1644056 95.2030245,46.681792 95.0904545,46.0506818 C94.7419668,44.1118444 93.3995105,42.4771853 92.2522552,40.8760577 C92.2893794,40.8688724 92.2786014,40.7826486 92.2917745,40.746722 C92.4578745,40.3709313 92.7561821,40.0692144 93.1300612,39.8988549 C93.4989073,39.6988636 93.9084703,39.6473689 94.3060577,39.5623427 Z" id="Path" fill="#F86D70" fill-rule="nonzero"></path>
            <path d="M100.354895,39.5767133 C100.333424,39.3665307 100.375119,39.15472 100.47465,38.9683566 C100.665061,38.6522028 101.062649,38.5408304 101.424309,38.4665822 C101.78597,38.3923339 102.11889,38.3348514 102.468575,38.2845542 C102.753095,38.2273567 103.045614,38.2220825 103.33201,38.268986 C103.722413,38.3552098 104.050542,38.6174738 104.409808,38.7791434 C104.840927,38.9719493 105.319948,39.0186538 105.779808,39.1288287 C106.239668,39.2390035 106.712701,39.4150437 107.001311,39.7898776 C107.220463,40.0736976 107.307885,40.4365559 107.37375,40.7898339 C107.921031,43.7394056 107.331836,46.7644231 107.220463,49.7618969 C107.176154,50.9283129 107.228846,52.174965 107.895883,53.1342045 L105.95465,53.0827098 C105.457666,53.0695367 104.923558,53.0431906 104.533156,52.7366171 C104.18826,52.4671678 104.025393,52.0324563 103.879292,51.6216958 C103.746996,51.3026191 103.663041,50.9655909 103.630201,50.6217395 C103.600262,49.9175787 104.000245,49.2265909 103.869712,48.533208 C103.77271,48.0158654 103.390691,47.596722 102.993103,47.2578147 C102.595516,46.9189073 102.142841,46.6231119 101.815909,46.2099563 C101.235096,45.4734615 101.123724,44.468715 101.195577,43.5334266 C101.238689,42.9777622 101.339283,42.4209003 101.290184,41.865236 C101.265629,41.4400718 101.112345,41.0324303 100.850682,40.6964248 C100.545306,40.3275787 100.383636,40.0976486 100.354895,39.5767133 Z" id="Path" fill="#434175" fill-rule="nonzero"></path>
            <path d="M100.47465,38.9683566 C100.661469,38.656993 101.049476,38.5444231 101.405149,38.4713724 C101.216443,38.5377291 101.054557,38.6638739 100.944091,38.8306381 C100.845214,39.0176663 100.803565,39.2296579 100.824336,39.4401923 C100.850682,39.9611276 101.012351,40.1910577 101.32132,40.5599038 C101.584017,40.895426 101.737797,41.303276 101.762019,41.728715 C101.809921,42.2843794 101.710524,42.8400437 101.667413,43.3969056 C101.594362,44.3309965 101.705734,45.3369406 102.287745,46.0734353 C102.613479,46.4865909 103.062561,46.7811888 103.464939,47.1212937 C103.867316,47.4613986 104.244545,47.8793444 104.341547,48.3966871 C104.470883,49.0888724 104.0709,49.7810577 104.102037,50.4852185 C104.133733,50.8287503 104.217314,51.1654939 104.34993,51.4839773 C104.497229,51.8959353 104.660096,52.3306469 105.003794,52.6000962 C105.394196,52.9066696 105.929502,52.9330157 106.426486,52.9461888 L107.801276,52.9821154 C107.831215,53.0324126 107.863549,53.0827098 107.89708,53.1318094 L105.955848,53.0803147 C105.458864,53.0671416 104.924755,53.0407955 104.534353,52.734222 C104.189458,52.4647727 104.026591,52.0300612 103.88049,51.6193007 C103.748193,51.300224 103.664239,50.9631958 103.631399,50.6193444 C103.60146,49.9151836 104.001442,49.2241958 103.870909,48.5308129 C103.773907,48.0134703 103.391888,47.5943269 102.994301,47.2554196 C102.596713,46.9165122 102.144038,46.6207168 101.817107,46.2075612 C101.236294,45.4710664 101.124921,44.4663199 101.196774,43.5310315 C101.239886,42.9753671 101.340481,42.4185052 101.291381,41.8628409 C101.266826,41.4376767 101.113543,41.0300352 100.851879,40.6940297 C100.542911,40.3251836 100.381241,40.0952535 100.353698,39.5743182 C100.333077,39.364808 100.375176,39.1538952 100.47465,38.9683566 Z" id="Path" fill="#000000" fill-rule="nonzero" opacity="0.1"></path>
            <path d="M85.8908566,69.3658304 L89.4571678,78.0540734 C89.6597076,77.9092471 89.8287821,77.7226118 89.9529545,77.506792 C89.6667395,76.4289948 89.3733392,75.3236538 88.7901311,74.3668094 C88.5997203,74.0554458 88.3817657,73.7680332 88.1913549,73.455472 C87.6249126,72.5632955 87.5075524,71.4387937 86.8596766,70.6040997 C86.7327062,70.4317551 86.7327062,70.1968288 86.8596766,70.0244843 C86.9339248,69.9274825 87.0536801,69.835271 87.0309266,69.7143182 C87.0141608,69.6268969 86.9231469,69.5478584 86.9578759,69.4664248 C86.9746416,69.4269056 87.0153584,69.4053497 87.0464948,69.3766084 C87.1566696,69.276014 87.142299,69.1023689 87.1530769,68.9538724 C87.177028,68.5754458 87.4033654,68.2437238 87.6225175,67.9347552 C87.6670451,67.8619998 87.7256782,67.7988878 87.794965,67.7491346 C87.8536451,67.713208 87.9231031,67.6964423 87.9817832,67.6605157 C88.1877622,67.5323776 88.1733916,67.2305944 88.2727885,67.0066521 C88.4021241,66.7120542 88.7278584,66.5623601 88.9422203,66.3240472 C89.2140647,66.0198689 89.2823252,65.5971329 89.5697378,65.3312762 L89.5948864,65.2690035 L89.3254371,63.5924301 L85.8908566,69.3658304 Z" id="Path" fill="#000000" fill-rule="nonzero" opacity="0.1"></path>
            <ellipse id="Oval" fill="#AB6ACB" fill-rule="nonzero" cx="117.006862" cy="78.9606206" rx="4.06569056" ry="1"></ellipse>
            <ellipse id="Oval" fill="#3F3D56" fill-rule="nonzero" cx="117.075122" cy="78.627701" rx="1" ry="1"></ellipse>
            <ellipse id="Oval" fill="#3F3D56" fill-rule="nonzero" cx="117.075122" cy="77.8708479" rx="1" ry="1"></ellipse>
            <ellipse id="Oval" fill="#3F3D56" fill-rule="nonzero" cx="117.075122" cy="77.1127972" rx="1" ry="1"></ellipse>
            <ellipse id="Oval" fill="#3F3D56" fill-rule="nonzero" cx="117.075122" cy="76.3559441" rx="1" ry="1"></ellipse>
            <ellipse id="Oval" fill="#3F3D56" fill-rule="nonzero" cx="117.075122" cy="75.5978934" rx="1" ry="1"></ellipse>
            <ellipse id="Oval" fill="#3F3D56" fill-rule="nonzero" cx="117.075122" cy="74.8410402" rx="1" ry="1"></ellipse>
            <ellipse id="Oval" fill="#3F3D56" fill-rule="nonzero" cx="117.075122" cy="74.0841871" rx="1" ry="1"></ellipse>
            <path d="M115.302745,68.9011801 C115.238084,68.8187627 115.179261,68.7319283 115.126705,68.6413112 L116.369764,68.4365297 L115.024913,68.4473077 C114.764711,67.8798029 114.749124,67.2303129 114.981801,66.650979 L116.786512,67.5862675 L115.121914,66.3635664 C115.545153,65.6252597 116.34606,65.1859931 117.196138,65.2259355 C118.046216,65.265878 118.802407,65.7783077 119.154552,66.5530472 C119.506697,67.3277868 119.395535,68.2344573 118.866661,68.9011801 C118.967948,69.0288741 119.054706,69.1674458 119.125332,69.3143357 L117.511031,70.1526224 L119.233112,69.5754021 C119.312108,69.809629 119.352552,70.0551274 119.352867,70.3023164 C119.353496,70.8112018 119.182162,71.3053711 118.866661,71.7046503 C119.597533,72.634033 119.491398,73.9690615 118.62286,74.7712896 C117.754323,75.5735178 116.415082,75.5735178 115.546545,74.7712896 C114.678008,73.9690615 114.571872,72.634033 115.302745,71.7046503 C114.65609,70.8820292 114.65609,69.7238012 115.302745,68.9011801 L115.302745,68.9011801 Z" id="Path" fill="#AB6ACB" fill-rule="nonzero"></path>
            <path d="M119.352869,70.3023164 C119.353496,70.8112018 119.182162,71.3053711 118.866661,71.7046503 C119.597533,72.634033 119.491398,73.9690615 118.62286,74.7712896 C117.754323,75.5735178 116.415082,75.5735178 115.546545,74.7712896 C114.678008,73.9690615 114.571872,72.634033 115.302745,71.7046503 C114.998566,71.3190385 119.352869,70.0484353 119.352869,70.3023164 Z" id="Path" fill="#000000" fill-rule="nonzero" opacity="0.1"></path>
            <ellipse id="Oval" fill="#AB6ACB" fill-rule="nonzero" cx="124.925079" cy="70.2759703" rx="2.73401224" ry="1"></ellipse>
            <ellipse id="Oval" fill="#3F3D56" fill-rule="nonzero" cx="124.971783" cy="70.0532255" rx="1" ry="1"></ellipse>
            <ellipse id="Oval" fill="#3F3D56" fill-rule="nonzero" cx="124.971783" cy="69.5442657" rx="1" ry="1"></ellipse>
            <ellipse id="Oval" fill="#3F3D56" fill-rule="nonzero" cx="124.971783" cy="69.0341084" rx="1" ry="1"></ellipse>
            <ellipse id="Oval" fill="#3F3D56" fill-rule="nonzero" cx="124.971783" cy="68.5251486" rx="1" ry="1"></ellipse>
            <ellipse id="Oval" fill="#3F3D56" fill-rule="nonzero" cx="124.971783" cy="68.0161888" rx="1" ry="1"></ellipse>
            <ellipse id="Oval" fill="#3F3D56" fill-rule="nonzero" cx="124.971783" cy="67.507229" rx="1" ry="1"></ellipse>
            <ellipse id="Oval" fill="#3F3D56" fill-rule="nonzero" cx="124.971783" cy="66.9970717" rx="1" ry="1"></ellipse>
            <path d="M123.780219,63.5133916 C123.735669,63.4584215 123.695621,63.3999514 123.660463,63.338549 L124.49875,63.2008304 L123.594598,63.2080157 C123.502072,63.0083815 123.454254,62.7909514 123.454484,62.5709178 C123.454349,62.3752142 123.49175,62.1813007 123.564659,61.9996853 L124.778977,62.6295979 L123.659266,61.8068794 C123.942452,61.3077905 124.481907,61.0100009 125.055135,61.0363325 C125.628363,61.0626642 126.138245,61.4086558 126.374483,61.9316047 C126.610721,62.4545537 126.53329,63.0658594 126.174126,63.5133916 C126.241951,63.5994033 126.300178,63.6925665 126.347771,63.7912238 L125.262788,64.355271 L126.419624,63.9660664 C126.586078,64.4557806 126.493714,64.9964474 126.174126,65.4031294 C126.667583,66.0282721 126.597166,66.9278053 126.012441,67.4685458 C125.427716,68.0092863 124.525431,68.0092863 123.940706,67.4685458 C123.355981,66.9278053 123.285564,66.0282721 123.779021,65.4031294 C123.343166,64.8504002 123.343166,64.070911 123.779021,63.5181818 L123.780219,63.5133916 Z" id="Path" fill="#AB6ACB" fill-rule="nonzero"></path>
            <path d="M126.502255,64.4558654 C126.502492,64.7976711 126.387763,65.129624 126.176521,65.3983392 C126.669978,66.0234819 126.599561,66.9230151 126.014836,67.4637556 C125.430111,68.0044961 124.527826,68.0044961 123.943101,67.4637556 C123.358376,66.9230151 123.287959,66.0234819 123.781416,65.3983392 C123.575437,65.1384703 126.502255,64.2846154 126.502255,64.4558654 Z" id="Path" fill="#000000" fill-rule="nonzero" opacity="0.1"></path>
        </g>
    </g>
</svg>