<?xml version="1.0" encoding="UTF-8"?>
<svg width="137px" height="120px" viewBox="0 0 137 120" version="1.1" xmlns="http://www.w3.org/2000/svg" xmlns:xlink="http://www.w3.org/1999/xlink">
    <title>Stay on Track with Activities</title>
    <g id="Getting-Started-Page---End-User" stroke="none" stroke-width="1" fill="none" fill-rule="evenodd">
        <g id="Getting-Started-Tab---End-User-Dec-2020" transform="translate(-187.000000, -3304.000000)" fill-rule="nonzero">
            <g id="Stay-on-Track-with-Activities" transform="translate(187.000000, 3304.000000)">
                <ellipse id="Oval" fill="#E6E6E6" cx="61.6689751" cy="117.362245" rx="37.7603878" ry="1.89750693"></ellipse>
                <circle id="Oval" fill="#E6E6E6" cx="18.7386019" cy="18.7386019" r="18.7386019"></circle>
                <circle id="Oval" fill="#FF9E2D" cx="18.7386019" cy="18.7386019" r="15.615501"></circle>
                <circle id="Oval" fill="#E6E6E6" cx="68.5" cy="18.7386019" r="18.7386019"></circle>
                <circle id="Oval" fill="#FFFFFF" cx="68.5" cy="18.7386019" r="15.615501"></circle>
                <circle id="Oval" fill="#E6E6E6" cx="118.261398" cy="18.7386019" r="18.7386019"></circle>
                <circle id="Oval" fill="#FFFFFF" cx="118.261398" cy="18.7386019" r="15.615501"></circle>
                <polygon id="Path" fill="#FFFFFF" points="17.2902729 25.1544903 12.741 19.3054252 15.3865042 17.2475789 17.540554 20.0171801 24.8173033 12.3358823 27.2504765 14.6411634"></polygon>
                <path d="M51.9430661,22.559623 C50.7124684,19.5874251 50.512678,16.7822438 52.2474566,14.2905155 L52.2474566,14.2905155 L52.2474566,14.2905155 C52.3097237,12.5989371 53.0547068,11.0047635 54.3123845,9.87181979 C55.5700622,8.73887605 57.2331095,8.16384296 58.9219828,8.27795555 L60.0530752,8.35438144 C62.4357228,8.50912763 64.5205608,10.0114696 65.4212779,12.2227282 C67.5304499,17.4537355 67.5968398,24.4060225 67.0704581,31.8577978 L51.6008033,31.8577978 C52.5195989,28.3728613 52.9912964,25.102121 51.9430661,22.559623 Z" id="Path" fill="#2F2E41"></path>
                <path d="M31.9657451,31.678787 L27.8777107,29.8424102 C27.0535292,29.4721813 26.4306808,28.7623712 26.1706983,27.8970656 C25.9107158,27.0317601 26.0392121,26.0962072 26.5228622,25.3330381 L26.5228622,25.3330381 C27.0591154,24.486866 27.9695713,23.9502024 28.9695957,23.8908233 C29.9696202,23.8314443 30.9371863,24.2565956 31.5698056,25.033363 L33.4584322,27.3523289 L42.2633084,35.1613574 L48.1161912,31.2555291 L50.76883,35.7529071 L41.2746181,41.4879111 L31.9657451,31.678787 Z" id="Path" fill="#9F616A"></path>
                <path d="M50.3425115,37.0758185 L47.1150116,30.900073 L59.6825016,25.3022549 L59.7913123,26.4835611 C59.9950483,28.6954005 59.0120764,30.8496976 57.2079192,32.1453669 L50.3425115,37.0758185 Z" id="Path" fill="#FF9E2D"></path>
                <path d="M66.6284605,24.9332808 L53.8107518,35.5410409 L53.0741017,34.5097307 L56.6100205,28.1745415 L58.2306508,27.4378913 C58.6189395,25.7928059 57.62768,23.5866961 56.3153604,21.250032 L62.5032197,20.3660519 C62.8018911,22.3729729 64.1619956,23.9021111 66.6284605,24.9332808 Z" id="Path" fill="#9F616A"></path>
                <polygon id="Path" fill="#2F2E41" points="82.0981039 98.1563255 79.9618906 101.323834 62.9452382 91.6736828 65.3025111 80.0347548"></polygon>
                <path d="M59.6302936,113.25761 L56.168038,111.710644 L55.284054,71.1948982 L51.9691265,49.1690647 L64.8605001,46.7381193 L67.5124406,52.4839903 C74.0294718,61.4222726 64.5290986,88.8096257 59.6302936,113.25761 Z" id="Path" fill="#2F2E41"></path>
                <path d="M59.9094169,112.707114 L60.6198207,114.253288 C60.8904878,114.842388 60.8671398,115.524697 60.5568361,116.093916 C60.2465324,116.663135 59.6857017,117.052441 59.0439128,117.144125 L49.6516463,118.485877 C48.6967181,118.622295 47.7876802,118.03281 47.5226776,117.105302 L47.5226776,117.105302 C47.2799631,116.255803 47.6449808,115.349953 48.4088703,114.906071 L56.299317,110.956767 L59.9094169,112.707114 Z" id="Path" fill="#2F2E41"></path>
                <path d="M81.6583642,97.5577361 L83.3553654,97.4331742 C84.0019306,97.3857159 84.6329497,97.6463014 85.0576321,98.1361419 C85.4823145,98.6259824 85.650804,99.2875723 85.5121572,99.9208779 L83.4831283,109.188996 C83.2768329,110.131302 82.4065661,110.776652 81.4449611,110.700408 L81.4449611,110.700408 C80.564233,110.630576 79.8433362,109.971704 79.6947615,109.100794 L78.7556037,100.327305 L81.6583642,97.5577361 Z" id="Path" fill="#2F2E41"></path>
                <circle id="Oval" fill="#9F616A" cx="58.5253108" cy="17.4194513" r="5.89319921"></circle>
                <path d="M64.5658401,47.6220994 L51.7481315,50.2740399 L51.4534714,41.7289002 C49.5974402,39.7639047 53.9262132,31.8940212 55.4313802,28.1745415 L57.3466706,27.5852213 L54.1054119,33.4784206 L65.4498202,24.1966307 L67.6597707,24.7859508 L68.2490908,35.5410409 L64.5658401,47.6220994 Z" id="Path" fill="#FF9E2D"></path>
                <path d="M65.4498202,52.7786485 L62.6702022,56.2940476 C62.1098081,57.0027786 61.2693233,57.4333038 60.3667229,57.4739691 C59.4641225,57.5146344 58.5883282,57.1614334 57.9664723,56.5059669 L57.9664723,56.5059669 C57.2769832,55.7792076 56.9790564,54.7652171 57.1658324,53.7809971 C57.3526083,52.796777 58.0012957,51.9624259 58.9090968,51.5387852 L61.6192547,50.2740456 L71.3430289,43.6441963 L68.9857561,37.0143469 L73.9949846,35.5410466 L77.2362433,46.1488048 L65.4498202,52.7786485 Z" id="Path" fill="#9F616A"></path>
                <path d="M65.9653102,30.6791519 L55.2883044,30.6791519 C55.6894867,28.661011 56.7649937,26.8301236 59.7063761,25.5173809 C61.8511281,21.4182555 62.7674172,17.7001913 59.7063761,15.2158822 C56.2099046,14.4103905 54.8557507,12.9477068 55.2883044,10.936932 L61.547231,9.90562181 C66.6945108,14.4897348 66.7532747,22.3147972 65.9653102,30.6791519 Z" id="Path" fill="#2F2E41"></path>
                <path d="M75.1736002,36.2776911 L68.3964208,37.8983214 L66.0391479,24.3439607 L67.211238,24.5271005 C69.4058084,24.8700067 71.2546091,26.3495811 72.0701593,28.4156406 L75.1736002,36.2776911 Z" id="Path" fill="#FF9E2D"></path>
            </g>
        </g>
    </g>
</svg>