<?xml version="1.0" encoding="UTF-8"?>
<svg width="140px" height="92px" viewBox="0 0 140 92" version="1.1" xmlns="http://www.w3.org/2000/svg" xmlns:xlink="http://www.w3.org/1999/xlink">
    <title>Track Donation Sources with Campaigns </title>
    <g id="Getting-Started-Page---End-User" stroke="none" stroke-width="1" fill="none" fill-rule="evenodd">
        <g id="Getting-Started-Tab---End-User-Dec-2020" transform="translate(-186.000000, -2774.000000)" fill-rule="nonzero">
            <g id="Track-Donation-Sources-with-Campaigns-" transform="translate(186.000000, 2774.000000)">
                <ellipse id="Oval" fill="#E6E6E6" cx="20.0485437" cy="90.088058" rx="20.0485437" ry="1.52912621"></ellipse>
                <path d="M26.5418932,23.0151879 L18.5435726,20.8338282 C20.6793405,18.8184398 21.6084382,16.9198484 21.3308655,15.1380539 L26.5418932,15.1380539 L26.5418932,23.0151879 Z" id="Path" fill="#9F616A"></path>
                <polygon id="Path" fill="#2F2E41" points="27.3902184 84.3357282 24.8066748 84.6991505 21.6943932 56.0992233 16.7257524 84.5780097 14.0596359 84.6991505 14.0596359 48.5856068 30.541068 48.5856068"></polygon>
                <path d="M15.4014119,90.1011049 L15.4014119,90.1011049 C16.2358494,90.1249455 16.9791953,89.5771985 17.203584,88.7731437 L17.3922985,85.9570386 L17.0118757,83.9598197 C16.0081709,83.1349597 14.9934699,83.152142 13.9684966,83.9598197 L13.6416748,88.143159 C13.6029244,88.6391604 13.7692334,89.1293584 14.1017998,89.4993835 C14.4343662,89.8694087 14.904102,90.0868967 15.4014119,90.1011049 L15.4014119,90.1011049 Z" id="Path" fill="#2F2E41"></path>
                <path d="M26.0658388,90.1011049 L26.0658388,90.1011049 C26.9002764,90.1249455 27.6436223,89.5771985 27.8680109,88.7731437 L28.0567255,85.9570386 L27.6763044,83.9598197 C26.6725978,83.1349597 25.6578985,83.152142 24.6329235,83.9598197 L24.3061,88.1431607 C24.2673506,88.639162 24.4336603,89.1293595 24.7662269,89.4993842 C25.0987935,89.8694089 25.5685291,90.0868966 26.0658388,90.1011049 L26.0658388,90.1011049 Z" id="Path" fill="#2F2E41"></path>
                <circle id="Oval" fill="#9F616A" cx="25.451215" cy="14.289749" r="4.60509442"></circle>
                <path d="M31.268176,49.1915095 L13.6961066,49.1915095 C15.9736347,38.6364303 15.9672532,30.1354995 14.1530927,23.260475 C13.9138115,22.3541159 14.3952964,21.4129666 15.2703097,21.0766721 L19.9978141,19.2584017 C21.4171133,21.0913143 23.4199476,21.8918968 26.5418949,20.7126415 L29.0192119,21.2208092 C30.2666965,21.4751477 31.1344378,22.6120158 31.050741,23.8824097 C30.8684097,26.5712235 30.9403041,29.2806092 30.7834362,31.6194485 C30.2976566,38.8621107 30.0878604,44.5083396 31.268176,49.1915095 Z" id="Path" fill="#E6E6E6"></path>
                <path d="M23.027482,8.23041481 C23.027482,8.23041481 25.6935883,5.20074684 28.8444481,8.10922816 L29.6927546,8.35160146 L29.0868214,8.83634806 C29.0868214,8.83634806 32.2376709,10.2905879 31.9953027,13.3202558 C31.9953027,13.3202558 31.5105561,13.1990692 31.2681828,13.3202558 C31.0258095,13.4414425 30.9046211,14.7744956 30.9046211,14.7744956 C30.9046211,14.7744956 30.5410612,13.8050024 30.4198745,13.6838158 C30.2986879,13.5626291 28.6020833,15.016874 25.8147818,12.8355092 C25.8147818,12.8355092 24.9664752,15.0168689 23.9969905,14.7744956 C23.0275058,14.5321223 21.6944425,14.653309 21.0885092,16.2287371 C21.0884939,16.2287371 17.8164544,9.19990801 23.027482,8.23041481 Z" id="Path" fill="#2F2E41"></path>
                <path d="M32.1164825,46.5254117 L30.5608226,48.6104602 C30.2335319,49.0491269 30.0958954,49.6007537 30.1787487,50.1417555 C30.261602,50.6827574 30.5580191,51.1679098 31.0015915,51.4885204 L31.0015915,51.4885204 C31.5766074,51.9041363 32.3260547,51.9917368 32.9814205,51.7199361 C33.6367863,51.4481354 34.1042595,50.8558401 34.2163534,50.1552583 L34.6613988,47.3737233 L35.5097087,35.3762296 L34.9037755,29.3168954 L31.025801,30.7711352 L32.1164825,35.9821629 L32.1164825,46.5254117 Z" id="Path" fill="#9F616A"></path>
                <path d="M30.5410544,32.225375 L35.2673354,30.0440153 L35.0249621,28.327007 C35.0249612,25.4173766 33.2372135,22.8067273 30.5243869,21.7548141 L29.0868146,21.1973881 L30.5410544,32.225375 Z" id="Path" fill="#E6E6E6"></path>
                <path d="M13.3325466,46.0406566 L14.8882066,48.1257051 C15.2154972,48.5643718 15.3531337,49.1159986 15.2702804,49.6570004 C15.1874271,50.1980023 14.89101,50.6831547 14.4474376,51.0037653 L14.4474376,51.0037653 C13.8724217,51.4193812 13.1229744,51.5069817 12.4676086,51.235181 C11.8122428,50.9633803 11.3447696,50.371085 11.2326757,49.6705032 L10.7876303,46.8889682 L9.93932039,34.8914796 L10.5452536,28.8321454 L14.4232282,30.2863852 L13.3325466,35.4974129 L13.3325466,46.0406566 Z" id="Path" fill="#9F616A"></path>
                <path d="M14.9079748,31.7406301 L10.1816937,29.5592704 L10.424067,27.8422621 C10.4240679,24.9326317 12.2118156,22.3219824 14.9246422,21.2700692 L16.3622146,20.7126432 L14.9079748,31.7406301 Z" id="Path" fill="#E6E6E6"></path>
                <path d="M138.640777,78.109901 L57.7669903,78.109901 C57.0635477,78.1091331 56.4927184,77.5390717 56.4927184,76.8356291 L56.4927184,41.6657262 C56.4927184,40.9622836 57.0635477,40.3922222 57.7669903,40.3914544 L138.640777,40.3914544 C139.344219,40.3922222 139.915049,40.9622836 139.915049,41.6657262 L139.915049,76.8356291 C139.915049,77.5390717 139.344219,78.1091331 138.640777,78.109901 L138.640777,78.109901 Z M57.7669903,40.9011631 C57.3449247,40.9016238 57.0024272,41.2436606 57.0024272,41.6657262 L57.0024272,76.8356291 C57.0024272,77.2576951 57.3449243,77.5997325 57.7669903,77.6001922 L138.640777,77.6001922 C139.062843,77.5997325 139.40534,77.2576951 139.40534,76.8356291 L139.40534,41.6657262 C139.40534,41.2436606 139.062842,40.9016238 138.640777,40.9011631 L57.7669903,40.9011631 Z" id="Shape" fill="#E6E6E6"></path>
                <path d="M61.0800971,44.7239786 C60.6578405,44.7239786 60.315534,45.0662852 60.315534,45.4885417 C60.315534,45.9107983 60.6578405,46.2531049 61.0800971,46.2531049 L71.7839806,46.2531049 C72.2062371,46.2531049 72.5485437,45.9107983 72.5485437,45.4885417 C72.5485437,45.0662852 72.2062371,44.7239786 71.7839806,44.7239786 L61.0800971,44.7239786 Z" id="Path" fill="#E6E6E6"></path>
                <path d="M134.357584,50.0411158 L134.357584,64.2194408 L62.1775985,64.2194408 L62.1775985,56.7543044 C62.6774223,56.4333374 63.1802687,56.1138774 63.6876413,55.8049667 C65.8545473,54.4789068 68.1739769,53.2387396 70.7017857,52.7791301 C71.8972593,52.5562312 73.1221965,52.5409395 74.3228619,52.7339257 C75.591301,52.9433854 76.8053711,53.3803876 78.0073663,53.8188883 C79.1927449,54.2528731 80.3811478,54.7004143 81.6208954,54.9520711 C82.8290068,55.1892304 84.0692413,55.2137069 85.2857692,55.0243988 C87.6067024,54.6763085 89.7872024,53.7435432 91.958633,52.8996898 C94.1436677,52.0513102 96.3951379,51.2496437 98.7598653,51.1441595 C101.094384,51.0386752 103.400221,51.5902022 105.615448,52.2743265 C110.131987,53.6681998 114.743652,55.7356549 119.525958,54.3176672 C124.382247,52.8800983 128.848952,48.7301211 134.230734,49.9612563 C134.281672,49.9706802 134.327065,49.9992579 134.357584,50.0411158 Z" id="Path" fill="#E6E6E6"></path>
                <path d="M134.357584,50.2882515 C134.31021,50.3772162 134.208006,50.4220837 134.110451,50.396743 C133.469176,50.2497432 132.812294,50.1819313 132.154512,50.1948252 C126.86081,50.2882515 122.790702,54.5497291 117.614542,55.1871488 C112.947701,55.7612728 108.555125,53.4918983 104.167066,52.3059777 C101.887139,51.6896566 99.5363913,51.3626648 97.1901629,51.781574 C94.8620274,52.1959672 92.6770318,53.148324 90.4830075,53.9936964 C88.3703464,54.8074107 86.1748083,55.5638711 83.8873527,55.6015437 C81.3723546,55.6437323 79.1074961,54.6069915 76.7748345,53.817383 C75.5617905,53.4060056 74.3170988,53.0805141 73.0317272,53.0488731 C71.7789761,53.0338557 70.5324176,53.226847 69.3428563,53.6199813 C66.8640221,54.4080896 64.6308199,55.8125019 62.4563718,57.207884 C62.4191108,57.2342001 62.3737377,57.2464786 62.3282905,57.2425442 C62.2321983,57.2296933 62.1540538,57.1587802 62.1319617,57.0643831 C62.1098696,56.969986 62.1484297,56.87176 62.2288396,56.8176017 L62.3282905,56.7543044 C62.8270694,56.4333374 63.3288658,56.1138774 63.8351782,55.8049667 C65.9975614,54.4789068 68.3121488,53.2387396 70.8346803,52.7791301 C72.0276101,52.5562318 73.2500652,52.5409391 74.4481976,52.7339257 C75.7139879,52.9433854 76.9255231,53.3803876 78.1250104,53.8188883 C79.3079136,54.2528731 80.4938342,54.7004143 81.7309942,54.9520711 C82.9365271,55.1892293 84.1742502,55.2137073 85.3882172,55.0243988 C87.7043049,54.6763085 89.8802532,53.7435432 92.0471507,52.8996898 C94.2276235,52.0513102 96.4743908,51.2496437 98.8341842,51.1441595 C101.163828,51.0386752 103.464852,51.5902022 105.675456,52.2743265 C110.182566,53.6681998 114.784602,55.7356549 119.556925,54.3176672 C124.403076,52.8800983 128.860457,48.7301211 134.231003,49.9612563 C134.281858,49.9706988 134.327159,49.9992778 134.35758,50.0411107 C134.405066,50.1166476 134.405068,50.2127132 134.357584,50.2882515 Z" id="Path" fill="#FF9E2D"></path>
                <circle id="Oval" fill="#FF9E2D" cx="72.123066" cy="52.9177726" r="1.05482184"></circle>
                <circle id="Oval" fill="#FF9E2D" cx="98.7950029" cy="51.5615718" r="1.05482184"></circle>
                <circle id="Oval" fill="#FF9E2D" cx="131.343805" cy="50.2053711" r="1.05482184"></circle>
                <path d="M71.5291262,70.2094155 C71.1068697,70.2094155 70.7645631,70.5517221 70.7645631,70.9739786 C70.7645631,71.3962352 71.1068697,71.7385417 71.5291262,71.7385417 L82.2330097,71.7385417 C82.6552663,71.7385417 82.9975728,71.3962352 82.9975728,70.9739786 C82.9975728,70.5517221 82.6552663,70.2094155 82.2330097,70.2094155 L71.5291262,70.2094155 Z" id="Path" fill="#E6E6E6"></path>
                <circle id="Oval" fill="#FF9E2D" cx="64.6480583" cy="70.8890289" r="2.88834951"></circle>
                <path d="M97.3543689,70.2094155 C96.9321124,70.2094155 96.5898058,70.5517221 96.5898058,70.9739786 C96.5898058,71.3962352 96.9321124,71.7385417 97.3543689,71.7385417 L108.058252,71.7385417 C108.480509,71.7385417 108.822816,71.3962352 108.822816,70.9739786 C108.822816,70.5517221 108.480509,70.2094155 108.058252,70.2094155 L97.3543689,70.2094155 Z" id="Path" fill="#E6E6E6"></path>
                <circle id="Oval" fill="#FF9E2D" cx="90.473301" cy="70.8890289" r="2.88834951"></circle>
                <path d="M123.179612,70.2094155 C122.757355,70.2094155 122.415049,70.5517221 122.415049,70.9739786 C122.415049,71.3962352 122.757355,71.7385417 123.179612,71.7385417 L133.883495,71.7385417 C134.305752,71.7385417 134.648058,71.3962352 134.648058,70.9739786 C134.648058,70.5517221 134.305752,70.2094155 133.883495,70.2094155 L123.179612,70.2094155 Z" id="Path" fill="#E6E6E6"></path>
                <circle id="Oval" fill="#FF9E2D" cx="116.298544" cy="70.8890289" r="2.88834951"></circle>
                <path d="M133.10517,30.895482 L93.2055097,30.895482 C92.4276942,30.895482 91.7973544,30.4464286 91.7965049,29.8930549 L91.7965049,21.2208704 C91.7973544,20.6674966 92.4276942,20.2184432 93.2055097,20.2184432 L133.10517,20.2184432 C133.882985,20.2184432 134.513325,20.6674966 134.514175,21.2208704 L134.514175,29.892885 C134.513495,30.4462604 133.882985,30.8948024 133.10517,30.895482 Z M93.2055097,20.6190743 C92.7387864,20.6190743 92.3605825,20.8885403 92.3600728,21.2205306 L92.3600728,29.8925451 C92.3600728,30.2245354 92.7387864,30.4936617 93.2055097,30.4940015 L133.10517,30.4940015 C133.571893,30.4940015 133.950097,30.2245354 133.950607,29.8925451 L133.950607,21.2208704 C133.950607,20.8888801 133.571893,20.6197539 133.10517,20.6194141 L93.2055097,20.6190743 Z" id="e1cfef3e-7788-4f0f-b252-d185c9336b04" fill="#E6E6E6"></path>
                <path d="M102.227023,25.1468459 C101.758078,25.1473973 101.37806,25.5274151 101.377508,25.9963604 L101.377508,31.9429624 C101.37806,32.4119077 101.758078,32.7919255 102.227023,32.7924769 L132.639644,32.7924769 C133.10859,32.7919255 133.488608,32.4119077 133.489159,31.9429624 L133.489159,25.9963604 C133.488608,25.5274147 133.10859,25.1473964 132.639644,25.1468459 L102.227023,25.1468459 Z" id="Path" fill="#FF9E2D"></path>
                <circle id="Oval" fill="#FFFFFF" cx="106.474596" cy="29.0546129" r="1.86893204"></circle>
                <path d="M114.99215,28.2433961 C114.569893,28.2433961 114.227587,28.5857027 114.227587,29.0079592 C114.227587,29.4302158 114.569893,29.7725223 114.99215,29.7725223 L125.696033,29.7725223 C126.11829,29.7725223 126.460597,29.4302158 126.460597,29.0079592 C126.460597,28.5857027 126.11829,28.2433961 125.696033,28.2433961 L114.99215,28.2433961 Z" id="Path" fill="#FFFFFF"></path>
                <path d="M103.202257,10.6770354 L63.3025971,10.6770354 C62.5247816,10.6770354 61.8944417,10.227982 61.8935922,9.67460825 L61.8935922,1.00242379 C61.8944417,0.44905 62.5247816,-3.39805865e-06 63.3025971,-3.39805865e-06 L103.202257,-3.39805865e-06 C103.980073,-3.39805865e-06 104.610413,0.44905 104.611262,1.00242379 L104.611262,9.67443835 C104.610583,10.2278138 103.980073,10.6763558 103.202257,10.6770354 Z M63.3025971,0.40062767 C62.8358738,0.40062767 62.4576699,0.670093689 62.4571602,1.00208398 L62.4571602,9.67409854 C62.4571602,10.0060888 62.8358738,10.275215 63.3025971,10.2755549 L103.202257,10.2755549 C103.668981,10.2755549 104.047184,10.0060888 104.047694,9.67409854 L104.047694,1.00242379 C104.047694,0.670433495 103.668981,0.401307282 103.202257,0.400967476 L63.3025971,0.40062767 Z" id="b00e8b21-64f0-4b6c-8490-a93637cb24e1" fill="#E6E6E6"></path>
                <path d="M72.3241104,4.92839927 C71.8551651,4.92895072 71.4751473,5.3089685 71.4745959,5.77791383 L71.4745959,11.7245158 C71.4751473,12.1934611 71.8551651,12.5734789 72.3241104,12.5740303 L102.736732,12.5740303 C103.205677,12.5734789 103.585695,12.1934611 103.586246,11.7245158 L103.586246,5.77791383 C103.585696,5.30896811 103.205678,4.92894978 102.736732,4.92839927 L72.3241104,4.92839927 Z" id="Path" fill="#FF9E2D"></path>
                <circle id="Oval" fill="#FFFFFF" cx="76.5716833" cy="8.83616626" r="1.86893204"></circle>
                <path d="M85.0892374,8.02494951 C84.6669808,8.02494951 84.3246743,8.36725608 84.3246743,8.78951262 C84.3246743,9.21176917 84.6669808,9.55407573 85.0892374,9.55407573 L95.7931209,9.55407573 C96.2153774,9.55407573 96.557684,9.21176917 96.557684,8.78951262 C96.557684,8.36725608 96.2153774,8.02494951 95.7931209,8.02494951 L85.0892374,8.02494951 Z" id="Path" fill="#FFFFFF"></path>
            </g>
        </g>
    </g>
</svg>