<?xml version="1.0" encoding="UTF-8"?>
<svg width="140px" height="108px" viewBox="0 0 140 108" version="1.1" xmlns="http://www.w3.org/2000/svg" xmlns:xlink="http://www.w3.org/1999/xlink">
    <title>View a Dashboard</title>
    <defs>
        <linearGradient x1="49.9900369%" y1="100.00609%" x2="49.9900369%" y2="-0.00757959559%" id="linearGradient-1">
            <stop stop-color="#808080" stop-opacity="0.25" offset="0%"></stop>
            <stop stop-color="#808080" stop-opacity="0.12" offset="54%"></stop>
            <stop stop-color="#808080" stop-opacity="0.1" offset="100%"></stop>
        </linearGradient>
    </defs>
    <g id="Getting-Started-Page---End-User" stroke="none" stroke-width="1" fill="none" fill-rule="evenodd">
        <g id="Getting-Started-Tab---End-User-Dec-2020" transform="translate(-186.000000, -4215.000000)" fill-rule="nonzero">
            <g id="View-a-Dashboard" transform="translate(186.000000, 4215.000000)">
                <path d="M137.291681,24.4888496 C135.860945,21.7088829 133.984746,19.181895 131.737522,17.0081416 L54.6929204,16.3663717 L118.126549,8.83486726 C113.975965,7.44610745 109.633023,6.71782442 105.25646,6.67663717 C99.1497345,2.50761062 91.3010619,0.00619469027 82.74,0.00619469027 C75.0585841,0.00619469027 67.9557522,2.02442478 62.1649558,5.44884956 C57.2438938,3.30548673 51.6339823,2.0900885 45.6734513,2.0900885 C28.5550442,2.0900885 14.2911504,12.1130973 11.0909735,25.4056637 L137.291681,24.4888496 Z" id="Path" fill="#FF9E2D" opacity="0.1"></path>
                <path d="M140,35.6368142 C139.994696,31.99457 139.174291,28.3996879 137.598938,25.1157522 L4.07115044,36.9649558 C2.71582422,39.0311011 1.66242324,41.2801643 0.942831858,43.6440708 L42.2923894,48.8550442 L0,52.6536283 C1.27238938,67.7017699 16.5311504,79.5831858 35.1709735,79.5831858 C44.5534513,79.5831858 53.0785841,76.5725664 59.3959292,71.6626549 C65.7330973,76.6654867 74.34,79.7417699 83.8240708,79.7417699 C97.8946903,79.7417699 110.04,72.9684956 115.695752,63.1759292 C127.041947,60.1306195 135.855752,52.4863717 138.872566,42.9230088 L86.580708,36.0667257 L140,36.0667257 C140,35.9230088 140,35.780531 140,35.6368142 Z" id="Path" fill="#FF9E2D" opacity="0.1"></path>
                <ellipse id="Oval" fill="#FF9E2D" opacity="0.1" cx="61.9444248" cy="105.947788" rx="35.9267257" ry="1.60318584"></ellipse>
                <path d="M83.2677876,103.127965 L83.2677876,104.096814 L54.6173451,104.096814 L54.6173451,103.310088 C58.1906049,101.98624 60.613667,98.6392013 60.7555469,94.8312319 C60.8974268,91.0232624 58.7301494,87.5051942 55.2653097,85.919115 L83.0732743,85.919115 C79.6894991,87.4684174 77.5357404,90.8653972 77.5778033,94.586755 C77.6198661,98.3081127 79.8498575,101.655543 83.2677876,103.127965 L83.2677876,103.127965 Z" id="Path" fill="#C8CAD7"></path>
                <path d="M83.0732743,85.919115 C80.4849516,87.1074932 78.5724231,89.4020721 77.8697345,92.1621239 L60.4700885,92.1621239 C59.7670736,89.4022387 57.8546488,87.1077842 55.2665487,85.919115 L83.0732743,85.919115 Z" id="Path" fill="#000000" opacity="0.1"></path>
                <path d="M21.8053097,80.9831858 L21.8053097,86.4221239 C21.8053097,89.4253097 24.0031858,91.859823 26.7152212,91.859823 L111.015044,91.859823 C113.72708,91.859823 115.924956,89.4253097 115.924956,86.4221239 L115.924956,80.9831858 L21.8053097,80.9831858 Z" id="Path" fill="#C8CAD7"></path>
                <path d="M83.2677876,103.127965 L83.2677876,104.096814 L54.6173451,104.096814 L54.6173451,103.310088 C55.4027848,103.017813 56.1456892,102.621986 56.8263717,102.133097 L81.5109735,102.133097 C82.0594304,102.526412 82.6483853,102.859931 83.2677876,103.127965 L83.2677876,103.127965 Z" id="Path" fill="#000000" opacity="0.1"></path>
                <rect id="Rectangle" fill="#C8CAD7" x="45.1493805" y="102.435398" width="47.5863717" height="2.87061947" rx="1.43530973"></rect>
                <path d="M115.924956,21.3865487 C115.921537,18.6774994 113.724096,16.4833849 111.015044,16.4840682 L26.7189381,16.4840682 C24.0084358,16.4813321 21.808729,18.6760471 21.8053097,21.3865487 L21.8053097,82.0412389 L115.924956,82.0412389 L115.924956,21.3865487 Z" id="Path" fill="#474157"></path>
                <path d="M113.362832,23.5769912 L113.362832,75.6953982 C113.362832,76.3365718 113.108601,76.9515791 112.655223,77.4049574 C112.201845,77.8583357 111.586837,78.1125667 110.945664,78.1125667 L26.7945133,78.1125667 C26.1533397,78.1125667 25.5383324,77.8583357 25.0849541,77.4049574 C24.6315758,76.9515791 24.3773448,76.3365718 24.3773448,75.6953982 L24.3773448,23.5769912 C24.3773448,22.242026 25.4595482,21.1598151 26.7945133,21.1598151 L110.939469,21.1598151 C111.581615,21.1581773 112.198023,21.4121158 112.652671,21.8656013 C113.107319,22.3190867 113.362832,22.9348436 113.362832,23.5769912 Z" id="Path" fill="#4C4C78"></path>
                <circle id="Oval" fill="#FFFFFF" cx="68.8663717" cy="18.8182301" r="1.13362832"></circle>
                <circle id="Oval" fill="#FFFFFF" cx="68.8663717" cy="86.6488496" r="2.79504425"></circle>
                <path d="M43.180708,22.3690265 L43.180708,78.1125667 L26.7945133,78.1125667 C26.1533397,78.1125667 25.5383324,77.8583357 25.0849541,77.4049574 C24.6315758,76.9515791 24.3770162,76.3365718 24.3773448,75.6953982 L24.3773448,23.5769912 L24.4653097,23.2486726 L24.700708,22.3690265 L43.180708,22.3690265 Z" id="Path" fill="#FFFFFF"></path>
                <polygon id="Path" fill="#4C4C78" points="45.2831858 23.2486726 45.2831858 28.2663717 24.3773451 28.2663717 24.3773451 23.5769912 24.4653097 23.2486726"></polygon>
                <path d="M113.362832,23.5769912 L24.3773451,23.5769912 C24.3773451,22.9360322 24.6320498,22.3213433 25.0853924,21.868233 C25.538735,21.4151228 26.1535544,21.1607332 26.7945133,21.1610505 L110.939469,21.1610505 C111.5815,21.1590865 112.197913,21.4127488 112.652596,21.8660377 C113.10728,22.3193266 113.362832,22.9349568 113.362832,23.5769912 Z" id="Path" fill="#C8CAD7"></path>
                <circle id="Oval" fill="#EDEDF4" cx="26.7945133" cy="22.3690265" r="1"></circle>
                <circle id="Oval" fill="#EDEDF4" cx="28.6070796" cy="22.3690265" r="1"></circle>
                <circle id="Oval" fill="#EDEDF4" cx="30.419646" cy="22.3690265" r="1"></circle>
                <rect id="Rectangle" fill="#FF9E2D" x="27.5019469" y="25.4576991" width="12.5541593" height="1.1559292"></rect>
                <rect id="Rectangle" fill="#FF9E2D" opacity="0.5" x="27.5019469" y="31.0948673" width="12.5541593" height="1.1559292"></rect>
                <rect id="Rectangle" fill="#FF9E2D" opacity="0.5" x="27.5019469" y="35.080531" width="12.5541593" height="1.1559292"></rect>
                <rect id="Rectangle" fill="#FF9E2D" opacity="0.5" x="27.5019469" y="39.0661947" width="12.5541593" height="1.1559292"></rect>
                <rect id="Rectangle" fill="#FF9E2D" opacity="0.5" x="27.5019469" y="43.0506195" width="12.5541593" height="1.1559292"></rect>
                <rect id="Rectangle" fill="#FF9E2D" opacity="0.5" x="27.5019469" y="47.0362832" width="12.5541593" height="1.1559292"></rect>
                <rect id="Rectangle" fill="#FF9E2D" opacity="0.5" x="27.5019469" y="51.0219469" width="12.5541593" height="1.1559292"></rect>
                <rect id="Rectangle" fill="#FF9E2D" opacity="0.5" x="27.5019469" y="55.0063717" width="12.5541593" height="1.1559292"></rect>
                <rect id="Rectangle" fill="#DCE0ED" opacity="0.5" x="53.4589381" y="29.7084956" width="55.6295575" height="1"></rect>
                <rect id="Rectangle" fill="#DCE0ED" opacity="0.5" x="53.4589381" y="34.0237168" width="55.6295575" height="1"></rect>
                <rect id="Rectangle" fill="#DCE0ED" opacity="0.5" x="53.4589381" y="38.340177" width="55.6295575" height="1"></rect>
                <rect id="Rectangle" fill="#DCE0ED" opacity="0.5" x="53.4589381" y="42.6553982" width="55.6295575" height="1"></rect>
                <rect id="Rectangle" fill="#DCE0ED" opacity="0.5" x="53.4589381" y="46.9706195" width="55.6295575" height="1"></rect>
                <polygon id="Path" fill="#FF9E2D" opacity="0.5" points="109.089735 47.1552212 53.3907965 47.1552212 53.3907965 38.6684956 58.4989381 41.1860177 63.7854867 41.9021239 68.4240708 40.5033628 74.020354 36.1633628 76.8352212 34.5378761 78.8930973 34.1414159 80.8617699 34.2467257 84.100354 35.8461947 88.5010619 38.6499115 91.9552212 39.0946903 94.6945133 38.1506195 100.498938 33.3955752 103.462478 32.3387611 106.56354 32.8182301 109.089735 34.2764602"></polygon>
                <path d="M63.099115,41.9046018 C58.0838938,41.9046018 53.4477876,38.8369912 53.3907965,38.7973451 L53.5283186,38.5916814 C53.600177,38.64 60.7339823,43.360354 66.7961062,40.9952212 C69.0088496,40.1341593 70.579823,38.7923894 72.1061947,37.4964602 C73.6957522,36.1423009 75.1973451,34.8624779 77.2428319,34.3074336 C79.5968142,33.6718584 82.1552212,34.2479646 84.1040708,35.8486726 C85.7692035,37.2176991 89.0870796,39.4168142 92.5920354,38.7589381 C94.3785841,38.4244248 95.8851327,37.1185841 97.479646,35.7371681 C100.532389,33.0858407 103.699115,30.3490265 109.161593,34.2789381 L109.016637,34.479646 C103.707788,30.6649558 100.621593,33.3385841 97.6382301,35.9242478 C96.0176991,37.3292035 94.4863717,38.6499115 92.6341593,39.0030088 C89.0288496,39.6782301 85.6415929,37.4369912 83.9430088,36.040708 C82.0561062,34.4895575 79.5745133,33.9345133 77.3047788,34.5477876 C75.3113274,35.0879646 73.8357522,36.3492035 72.2635398,37.6847788 C70.7260177,38.9943363 69.1352212,40.3497345 66.8865487,41.2269027 C65.677259,41.6865788 64.3927704,41.916417 63.099115,41.9046018 L63.099115,41.9046018 Z" id="Path" fill="#FF9E2D"></path>
                <circle id="Oval" fill="#FF9E2D" cx="80.2274336" cy="34.1166372" r="1.37893805"></circle>
                <path d="M45.6697345,64.0828319 C43.7853097,62.9975221 43.0679646,62.7286726 43.0679646,62.7274336 L43.0295575,62.700177 C42.8237249,62.5423046 42.660261,62.3358464 42.5538053,62.099292 C42.5538053,62.0559292 42.5538053,62.0125664 42.5538053,61.9753982 L42.5538053,61.9877876 C42.5847788,61.4129204 42.9923894,60.8913274 43.380177,60.4353982 C43.7105605,60.0463717 44.040944,59.6577581 44.3713274,59.2695575 C44.485202,59.1516065 44.5722602,59.0104539 44.6265487,58.8557522 C44.6467374,58.7747582 44.6559056,58.6914104 44.6538053,58.6079646 C44.6538053,58.5732743 44.6538053,58.539823 44.6538053,58.5063717 C44.6538053,58.2164602 44.640177,57.9265487 44.6302655,57.639115 C44.620354,57.3851327 44.5559292,57.0667257 44.3019469,57.019646 C44.1706195,56.9923894 43.9971681,57.039469 43.9302655,56.9267257 C43.9059341,56.8806844 43.8997453,56.827195 43.9129204,56.7768142 C43.9129204,56.7768142 43.9129204,56.7842478 43.9129204,56.7879646 C43.9124385,56.7834346 43.9124385,56.7788663 43.9129204,56.7743363 C43.9617721,56.578849 43.9932807,56.3794328 44.0070796,56.1784071 C44.0115369,56.0764169 43.99769,55.9744529 43.9661947,55.8773451 C43.8187611,55.4573451 43.3145133,55.2851327 42.8684956,55.2058407 C42.4224779,55.1265487 41.9219469,55.0584071 41.6419469,54.7102655 C41.5651663,54.5941709 41.482461,54.4821052 41.3941593,54.3745133 C41.2644276,54.2601914 41.1066602,54.1823765 40.9369912,54.1490265 C40.3836574,54.0119456 39.8004361,54.0629448 39.279292,54.2939823 C39.0637168,54.3906195 38.8469027,54.519469 38.6102655,54.5058407 C38.3736283,54.4922124 38.1543363,54.32 37.9115044,54.279115 C37.52,54.2122124 37.1446018,54.500885 36.9513274,54.8415929 C36.8367119,55.0438127 36.7757232,55.2719874 36.7741593,55.5044248 C36.7741593,55.5168142 36.7741593,55.5304425 36.7741593,55.5428319 L36.7741593,55.5428319 C36.7692726,55.7927155 36.8606508,56.034912 37.0293805,56.219292 C37.1978761,56.3952212 37.4493805,56.5153982 37.5249558,56.7458407 C37.5534513,56.84 37.5472566,56.9415929 37.5720354,57.0357522 C37.5720354,57.0481416 37.579469,57.059292 37.5831858,57.0716814 L37.5695575,57.0877876 C37.1671159,57.6057304 36.9491026,58.2432012 36.9500885,58.899115 C36.9580797,60.2058197 37.809431,61.3576478 39.0562832,61.7486726 C39.0562832,61.7771681 39.0562832,61.8069027 39.0562832,61.8378761 C39.073299,62.2142726 38.9237531,62.579074 38.6474336,62.8352212 L35.9738053,63.9081416 C35.9738053,63.9081416 34.3631858,63.7173451 33.7833628,66.0700885 C33.6904234,66.4605259 33.6570079,66.8627646 33.6842478,67.2631858 C33.7053097,67.6187611 33.6557522,68.2431858 33.2431858,69.0509735 C32.5828319,70.3444248 32.7327434,73.3116814 34.0831858,73.6053097 C35.3580531,73.8828319 35.8573451,73.7676106 35.9093805,73.7539823 L35.9093805,73.8060177 C35.8883186,74.3635398 35.6863717,79.1656637 34.9516814,79.7529204 C34.7472566,79.9127434 34.7856637,80.0217699 34.9516814,80.0948673 C34.9516814,80.0948673 34.9516814,80.1258407 34.9516814,80.1815929 C34.9293805,80.5334513 34.8153982,81.8702655 34.3235398,82.6322124 C33.7585841,83.5106195 33.8230088,88.5902655 33.8230088,88.5902655 L33.4339823,91.5872566 C33.4339823,91.5872566 33.6730973,93.4382301 33.4339823,93.7615929 C33.219646,94.0502655 32.9384071,100.899115 32.8739823,102.383363 L32.8492035,102.383363 C32.6103535,102.397777 32.3941444,102.529544 32.2718584,102.735221 C31.9522124,103.248142 30.8495575,104.193451 30.8495575,104.193451 C30.6104425,104.534159 29.7233628,104.86 29.2550442,105.013628 C29.1923767,105.033761 29.1318004,105.0599 29.0741593,105.091681 C28.8988084,105.187175 28.7579411,105.33541 28.6715044,105.515398 C28.6099734,105.622453 28.5947608,105.74997 28.6293805,105.868496 C28.7532743,106.162124 31.239823,106.364071 31.8692035,106.074159 C32.3647788,105.843717 34.3272566,105.538938 35.1424779,105.42 C35.4467843,105.381662 35.6864403,105.142006 35.7247788,104.837699 C35.740569,104.734581 35.7137336,104.629476 35.6504425,104.546549 L35.6504425,104.546549 C35.4943363,104.353274 35.4138053,103.825487 35.3778761,103.481062 C35.4440401,103.453963 35.5058302,103.417223 35.5612389,103.372035 C35.4943557,102.30416 35.6474274,101.233923 36.0109735,100.227611 C36.6106195,98.6417699 36.7915044,95.7030088 36.6415929,93.7925664 C36.6415929,93.7925664 38.4715044,85.9166372 39.9123894,85.1819469 L39.9123894,85.1819469 C39.9346903,85.2092035 40.6334513,86.1061947 40.7226549,88.8838938 C40.8118584,91.7049558 41.8315044,93.5559292 41.8315044,93.5559292 C41.8315044,93.5559292 41.3817699,98.3456637 41.8315044,100.138407 L41.240531,102.961947 C41.2158854,102.941716 41.1923135,102.920212 41.1699115,102.897522 C41.1699115,102.897522 41.1872566,102.976814 41.2120354,103.101947 L41.199646,103.161416 L41.2244248,103.167611 C41.2913274,103.520708 41.3904425,104.13646 41.3483186,104.49823 C41.3247788,104.705133 41.2677876,104.986372 41.2244248,105.263894 C41.1624779,105.698761 41.1451327,106.121239 41.3743363,106.21292 C41.7460177,106.364071 43.9550442,106.570973 44.3304425,106.089027 C44.5020586,105.887521 44.5443299,105.606033 44.439469,105.363009 C44.4122379,105.29653 44.3755139,105.234349 44.3304425,105.178407 C44.3304425,105.178407 43.7444248,104.220708 43.9104425,103.545487 C43.9411739,103.412411 43.9156226,103.272552 43.839823,103.158938 C43.9257508,102.090026 44.0976939,101.029779 44.3539823,99.9884956 C44.7256637,98.5748673 45.5210619,95.4750442 44.9387611,93.4357522 L44.9387611,93.4357522 C44.9164602,93.3564602 44.8916814,93.2771681 44.8644248,93.200354 C44.52804,92.0874578 44.4156076,90.9189182 44.5336283,89.7623009 C44.316911,88.7750572 44.316911,87.7525534 44.5336283,86.7653097 C44.8904425,85.1212389 45.1419469,83.5106195 45.1419469,83.5106195 C45.1419469,83.5106195 45.340177,81.3362832 45.1667257,80.0031858 L45.1555752,79.9176991 L45.2497345,79.8966372 C45.2497345,79.8966372 44.740531,77.6343363 44.559646,76.1946903 C44.5175221,75.8539823 44.4617699,75.4240708 44.4010619,74.9644248 C44.5671556,74.9358836 44.7307763,74.8944606 44.8904425,74.840531 C46.5109735,74.2817699 47.020177,69.2269027 47.020177,69.2269027 L47.020177,67.6237168 C47.020177,67.6237168 47.560354,65.1743363 45.6697345,64.0828319 Z M33.6247237,103.130594 L33.5251681,103.077705 L33.5251681,103.077705 L33.6247237,103.130594 Z" id="Shape" fill="url(#linearGradient-1)"></path>
                <path d="M44.6922124,93.2486726 C45.3946903,95.2693805 44.5683186,98.5488496 44.1966372,100.013274 C43.9463399,101.072191 43.7806261,102.14933 43.7010619,103.234513 C42.8461045,103.378822 41.9714613,103.358638 41.1240708,103.175044 L41.7435398,100.159469 C41.3049558,98.3729204 41.7435398,93.599292 41.7435398,93.599292 C41.7435398,93.599292 40.7523894,91.7532743 40.660708,88.9421239 C40.5739823,86.1755752 39.8925664,85.2810619 39.8702655,85.2525664 L39.8702655,85.2525664 C38.4541593,85.9884956 36.6725664,93.8346903 36.6725664,93.8346903 C36.8187611,95.7376991 36.6428319,98.6665487 36.0530973,100.248673 C35.6976491,101.252984 35.5480687,102.318587 35.6132743,103.381947 C35.4088496,103.554159 35.1238938,103.583894 34.8166372,103.534336 C33.980354,103.399292 32.9780531,102.67823 32.9780531,102.67823 C32.9780531,102.67823 33.300177,94.1295575 33.5343363,93.8049558 C33.7684956,93.480354 33.5343363,91.6380531 33.5343363,91.6380531 L33.9146903,88.6509735 C33.9146903,88.6509735 33.8564602,83.5849558 34.4102655,82.7040708 C34.8909735,81.9446018 35.0012389,80.6115044 35.0235398,80.2621239 C35.0235398,80.2063717 35.0235398,80.1753982 35.0235398,80.1753982 L35.8709735,79.160708 C35.8709735,79.160708 44.0715044,78.5412389 44.6860177,79.160708 C44.8371681,79.3118584 44.9338053,79.6562832 44.9858407,80.0874336 C45.1543363,81.4155752 44.9610619,83.5824779 44.9610619,83.5824779 C44.9610619,83.5824779 44.7132743,85.1930973 44.3638938,86.8322124 C44.1524227,87.8166772 44.1524227,88.8348272 44.3638938,89.819292 C44.2494576,90.9728929 44.3609764,92.1377391 44.6922124,93.2486726 L44.6922124,93.2486726 Z" id="Path" fill="#65617D"></path>
                <path d="M44.179292,106.090265 C43.8138053,106.573451 41.6617699,106.369027 41.2950442,106.214159 C41.0707965,106.121239 41.0881416,105.701239 41.1488496,105.267611 C41.1872566,104.991327 41.2430088,104.710088 41.2653097,104.505664 C41.3247788,103.977876 41.0906195,102.908673 41.0906195,102.908673 C41.0906195,102.908673 41.5738053,103.421593 41.6902655,102.908673 C41.745153,102.70932 41.9058631,102.556717 42.1077876,102.512212 C42.3588156,102.436325 42.6287407,102.45303 42.8684956,102.559292 C43.2488496,102.724071 43.8831858,103.075929 43.7692035,103.550442 C43.6081416,104.223186 44.179292,105.177168 44.179292,105.177168 C44.2235928,105.233196 44.2594867,105.295384 44.2858407,105.36177 C44.3906131,105.605256 44.3494079,105.886985 44.179292,106.090265 L44.179292,106.090265 Z" id="Path" fill="#A27772"></path>
                <path d="M44.179292,106.090265 C43.8138053,106.573451 41.6617699,106.369027 41.2950442,106.214159 C41.0707965,106.121239 41.0881416,105.701239 41.1488496,105.267611 C41.379292,105.375398 41.7683186,105.465841 42.4274336,105.405133 C42.5805829,105.390279 42.7345304,105.385313 42.8883186,105.390265 C43.3542492,105.412118 43.8211165,105.403012 44.2858407,105.363009 C44.3901002,105.606151 44.3489171,105.887249 44.179292,106.090265 L44.179292,106.090265 Z" id="Path" fill="#000000" opacity="0.1"></path>
                <path d="M36.6725664,93.8346903 C36.8187611,95.7376991 36.6428319,98.6665487 36.0530973,100.248673 C35.6976491,101.252984 35.5480687,102.318587 35.6132743,103.381947 C35.4088496,103.554159 35.1238938,103.583894 34.8166372,103.534336 C34.9938053,102.295398 35.7458407,96.9766372 36.2290265,92.7729204 C36.7778761,87.9844248 39.3474336,84.6900885 39.3474336,84.6900885 L39.860354,85.2538053 C38.4541593,85.9884956 36.6725664,93.8346903 36.6725664,93.8346903 Z" id="Path" fill="#000000" opacity="0.1"></path>
                <path d="M43.300885,63.0557522 L42.9428319,64.8125664 L41.1922124,67.7562832 L39.0327434,66.8332743 C39.0327434,66.8332743 36.0964602,63.7582301 37.9412389,63.319646 C38.1623868,63.272405 38.3712559,63.1795743 38.5545133,63.0470796 C38.9162832,62.7732743 39.0302655,62.3768142 39.0327434,61.9877876 C39.0181564,61.5519517 38.9162001,61.1234823 38.7329204,60.7277876 L42.5104425,59.5421239 C42.3541806,60.0382661 42.2629763,60.5525919 42.239115,61.0722124 C42.2106195,62.100531 42.5922124,62.6084956 42.9056637,62.8500885 C43.0223389,62.9443621 43.156726,63.0142939 43.300885,63.0557522 Z" id="Path" fill="#FBBEBE"></path>
                <path d="M42.5104425,59.5421239 C42.3541806,60.0382661 42.2629763,60.5525919 42.239115,61.0722124 C41.4561705,62.0013698 40.1882682,62.3634177 39.0327434,61.9877876 C39.0181564,61.5519517 38.9162001,61.1234823 38.7329204,60.7277876 L42.5104425,59.5421239 Z" id="Path" fill="#000000" opacity="0.1"></path>
                <path d="M42.9428412,59.0589381 C42.9428412,60.7086566 41.6054707,62.0460177 39.9557522,62.0460177 C38.3060337,62.0460177 36.9686726,60.7086566 36.9686726,59.0589381 C36.9686726,57.4092195 38.3060337,56.0718491 39.9557522,56.0718491 C40.7485805,56.069878 41.5095071,56.3839512 42.070123,56.9445672 C42.630739,57.5051832 42.9448123,58.2661098 42.9428412,59.0589381 Z" id="Path" fill="#FBBEBE"></path>
                <path d="M43.300885,63.0557522 L42.9428319,64.8125664 L41.1922124,67.7562832 L39.0327434,66.8332743 C39.0327434,66.8332743 36.0964602,63.7582301 37.9412389,63.319646 C38.1623868,63.272405 38.3712559,63.1795743 38.5545133,63.0470796 C38.2212389,63.9626549 39.5964602,65.8669027 39.5964602,65.8669027 C39.7562832,66.1023009 40.1242478,65.9548673 40.1242478,65.9548673 C41.0088496,65.8210619 42.640531,63.2738053 42.9056637,62.8500885 C43.0223389,62.9443621 43.156726,63.0142939 43.300885,63.0557522 Z" id="Path" fill="#000000" opacity="0.1"></path>
                <path d="M44.9920354,80.0899115 C44.4716814,80.2138053 41.5948673,80.8444248 40.5046018,80.6858407 C39.3040708,80.5099115 36.9686726,80.3934513 36.9686726,80.3934513 C36.9686726,80.3934513 35.4819469,80.4727434 35.0260177,80.2695575 C35.0260177,80.2138053 35.0260177,80.1828319 35.0260177,80.1828319 L35.8734513,79.1681416 C35.8734513,79.1681416 44.0739823,78.5486726 44.6884956,79.1681416 C44.8495575,79.3143363 44.9362832,79.6575221 44.9920354,80.0899115 Z" id="Path" fill="#000000" opacity="0.1"></path>
                <path d="M39.5964602,65.9548673 C39.5964602,65.9548673 38.0515044,63.8152212 38.6338053,62.9814159 L36.0233628,64.0518584 C36.0233628,64.0518584 34.4523894,63.8610619 33.8861947,66.2051327 C33.7954505,66.5950731 33.7624732,66.9962275 33.7883186,67.3957522 C33.8093805,67.7488496 33.7610619,68.3707965 33.3584071,69.1761062 C32.7141593,70.4646018 32.8628319,73.4231858 34.1785841,73.7155752 C35.4943363,74.0079646 35.9651327,73.8617699 35.9651327,73.8617699 C35.9651327,73.8617699 35.7892035,79.2214159 35.0284956,79.8359292 C34.2677876,80.4504425 36.9699115,80.3042478 36.9699115,80.3042478 C36.9699115,80.3042478 39.3040708,80.4281416 40.5046018,80.5978761 C41.7051327,80.7676106 45.0725664,79.9784071 45.0725664,79.9784071 C45.0725664,79.9784071 44.5769912,77.7235398 44.3985841,76.2888496 C44.220177,74.8541593 43.8138053,71.7989381 43.8138053,71.7989381 L46.800885,67.7525664 C46.800885,67.7525664 47.3274336,65.3069027 45.4826549,64.2240708 C43.6378761,63.1412389 42.9428319,62.8736283 42.9428319,62.8736283 C42.9428319,62.8736283 41.0844248,65.8929204 40.1230088,66.039115 C40.1230088,66.0415929 39.7562832,66.1902655 39.5964602,65.9548673 Z" id="Path" fill="#FF748E"></path>
                <path d="M36.1695575,66.8047788 C36.1695575,66.8047788 36.1410619,67.7711504 36.3169912,68.1515044 C36.4929204,68.5318584 37.1359292,70.640531 37.1359292,70.640531 L35.6727434,70.640531 C35.6727434,70.640531 36.4631858,69.7918584 36.4049558,69.3817699 C36.3467257,68.9716814 36.1695575,66.8047788 36.1695575,66.8047788 Z" id="Path" fill="#000000" opacity="0.1"></path>
                <path d="M40.5046018,74.0946903 C40.5046018,74.0946903 37.2709735,73.3042478 36.9699115,72.6315044 C36.6688496,71.9587611 35.8375221,70.4497345 35.8375221,70.4497345 L36.1782301,69.9900885 L37.7516814,71.2290265 C37.7516814,71.2290265 39.6261947,72.7157522 40.5046018,72.8693805 C41.3830088,73.0230088 40.5046018,74.0946903 40.5046018,74.0946903 Z" id="Path" fill="#FBBEBE"></path>
                <path d="M40.5046018,74.0946903 C40.5046018,74.0946903 37.2709735,73.3042478 36.9699115,72.6315044 C36.6688496,71.9587611 35.8375221,70.4497345 35.8375221,70.4497345 L36.1782301,69.9900885 L37.7516814,71.2290265 C37.7516814,71.2290265 39.6261947,72.7157522 40.5046018,72.8693805 C41.3830088,73.0230088 40.5046018,74.0946903 40.5046018,74.0946903 Z" id="Path" fill="#000000" opacity="0.05"></path>
                <path d="M43.300885,70.2899115 L43.300885,72.0442478 L43.0184071,72.0442478 C41.6251098,72.0442581 40.2547539,72.3989987 39.0364602,73.0750442 L38.5086726,73.3674336 L38.3661947,73.4467257 L37.4580531,71.4024779 L38.3079646,70.640531 L38.3513274,70.640531 C38.559469,70.660354 39.4576991,70.7346903 39.8380531,70.6070796 C40.2184071,70.479469 40.6495575,70.0941593 41.7138053,70.3667257 C42.239115,70.500531 42.6863717,71.0890265 43.200531,70.9056637 L43.300885,70.2899115 Z" id="Path" fill="#FBBEBE"></path>
                <path d="M46.1269027,67.0971681 L46.7129204,67.7562832 L46.7129204,69.3520354 C46.7129204,69.3520354 46.2173451,74.3895575 44.6339823,74.9458407 C43.0506195,75.5021239 40.2295575,74.6237168 40.2295575,74.6237168 C40.2295575,74.6237168 39.499823,72.6909735 39.840531,72.5732743 C40.1812389,72.4555752 42.8561062,71.7506195 42.8561062,71.7506195 C42.8561062,71.7506195 42.8176991,68.7957522 43.4037168,67.9173451 C43.4037168,67.9173451 43.0233628,65.1644248 44.340354,65.1061947 C45.6573451,65.0479646 46.1269027,67.0971681 46.1269027,67.0971681 Z" id="Path" fill="#000000" opacity="0.1"></path>
                <path d="M46.2123894,67.0971681 L46.7984071,67.7562832 L46.7984071,69.3520354 C46.7984071,69.3520354 46.3028319,74.3895575 44.7182301,74.9458407 C43.1336283,75.5021239 40.3150442,74.6237168 40.3150442,74.6237168 C40.3150442,74.6237168 39.5853097,72.6909735 39.9260177,72.5732743 C40.2667257,72.4555752 42.940354,71.7506195 42.940354,71.7506195 C42.940354,71.7506195 42.9031858,68.7957522 43.4892035,67.9173451 C43.4892035,67.9173451 43.1076106,65.1644248 44.4258407,65.1061947 C45.7440708,65.0479646 46.2123894,67.0971681 46.2123894,67.0971681 Z" id="Path" fill="#FF748E"></path>
                <path d="M42.1238938,60.3276106 C42.1499572,60.1350375 42.1269442,59.9390008 42.0569912,59.7576991 C41.9814919,59.5733922 41.791,59.4633755 41.5936283,59.4900885 C41.3458407,59.5483186 41.2343363,59.8741593 40.9890265,59.9522124 C40.7821239,60.0178761 40.5553982,59.8716814 40.4562832,59.6784071 C40.373326,59.4769333 40.338539,59.2588778 40.3546903,59.0415929 C40.3546903,58.7938053 40.3546903,58.5522124 40.3546903,58.3069027 C40.3546903,58.040531 40.3460177,57.7530973 40.1812389,57.5437168 C39.9768142,57.2835398 39.4973451,57.1720354 39.1776991,57.180708 C38.9643664,57.1829164 38.7596422,57.2651599 38.6040708,57.4111504 C38.4458285,57.5704441 38.2240648,57.649678 38.000708,57.6267257 C37.8022759,57.5962551 37.6389433,57.4546039 37.580708,57.2624779 C37.5801534,57.2591973 37.5801534,57.2558469 37.580708,57.2525664 C38.2593757,56.3552861 39.3846314,55.9154304 40.4918951,56.1146005 C41.5991588,56.3137707 42.5006009,57.1181808 42.8240464,58.1957172 C43.147492,59.2732536 42.8380737,60.4411293 42.0235398,61.2171681 C42.0730176,60.9226769 42.1065179,60.6257233 42.1238938,60.3276106 Z" id="Path" fill="#000000" opacity="0.1"></path>
                <path d="M37.999469,57.5387611 C37.8009565,57.5078836 37.6374396,57.3664895 37.5782301,57.1745133 C37.5546903,57.080354 37.560885,56.9787611 37.5323894,56.8858407 C37.4642478,56.6553982 37.2189381,56.5352212 37.0541593,56.360531 C36.7246018,56.0111504 36.7456637,55.4350442 36.9785841,55.0138053 C37.1681416,54.6743363 37.5336283,54.3881416 37.9164602,54.4538053 C38.1530973,54.4959292 38.3575221,54.6644248 38.5978761,54.679292 C38.8382301,54.6941593 39.040177,54.5653097 39.2507965,54.4686726 C39.7582756,54.2387844 40.3287969,54.1881102 40.8688496,54.3249558 C41.0350715,54.3579784 41.1892196,54.4354807 41.3148673,54.5492035 C41.4001438,54.6563291 41.4795522,54.7679972 41.5527434,54.8837168 C41.8253097,55.2318584 42.3146903,55.3 42.7495575,55.379292 C43.1844248,55.4585841 43.6775221,55.6270796 43.82,56.0495575 C43.9153982,56.3270796 43.82,56.6281416 43.7692035,56.9168142 C43.7502711,56.9759769 43.7542507,57.0400927 43.780354,57.0964602 C43.8484956,57.2092035 44.0182301,57.1621239 44.1520354,57.1881416 C44.399823,57.240177 44.4617699,57.559823 44.4704425,57.8076106 C44.4820059,58.0950442 44.4898525,58.3841298 44.4939823,58.6748673 C44.5012838,58.7824644 44.4929373,58.8905516 44.4692035,58.9957522 C44.415758,59.1458617 44.3313343,59.2830501 44.2214159,59.3984071 L43.2538053,60.560531 C42.8251327,61.0759292 42.3704425,61.6755752 42.4559292,62.340885 C42.2527434,62.4313274 42.0123894,62.2566372 41.9454867,62.0435398 C41.8785841,61.8304425 41.9318584,61.6024779 41.9776991,61.3844248 C42.0556181,61.0073526 42.1065438,60.6252031 42.1300885,60.240885 C42.1562021,60.0479049 42.1331907,59.8514556 42.0631858,59.6697345 C41.9872207,59.4852341 41.7962947,59.3752607 41.5985841,59.4021239 C41.3507965,59.460354 41.240531,59.7861947 40.9952212,59.8642478 C40.7883186,59.9311504 40.5615929,59.7837168 40.4624779,59.5904425 C40.3800889,59.3888092 40.3453233,59.170888 40.360885,58.9536283 L40.360885,58.2189381 C40.360885,57.9525664 40.3522124,57.6651327 40.1874336,57.4557522 C39.9842478,57.1955752 39.5035398,57.0840708 39.1838938,57.0927434 C38.9705611,57.0949518 38.7658369,57.1771953 38.6102655,57.3231858 C38.4503229,57.4846318 38.2253166,57.5640458 37.999469,57.5387611 L37.999469,57.5387611 Z" id="Path" fill="#7C5C5C"></path>
                <path d="M38.6734513,66.7316814 L39.5915044,70.4980531 C39.5915044,70.4980531 40.3138053,70.4943363 38.6734513,66.7316814 Z" id="Path" fill="#000000" opacity="0.1"></path>
                <path d="M41.8079646,66.1010619 C41.8079646,66.1010619 40.6061947,68.0684956 41.0757522,70.1015929 L41.2987611,70.1176991 C41.2987611,70.1176991 40.899823,69.1761062 41.8079646,66.1010619 Z" id="Path" fill="#000000" opacity="0.1"></path>
                <path d="M42.5686726,77.2304425 C42.5686726,77.2304425 44.0430088,76.7423009 44.1507965,77.8746903 C44.1507965,77.8746903 43.8720354,77.0978761 42.5686726,77.2304425 Z" id="Path" fill="#000000" opacity="0.1"></path>
                <path d="M38.3079646,70.7284956 C38.3079646,70.7284956 38.0155752,72.7789381 38.5421239,73.599115 C37.7159432,73.8901618 36.8390402,74.0094712 35.9651327,73.9497345 L35.7892035,70.7284956 L38.3079646,70.7284956 Z" id="Path" fill="#000000" opacity="0.1"></path>
                <path d="M38.5086726,73.3674336 L38.3661947,73.4467257 L37.4580531,71.4024779 L38.3079646,70.640531 L38.3513274,70.640531 L38.3513274,70.640531 C38.3376991,70.739646 38.1010619,72.500177 38.5086726,73.3674336 Z" id="Path" fill="#000000" opacity="0.1"></path>
                <path d="M38.3079646,70.640531 C38.3079646,70.640531 38.0155752,72.6909735 38.5421239,73.5111504 C37.7159432,73.8021972 36.8390402,73.9215066 35.9651327,73.8617699 L34.940531,70.640531 L38.3079646,70.640531 Z" id="Path" fill="#FF748E"></path>
                <path d="M35.7743363,104.843894 C35.7396638,105.144465 35.505505,105.383215 35.2056637,105.423717 C34.4115044,105.547611 32.4948673,105.844956 32.0116814,106.075398 C31.3922124,106.369027 28.9663717,106.163363 28.8486726,105.870973 C28.8153332,105.752345 28.8304857,105.625332 28.8907965,105.517876 C29.005279,105.282382 29.2105335,105.103511 29.459469,105.022301 C29.9178761,104.868673 30.7826549,104.54531 31.0155752,104.205841 C31.0155752,104.205841 32.0934513,103.26177 32.400708,102.752566 C32.5178871,102.548517 32.7295946,102.41684 32.9644248,102.401947 C33.220885,102.389558 33.5058407,102.519646 33.6235398,103.080885 C33.6235398,103.080885 35.0284956,103.882478 35.4088496,103.18 C35.4088496,103.18 35.4670796,104.259115 35.7,104.555221 L35.7,104.555221 C35.7622497,104.637698 35.7890078,104.741609 35.7743363,104.843894 L35.7743363,104.843894 Z" id="Path" fill="#A27772"></path>
                <path d="M35.7743363,104.843894 C35.7396638,105.144465 35.505505,105.383215 35.2056637,105.423717 C34.4115044,105.547611 32.4948673,105.844956 32.0116814,106.075398 C31.3922124,106.369027 28.9663717,106.163363 28.8486726,105.870973 C28.8153332,105.752345 28.8304857,105.625332 28.8907965,105.517876 C28.974292,105.339748 29.1116864,105.192385 29.2835398,105.096637 C29.68,105.359292 30.559646,105.616991 32.4948673,105.31469 C34.340885,105.026018 35.2539823,104.74354 35.7,104.551504 L35.7,104.551504 C35.7632293,104.634938 35.7900396,104.740392 35.7743363,104.843894 L35.7743363,104.843894 Z" id="Path" fill="#000000" opacity="0.1"></path>
                <g id="Group" opacity="0.1" transform="translate(36.796460, 55.628319)" fill="#000000">
                    <path d="M6.97436623,1.32814159 C6.97511561,1.32320381 6.97511561,1.31821212 6.97436623,1.31327434 C7.04708879,1.09659492 7.08524115,0.873480624 7.08792179,0.64920354 C7.06447136,0.828542403 7.02654098,1.00649194 6.97436623,1.1819469 C6.96040864,1.23004448 6.96040864,1.28004401 6.97436623,1.32814159 L6.97436623,1.32814159 Z" id="Path"></path>
                    <path d="M5.26053097,4.06867257 C5.30645935,4.17429897 5.33088745,4.28801598 5.33238938,4.40318584 C5.34571227,4.24440446 5.32108181,4.0847311 5.26053097,3.93734513 C5.18464335,3.75265816 4.99386878,3.64226327 4.7959292,3.66849558 C4.54814159,3.72672566 4.43787611,4.05380531 4.19256637,4.13185841 C3.98566372,4.19752212 3.75893805,4.0500885 3.65982301,3.85681416 C3.57628402,3.65550461 3.54147474,3.43730982 3.55823009,3.22 C3.55823009,2.97221239 3.55823009,2.73061947 3.55823009,2.48654867 C3.55823009,2.22017699 3.54955752,1.93274336 3.38477876,1.72336283 C3.18035398,1.4619469 2.70088496,1.35168142 2.38,1.35911504 C2.16683145,1.3614841 1.9624117,1.44422543 1.80761062,1.59079646 C1.64914314,1.74963809 1.42740907,1.82840604 1.20424779,1.80513274 C1.00508031,1.77567678 0.840906242,1.63371449 0.78300885,1.44088496 C0.758230088,1.34672566 0.765663717,1.24637168 0.737168142,1.15221239 C0.669026549,0.921769912 0.423716814,0.802831858 0.258938053,0.628141593 C0.105233046,0.45773283 0.0173701015,0.238075469 0.0111504425,0.00867256637 C-0.0126191268,0.282318313 0.0769551542,0.553728385 0.258938053,0.759469027 C0.423716814,0.934159292 0.669026549,1.05433628 0.737168142,1.28477876 C0.765663717,1.37769912 0.758230088,1.47929204 0.78300885,1.57345133 C0.841959487,1.76559643 1.00560554,1.90710213 1.20424779,1.93769912 C1.42760462,1.96065143 1.64936837,1.88141756 1.80761062,1.72212389 C1.96313074,1.57777089 2.16659589,1.49612002 2.37876106,1.49292035 C2.69964602,1.48300885 3.17911504,1.59699115 3.38353982,1.85716814 C3.54831858,2.06654867 3.55575221,2.35274336 3.55699115,2.62035398 C3.55699115,2.86814159 3.55699115,3.10973451 3.55699115,3.35380531 C3.54013263,3.57152257 3.57494212,3.79014316 3.65858407,3.99185841 C3.75769912,4.18513274 3.98442478,4.33132743 4.19132743,4.26566372 C4.43911504,4.18761062 4.54442478,3.86176991 4.79469027,3.80230088 C4.99224974,3.77599528 5.18299998,3.88506789 5.26053097,4.06867257 L5.26053097,4.06867257 Z" id="Path"></path>
                    <path d="M7.66778761,3.26212389 C7.61406615,3.41246827 7.52968623,3.55000753 7.42,3.6660177 C7.09622419,4.05256637 6.77368732,4.43952802 6.45238938,4.82690265 C6.0460177,5.31628319 5.61486726,5.88247788 5.64584071,6.50690265 C5.67557522,5.93451327 6.07451327,5.41415929 6.45238938,4.95946903 L7.42,3.79734513 C7.52965596,3.68178619 7.61404347,3.54465648 7.66778761,3.39469027 C7.69164137,3.28908793 7.69998856,3.18057455 7.69256637,3.07256637 C7.69188602,3.13651359 7.68356747,3.20015047 7.66778761,3.26212389 Z" id="Path"></path>
                    <path d="M5.14283186,6.31115044 C5.12685908,6.26003088 5.11688066,6.20722839 5.11309735,6.15380531 C5.10496431,6.25104139 5.11504843,6.34894134 5.14283186,6.44247788 C5.20849558,6.65557522 5.4500885,6.83026549 5.65327434,6.73982301 C5.65327434,6.69646018 5.64460177,6.65309735 5.64336283,6.6159292 C5.44265487,6.69646018 5.20353982,6.51929204 5.14283186,6.31115044 Z" id="Path"></path>
                </g>
                <path d="M32.2123894,103.013982 C32.2123894,103.013982 32.5184071,103.551681 33.6284956,103.077168" id="Path" fill="#000000" opacity="0.1"></path>
                <path d="M41.5849558,103.142832 C41.5849558,103.142832 42.5426549,104.269027 43.7481416,103.514513" id="Path" fill="#000000" opacity="0.1"></path>
                <path d="M44.3700885,89.8217699 C44.3700885,89.8217699 43.6936283,90.2442478 43.6713274,90.4858407 C43.6490265,90.7274336 44.020708,90.3099115 44.020708,90.3099115 L44.3700885,89.8217699 Z" id="Path" fill="#000000" opacity="0.1"></path>
                <path d="M44.6364602,93.060354 C44.4017075,93.2563595 44.1093661,93.3703379 43.8038938,93.3849558 C43.2984071,93.4072566 43.340531,94.0663717 43.6713274,93.8681416 C44.0021239,93.6699115 44.6364602,93.060354 44.6364602,93.060354 Z" id="Path" fill="#000000" opacity="0.1"></path>
                <path d="M44.7653097,93.4828319 C44.7653097,93.4828319 44.440708,95.0761062 44.1768142,94.7688496" id="Path" fill="#000000" opacity="0.1"></path>
                <g id="Group" opacity="0.5" transform="translate(58.353982, 56.743363)" fill="#DCE0ED">
                    <rect id="Rectangle" x="0.0210619469" y="0.0805309735" width="8.17699115" height="1.73451327"></rect>
                    <rect id="Rectangle" x="18.7971681" y="0.0805309735" width="8.17699115" height="1.73451327"></rect>
                    <rect id="Rectangle" x="37.5732743" y="0.0805309735" width="8.17699115" height="1.73451327"></rect>
                </g>
                <ellipse id="Oval" fill="#FF9E2D" opacity="0.1" cx="118.037345" cy="99.2748673" rx="3.33646018" ry="1"></ellipse>
                <ellipse id="Oval" fill="#FF9E2D" opacity="0.1" cx="14.2750442" cy="106.392566" rx="3.33646018" ry="1"></ellipse>
                <ellipse id="Oval" fill="#FF9E2D" cx="110.735044" cy="105.315929" rx="4.98176991" ry="1"></ellipse>
                <path d="M112.794159,103.939469 C113.021613,103.754185 113.18715,103.503938 113.268673,103.222124 C113.330619,102.937168 113.209204,102.59646 112.937876,102.492389 C112.633097,102.375929 112.307257,102.586549 112.059469,102.800885 C111.811681,103.015221 111.530442,103.256814 111.20708,103.212212 C111.544726,102.905481 111.69704,102.444306 111.608496,101.996814 C111.59464,101.905589 111.556078,101.819897 111.496991,101.749027 C111.327257,101.568142 111.021239,101.644956 110.818053,101.787434 C110.173805,102.240885 109.994159,103.115575 109.990442,103.90354 C109.926018,103.619823 109.980531,103.323717 109.979292,103.036283 C109.978053,102.74885 109.897522,102.416814 109.652212,102.264425 C109.499977,102.18312 109.329151,102.142976 109.156637,102.147965 C108.866726,102.136814 108.543363,102.16531 108.346372,102.377168 C108.098584,102.641062 108.164248,103.082124 108.377345,103.368319 C108.590442,103.654513 108.917522,103.839115 109.216106,104.039823 C109.456068,104.183122 109.660949,104.378267 109.815752,104.610973 C109.833391,104.643819 109.847909,104.678247 109.859115,104.713805 L111.675398,104.713805 C112.081271,104.506889 112.457548,104.246454 112.794159,103.939469 Z" id="Path" fill="#FF9E2D"></path>
                <path d="M14.4274336,98.0297345 C14.4274336,98.0297345 15.1088496,98.920531 14.1139823,100.259823 C13.119115,101.599115 12.2989381,102.737699 12.6272566,103.57646 C12.6272566,103.57646 14.1288496,101.08 15.3529204,101.04531 C16.5769912,101.010619 15.7716814,99.5313274 14.4274336,98.0297345 Z" id="Path" fill="#FF9E2D"></path>
                <path d="M14.4274336,98.0297345 C14.487035,98.11602 14.534166,98.2102821 14.5674336,98.3097345 C15.759292,99.7097345 16.3936283,101.016814 15.2476106,101.049027 C14.180885,101.08 12.9010619,102.987965 12.5938053,103.469912 C12.6039111,103.50725 12.6159029,103.544052 12.6297345,103.580177 C12.6297345,103.580177 14.1313274,101.083717 15.3553982,101.049027 C16.579469,101.014336 15.7716814,99.5313274 14.4274336,98.0297345 Z" id="Path" fill="#000000" opacity="0.1"></path>
                <path d="M15.6923894,99.1646018 C15.6923894,99.4780531 15.6576991,99.7320354 15.6143363,99.7320354 C15.5709735,99.7320354 15.5362832,99.4842478 15.5362832,99.1646018 C15.5362832,98.8449558 15.579646,98.9985841 15.6230088,98.9985841 C15.6663717,98.9985841 15.6923894,98.8511504 15.6923894,99.1646018 Z" id="Path" fill="#FFD037"></path>
                <path d="M16.1272566,99.5387611 C15.8522124,99.6886726 15.6118584,99.779115 15.5920354,99.740708 C15.5722124,99.7023009 15.7766372,99.5499115 16.0516814,99.4 C16.3267257,99.2500885 16.2189381,99.359115 16.2387611,99.4 C16.2585841,99.440885 16.4023009,99.3888496 16.1272566,99.5387611 Z" id="Path" fill="#FFD037"></path>
                <path d="M10.8332743,98.0297345 C10.8332743,98.0297345 10.1518584,98.920531 11.1467257,100.259823 C12.1415929,101.599115 12.9617699,102.737699 12.6334513,103.57646 C12.6334513,103.57646 11.1330973,101.08 9.90778761,101.04531 C8.68247788,101.010619 9.48902655,99.5313274 10.8332743,98.0297345 Z" id="Path" fill="#FF9E2D"></path>
                <path d="M10.8332743,98.0297345 C10.773673,98.11602 10.7265419,98.2102821 10.6932743,98.3097345 C9.50141593,99.7097345 8.86707965,101.016814 10.0130973,101.049027 C11.079823,101.08 12.359646,102.987965 12.6669027,103.469912 C12.6569399,103.507441 12.6445238,103.544275 12.6297345,103.580177 C12.6297345,103.580177 11.1293805,101.083717 9.9040708,101.049027 C8.67876106,101.014336 9.48902655,99.5313274 10.8332743,98.0297345 Z" id="Path" fill="#000000" opacity="0.1"></path>
                <path d="M9.56707965,99.1646018 C9.56707965,99.4780531 9.60300885,99.7320354 9.64637168,99.7320354 C9.68973451,99.7320354 9.72442478,99.4842478 9.72442478,99.1646018 C9.72442478,98.8449558 9.68106195,98.9985841 9.63769912,98.9985841 C9.59433628,98.9985841 9.56707965,98.8511504 9.56707965,99.1646018 Z" id="Path" fill="#FFD037"></path>
                <path d="M9.13345133,99.5387611 C9.40849558,99.6886726 9.64761062,99.779115 9.66867257,99.740708 C9.68973451,99.7023009 9.4840708,99.5499115 9.20902655,99.4 C8.9339823,99.2500885 9.04176991,99.359115 9.02070796,99.4 C8.99964602,99.440885 8.85840708,99.3888496 9.13345133,99.5387611 Z" id="Path" fill="#FFD037"></path>
                <path d="M9.78761062,103.463717 C9.78761062,103.463717 11.6906195,103.404248 12.2654867,102.996637 C12.840354,102.589027 15.1930973,102.099646 15.3355752,102.755044 C15.4780531,103.410442 18.1950442,106.012212 16.0467257,106.029558 C13.8984071,106.046903 11.0550442,105.695044 10.4826549,105.346903 C9.91026549,104.998761 9.78761062,103.463717 9.78761062,103.463717 Z" id="Path" fill="#A8A8A8"></path>
                <path d="M16.080177,105.801593 C13.9318584,105.818938 11.0872566,105.46708 10.5148673,105.118938 C10.08,104.852566 9.90530973,103.899823 9.84831858,103.461239 L9.78389381,103.461239 C9.78389381,103.461239 9.90778761,104.995044 10.4776991,105.344425 C11.0476106,105.693805 13.8934513,106.044425 16.0417699,106.02708 C16.6612389,106.02708 16.8755752,105.801593 16.8644248,105.474513 C16.7776991,105.675221 16.5410619,105.797876 16.080177,105.801593 Z" id="Path" fill="#000000" opacity="0.2"></path>
                <path d="M57.7964602,68.9369912 C57.7964602,66.4046018 59.8568142,64.459469 62.3904425,64.459469 L62.4263717,64.459469 L62.4263717,63.3072566 L62.3904425,63.3072566 C59.2212389,63.3072566 56.6442478,65.7690265 56.6442478,68.9369912 C56.6440633,70.5952177 57.3620865,72.1722481 58.6129204,73.260885 L59.4293805,72.4444248 C58.3941948,71.5735031 57.796558,70.2898082 57.7964602,68.9369912 L57.7964602,68.9369912 Z" id="Path" fill="#FF9E2D"></path>
                <path d="M62.5415929,63.3084956 L62.5415929,64.460708 C64.5692141,64.4742402 66.3480267,65.8158343 66.9183013,67.7616548 C67.4885759,69.7074754 66.7153479,71.797013 65.0157999,72.9028916 C63.3162519,74.0087701 61.0926091,73.8692659 59.5446018,72.559646 L58.7256637,73.3761062 C60.6438798,75.0532918 63.4377719,75.2662316 65.5880121,73.8991283 C67.7382523,72.5320249 68.7307862,69.9117095 68.0258706,67.4631184 C67.320955,65.0145272 65.0871129,63.323041 62.539115,63.3084956 L62.5415929,63.3084956 Z" id="Path" fill="#FF9E2D" opacity="0.5"></path>
                <path d="M100.20531,64.4012389 C102.737699,64.4012389 104.682832,66.4615929 104.682832,68.9952212 C104.682832,69.0063717 104.682832,69.0187611 104.682832,69.0311504 L105.835044,69.0311504 C105.835044,69.0187611 105.835044,69.0063717 105.835044,68.9952212 C105.835044,65.8272566 103.373274,63.2490263 100.20531,63.2490263 C98.5470123,63.2485153 96.9698529,63.9665974 95.8814159,65.2176991 L96.6978761,66.0341593 C97.5687978,64.9989736 98.8524927,64.4013368 100.20531,64.4012389 Z" id="Path" fill="#FF9E2D" opacity="0.5"></path>
                <path d="M105.833805,69.1463717 L104.681593,69.1463717 C104.668061,71.1739929 103.326467,72.9528054 101.380646,73.52308 C99.4348255,74.0933546 97.3452879,73.3201267 96.2394093,71.6205787 C95.1335308,69.9210306 95.273035,67.6973879 96.5826549,66.1493805 L95.7699115,65.3329204 C94.0927259,67.2511364 93.8797861,70.0450285 95.2468894,72.1952687 C96.6139928,74.3455089 99.2343082,75.3380429 101.682899,74.6331273 C104.13149,73.9282117 105.822977,71.6943695 105.837522,69.1463717 L105.833805,69.1463717 Z" id="Path" fill="#FF9E2D"></path>
                <path d="M83.5044248,63.6454867 L83.2752212,64.7927434 C84.9614159,65.4729204 86.039292,67.1256637 86.039292,69.0522124 C86.0399869,71.3456653 84.3486674,73.2880964 82.0769198,73.6028812 C79.8051721,73.9176661 77.6494115,72.5083059 77.0264688,70.3010748 C76.4035261,68.0938436 77.5043675,65.7653788 79.6054867,64.8460177 L79.0950442,63.8115044 C76.4871683,64.9854567 75.1402726,67.8991622 75.9355863,70.6462801 C76.7309,73.3933981 79.4260921,75.1368852 82.2577878,74.7360358 C85.0894835,74.3351864 87.1948689,71.9121387 87.1964602,69.0522124 C87.1964602,66.5656637 85.7246018,64.4446018 83.5044248,63.6454867 Z" id="Path" fill="#FF9E2D" opacity="0.5"></path>
                <path d="M81.5952212,64.3925664 C82.1455075,64.3923731 82.6899496,64.5053943 83.1946903,64.7246018 L83.4238938,63.5785841 C82.8404215,63.3539942 82.2204248,63.23932 81.5952212,63.2403471 C80.7834948,63.2403274 79.981058,63.4130625 79.2412389,63.7470796 L79.7566372,64.779115 C80.3358935,64.5236379 80.9621287,64.3919766 81.5952212,64.3925664 Z" id="Path" fill="#FF9E2D"></path>
            </g>
        </g>
    </g>
</svg>