<?xml version="1.0" encoding="UTF-8"?>
<svg width="140px" height="131px" viewBox="0 0 140 131" version="1.1" xmlns="http://www.w3.org/2000/svg" xmlns:xlink="http://www.w3.org/1999/xlink">
    <title>What is Nonprofit Success Pack_undraw_personal_finance_tqcd</title>
    <g id="Getting-Started-Page---End-User" stroke="none" stroke-width="1" fill="none" fill-rule="evenodd">
        <g id="Getting-Started-Tab---End-User-Dec-2020" transform="translate(-186.000000, -881.000000)" fill-rule="nonzero">
            <g id="What-is-Nonprofit-Success-Pack_undraw_personal_finance_tqcd" transform="translate(186.000000, 881.000000)">
                <path d="M111.419428,92.9560443 C111.419428,92.9560443 128.726032,93.8507959 124.694954,99.2988718 C120.663876,104.746948 110.071658,96.1029929 110.071658,96.1029929 L111.419428,92.9560443 Z" id="Path" fill="#FFB8B8"></path>
                <path d="M79.5263473,41.0639475 L83.0490112,41.9446099 C83.0490112,41.9446099 85.1038991,48.1092736 86.5716769,53.6868255 C88.0394548,59.2643773 90.9750087,75.9970471 90.9750087,75.9970471 L113.733525,91.9468155 L111.019108,98.0190115 L80.7006369,86.0699669 L73.9487936,59.5579386 L79.5263473,41.0639475 Z" id="Path" fill="#575A89"></path>
                <polygon id="Path" fill="#000000" opacity="0.2" points="82.8407643 52.0063439 81.5277962 79.5007389 84.2675159 87.6751338 76.2420382 81.7897834"></polygon>
                <path d="M87.5991271,100.802474 C87.5991271,100.802474 91.4153488,111.076913 92.0024589,118.122243 C92.5895689,125.167572 93.1766754,130.745126 93.1766754,130.745126 L75.2697926,130.745126 L71.7471287,125.461128 L71.7471287,130.745126 L50.9046938,130.745126 C50.9046938,130.745126 45.033586,111.664025 47.3820316,109.315581 C49.7304772,106.967137 72.0406882,96.9862538 72.0406882,96.9862538 L87.5991271,100.802474 Z" id="Path" fill="#2F2E41"></path>
                <rect id="Rectangle" fill="#3F3D56" x="18.1019108" y="130.47761" width="103.617834" height="1"></rect>
                <circle id="Oval" fill="#FFB8B8" cx="65.142132" cy="18.7537348" r="11.1551055"></circle>
                <path d="M56.6290245,23.4506224 L55.748362,36.3670599 L66.9034675,51.338387 L72.4810176,37.2477223 C72.4810176,37.2477223 67.490574,34.0186125 70.4261386,27.2668387 L56.6290245,23.4506224 Z" id="Path" fill="#FFB8B8"></path>
                <path d="M89.2129901,103.297404 C89.2129901,105.940461 81.8741366,110.049515 81.8741366,110.049515 L81.8741366,111.517285 L78.9385952,112.985056 L72.4807608,100.069387 L70.720506,114.158559 C70.720506,114.158559 57.8030538,116.214865 53.6940092,114.158559 C49.5831811,112.104037 47.5286589,112.985056 41.6575761,110.930534 C35.7864932,108.876011 44.0063659,81.2808522 44.0063659,81.2808522 L38.1352831,38.7155019 L50.9617799,32.3022535 L51.6377034,31.9634 L53.4015251,31.638814 L56.1052194,31.139451 L65.1419073,37.2477312 L65.8695506,41.0642917 L66.3171939,43.4130815 L68.6642003,40.7700242 L70.4369391,34.9399605 L83.0494232,41.9453108 L79.5271302,70.1254382 C79.5271302,70.1254382 89.2129901,100.65613 89.2129901,103.297404 Z" id="Path" fill="#575A89"></path>
                <path d="M46.061038,112.397912 C46.061038,112.397912 59.5645873,123.259463 53.1063676,125.314351 C46.648148,127.369239 43.1254841,114.159246 43.1254841,114.159246 L46.061038,112.397912 Z" id="Path" fill="#FFB8B8"></path>
                <path d="M41.0705873,39.3026138 L38.1350334,38.7155055 C38.1350334,38.7155055 33.7317017,41.0639493 33.4381457,45.7608352 C33.1445898,50.457721 29.3283699,83.3359292 29.3283699,83.3359292 L41.6576973,116.50769 L51.6385827,112.69147 L41.9512532,81.5745936 L49.2901335,54.5674968 L41.0705873,39.3026138 Z" id="Path" fill="#575A89"></path>
                <circle id="Oval" fill="#2F2E41" cx="66.433121" cy="47.190986" r="1.07006369"></circle>
                <circle id="Oval" fill="#2F2E41" cx="66.433121" cy="54.1464" r="1.07006369"></circle>
                <circle id="Oval" fill="#2F2E41" cx="72.4968153" cy="99.9807949" r="1.07006369"></circle>
                <path d="M55.7239985,7.32583618 L53.6619126,6.50029096 C53.6619126,6.50029096 57.9735345,1.75343847 63.9723633,2.16621911 L62.2851654,0.308743694 C62.2851654,0.308743694 66.4093335,-1.34232 70.1585745,2.99175006 C72.1294803,5.27006726 74.4098359,7.94812459 75.8313977,10.9649141 L78.039747,10.9649141 L77.1180655,12.9943559 L80.3439508,15.0237977 L77.0328884,14.6592627 C77.2301886,15.7706078 77.2604728,16.9051811 77.1227399,18.025469 C76.9806989,19.1460983 76.4088329,20.1677089 75.5278331,20.874692 L75.5278331,20.874692 C75.5278331,20.874692 72.9704647,15.5812082 72.9704647,14.7556647 L72.9704647,16.8195162 C72.9704647,16.8195162 70.9083806,14.9620639 70.9083806,13.7237577 L69.7836189,15.1684525 L62.2851654,15.1684525 L63.4099271,13.3110003 L59.0982963,13.9301427 L60.7855032,11.6598973 L54.1099108,21.0345327 C54.1099108,21.0345327 50.2876112,10.4215929 55.7239985,7.32583618 Z" id="Path" fill="#2F2E41"></path>
                <circle id="Oval" fill="#3F3D56" cx="122.058178" cy="68.402946" r="17.8343949"></circle>
                <circle id="Oval" fill="#000000" opacity="0.1" cx="122.058178" cy="68.402946" r="15.3375796"></circle>
                <path d="M121.323238,77.4535269 L121.323238,75.221185 C120.194796,75.1991702 119.027406,74.801185 118.346484,74.2486487 L118.813388,72.7678303 C119.622585,73.3742411 120.603924,73.7071029 121.615068,73.7181361 C122.996481,73.7181361 123.930374,72.8119704 123.930374,71.5521613 C123.930374,70.3364904 123.171556,69.5850739 121.731816,68.9219322 C119.747281,68.0378813 118.521564,67.0211068 118.521564,65.0982647 C118.521564,63.2636994 119.66948,61.8712629 121.459466,61.5397465 L121.459466,59.3074046 L122.665708,59.3074046 L122.665708,61.4513646 C123.565191,61.4636441 124.442554,61.7319657 125.195039,62.2249029 L124.70857,63.6837065 C123.986885,63.1896906 123.131699,62.9275207 122.257137,62.9321829 C120.759071,62.9321829 120.194801,63.9488558 120.194801,64.8330084 C120.194801,65.9823103 120.91467,66.5569613 122.607383,67.352732 C124.611296,68.2810122 125.623084,69.4303231 125.623084,71.3974087 C125.623084,73.1434851 124.552969,74.7791666 122.54897,75.154709 L122.54897,77.4535269 L121.323238,77.4535269 Z" id="Path" fill="#FF9E2D"></path>
                <polygon id="Path" fill="#000000" opacity="0.2" points="44.586879 90.0405096 51.7197452 112.321554 46.0127389 89.1368408"></polygon>
                <path d="M8.22045401,46.5126904 L3.69288611,46.5126904 C3.282016,46.5122324 2.94905419,46.1792706 2.94859618,45.7684005 L2.94859618,39.2600662 C2.94905419,38.8491961 3.282016,38.5162343 3.69288611,38.5157763 L8.22045401,38.5157763 C8.63132413,38.5162343 8.96428593,38.8491961 8.96474395,39.2600662 L8.96474395,45.7684005 C8.96428593,46.1792706 8.63132413,46.5122324 8.22045401,46.5126904 L8.22045401,46.5126904 Z M3.69288611,38.8724642 C3.47892778,38.8727256 3.30554547,39.0461079 3.30528408,39.2600662 L3.30528408,45.7684005 C3.30554547,45.9823588 3.47892778,46.1557412 3.69288611,46.1560025 L8.22045401,46.1560025 C8.43441234,46.1557412 8.60779466,45.9823588 8.60805605,45.7684005 L8.60805605,39.2600662 C8.60779466,39.0461079 8.43441234,38.8727256 8.22045401,38.8724642 L3.69288611,38.8724642 Z" id="Shape" fill="#3F3D56"></path>
                <path d="M16.4901969,46.5126904 L12.4015228,46.5126904 C11.8695244,46.5120664 11.43841,46.0809521 11.437786,45.5489536 L11.437786,32.405149 C11.43841,31.8731506 11.8695244,31.4420363 12.4015228,31.4414122 L16.4901969,31.4414122 C17.0221954,31.4420363 17.4533097,31.8731506 17.4539338,32.405149 L17.4539338,45.548959 C17.4533068,46.0809553 17.0221933,46.5120664 16.4901969,46.5126904 Z M12.4015228,31.7980948 C12.0664117,31.7984634 11.7948425,32.0700326 11.7944739,32.4051437 L11.7944739,45.5489536 C11.7948425,45.8840647 12.0664117,46.155634 12.4015228,46.1560025 L16.4901969,46.1560025 C16.825308,46.155634 17.0968773,45.8840647 17.0972459,45.5489536 L17.0972459,32.405149 C17.0968773,32.070038 16.825308,31.7984687 16.4901969,31.7980948 L12.4015228,31.7980948 Z" id="Shape" fill="#3F3D56"></path>
                <path d="M24.8215078,46.5126904 L21.0485916,46.5126904 C20.429432,46.5119867 19.9276795,46.0102342 19.9269758,45.3910746 L19.9269758,26.0546884 C19.9276795,25.4355288 20.429432,24.9337763 21.0485916,24.9330726 L24.8215078,24.9330726 C25.4406674,24.9337763 25.9424199,25.4355288 25.9431236,26.0546884 L25.9431236,45.3910746 C25.9424199,46.0102342 25.4406674,46.5119867 24.8215078,46.5126904 L24.8215078,46.5126904 Z M21.0485916,25.2897605 C20.626332,25.2902391 20.2841423,25.6324288 20.2836637,26.0546884 L20.2836637,45.3910746 C20.2841423,45.8133342 20.626332,46.1555239 21.0485916,46.1560025 L24.8215078,46.1560025 C25.2437674,46.1555239 25.585957,45.8133342 25.5864357,45.3910746 L25.5864357,26.0546884 C25.585957,25.6324288 25.2437674,25.2902391 24.8215078,25.2897605 L21.0485916,25.2897605 Z" id="Shape" fill="#3F3D56"></path>
                <rect id="Rectangle" fill="#FF9E2D" x="4.2588535" y="39.7552382" width="3.39566879" height="5.51796178"></rect>
                <rect id="Rectangle" fill="#FF9E2D" x="12.7480255" y="32.7516713" width="3.39566879" height="12.5215287"></rect>
                <rect id="Rectangle" fill="#FF9E2D" x="21.2371975" y="26.2433068" width="3.39566879" height="19.0298932"></rect>
                <path d="M128.942675,26.0031363 L105.22293,26.0031363 C105.175626,26.0031363 105.130257,25.9843628 105.096808,25.9509142 C105.063359,25.9174655 105.044586,25.8720959 105.044586,25.8247924 L105.044586,1.74835924 C105.044586,1.64986259 105.124433,1.57001529 105.22293,1.57001529 C105.321427,1.57001529 105.401274,1.64986259 105.401274,1.74835924 L105.401274,25.6464484 L128.942675,25.6464484 C129.041172,25.6464484 129.121019,25.7262957 129.121019,25.8247924 C129.121019,25.923289 129.041172,26.0031363 128.942675,26.0031363 Z" id="Path" fill="#3F3D56"></path>
                <path d="M28.3566879,49.0095057 L0.178343949,49.0095057 C0.131040422,49.0095057 0.0856707918,48.9907322 0.052222146,48.9572836 C0.0187735002,48.9238349 -6.03990797e-09,48.8784653 -6.03990797e-09,48.8311618 L-6.03990797e-09,20.8311618 C-6.03990797e-09,20.7326651 0.0798473058,20.6528178 0.178343949,20.6528178 C0.276840592,20.6528178 0.356687898,20.7326651 0.356687898,20.8311618 L0.356687898,48.6528178 L28.3566879,48.6528178 C28.4551845,48.6528178 28.5350318,48.7326651 28.5350318,48.8311618 C28.5350318,48.9296584 28.4551845,49.0095057 28.3566879,49.0095057 Z" id="Path" fill="#3F3D56"></path>
                <path d="M113.408639,23.7680033 L108.881071,23.7680033 C108.47017,23.7675866 108.137159,23.4346147 108.136694,23.0237134 L108.136694,16.5153773 C108.137158,16.1044756 108.470169,15.7715031 108.881071,15.7710874 L113.408639,15.7710874 C113.819481,15.7715798 114.152397,16.1045356 114.152842,16.5153773 L114.152842,23.0237223 C114.152392,23.4345606 113.819477,23.7675109 113.408639,23.7680033 L113.408639,23.7680033 Z M108.881071,16.1277753 C108.667095,16.1280287 108.493683,16.3014016 108.493382,16.5153773 L108.493382,23.0237223 C108.493683,23.237698 108.667095,23.4110709 108.881071,23.4113243 L113.408639,23.4113243 C113.622581,23.411057 113.795935,23.237664 113.796154,23.0237223 L113.796154,16.5153773 C113.795935,16.3014356 113.622581,16.1280427 113.408639,16.1277753 L108.881071,16.1277753 Z" id="Shape" fill="#3F3D56"></path>
                <path d="M122.680609,23.7680033 L118.513387,23.7680033 C118.003034,23.7674047 117.589473,23.3538054 117.588923,22.8434522 L117.588923,11.0549868 C117.589481,10.5446513 118.003051,10.1310821 118.513387,10.1305248 L122.680609,10.1305248 C123.190944,10.1310831 123.604513,10.544652 123.605071,11.0549868 L123.605071,22.8434522 C123.60452,23.3538047 123.190961,23.7674037 122.680609,23.7680033 L122.680609,23.7680033 Z M118.513387,10.4872127 C118.199952,10.4875469 117.945946,10.7415521 117.945611,11.0549868 L117.945611,22.8434522 C117.945906,23.1569181 118.199921,23.4109723 118.513387,23.4113154 L122.680609,23.4113154 C122.994074,23.4109723 123.248089,23.1569178 123.248383,22.8434522 L123.248383,11.0549868 C123.248048,10.7415528 122.994043,10.4875479 122.680609,10.4872127 L118.513387,10.4872127 Z" id="Shape" fill="#3F3D56"></path>
                <rect id="Rectangle" fill="#FF9E2D" x="109.365509" y="17.0723312" width="3.39566879" height="5.51796178"></rect>
                <rect id="Rectangle" fill="#FF9E2D" x="118.899186" y="11.6110953" width="3.39566879" height="10.6763287"></rect>
                <circle id="Oval" fill="#FF9E2D" cx="111.10828" cy="12.2706522" r="1.60509554"></circle>
                <circle id="Oval" fill="#FF9E2D" cx="120.56051" cy="6.20695796" r="1.60509554"></circle>
            </g>
        </g>
    </g>
</svg>