<?xml version="1.0" encoding="UTF-8"?>
<svg width="140px" height="95px" viewBox="0 0 140 95" version="1.1" xmlns="http://www.w3.org/2000/svg" xmlns:xlink="http://www.w3.org/1999/xlink">
    <title>What is Nonprofit Cloud_modified_undraw_going_up_ttm5</title>
    <defs>
        <linearGradient x1="49.717378%" y1="100.026683%" x2="49.717378%" y2="0.0585614138%" id="linearGradient-1">
            <stop stop-color="#808080" stop-opacity="0.25" offset="0%"></stop>
            <stop stop-color="#808080" stop-opacity="0.12" offset="54%"></stop>
            <stop stop-color="#808080" stop-opacity="0.1" offset="100%"></stop>
        </linearGradient>
        <linearGradient x1="45.5757784%" y1="52.0510431%" x2="56.1896281%" y2="48.4794202%" id="linearGradient-2">
            <stop stop-color="#808080" stop-opacity="0.25" offset="0%"></stop>
            <stop stop-color="#808080" stop-opacity="0.12" offset="54%"></stop>
            <stop stop-color="#808080" stop-opacity="0.1" offset="100%"></stop>
        </linearGradient>
    </defs>
    <g id="Getting-Started-Page---End-User" stroke="none" stroke-width="1" fill="none" fill-rule="evenodd">
        <g id="Getting-Started-Tab---End-User-Dec-2020" transform="translate(-186.000000, -698.000000)">
            <g id="What-is-Nonprofit-Cloud_modified_undraw_going_up_ttm5" transform="translate(186.000000, 698.000000)">
                <path d="M97.4473684,27.0912281 C97.5578947,26.9438596 97.6070175,26.7596491 97.6192982,26.5754386 C97.6192982,25.4578947 95.3350877,24.5491228 92.522807,24.5491228 C89.7105263,24.5491228 87.4263158,25.4578947 87.4263158,26.5754386 C87.4263158,26.7842105 87.5,26.9807018 87.6350877,27.1526316 C84.5035088,27.5087719 82.3912281,28.1596491 82.3912281,28.9087719 C82.3912281,30.0263158 87.0578947,30.9350877 92.8298246,30.9350877 C98.6017544,30.9350877 103.268421,30.0263158 103.268421,28.9087719 C103.268421,28.1105263 100.885965,27.422807 97.4473684,27.0912281 Z" id="Path" fill="#FF9E2D" fill-rule="nonzero" opacity="0.1"></path>
                <g id="Group" opacity="0.2" transform="translate(103.157895, 5.280702)" fill-rule="nonzero">
                    <path d="M8.60877193,80.5368421 C8.55964912,80.8561404 8.54736842,81.1754386 8.55964912,81.5070175 C10.6964912,81.5438596 12.845614,81.6175439 15.0070175,81.7280702 C15.0192982,81.6421053 15.0315789,81.5561404 15.0438596,81.4701754 C15.1789474,80.5736842 15.0807018,79.6526316 14.7368421,78.8052632 C14.2947368,77.7245614 13.4596491,76.9508772 12.4280702,76.8035088 C11.3964912,76.6561404 10.377193,77.1596491 9.65263158,78.0684211 C9.0877193,78.7807018 8.73157895,79.6280702 8.60877193,80.5368421 Z" id="Path" fill="#3F3D56"></path>
                    <ellipse id="Oval" fill="#3F3D56" transform="translate(12.574257, 75.856420) rotate(-81.818849) translate(-12.574257, -75.856420) " cx="12.5742572" cy="75.8564198" rx="4.26130407" ry="3.25431002"></ellipse>
                    <ellipse id="Oval" fill="#3F3D56" transform="translate(13.316685, 70.710957) rotate(-81.818849) translate(-13.316685, -70.710957) " cx="13.3166846" cy="70.7109568" rx="4.26130407" ry="3.25431002"></ellipse>
                    <ellipse id="Oval" fill="#3F3D56" transform="translate(14.048307, 65.562862) rotate(-81.818849) translate(-14.048307, -65.562862) " cx="14.0483074" cy="65.5628621" rx="4.26130407" ry="3.25431002"></ellipse>
                    <ellipse id="Oval" fill="#3F3D56" transform="translate(14.792000, 60.416454) rotate(-81.818849) translate(-14.792000, -60.416454) " cx="14.7919996" cy="60.4164535" rx="4.26130407" ry="3.25431002"></ellipse>
                    <path d="M31.8929825,26.8947368 C32.4087719,26.3912281 32.9,25.8631579 33.3421053,25.2982456 L25.0894737,22.6947368 L34.2263158,24.0824561 C36.5596491,20.4719298 37.2964912,16.0754386 36.277193,11.9 L23.0877193,16.5052632 L35.6017544,9.8122807 C32.3964912,1.82982456 23.3210526,-2.03859649 15.3385965,1.16666667 C7.35614035,4.37192982 3.4877193,13.4473684 6.69298246,21.4298246 C6.96315789,22.1175439 7.29473684,22.7684211 7.65087719,23.4070175 C6.84035088,24.1807018 6.11578947,25.0403509 5.48947368,25.9614035 L15.645614,33.2438596 L4.50701754,27.6315789 C2.1245614,32.322807 2.28421053,37.9105263 4.9122807,42.4666667 C-1.31403509,48.3982456 -1.54736842,58.2596491 4.38421053,64.4859649 C10.3157895,70.7122807 20.177193,70.945614 26.4035088,65.0140351 C31.6105263,60.0526316 32.7403509,52.1807018 29.1421053,45.954386 C34.3614035,40.9929825 35.4912281,33.1210526 31.8929825,26.8947368 L31.8929825,26.8947368 Z" id="Path" fill="#FF9E2D"></path>
                    <path d="M2.99649123,32.4701754 C2.49298246,35.9333333 3.16842105,39.4578947 4.9245614,42.4789474 C-1.30175439,48.4105263 -1.53508772,58.2719298 4.39649123,64.4982456 C10.3280702,70.7245614 20.1894737,70.9578947 26.4157895,65.0263158 C31.622807,60.0649123 32.7526316,52.1929825 29.154386,45.9666667 C31.5982456,43.6333333 3.24210526,30.7385965 2.99649123,32.4701754 Z" id="Path" fill="#000000" opacity="0.1"></path>
                </g>
                <g id="Group" opacity="0.2" transform="translate(0.000000, 10.192982)" fill-rule="nonzero">
                    <path d="M20.4473684,71.0807018 C20.4964912,71.3631579 20.5701754,71.6333333 20.6684211,71.8912281 C22.4122807,71.3263158 24.1807018,70.7982456 25.9614035,70.2947368 C25.9491228,70.2210526 25.9368421,70.1473684 25.9245614,70.0736842 C25.8017544,69.2877193 25.4701754,68.5508772 24.9666667,67.9368421 C24.3157895,67.1631579 23.4438596,66.745614 22.5596491,66.9052632 C21.6754386,67.0649123 20.9877193,67.7649123 20.6438596,68.722807 C20.3614035,69.4842105 20.3,70.2947368 20.4473684,71.0807018 Z" id="Path" fill="#3F3D56"></path>
                    <ellipse id="Oval" fill="#3F3D56" transform="translate(22.415794, 66.092304) rotate(-8.992286) translate(-22.415794, -66.092304) " cx="22.4157942" cy="66.092304" rx="2.7754122" ry="3.72101724"></ellipse>
                    <ellipse id="Oval" fill="#3F3D56" transform="translate(21.991485, 61.700202) rotate(-9.177857) translate(-21.991485, -61.700202) " cx="21.9914849" cy="61.7002019" rx="2.787725" ry="3.73334097"></ellipse>
                    <ellipse id="Oval" fill="#3F3D56" transform="translate(20.867036, 57.127586) rotate(-8.992286) translate(-20.867036, -57.127586) " cx="20.8670356" cy="57.1275858" rx="2.7754122" ry="3.72101724"></ellipse>
                    <ellipse id="Oval" fill="#3F3D56" transform="translate(20.092816, 52.645417) rotate(-8.992286) translate(-20.092816, -52.645417) " cx="20.092816" cy="52.645417" rx="2.7754122" ry="3.72101724"></ellipse>
                    <path d="M25.0280702,20.1157895 C25.322807,19.5631579 25.5684211,18.9859649 25.777193,18.3964912 L18.3842105,18.5070175 L26.1701754,17.1315789 C26.6614035,15.2280702 26.7350877,13.2385965 26.4035088,11.2982456 C26.1087719,9.57894737 25.4947368,7.94561404 24.5859649,6.45964912 L15.1175439,13.9140351 L23.4807018,4.9122807 C20.5210526,1.32631579 15.8298246,-0.589473684 10.9912281,0.307017544 C3.74561404,1.63333333 -1.06842105,8.71929825 0.20877193,16.1245614 C0.712280702,19.1210526 2.19824561,21.8473684 4.44561404,23.8982456 C3.99122807,24.7701754 3.63508772,25.6789474 3.37719298,26.6122807 L13.5578947,29.854386 L3.02105263,28.2701754 C2.8,29.7438596 2.8245614,31.2298246 3.07017544,32.7035088 C3.57368421,35.7 5.05964912,38.4263158 7.30701754,40.477193 C5.89473684,43.1789474 5.41578947,46.2736842 5.93157895,49.2824561 C7.20877193,56.6877193 14.1105263,61.6122807 21.3438596,60.2736842 C28.577193,58.9350877 33.4035088,51.8614035 32.1263158,44.4561404 C31.622807,41.4596491 30.1368421,38.7333333 27.8894737,36.6824561 C29.3017544,33.9807018 29.7807018,30.8859649 29.2649123,27.877193 C28.7614035,24.9052632 27.2631579,22.1666667 25.0280702,20.1157895 Z" id="Path" fill="#FF9E2D"></path>
                    <path d="M3.07017544,32.7157895 C3.57368421,35.7122807 5.05964912,38.4385965 7.30701754,40.4894737 C5.89473684,43.1912281 5.41578947,46.2859649 5.93157895,49.2947368 C7.20877193,56.7 14.1105263,61.6245614 21.3438596,60.2859649 C28.577193,58.9473684 33.4035088,51.8736842 32.1263158,44.4684211 C31.622807,41.4719298 30.1368421,38.745614 27.8894737,36.6947368 C29.2526316,34.0912281 2.8122807,31.2052632 3.07017544,32.7157895 Z" id="Path" fill="#000000" opacity="0.1"></path>
                </g>
                <path d="M13.9877193,71.0315789 C13.9877193,77.454386 18.0157895,82.6491228 23.0017544,82.6491228" id="Path" fill="#46455B" fill-rule="nonzero"></path>
                <path d="M22.9894737,82.6491228 C22.9894737,76.1526316 27.4842105,70.8964912 33.0473684,70.8964912" id="Path" fill="#FF9E2D" fill-rule="nonzero"></path>
                <path d="M17.2421053,71.6087719 C17.2421053,77.7122807 19.8087719,82.6491228 22.9894737,82.6491228" id="Path" fill="#FF9E2D" fill-rule="nonzero"></path>
                <path d="M22.9894737,82.6491228 C22.9894737,74.3473684 28.1842105,67.6298246 34.6070175,67.6298246" id="Path" fill="#46455B" fill-rule="nonzero"></path>
                <ellipse id="Oval" fill="#FF9E2D" fill-rule="nonzero" opacity="0.1" cx="64.8175439" cy="87.5122807" rx="62.754386" ry="2.0877193"></ellipse>
                <ellipse id="Oval" fill="#FF9E2D" fill-rule="nonzero" opacity="0.1" cx="21.945614" cy="83.9140351" rx="2.29649123" ry="1"></ellipse>
                <path d="M20.4105263,82.1087719 C20.4105263,82.1087719 21.7245614,82.0719298 22.1175439,81.7894737 C22.5105263,81.5070175 24.1315789,81.1754386 24.2298246,81.6298246 C24.3280702,82.0842105 26.1947368,83.8649123 24.7210526,83.877193 C23.2473684,83.8894737 21.2947368,83.6438596 20.9017544,83.4105263 C20.5087719,83.177193 20.4105263,82.1087719 20.4105263,82.1087719 Z" id="Path" fill="#A8A8A8" fill-rule="nonzero"></path>
                <path d="M24.7333333,83.7175439 C23.2596491,83.7298246 21.3070175,83.4842105 20.9140351,83.2508772 C20.6192982,83.0666667 20.4964912,82.4157895 20.4596491,82.1087719 L20.4105263,82.1087719 C20.4105263,82.1087719 20.4964912,83.1649123 20.8894737,83.3982456 C21.2824561,83.6315789 23.2350877,83.877193 24.7087719,83.8649123 C25.1385965,83.8649123 25.2859649,83.7052632 25.2736842,83.4842105 C25.2245614,83.6315789 25.0526316,83.7175439 24.7333333,83.7175439 Z" id="Path" fill="#000000" fill-rule="nonzero" opacity="0.2"></path>
                <path d="M81.8263158,24.5736842 C80.2298246,24.5736842 78.7070175,24.9175439 77.3315789,25.5315789 C75.7473684,22.7192982 72.7754386,20.8157895 69.3736842,20.8157895 C66.8070175,20.8157895 64.4982456,21.8964912 62.8403509,23.6280702 C61.0105263,21.2333333 58.1245614,19.6859649 54.8824561,19.6859649 C49.3561404,19.6859649 44.8736842,24.1684211 44.8736842,29.6824561 C44.8736842,31.0947368 45.1684211,32.445614 45.6964912,33.6614035 C43.1298246,35.1596491 41.3982456,37.9719298 41.3982456,41.1894737 C41.3982456,45.9912281 45.254386,49.8842105 50.0070175,49.8842105 C50.6087719,49.8842105 51.2105263,49.822807 51.7754386,49.7 C53.077193,53.2368421 56.4789474,55.7666667 60.4701754,55.7666667 C64.3017544,55.7666667 67.5929825,53.4333333 69.0052632,50.1175439 C70.0736842,50.645614 71.2894737,50.9403509 72.554386,50.9403509 C75.6,50.9403509 78.2526316,49.2578947 79.6403509,46.777193 C80.3526316,46.9245614 81.077193,46.9982456 81.8263158,46.9982456 C87.9666667,46.9982456 92.9403509,41.9754386 92.9403509,35.7859649 C92.9403509,29.5964912 87.9666667,24.5736842 81.8263158,24.5736842 Z M69.9631579,37.3824561 L69.9631579,46.9491228 L61.9070175,46.9491228 L61.9070175,37.3824561 L53.3473684,37.3824561 L65.9350877,24.8070175 L78.522807,37.3947368 L69.9631579,37.3824561 Z" id="Shape" fill="#FF9E2D" fill-rule="nonzero"></path>
                <g id="Group" transform="translate(38.929825, 0.859649)" fill-rule="nonzero">
                    <path d="M15.9894737,30.4929825 C15.8666667,29.7929825 15.9280702,29.0315789 15.6087719,28.4052632 C15.5719298,28.3315789 15.522807,28.2701754 15.4614035,28.2210526 C15.3754386,28.1719298 15.2894737,28.1596491 15.2035088,28.1596491 C14.9087719,28.1473684 14.6263158,28.1473684 14.3315789,28.1473684 C14.245614,28.1473684 14.1596491,28.1596491 14.1105263,28.2333333 C14.1105263,28.245614 14.0982456,28.245614 14.0982456,28.2578947 C13.7666667,27.8894737 13.5087719,27.422807 13.1526316,27.0789474 C13.2017544,27.0666667 13.2508772,27.0421053 13.3122807,27.0298246 C13.3122807,26.9929825 13.3,26.9561404 13.2877193,26.9315789 C13.2877193,26.9192982 13.2877193,26.9070175 13.2754386,26.9070175 C13.2631579,26.9070175 13.2631579,26.8578947 13.2631579,26.8333333 C13.2631579,26.8087719 13.2508772,26.8087719 13.2508772,26.7964912 C13.2385965,26.7719298 13.2385965,26.7473684 13.2263158,26.7350877 C13.2263158,26.722807 13.2140351,26.7105263 13.2140351,26.6982456 L13.1894737,26.6368421 L13.177193,26.6122807 C13.1649123,26.5877193 13.1526316,26.5631579 13.1526316,26.5508772 L13.1403509,26.5263158 C13.1280702,26.5017544 13.1157895,26.477193 13.1035088,26.4526316 L13.0912281,26.4280702 C13.0789474,26.4035088 13.0666667,26.3789474 13.054386,26.354386 C13.054386,26.354386 13.0421053,26.3421053 13.0421053,26.3421053 C13.0298246,26.3175439 13.0052632,26.2807018 12.9929825,26.2561404 L12.9929825,26.2561404 C12.8578947,26.022807 12.6982456,25.8017544 12.5877193,25.5684211 C12.3912281,25.1508772 12.3175439,24.6964912 12.1824561,24.254386 C12.0473684,23.8122807 11.8140351,23.3701754 11.4210526,23.1614035 C11.2245614,23.0631579 10.9666667,22.977193 10.954386,22.7561404 C10.954386,22.6824561 10.9666667,22.6210526 11.0035088,22.5596491 C11.0649123,22.4245614 11.1263158,22.277193 11.2,22.154386 C11.2245614,22.1052632 11.2614035,22.0561404 11.2859649,22.0192982 L11.3105263,21.9824561 C11.3350877,21.945614 11.3596491,21.9087719 11.3842105,21.8842105 L11.4210526,21.8473684 C11.445614,21.8105263 11.4701754,21.7859649 11.4947368,21.7491228 L11.5315789,21.7122807 C11.5684211,21.6754386 11.6052632,21.6385965 11.654386,21.5894737 C11.6912281,21.5649123 11.7157895,21.5280702 11.7403509,21.4789474 C11.7526316,21.4421053 11.7526316,21.3929825 11.7403509,21.3438596 C11.7157895,20.9877193 11.9,20.6684211 12.1087719,20.3859649 C12.3175439,20.1035088 12.5508772,19.8333333 12.6736842,19.5017544 C12.6859649,19.4649123 12.6982456,19.4280702 12.7105263,19.3912281 C12.7105263,19.3789474 12.722807,19.3666667 12.722807,19.354386 C12.722807,19.3298246 12.7350877,19.3052632 12.7350877,19.2807018 L12.7473684,19.2315789 C12.7473684,19.2070175 12.7473684,19.1824561 12.7596491,19.1578947 L12.7596491,19.1087719 L12.7596491,19.0350877 L12.7596491,18.9859649 C12.7596491,18.9614035 12.7596491,18.9368421 12.7596491,18.9122807 C12.7596491,18.8877193 12.7596491,18.8877193 12.7596491,18.8631579 C12.7596491,18.8385965 12.7596491,18.8140351 12.7596491,18.7894737 L12.7596491,18.7526316 C12.7596491,18.7280702 12.7473684,18.6912281 12.7473684,18.6666667 C12.7473684,18.654386 12.7473684,18.6421053 12.7473684,18.6421053 C12.7473684,18.6052632 12.7350877,18.5561404 12.722807,18.5192982 L12.722807,18.5192982 C12.6614035,18.2614035 12.5877193,18.0035088 12.5017544,17.745614 C12.4526316,17.5859649 12.3912281,17.4385965 12.3175439,17.3035088 C12.3666667,17.2912281 12.4157895,17.2912281 12.4526316,17.2789474 C12.4157895,17.2175439 12.3789474,17.1684211 12.354386,17.1070175 C12.6368421,16.6894737 12.845614,16.2350877 12.9807018,15.7438596 C13.054386,15.4 13.0912281,15.0438596 13.1035088,14.6877193 C13.1649123,13.6192982 13.2385965,12.5508772 13.1526316,11.4947368 L13.1526316,11.4210526 C13.1894737,11.1877193 13.1894737,10.9666667 13.1649123,10.7333333 C13.1403509,10.2912281 13.0052632,9.84912281 12.7842105,9.46842105 C12.5508772,9.0877193 12.1578947,8.75614035 11.7157895,8.71929825 C11.6421053,8.80526316 11.5684211,8.87894737 11.4824561,8.94035088 C11.3473684,8.82982456 11.2491228,8.67017544 11.2,8.51052632 C12.2438596,8.35087719 13.054386,7.50350877 13.177193,6.44736842 C13.177193,6.41052632 13.1894737,6.37368421 13.1894737,6.33684211 C13.1894737,6.3245614 13.1894737,6.3 13.1894737,6.2877193 C13.1894737,6.2754386 13.1894737,6.23859649 13.1894737,6.21403509 C13.1894737,6.18947368 13.1894737,6.17719298 13.1894737,6.15263158 L13.1894737,6.10350877 C13.1894737,6.07894737 13.1894737,6.05438596 13.1894737,6.02982456 C13.1894737,6.00526316 13.1894737,6.00526316 13.1894737,5.99298246 C13.1894737,5.98070175 13.1894737,5.94385965 13.177193,5.90701754 C13.177193,5.89473684 13.177193,5.88245614 13.177193,5.88245614 L13.1649123,5.79649123 L13.1649123,5.77192982 C13.1649123,5.74736842 13.1526316,5.71052632 13.1526316,5.67368421 L13.1526316,5.66140351 C13.1526316,5.6245614 13.1403509,5.6 13.1280702,5.56315789 L13.1280702,5.56315789 C13.0789474,5.34210526 12.9807018,5.12105263 12.8701754,4.9245614 C12.9684211,4.70350877 13.0298246,4.48245614 13.054386,4.23684211 C13.054386,4.2 13.0666667,4.15087719 13.0666667,4.11403509 C13.0666667,4.07719298 13.0666667,4.06491228 13.0666667,4.02807018 C13.0666667,3.99122807 13.0666667,4.00350877 13.0666667,3.99122807 C13.0666667,3.95438596 13.0666667,3.91754386 13.0666667,3.88070175 C13.0666667,3.88070175 13.0666667,3.86842105 13.0666667,3.86842105 C13.054386,3.27894737 12.8087719,2.71403509 12.4035088,2.28421053 C12.4526316,2.21052632 12.4894737,2.1245614 12.5263158,2.03859649 L12.5263158,2.03859649 C12.5385965,2.01403509 12.5385965,1.98947368 12.5508772,1.96491228 L12.5508772,1.96491228 C12.5631579,1.94035088 12.5631579,1.91578947 12.5754386,1.89122807 L12.5754386,1.87894737 L12.5877193,1.80526316 C12.5877193,1.80526316 12.5877193,1.79298246 12.5877193,1.79298246 C12.5877193,1.76842105 12.6,1.74385965 12.6,1.70701754 C12.6,1.67017544 12.6,1.64561404 12.6122807,1.62105263 C12.6122807,1.60877193 12.6122807,1.59649123 12.6122807,1.59649123 C12.6122807,1.59649123 12.6122807,1.55964912 12.6122807,1.53508772 L12.6122807,1.51052632 C12.6122807,1.48596491 12.6122807,1.47368421 12.6122807,1.44912281 C12.6122807,1.4245614 12.6122807,1.43684211 12.6122807,1.4245614 C12.5631579,0.626315789 11.8754386,0.0122807018 11.077193,0.0614035088 C10.3649123,0.098245614 9.7877193,0.650877193 9.71403509,1.36315789 C9.70175439,1.51052632 9.70175439,1.65789474 9.72631579,1.80526316 C9.00175439,2.16140351 8.51052632,2.86140351 8.4122807,3.65964912 C8.4,3.79473684 8.3877193,3.92982456 8.4,4.05263158 C8.19122807,4.38421053 8.05614035,4.76491228 8.03157895,5.15789474 L8.03157895,5.15789474 C8.03157895,5.17017544 8.03157895,5.18245614 8.03157895,5.20701754 C8.03157895,5.25614035 8.03157895,5.30526316 8.03157895,5.35438596 C8.03157895,6.09122807 8.36315789,6.79122807 8.95263158,7.24561404 C9.0754386,7.44210526 9.23508772,7.60175439 9.41929825,7.73684211 C9.45614035,7.83508772 9.48070175,7.94561404 9.49298246,8.04385965 C9.51754386,8.32631579 9.41929825,8.60877193 9.21052632,8.80526316 C9.16140351,8.85438596 9.1,8.89122807 9.03859649,8.92807018 C8.97719298,8.91578947 8.92807018,8.91578947 8.86666667,8.92807018 C8.22807018,9.1245614 7.62631579,9.51754386 7.33157895,10.1192982 C7.27017544,10.254386 7.22105263,10.4017544 7.18421053,10.5491228 L7.14736842,10.5982456 C6.76666667,11.2 6.48421053,11.8631579 6.3245614,12.5631579 C6.25087719,12.9192982 6.18947368,13.2877193 6.02982456,13.6192982 C5.99298246,13.6929825 5.95614035,13.754386 5.93157895,13.8403509 C5.91929825,13.9508772 5.90701754,14.0736842 5.91929825,14.1842105 C5.90701754,14.3929825 5.78421053,14.577193 5.73508772,14.7859649 C5.71052632,14.9087719 5.71052632,15.0315789 5.69824561,15.154386 C5.63684211,15.3631579 5.56315789,15.5719298 5.46491228,15.7684211 C5.32982456,16.1245614 5.34210526,16.5298246 5.24385965,16.8982456 C5.23157895,16.9596491 5.20701754,17.0210526 5.17017544,17.0701754 C5.09649123,17.1315789 5.01052632,17.1807018 4.9122807,17.2052632 C4.77719298,17.2912281 4.67894737,17.4263158 4.65438596,17.5859649 C4.62982456,17.745614 4.62982456,17.9052632 4.64210526,18.0649123 L4.69122807,18.6912281 L3.99122807,18.9 L2.84912281,19.2561404 C2.51754386,19.3421053 2.19824561,19.477193 1.90350877,19.6614035 C1.64561404,19.845614 1.43684211,20.0912281 1.30175439,20.3859649 C1.19122807,20.6929825 1.10526316,21.0122807 1.08070175,21.3315789 C0.970175439,22.2403509 0.773684211,23.1368421 0.49122807,24.0087719 C0.466666667,24.0701754 0.442105263,24.1438596 0.41754386,24.2052632 L0.41754386,24.2052632 L0.343859649,24.4017544 C0.343859649,24.4140351 0.331578947,24.4263158 0.331578947,24.4385965 L0.270175439,24.5982456 C0.245614035,24.6596491 0.20877193,24.7333333 0.171929825,24.7947368 L2.84912281,25.6912281 C2.84912281,25.7280702 2.84912281,25.7526316 2.86140351,25.8017544 C2.95964912,26.4649123 2.91052632,27.1280702 2.99649123,27.7912281 C3.00877193,27.9017544 3.03333333,28.0122807 3.07017544,28.1105263 C2.99649123,28.1719298 2.94736842,28.245614 2.93508772,28.3315789 C2.91052632,28.4666667 2.89824561,28.6140351 2.92280702,28.7614035 C2.94736842,29.0929825 2.98421053,29.4368421 3.00877193,29.7684211 C3.02105263,29.8912281 3.02105263,30.0140351 3.00877193,30.1368421 C2.97192982,30.3578947 2.84912281,30.554386 2.7754386,30.7631579 C2.70175439,30.9719298 2.71403509,31.254386 2.88596491,31.377193 C3.00877193,31.4631579 3.16842105,31.4754386 3.30350877,31.4140351 C3.43859649,31.3526316 3.56140351,31.254386 3.65964912,31.1438596 C4.2,30.5421053 4.44561404,29.7315789 4.86315789,29.0438596 C4.97368421,28.8842105 5.07192982,28.7122807 5.14561404,28.5403509 C5.20701754,28.4052632 5.24385965,28.2701754 5.28070175,28.122807 C5.34210526,27.9385965 5.42807018,27.754386 5.51403509,27.5824561 C5.56315789,27.4842105 5.75964912,27.2385965 5.71052632,27.1280702 C5.63684211,26.9438596 4.9122807,26.7719298 4.72807018,26.7105263 C4.61754386,26.6614035 4.48245614,26.6491228 4.37192982,26.6982456 C4.35964912,26.7105263 4.33508772,26.722807 4.32280702,26.7350877 L4.26140351,25.9245614 C4.37192982,25.9122807 4.48245614,25.9 4.58070175,25.8877193 C4.58070175,25.7403509 4.58070175,25.5807018 4.56842105,25.4210526 C4.56842105,25.2859649 4.56842105,25.1385965 4.55614035,25.0035088 C4.54385965,24.6596491 4.54385965,24.3157895 4.53157895,23.9719298 C4.53157895,23.7754386 4.51929825,23.5789474 4.49473684,23.3701754 C4.45789474,23.0754386 4.35964912,22.7684211 4.33508772,22.4736842 C4.38421053,22.4368421 4.43333333,22.4122807 4.48245614,22.4 L4.48245614,22.4 C4.56842105,22.3877193 4.65438596,22.3877193 4.74035088,22.3877193 L4.81403509,22.3877193 C5.19473684,22.3877193 5.56315789,22.277193 5.89473684,22.0929825 C6.23859649,21.9210526 6.54561404,21.7 6.87719298,21.5157895 L7,21.454386 L7.04912281,21.4298246 L7.12280702,21.3929825 L7.18421053,21.3684211 L7.19649123,21.3561404 C7.39298246,21.2578947 7.58947368,21.1719298 7.77368421,21.0736842 C7.78596491,21.0982456 7.79824561,21.1105263 7.81052632,21.1350877 C7.90877193,21.2578947 8.06842105,21.3192982 8.21578947,21.2824561 C7.98245614,21.8473684 7.7122807,22.3754386 7.63859649,22.9894737 C7.54035088,23.8614035 7.88421053,24.7087719 8.22807018,25.5192982 L9.32105263,28.0982456 C9.44385965,28.3807018 9.60350877,28.7 9.89824561,28.7736842 C10.0824561,28.7982456 10.2789474,28.7614035 10.4508772,28.6631579 C10.954386,28.4298246 11.3964912,28.0859649 11.8631579,27.7666667 L11.8754386,27.7789474 C12.2929825,28.1105263 12.5508772,28.5649123 12.8333333,28.9947368 L13.5947368,30.2473684 C13.5947368,30.3087719 13.5947368,30.3701754 13.6192982,30.4315789 C13.6807018,30.5298246 13.7421053,30.6280702 13.8403509,30.7140351 C14.3315789,31.2421053 14.6508772,31.8929825 14.7614035,32.6052632 C14.7736842,32.7894737 14.822807,32.9614035 14.9087719,33.1210526 C15.1175439,33.4035088 15.5473684,33.3912281 15.854386,33.2315789 C15.9526316,33.1824561 16.0263158,33.1210526 16.0877193,33.0350877 C16.1368421,32.9491228 16.1736842,32.8385965 16.1859649,32.7403509 C16.2473684,32.4824561 16.2719298,32.2122807 16.2842105,31.954386 C16.2596491,31.4631579 16.0754386,30.9842105 15.9894737,30.4929825 Z M11.5929825,7.35614035 C11.6421053,7.31929825 11.7035088,7.28245614 11.7526316,7.24561404 C11.654386,7.55263158 11.4824561,7.84736842 11.2614035,8.09298246 L11.2614035,8.09298246 C11.2122807,8.15438596 11.1508772,8.20350877 11.1017544,8.25263158 L11.1017544,8.21578947 C11.1017544,8.09298246 11.1017544,7.95789474 11.1017544,7.82280702 C11.2859649,7.7 11.4578947,7.54035088 11.5929825,7.35614035 Z M7.25789474,17.045614 L7.27017544,17.0210526 C7.31929825,17.0578947 7.35614035,17.0947368 7.38070175,17.1315789 C7.31929825,17.2666667 7.33157895,17.4140351 7.39298246,17.5491228 C7.45438596,17.6596491 7.57719298,17.7578947 7.55263158,17.8807018 C7.52807018,18.0035088 7.36842105,18.0526316 7.24561404,18.077193 C7.07368421,18.1017544 6.91403509,18.1385965 6.74210526,18.1631579 C6.74210526,18.1631579 6.74210526,18.1631579 6.74210526,18.1508772 C6.74210526,18.0157895 6.72982456,17.8684211 6.68070175,17.745614 C6.96315789,17.6350877 7.14736842,17.3403509 7.25789474,17.045614 Z" id="Shape" fill="url(#linearGradient-1)"></path>
                    <path d="M12.3666667,2.75087719 C12.7719298,2.06315789 12.5508772,1.16666667 11.8508772,0.749122807 C11.1631579,0.343859649 10.2666667,0.564912281 9.84912281,1.26491228 C9.75087719,1.43684211 9.67719298,1.63333333 9.65263158,1.82982456 C9.64035088,1.97719298 9.64035088,2.1245614 9.66491228,2.27192982 C8.81754386,2.67719298 8.28947368,3.54912281 8.33859649,4.49473684 C7.63859649,5.5877193 7.94561404,7.03684211 9.03859649,7.73684211 C10.1315789,8.43684211 11.5807018,8.12982456 12.2807018,7.03684211 C12.5263158,6.65614035 12.6491228,6.22631579 12.6491228,5.77192982 C12.6491228,5.73508772 12.6491228,5.69824561 12.6491228,5.66140351 C13.2631579,4.74035088 13.1403509,3.53684211 12.3666667,2.75087719 L12.3666667,2.75087719 Z" id="Path" fill="#46455B"></path>
                    <g opacity="0.1" transform="translate(7.859649, 1.719298)" fill="#000000" id="Path">
                        <path d="M1.80526316,0.184210526 L1.82982456,0.171929825 C1.82982456,0.147368421 1.81754386,0.122807018 1.81754386,0.098245614 C1.81754386,0.098245614 1.81754386,0.110526316 1.81754386,0.110526316 C1.80526316,0.135087719 1.80526316,0.159649123 1.80526316,0.184210526 Z"></path>
                        <path d="M5.15789474,2.56666667 C5.12105263,2.92280702 4.98596491,3.26666667 4.78947368,3.56140351 C4.78947368,3.59824561 4.78947368,3.63508772 4.78947368,3.67192982 C4.78947368,4.96140351 3.73333333,6.00526316 2.43157895,6.00526316 C1.21578947,6.00526316 0.20877193,5.07192982 0.110526316,3.86842105 C0.110526316,3.92982456 0.098245614,3.99122807 0.098245614,4.06491228 C0.098245614,5.35438596 1.14210526,6.41052632 2.44385965,6.41052632 C3.73333333,6.41052632 4.78947368,5.36666667 4.78947368,4.06491228 C4.78947368,4.02807018 4.78947368,3.99122807 4.78947368,3.95438596 C4.98596491,3.65964912 5.10877193,3.31578947 5.15789474,2.95964912 C5.18245614,2.8 5.18245614,2.64035088 5.17017544,2.49298246 C5.17017544,2.50526316 5.15789474,2.52982456 5.15789474,2.56666667 Z"></path>
                        <path d="M4.70350877,0.0859649123 C4.67894737,0.28245614 4.61754386,0.466666667 4.50701754,0.638596491 C4.54385965,0.675438596 4.58070175,0.724561404 4.62982456,0.773684211 C4.66666667,0.675438596 4.69122807,0.564912281 4.70350877,0.454385965 C4.71578947,0.331578947 4.71578947,0.20877193 4.70350877,0.0859649123 Z"></path>
                    </g>
                    <path d="M2.92280702,27.8894737 C2.93508772,28.0245614 2.97192982,28.1473684 3.03333333,28.2701754 C3.09473684,28.3929825 3.20526316,28.4789474 3.34035088,28.5035088 C3.46315789,28.5035088 3.58596491,28.4666667 3.68421053,28.4052632 C3.89298246,28.2947368 4.11403509,28.1719298 4.2122807,27.9631579 C4.31052632,27.754386 4.29824561,27.5210526 4.28596491,27.2877193 L4.15087719,25.5070175 C3.81929825,25.4947368 3.4754386,25.4947368 3.14385965,25.5192982 C2.8122807,25.5438596 2.75087719,25.6175439 2.8,25.9491228 C2.88596491,26.5754386 2.83684211,27.2385965 2.92280702,27.8894737 Z" id="Path" fill="#FBBEBE"></path>
                    <path d="M12.8210526,29.0929825 L13.6192982,30.3947368 C13.6561404,30.4684211 13.7175439,30.5298246 13.7912281,30.554386 C13.8526316,30.5666667 13.9017544,30.554386 13.9631579,30.5298246 C14.2210526,30.3947368 14.454386,30.2105263 14.6385965,29.977193 C14.7859649,29.8421053 14.8964912,29.6701754 14.9578947,29.4859649 C15.0070175,29.277193 14.945614,29.0561404 14.7982456,28.8964912 C14.7,28.8105263 14.6017544,28.7368421 14.5035088,28.6754386 C13.8649123,28.245614 13.5824561,27.4350877 12.9561404,26.9929825 C12.9192982,26.9684211 12.8824561,26.9438596 12.8333333,26.9315789 C12.7842105,26.9315789 12.7473684,26.9561404 12.6982456,26.9807018 L11.8385965,27.4473684 C11.4701754,27.6438596 11.5807018,27.6807018 11.8631579,27.8894737 C12.2807018,28.2087719 12.5385965,28.6631579 12.8210526,29.0929825 Z" id="Path" fill="#FBBEBE"></path>
                    <path d="M4.66666667,26.8578947 C4.55614035,26.8087719 4.42105263,26.8087719 4.31052632,26.845614 C4.2,26.9070175 4.13859649,27.0175439 4.12631579,27.1403509 C4.10175439,27.2631579 4.10175439,27.3859649 4.07719298,27.4964912 C4.00350877,27.6807018 3.88070175,27.8526316 3.72105263,27.9877193 C3.65964912,28.0614035 3.58596491,28.1105263 3.5,28.1350877 C3.37719298,28.1596491 3.25438596,28.1105263 3.14385965,28.1350877 C3.00877193,28.1719298 2.89824561,28.2824561 2.86140351,28.4175439 C2.8245614,28.5526316 2.8245614,28.7 2.84912281,28.8350877 L2.93508772,29.8298246 C2.94736842,29.9526316 2.94736842,30.0754386 2.93508772,30.1982456 C2.89824561,30.4192982 2.7754386,30.6157895 2.70175439,30.8245614 C2.62807018,31.0333333 2.64035088,31.3035088 2.8122807,31.4385965 C2.93508772,31.5245614 3.09473684,31.5368421 3.24210526,31.4754386 C3.37719298,31.4140351 3.5,31.3280702 3.59824561,31.2052632 C4.13859649,30.6157895 4.38421053,29.8175439 4.80175439,29.1298246 C4.9122807,28.9701754 5.01052632,28.8105263 5.08421053,28.6385965 C5.14561404,28.5035088 5.18245614,28.3684211 5.21929825,28.2333333 C5.28070175,28.0491228 5.36666667,27.877193 5.45263158,27.7052632 C5.50175439,27.6070175 5.69824561,27.3736842 5.64912281,27.2631579 C5.5877193,27.0789474 4.85087719,26.9070175 4.66666667,26.8578947 Z" id="Path" fill="#46455B"></path>
                    <path d="M14.4175439,29.5964912 C14.2947368,29.8298246 14.0982456,30.0017544 13.8526316,30.0877193 C13.7789474,30.1122807 13.7175439,30.1368421 13.6561404,30.1859649 C13.5824561,30.2842105 13.5701754,30.4070175 13.6192982,30.5175439 C13.6807018,30.6157895 13.754386,30.7140351 13.8403509,30.7877193 C14.3192982,31.3035088 14.6508772,31.954386 14.7614035,32.6421053 C14.7736842,32.8263158 14.822807,32.9982456 14.9087719,33.145614 C15.1175439,33.4280702 15.5473684,33.4035088 15.8666667,33.2438596 C15.9649123,33.1947368 16.0385965,33.1333333 16.1,33.0473684 C16.1491228,32.9614035 16.1859649,32.8631579 16.1982456,32.7526316 C16.2596491,32.4947368 16.2842105,32.2368421 16.2964912,31.9666667 C16.2964912,31.4754386 16.1,30.9964912 16.0140351,30.5052632 C15.8912281,29.8175439 15.9526316,29.0684211 15.6333333,28.4421053 C15.6087719,28.3684211 15.5473684,28.3070175 15.4859649,28.2578947 C15.4,28.2210526 15.3140351,28.1964912 15.2280702,28.1964912 C14.9333333,28.1842105 14.6508772,28.1842105 14.3561404,28.1842105 C14.2701754,28.1842105 14.1842105,28.1964912 14.1350877,28.2701754 C14.1105263,28.3438596 14.122807,28.4421053 14.1719298,28.5035088 C14.3438596,28.8964912 14.6263158,29.1789474 14.4175439,29.5964912 Z" id="Path" fill="#46455B"></path>
                    <path d="M7.51578947,17.2052632 C7.34385965,17.3403509 7.30701754,17.5859649 7.40526316,17.7701754 C7.46666667,17.8807018 7.58947368,17.9789474 7.56491228,18.1017544 C7.54035088,18.2245614 7.38070175,18.2736842 7.25789474,18.2982456 C6.12807018,18.4824561 5.03508772,18.8017544 3.94210526,19.1333333 L2.8,19.477193 C2.46842105,19.5631579 2.13684211,19.6982456 1.84210526,19.8701754 C1.58421053,20.054386 1.3754386,20.3 1.24035088,20.5824561 C1.12982456,20.877193 1.04385965,21.1964912 1.01929825,21.5157895 C0.847368421,22.6947368 0.626315789,23.8736842 0.098245614,24.9298246 L2.87368421,25.8385965 C3.14385965,25.9368421 3.42631579,26.0105263 3.70877193,26.0473684 C3.97894737,26.0719298 4.24912281,26.0596491 4.51929825,26.0105263 C4.50701754,25.3964912 4.49473684,24.745614 4.47017544,24.1315789 C4.47017544,23.9350877 4.45789474,23.7385965 4.43333333,23.5421053 C4.39649123,23.2473684 4.29824561,22.9526316 4.27368421,22.6578947 C4.39649123,22.5473684 4.59298246,22.5842105 4.75263158,22.5842105 C5.13333333,22.5842105 5.51403509,22.4736842 5.84561404,22.2894737 C6.17719298,22.1175439 6.49649123,21.8964912 6.82807018,21.7245614 C7.38070175,21.4298246 8.01929825,21.2333333 8.44912281,20.7666667 C8.22807018,21.6017544 7.7122807,22.3140351 7.61403509,23.1736842 C7.51578947,24.0333333 7.85964912,24.8684211 8.20350877,25.6666667 L9.29649123,28.2087719 C9.41929825,28.4912281 9.57894737,28.7982456 9.87368421,28.8719298 C10.0578947,28.8964912 10.254386,28.8596491 10.4263158,28.7614035 C11.4333333,28.2947368 12.2438596,27.3982456 13.3122807,27.1157895 C13.2263158,26.5877193 12.8087719,26.145614 12.5754386,25.654386 C12.3789474,25.2491228 12.3052632,24.7947368 12.1701754,24.3526316 C12.0350877,23.9105263 11.8017544,23.4807018 11.3964912,23.2719298 C11.2,23.1736842 10.9421053,23.0877193 10.9298246,22.8789474 C10.9298246,22.8052632 10.9421053,22.7438596 10.9789474,22.6824561 C11.1263158,22.3140351 11.3473684,21.9947368 11.6298246,21.7245614 C11.6666667,21.7 11.6912281,21.6631579 11.7157895,21.6140351 C11.7280702,21.577193 11.7280702,21.5280702 11.7157895,21.4912281 C11.6912281,21.1473684 11.8754386,20.8280702 12.0842105,20.545614 C12.2929825,20.2631579 12.5263158,20.0052632 12.6491228,19.6736842 C12.845614,19.1087719 12.6491228,18.4947368 12.4526316,17.9298246 C12.3912281,17.6964912 12.2807018,17.4754386 12.1210526,17.2912281 C11.8631579,17.0210526 11.4578947,16.9350877 11.0894737,16.8982456 C9.89824561,16.7754386 8.47368421,16.4561404 7.51578947,17.2052632 Z" id="Path" fill="#46455B"></path>
                    <g opacity="0.1" transform="translate(0.000000, 17.070175)" fill="#000000" id="Path">
                        <path d="M12.1087719,2.59122807 C11.9,2.87368421 11.7157895,3.19298246 11.7403509,3.53684211 C11.7403509,3.57368421 11.7403509,3.62280702 11.7403509,3.65964912 C11.7157895,3.69649123 11.6912281,3.73333333 11.654386,3.77017544 C11.3719298,4.02807018 11.1385965,4.35964912 11.0035088,4.72807018 C10.9789474,4.78947368 10.954386,4.86315789 10.954386,4.9245614 C10.9789474,5.05964912 11.077193,5.17017544 11.2,5.20701754 C11.322807,4.99824561 11.4824561,4.81403509 11.654386,4.65438596 C11.6912281,4.62982456 11.7157895,4.59298246 11.7403509,4.54385965 C11.7526316,4.50701754 11.7526316,4.45789474 11.7403509,4.42105263 C11.7157895,4.07719298 11.9,3.75789474 12.1087719,3.4754386 C12.3175439,3.19298246 12.5508772,2.93508772 12.6736842,2.60350877 C12.7719298,2.28421053 12.7842105,1.94035088 12.6982456,1.62105263 C12.6859649,1.65789474 12.6859649,1.68245614 12.6736842,1.71929825 C12.5508772,2.05087719 12.3175439,2.32105263 12.1087719,2.59122807 Z"></path>
                        <path d="M7.38070175,0.307017544 C7.46666667,0.294736842 7.52807018,0.233333333 7.55263158,0.147368421 C7.55263158,0.135087719 7.55263158,0.110526316 7.55263158,0.098245614 L7.50350877,0.135087719 C7.45438596,0.184210526 7.41754386,0.245614035 7.38070175,0.307017544 Z"></path>
                        <path d="M3.70877193,8.10526316 C3.42631579,8.06842105 3.14385965,7.99473684 2.87368421,7.89649123 L0.41754386,7.08596491 C0.319298246,7.35614035 0.221052632,7.61403509 0.098245614,7.87192982 L2.87368421,8.78070175 C3.14385965,8.87894737 3.42631579,8.95263158 3.70877193,8.98947368 C3.97894737,9.01403509 4.24912281,9.00175439 4.51929825,8.95263158 C4.50701754,8.65789474 4.50701754,8.36315789 4.49473684,8.06842105 C4.23684211,8.11754386 3.97894737,8.12982456 3.70877193,8.10526316 Z"></path>
                        <path d="M10.4385965,10.8070175 C10.2666667,10.9052632 10.0824561,10.9421053 9.88596491,10.9175439 C9.59122807,10.8561404 9.43157895,10.5368421 9.30877193,10.254386 L8.21578947,7.7122807 C7.97017544,7.14736842 7.7245614,6.57017544 7.63859649,5.98070175 C7.62631579,6.01754386 7.62631579,6.06666667 7.61403509,6.10350877 C7.51578947,6.96315789 7.85964912,7.81052632 8.20350877,8.59649123 L9.29649123,11.1385965 C9.41929825,11.4210526 9.57894737,11.7280702 9.87368421,11.8017544 C10.0578947,11.8263158 10.254386,11.7894737 10.4263158,11.6912281 C11.4333333,11.2245614 12.2438596,10.3280702 13.3122807,10.045614 C13.2508772,9.76315789 13.1403509,9.50526316 12.9807018,9.27192982 C12.0842105,9.62807018 11.3350877,10.3894737 10.4385965,10.8070175 Z"></path>
                        <path d="M8.44912281,2.8122807 C8.01929825,3.27894737 7.38070175,3.4754386 6.82807018,3.77017544 C6.49649123,3.94210526 6.17719298,4.16315789 5.84561404,4.33508772 C5.51403509,4.51929825 5.13333333,4.62982456 4.75263158,4.62982456 C4.58070175,4.62982456 4.39649123,4.59298246 4.27368421,4.70350877 C4.29824561,4.97368421 4.38421053,5.24385965 4.42105263,5.52631579 C4.53157895,5.51403509 4.64210526,5.51403509 4.75263158,5.51403509 C5.13333333,5.51403509 5.51403509,5.40350877 5.84561404,5.21929825 C6.17719298,5.04736842 6.49649123,4.82631579 6.82807018,4.65438596 C7.19649123,4.45789474 7.60175439,4.31052632 7.94561404,4.08947368 C8.15438596,3.68421053 8.31403509,3.25438596 8.44912281,2.8122807 Z"></path>
                    </g>
                    <path d="M9.43157895,8.4245614 C9.45614035,8.70701754 9.35789474,8.97719298 9.14912281,9.17368421 C9.0877193,9.23508772 9.00175439,9.27192982 8.94035088,9.33333333 C8.71929825,9.56666667 8.71929825,9.92280702 8.95263158,10.1438596 C8.97719298,10.1684211 9.00175439,10.1807018 9.02631579,10.2052632 C9.24736842,10.3403509 9.52982456,10.3035088 9.7877193,10.254386 C10.1315789,10.2052632 10.4631579,10.1192982 10.7824561,9.99649123 C11.1017544,9.87368421 11.3842105,9.64035088 11.5684211,9.35789474 C11.2982456,9.18596491 11.1263158,8.87894737 11.1263158,8.55964912 C11.1140351,8.24035088 11.2,7.88421053 10.9912281,7.63859649 C10.7824561,7.39298246 10.4385965,7.40526316 10.1315789,7.47894737 C9.98421053,7.51578947 9.83684211,7.57719298 9.68947368,7.61403509 C9.61578947,7.63859649 9.37017544,7.63859649 9.32105263,7.6877193 C9.22280702,7.79824561 9.41929825,8.25263158 9.43157895,8.4245614 Z" id="Path" fill="#FBBEBE"></path>
                    <path d="M9.43157895,8.4245614 C9.45614035,8.70701754 9.35789474,8.97719298 9.14912281,9.17368421 C9.0877193,9.23508772 9.00175439,9.27192982 8.94035088,9.33333333 C8.71929825,9.56666667 8.71929825,9.92280702 8.95263158,10.1438596 C8.97719298,10.1684211 9.00175439,10.1807018 9.02631579,10.2052632 C9.24736842,10.3403509 9.52982456,10.3035088 9.7877193,10.254386 C10.1315789,10.2052632 10.4631579,10.1192982 10.7824561,9.99649123 C11.1017544,9.87368421 11.3842105,9.64035088 11.5684211,9.35789474 C11.2982456,9.18596491 11.1263158,8.87894737 11.1263158,8.55964912 C11.1140351,8.24035088 11.2,7.88421053 10.9912281,7.63859649 C10.7824561,7.39298246 10.4385965,7.40526316 10.1315789,7.47894737 C9.98421053,7.51578947 9.83684211,7.57719298 9.68947368,7.61403509 C9.61578947,7.63859649 9.37017544,7.63859649 9.32105263,7.6877193 C9.22280702,7.79824561 9.41929825,8.25263158 9.43157895,8.4245614 Z" id="Path" fill="#000000" opacity="0.1"></path>
                    <circle id="Oval" fill="#FBBEBE" cx="10.2789474" cy="6.75438596" r="1.64561404"></circle>
                    <path d="M5.08421053,19.3912281 C5.05964912,19.5263158 4.99824561,19.6491228 4.9245614,19.7596491 C4.72807018,20.1035088 4.66666667,20.4964912 4.72807018,20.877193 C4.80175439,21.2701754 5.05964912,21.5894737 5.41578947,21.7491228 C5.56315789,21.822807 5.74736842,21.8105263 5.89473684,21.7245614 C5.67368421,21.4421053 5.66140351,21.0491228 5.67368421,20.6929825 C5.67368421,20.6315789 5.68596491,20.5578947 5.72280702,20.4964912 C5.75964912,20.4350877 5.83333333,20.422807 5.89473684,20.4596491 C5.89473684,20.4596491 5.89473684,20.4596491 5.89473684,20.4596491 C5.89473684,20.6929825 5.93157895,20.9140351 6.01754386,21.122807 C6.05438596,21.1964912 6.11578947,21.2947368 6.20175439,21.2947368 C6.3245614,21.2947368 6.36140351,21.122807 6.34912281,21 C6.33684211,20.4842105 6.3,19.9561404 6.05438596,19.5140351 C5.94385965,19.3666667 5.85789474,19.1947368 5.80877193,19.0105263 C5.80877193,18.9491228 5.78421053,18.8877193 5.74736842,18.8385965 C5.72280702,18.8140351 5.68596491,18.8017544 5.64912281,18.7894737 C5.51403509,18.7526316 5.17017544,18.6298246 5.05964912,18.7526316 C4.94912281,18.8754386 5.10877193,19.2192982 5.08421053,19.3912281 Z" id="Path" fill="#FBBEBE"></path>
                    <path d="M7.52807018,10.6350877 C7.34385965,10.6105263 7.18421053,10.7824561 7.08596491,10.9421053 C6.70526316,11.5315789 6.42280702,12.1947368 6.26315789,12.8824561 C6.18947368,13.2385965 6.14035088,13.6070175 5.96842105,13.9263158 C5.93157895,13.9877193 5.89473684,14.0614035 5.87017544,14.1350877 C5.85789474,14.245614 5.84561404,14.3684211 5.85789474,14.4789474 C5.84561404,14.6877193 5.72280702,14.8719298 5.67368421,15.0684211 C5.64912281,15.1912281 5.64912281,15.3140351 5.63684211,15.4368421 C5.6,15.645614 5.48947368,15.8421053 5.40350877,16.0385965 C5.26842105,16.3947368 5.26842105,16.7877193 5.17017544,17.1561404 C5.15789474,17.2175439 5.13333333,17.2666667 5.09649123,17.3157895 C5.03508772,17.3894737 4.9245614,17.4017544 4.83859649,17.4508772 C4.70350877,17.5368421 4.60526316,17.6719298 4.58070175,17.8315789 C4.55614035,17.9912281 4.55614035,18.1508772 4.56842105,18.2982456 L4.64210526,19.2684211 C4.71578947,19.2315789 4.76491228,19.145614 4.83859649,19.0964912 C4.96140351,18.9982456 5.13333333,19.022807 5.28070175,19.0473684 L5.50175439,19.0842105 C5.73508772,19.1210526 5.98070175,19.1824561 6.11578947,19.354386 C6.22631579,19.1701754 6.16491228,18.9122807 6.34912281,18.7894737 C6.41052632,18.7526316 6.48421053,18.7403509 6.53333333,18.7035088 C6.64385965,18.6298246 6.71754386,18.4947368 6.72982456,18.3596491 C6.72982456,18.2245614 6.71754386,18.0894737 6.66842105,17.954386 C6.95087719,17.8315789 7.13508772,17.5491228 7.24561404,17.254386 C7.36842105,16.9105263 7.45438596,16.5421053 7.51578947,16.1736842 C7.77368421,14.7245614 8.00701754,13.2631579 8.03157895,11.8017544 C8.04385965,11.5561404 8.01929825,11.3105263 7.95789474,11.077193 C7.88421053,10.8684211 7.77368421,10.6719298 7.52807018,10.6350877 Z" id="Path" fill="#FF9E2D"></path>
                    <path d="M7.52807018,10.6350877 C7.34385965,10.6105263 7.18421053,10.7824561 7.08596491,10.9421053 C6.70526316,11.5315789 6.42280702,12.1947368 6.26315789,12.8824561 C6.18947368,13.2385965 6.14035088,13.6070175 5.96842105,13.9263158 C5.93157895,13.9877193 5.89473684,14.0614035 5.87017544,14.1350877 C5.85789474,14.245614 5.84561404,14.3684211 5.85789474,14.4789474 C5.84561404,14.6877193 5.72280702,14.8719298 5.67368421,15.0684211 C5.64912281,15.1912281 5.64912281,15.3140351 5.63684211,15.4368421 C5.6,15.645614 5.48947368,15.8421053 5.40350877,16.0385965 C5.26842105,16.3947368 5.26842105,16.7877193 5.17017544,17.1561404 C5.15789474,17.2175439 5.13333333,17.2666667 5.09649123,17.3157895 C5.03508772,17.3894737 4.9245614,17.4017544 4.83859649,17.4508772 C4.70350877,17.5368421 4.60526316,17.6719298 4.58070175,17.8315789 C4.55614035,17.9912281 4.55614035,18.1508772 4.56842105,18.2982456 L4.64210526,19.2684211 C4.71578947,19.2315789 4.76491228,19.145614 4.83859649,19.0964912 C4.96140351,18.9982456 5.13333333,19.022807 5.28070175,19.0473684 L5.50175439,19.0842105 C5.73508772,19.1210526 5.98070175,19.1824561 6.11578947,19.354386 C6.22631579,19.1701754 6.16491228,18.9122807 6.34912281,18.7894737 C6.41052632,18.7526316 6.48421053,18.7403509 6.53333333,18.7035088 C6.64385965,18.6298246 6.71754386,18.4947368 6.72982456,18.3596491 C6.72982456,18.2245614 6.71754386,18.0894737 6.66842105,17.954386 C6.95087719,17.8315789 7.13508772,17.5491228 7.24561404,17.254386 C7.36842105,16.9105263 7.45438596,16.5421053 7.51578947,16.1736842 C7.77368421,14.7245614 8.00701754,13.2631579 8.03157895,11.8017544 C8.04385965,11.5561404 8.01929825,11.3105263 7.95789474,11.077193 C7.88421053,10.8684211 7.77368421,10.6719298 7.52807018,10.6350877 Z" id="Path" fill="#000000" opacity="0.1"></path>
                    <path d="M11.6789474,9.06315789 C11.4087719,9.34561404 11.0649123,9.55438596 10.6842105,9.64035088 C10.3035088,9.73859649 9.91052632,9.7877193 9.51754386,9.8122807 C9.39473684,9.83684211 9.27192982,9.8245614 9.16140351,9.7877193 C9.03859649,9.73859649 8.97719298,9.61578947 9.01403509,9.49298246 C9.03859649,9.45614035 9.05087719,9.41929825 9.06315789,9.38245614 C9.06315789,9.28421053 8.91578947,9.27192982 8.81754386,9.30877193 C8.17894737,9.50526316 7.57719298,9.89824561 7.28245614,10.4877193 C7.13508772,10.8315789 7.03684211,11.2 7.0122807,11.5684211 C6.87719298,12.5508772 6.74210526,13.545614 6.92631579,14.5157895 C7.0245614,15.0315789 7.22105263,15.5350877 7.22105263,16.0631579 C7.23333333,16.3578947 7.17192982,16.6526316 7.18421053,16.9473684 C7.17192982,17.045614 7.20877193,17.1561404 7.25789474,17.2421053 C7.30701754,17.2912281 7.36842105,17.3280702 7.40526316,17.3894737 C7.45438596,17.4877193 7.39298246,17.6350877 7.45438596,17.7333333 C7.54035088,17.8438596 7.7245614,17.7701754 7.83508772,17.6842105 C8.43684211,17.2789474 9.14912281,17.0947368 9.87368421,17.1684211 C10.7333333,17.2666667 11.5929825,17.7210526 12.4280702,17.4877193 C12.3789474,17.4263158 12.3421053,17.3526316 12.3175439,17.2912281 C11.9,15.9157895 11.9245614,14.3929825 12.5508772,13.0912281 C12.7596491,12.6491228 13.0421053,12.2315789 13.1280702,11.7526316 C13.1649123,11.5315789 13.1649123,11.2982456 13.1403509,11.0649123 C13.1157895,10.622807 12.9807018,10.1929825 12.7596491,9.8122807 C12.5140351,9.43157895 12.1210526,9.1122807 11.6789474,9.06315789 Z" id="Path" fill="#FF9E2D"></path>
                    <path d="M7.7,19.8087719 C7.63859649,19.9929825 7.60175439,20.177193 7.60175439,20.3736842 C7.60175439,20.5578947 7.60175439,20.7421053 7.62631579,20.9140351 C7.63859649,21.0736842 7.7,21.2210526 7.78596491,21.3438596 C7.88421053,21.4666667 8.04385965,21.5280702 8.19122807,21.4912281 C8.31403509,21.4421053 8.4,21.3438596 8.43684211,21.2210526 C8.47368421,21.0982456 8.49824561,20.9754386 8.51052632,20.8403509 C8.58421053,20.4719298 8.78070175,20.1157895 8.78070175,19.7350877 C8.78070175,19.6859649 8.78070175,19.6491228 8.75614035,19.6 C8.68245614,19.4403509 8.33859649,19.2684211 8.16666667,19.2929825 C7.97017544,19.3298246 7.77368421,19.6245614 7.7,19.8087719 Z" id="Path" fill="#FBBEBE"></path>
                    <path d="M12.4403509,10.4508772 C12.4035088,10.7824561 12.722807,11.0280702 12.845614,11.322807 C12.8947368,11.4701754 12.9192982,11.6175439 12.9315789,11.7649123 C13.0175439,12.8087719 12.9561404,13.8649123 12.8824561,14.9087719 C12.8701754,15.2526316 12.8333333,15.6087719 12.7596491,15.9403509 C12.5877193,16.6526316 12.145614,17.2789474 11.7157895,17.8807018 C11.654386,17.9789474 11.5807018,18.0649123 11.4947368,18.1508772 C11.3719298,18.2491228 11.2368421,18.3350877 11.077193,18.3964912 L9.61578947,19.1087719 C9.43157895,19.1947368 9.25964912,19.2929825 9.1,19.4035088 C8.91578947,19.5508772 8.76842105,19.7473684 8.67017544,19.9684211 C8.3877193,19.8210526 8.09298246,19.6982456 7.81052632,19.5508772 C7.74912281,19.5140351 7.6754386,19.477193 7.66315789,19.4035088 C7.65087719,19.3052632 7.74912281,19.2315789 7.82280702,19.1578947 C7.95789474,19.022807 7.99473684,18.8263158 8.06842105,18.654386 C8.30175439,18.0894737 8.89122807,17.7333333 9.1122807,17.1561404 C9.19824561,16.9350877 9.22280702,16.6894737 9.37017544,16.5052632 C9.45614035,16.4070175 9.54210526,16.3333333 9.65263158,16.2596491 C9.87368421,16.0631579 10.0824561,15.854386 10.2666667,15.6333333 C10.3526316,15.5473684 10.4140351,15.4491228 10.4631579,15.3385965 C10.5122807,15.1666667 10.5245614,14.9947368 10.5122807,14.822807 C10.5245614,14.245614 10.7824561,13.7175439 10.9421053,13.1649123 C11.0894737,12.6491228 11.1508772,12.1087719 11.3473684,11.6052632 C11.5438596,11.1017544 11.9245614,10.5859649 12.4403509,10.4508772 Z" id="Path" fill="#000000" opacity="0.1"></path>
                    <path d="M12.6368421,10.4508772 C12.6,10.7824561 12.9192982,11.0280702 13.0421053,11.322807 C13.0912281,11.4701754 13.1280702,11.6175439 13.1280702,11.7649123 C13.2140351,12.8087719 13.1526316,13.8649123 13.0789474,14.9087719 C13.0666667,15.2526316 13.0298246,15.6087719 12.9561404,15.9403509 C12.7842105,16.6526316 12.3421053,17.2789474 11.9122807,17.8807018 C11.8508772,17.9789474 11.777193,18.0649123 11.6912281,18.1508772 C11.5684211,18.2491228 11.4333333,18.3350877 11.2736842,18.3964912 L9.8122807,19.1087719 C9.62807018,19.1947368 9.45614035,19.2929825 9.29649123,19.4035088 C9.1122807,19.5508772 8.96491228,19.7473684 8.86666667,19.9684211 C8.58421053,19.8210526 8.28947368,19.6982456 8.00701754,19.5508772 C7.94561404,19.5140351 7.87192982,19.477193 7.85964912,19.4035088 C7.84736842,19.3052632 7.94561404,19.2315789 8.01929825,19.1578947 C8.15438596,19.022807 8.19122807,18.8263158 8.26491228,18.654386 C8.49824561,18.0894737 9.0877193,17.7333333 9.30877193,17.1561404 C9.39473684,16.9350877 9.41929825,16.6894737 9.56666667,16.5052632 C9.65263158,16.4070175 9.73859649,16.3333333 9.84912281,16.2596491 C10.0701754,16.0631579 10.2789474,15.854386 10.4631579,15.6333333 C10.5491228,15.5473684 10.6105263,15.4491228 10.6596491,15.3385965 C10.7087719,15.1666667 10.7210526,14.9947368 10.7087719,14.822807 C10.7210526,14.245614 10.9789474,13.7175439 11.1385965,13.1649123 C11.2859649,12.6491228 11.3473684,12.1087719 11.5438596,11.6052632 C11.7403509,11.1017544 12.1210526,10.5859649 12.6368421,10.4508772 Z" id="Path" fill="#FF9E2D"></path>
                    <path d="M11.1017544,4.2122807 C10.5982456,4.15087719 10.0824561,4.26140351 9.64035088,4.51929825 C9.70175439,4.51929825 9.7754386,4.51929825 9.83684211,4.53157895 C11.1263158,4.69122807 12.0350877,5.85789474 11.8877193,7.13508772 C11.8017544,7.85964912 11.3719298,8.51052632 10.745614,8.87894737 C12.0350877,8.91578947 13.1157895,7.90877193 13.1649123,6.60701754 C13.1894737,5.40350877 12.3052632,4.35964912 11.1017544,4.2122807 L11.1017544,4.2122807 Z" id="Path" fill="#46455B"></path>
                    <path d="M11.8140351,5.51403509 C11.9245614,5.77192982 11.9368421,6.06666667 11.8263158,6.33684211 C11.8140351,6.3 11.8017544,6.2754386 11.7894737,6.23859649 C11.4947368,5.6 10.6105263,5.32982456 9.8,5.64912281 C9.35789474,5.80877193 9.01403509,6.14035088 8.84210526,6.57017544 C8.63333333,5.94385965 9.05087719,5.23157895 9.8245614,4.93684211 C10.6350877,4.60526316 11.5315789,4.86315789 11.8140351,5.51403509 Z" id="Path" fill="#46455B"></path>
                    <g opacity="0.1" transform="translate(9.578947, 0.736842)" fill="#000000" id="Path">
                        <path d="M2.24736842,5.55087719 C2.17368421,4.62982456 1.55964912,3.83157895 0.675438596,3.5245614 C0.454385965,3.57368421 0.245614035,3.65964912 0.049122807,3.77017544 C0.110526316,3.77017544 0.184210526,3.77017544 0.245614035,3.78245614 C1.21578947,3.90526316 2.01403509,4.60526316 2.24736842,5.55087719 Z"></path>
                        <path d="M2.62807018,3.83157895 C2.55438596,2.91052632 1.94035088,2.1122807 1.05614035,1.80526316 C0.835087719,1.85438596 0.626315789,1.94035088 0.429824561,2.06315789 C0.49122807,2.06315789 0.564912281,2.06315789 0.626315789,2.0754386 C1.59649123,2.19824561 2.38245614,2.89824561 2.62807018,3.83157895 Z"></path>
                        <path d="M2.62807018,1.27719298 C2.57894737,0.724561404 2.21052632,0.245614035 1.68245614,0.0614035088 C1.54736842,0.098245614 1.4245614,0.147368421 1.30175439,0.20877193 C1.33859649,0.20877193 1.3754386,0.20877193 1.4245614,0.221052632 C2.01403509,0.294736842 2.49298246,0.712280702 2.62807018,1.27719298 Z"></path>
                        <path d="M3.5122807,5.23157895 C3.61052632,6.39824561 2.83684211,7.44210526 1.69473684,7.7122807 C1.53508772,7.88421053 1.35087719,8.03157895 1.15438596,8.15438596 C2.44385965,8.20350877 3.53684211,7.19649123 3.58596491,5.89473684 C3.58596491,5.66140351 3.56140351,5.44035088 3.5122807,5.23157895 Z"></path>
                    </g>
                </g>
                <path d="M71.4982456,35.945614 C71.1912281,35.6877193 70.7491228,35.6631579 70.4175439,35.8964912 C70.1719298,36.0807018 70.0614035,36.3754386 69.9631579,36.6701754 C69.8157895,37.0877193 69.5824561,37.5052632 69.5333333,37.9473684 C69.422807,39.1754386 68.5631579,40.2070175 68.3052632,41.4105263 C68.2070175,41.8403509 68.1947368,42.2947368 68.0105263,42.7 C67.9245614,42.8719298 67.8263158,43.0438596 67.7157895,43.2035088 C67.2859649,43.8789474 66.9175439,44.6035088 66.6105263,45.3403509 C66.4017544,45.4017544 66.2175439,45.6105263 66.045614,45.7701754 C65.8245614,45.9789474 65.5666667,46.1385965 65.2842105,46.2368421 C65.1614035,46.2614035 65.0631579,46.3105263 64.9649123,46.3964912 C64.8421053,46.5315789 64.8421053,46.7403509 64.7438596,46.8877193 C64.6701754,46.9859649 64.5719298,47.0596491 64.4614035,47.1210526 C64.4491228,47.0842105 64.4491228,47.0473684 64.4491228,47.0105263 C64.4245614,46.8263158 64.4,46.6298246 64.3877193,46.445614 C64.977193,45.5859649 64.854386,44.4192982 64.0929825,43.6947368 C64.0684211,43.4 64.0807018,43.1052632 64.1175439,42.8105263 C64.154386,42.6631579 64.1052632,42.5157895 63.9947368,42.4175439 C63.9333333,42.3807018 63.8596491,42.3684211 63.7982456,42.3438596 C63.7,42.2824561 63.6263158,42.1964912 63.5649123,42.1105263 C63.2087719,41.7052632 62.6070175,41.6192982 62.1526316,41.9017544 C61.8087719,42.1350877 61.6245614,42.5403509 61.3298246,42.8350877 C61.1824561,42.9824561 60.9982456,43.1052632 60.8508772,43.2526316 C60.5438596,43.5719298 60.3473684,43.9894737 60.2859649,44.4192982 C60.2245614,44.8491228 60.2,45.2912281 60.2368421,45.7333333 C60.2368421,45.8684211 60.2491228,46.0035088 60.2982456,46.1263158 C60.3473684,46.2245614 60.3964912,46.322807 60.4824561,46.4087719 C60.8385965,46.8754386 61.3175439,47.2438596 61.8578947,47.477193 C61.8578947,47.5017544 61.8578947,47.5263158 61.8578947,47.5508772 C61.8578947,47.5877193 61.8578947,47.6368421 61.845614,47.6736842 L61.7842105,47.6614035 C61.5631579,47.6368421 61.3298246,47.6614035 61.1210526,47.5754386 C60.777193,47.4280702 60.6298246,46.9736842 60.2859649,46.8017544 C60.2614035,46.7894737 60.2245614,46.777193 60.2,46.7649123 C60.1140351,46.1877193 59.954386,45.6350877 59.6964912,45.1192982 C59.5736842,44.8736842 59.4385965,44.6157895 59.4263158,44.345614 C59.4385965,44.0877193 59.4877193,43.8298246 59.5982456,43.5964912 C59.8807018,42.7491228 60.0894737,41.8894737 60.2491228,41.0175439 C60.3596491,40.4649123 60.4701754,39.9245614 60.5807018,39.3719298 C60.7280702,39.2368421 60.8631579,39.077193 60.9859649,38.9052632 C61.2192982,38.5614035 61.3666667,38.1684211 61.3912281,37.7508772 C61.4157895,37.3333333 61.2684211,36.9280702 60.9859649,36.6087719 C60.8631579,36.4614035 60.6789474,36.3631579 60.4824561,36.3631579 C60.3105263,36.3877193 60.1631579,36.4736842 60.0649123,36.6087719 C59.9175439,36.8175439 59.8070175,37.0508772 59.745614,37.3087719 C59.622807,37.7140351 59.5,38.1438596 59.5614035,38.5614035 C59.6105263,38.9175439 59.7824561,39.2859649 59.6105263,39.5929825 C59.0333333,40.6 58.6403509,41.7298246 58.2105263,42.8105263 C58.1,43.0684211 58.0140351,43.3385965 57.9403509,43.6087719 C57.854386,44.0508772 57.8421053,44.4929825 57.8912281,44.9473684 C57.9894737,45.7824561 58.1491228,46.6052632 58.3701754,47.4157895 C58.4561404,47.7842105 58.5666667,48.177193 58.7754386,48.4719298 C58.7017544,48.8894737 58.677193,49.3070175 58.7263158,49.7245614 C58.7263158,49.822807 58.7508772,49.9210526 58.8,49.9947368 C58.8736842,50.0929825 58.9596491,50.1789474 59.0578947,50.2526316 C59.3280702,50.4982456 59.4754386,50.854386 59.4631579,51.2105263 C59.4631579,51.5421053 59.5368421,51.8736842 59.6596491,52.1929825 C59.954386,53.0649123 60.2491228,53.9491228 60.5070175,54.8333333 C60.5684211,54.9929825 60.5929825,55.1649123 60.5929825,55.3368421 C60.5929825,55.5824561 60.4701754,55.8280702 60.5315789,56.0736842 C60.5684211,56.1842105 60.6052632,56.2947368 60.6298246,56.4175439 C60.6298246,56.5035088 60.6175439,56.6017544 60.5929825,56.6754386 C60.4333333,57.3631579 59.9666667,58.9719298 60.0526316,59.6842105 L60.2122807,59.622807 C60.1508772,60.5561404 59.8561404,61.477193 59.745614,62.422807 C59.6719298,63.1105263 59.6842105,63.7982456 59.7701754,64.4736842 C59.8192982,64.7807018 59.8438596,65.0877193 59.8438596,65.3947368 C59.8438596,65.6649123 59.7947368,65.9473684 59.7824561,66.2175439 C59.7824561,66.5859649 59.7947368,66.954386 59.8438596,67.322807 C59.8929825,67.9 59.9789474,68.4649123 60.1140351,69.0298246 C60.3719298,69.9877193 60.2,70.9701754 60.2245614,71.9649123 C60.2614035,72.6526316 60.2491228,73.3403509 60.2,74.0280702 C60.1754386,74.322807 60.1385965,74.6052632 60.1263158,74.9 C60.1017544,75.7719298 60.3596491,76.6315789 60.2614035,77.4912281 C60.2245614,77.8964912 60.1140351,78.3508772 60.3719298,78.6701754 C60.4578947,78.7684211 60.5561404,78.8421053 60.6421053,78.9403509 C60.7403509,79.0263158 60.777193,79.1614035 60.7526316,79.2842105 C60.7157895,79.3824561 60.6298246,79.4561404 60.6052632,79.554386 C60.5807018,79.7140351 60.7526316,79.8245614 60.9122807,79.8736842 L60.9491228,79.8859649 C60.9368421,79.9964912 60.9859649,80.0947368 61.0596491,80.1807018 C61.1578947,80.254386 61.2684211,80.3035088 61.3912281,80.3157895 L63.3561404,80.6964912 C63.7982456,80.7824561 64.277193,80.8561404 64.6824561,80.7087719 C64.6947368,80.7701754 64.7315789,80.8192982 64.7807018,80.8684211 C64.8789474,80.9421053 64.9894737,80.9912281 65.1122807,81.0035088 L67.077193,81.3842105 C67.5807018,81.4826188 68.1333333,81.5684211 68.5754386,81.322807 C68.6982456,81.2491228 68.8087719,81.1508772 68.8947368,81.0280702 C69.0175439,80.7947368 69.0421053,80.5122807 68.9315789,80.2666667 C68.8947368,80.1438596 68.8210526,80.0333333 68.7105263,79.9473684 C68.5754386,79.8736842 68.4157895,79.8368421 68.2561404,79.8491228 C68.1210526,79.8614035 67.9859649,79.8368421 67.8631579,79.7877193 C67.8263158,79.7631579 67.7894737,79.7385965 67.7649123,79.7017544 C67.8631579,79.5789474 67.9614035,79.4561404 68.0473684,79.3333333 C67.9614035,79.3087719 67.9245614,79.1982456 67.9,79.1122807 C67.6421053,77.8350877 67.9982456,76.5333333 68.0473684,75.2315789 C68.0719298,74.5807018 68.022807,73.9298246 67.9,73.2912281 C67.8508772,73.045614 67.7894737,72.8122807 67.7649123,72.5666667 C67.5807018,71.3017544 68.0719298,70.0122807 67.9122807,68.7350877 C67.8385965,68.145614 68.0964912,67.5192982 68.1824561,66.9298246 C68.2684211,66.4017544 68.2070175,65.8736842 68.1578947,65.3333333 L67.7526316,61.1578947 C67.6912281,60.5929825 67.6421053,60.0157895 67.3964912,59.5 C67.2736842,59.2175439 67.2245614,58.8982456 67.2245614,58.5912281 C67.7157895,58.3087719 68.1701754,57.9280702 68.722807,57.9157895 C68.8333333,57.5105263 68.5263158,56.2333333 68.3421053,55.8526316 C67.6421053,54.3666667 67.3719298,52.7087719 67.5438596,51.0631579 C67.6052632,50.4736842 67.3719298,49.8842105 67.4578947,49.2947368 C67.4701754,49.1596491 67.5070175,49.0245614 67.5684211,48.9017544 C67.6298246,48.7789474 67.7526316,48.6929825 67.9,48.6807018 C67.8631579,48.3245614 67.8140351,47.9684211 67.7649123,47.6245614 C67.9614035,47.4157895 68.1333333,47.1824561 68.2561404,46.9122807 C68.5140351,46.3719298 68.6245614,45.7947368 68.7719298,45.2175439 C69.0421053,44.2105263 69.4596491,43.2526316 69.7789474,42.2578947 C70.0982456,41.2631579 70.0368421,40.2192982 70.2701754,39.2 C70.4052632,38.6350877 70.7491228,38.1561404 71.2280702,37.8368421 C71.4122807,37.7140351 71.6210526,37.6157895 71.7561404,37.4438596 C71.854386,37.2964912 71.9035088,37.1245614 71.9035088,36.9403509 C71.9526316,36.5842105 71.7929825,36.2035088 71.4982456,35.945614 Z M63.9947368,78.9035088 C64.0315789,78.854386 64.0684211,78.8052632 64.1052632,78.7561404 C63.9701754,78.7438596 63.8105263,78.6701754 63.7982456,78.5473684 C63.7982456,78.4122807 63.8105263,78.2894737 63.8350877,78.154386 C63.8719298,77.9333333 63.8596491,77.7 63.7982456,77.4789474 C63.7491228,77.3315789 63.6877193,77.1842105 63.6385965,77.0245614 C63.5894737,76.8526316 63.5526316,76.6807018 63.5280702,76.5087719 C63.4052632,75.8824561 63.2210526,75.2807018 62.9754386,74.6912281 C62.7298246,74.1263158 62.9140351,73.5122807 62.9263158,72.8859649 C62.9263158,72.5912281 62.877193,72.2964912 62.9508772,72.0140351 C62.9877193,71.8421053 63.0736842,71.6947368 63.122807,71.522807 C63.2210526,71.1298246 63.0982456,70.7245614 62.9754386,70.3438596 C63.4666667,69.2017544 63.5280702,67.8877193 63.6263158,66.6350877 C63.6877193,65.9350877 63.7368421,65.2473684 63.7982456,64.5473684 C63.822807,64.2403509 63.8473684,63.9087719 64.0192982,63.6508772 C64.3140351,64.5350877 64.4859649,65.4561404 64.5350877,66.3894737 C64.5350877,66.6596491 64.5719298,66.9298246 64.6333333,67.1877193 C64.7070175,67.4824561 64.8666667,67.7403509 64.9649123,68.022807 C65.1859649,68.6491228 65.1614035,69.3245614 65.2719298,69.9754386 C65.3087719,70.245614 65.3701754,70.5035088 65.4192982,70.7614035 C65.5912281,71.9280702 65.3210526,73.1070175 65.0385965,74.2491228 C64.8666667,74.9491228 64.9035088,75.722807 64.854386,76.4473684 C64.8175439,77.1350877 64.7807018,77.8350877 64.7929825,78.522807 C64.7929825,78.7315789 64.8052632,78.9526316 64.8052632,79.1614035 C64.7438596,79.1491228 64.6701754,79.1491228 64.6087719,79.1491228 C64.4736842,79.1614035 64.3385965,79.1368421 64.2157895,79.0877193 C64.0929825,79.0631579 64.0315789,78.9894737 63.9947368,78.9035088 Z" id="Shape" fill="url(#linearGradient-2)" fill-rule="nonzero"></path>
                <path d="M68.2807018,79.8614035 C68.4403509,79.8491228 68.6,79.8859649 68.7350877,79.9596491 C68.8333333,80.045614 68.9192982,80.1561404 68.9561404,80.2789474 C69.054386,80.5245614 69.0421053,80.8070175 68.9070175,81.0403509 C68.8333333,81.1631579 68.722807,81.2614035 68.5877193,81.3350877 C68.145614,81.5807018 67.5929825,81.4947368 67.0894737,81.3964912 L65.1245614,81.0157895 C65.0017544,81.0035088 64.8912281,80.9666667 64.7929825,80.8929825 C64.6701754,80.7578947 64.645614,80.5614035 64.7315789,80.4017544 C64.8175439,80.2421053 64.9403509,80.1192982 65.1,80.0333333 C65.6649123,79.677193 66.3280702,79.5421053 66.9789474,79.4684211 C67.2245614,79.4438596 67.4578947,79.3578947 67.6421053,79.5298246 C67.7403509,79.6157895 67.7403509,79.7263158 67.8754386,79.8 C68.0105263,79.8614035 68.145614,79.8736842 68.2807018,79.8614035 Z" id="Path" fill="#3F3D56" fill-rule="nonzero"></path>
                <path d="M64.5719298,79.1859649 C64.7315789,79.1736842 64.8912281,79.2105263 65.0263158,79.2842105 C65.1368421,79.3578947 65.2105263,79.4807018 65.2473684,79.6035088 C65.345614,79.8491228 65.3333333,80.1315789 65.2105263,80.3649123 C65.1368421,80.4877193 65.0263158,80.5859649 64.8912281,80.6596491 C64.4491228,80.9052632 63.8964912,80.8192982 63.3929825,80.7210526 L61.4280702,80.3403509 C61.3052632,80.3280702 61.1947368,80.2912281 61.0964912,80.2175439 C60.9736842,80.0824561 60.9491228,79.8859649 61.0350877,79.7263158 C61.1210526,79.5666667 61.2561404,79.4438596 61.4035088,79.3578947 C61.9684211,79.0140351 62.6315789,78.8666667 63.2824561,78.7929825 C63.5280702,78.7684211 63.7614035,78.6824561 63.945614,78.854386 C64.0438596,78.9403509 64.0438596,79.0508772 64.1789474,79.1245614 C64.3017544,79.1859649 64.4368421,79.1982456 64.5719298,79.1859649 Z" id="Path" fill="#3F3D56" fill-rule="nonzero"></path>
                <path d="M64.0807018,58.3087719 C62.9508772,58.3087719 61.8087719,58.3947368 60.6912281,58.5666667 C60.6175439,58.5789474 60.5438596,58.5912281 60.4701754,58.6280702 C60.2368421,58.7508772 60.2245614,59.0824561 60.2245614,59.3526316 C60.2368421,60.445614 59.8684211,61.5017544 59.745614,62.5824561 C59.6719298,63.2578947 59.6842105,63.945614 59.7701754,64.6210526 C59.8192982,64.9280702 59.8438596,65.2350877 59.8438596,65.5421053 C59.8438596,65.8122807 59.7947368,66.0824561 59.7824561,66.3649123 C59.7824561,66.7333333 59.7947368,67.1017544 59.8438596,67.4578947 C59.8929825,68.022807 59.9789474,68.6 60.1140351,69.1526316 C60.3719298,70.0982456 60.2,71.0807018 60.2245614,72.0631579 C60.2614035,72.7508772 60.2491228,73.4385965 60.2,74.1140351 C60.1754386,74.4087719 60.1385965,74.6912281 60.1263158,74.9859649 C60.1017544,75.845614 60.3596491,76.7052632 60.2614035,77.5649123 C60.2245614,77.9701754 60.1140351,78.4245614 60.3719298,78.7315789 C60.4578947,78.8298246 60.5561404,78.9035088 60.6421053,79.0017544 C60.7403509,79.0877193 60.777193,79.222807 60.7526316,79.345614 C60.7157895,79.4438596 60.6298246,79.5175439 60.6052632,79.6157895 C60.5807018,79.7754386 60.7526316,79.8859649 60.9122807,79.9350877 C62.1035088,80.3035088 63.3929825,79.8368421 64.0807018,78.7929825 C63.945614,78.7807018 63.7859649,78.7070175 63.7736842,78.5842105 C63.7736842,78.4491228 63.7859649,78.3263158 63.8105263,78.2035088 C63.8473684,77.9824561 63.8350877,77.7491228 63.7736842,77.5280702 C63.7245614,77.3807018 63.6631579,77.2333333 63.6140351,77.0736842 C63.5649123,76.9017544 63.5280702,76.7298246 63.5035088,76.5578947 C63.3807018,75.9315789 63.1964912,75.3298246 62.9508772,74.7526316 C62.7052632,74.1877193 62.9017544,73.5736842 62.9017544,72.9596491 C62.9017544,72.6649123 62.8526316,72.3701754 62.9263158,72.1 C62.9631579,71.9280702 63.0491228,71.7807018 63.0982456,71.6087719 C63.1964912,71.2157895 63.0736842,70.8105263 62.9508772,70.4421053 C63.4421053,69.3 63.5035088,67.9982456 63.6017544,66.7578947 L63.7736842,64.6701754 C63.7982456,64.3631579 63.822807,64.0438596 63.9947368,63.7736842 C64.2894737,64.6578947 64.4614035,65.5666667 64.5105263,66.5 C64.5105263,66.7701754 64.5473684,67.0403509 64.6087719,67.2982456 C64.6824561,67.5807018 64.8298246,67.8508772 64.9403509,68.1333333 C65.1614035,68.7473684 65.1368421,69.422807 65.2350877,70.0736842 C65.2719298,70.3315789 65.3333333,70.5894737 65.3701754,70.8596491 C65.5421053,72.0140351 65.2596491,73.1929825 64.9894737,74.322807 C64.8175439,75.022807 64.8421053,75.7964912 64.8052632,76.5087719 C64.7684211,77.1964912 64.7315789,77.8842105 64.7438596,78.5719298 C64.7561404,79.2105263 64.8052632,79.8859649 64.4736842,80.4140351 C64.854386,80.6105263 65.2473684,80.8070175 65.677193,80.8438596 C66.1684211,80.8684211 66.6596491,80.7210526 67.0526316,80.4263158 C67.445614,80.1315789 67.7894737,79.7754386 68.0596491,79.3701754 C67.9736842,79.345614 67.9368421,79.2350877 67.9122807,79.1491228 C67.654386,77.8842105 68.0105263,76.5824561 68.0719298,75.2929825 C68.0964912,74.6421053 68.0473684,74.0035088 67.9245614,73.3649123 C67.8754386,73.1192982 67.8140351,72.8859649 67.777193,72.6526316 C67.5929825,71.3877193 68.0842105,70.1105263 67.9245614,68.845614 C67.8508772,68.2561404 68.1087719,67.6421053 68.1947368,67.0526316 C68.2807018,66.5368421 68.2192982,65.9964912 68.1701754,65.4684211 L67.7649123,61.3175439 C67.7157895,60.7526316 67.654386,60.1877193 67.4087719,59.6719298 C67.1263158,59.0578947 67.2982456,58.2964912 67.2736842,57.6210526 C66.2789474,58.0508772 65.1859649,58.2842105 64.0807018,58.3087719 Z" id="Path" fill="#46455B" fill-rule="nonzero"></path>
                <path d="M66.4508772,46.0403509 C66.7824561,45.1315789 67.2245614,44.2596491 67.7403509,43.4368421 C67.8508772,43.277193 67.9491228,43.1052632 68.0350877,42.9333333 C68.2192982,42.5403509 68.2315789,42.0859649 68.3298246,41.6561404 C68.6,40.4649123 69.4596491,39.4333333 69.5701754,38.2175439 C69.6070175,37.7754386 69.8526316,37.3701754 70,36.9526316 C70.0982456,36.6701754 70.2087719,36.3631579 70.454386,36.1912281 C70.7859649,35.9701754 71.2280702,35.9947368 71.5350877,36.2403509 C71.8298246,36.4982456 71.9894737,36.8789474 71.9649123,37.2719298 C71.9649123,37.4438596 71.9157895,37.6280702 71.8175439,37.7754386 C71.6824561,37.9596491 71.4736842,38.0578947 71.2894737,38.1684211 C70.8105263,38.4754386 70.4666667,38.9666667 70.3315789,39.5192982 C70.0982456,40.5263158 70.1596491,41.5701754 69.8280702,42.5526316 C69.4964912,43.5350877 69.0912281,44.4929825 68.8210526,45.5 C68.6736842,46.0649123 68.5631579,46.654386 68.3052632,47.1824561 C68.0473684,47.7105263 67.6175439,48.1894737 67.0403509,48.3245614 C67.0035088,47.9561404 66.9052632,47.6 66.7578947,47.2684211 C66.5859649,46.8754386 66.3157895,46.4333333 66.4508772,46.0403509 Z" id="Path" fill="#A0616A" fill-rule="nonzero"></path>
                <path d="M60.2736842,47.4403509 C60.2245614,46.7280702 60.0403509,46.0157895 59.7333333,45.377193 C59.6105263,45.1315789 59.4754386,44.8859649 59.4631579,44.6035088 C59.4754386,44.345614 59.5245614,44.1 59.6350877,43.8666667 C59.9175439,43.0315789 60.1385965,42.1719298 60.2859649,41.3 L60.6298246,39.6666667 C60.777193,39.5315789 60.9122807,39.3719298 61.022807,39.2 C61.2561404,38.8561404 61.4035088,38.4631579 61.4280702,38.045614 C61.4526316,37.6280702 61.3052632,37.222807 61.022807,36.9157895 C60.9,36.7684211 60.7157895,36.6824561 60.5192982,36.6824561 C60.3473684,36.7070175 60.2,36.7929825 60.1017544,36.9280702 C59.954386,37.1368421 59.8438596,37.3701754 59.7947368,37.6157895 C59.6719298,38.0210526 59.5491228,38.4385965 59.5982456,38.8561404 C59.6473684,39.2 59.8192982,39.5807018 59.6473684,39.8877193 C59.0701754,40.8824561 58.677193,42.0122807 58.2473684,43.0807018 C58.1368421,43.3385965 58.0508772,43.6087719 57.977193,43.8789474 C57.8912281,44.3210526 57.8789474,44.7631579 57.9280702,45.2052632 C58.0263158,46.0403509 58.1859649,46.8508772 58.4070175,47.6614035 C58.5298246,48.1649123 58.677193,48.7175439 59.1070175,49.0245614 C59.4508772,48.4473684 59.8070175,47.8947368 60.2736842,47.4403509 Z" id="Path" fill="#A0616A" fill-rule="nonzero"></path>
                <circle id="Oval" fill="#A0616A" fill-rule="nonzero" cx="62.6684211" cy="45.4754386" r="2.1122807"></circle>
                <path d="M61.8824561,47.7842105 C61.8701754,48.1649123 61.6982456,48.5333333 61.5385965,48.877193 C61.4403509,49.0859649 61.3052632,49.3192982 61.0842105,49.3684211 C61.722807,49.6263158 62.3859649,49.8105263 63.0614035,49.9333333 C63.2947368,49.9824561 63.5280702,49.9947368 63.7736842,49.9701754 C63.9701754,49.9333333 64.1666667,49.8596491 64.3385965,49.7614035 C65.1122807,49.3192982 65.6403509,48.5578947 65.7754386,47.6736842 C65.5175439,47.7105263 65.2473684,47.7105263 64.9894737,47.6982456 C64.8421053,47.6982456 64.6947368,47.6491228 64.5842105,47.5508772 C64.5105263,47.4526316 64.4736842,47.3421053 64.4736842,47.2192982 C64.4245614,46.8754386 64.3877193,46.5192982 64.3631579,46.1754386 C63.8473684,46.2 63.3315789,46.3105263 62.8526316,46.5192982 C62.6561404,46.6052632 62.4596491,46.7035088 62.2631579,46.777193 C62.1403509,46.8263158 61.7842105,46.8263158 61.6982456,46.9122807 C61.5631579,47.0350877 61.8947368,47.5263158 61.8824561,47.7842105 Z" id="Path" fill="#A0616A" fill-rule="nonzero"></path>
                <path d="M62.9385965,48.9631579 C62.8280702,48.3982456 62.3859649,47.9684211 61.8210526,47.8947368 C61.6,47.8701754 61.3666667,47.8947368 61.1578947,47.8087719 C60.8140351,47.6614035 60.6666667,47.2192982 60.322807,47.0473684 C59.9789474,46.8754386 59.5491228,47.0350877 59.2912281,47.3298246 C59.0333333,47.6245614 58.9350877,48.0175439 58.8614035,48.3859649 C58.7385965,48.9017544 58.7017544,49.4175439 58.7508772,49.945614 C58.7508772,50.0438596 58.7877193,50.1298246 58.8245614,50.2157895 C58.8982456,50.3140351 58.9842105,50.4 59.0701754,50.4736842 C59.3403509,50.7192982 59.4877193,51.0631579 59.4754386,51.4315789 C59.4754386,51.7631579 59.5491228,52.0947368 59.6719298,52.4140351 C59.9666667,53.2859649 60.2614035,54.1578947 60.5192982,55.0421053 C60.5807018,55.2017544 60.6052632,55.3736842 60.6052632,55.545614 C60.6052632,55.7912281 60.4824561,56.0368421 60.5438596,56.2824561 C60.5807018,56.3929825 60.6175439,56.5035088 60.6421053,56.6263158 C60.6421053,56.7122807 60.6298246,56.7982456 60.6052632,56.8842105 C60.445614,57.5719298 59.9789474,59.1684211 60.0649123,59.8684211 C61.1087719,59.4877193 62.6929825,59.254386 63.7982456,59.1315789 C64.1052632,59.0947368 64.4122807,59.0824561 64.7192982,59.0824561 C65.4561404,59.0824561 66.2298246,59.2175439 66.9175439,58.9473684 C67.5561404,58.7017544 68.0842105,58.1122807 68.7719298,58.1122807 C68.8824561,57.7070175 68.5754386,56.4421053 68.3912281,56.0614035 C67.6912281,54.5754386 67.4210526,52.9421053 67.5929825,51.3087719 C67.654386,50.7192982 67.4210526,50.1298246 67.5070175,49.5526316 C67.5192982,49.4175439 67.5561404,49.2824561 67.6175439,49.1596491 C67.6789474,49.0368421 67.8017544,48.9508772 67.9491228,48.9385965 C67.8631579,48.0298246 67.6912281,47.1210526 67.4210526,46.2491228 C67.322807,45.9421053 67.1385965,45.5736842 66.8192982,45.5614035 C66.5245614,45.5368421 66.3035088,45.8070175 66.0947368,46.0157895 C65.8736842,46.2245614 65.6157895,46.3842105 65.3333333,46.4824561 C65.2105263,46.5070175 65.1122807,46.5561404 65.0140351,46.6421053 C64.8912281,46.7649123 64.8912281,46.9859649 64.7929825,47.1333333 C64.6210526,47.4035088 64.1666667,47.4280702 64.0561404,47.7350877 C64.0315789,47.8210526 64.0192982,47.9192982 64.0070175,48.0052632 C63.9578947,48.1894737 63.8596491,48.3491228 63.7122807,48.4719298 C63.4912281,48.6684211 63.2333333,48.8526316 62.9385965,48.9631579 Z" id="Path" fill="#2F2E41" fill-rule="nonzero"></path>
                <path d="M64.1421053,43.0684211 C64.1789474,42.9210526 64.1298246,42.7736842 64.0192982,42.6877193 C63.9578947,42.6631579 63.8842105,42.6263158 63.822807,42.6140351 C63.7245614,42.5526316 63.6508772,42.4666667 63.5894737,42.3807018 C63.2333333,41.9754386 62.6438596,41.8894737 62.177193,42.1719298 C61.8333333,42.4052632 61.6491228,42.8105263 61.354386,43.0929825 C61.2070175,43.2403509 61.022807,43.3631579 60.8754386,43.5105263 C60.5684211,43.8298246 60.3719298,44.2350877 60.3105263,44.677193 C60.2491228,45.1070175 60.2245614,45.5491228 60.2614035,45.9912281 C60.2614035,46.1263158 60.2736842,46.2614035 60.322807,46.3842105 C60.3719298,46.4824561 60.4333333,46.5807018 60.5070175,46.6666667 C60.8754386,47.1578947 61.3789474,47.5263158 61.9561404,47.7596491 C62.5333333,47.9684211 63.2087719,47.9438596 63.7245614,47.6122807 C63.7736842,47.5877193 63.822807,47.5385965 63.8473684,47.4894737 C63.8719298,47.4157895 63.8719298,47.3298246 63.8473684,47.2561404 C63.7859649,46.9491228 63.8105263,46.6298246 63.9333333,46.3473684 C64.0315789,46.1508772 64.1298246,45.9421053 64.2035088,45.7333333 C64.2526316,45.4877193 64.2649123,45.2421053 64.2280702,44.9964912 C64.154386,44.3333333 64.0438596,43.6947368 64.1421053,43.0684211 Z" id="Path" fill="#46455B" fill-rule="nonzero"></path>
                <path d="M99.8298246,68.4035088 C99.8298246,80.4877193 107.407018,90.2631579 116.777193,90.2631579" id="Path" fill="#46455B" fill-rule="nonzero"></path>
                <path d="M116.777193,90.2631579 C116.777193,78.0438596 125.238596,68.1578947 135.689474,68.1578947" id="Path" fill="#FF9E2D" fill-rule="nonzero"></path>
                <path d="M105.970175,69.4842105 C105.970175,80.9666667 110.796491,90.2508772 116.777193,90.2508772" id="Path" fill="#FF9E2D" fill-rule="nonzero"></path>
                <path d="M116.777193,90.2631579 C116.777193,74.654386 126.552632,62.0175439 138.636842,62.0175439" id="Path" fill="#46455B" fill-rule="nonzero"></path>
                <ellipse id="Oval" fill="#FF9E2D" fill-rule="nonzero" opacity="0.1" cx="116.040351" cy="93.7140351" rx="4.2122807" ry="1"></ellipse>
                <path d="M113.203509,90.4105263 C113.203509,90.4105263 115.610526,90.3368421 116.335088,89.8210526 C117.059649,89.3052632 120.031579,88.6912281 120.215789,89.5140351 C120.4,90.3368421 123.826316,93.6280702 121.112281,93.6526316 C118.398246,93.677193 114.812281,93.2350877 114.087719,92.7929825 C113.363158,92.3508772 113.203509,90.4105263 113.203509,90.4105263 Z" id="Path" fill="#A8A8A8" fill-rule="nonzero"></path>
                <path d="M121.149123,93.3578947 C118.435088,93.3824561 114.849123,92.9403509 114.124561,92.4982456 C113.57193,92.1666667 113.350877,90.9631579 113.277193,90.3982456 L113.191228,90.3982456 C113.191228,90.3982456 113.338596,92.3385965 114.063158,92.7807018 C114.787719,93.222807 118.373684,93.6649123 121.087719,93.6403509 C121.873684,93.6403509 122.14386,93.3578947 122.131579,92.9403509 C122.033333,93.2105263 121.738596,93.3578947 121.149123,93.3578947 Z" id="Path" fill="#000000" fill-rule="nonzero" opacity="0.2"></path>
                <path d="M100.149123,2.65263158 C100.259649,2.50526316 100.308772,2.32105263 100.321053,2.13684211 C100.321053,1.01929825 98.0368421,0.110526316 95.2245614,0.110526316 C92.4122807,0.110526316 90.1280702,1.01929825 90.1280702,2.13684211 C90.1280702,2.34561404 90.2017544,2.54210526 90.3245614,2.71403509 C87.1929825,3.05789474 85.0807018,3.72105263 85.0807018,4.47017544 C85.0807018,5.5877193 89.7473684,6.49649123 95.5192982,6.49649123 C101.291228,6.49649123 105.957942,5.5877193 105.957942,4.47017544 C105.970175,3.68421053 103.587719,2.98421053 100.149123,2.65263158 Z" id="Path" fill="#FF9E2D" fill-rule="nonzero" opacity="0.1"></path>
                <path d="M37.6403509,4.86315789 C37.7508772,4.71578947 37.8,4.53157895 37.8122807,4.34736842 C37.8122807,3.22982456 35.5280702,2.32105263 32.7157895,2.32105263 C29.9035088,2.32105263 27.6192982,3.22982456 27.6192982,4.34736842 C27.6192982,4.55614035 27.6929825,4.75263158 27.8280702,4.9245614 C24.6964912,5.26842105 22.5842105,5.93157895 22.5842105,6.68070175 C22.5842105,7.79824561 27.2631579,8.70701754 33.022807,8.70701754 C38.7824561,8.70701754 43.4614035,7.79824561 43.4614035,6.68070175 C43.4614035,5.89473684 41.0789474,5.19473684 37.6403509,4.86315789 Z" id="Path" fill="#FF9E2D" fill-rule="nonzero" opacity="0.1"></path>
                <path d="M73.4754386,3.15614035 C73.7578947,2.99649123 74.1508772,3.14385965 74.3473684,3.41403509 C74.5438596,3.68421053 74.5929825,4.02807018 74.654386,4.34736842 C74.7649123,5.07192982 74.8385965,5.90701754 74.3473684,6.45964912 C75.145614,4.02807018 77.454386,2.17368421 79.9964912,1.90350877" id="Path" stroke="#FF9E2D" stroke-width="3" opacity="0.1"></path>
                <path d="M32.5070175,15.5596491 C32.6912281,15.4491228 32.9368421,15.5596491 33.0596491,15.7315789 C33.1701754,15.9157895 33.2438596,16.1245614 33.2561404,16.3333333 C33.3298246,16.8 33.3789474,17.3403509 33.0596491,17.6842105 C33.6122807,16.0877193 35.0122807,14.9578947 36.6824561,14.7491228" id="Path" stroke="#FF9E2D" stroke-width="3" opacity="0.1"></path>
                <path d="M87.7701754,19.2438596 C87.954386,19.1333333 88.2,19.2438596 88.322807,19.4157895 C88.4333333,19.6 88.5070175,19.8087719 88.5192982,20.0175439 C88.5929825,20.4842105 88.6421053,21.0245614 88.322807,21.3684211 C88.8754386,19.7719298 90.2754386,18.6421053 91.945614,18.4333333" id="Path" stroke="#FF9E2D" stroke-width="3" opacity="0.1"></path>
                <polygon id="Path" fill="#FF9E2D" fill-rule="nonzero" opacity="0.1" points="83.2508772 60.5438596 83.2508772 57.5596491 84.6263158 58.9350877 84.9701754 58.5789474 83.0052632 56.6140351 81.0403509 58.5789474 81.3842105 58.922807 82.7596491 57.5596491 82.7596491 60.5438596"></polygon>
                <polygon id="Path" fill="#FF9E2D" fill-rule="nonzero" opacity="0.1" points="53.5315789 70.3684211 53.5315789 67.3842105 54.9070175 68.7596491 55.2508772 68.4035088 53.2859649 66.4385965 51.3210526 68.4035088 51.6649123 68.7473684 53.0403509 67.3842105 53.0403509 70.3684211"></polygon>
                <polygon id="Path" fill="#FF9E2D" fill-rule="nonzero" opacity="0.1" points="75.3912281 86.4561404 75.3912281 83.4719298 76.7666667 84.8473684 77.1105263 84.4912281 75.145614 82.5263158 73.1807018 84.4912281 73.5245614 84.8350877 74.9 83.4719298 74.9 86.4561404"></polygon>
            </g>
        </g>
    </g>
</svg>