<?xml version="1.0" encoding="iso-8859-1"?>
<!-- Generator: Adobe Illustrator 16.0.0, SVG Export Plug-In . SVG Version: 6.00 Build 0)  -->
<!DOCTYPE svg PUBLIC "-//W3C//DTD SVG 1.1//EN" "http://www.w3.org/Graphics/SVG/1.1/DTD/svg11.dtd" [
	<!ENTITY st0 "display:none;opacity:0.2;filter:url(#f1);">
	<!ENTITY st1 "fill:url(#SVGID_3_);">
	<!ENTITY st2 "fill:#FEFDF0;">
	<!ENTITY st3 "display:inline;">
	<!ENTITY st4 "display:none;">
	<!ENTITY st5 "fill-rule:evenodd;clip-rule:evenodd;fill:url(#SVGID_1_);">
	<!ENTITY st6 "fill-rule:evenodd;clip-rule:evenodd;fill:url(#SVGID_2_);">
]>
<svg version="1.1" id="Answer_Public_copy_3" xmlns="http://www.w3.org/2000/svg" xmlns:xlink="http://www.w3.org/1999/xlink"
	 x="0px" y="0px" width="120px" height="120px" viewBox="0 0 120 120" style="enable-background:new 0 0 120 120;"
	 xml:space="preserve">
<filter  x="-7" y="8" filterUnits="userSpaceOnUse" id="f1">
	<feOffset  result="offOut" in="SourceGraphic" dx="0" dy="3"></feOffset>
	<feGaussianBlur  stdDeviation="2" result="blurOut" in="offOut"></feGaussianBlur>
	<feBlend  mode="normal" in2="blurOut" in="SourceGraphic"></feBlend>
</filter>
<g id="shape_copy_18_25_" style="&st4;">
	<g style="&st3;">
		
			<linearGradient id="SVGID_1_" gradientUnits="userSpaceOnUse" x1="63.0957" y1="671.75" x2="63.0957" y2="551.75" gradientTransform="matrix(1 0 0 1 -3.0957 -551.75)">
			<stop  offset="0" style="stop-color:#EAC447"/>
			<stop  offset="1" style="stop-color:#EDCD62"/>
		</linearGradient>
		<path style="&st5;" d="M108,0H12C5.373,0,0,5.373,0,12v96c0,6.628,5.373,12,12,12h96c6.627,0,12-5.372,12-12V12
			C120,5.373,114.627,0,108,0z"/>
	</g>
</g>
<g id="shape_copy_18_23_">
	<g>
		
			<linearGradient id="SVGID_2_" gradientUnits="userSpaceOnUse" x1="95.333" y1="975.5264" x2="95.333" y2="920.75" gradientTransform="matrix(1 0 0 1 -2.166 -855.5264)">
			<stop  offset="0" style="stop-color:#32AF5C"/>
			<stop  offset="1" style="stop-color:#50BB74"/>
		</linearGradient>
		<path style="&st6;" d="M66.334,120H108c6.627,0,12-5.372,12-12V65.224L66.334,120z"/>
	</g>
</g>
<g style="&st0;">
	<path style="&st3;" d="M91.278,80.043l-5.19-4.608c3.072-4.563,4.44-10.044,4.44-15.937c0-15.882-14.584-30.055-30.612-30.055
		c-16.027,0-30.438,14.173-30.438,30.055c0,15.881,14.411,30.445,30.438,30.445c5.316,0,10.3-1.928,14.584-4.4l4.928,5.873
		c-6.16,4.061-11.508,5.127-19.458,5.127c-21.46,0-37.152-15.939-37.152-37.204S49.458,16.243,59.97,17.343
		c13.876,1.453,37.218,20.731,37.218,41.996C97.188,67.877,96.023,73.658,91.278,80.043z"/>
	<path style="&st3;" d="M74.988,52.816c0.277-0.263,0.277-0.718,0-0.985l-3.659-3.488c-0.276-0.267-0.752-0.267-1.027,0
		l-15.098,15.2l-6.583-6.6c-0.275-0.267-0.748-0.267-1.022,0l-3.69,3.082c-0.275,0.265-0.275,0.723,0,0.984l10.785,10.233
		c0.154,0.114,0.316,0.191,0.511,0.191c0.197,0,0.355-0.077,0.511-0.191L74.988,52.816z"/>
</g>
<g>
	<path style="&st2;" d="M91.278,82.153l-7.203-6.719c3.071-4.563,4.857-10.044,4.857-15.937c0-15.882-12.988-28.76-29.017-28.76
		c-16.027,0-29.021,12.878-29.021,28.76c0,15.881,12.993,28.759,29.021,28.759c5.316,0,10.3-1.418,14.584-3.891l6.975,7.05
		c-6.16,4.061-13.555,6.427-21.505,6.427c-21.46,0-38.854-17.239-38.854-38.504S38.51,20.836,59.97,20.836
		c21.458,0,38.854,17.238,38.854,38.503C98.824,67.877,96.023,75.768,91.278,82.153z"/>
	<path style="&st2;" d="M76.293,52.816c0.277-0.263,0.277-0.718,0-0.985l-4.964-4.777c-0.276-0.267-0.752-0.267-1.027,0
		L55.204,61.618l-6.583-6.37c-0.275-0.267-0.748-0.267-1.022,0l-4.968,4.777c-0.275,0.265-0.275,0.723,0,0.984l12.062,11.61
		c0.154,0.114,0.316,0.191,0.511,0.191c0.197,0,0.355-0.077,0.511-0.191L76.293,52.816z"/>
</g>
<g>
	<linearGradient id="SVGID_3_" gradientUnits="userSpaceOnUse" x1="94.334" y1="102.2969" x2="112.4775" y2="102.2969">
		<stop  offset="0" style="stop-color:#C7ECD4"/>
		<stop  offset="0.8768" style="stop-color:#D7FCE4"/>
	</linearGradient>
	<path style="&st1;" d="M112.362,100.876c-0.585,1.078-2.077,2.683-3.949,4.271c0.511,2.079,0.852,3.93,0.945,5.234
		c0.02,0.34-0.132,0.643-0.415,0.831c-0.152,0.096-0.322,0.151-0.492,0.151c-0.151,0-0.284-0.038-0.415-0.095
		c-0.322-0.188-0.68-0.358-1.04-0.529c-0.981-0.49-2.172-1.039-3.59-1.927c-1.417,0.888-2.608,1.437-3.589,1.927
		c-0.36,0.171-0.72,0.341-1.041,0.529c-0.284,0.151-0.642,0.134-0.907-0.057c-0.283-0.188-0.434-0.491-0.415-0.831
		c0.094-1.305,0.435-3.155,0.944-5.234c-1.87-1.588-3.362-3.192-3.949-4.271c-0.131-0.227-0.15-0.51-0.057-0.755
		c0.077-0.228,0.246-0.436,0.493-0.529c0.904-0.396,3.287-0.549,5.346-0.623c0.644-1.872,1.683-4.631,2.531-5.48
		c0.19-0.17,0.417-0.265,0.644-0.265s0.454,0.095,0.623,0.265c0.868,0.85,1.909,3.608,2.552,5.48
		c2.061,0.074,4.44,0.228,5.346,0.623c0.227,0.094,0.416,0.302,0.492,0.529C112.514,100.366,112.494,100.649,112.362,100.876z"/>
</g>
</svg>
