<?xml version="1.0" encoding="iso-8859-1"?>
<!-- Generator: Adobe Illustrator 16.0.0, SVG Export Plug-In . SVG Version: 6.00 Build 0)  -->
<!DOCTYPE svg PUBLIC "-//W3C//DTD SVG 1.1//EN" "http://www.w3.org/Graphics/SVG/1.1/DTD/svg11.dtd" [
	<!ENTITY st0 "fill-rule:evenodd;clip-rule:evenodd;fill:#E4F1FD;">
	<!ENTITY st1 "display:none;fill:#3C97DD;">
	<!ENTITY st2 "display:none;fill:#3CB364;">
	<!ENTITY st3 "fill-rule:evenodd;clip-rule:evenodd;fill:#E6F8EC;">
	<!ENTITY st4 "fill-rule:evenodd;clip-rule:evenodd;fill:#EFFAFA;">
	<!ENTITY st5 "fill-rule:evenodd;clip-rule:evenodd;fill:#F5F4FF;">
	<!ENTITY st6 "display:none;fill:#4DB1CA;">
	<!ENTITY st7 "display:none;fill:#8A75CD;">
]>
<svg version="1.1" id="Apps" xmlns="http://www.w3.org/2000/svg" xmlns:xlink="http://www.w3.org/1999/xlink" x="0px" y="0px"
	 width="120px" height="120px" viewBox="0 0 120 120" style="enable-background:new 0 0 120 120;" xml:space="preserve">
<path style="&st1;" d="M60,0H12C5.373,0,0,5.373,0,12v48h60V0z"/>
<path style="&st2;" d="M108,0H60v60h60V12C120,5.373,114.627,0,108,0z"/>
<path style="&st7;" d="M0,60v48c0,6.627,5.373,12,12,12h48V60H0z"/>
<path style="&st6;" d="M60,120h48c6.627,0,12-5.373,12-12V60H60V120z"/>
<g id="Color_Fill_19">
	<g>
		<path style="&st4;" d="M81.146,94.265l-4.093,6.729l6.725-4.094l-0.518-2.12L81.146,94.265z M83.26,84.344l0.517-2.118
			l-6.724-4.092l4.093,6.723L83.26,84.344z M93.705,94.779l-0.516,2.118l6.723,4.092l-4.094-6.725L93.705,94.779z M95.818,84.857
			l4.098-6.724l-6.732,4.093l0.514,2.117L95.818,84.857z M92.294,85.746l-3.81-15.689l-3.821,15.689l-15.685,3.815l15.685,3.814
			l3.821,15.688L92.3,93.376l15.685-3.814L92.294,85.746z M88.482,91.476c-1.052,0-1.904-0.853-1.904-1.902
			c0-1.053,0.852-1.905,1.904-1.905c1.051,0,1.903,0.853,1.903,1.905C90.385,90.623,89.533,91.476,88.482,91.476z"/>
	</g>
</g>
<g id="hammer">
	<g>
		<path style="&st5;" d="M31.974,75.365H25.54c-0.445,0-0.867,0.824-1.241,0.771c-1.048-0.147-1.724-0.492-1.884-0.581
			c-0.568-0.374-1.529-0.334-2.339-0.334h-0.301c-1.238,0-1.479-0.1-1.479,1.337v3.915c0,1.436,0.24,1.335,1.479,1.335h0.301
			c0.913,0,2.018,0.053,2.536-0.494c0.481-0.329,1.554-0.929,2.645-0.606c1.358,0.513,1.404,1.755,1.524,2.354v6.121
			c-0.615,0.319-1.033,0.812-1.033,1.479v0.335c0,0,0,8.646,0,10.887v0.335c0,2.563,6.131,2.563,6.131,0v-0.335
			c0-2.248,0-10.887,0-10.887v-0.335c0-0.667-0.419-1.159-1.034-1.479v-7.391c0.068-0.774,0.167-1.515,0.452-1.592
			c3.35-0.906,6.398,2.973,6.398,2.973l2.822-0.038C40.517,83.135,36.866,75.365,31.974,75.365z"/>
	</g>
</g>
<g id="Color_Fill_25">
	<g>
		<path style="&st0;" d="M43.228,18.025H17.227v6.008h26.001V18.025z M17.227,43.993h5.981V27.977h-5.981V43.993z M27.335,27.977
			v16.017h15.894V27.977H27.335z"/>
	</g>
</g>
<g id="Color_Fill_26">
	<g>
		<path style="&st3;" d="M103.438,17.214c0,0-1.624,1.74-9.918,0.417c-7.554-1.205-10.683,0.256-13.395,2.966
			c-2.711,2.712-5.677,11.099-0.046,16.729c0.974,0.881-3.337,4.943-3.337,4.943l1.174,1.699l4.944-3.953
			c0,0,3.006,2.872,7.276,2.872c5.934,0,12.654-2.549,13.071-11.447C103.47,25.838,102.002,21.849,103.438,17.214z M99.201,22.306
			c-0.008,0.008-2.655,2.449-7.023,6.817c-3.886,3.885-8.42,7.921-8.423,7.924c-0.07,0.062-0.158,0.094-0.246,0.094
			c-0.086,0-0.171-0.028-0.24-0.087c-0.141-0.12-0.173-0.325-0.074-0.481c0.012-0.012,3.989-6.34,7.212-9.328
			c3.348-3.095,8.365-5.535,8.381-5.544c0.165-0.081,0.364-0.027,0.469,0.124C99.358,21.976,99.335,22.182,99.201,22.306z"/>
	</g>
</g>
</svg>
