<?xml version="1.0" encoding="iso-8859-1"?>
<!-- Generator: Adobe Illustrator 16.0.0, SVG Export Plug-In . SVG Version: 6.00 Build 0)  -->
<!DOCTYPE svg PUBLIC "-//W3C//DTD SVG 1.1//EN" "http://www.w3.org/Graphics/SVG/1.1/DTD/svg11.dtd" [
	<!ENTITY st0 "display:none;opacity:0.2;filter:url(#f1);">
	<!ENTITY st1 "fill-rule:evenodd;clip-rule:evenodd;fill:#4185AF;">
	<!ENTITY st2 "display:inline;">
	<!ENTITY st3 "display:none;">
	<!ENTITY st4 "fill-rule:evenodd;clip-rule:evenodd;fill:url(#SVGID_1_);">
	<!ENTITY st5 "fill-rule:evenodd;clip-rule:evenodd;fill:url(#SVGID_2_);">
]>
<svg version="1.1" id="Avatar" xmlns="http://www.w3.org/2000/svg" xmlns:xlink="http://www.w3.org/1999/xlink" x="0px" y="0px"
	 width="120px" height="120px" viewBox="0 0 120 120" style="enable-background:new 0 0 120 120;" xml:space="preserve">
<filter  x="-7" y="8" filterUnits="userSpaceOnUse" id="f1">
	<feOffset  result="offOut" in="SourceGraphic" dx="0" dy="3"></feOffset>
	<feGaussianBlur  stdDeviation="2" result="blurOut" in="offOut"></feGaussianBlur>
	<feBlend  mode="normal" in2="blurOut" in="SourceGraphic"></feBlend>
</filter>
<g>
	<g id="shape_copy_5_" style="&st3;">
		<g style="&st2;">
			<linearGradient id="SVGID_1_" gradientUnits="userSpaceOnUse" x1="60" y1="120" x2="60" y2="0">
				<stop  offset="0" style="stop-color:#51A0D1"/>
				<stop  offset="1" style="stop-color:#5AA5D3"/>
			</linearGradient>
			<path style="&st4;" d="M108,0H12C5.373,0,0,5.373,0,12v96c0,6.628,5.373,12,12,12h96c6.627,0,12-5.372,12-12V12
				C120,5.373,114.627,0,108,0z"/>
		</g>
	</g>
	<g id="Rounded_Rectangle_27_copy_3_5_" style="&st0;">
		<ellipse style="&st2;" cx="60.5" cy="59.502" rx="33" ry="32.99"/>
	</g>
	<g id="Rounded_Rectangle_27_copy_3_1_">
		<g>
			<linearGradient id="SVGID_2_" gradientUnits="userSpaceOnUse" x1="60.5" y1="94" x2="60.5" y2="25.0029">
				<stop  offset="0" style="stop-color:#CBDCEB"/>
				<stop  offset="1" style="stop-color:#DFEFFE"/>
			</linearGradient>
			<ellipse style="&st5;" cx="60.5" cy="59.501" rx="34.509" ry="34.499"/>
		</g>
	</g>
	<g id="Rounded_Rectangle_2_1_">
		<g>
			<path style="&st1;" d="M77.775,68.906c-0.386-0.805-1.556-1.994-3.703-1.228c0,0-6.48,2.455-13.577,2.455
				c-7.097,0-13.577-2.455-13.577-2.455c-2.109-0.69-3.163,0.308-3.703,1.228c-0.531,0.905-1.024,3.223,2.469,4.909
				c0,0,7.727,2.455,14.811,2.455c7.109,0,14.811-2.455,14.811-2.455C78.57,72.663,78.161,69.712,77.775,68.906z"/>
		</g>
	</g>
	<g id="Ellipse_2_1_">
		<g>
			<ellipse style="&st1;" cx="49.388" cy="52.951" rx="6.171" ry="6.137"/>
		</g>
	</g>
	<g id="Ellipse_2_copy_1_">
		<g>
			<ellipse style="&st1;" cx="71.604" cy="52.951" rx="6.171" ry="6.137"/>
		</g>
	</g>
</g>
</svg>
