<?xml version="1.0" encoding="iso-8859-1"?>
<!-- Generator: Adobe Illustrator 16.0.0, SVG Export Plug-In . SVG Version: 6.00 Build 0)  -->
<!DOCTYPE svg PUBLIC "-//W3C//DTD SVG 1.1//EN" "http://www.w3.org/Graphics/SVG/1.1/DTD/svg11.dtd" [
	<!ENTITY st0 "display:none;opacity:0.2;filter:url(#f1);">
	<!ENTITY st1 "fill:#8EA5BA;">
	<!ENTITY st2 "fill-rule:evenodd;clip-rule:evenodd;fill:#5C7995;">
	<!ENTITY st3 "display:inline;">
	<!ENTITY st4 "display:none;">
	<!ENTITY st5 "fill-rule:evenodd;clip-rule:evenodd;fill:url(#SVGID_1_);">
]>
<svg version="1.1" id="Canvas" xmlns="http://www.w3.org/2000/svg" xmlns:xlink="http://www.w3.org/1999/xlink" x="0px" y="0px"
	 width="120px" height="120px" viewBox="0 0 120 120" style="enable-background:new 0 0 120 120;" xml:space="preserve">
<filter  x="-7" y="8" filterUnits="userSpaceOnUse" id="f1">
	<feOffset  result="offOut" in="SourceGraphic" dx="0" dy="3"></feOffset>
	<feGaussianBlur  stdDeviation="2" result="blurOut" in="offOut"></feGaussianBlur>
	<feBlend  mode="normal" in2="blurOut" in="SourceGraphic"></feBlend>
</filter>
<g id="shape_copy_59_" style="&st4;">
	<g style="&st3;">
		
			<linearGradient id="SVGID_1_" gradientUnits="userSpaceOnUse" x1="-145.5" y1="120.5" x2="-145.5" y2="0.5" gradientTransform="matrix(1 0 0 1 205.5 -0.5)">
			<stop  offset="0" style="stop-color:#8199AF"/>
			<stop  offset="1" style="stop-color:#879EB3"/>
		</linearGradient>
		<path style="&st5;" d="M108,0H12C5.373,0,0,5.373,0,12v96c0,6.628,5.373,12,12,12h96c6.627,0,12-5.372,12-12V12
			C120,5.373,114.627,0,108,0z"/>
	</g>
</g>
<g id="Ellipse_11_4_">
	<g>
		<circle style="&st2;" cx="59.5" cy="60.5" r="40.5"/>
	</g>
</g>
<g style="&st0;">
	<path style="&st3;" d="M77.452,71.366c-0.185,2.528-0.463,3.586-0.925,6.114c-0.14,0.782-0.926,1.563-1.712,1.655
		c-5.041,0.597-10.036,0.919-15.078,0.919c-4.996,0-9.991-0.322-14.985-0.919c-0.786-0.092-1.573-0.874-1.713-1.655
		c-0.693-4.09-1.062-8.273-1.062-12.409c0-4.182,0.369-8.363,1.062-12.453c0.14-0.781,0.927-1.516,1.713-1.653
		c3.052-0.368,6.058-0.598,9.065-0.736c0,0,4.113-0.138,3.928-2.39c-0.184-2.022-5.363-4.836-5.363-8.329
		c0-2.758,2.822-5.009,7.354-5.009c4.533,0,7.308,2.251,7.308,5.009c0,3.493-4.999,6.306-5.184,8.329
		c-0.185,2.252,3.75,2.39,3.75,2.39c3.052,0.138,6.151,0.368,9.204,0.736c0.786,0.137,1.572,0.873,1.712,1.653
		c0.508,2.85,0.786,4.239,0.971,7.042c0.046,0.827-0.647,1.47-1.526,1.47c-0.277,0-0.555-0.045-0.832-0.045
		c-0.878,0-2.128-0.506-2.729-1.149c0,0-1.99-1.977-4.07-2.022c-3.423-0.091-6.06,4.17-6.06,7.434c0,3.217,2.59,7.996,6.013,7.903
		c2.081-0.092,4.07-2.114,4.07-2.114c0.647-0.598,1.851-1.149,2.729-1.149c0.277-0.046,0.556-0.046,0.833-0.046
		C76.804,69.941,77.498,70.584,77.452,71.366z"/>
</g>
<g>
	<path style="&st1;" d="M78.559,70.382c-0.195,2.693-0.489,5.582-0.979,8.275c-0.147,0.833-0.979,1.665-1.812,1.763
		c-5.337,0.637-10.625,0.979-15.962,0.979c-5.289,0-10.577-0.343-15.865-0.979c-0.832-0.098-1.665-0.93-1.812-1.763
		c-0.734-4.358-1.126-8.813-1.126-13.221c0-4.456,0.392-8.912,1.126-13.27c0.146-0.833,0.979-1.616,1.812-1.763
		c3.231-0.392,6.414-0.637,9.598-0.784c0,0,2.595-0.146,2.398-2.546c-0.195-2.155-3.917-3.624-3.917-7.345
		c0-2.938,2.987-5.337,7.786-5.337c4.798,0,7.736,2.399,7.736,5.337c0,3.721-3.673,5.19-3.868,7.345
		c-0.196,2.399,2.35,2.546,2.35,2.546c3.232,0.147,6.513,0.392,9.744,0.784c0.833,0.147,1.665,0.93,1.812,1.763
		c0.538,3.036,0.832,5.778,1.028,8.765c0.049,0.882-0.686,1.567-1.616,1.567c-0.294,0-0.588-0.049-0.882-0.049
		c-0.93,0-2.252-0.539-2.889-1.224c0,0-2.105-2.105-4.309-2.154c-3.624-0.098-6.415,3.183-6.415,6.659
		c0,3.428,2.742,6.757,6.366,6.659c2.203-0.098,4.309-2.252,4.309-2.252c0.686-0.636,1.959-1.224,2.889-1.224
		c0.294-0.049,0.588-0.049,0.882-0.049C77.873,68.864,78.608,69.55,78.559,70.382z"/>
</g>
</svg>
