<?xml version="1.0" encoding="iso-8859-1"?>
<!-- Generator: Adobe Illustrator 16.0.0, SVG Export Plug-In . SVG Version: 6.00 Build 0)  -->
<!DOCTYPE svg PUBLIC "-//W3C//DTD SVG 1.1//EN" "http://www.w3.org/Graphics/SVG/1.1/DTD/svg11.dtd" [
	<!ENTITY st0 "display:none;opacity:0.2;filter:url(#f1);">
	<!ENTITY st1 "display:inline;">
	<!ENTITY st2 "fill-rule:evenodd;clip-rule:evenodd;fill:#FEFDF0;">
	<!ENTITY st3 "display:none;">
	<!ENTITY st4 "fill-rule:evenodd;clip-rule:evenodd;fill:url(#SVGID_1_);">
]>
<svg version="1.1" id="Changed_status" xmlns="http://www.w3.org/2000/svg" xmlns:xlink="http://www.w3.org/1999/xlink" x="0px"
	 y="0px" width="120px" height="120px" viewBox="0 0 120 120" style="enable-background:new 0 0 120 120;" xml:space="preserve">
<filter  x="-7" y="8" filterUnits="userSpaceOnUse" id="f1">
	<feOffset  result="offOut" in="SourceGraphic" dx="0" dy="3"></feOffset>
	<feGaussianBlur  stdDeviation="2" result="blurOut" in="offOut"></feGaussianBlur>
	<feBlend  mode="normal" in2="blurOut" in="SourceGraphic"></feBlend>
</filter>
<g>
	<g id="shape_copy_18_5_" style="&st3;">
		<g style="&st1;">
			<linearGradient id="SVGID_1_" gradientUnits="userSpaceOnUse" x1="60" y1="120" x2="60" y2="0">
				<stop  offset="0" style="stop-color:#EAC447"/>
				<stop  offset="1" style="stop-color:#EDCD62"/>
			</linearGradient>
			<path style="&st4;" d="M108,0H12C5.373,0,0,5.373,0,12v96c0,6.628,5.373,12,12,12h96c6.627,0,12-5.372,12-12V12
				C120,5.373,114.627,0,108,0z"/>
		</g>
	</g>
	<g id="Color_Fill_16_3_" style="&st0;">
		<path style="&st1;" d="M30.811,81.92C30.922,82.018,31.071,82.111,30.811,81.92L30.811,81.92z M93.25,37.188
			c-0.172-0.122,0.482,0.084-0.884-0.532c-1.109-0.501-2.761,0.332-4.613,2.259c-3.274,3.41-16.278,15.781-17.249,16.904
			c-0.579,0.67-1.905,0.757-4.201-0.744c-2.293-1.501-9.096-5.619-10.693-6.561c-1.596-0.942-3.596-1.025-5.433,0.914
			c-1.835,1.939-18.908,26.24-20.256,28.453c-0.757,1.242-0.272,3.221,0.373,3.672c0.255,0.179,0.415,0.293,0.517,0.367
			c-0.103-0.089-0.168-0.179,0.154-0.051c0.812,0.322,2.622,0.906,4.34-1.309c1.719-2.215,18.953-16.853,19.256-17.158
			c0.463-0.467,1.669-1.551,3.545-0.282c1.877,1.268,9.55,6.321,10.248,6.88c0.697,0.559,3.727,1.759,5.498-0.486
			c1.914-2.426,19.193-27.258,19.965-28.682S94.89,38.351,93.25,37.188z"/>
	</g>
	<g id="Color_Fill_16_2_">
		<g>
			<path style="&st2;" d="M28.881,84.713C28.999,84.82,29.16,84.924,28.881,84.713L28.881,84.713z M94.776,34.826
				c-0.183-0.134,0.511,0.091-0.939-0.584c-1.177-0.549-2.923,0.383-4.873,2.527c-3.451,3.795-17.157,17.567-18.18,18.816
				c-0.61,0.746-2.015,0.849-4.453-0.801c-2.438-1.649-9.664-6.172-11.36-7.207s-3.813-1.115-5.749,1.043
				c-1.935,2.158-19.888,29.165-21.304,31.623c-0.795,1.38-0.271,3.569,0.414,4.065c0.271,0.196,0.44,0.321,0.549,0.403
				c-0.108-0.099-0.178-0.196,0.164-0.057c0.863,0.354,2.782,0.989,4.59-1.473c1.808-2.463,19.985-18.77,20.304-19.109
				c0.487-0.521,1.759-1.727,3.753-0.333s10.147,6.948,10.89,7.562c0.741,0.614,3.956,1.928,5.821-0.568
				c2.014-2.697,20.183-30.295,20.992-31.876S96.519,36.105,94.776,34.826z"/>
		</g>
	</g>
</g>
</svg>
