<?xml version="1.0" encoding="iso-8859-1"?>
<!-- Generator: Adobe Illustrator 16.0.0, SVG Export Plug-In . SVG Version: 6.00 Build 0)  -->
<!DOCTYPE svg PUBLIC "-//W3C//DTD SVG 1.1//EN" "http://www.w3.org/Graphics/SVG/1.1/DTD/svg11.dtd" [
	<!ENTITY st0 "display:none;opacity:0.1;filter:url(#f3);">
	<!ENTITY st1 "fill:#FEFDF0;">
	<!ENTITY st2 "display:inline;">
	<!ENTITY st3 "fill-rule:evenodd;clip-rule:evenodd;fill:#FEFDF0;">
	<!ENTITY st4 "display:none;opacity:0.15;filter:url(#f1);">
	<!ENTITY st5 "display:none;">
	<!ENTITY st6 "fill-rule:evenodd;clip-rule:evenodd;fill:url(#SVGID_1_);">
]>
<svg version="1.1" id="Log_a_Call_1_" xmlns="http://www.w3.org/2000/svg" xmlns:xlink="http://www.w3.org/1999/xlink" x="0px"
	 y="0px" width="120px" height="120px" viewBox="0 0 120 120" style="enable-background:new 0 0 120 120;" xml:space="preserve">
<filter  x="-7" y="2" filterUnits="userSpaceOnUse" id="f3">
	<feOffset  result="offOut" in="SourceGraphic" dx="0" dy="0"></feOffset>
	<feGaussianBlur  stdDeviation="1" result="blurOut" in="offOut"></feGaussianBlur>
	<feBlend  mode="normal" in2="blurOut" in="SourceGraphic"></feBlend>
</filter>
<filter  x="-7" y="8" filterUnits="userSpaceOnUse" id="f1">
	<feOffset  result="offOut" in="SourceGraphic" dx="0" dy="3"></feOffset>
	<feGaussianBlur  stdDeviation="2" result="blurOut" in="offOut"></feGaussianBlur>
	<feBlend  mode="normal" in2="blurOut" in="SourceGraphic"></feBlend>
</filter>
<g>
	<g id="shape_copy_18_2_" style="&st5;">
		<g style="&st2;">
			
				<linearGradient id="SVGID_1_" gradientUnits="userSpaceOnUse" x1="80.5" y1="-196" x2="80.5" y2="-315.9995" gradientTransform="matrix(1 0 0 1 -20.5 316)">
				<stop  offset="0" style="stop-color:#EAC447"/>
				<stop  offset="1" style="stop-color:#EDCD62"/>
			</linearGradient>
			<path style="&st6;" d="M108,0H12C5.373,0,0,5.373,0,12v96c0,6.628,5.373,12,12,12h96c6.627,0,12-5.372,12-12V12
				C120,5.373,114.627,0,108,0z"/>
		</g>
	</g>
	<g style="&st4;">
		<path style="&st2;" d="M64.127,69.804c0.501-0.466,1.171-0.695,1.922-0.567c0.409,0.07,1.093,0.602,1.093,0.602l13.875,10.1
			c0.684,0.531,1.036,1.35,0.888,2.22c-0.896,3.638-3.091,7.053-5.944,8.977c-3.262,2.267-7.448,2.928-11.952,2.155
			c-9.21-1.579-19.914-8.859-27.991-20.032c-12.048-16.749-14.123-36.405-4.255-43.262c2.786-1.935,7.153-2.427,10.895-2.13
			c0.887,0.152,1.49,0.738,1.774,1.545l5.805,16.299c0.137,0.437,0.216,0.795,0.137,1.264c-0.113,0.67-0.559,1.214-1.113,1.602
			l-7.55,5.186c-0.808,0.619-1.126,1.667-0.729,2.633c1.333,3.33,3.096,6.596,5.382,9.678c2.276,3.146,4.825,5.926,7.52,8.25
			c0.797,0.688,1.91,0.741,2.787,0.133L64.127,69.804z"/>
	</g>
	<g id="Rectangle_7_copy_15_6_" style="&st0;">
		<rect x="68.5" y="45.752" style="&st2;" width="26" height="7.703"/>
	</g>
	<g id="Rectangle_7_copy_16_6_" style="&st0;">
		<rect x="68.5" y="32.752" style="&st2;" width="26" height="7.703"/>
	</g>
	<g>
		<path style="&st1;" d="M64.674,69.52c0.508-0.472,1.188-0.704,1.949-0.574c0.415,0.071,1.107,0.608,1.107,0.608l14.072,10.22
			c0.692,0.537,1.051,1.365,0.9,2.246c-0.909,3.682-3.135,7.137-6.029,9.084c-3.308,2.293-7.553,2.963-12.12,2.182
			c-9.342-1.599-20.196-8.966-28.389-20.271c-12.218-16.948-14.322-36.84-4.314-43.777c2.826-1.958,7.254-2.456,11.049-2.156
			c0.899,0.154,1.511,0.748,1.8,1.564l5.886,16.492c0.139,0.442,0.22,0.805,0.139,1.279c-0.114,0.678-0.565,1.229-1.129,1.62
			l-7.656,5.247c-0.818,0.627-1.142,1.688-0.738,2.664c1.352,3.37,3.14,6.676,5.458,9.793c2.308,3.185,4.893,5.998,7.626,8.35
			c0.808,0.695,1.938,0.75,2.826,0.135L64.674,69.52z"/>
	</g>
	<g id="Rectangle_7_copy_15_1_">
		<g>
			<rect x="68.036" y="45.881" style="&st3;" width="27" height="8"/>
		</g>
	</g>
	<g id="Rectangle_7_copy_16_1_">
		<g>
			<rect x="68.036" y="32.881" style="&st3;" width="27" height="8"/>
		</g>
	</g>
</g>
</svg>
