<?xml version="1.0" encoding="iso-8859-1"?>
<!-- Generator: Adobe Illustrator 16.0.0, SVG Export Plug-In . SVG Version: 6.00 Build 0)  -->
<!DOCTYPE svg PUBLIC "-//W3C//DTD SVG 1.1//EN" "http://www.w3.org/Graphics/SVG/1.1/DTD/svg11.dtd" [
	<!ENTITY st0 "fill-rule:evenodd;clip-rule:evenodd;fill:#3C9BD6;">
	<!ENTITY st1 "fill-rule:evenodd;clip-rule:evenodd;fill:#216B9E;">
	<!ENTITY st2 "display:inline;">
	<!ENTITY st3 "display:none;">
	<!ENTITY st4 "fill-rule:evenodd;clip-rule:evenodd;fill:url(#SVGID_1_);">
]>
<svg version="1.1" id="Chatterbox" xmlns="http://www.w3.org/2000/svg" xmlns:xlink="http://www.w3.org/1999/xlink" x="0px" y="0px"
	 width="120px" height="120px" viewBox="0 0 120 120" style="enable-background:new 0 0 120 120;" xml:space="preserve">
<g>
	<g id="shape_copy_8_" style="&st3;">
		<g style="&st2;">
			<linearGradient id="SVGID_1_" gradientUnits="userSpaceOnUse" x1="60" y1="120" x2="60" y2="0">
				<stop  offset="0" style="stop-color:#439ACF"/>
				<stop  offset="1" style="stop-color:#4D9FD1"/>
			</linearGradient>
			<path style="&st4;" d="M108,0H12C5.373,0,0,5.373,0,12v96c0,6.627,5.373,12,12,12h96c6.628,0,12-5.373,12-12V12
				C120,5.373,114.628,0,108,0z"/>
		</g>
	</g>
	<g id="box">
		<g>
			<path style="&st1;" d="M25.72,96.902h68.679l3.41-48.908H22.191L25.72,96.902z M91.206,23.035h-62.28l-6.734,22.934h75.617
				L91.206,23.035z"/>
		</g>
	</g>
	<g id="cloud">
		<g>
			<path style="&st0;" d="M74.764,59.447c-1.609,0-3.142,0.335-4.532,0.938c-1.553-2.851-4.576-4.786-8.051-4.786
				c-2.604,0-4.952,1.089-6.621,2.834c-1.869-2.423-4.802-3.983-8.101-3.983c-5.648,0-10.228,4.578-10.228,10.229
				c0,1.42,0.29,2.772,0.813,4.001c-0.038,0.022-0.076,0.045-0.113,0.068c-0.166,0.104-0.318,0.226-0.477,0.339
				c-0.126,0.09-0.258,0.173-0.378,0.269c-0.172,0.137-0.328,0.289-0.489,0.438c-0.113,0.104-0.233,0.202-0.341,0.313
				c-0.151,0.155-0.287,0.325-0.428,0.492c-0.101,0.119-0.208,0.231-0.303,0.355c-0.131,0.173-0.243,0.359-0.361,0.542
				c-0.086,0.132-0.181,0.258-0.259,0.395c-0.109,0.19-0.198,0.393-0.294,0.591c-0.067,0.142-0.146,0.277-0.206,0.422
				c-0.092,0.222-0.161,0.454-0.235,0.685c-0.043,0.133-0.098,0.26-0.135,0.396c-0.087,0.321-0.148,0.652-0.199,0.986
				c-0.009,0.059-0.024,0.115-0.032,0.174c-0.05,0.378-0.077,0.763-0.078,1.153v0.019c0,4.917,3.985,8.902,8.902,8.902
				c0.561,0,1.11-0.056,1.644-0.154c1.359,3.56,4.804,6.088,8.842,6.088c3.9,0,7.246-2.357,8.695-5.725
				c1.087,0.519,2.303,0.81,3.588,0.81c3.096,0,5.796-1.687,7.231-4.192c0.695,0.132,1.411,0.202,2.145,0.202
				c6.295,0,11.399-5.104,11.399-11.398C86.163,64.551,81.059,59.447,74.764,59.447z"/>
		</g>
	</g>
</g>
</svg>
