<?xml version="1.0" encoding="iso-8859-1"?>
<!-- Generator: Adobe Illustrator 16.0.0, SVG Export Plug-In . SVG Version: 6.00 Build 0)  -->
<!DOCTYPE svg PUBLIC "-//W3C//DTD SVG 1.1//EN" "http://www.w3.org/Graphics/SVG/1.1/DTD/svg11.dtd" [
	<!ENTITY st0 "display:inline;">
	<!ENTITY st1 "display:none;">
	<!ENTITY st2 "fill-rule:evenodd;clip-rule:evenodd;fill:url(#SVGID_1_);">
	<!ENTITY st3 "fill-rule:evenodd;clip-rule:evenodd;fill:url(#SVGID_2_);">
	<!ENTITY st4 "fill-rule:evenodd;clip-rule:evenodd;fill:#037479;">
]>
<svg version="1.1" id="Concur" xmlns="http://www.w3.org/2000/svg" xmlns:xlink="http://www.w3.org/1999/xlink" x="0px" y="0px"
	 width="120px" height="120px" viewBox="0 0 120 120" style="enable-background:new 0 0 120 120;" xml:space="preserve">
<g>
	<g id="shape_copy_10_" style="&st1;">
		<g style="&st0;">
			<linearGradient id="SVGID_1_" gradientUnits="userSpaceOnUse" x1="60" y1="120" x2="60" y2="0">
				<stop  offset="0" style="stop-color:#43B2B6"/>
				<stop  offset="1" style="stop-color:#4DB6BA"/>
			</linearGradient>
			<path style="&st2;" d="M108,0H12C5.373,0,0,5.373,0,12v96c0,6.628,5.373,12,12,12h96c6.627,0,12-5.372,12-12V12
				C120,5.373,114.627,0,108,0z"/>
		</g>
	</g>
	<g id="Shape_550">
		<g>
			<linearGradient id="SVGID_2_" gradientUnits="userSpaceOnUse" x1="25.0137" y1="59.5029" x2="76.3448" y2="59.5029">
				<stop  offset="0" style="stop-color:#14828A"/>
				<stop  offset="1" style="stop-color:#12787F"/>
			</linearGradient>
			<path style="&st3;" d="M66.222,78.973c-2.623,1.053-5.479,1.601-8.417,1.601c-10.515,0-19.747-10.116-19.747-21.077
				c0-11.097,8.803-21.063,19.747-21.063c5.457,0,10.598,1.653,14.534,5.186l4.006-11.79c-5.359-3.755-11.774-5.831-18.54-5.831
				c-18.084,0-32.791,15.025-32.791,33.499c0,18.479,14.707,33.513,32.791,33.513c5.592,0,10.973-1.479,15.701-4.124
				C69.971,85.867,68.66,83.942,66.222,78.973z"/>
		</g>
	</g>
	<g id="Ellipse_10">
		<g>
			<circle style="&st4;" cx="84.404" cy="68.8" r="9.6"/>
		</g>
	</g>
</g>
</svg>
