<?xml version="1.0" encoding="iso-8859-1"?>
<!-- Generator: Adobe Illustrator 16.0.0, SVG Export Plug-In . SVG Version: 6.00 Build 0)  -->
<!DOCTYPE svg PUBLIC "-//W3C//DTD SVG 1.1//EN" "http://www.w3.org/Graphics/SVG/1.1/DTD/svg11.dtd" [
	<!ENTITY st0 "display:none;opacity:0.4;filter:url(#f1);">
	<!ENTITY st1 "fill:#8EA5BA;">
	<!ENTITY st2 "fill-rule:evenodd;clip-rule:evenodd;fill:#5C7995;">
	<!ENTITY st3 "display:inline;">
	<!ENTITY st4 "display:none;">
	<!ENTITY st5 "fill-rule:evenodd;clip-rule:evenodd;fill:url(#SVGID_1_);">
]>
<svg version="1.1" id="Custom" xmlns="http://www.w3.org/2000/svg" xmlns:xlink="http://www.w3.org/1999/xlink" x="0px" y="0px"
	 width="120px" height="120px" viewBox="0 0 120 120" style="enable-background:new 0 0 120 120;" xml:space="preserve">
<filter  x="-7" y="8" filterUnits="userSpaceOnUse" id="f1">
	<feOffset  result="offOut" in="SourceGraphic" dx="0" dy="3"></feOffset>
	<feGaussianBlur  stdDeviation="2" result="blurOut" in="offOut"></feGaussianBlur>
	<feBlend  mode="normal" in2="blurOut" in="SourceGraphic"></feBlend>
</filter>
<g id="shape_copy_6_" style="&st4;">
	<g style="&st3;">
		<linearGradient id="SVGID_1_" gradientUnits="userSpaceOnUse" x1="60" y1="120" x2="60" y2="0">
			<stop  offset="0" style="stop-color:#8199AF"/>
			<stop  offset="1" style="stop-color:#879EB3"/>
		</linearGradient>
		<path style="&st5;" d="M108,0H12C5.373,0,0,5.373,0,12v96c0,6.628,5.373,12,12,12h96c6.627,0,12-5.372,12-12V12
			C120,5.373,114.627,0,108,0z"/>
	</g>
</g>
<g id="Ellipse_11_2_">
	<g>
		<circle style="&st2;" cx="59.5" cy="60.5" r="40.5"/>
	</g>
</g>
<g style="&st0;">
	<path style="&st3;" d="M39.667,75.833L59.5,56.75c0,0-0.917-4.167-0.5-6.417s3.083-6.167,7.167-7.583s5.25-1.917,3.083,0
		s-5.5,3.5-4.75,6.5s-0.083,4.583,1.75,5.417s4.75,1.25,6.583,0.667s5.583-4,6.417-4.667c0.917,0.667,0.417,0.833,0,2.75
		s-1.333,4.326-3.75,5.247s-5.917,0.587-8.083,0.837s-4.25,0.333-5.667,2.167s-15,14.917-16.917,15.917S40.167,80.667,39.667,75.833
		z"/>
</g>
<g id="wrench_copy">
	<g>
		<path style="&st1;" d="M80.69,47.011l-7.509,7.123l-6.233-0.699l-0.736-5.912l7.51-7.123c-2.095-0.807-4.312-0.978-6.65-0.512
			c-2.34,0.465-4.361,1.505-6.062,3.119s-2.789,3.522-3.264,5.726c-0.475,2.205-0.303,4.314,0.516,6.332L38.922,73.407
			c-0.949,0.963-1.423,2.064-1.423,3.306c0,1.242,0.474,2.344,1.423,3.306c0.981,0.9,2.151,1.35,3.509,1.35
			c1.357,0,2.511-0.449,3.46-1.35l19.337-18.343c2.127,0.775,4.352,0.938,6.676,0.488c2.322-0.449,4.336-1.481,6.037-3.096
			c1.701-1.613,2.798-3.53,3.289-5.75C81.722,51.1,81.542,48.997,80.69,47.011z"/>
	</g>
</g>
</svg>
