<?xml version="1.0" encoding="iso-8859-1"?>
<!-- Generator: Adobe Illustrator 16.0.0, SVG Export Plug-In . SVG Version: 6.00 Build 0)  -->
<!DOCTYPE svg PUBLIC "-//W3C//DTD SVG 1.1//EN" "http://www.w3.org/Graphics/SVG/1.1/DTD/svg11.dtd" [
	<!ENTITY st0 "display:none;opacity:0.2;filter:url(#f1);">
	<!ENTITY st1 "fill-rule:evenodd;clip-rule:evenodd;fill:#B04A3F;">
	<!ENTITY st2 "display:inline;">
	<!ENTITY st3 "display:none;">
	<!ENTITY st4 "fill-rule:evenodd;clip-rule:evenodd;fill:url(#SVGID_1_);">
	<!ENTITY st5 "fill-rule:evenodd;clip-rule:evenodd;fill:url(#SVGID_2_);">
]>
<svg version="1.1" id="Dashboard" xmlns="http://www.w3.org/2000/svg" xmlns:xlink="http://www.w3.org/1999/xlink" x="0px" y="0px"
	 width="120px" height="120px" viewBox="0 0 120 120" style="enable-background:new 0 0 120 120;" xml:space="preserve">
<filter  x="-7" y="8" filterUnits="userSpaceOnUse" id="f1">
	<feOffset  result="offOut" in="SourceGraphic" dx="0" dy="3"></feOffset>
	<feGaussianBlur  stdDeviation="2" result="blurOut" in="offOut"></feGaussianBlur>
	<feBlend  mode="normal" in2="blurOut" in="SourceGraphic"></feBlend>
</filter>
<g>
	<g id="shape_copy_25_" style="&st3;">
		<g style="&st2;">
			<linearGradient id="SVGID_1_" gradientUnits="userSpaceOnUse" x1="60" y1="120" x2="60" y2="0">
				<stop  offset="0" style="stop-color:#C55D52"/>
				<stop  offset="1" style="stop-color:#CD6A5E"/>
			</linearGradient>
			<path style="&st4;" d="M108,0H12C5.373,0,0,5.373,0,12v96c0,6.628,5.373,12,12,12h96c6.628,0,12-5.372,12-12V12
				C120,5.373,114.628,0,108,0z"/>
		</g>
	</g>
	<g id="Rounded_Rectangle_27">
		<g>
			<ellipse style="&st1;" cx="59.5" cy="61.982" rx="30.146" ry="30.375"/>
		</g>
	</g>
	<g id="Ellipse_1_copy_6_3_" style="&st0;">
		<path style="&st2;" d="M59.737,23.705c-21.264,0-38.5,17.273-38.5,38.58c0,11.433,5.205,21.442,12.848,28.77
			c1.036,0.993,2.211,0.436,2.973-0.027c0.763-0.463,10.771-10.475,11.401-11.319c0.631-0.844,0.96-1.513,0.406-2.218
			s-1.626-1.641-1.626-1.641s-0.889-0.907-1.796,0.088c-0.908,0.995-5.898,5.755-5.898,5.755s-0.653,0.938-1.388,0.152
			c-4.004-4.286-6.669-9.757-7.444-15.848c-0.154-1.214,0.277-1.125,0.651-1.125h9.124c0.327,0,0.91-0.065,0.91-0.92v-2.57
			c0-0.371-0.354-0.951-0.966-0.951h-9.089c-0.503,0-0.817-0.078-0.725-1.027c0.665-6.826,3.666-12.966,8.191-17.607
			c0.887-0.909,1.279,0.006,1.532,0.291c0.254,0.285,4.805,5.02,5.161,5.413s0.746,0.836,1.382,0.317
			c0.636-0.519,2.466-2.045,2.713-2.332c0.247-0.288,0.28-0.67-0.212-1.245c-0.491-0.574-4.448-4.809-4.967-5.418
			s-1.158-0.79-0.302-1.332c4.52-2.865,9.877-4.524,15.621-4.524c5.624,0,10.88,1.59,15.339,4.348
			c1.243,0.767,0.364,1.679-0.061,2.021c-0.424,0.34-4.406,4.448-4.689,4.805c-0.283,0.355-0.733,0.732-0.314,1.347
			c0.418,0.614,2.047,2.019,2.38,2.359c0.333,0.341,1.069,0.594,1.503,0.148c0.433-0.448,5.158-5.446,5.479-5.763
			c0.322-0.317,0.656-1.088,1.319-0.407c4.549,4.677,7.552,10.871,8.181,17.752c0.082,0.893-0.416,0.857-0.775,0.857h-8.724
			c-0.542,0-0.883,0.308-0.883,0.841v2.854c0,0.324,0.392,0.715,0.976,0.715h8.717c0.521,0,0.743-0.213,0.608,0.914
			c-0.755,6.286-3.416,11.76-7.614,16.098c-0.531,0.549-0.85,0.231-1.357-0.293c-0.63-0.651-5.281-4.959-6.06-5.755
			c-0.777-0.796-1.104-0.542-1.493-0.248s-1.702,1.549-2.127,2.133c-0.424,0.584-0.418,0.873,0.282,1.45
			c0.702,0.578,11.058,11.609,11.765,12.195c0.707,0.585,1.327,1.273,2.691,0.164c8.391-6.821,13.356-17.54,13.356-29.217
			C98.237,40.978,81,23.705,59.737,23.705z M44.637,52.252c-2.674-2.481-1.683,0-1.188,0.695C43.944,53.641,56.09,69.66,58.7,71.901
			c2.08,1.787,3.687,1.812,4.457,1.092c1.485-1.389,1.201-3.743-0.283-5.231C61.389,66.273,46.642,54.112,44.637,52.252z"/>
	</g>
	<g id="Ellipse_1_copy_6">
		<g>
			<linearGradient id="SVGID_2_" gradientUnits="userSpaceOnUse" x1="59.7373" y1="93.4131" x2="59.7373" y2="22.3838">
				<stop  offset="0" style="stop-color:#EDD0CD"/>
				<stop  offset="1" style="stop-color:#FFE2DF"/>
			</linearGradient>
			<path style="&st5;" d="M59.737,22.384c-22.085,0-39.987,17.94-39.987,40.07c0,11.875,5.406,22.271,13.344,29.881
				c1.076,1.031,2.297,0.453,3.088-0.028c0.792-0.481,11.188-10.88,11.842-11.756c0.655-0.877,0.997-1.571,0.422-2.304
				s-1.688-1.704-1.688-1.704s-0.924-0.942-1.866,0.092c-0.942,1.033-6.126,5.978-6.126,5.978s-0.679,0.975-1.441,0.158
				c-4.158-4.452-6.927-10.134-7.731-16.46c-0.16-1.261,0.288-1.169,0.677-1.169h9.477c0.339,0,0.945-0.068,0.945-0.956v-2.669
				c0-0.386-0.367-0.988-1.004-0.988h-9.439c-0.522,0-0.85-0.081-0.753-1.066c0.69-7.09,3.808-13.467,8.508-18.287
				c0.921-0.944,1.329,0.006,1.592,0.302c0.264,0.296,4.99,5.214,5.36,5.622s0.774,0.869,1.436,0.329
				c0.66-0.539,2.561-2.124,2.817-2.422c0.257-0.299,0.291-0.696-0.22-1.293c-0.511-0.596-4.62-4.994-5.159-5.627
				c-0.538-0.633-1.203-0.82-0.313-1.384c4.694-2.976,10.259-4.698,16.225-4.698c5.842,0,11.3,1.651,15.932,4.516
				c1.291,0.797,0.378,1.744-0.062,2.099c-0.44,0.354-4.577,4.62-4.871,4.991c-0.294,0.369-0.762,0.76-0.327,1.398
				c0.435,0.638,2.127,2.097,2.473,2.45c0.346,0.354,1.11,0.617,1.561,0.153c0.449-0.465,5.357-5.656,5.69-5.985
				c0.334-0.329,0.682-1.13,1.37-0.423c4.725,4.857,7.844,11.291,8.497,18.438c0.085,0.927-0.433,0.891-0.806,0.891h-9.061
				c-0.562,0-0.917,0.319-0.917,0.873v2.965c0,0.337,0.406,0.743,1.013,0.743h9.054c0.541,0,0.772-0.222,0.632,0.949
				c-0.784,6.528-3.548,12.214-7.908,16.72c-0.552,0.57-0.882,0.24-1.409-0.305c-0.654-0.676-5.485-5.15-6.294-5.978
				c-0.808-0.827-1.147-0.562-1.551-0.258c-0.404,0.305-1.769,1.609-2.209,2.216s-0.435,0.906,0.293,1.506
				c0.729,0.6,11.484,12.058,12.219,12.666c0.734,0.607,1.379,1.322,2.796,0.17c8.715-7.085,13.872-18.218,13.872-30.346
				C99.725,40.324,81.821,22.384,59.737,22.384z M44.054,52.034c-2.777-2.577-1.748,0-1.234,0.722
				c0.515,0.721,13.13,17.358,15.841,19.687c2.16,1.855,3.829,1.882,4.629,1.134c1.543-1.442,1.248-3.888-0.294-5.434
				C61.452,66.597,46.136,53.966,44.054,52.034z"/>
		</g>
	</g>
</g>
</svg>
