<?xml version="1.0" encoding="iso-8859-1"?>
<!-- Generator: Adobe Illustrator 16.0.0, SVG Export Plug-In . SVG Version: 6.00 Build 0)  -->
<!DOCTYPE svg PUBLIC "-//W3C//DTD SVG 1.1//EN" "http://www.w3.org/Graphics/SVG/1.1/DTD/svg11.dtd" [
	<!ENTITY st0 "display:none;opacity:0.2;filter:url(#f1);">
	<!ENTITY st1 "fill:#8EA5BA;">
	<!ENTITY st2 "fill-rule:evenodd;clip-rule:evenodd;fill:#5C7995;">
	<!ENTITY st3 "display:inline;">
	<!ENTITY st4 "display:none;">
	<!ENTITY st5 "fill-rule:evenodd;clip-rule:evenodd;fill:url(#SVGID_1_);">
]>
<svg version="1.1" id="Default" xmlns="http://www.w3.org/2000/svg" xmlns:xlink="http://www.w3.org/1999/xlink" x="0px" y="0px"
	 width="120px" height="120px" viewBox="0 0 120 120" style="enable-background:new 0 0 120 120;" xml:space="preserve">
<filter  x="-7" y="8" filterUnits="userSpaceOnUse" id="f1">
	<feOffset  result="offOut" in="SourceGraphic" dx="0" dy="3"></feOffset>
	<feGaussianBlur  stdDeviation="2" result="blurOut" in="offOut"></feGaussianBlur>
	<feBlend  mode="normal" in2="blurOut" in="SourceGraphic"></feBlend>
</filter>
<g>
	<g id="shape_copy_22_" style="&st4;">
		<g style="&st3;">
			<linearGradient id="SVGID_1_" gradientUnits="userSpaceOnUse" x1="60" y1="120" x2="60" y2="0">
				<stop  offset="0" style="stop-color:#8199AF"/>
				<stop  offset="1" style="stop-color:#879EB3"/>
			</linearGradient>
			<path style="&st5;" d="M108,0H12C5.373,0,0,5.374,0,12V108c0,6.628,5.373,12,12,12H108c6.627,0,12-5.373,12-12V12
				C120,5.374,114.627,0,108,0z"/>
		</g>
	</g>
	<g id="Ellipse_11">
		<g>
			<circle style="&st2;" cx="59.5" cy="60.5" r="40.5"/>
		</g>
	</g>
	<g style="&st0;">
		<path style="&st3;" d="M42.664,42.261C47.44,38.412,53.219,36.487,60,36.487s12.559,1.925,17.336,5.774
			c4.775,3.85,7.164,8.575,7.164,14.177c0,2.964-0.785,5.738-2.352,8.322c-1.568,2.585-3.701,4.835-6.398,6.75v13.554H70.5v-5.205
			c0-0.505-0.164-0.921-0.492-1.247c-0.328-0.326-0.748-0.488-1.258-0.488c-0.511,0-0.93,0.162-1.258,0.488
			C67.164,78.938,67,79.354,67,79.859v5.205h-5.25v-5.205c0-0.505-0.164-0.921-0.492-1.247C60.93,78.287,60.51,78.125,60,78.125
			c-0.511,0-0.93,0.162-1.258,0.488c-0.328,0.325-0.492,0.741-0.492,1.247v5.205H53v-5.205c0-0.505-0.164-0.921-0.492-1.247
			c-0.328-0.326-0.748-0.488-1.258-0.488c-0.511,0-0.93,0.162-1.258,0.488c-0.328,0.325-0.492,0.741-0.492,1.247v5.205h-5.25V71.51
			c-2.699-1.915-4.831-4.165-6.398-6.75c-1.568-2.583-2.352-5.358-2.352-8.322C35.5,50.836,37.888,46.11,42.664,42.261z
			 M47.531,60.992c1.021,1.012,2.26,1.518,3.719,1.518c1.458,0,2.698-0.505,3.719-1.518c1.021-1.011,1.531-2.241,1.531-3.687
			c0-1.445-0.511-2.675-1.531-3.687c-1.021-1.011-2.261-1.518-3.719-1.518c-1.458,0-2.698,0.506-3.719,1.518
			C46.51,54.631,46,55.86,46,57.306C46,58.751,46.51,59.981,47.531,60.992z M65.031,60.992c1.02,1.012,2.26,1.518,3.719,1.518
			c1.458,0,2.698-0.505,3.719-1.518C73.489,59.981,74,58.751,74,57.306c0-1.445-0.511-2.675-1.531-3.687
			c-1.021-1.011-2.261-1.518-3.719-1.518c-1.458,0-2.699,0.506-3.719,1.518C64.01,54.631,63.5,55.86,63.5,57.306
			C63.5,58.751,64.01,59.981,65.031,60.992z"/>
	</g>
	<g>
		<path style="&st1;" d="M41.603,41.127C46.671,37.042,52.804,35,60,35s13.328,2.042,18.397,6.127
			C83.465,45.212,86,50.228,86,56.172c0,3.146-0.833,6.09-2.496,8.832c-1.664,2.743-3.927,5.131-6.79,7.163v14.384h-5.571v-5.523
			c0-0.537-0.174-0.978-0.522-1.323s-0.793-0.518-1.335-0.518c-0.542,0-0.986,0.172-1.335,0.518
			c-0.348,0.345-0.522,0.787-0.522,1.323v5.523h-5.572v-5.523c0-0.537-0.174-0.978-0.522-1.323S60.542,79.187,60,79.187
			c-0.542,0-0.987,0.172-1.335,0.518s-0.522,0.787-0.522,1.323v5.523h-5.572v-5.523c0-0.537-0.174-0.978-0.522-1.323
			c-0.349-0.345-0.793-0.518-1.335-0.518c-0.542,0-0.987,0.172-1.335,0.518s-0.522,0.787-0.522,1.323v5.523h-5.571V72.167
			c-2.864-2.032-5.127-4.42-6.79-7.163C34.832,62.262,34,59.318,34,56.172C34,50.228,36.534,45.212,41.603,41.127z M46.768,61.005
			c1.083,1.074,2.398,1.611,3.946,1.611c1.547,0,2.863-0.537,3.946-1.611c1.083-1.073,1.625-2.378,1.625-3.912
			c0-1.534-0.542-2.838-1.625-3.913c-1.083-1.073-2.399-1.611-3.946-1.611c-1.548,0-2.864,0.538-3.946,1.611
			c-1.084,1.074-1.625,2.379-1.625,3.913C45.143,58.627,45.684,59.932,46.768,61.005z M65.339,61.005
			c1.083,1.074,2.398,1.611,3.946,1.611c1.547,0,2.863-0.537,3.946-1.611c1.083-1.073,1.625-2.378,1.625-3.912
			c0-1.534-0.542-2.838-1.625-3.913c-1.083-1.073-2.399-1.611-3.946-1.611c-1.548,0-2.864,0.538-3.946,1.611
			c-1.083,1.074-1.625,2.379-1.625,3.913C63.714,58.627,64.256,59.932,65.339,61.005z"/>
	</g>
</g>
</svg>
