<?xml version="1.0" encoding="iso-8859-1"?>
<!-- Generator: Adobe Illustrator 16.0.0, SVG Export Plug-In . SVG Version: 6.00 Build 0)  -->
<!DOCTYPE svg PUBLIC "-//W3C//DTD SVG 1.1//EN" "http://www.w3.org/Graphics/SVG/1.1/DTD/svg11.dtd" [
	<!ENTITY st0 "display:inline;">
	<!ENTITY st1 "display:none;">
	<!ENTITY st2 "fill-rule:evenodd;clip-rule:evenodd;fill:url(#SVGID_1_);">
	<!ENTITY st3 "fill-rule:evenodd;clip-rule:evenodd;fill:url(#SVGID_2_);">
]>
<svg version="1.1" id="Evernote" xmlns="http://www.w3.org/2000/svg" xmlns:xlink="http://www.w3.org/1999/xlink" x="0px" y="0px"
	 width="120px" height="120px" viewBox="0 0 120 120" style="enable-background:new 0 0 120 120;" xml:space="preserve">
<g>
	<g id="shape_copy_11_" style="&st1;">
		<g style="&st0;">
			<linearGradient id="SVGID_1_" gradientUnits="userSpaceOnUse" x1="60" y1="120" x2="60" y2="0">
				<stop  offset="0" style="stop-color:#85B65D"/>
				<stop  offset="1" style="stop-color:#8BBA65"/>
			</linearGradient>
			<path style="&st2;" d="M108,0H12C5.373,0,0,5.373,0,12v96c0,6.628,5.373,12,12,12h96c6.627,0,12-5.372,12-12V12
				C120,5.373,114.627,0,108,0z"/>
		</g>
	</g>
	<g id="Shape_553">
		<g>
			<linearGradient id="SVGID_2_" gradientUnits="userSpaceOnUse" x1="59.9028" y1="98.873" x2="59.9028" y2="24.998">
				<stop  offset="0" style="stop-color:#44762F"/>
				<stop  offset="1" style="stop-color:#497831"/>
			</linearGradient>
			<path style="&st3;" d="M35.173,39.307c0,0,0,0,0.004,0h6.933c0.397,0,0.717-0.323,0.718-0.718c0-0.003-0.084-5.944-0.084-7.597
				v-0.021c0-1.356,0.285-2.54,0.781-3.531l0.237-0.445c-0.026,0.004-0.053,0.018-0.079,0.044L30.211,40.397
				c-0.026,0.021-0.043,0.05-0.051,0.079c0.279-0.139,0.66-0.327,0.713-0.351C32.047,39.597,33.47,39.307,35.173,39.307z
				 M89.122,37.852c-0.551-2.947-2.304-4.4-3.888-4.972c-1.71-0.618-5.177-1.258-9.533-1.771c-3.504-0.413-7.624-0.38-10.111-0.303
				c-0.299-2.046-1.733-3.914-3.338-4.562c-4.277-1.721-10.885-1.305-12.582-0.829c-1.348,0.376-2.84,1.148-3.671,2.339
				c-0.557,0.795-0.917,1.812-0.92,3.235c0,0.806,0.022,2.702,0.043,4.387c0.02,1.69,0.042,3.202,0.042,3.213
				c-0.001,1.505-1.221,2.729-2.732,2.731h-6.934c-1.479,0-2.609,0.249-3.473,0.641c-0.865,0.393-1.477,0.922-1.942,1.549
				c-0.926,1.243-1.087,2.777-1.083,4.343c0,0,0.014,1.279,0.322,3.756c0.256,1.916,2.334,15.303,4.308,19.374
				c0.765,1.584,1.275,2.243,2.778,2.941c3.35,1.434,11.001,3.029,14.587,3.486c3.58,0.458,5.827,1.421,7.166-1.387
				c0.004-0.007,0.268-0.698,0.631-1.713c1.163-3.522,1.324-6.647,1.324-8.909c0-0.23,0.337-0.241,0.337,0
				c0,1.597-0.305,7.247,3.964,8.763c1.685,0.598,5.181,1.131,8.732,1.547c3.211,0.369,5.542,1.633,5.542,9.873
				c0,5.013-1.053,5.7-6.557,5.7c-4.462,0-6.162,0.115-6.162-3.43c0-2.865,2.833-2.564,4.933-2.564c0.938,0,0.257-0.698,0.257-2.466
				c0-1.758,1.1-2.774,0.06-2.8c-7.262-0.2-11.535-0.009-11.535,9.073c0,8.245,3.155,9.775,13.462,9.775
				c8.081,0,10.929-0.265,14.266-10.617c0.661-2.044,2.257-8.281,3.224-18.753C91.25,62.881,90.063,42.896,89.122,37.852z
				 M75.035,59.941c-0.999-0.034-1.958,0.028-2.854,0.173c0.252-2.035,1.092-4.533,4.068-4.429c3.294,0.113,3.756,3.228,3.768,5.336
				C78.627,60.402,76.908,60.008,75.035,59.941z"/>
		</g>
	</g>
</g>
</svg>
