<?xml version="1.0" encoding="iso-8859-1"?>
<!-- Generator: Adobe Illustrator 16.0.0, SVG Export Plug-In . SVG Version: 6.00 Build 0)  -->
<!DOCTYPE svg PUBLIC "-//W3C//DTD SVG 1.1//EN" "http://www.w3.org/Graphics/SVG/1.1/DTD/svg11.dtd" [
	<!ENTITY st0 "display:none;opacity:0.2;filter:url(#f1);">
	<!ENTITY st1 "display:none;opacity:0.25;filter:url(#f1);">
	<!ENTITY st2 "display:inline;">
	<!ENTITY st3 "display:none;">
	<!ENTITY st4 "fill-rule:evenodd;clip-rule:evenodd;fill:url(#SVGID_1_);">
	<!ENTITY st5 "fill-rule:evenodd;clip-rule:evenodd;fill:url(#SVGID_2_);">
	<!ENTITY st6 "fill-rule:evenodd;clip-rule:evenodd;fill:url(#SVGID_3_);">
	<!ENTITY st7 "fill-rule:evenodd;clip-rule:evenodd;fill:url(#SVGID_4_);">
]>
<svg version="1.1" id="Groups" xmlns="http://www.w3.org/2000/svg" xmlns:xlink="http://www.w3.org/1999/xlink" x="0px" y="0px"
	 width="120px" height="120px" viewBox="0 0 120 120" style="enable-background:new 0 0 120 120;" xml:space="preserve">
<filter  x="-7" y="8" filterUnits="userSpaceOnUse" id="f1">
	<feOffset  result="offOut" in="SourceGraphic" dx="0" dy="3"></feOffset>
	<feGaussianBlur  stdDeviation="2" result="blurOut" in="offOut"></feGaussianBlur>
	<feBlend  mode="normal" in2="blurOut" in="SourceGraphic"></feBlend>
</filter>
<g>
	<g id="shape_copy_4_" style="&st3;">
		<g style="&st2;">
			<linearGradient id="SVGID_1_" gradientUnits="userSpaceOnUse" x1="60" y1="120" x2="60" y2="0">
				<stop  offset="0" style="stop-color:#5A84DD"/>
				<stop  offset="1" style="stop-color:#628ADF"/>
			</linearGradient>
			<path style="&st4;" d="M108,0H12C5.373,0,0,5.373,0,12v96c0,6.628,5.373,12,12,12H108c6.627,0,12-5.372,12-12V12
				C120,5.373,114.627,0,108,0z"/>
		</g>
	</g>
	<g id="Color_Fill_39_copy_3_3_" style="&st1;">
		<path style="&st2;" d="M96.812,71.33c-2.63-2.209-7.85-4.627-10.059-5.996c-1.671-1.033-5.049-3.469-3.05-5.259
			c1.998-1.787,6.206-5.785,5.786-11.359c-0.421-5.575-4.226-12.85-12.518-12.726C68.75,36.113,65.4,45.455,65.4,49.031
			s-6.77,8.816-3.826,11.465c2.104,1.894-2.104,4.522-3.472,5.154c-1.367,0.632,2.141,3.261-1.119,6.416
			c-3.261,3.155-2.525,8.258-2.525,8.258s0,1.262,1.473,1.262c1.472,0,42.248-0.062,42.879-0.062s1.577-0.421,1.577-1.578
			C100.387,77.263,99.441,73.539,96.812,71.33z"/>
	</g>
	<g id="Color_Fill_39_copy_3">
		<g>
			<linearGradient id="SVGID_2_" gradientUnits="userSpaceOnUse" x1="78.3872" y1="83.0391" x2="78.3872" y2="34.5362">
				<stop  offset="0" style="stop-color:#3B5791"/>
				<stop  offset="1" style="stop-color:#4260A1"/>
			</linearGradient>
			<path style="&st5;" d="M99.049,72.129c-2.797-2.35-8.35-4.922-10.699-6.377c-1.777-1.1-5.371-3.691-3.245-5.594
				c2.125-1.902,6.601-6.154,6.154-12.084c-0.448-5.93-4.494-13.668-13.315-13.536C69.2,34.669,65.636,44.605,65.636,48.41
				c0,3.804-7.201,9.378-4.07,12.195c2.238,2.014-2.238,4.811-3.692,5.482s2.277,3.469-1.191,6.825
				c-3.469,3.356-2.686,8.783-2.686,8.783s0,1.343,1.566,1.343s44.939-0.066,45.611-0.066s1.678-0.448,1.678-1.679
				C102.853,78.44,101.846,74.479,99.049,72.129z"/>
		</g>
	</g>
	<g id="Color_Fill_39_copy_5_3_" style="&st0;">
		<path style="&st2;" d="M60.646,71.332c-2.63-2.209,1.552-4.627-0.657-5.994c-1.671-1.034-5.049-3.471-3.051-5.26
			c1.999-1.788-3.195-5.785-3.616-11.359c-0.42-5.574-4.225-12.732-12.517-12.607c-8.22,0.123-11.57,9.346-11.57,12.923
			c0,3.576,2.632,8.816,5.575,11.465c2.104,1.894-2.104,4.522-3.471,5.154c-1.368,0.632-7.26,3.261-10.521,6.416
			c-3.261,3.155-2.525,8.218-2.525,8.218s0,1.264,1.473,1.264s42.248-0.064,42.878-0.064s1.578-0.421,1.578-1.578
			C64.222,77.227,63.275,73.541,60.646,71.332z"/>
	</g>
	<g id="Color_Fill_39_copy_5">
		<g>
			<linearGradient id="SVGID_3_" gradientUnits="userSpaceOnUse" x1="40.2222" y1="82.998" x2="40.2222" y2="34.6621">
				<stop  offset="0" style="stop-color:#3B5791"/>
				<stop  offset="1" style="stop-color:#4260A1"/>
			</linearGradient>
			<path style="&st6;" d="M60.883,72.129c-2.797-2.35,1.65-4.922-0.699-6.377c-1.778-1.1-5.371-3.691-3.245-5.594
				s-3.398-6.154-3.846-12.084c-0.447-5.93-4.494-13.543-13.314-13.41c-8.744,0.131-12.308,9.941-12.308,13.746
				c0,3.804,2.799,9.378,5.93,12.195c2.238,2.014-2.238,4.811-3.692,5.482s-7.723,3.469-11.191,6.825
				c-3.469,3.356-2.686,8.741-2.686,8.741s0,1.344,1.566,1.344s44.939-0.067,45.611-0.067c0.671,0,1.678-0.448,1.678-1.679
				C64.688,78.398,63.68,74.479,60.883,72.129z"/>
		</g>
	</g>
	<g id="Color_Fill_39_copy_2_3_" style="&st0;">
		<path style="&st2;" d="M83.194,76.264c-2.979-2.502-10.015-5.361-12.517-6.91c-1.893-1.172-5.719-3.933-3.456-5.958
			c2.264-2.026,7.03-6.554,6.554-12.868S68.989,36.34,59.596,36.48C50.285,36.619,46.49,46.833,46.49,50.887
			c0,4.049,2.981,9.985,6.314,12.986c2.383,2.144-2.382,5.123-3.932,5.837c-1.549,0.716-8.994,3.693-12.687,7.269
			c-3.694,3.575-2.86,8.794-2.86,8.794s0,1.431,1.668,1.431s49.749,0.284,50.464,0.284c0.714,0,1.787-0.477,1.787-1.787
			C87.245,82.663,86.172,78.766,83.194,76.264z"/>
	</g>
	<g id="Color_Fill_39_copy_2">
		<g>
			<linearGradient id="SVGID_4_" gradientUnits="userSpaceOnUse" x1="60.2451" y1="88.3125" x2="60.2451" y2="33.6543">
				<stop  offset="0" style="stop-color:#D2DAEC"/>
				<stop  offset="1" style="stop-color:#E4ECFE"/>
			</linearGradient>
			<path style="&st7;" d="M84.836,76.285c-3.191-2.681-10.731-5.745-13.413-7.404c-2.028-1.256-6.128-4.214-3.703-6.384
				c2.426-2.171,7.533-7.022,7.022-13.789S69.615,33.505,59.55,33.656c-9.978,0.148-14.044,11.094-14.044,15.436
				c0,4.34,3.194,10.701,6.767,13.916c2.553,2.298-2.553,5.49-4.213,6.256c-1.66,0.766-9.638,3.957-13.595,7.788
				c-3.958,3.83-3.064,9.423-3.064,9.423s0,1.532,1.788,1.532s53.308,0.306,54.074,0.306s1.915-0.511,1.915-1.915
				C89.177,83.143,88.028,78.967,84.836,76.285z"/>
		</g>
	</g>
</g>
</svg>
