<?xml version="1.0" encoding="iso-8859-1"?>
<!-- Generator: Adobe Illustrator 16.0.0, SVG Export Plug-In . SVG Version: 6.00 Build 0)  -->
<!DOCTYPE svg PUBLIC "-//W3C//DTD SVG 1.1//EN" "http://www.w3.org/Graphics/SVG/1.1/DTD/svg11.dtd" [
	<!ENTITY st0 "fill-rule:evenodd;clip-rule:evenodd;fill:#EBECED;">
	<!ENTITY st1 "display:inline;">
	<!ENTITY st2 "fill-rule:evenodd;clip-rule:evenodd;fill:#97A4AF;">
	<!ENTITY st3 "display:none;">
	<!ENTITY st4 "fill-rule:evenodd;clip-rule:evenodd;fill:url(#SVGID_1_);">
]>
<svg version="1.1" id="Group_-_loading" xmlns="http://www.w3.org/2000/svg" xmlns:xlink="http://www.w3.org/1999/xlink" x="0px"
	 y="0px" width="120px" height="120px" viewBox="0 0 120 120" style="enable-background:new 0 0 120 120;" xml:space="preserve">
<g>
	<g id="shape_copy_5_2_" style="&st3;">
		<g style="&st1;">
			<linearGradient id="SVGID_1_" gradientUnits="userSpaceOnUse" x1="60" y1="120" x2="60" y2="0">
				<stop  offset="0" style="stop-color:#B8C1CA"/>
				<stop  offset="1" style="stop-color:#BCC4CD"/>
			</linearGradient>
			<path style="&st4;" d="M108,0H12C5.373,0,0,5.373,0,12v96c0,6.628,5.373,12,12,12h96c6.627,0,12-5.372,12-12V12
				C120,5.373,114.627,0,108,0z"/>
		</g>
	</g>
	<g id="Color_Fill_39_copy_6">
		<g>
			<path style="&st2;" d="M100.049,72.129c-2.797-2.35-8.35-4.922-10.699-6.377c-1.777-1.1-5.371-3.692-3.245-5.594
				c2.126-1.902,6.602-6.154,6.154-12.084c-0.447-5.93-4.494-13.668-13.314-13.536C70.2,34.669,66.636,44.605,66.636,48.41
				c0,3.804-7.201,9.378-4.07,12.195c2.238,2.014-2.238,4.811-3.692,5.482s2.277,3.469-1.191,6.825
				c-3.469,3.356-2.686,8.784-2.686,8.784s0,1.342,1.566,1.342s44.939-0.066,45.611-0.066c0.671,0,1.678-0.448,1.678-1.679
				C103.853,78.44,102.846,74.479,100.049,72.129z"/>
		</g>
	</g>
	<g id="Color_Fill_39_copy_7">
		<g>
			<path style="&st2;" d="M61.883,72.129c-2.797-2.35,1.65-4.922-0.7-6.377c-1.777-1.1-5.371-3.692-3.245-5.594
				c2.126-1.902-3.398-6.154-3.846-12.084s-4.494-13.543-13.314-13.41c-8.744,0.131-12.308,9.941-12.308,13.746
				c0,3.804,2.799,9.378,5.93,12.195c2.238,2.014-2.238,4.811-3.692,5.482c-1.455,0.672-7.723,3.469-11.191,6.825
				c-3.469,3.356-2.686,8.742-2.686,8.742s0,1.343,1.566,1.343s44.939-0.067,45.61-0.067c0.671,0,1.679-0.448,1.679-1.679
				C65.688,78.398,64.68,74.479,61.883,72.129z"/>
		</g>
	</g>
	<g id="Color_Fill_39_copy_8">
		<g>
			<path style="&st0;" d="M85.836,75.285c-3.191-2.681-10.732-5.745-13.413-7.404c-2.028-1.256-6.128-4.214-3.703-6.384
				c2.426-2.171,7.533-7.022,7.022-13.789S70.615,32.505,60.55,32.656c-9.978,0.148-14.044,11.094-14.044,15.436
				c0,4.34,3.194,10.701,6.767,13.916c2.553,2.298-2.554,5.49-4.213,6.256c-1.66,0.766-9.638,3.958-13.595,7.788
				c-3.958,3.83-3.064,9.423-3.064,9.423s0,1.532,1.788,1.532c1.787,0,53.308-0.011,54.074-0.011s1.915-0.51,1.915-1.915
				C90.177,81.826,89.028,77.967,85.836,75.285z"/>
		</g>
	</g>
</g>
</svg>
