<?xml version="1.0" encoding="iso-8859-1"?>
<!-- Generator: Adobe Illustrator 16.0.0, SVG Export Plug-In . SVG Version: 6.00 Build 0)  -->
<!DOCTYPE svg PUBLIC "-//W3C//DTD SVG 1.1//EN" "http://www.w3.org/Graphics/SVG/1.1/DTD/svg11.dtd" [
	<!ENTITY st0 "fill-rule:evenodd;clip-rule:evenodd;fill:#A3A398;">
	<!ENTITY st1 "fill-rule:evenodd;clip-rule:evenodd;fill:#DAD9C6;">
	<!ENTITY st2 "display:none;opacity:0.2;filter:url(#f1);">
	<!ENTITY st3 "fill-rule:evenodd;clip-rule:evenodd;fill:#E5E3CC;">
	<!ENTITY st4 "display:inline;">
	<!ENTITY st5 "fill-rule:evenodd;clip-rule:evenodd;fill:#F8F8EE;">
	<!ENTITY st6 "display:none;">
	<!ENTITY st7 "fill-rule:evenodd;clip-rule:evenodd;fill:url(#SVGID_1_);">
]>
<svg version="1.1" id="Email_and_Note" xmlns="http://www.w3.org/2000/svg" xmlns:xlink="http://www.w3.org/1999/xlink" x="0px"
	 y="0px" width="120px" height="120px" viewBox="0 0 120 120" style="enable-background:new 0 0 120 120;" xml:space="preserve">
<filter  x="-7" y="8" filterUnits="userSpaceOnUse" id="f1">
	<feOffset  result="offOut" in="SourceGraphic" dx="0" dy="3"></feOffset>
	<feGaussianBlur  stdDeviation="2" result="blurOut" in="offOut"></feGaussianBlur>
	<feBlend  mode="normal" in2="blurOut" in="SourceGraphic"></feBlend>
</filter>
<g id="Note">
	<g id="shape_copy_45" style="&st6;">
		<g style="&st4;">
			<linearGradient id="SVGID_1_" gradientUnits="userSpaceOnUse" x1="60" y1="120" x2="60" y2="0">
				<stop  offset="0" style="stop-color:#DBD75D"/>
				<stop  offset="1" style="stop-color:#DDD965"/>
			</linearGradient>
			<path style="&st7;" d="M108,0H12C5.373,0,0,5.374,0,12V108c0,6.628,5.373,12,12,12H108c6.627,0,12-5.373,12-12V12
				C120,5.374,114.627,0,108,0z"/>
		</g>
	</g>
	<g id="shape_copy_43_" style="&st2;">
		<path style="&st4;" d="M91.037,27.839H29.958c-3.016,0-5.461,2.444-5.461,5.461v55.394c0,3.017,2.445,5.461,5.461,5.461h43.875
			l22.664-22.196V33.3C96.497,30.284,94.053,27.839,91.037,27.839z"/>
	</g>
	<g id="shape_copy_38_">
		<g>
			<path style="&st5;" d="M92.167,26H27.699c-3.183,0-5.764,2.58-5.764,5.764V90.23c0,3.184,2.581,5.764,5.764,5.764h48.145
				L97.93,74V31.764C97.93,28.58,95.35,26,92.167,26z"/>
		</g>
	</g>
	<g id="Rounded_Rectangle_21_12_">
		<g>
			<path style="&st0;" d="M38.917,17h-2c-1.104,0-2,0.896-2,2v15c0,1.104,0.896,2,2,2h2c1.104,0,2-0.896,2-2V19
				C40.917,17.896,40.021,17,38.917,17z"/>
		</g>
	</g>
	<g id="Rounded_Rectangle_21_5_">
		<g>
			<path style="&st0;" d="M60.917,17h-2c-1.104,0-2,0.896-2,2v15c0,1.104,0.896,2,2,2h2c1.104,0,2-0.896,2-2V19
				C62.917,17.896,62.021,17,60.917,17z"/>
		</g>
	</g>
	<g id="Rounded_Rectangle_21_2_">
		<g>
			<path style="&st0;" d="M82.917,17h-2c-1.104,0-2,0.896-2,2v15c0,1.104,0.896,2,2,2h2c1.104,0,2-0.896,2-2V19
				C84.917,17.896,84.021,17,82.917,17z"/>
		</g>
	</g>
	<g id="Rectangle_18_copy_2_2_">
		<g>
			<polygon style="&st1;" points="34.917,74 34.667,80 68.083,80 68.333,74 			"/>
		</g>
	</g>
	<g id="Rectangle_18_copy_3_">
		<g>
			<rect x="34.917" y="61" style="&st1;" width="50" height="6"/>
		</g>
	</g>
	<g id="Rectangle_18_4_">
		<g>
			<rect x="34.917" y="48" style="&st1;" width="50" height="6"/>
		</g>
	</g>
	<g id="shape_copy_36_">
		<g>
			<path style="&st3;" d="M82.141,74c-3.729,0-6.291,1.832-6.291,6.348l-0.006,15.667L97.938,74H82.141z"/>
		</g>
	</g>
</g>
</svg>
