<?xml version="1.0" encoding="iso-8859-1"?>
<!-- Generator: Adobe Illustrator 16.0.0, SVG Export Plug-In . SVG Version: 6.00 Build 0)  -->
<!DOCTYPE svg PUBLIC "-//W3C//DTD SVG 1.1//EN" "http://www.w3.org/Graphics/SVG/1.1/DTD/svg11.dtd" [
	<!ENTITY st0 "display:none;opacity:0.1;filter:url(#f1);">
	<!ENTITY st1 "display:inline;">
	<!ENTITY st2 "fill-rule:evenodd;clip-rule:evenodd;fill:#FCEDD2;">
	<!ENTITY st3 "display:none;">
	<!ENTITY st4 "fill-rule:evenodd;clip-rule:evenodd;fill:url(#SVGID_1_);">
	<!ENTITY st5 "fill-rule:evenodd;clip-rule:evenodd;fill:url(#SVGID_2_);">
]>
<svg version="1.1" id="Opportunity" xmlns="http://www.w3.org/2000/svg" xmlns:xlink="http://www.w3.org/1999/xlink" x="0px"
	 y="0px" width="120px" height="120px" viewBox="0 0 120 120" style="enable-background:new 0 0 120 120;" xml:space="preserve">
<filter  x="-7" y="8" filterUnits="userSpaceOnUse" id="f1">
	<feOffset  result="offOut" in="SourceGraphic" dx="0" dy="3"></feOffset>
	<feGaussianBlur  stdDeviation="2" result="blurOut" in="offOut"></feGaussianBlur>
	<feBlend  mode="normal" in2="blurOut" in="SourceGraphic"></feBlend>
</filter>
<g id="shape_copy_29_" style="&st3;">
	<g style="&st1;">
		<linearGradient id="SVGID_1_" gradientUnits="userSpaceOnUse" x1="60" y1="120" x2="60" y2="0">
			<stop  offset="0" style="stop-color:#F1B143"/>
			<stop  offset="1" style="stop-color:#F3BE63"/>
		</linearGradient>
		<path style="&st4;" d="M108,0H12C5.373,0,0,5.373,0,12v96c0,6.628,5.373,12,12,12h96c6.628,0,12-5.372,12-12V12
			C120,5.373,114.628,0,108,0z"/>
	</g>
</g>
<g id="Rounded_Rectangle_16">
	<g>
		<linearGradient id="SVGID_2_" gradientUnits="userSpaceOnUse" x1="59.9004" y1="108" x2="59.9004" y2="12">
			<stop  offset="0" style="stop-color:#E4920E"/>
			<stop  offset="1" style="stop-color:#EB9E21"/>
		</linearGradient>
		<path style="&st5;" d="M101.8,12H18c-3.313,0-6,2.687-6,6v84c0,3.313,2.687,6,6,6h83.8c3.313,0,6-2.687,6-6V18
			C107.8,14.687,105.113,12,101.8,12z"/>
	</g>
</g>
<g id="Color_Fill_1_copy_7_2_" style="&st0;">
	<path style="&st1;" d="M91.211,48.404c-2.504,0-4.535,2.03-4.535,4.535c0,1.023-0.25,2.042,0.321,2.8
		c0.051,0.066-0.078,0.494-0.69,0.77c-2.118,0.951-3.218,1.284-4.446,1.284c-6.548,0-14.392-3.087-19.381-13.638
		c-0.175-0.37-0.353-0.729-0.207-0.807c1.433-0.762,2.41-2.271,2.41-4.008c0-2.504-2.03-4.535-4.536-4.535
		c-2.504,0-4.534,2.031-4.534,4.535c0,1.62,0.789,3.223,2.102,3.923c0.223,0.118,0.042,0.297-0.121,0.639
		c-5.151,10.804-12.864,13.865-19.415,13.865c-1.07,0-2.981-1.241-4.913-2.31c-0.29-0.161-0.692-0.314-0.549-0.581
		c0.341-0.636,0.31-1.165,0.31-1.938c0-2.504-2.03-4.535-4.535-4.535c-2.504,0-4.534,2.03-4.534,4.535
		c0,2.505,2.03,4.535,4.534,4.535c0.585,0,0.865-0.385,1.041-0.068c1.865,3.349,6.585,22.064,6.585,22.064
		c0.777,2.625,1.088,5.305,4.99,5.305c3.123,0,34.285,0.067,39.042,0c3.951-0.056,4.273-5.305,4.273-5.305
		s4.139-16.762,5.754-21.837c0.39-1.229,0.06-0.203,0.143-0.177c0.419,0.126,0.434,0.018,0.893,0.018
		c2.505,0,4.536-2.03,4.536-4.535C95.747,50.435,93.716,48.404,91.211,48.404z"/>
</g>
<g id="Color_Fill_1_copy_7">
	<g>
		<path style="&st2;" d="M92.718,46.856c-2.625,0-4.753,2.128-4.753,4.753c0,1.072-0.263,2.14,0.336,2.935
			c0.053,0.069-0.081,0.518-0.724,0.807c-2.22,0.997-3.372,1.346-4.659,1.346c-6.862,0-15.083-3.235-20.312-14.293
			c-0.184-0.388-0.369-0.765-0.217-0.846c1.502-0.799,2.525-2.38,2.525-4.2c0-2.625-2.128-4.753-4.753-4.753
			s-4.753,2.128-4.753,4.753c0,1.698,0.828,3.378,2.203,4.111c0.233,0.124,0.044,0.312-0.127,0.67
			C52.086,53.462,44.002,56.67,37.137,56.67c-1.122,0-3.125-1.301-5.148-2.421c-0.305-0.169-0.726-0.329-0.576-0.608
			c0.357-0.667,0.325-1.221,0.325-2.031c0-2.625-2.128-4.753-4.753-4.753s-4.753,2.128-4.753,4.753s2.128,4.753,4.753,4.753
			c0.612,0,0.906-0.403,1.091-0.071c1.954,3.51,6.9,23.124,6.9,23.124c0.815,2.752,1.141,5.56,5.23,5.56
			c3.272,0,35.932,0.07,40.917,0c4.141-0.059,4.479-5.56,4.479-5.56s4.339-17.567,6.03-22.886c0.409-1.288,0.063-0.212,0.15-0.186
			c0.438,0.133,0.454,0.019,0.936,0.019c2.625,0,4.753-2.128,4.753-4.753S95.343,46.856,92.718,46.856z"/>
	</g>
</g>
</svg>
