<?xml version="1.0" encoding="iso-8859-1"?>
<!-- Generator: Adobe Illustrator 16.0.0, SVG Export Plug-In . SVG Version: 6.00 Build 0)  -->
<!DOCTYPE svg PUBLIC "-//W3C//DTD SVG 1.1//EN" "http://www.w3.org/Graphics/SVG/1.1/DTD/svg11.dtd" [
	<!ENTITY st0 "fill-rule:evenodd;clip-rule:evenodd;fill:#8C898D;">
	<!ENTITY st1 "opacity:0.2;">
	<!ENTITY st2 "display:inline;">
	<!ENTITY st3 "fill-rule:evenodd;clip-rule:evenodd;fill:#F8F8F8;">
	<!ENTITY st4 "fill-rule:evenodd;clip-rule:evenodd;fill:#2A232B;">
	<!ENTITY st5 "fill-rule:evenodd;clip-rule:evenodd;fill:#FFFFFF;">
	<!ENTITY st6 "display:none;">
	<!ENTITY st7 "fill-rule:evenodd;clip-rule:evenodd;fill:url(#SVGID_1_);">
	<!ENTITY st8 "fill-rule:evenodd;clip-rule:evenodd;fill:url(#SVGID_2_);">
	<!ENTITY st9 "fill-rule:evenodd;clip-rule:evenodd;fill:url(#SVGID_3_);">
	<!ENTITY st10 "display:none;opacity:0.5;filter:url(#f1);">
]>
<svg version="1.1" id="Photo" xmlns="http://www.w3.org/2000/svg" xmlns:xlink="http://www.w3.org/1999/xlink" x="0px" y="0px"
	 width="120px" height="120px" viewBox="0 0 120 120" style="enable-background:new 0 0 120 120;" xml:space="preserve">
<filter  x="-7" y="8" filterUnits="userSpaceOnUse" id="f1">
	<feOffset  result="offOut" in="SourceGraphic" dx="0" dy="3"></feOffset>
	<feGaussianBlur  stdDeviation="2" result="blurOut" in="offOut"></feGaussianBlur>
	<feBlend  mode="normal" in2="blurOut" in="SourceGraphic"></feBlend>
</filter>
<g>
	<g id="shape_copy_2" style="&st6;">
		<g style="&st2;">
			<linearGradient id="SVGID_1_" gradientUnits="userSpaceOnUse" x1="60" y1="120" x2="60" y2="0">
				<stop  offset="0" style="stop-color:#DDDDDD"/>
				<stop  offset="1" style="stop-color:#DFDFDF"/>
			</linearGradient>
			<path style="&st7;" d="M108,0H12C5.373,0,0,5.373,0,12v96c0,6.628,5.373,12,12,12h96c6.628,0,12-5.372,12-12V12
				C120,5.373,114.628,0,108,0z"/>
		</g>
	</g>
	<g id="Rounded_Rectangle_45">
		<g>
			<path style="&st0;" d="M104.125,10h-4c-2.762,0-5,2.238-5,5v4c0,2.762,2.238,5,5,5h4c2.762,0,5-2.238,5-5v-4
				C109.125,12.238,106.887,10,104.125,10z"/>
		</g>
	</g>
	<g id="Ellipse_3_copy_5_2_" style="&st10;">
		<ellipse style="&st2;" cx="60.125" cy="57.873" rx="40.5" ry="39.627"/>
	</g>
	<g id="Ellipse_3_copy_5">
		<g>
			<circle style="&st3;" cx="60.125" cy="59" r="42"/>
		</g>
	</g>
	<g id="Ellipse_3">
		<g>
			
				<radialGradient id="SVGID_2_" cx="61" cy="59" r="29" gradientTransform="matrix(1 0 0 1 -0.875 0)" gradientUnits="userSpaceOnUse">
				<stop  offset="0.2709" style="stop-color:#3D343E"/>
				<stop  offset="0.6256" style="stop-color:#3D343E"/>
				<stop  offset="0.8719" style="stop-color:#332E35"/>
				<stop  offset="1" style="stop-color:#1F1B1F"/>
			</radialGradient>
			<circle style="&st8;" cx="60.125" cy="59" r="29"/>
		</g>
	</g>
	<g id="Ellipse_3_copy_3">
		<g>
			
				<radialGradient id="SVGID_3_" cx="61" cy="59" r="17" gradientTransform="matrix(1 0 0 1 -0.875 0)" gradientUnits="userSpaceOnUse">
				<stop  offset="0.6453" style="stop-color:#312A33"/>
				<stop  offset="0.8522" style="stop-color:#312A33"/>
				<stop  offset="1" style="stop-color:#2C252E"/>
			</radialGradient>
			<circle style="&st9;" cx="60.125" cy="59" r="17"/>
		</g>
	</g>
	<g id="Ellipse_3_copy_4">
		<g>
			<circle style="&st4;" cx="60.125" cy="59" r="6.12"/>
		</g>
	</g>
	<g id="Ellipse_4" style="&st1;">
		<g>
			<path style="&st5;" d="M60.625,35c-10.77,0-19.5,5.629-19.5,12.572c0,6.942,9.23,8.428,20,8.428s19-1.485,19-8.428
				C80.125,40.629,71.395,35,60.625,35z"/>
		</g>
	</g>
</g>
</svg>
