<?xml version="1.0" encoding="iso-8859-1"?>
<!-- Generator: Adobe Illustrator 16.0.0, SVG Export Plug-In . SVG Version: 6.00 Build 0)  -->
<!DOCTYPE svg PUBLIC "-//W3C//DTD SVG 1.1//EN" "http://www.w3.org/Graphics/SVG/1.1/DTD/svg11.dtd" [
	<!ENTITY st0 "display:none;opacity:0.2;filter:url(#f1);">
	<!ENTITY st1 "display:inline;">
	<!ENTITY st2 "display:none;">
	<!ENTITY st3 "fill-rule:evenodd;clip-rule:evenodd;fill:url(#SVGID_1_);">
	<!ENTITY st4 "fill-rule:evenodd;clip-rule:evenodd;fill:url(#SVGID_2_);">
]>
<svg version="1.1" id="Post" xmlns="http://www.w3.org/2000/svg" xmlns:xlink="http://www.w3.org/1999/xlink" x="0px" y="0px"
	 width="120px" height="120px" viewBox="0 0 120 120" style="enable-background:new 0 0 120 120;" xml:space="preserve">
<filter  x="-7" y="8" filterUnits="userSpaceOnUse" id="f1">
	<feOffset  result="offOut" in="SourceGraphic" dx="0" dy="3"></feOffset>
	<feGaussianBlur  stdDeviation="2" result="blurOut" in="offOut"></feGaussianBlur>
	<feBlend  mode="normal" in2="blurOut" in="SourceGraphic"></feBlend>
</filter>
<g>
	<g id="shape_copy_34" style="&st2;">
		<g style="&st1;">
			<linearGradient id="SVGID_1_" gradientUnits="userSpaceOnUse" x1="60" y1="120" x2="60" y2="0">
				<stop  offset="0" style="stop-color:#49AFC9"/>
				<stop  offset="1" style="stop-color:#52B3CC"/>
			</linearGradient>
			<path style="&st3;" d="M108,0H12C5.373,0,0,5.373,0,12v96c0,6.628,5.373,12,12,12h96c6.627,0,12-5.372,12-12V12
				C120,5.373,114.627,0,108,0z"/>
		</g>
	</g>
	<g id="icon_3_" style="&st0;">
		<path style="&st1;" d="M79.21,26.401H40.79c-9.833,0-17.29,8.033-17.29,18.25V60.02c0,10.409,7.841,18.25,16.329,18.25h6.724
			v13.447c0,0,0.008,2.882,2.881,2.882c2.612,0,13.592-16.329,15.643-16.329c8.096,0,15.094,0,15.094,0
			c8.488,0,16.329-7.457,16.329-18.25V44.651C96.5,33.666,89.427,26.401,79.21,26.401z"/>
	</g>
	<g id="icon">
		<g>
			<linearGradient id="SVGID_2_" gradientUnits="userSpaceOnUse" x1="60" y1="96" x2="60" y2="25">
				<stop  offset="0" style="stop-color:#BEE3ED"/>
				<stop  offset="1" style="stop-color:#D0F4FE"/>
			</linearGradient>
			<path style="&st4;" d="M80,25H40c-10.236,0-18,8.363-18,19v16c0,10.837,8.164,19,17,19h7v14c0,0,0.009,3,3,3
				c2.719,0,14.151-17,16.286-17C73.714,79,81,79,81,79c8.836,0,17-7.764,17-19V44C98,32.563,90.637,25,80,25z"/>
		</g>
	</g>
</g>
</svg>
