<?xml version="1.0" encoding="iso-8859-1"?>
<!-- Generator: Adobe Illustrator 16.0.0, SVG Export Plug-In . SVG Version: 6.00 Build 0)  -->
<!DOCTYPE svg PUBLIC "-//W3C//DTD SVG 1.1//EN" "http://www.w3.org/Graphics/SVG/1.1/DTD/svg11.dtd" [
	<!ENTITY st0 "fill-rule:evenodd;clip-rule:evenodd;fill:#A03C41;">
	<!ENTITY st1 "display:none;opacity:0.2;filter:url(#f1);">
	<!ENTITY st2 "display:none;opacity:0.1;filter:url(#f1);">
	<!ENTITY st3 "fill-rule:evenodd;clip-rule:evenodd;fill:#AD4449;">
	<!ENTITY st4 "fill-rule:evenodd;clip-rule:evenodd;fill:#EFC6C6;">
	<!ENTITY st5 "fill-rule:evenodd;clip-rule:evenodd;fill:#F1D4D4;">
	<!ENTITY st6 "display:inline;">
	<!ENTITY st7 "fill-rule:evenodd;clip-rule:evenodd;fill:#C45256;">
	<!ENTITY st8 "fill-rule:evenodd;clip-rule:evenodd;fill:#9F3B40;">
	<!ENTITY st9 "display:none;">
	<!ENTITY st10 "fill-rule:evenodd;clip-rule:evenodd;fill:url(#SVGID_1_);">
]>
<svg version="1.1" id="Thanks" xmlns="http://www.w3.org/2000/svg" xmlns:xlink="http://www.w3.org/1999/xlink" x="0px" y="0px"
	 width="120px" height="120px" viewBox="0 0 120 120" style="enable-background:new 0 0 120 120;" xml:space="preserve">
<filter  x="-7" y="8" filterUnits="userSpaceOnUse" id="f1">
	<feOffset  result="offOut" in="SourceGraphic" dx="0" dy="3"></feOffset>
	<feGaussianBlur  stdDeviation="2" result="blurOut" in="offOut"></feGaussianBlur>
	<feBlend  mode="normal" in2="blurOut" in="SourceGraphic"></feBlend>
</filter>
<g>
	<g id="shape_copy_17_" style="&st9;">
		<g style="&st6;">
			<linearGradient id="SVGID_1_" gradientUnits="userSpaceOnUse" x1="60" y1="120" x2="60" y2="0">
				<stop  offset="0" style="stop-color:#CD575C"/>
				<stop  offset="1" style="stop-color:#D06064"/>
			</linearGradient>
			<path style="&st10;" d="M108,0H12C5.373,0,0,5.373,0,12v96c0,6.628,5.373,12,12,12h96c6.628,0,12-5.372,12-12V12
				C120,5.373,114.628,0,108,0z"/>
		</g>
	</g>
	<g id="Rounded_Rectangle_18_11_" style="&st1;">
		<path style="&st6;" d="M24,43.447v48.316c0,2.093,1.696,3.79,3.789,3.79h64.422c2.092,0,3.789-1.697,3.789-3.79V43.447H24z"/>
	</g>
	<g id="Rounded_Rectangle_18_2_">
		<g>
			<path style="&st4;" d="M22,41v51c0,2.209,1.791,4,4,4h68c2.209,0,4-1.791,4-4V41H22z"/>
		</g>
	</g>
	<g id="Shape_549_1_">
		<g>
			<path style="&st0;" d="M49.178,17.171c-5.302-2.816-11.494-1.533-13.83,2.865s0.068,10.247,5.37,13.063
				c5.302,2.815,22.992,2,22.992,2S54.479,19.987,49.178,17.171z"/>
		</g>
	</g>
	<g id="Shape_549_copy_2_1_">
		<g>
			<path style="&st8;" d="M84.652,20.036c-2.336-4.398-8.528-5.682-13.83-2.865S56.291,35.1,56.291,35.1s17.689,0.815,22.991-2
				C84.584,30.283,86.988,24.435,84.652,20.036z"/>
		</g>
	</g>
	<g id="Shape_551_2_">
		<g>
			<rect x="53" y="59" style="&st3;" width="14" height="37"/>
		</g>
	</g>
	<g id="Rounded_Rectangle_18_copy_3_4_" style="&st2;">
		<path style="&st6;" d="M95.983,33.812h-72.3c-2.219,0-4.017,1.679-4.017,3.75v20.625H100V37.562
			C100,35.492,98.202,33.812,95.983,33.812z"/>
	</g>
	<g id="Rounded_Rectangle_18_copy_3_1_">
		<g>
			<path style="&st5;" d="M96,33H24c-2.209,0-4,1.791-4,4v22h80V37C100,34.791,98.209,33,96,33z"/>
		</g>
	</g>
	<g id="Shape_551_3_">
		<g>
			<rect x="53" y="33" style="&st7;" width="14" height="26"/>
		</g>
	</g>
</g>
</svg>
