<?xml version="1.0" encoding="UTF-8"?>
<svg width="137px" height="137px" viewBox="0 0 137 137" version="1.1" xmlns="http://www.w3.org/2000/svg" xmlns:xlink="http://www.w3.org/1999/xlink">
    <title>add_users</title>
    <g id="add_users" stroke="none" stroke-width="1" fill="none" fill-rule="evenodd">
        <g id="undraw_buy_house_560d-(5)" transform="translate(-765.000000, 87.000000)"></g>
        <g id="undraw_Add_friends_wa2a-(2)" transform="translate(0.000000, 27.000000)" fill-rule="nonzero">
            <rect id="Rectangle" fill="#E6E8EC" x="50.537583" y="14.0262135" width="72.5906292" height="52.2318776"></rect>
            <path d="M136.978838,66.424967 L50.3707084,66.424967 L50.3707084,1.00996234 L136.978838,1.00996234 L136.978838,66.424967 Z M50.7044576,66.0912165 L136.645088,66.0912165 L136.645088,1.34371701 L50.7044576,1.34371701 L50.7044576,66.0912165 Z" id="Shape" fill="#3F3D56"></path>
            <circle id="Oval" fill="#3F3D56" cx="54.5425838" cy="4.68121258" r="1.66874986"></circle>
            <circle id="Oval" fill="#3F3D56" cx="59.2150842" cy="4.68121258" r="1.66874986"></circle>
            <circle id="Oval" fill="#3F3D56" cx="63.8875846" cy="4.68121258" r="1.66874986"></circle>
            <rect id="Rectangle" fill="#3F3D56" x="69.0270463" y="22.1886154" width="35.611704" height="1"></rect>
            <rect id="Rectangle" fill="#3F3D56" x="69.0270463" y="24.9895355" width="35.611704" height="1"></rect>
            <rect id="Rectangle" fill="#3F3D56" x="69.0270463" y="27.7904569" width="35.611704" height="1"></rect>
            <rect id="Rectangle" fill="#3F3D56" x="69.0270463" y="33.5361166" width="35.611704" height="1"></rect>
            <rect id="Rectangle" fill="#3F3D56" x="69.0270463" y="36.3370367" width="35.611704" height="1"></rect>
            <rect id="Rectangle" fill="#3F3D56" x="69.0270463" y="39.1379568" width="35.611704" height="1"></rect>
            <path d="M86.7810754,63.754967 C81.8964615,63.754967 77.9366996,59.7952051 77.9366996,54.9105912 C77.9366996,50.0259774 81.8964615,46.0662154 86.7810754,46.0662154 C91.6656893,46.0662154 95.6254512,50.0259774 95.6254512,54.9105912 C95.6199673,59.7929318 91.663416,63.7494831 86.7810754,63.754967 Z M86.7810754,46.399966 C82.0807869,46.399966 78.2704502,50.2103027 78.2704502,54.9105912 C78.2704502,59.6108797 82.0807869,63.4212165 86.7810754,63.4212165 C91.4813639,63.4212165 95.2917006,59.6108797 95.2917006,54.9105912 C95.2863411,50.2125244 91.4791422,46.4053255 86.7810754,46.399966 L86.7810754,46.399966 Z" id="Shape" fill="#AB6ACB"></path>
            <polygon id="Path" fill="#AB6ACB" points="91.1197921 54.5768739 87.1148577 54.5768739 87.1148577 50.5718012 86.4472765 50.5718012 86.4472765 54.5768739 82.4423421 54.5768739 82.4423421 55.2443169 86.4472765 55.2443169 86.4472765 59.2493895 87.1148577 59.2493895 87.1148577 55.2443169 91.1197921 55.2443169"></polygon>
            <path d="M16.9122684,59.8334035 C16.9122684,59.8334035 13.4078928,63.6715283 12.9072691,72.5159041 C12.4066453,81.3602799 12.239768,82.3615301 12.239768,82.3615301 L24.755394,82.3615301 L27.0916408,76.3540303 L29.7616422,82.3615301 L41.6097699,82.3615301 C41.6097699,82.3615301 42.9447707,64.0052788 41.6097699,63.5046537 C40.2747692,63.0040286 16.9122684,59.8334035 16.9122684,59.8334035 Z" id="Path" fill="#2F2E41"></path>
            <circle id="Oval" fill="#FFB8B8" cx="33.6832071" cy="8.68621335" r="6.00749977"></circle>
            <path d="M28.2597697,9.10340116 L27.0916436,19.7834014 L35.2685197,20.7846516 C35.2685197,20.7846516 35.6022702,11.4396507 35.7691448,11.1058988 C35.9360193,10.7721469 28.2597697,9.10340116 28.2597697,9.10340116 Z" id="Path" fill="#FFB8B8"></path>
            <path d="M51.4553959,31.7984078 L54.9597702,38.6402832 C54.9597702,38.6402832 59.6322706,45.4821586 60.8003954,51.1559092 C61.9685202,56.8296598 63.1366463,59.4996599 63.1366463,59.4996599 C63.1366463,59.4996599 69.1441433,68.1771542 65.8066519,69.6790295 C62.4691605,71.1809048 59.6322762,60.0002767 59.6322762,60.0002767 L50.4541457,43.3127781 L45.1141456,34.6352769 L51.4553959,31.7984078 Z" id="Path" fill="#FFB8B8"></path>
            <path d="M18.2472692,33.4671535 L17.079143,38.4734045 L6.06539367,52.9915336 C6.06539367,52.9915336 -2.7789821,59.6665345 0.892268143,61.1684097 C4.56351839,62.670285 9.06914287,55.1609086 9.06914287,55.1609086 L22.7528936,43.1459063 L22.085394,33.4671535 L18.2472692,33.4671535 Z" id="Path" fill="#FFB8B8"></path>
            <path d="M26.7578944,17.6140264 C26.7578944,17.6140264 31.7135604,19.6916736 35.4101025,17.1509747 C35.4101025,17.1509747 44.4466446,18.6152766 44.9472697,19.1159017 C45.4478948,19.6165268 44.4466446,34.6352769 44.4466446,34.6352769 L42.4441456,43.1459063 C42.4441456,43.1459063 45.2810202,56.1621505 41.1091449,59.4996585 L41.9435205,64.005283 C41.9435205,64.005283 23.4203933,65.3402837 16.0778928,60.8346523 L17.4128922,56.3290278 L20.9172678,42.144652 L18.7478943,22.4534014 C18.7478943,22.4534014 20.4166441,17.9477769 26.7578944,17.6140264 Z" id="Path" fill="#D0CDE1"></path>
            <path d="M40.691957,19.8668386 L45.0307083,19.199339 C45.0307083,19.199339 47.2000833,19.5330895 49.2025823,23.7049648 C51.2050813,27.8768402 53.3744576,33.3837176 53.3744576,33.3837176 L45.8650826,36.7212146 L39.6907069,27.0424618 L40.691957,19.8668386 Z" id="Path" fill="#D0CDE1"></path>
            <path d="M19.7491431,21.6190272 L18.7478943,22.4534014 C18.7478943,22.4534014 17.4128935,27.2927778 17.4128935,30.6302775 L17.4128935,35.1358992 L23.4203933,35.8034003 L19.7491431,21.6190272 Z" id="Path" fill="#D0CDE1"></path>
            <path d="M27.6774091,10.3165604 C27.6774091,10.3165604 26.8608089,9.43473794 26.943461,8.33079996 C26.9979209,7.70282748 26.9577506,7.07023677 26.8242945,6.45419718 C26.8242945,6.45419718 27.0798776,4.64734552 27.4572621,3.60000748 C27.8346467,2.55266943 27.5165108,2.18819828 29.1387484,1.61642028 C30.760986,1.04464228 29.7282438,-1.02304439 34.5110894,0.625032432 C34.8830625,1.00064129 35.4445121,1.11551919 35.9341212,0.916198214 C36.8171339,0.592811857 37.3492663,1.80590884 37.3492663,1.80590884 C37.3492663,1.80590884 37.9000463,1.35402035 38.2091065,1.82383082 C38.5181666,2.29364128 40.0129168,1.2228432 40.5610246,4.64071395 C41.1091324,8.05858469 39.2274782,11.1065181 39.2274782,11.1065181 C39.2274782,11.1065181 38.963458,5.63711177 35.8572851,5.53795888 C32.7511122,5.43880599 29.2384391,4.26222207 28.8027625,6.56538976 C28.3670859,8.86855745 27.6774091,10.3165604 27.6774091,10.3165604 Z" id="Path" fill="#2F2E41"></path>
            <rect id="Rectangle" fill="#3F3D56" x="1.30945595" y="48.5693409" width="62.7450033" height="22.5281265"></rect>
            <path d="M23.6415771,66.8036234 C23.6346815,66.8049271 23.6278066,66.8062611 23.6209013,66.8075551 C23.4562055,66.8376315 23.2902475,66.8640417 23.1216918,66.882207 C23.0649495,66.8888786 23.0065469,66.8938886 22.9498045,66.8988903 C22.8914033,66.9039016 22.8346609,66.9089019 22.7762583,66.9122433 C22.6811394,66.9189149 22.5843491,66.9222549 22.4875588,66.9239249 C22.4458395,66.9255963 22.4024598,66.9255963 22.3607419,66.9255963 L22.3357058,66.9255963 C22.2839762,66.9255963 22.2322453,66.9255963 22.1805143,66.9239249 C22.135455,66.9222549 22.0904053,66.9205849 22.047016,66.9189149 C22.02198,66.9189149 21.9969453,66.917256 21.9735904,66.9155832 C19.0760334,66.7592673 16.5744237,64.83358 15.6820006,62.0724476 C14.7895775,59.3113152 15.690903,56.2857682 17.9488494,54.4631466 C20.2067958,52.640525 23.3543965,52.3977657 25.8651175,53.8526028 C23.7018304,55.1059165 22.3700026,57.4167188 22.3700026,59.9168401 C22.3700026,62.4169614 23.7018304,64.7277637 25.8651175,65.9810774 C25.17629,66.3801017 24.424255,66.6582993 23.6415771,66.8036234 Z" id="Path" fill="#AB6ACB"></path>
            <path d="M34.1838322,65.4020222 C34.4515148,65.6159873 34.7348873,65.8095486 35.0315594,65.9810732 C33.9673066,66.5997742 32.7582112,66.9255921 31.5271851,66.9255921 L31.4370707,66.9255921 C28.4991975,66.8918385 25.8941789,65.0293403 24.9119172,62.2603333 C23.9296555,59.4913263 24.7786498,56.4035714 27.0385114,54.5260031 C29.2983731,52.6484347 32.4894146,52.3795934 35.0315594,53.8525987 C33.0213596,55.0102465 31.7157612,57.089094 31.5459515,59.4025786 C31.3761419,61.7160632 32.3642083,63.9632657 34.1838308,65.4020222 L34.1838322,65.4020222 Z" id="Path" fill="#AB6ACB"></path>
            <path d="M47.7007084,59.9168408 C47.7007084,62.7516162 45.9930819,65.3072617 43.374091,66.3920837 C40.7551002,67.4769057 37.7405111,66.877267 35.7360219,64.8727783 C33.7315328,62.8682895 33.1318935,59.8537005 34.216715,57.2347095 C35.3015365,54.6157184 37.8571816,52.9080908 40.691957,52.9080908 C42.5508484,52.9079108 44.3336562,53.6462727 45.648091,54.9607072 C46.9625258,56.2751418 47.7008881,58.0579494 47.7007084,59.9168408 L47.7007084,59.9168408 Z" id="Path" fill="#AB6ACB"></path>
            <path d="M43.5288348,65.4237168 C43.529108,65.7409574 43.4972384,66.0574095 43.4337127,66.3682247 C41.6814137,67.1113813 39.7025018,67.1113813 37.9502027,66.3682247 C37.8866763,66.0574096 37.8548068,65.7409574 37.8550806,65.4237168 C37.8550806,63.7749903 38.694468,62.3815786 39.8509139,61.9160012 C38.8989445,61.5156172 38.3612006,60.4996456 38.5654255,59.4872992 C38.7696504,58.4749528 39.6592199,57.7469192 40.6919605,57.7469192 C41.7247011,57.7469192 42.6142706,58.4749528 42.8184955,59.4872992 C43.0227204,60.4996456 42.4849765,61.5156172 41.5330071,61.9160012 C42.6894461,62.3815786 43.5288348,63.7749903 43.5288348,65.4237168 Z" id="Path" fill="#FFFFFF"></path>
            <path d="M34.1838349,65.4020222 L34.1838349,65.4237168 C34.1604286,65.8170186 34.1046144,66.2077189 34.0169576,66.5918416 C33.2009353,66.9389451 32.3765727,66.9139091 31.4370651,66.9255972 L31.3469576,66.9255972 C30.4047907,66.926727 29.4721437,66.7371306 28.6052019,66.3682247 C28.5984409,66.3396332 28.593424,66.3106573 28.5901789,66.2814571 C28.5360623,65.99877 28.5092399,65.7115361 28.5100623,65.4237168 C28.5100623,63.7749903 29.3494685,62.3815786 30.505913,61.9160012 C29.5539636,61.5157256 29.01621,60.4998139 29.2204488,59.4875319 C29.4246877,58.4752499 30.3142802,57.7473208 31.3469603,57.7474574 C31.5167629,57.7469846 31.6859937,57.7671569 31.8509254,57.8075385 C30.9778716,60.5778711 31.9060904,63.5995667 34.1838349,65.4020222 L34.1838349,65.4020222 Z" id="Path" fill="#FFFFFF"></path>
            <path d="M25.1692432,65.5204961 C25.1655444,65.80534 25.1348135,66.0891898 25.0774615,66.3682247 C24.4539258,66.6335256 23.7950979,66.8066662 23.1216918,66.8822028 C23.0649495,66.8888745 23.0065469,66.8938844 22.9498045,66.8988861 C22.8914033,66.9038975 22.8346609,66.9088978 22.7762583,66.9122391 C22.6811394,66.9189108 22.5843491,66.9222508 22.4875588,66.9239208 C22.4675341,66.9255921 22.4458395,66.9255921 22.4258148,66.9255921 L22.3357058,66.9255921 C22.2839762,66.9255921 22.2322453,66.9255921 22.1805143,66.9239208 C22.135455,66.9222508 22.0904053,66.9205808 22.047016,66.9189108 C22.02198,66.9189108 21.9969453,66.9172519 21.9735904,66.9155791 C21.1542828,66.8750516 20.3486278,66.6897383 19.5939515,66.3682247 C19.5925818,66.3644905 19.5920128,66.36051 19.5922815,66.3565417 C19.5860771,66.3318572 19.5816151,66.3067672 19.5789285,66.2814571 C19.5248113,65.9987701 19.4979889,65.7115361 19.498812,65.4237168 C19.498812,63.7749903 20.3382168,62.3815786 21.4946627,61.9160012 C20.5427135,61.5157257 20.0049599,60.4998144 20.2091984,59.4875326 C20.4134369,58.4752508 21.3030287,57.7473215 22.3357086,57.747464 C22.4559385,57.7473096 22.5759648,57.7573577 22.6944951,57.7775021 C21.78325,60.6221522 22.7770812,63.7316522 25.1692432,65.5204961 L25.1692432,65.5204961 Z" id="Path" fill="#FFFFFF"></path>
        </g>
    </g>
</svg>