<?xml version="1.0" encoding="UTF-8"?>
<svg width="137px" height="137px" viewBox="0 0 137 137" version="1.1" xmlns="http://www.w3.org/2000/svg" xmlns:xlink="http://www.w3.org/1999/xlink">
    <title>customize_fields_illustrations</title>
    <g id="customize_fields_illustrations" stroke="none" stroke-width="1" fill="none" fill-rule="evenodd">
        <g id="undraw_buy_house_560d-(5)" transform="translate(-765.000000, 87.000000)"></g>
        <g id="undraw_text_field_htlv-(1)" transform="translate(0.000000, 33.000000)" fill-rule="nonzero">
            <path d="M127.661096,69.7678668 C127.484311,70.22483 127.26425,70.6638486 127.003917,71.0789332 C126.931427,71.1935514 126.855563,71.3064408 126.774681,71.4159565 L120.061205,71.4159565 C120.014059,71.3805691 119.968558,71.3434662 119.921327,71.3080855 C119.685428,71.2895728 119.45118,71.2659575 119.222021,71.2406976 C119.245636,71.220456 119.270889,71.2002161 119.294511,71.180057 C119.173145,71.1901778 119.051863,71.2002161 118.930499,71.2053169 C119.02652,71.2170824 119.12427,71.2289322 119.222024,71.2407044 C119.149534,71.2997003 119.075399,71.3586963 118.999619,71.4159565 L118.706368,71.4159565 L118.903513,71.2053169 C118.746851,71.2103369 118.591752,71.2137105 118.435088,71.2103369 L118.925482,71.0789332 L119.45455,70.9374103 C119.474791,70.9541958 119.496678,70.9710621 119.516919,70.9879301 C121.341539,69.3844007 122.437647,67.1093063 122.554536,64.6830168 C122.671425,62.2567273 121.799097,59.8868012 120.137073,58.1152989 C122.811742,59.9101596 124.654219,62.703327 125.251418,65.8685653 C125.40338,66.6345287 125.426157,67.4205148 125.318807,68.1939929 C125.377801,68.128334 125.436715,68.0625908 125.493983,67.995203 C127.222033,65.901861 127.928598,63.1479421 127.421823,60.4812181 C128.741954,63.4198275 128.828148,66.7651744 127.661096,69.7678668 Z" id="Path" fill="#E6E6E6"></path>
            <circle id="Oval" fill="#2F2E41" cx="94.1713785" cy="8.67551573" r="4.73209964"></circle>
            <polygon id="Path" fill="#FFB8B8" points="109.516924 69.4434969 107.45097 69.4433284 106.468042 61.4747478 109.517261 61.4749164"></polygon>
            <path d="M105.975253,68.8530505 L109.959521,68.8530505 L109.959521,71.3616654 L103.466643,71.3616654 L103.466643,71.3616654 C103.466643,70.6963399 103.73094,70.0582638 104.201396,69.5878071 C104.671852,69.1173504 105.309927,68.8530505 105.975253,68.8530505 L105.975253,68.8530505 Z" id="Path" fill="#2F2E41"></path>
            <polygon id="Path" fill="#FFB8B8" points="88.4425154 69.1730357 86.4478426 68.6351464 87.5729951 60.6854391 90.5168942 61.4792977"></polygon>
            <path d="M84.8247276,67.8299586 L88.809001,67.8299586 L88.809001,70.3385702 L82.3161228,70.3385702 L82.3161228,70.3385702 C82.3161228,68.9531045 83.439262,67.8299586 84.8247276,67.8299586 L84.8247276,67.8299586 Z" id="Path" fill="#2F2E41" transform="translate(85.562562, 69.084264) rotate(15.089560) translate(-85.562562, -69.084264) "></path>
            <path d="M92.3574075,32.5726178 L86.2056778,67.4324178 L89.3604103,68.0633643 L99.2978208,43.4564455 L106.711442,67.9056273 L110.497123,67.4324161 C110.497123,67.4324161 108.762018,32.4148808 103.241237,29.4178836 L92.3574075,32.5726178 Z" id="Path" fill="#2F2E41"></path>
            <path d="M82.6013544,45.0430369 C83.0503169,44.8196166 83.3772595,44.4088098 83.494209,43.9211554 C83.6111585,43.433501 83.5061018,42.9190919 83.2073072,42.5163441 L86.6000187,37.5413231 L83.4711847,37.4927647 L80.7290918,42.2245728 C80.0713316,42.783652 79.9356848,43.74634 80.4133492,44.4654052 C80.8910135,45.1844705 81.8310063,45.4326271 82.6013544,45.0430353 L82.6013544,45.0430369 Z" id="Path" fill="#FFB8B8"></path>
            <path d="M104.999958,38.8913089 C105.448922,38.6678903 105.775866,38.2570835 105.892816,37.7694285 C106.009766,37.2817735 105.904709,36.7673635 105.605912,36.3646161 L108.998624,31.3895933 L105.86979,31.341035 L103.127697,36.0728431 C102.469935,36.6319216 102.334287,37.5946104 102.811951,38.3136766 C103.289616,39.0327428 104.229609,39.2808998 104.999958,38.8913072 L104.999958,38.8913089 Z" id="Path" fill="#FFB8B8"></path>
            <circle id="Oval" fill="#FFB8B8" cx="94.2918542" cy="10.2056861" r="4.13882055"></circle>
            <path d="M103.241237,16.6412181 C103.0835,16.0102716 100.401983,16.1680087 100.401983,16.1680087 C100.401983,16.1680087 97.3824967,15.4738281 97.4110696,15.5606302 C94.866565,15.3647691 91.7626657,16.320045 91.3105977,16.4649195 C90.3857045,16.7200866 88.6185696,17.5006311 87.3441697,18.0747386 C86.9750003,18.2411248 86.8087741,18.6738431 86.9716055,19.0445941 L90.8589123,27.9193884 L91.4109903,33.6767772 L104.187659,29.7333611 C101.032923,28.4714647 103.398972,17.2721629 103.241237,16.6412181 Z" id="Path" fill="#AB6ACB"></path>
            <polygon id="Path" fill="#AB6ACB" points="102.137123 16.7989299 103.185771 16.5355461 108.919718 27.8404895 109.235172 34.3077995 105.607284 31.4685461 105.607284 28.9447466 101.821669 24.0548745"></polygon>
            <path d="M88.3351229,17.6665056 L87.1208917,18.2061625 C86.9925043,18.2632243 86.9009548,18.3804639 86.8767183,18.5188545 L84.4705753,32.2571454 L82.1045246,39.1975587 L85.2592572,40.7749241 L88.8872009,32.0994084 L90.1490939,25.7899416 L88.3351229,17.6665056 Z" id="Path" fill="#AB6ACB"></path>
            <path d="M89.9515106,8.25460724 C90.7915413,7.97878058 91.6776769,8.41119504 92.4982748,8.74037251 C93.3070079,9.06479121 94.1710785,9.29858095 95.0409477,9.24747472 C95.9108168,9.1963685 96.7905489,8.82900629 97.3164536,8.13422587 C97.8423584,7.43944545 97.9349067,6.39817636 97.4143336,5.69940053 C97.0716415,5.23938891 96.5248262,4.97692353 95.9772525,4.80601561 C94.8072877,4.44085079 93.4978642,4.42823937 92.385763,4.94340993 C91.2736617,5.45858048 90.4015884,6.54691151 90.3099636,7.76910823" id="Path" fill="#2F2E41"></path>
            <path d="M94.0453317,4.95785643 C93.7631741,3.04759617 94.8095525,1.06422544 96.2376924,0.352733715 C97.6658323,-0.358758007 99.3412867,0.0609591021 100.627845,1.12045947 C101.914403,2.17995984 102.852283,3.80809278 103.550334,5.53881226 C104.248386,7.26953175 104.731724,9.12326139 105.300485,10.9282625 C105.805617,12.531331 106.398588,14.1353685 107.357939,15.3614073 C108.317289,16.587446 109.712412,17.3852663 111.0492,17.0484013 C109.950956,18.5250187 107.930555,18.2693409 106.677129,17.0063189 C105.423704,15.7432969 104.772105,13.7691791 104.259192,11.8475595 C103.74628,9.92593984 103.299988,7.91531908 102.30776,6.32290387 C100.542568,3.48997642 97.0786331,2.63887445 94.6048697,4.43027499" id="Path" fill="#2F2E41"></path>
            <rect id="Rectangle" fill="#3F3D56" x="0" y="71.0789332" width="137" height="1"></rect>
            <path d="M71.8769742,38.7428383 L12.085011,38.7428383 C11.088147,38.7417508 10.2803003,37.9339041 10.2792128,36.9370401 L10.2792128,22.6913033 C10.2803013,21.6944399 11.0881477,20.8865943 12.085011,20.8855068 L71.8769742,20.8855068 C72.8738375,20.8865943 73.6816839,21.6944399 73.6827723,22.6913033 L73.6827723,36.9370401 C73.6816848,37.9339041 72.8738381,38.7417508 71.8769742,38.7428383 L71.8769742,38.7428383 Z M12.085011,21.2867938 C11.309711,21.2877325 10.6814402,21.9160032 10.6805015,22.6913033 L10.6805015,36.9370401 C10.6814402,37.7123402 11.309711,38.3406109 12.085011,38.3415497 L71.8769742,38.3415497 C72.6522742,38.3406109 73.280545,37.7123402 73.2814837,36.9370401 L73.2814837,22.6913033 C73.280545,21.9160032 72.6522742,21.2877325 71.8769742,21.2867938 L12.085011,21.2867938 Z" id="Shape" fill="#3F3D56"></path>
            <path d="M68.9676351,35.7331767 L14.9943534,35.7331767 C14.9225316,35.733384 14.8560763,35.695187 14.8201051,35.6330219 C14.784134,35.5708568 14.784134,35.4942062 14.8201051,35.4320411 C14.8560763,35.369876 14.9225316,35.331679 14.9943534,35.3318863 L68.9676351,35.3318863 C69.0394569,35.331679 69.1059123,35.369876 69.1418834,35.4320411 C69.1778545,35.4942062 69.1778545,35.5708568 69.1418834,35.6330219 C69.1059123,35.695187 69.0394569,35.733384 68.9676351,35.7331767 L68.9676351,35.7331767 Z" id="Path" fill="#E6E6E6"></path>
            <circle id="Oval" fill="#E6E6E6" cx="35.7610241" cy="44.9628068" r="1.605153"></circle>
            <circle id="Oval" fill="#AB6ACB" cx="41.9809926" cy="44.9628068" r="1.605153"></circle>
            <circle id="Oval" fill="#E6E6E6" cx="48.2009628" cy="44.9628068" r="1.605153"></circle>
            <path d="M15.6040453,29.933685 C15.8829447,29.9243512 16.1040453,29.7032507 16.1040453,29.433685 C16.1040453,29.1641194 15.8829447,28.9430189 15.6040453,28.933685 C15.3251458,28.9430189 15.1040453,29.1641194 15.1040453,29.433685 C15.1040453,29.7032507 15.3251458,29.9243512 15.6040453,29.933685 L15.6040453,29.933685 Z" id="Path" fill="#3F3D56"></path>
            <path d="M18.6040453,29.933685 C18.8829447,29.9243512 19.1040453,29.7032507 19.1040453,29.433685 C19.1040453,29.1641194 18.8829447,28.9430189 18.6040453,28.933685 C18.3251458,28.9430189 18.1040453,29.1641194 18.1040453,29.433685 C18.1040453,29.7032507 18.3251458,29.9243512 18.6040453,29.933685 L18.6040453,29.933685 Z" id="Path" fill="#3F3D56"></path>
            <path d="M21.6040453,29.933685 C21.8829447,29.9243512 22.1040453,29.7032507 22.1040453,29.433685 C22.1040453,29.1641194 21.8829447,28.9430189 21.6040453,28.933685 C21.3251458,28.9430189 21.1040453,29.1641194 21.1040453,29.433685 C21.1040453,29.7032507 21.3251458,29.9243512 21.6040453,29.933685 L21.6040453,29.933685 Z" id="Path" fill="#3F3D56"></path>
        </g>
    </g>
</svg>