<?xml version="1.0" encoding="UTF-8"?>
<svg width="140px" height="113px" viewBox="0 0 140 113" version="1.1" xmlns="http://www.w3.org/2000/svg" xmlns:xlink="http://www.w3.org/1999/xlink">
    <title>Enter a Donation from an Individual</title>
    <g id="Getting-Started-Page---End-User" stroke="none" stroke-width="1" fill="none" fill-rule="evenodd">
        <g id="Getting-Started-Tab---End-User-Dec-2020" transform="translate(-186.000000, -1965.000000)" fill-rule="nonzero">
            <g id="Enter-a-Donation-from-an-Individual" transform="translate(186.000000, 1965.000000)">
                <circle id="Oval" fill="#E6E6E6" cx="39.3971958" cy="59.1356373" r="15.8787167"></circle>
                <path d="M35.107091,82.3227837 L39.0130338,84.7431778 L39.0130338,68.3823449 L34.6349365,65.669372 C34.2729822,65.4450762 34.0084934,65.0929932 33.8938775,64.6828915 L33.8938775,64.6828915 C34.3121366,64.602995 34.7451452,64.6831329 35.1071041,64.9074257 L39.0130469,67.3278198 L39.0130469,60.9835655 C39.01305,59.7562434 39.1635705,58.5335538 39.461238,57.3428761 C39.7589098,58.533553 39.9094299,59.7562432 39.9094275,60.9835655 L39.9094275,71.338565 L45.6717965,67.7678152 C46.1319151,67.4826909 46.664287,67.3358173 47.2055137,67.3446852 C46.9725488,67.8332871 46.6040688,68.2446417 46.143951,68.5297664 L39.9094047,72.3930933 L39.9094047,111.085181 L39.0130289,111.085181 L39.0130289,85.7977144 L34.6349316,83.0847512 C34.2729786,82.8604559 34.0084904,82.5083743 33.8938775,82.098274 L33.8938775,82.098274 C34.3121272,82.0183748 34.7451308,82.0985038 35.107091,82.3227837 Z" id="Path" fill="#CCCCCC"></path>
                <circle id="Oval" fill="#E6E6E6" cx="15.8787167" cy="60.4838292" r="15.8787167"></circle>
                <path d="M20.1688313,83.6709755 L16.2628803,86.0913697 L16.2628803,69.7305368 L20.640976,67.0175671 C21.0029312,66.7932712 21.2674207,66.4411876 21.3820334,66.0310849 L21.3820334,66.0310849 C20.9637775,65.9511902 20.5307695,66.031328 20.16881,66.2556191 L16.262859,68.67601 L16.262859,62.3317524 C16.2628575,61.1044302 16.1123369,59.8817405 15.8146679,58.691063 C15.5169976,59.8817402 15.366478,61.1044302 15.36648,62.3317524 L15.36648,72.6867536 L9.60414049,69.116007 C9.14402068,68.8308829 8.61164768,68.6840099 8.07042007,68.6928786 C8.30338582,69.181481 8.67186695,69.5928357 9.131986,69.8779599 L15.3665062,73.741295 L15.3665062,111.170599 L16.2628803,111.170599 L16.2628803,87.1459078 L20.6409743,84.4329365 C21.0029292,84.2086433 21.2674189,83.8565618 21.3820334,83.4464609 L21.3820334,83.4464609 C20.9637856,83.3665687 20.530788,83.4466992 20.1688313,83.6709755 Z" id="Path" fill="#CCCCCC"></path>
                <circle id="Oval" fill="#E6E6E6" cx="27.413253" cy="27.3391314" r="27.3391314"></circle>
                <path d="M34.7997298,67.2615396 L28.0746901,71.4288429 L28.0746901,43.2596226 L35.6126593,38.5885839 C36.2358598,38.2024066 36.6912487,37.5962076 36.8886033,36.8901127 L36.8886033,36.8900996 L36.8886033,36.8900996 C36.1684588,36.7525431 35.4229336,36.8905195 34.7997347,37.2766891 L28.074695,41.4439893 L28.074695,30.5208005 C28.07469,28.407662 27.8155318,26.3024995 27.3030238,24.2524532 C26.7905118,26.3024986 26.5313552,28.4076618 26.5313575,30.5208005 L26.5313575,48.3494819 L16.6100215,42.2015477 C15.81781,41.7106413 14.9012012,41.4577617 13.9693454,41.4730217 C14.3704509,42.3142722 15.004883,43.0225201 15.7970936,43.5134278 L26.5313526,50.1651088 L26.5313526,111.230604 L28.0746901,111.230604 L28.0746901,73.244473 L35.6126625,68.5734327 C36.2358641,68.1872562 36.6912538,67.581057 36.8886033,66.8749615 L36.8886033,66.8749517 L36.8886033,66.8749517 C36.1684608,66.7373924 35.4229318,66.8753684 34.7997298,67.2615396 Z" id="Path" fill="#CCCCCC"></path>
                <rect id="Rectangle" fill="#3F3D56" x="10.9036835" y="111.085181" width="129.054842" height="1"></rect>
                <polygon id="Rectangle" fill="#FF6584" transform="translate(105.368296, 54.375700) rotate(-30.000000) translate(-105.368296, -54.375700) " points="101.67027 50.6776706 109.066323 50.6776706 109.066323 58.0737285 101.67027 58.0737285"></polygon>
                <path d="M106.803184,60.7622723 L102.941716,54.0740607 L109.629927,50.2126728 L113.491395,56.9009645 L106.803184,60.7622723 Z M103.388087,54.1937076 L106.922832,60.3158994 L113.045027,56.7813144 L109.510282,50.6590425 L103.388087,54.1937076 Z" id="Shape" fill="#2F2E41"></path>
                <circle id="Oval" fill="#D0CDE1" cx="100.811174" cy="75.6307935" r="3.10385064"></circle>
                <path d="M103.09822,78.8980063 C101.293789,78.8980063 99.8310089,77.435226 99.8310089,75.6307951 C99.8310089,73.8263642 101.293789,72.3635839 103.09822,72.3635839 C104.902651,72.3635839 106.365431,73.8263642 106.365431,75.6307951 C106.365431,77.435226 104.902651,78.8980063 103.09822,78.8980063 L103.09822,78.8980063 Z M103.09822,72.690305 C101.474232,72.690305 100.15773,74.0068073 100.15773,75.6307951 C100.15773,77.2547829 101.474232,78.5712852 103.09822,78.5712852 C104.722208,78.5712852 106.03871,77.2547829 106.03871,75.6307951 C106.03871,74.0068073 104.722208,72.690305 103.09822,72.690305 L103.09822,72.690305 Z" id="Shape" fill="#2F2E41"></path>
                <path d="M120.391871,111.82828 L90.3335281,111.82828 C89.5670115,111.827396 88.9458474,111.206232 88.9449634,110.439716 L88.9449634,82.5050597 C88.9458474,81.7385431 89.5670115,81.117379 90.3335281,81.116495 L120.391871,81.116495 C121.158388,81.117379 121.779552,81.7385431 121.780436,82.5050597 L121.780436,110.439716 C121.779552,111.206232 121.158388,111.827396 120.391871,111.82828 Z" id="Path" fill="#FF9E2D"></path>
                <path d="M107.486148,112.809082 L103.238774,112.809082 C102.472257,112.808199 101.851092,112.187035 101.850209,111.420518 L101.850209,81.6751734 C101.851092,80.9086564 102.472257,80.2874918 103.238774,80.2866086 L107.486148,80.2866086 C108.252665,80.2874927 108.873829,80.9086567 108.874713,81.6751734 L108.874713,111.420518 C108.873829,112.187034 108.252665,112.808198 107.486148,112.809082 L107.486148,112.809082 Z" id="Path" fill="#3F3D56"></path>
                <path d="M128.378007,78.3512499 C128.202394,81.2329923 124.309708,83.3405673 124.309708,83.3405673 C124.309708,83.3405673 120.701727,80.7759144 120.87734,77.894172 C121.052952,75.0124296 124.94564,72.9048546 124.94564,72.9048546 C124.94564,72.9048546 128.553613,75.4695076 128.378007,78.3512499 Z" id="Path" fill="#3F3D56"></path>
                <path d="M128.554316,87.3424632 C125.672034,87.1758518 123.552315,83.2897573 123.552315,83.2897573 C123.552315,83.2897573 126.105701,79.6737893 128.987974,79.8403991 C131.870247,80.0070089 133.989975,83.8931067 133.989975,83.8931067 C133.989975,83.8931067 131.436592,87.509073 128.554316,87.3424632 Z" id="Path" fill="#3F3D56"></path>
                <polygon id="Path" fill="#000000" opacity="0.1" points="121.698716 84.5340257 121.698716 95.198203 111.091715 81.198203 119.171529 81.198203"></polygon>
                <path d="M130.703528,102.788733 C130.268334,102.789644 129.857953,102.58621 129.59518,102.239303 L107.496677,73.0727419 C107.274272,72.7792132 107.17758,72.4093566 107.227872,72.0445364 C107.278164,71.6797162 107.471321,71.3498165 107.76485,71.1274117 L111.020096,68.6610495 C111.313616,68.4386213 111.683485,68.3419301 112.048307,68.3922546 C112.413129,68.4425791 112.743008,68.6357954 112.965347,68.9293823 L135.063852,98.0957897 C135.286257,98.3893184 135.382949,98.759175 135.332656,99.1239952 C135.282364,99.4888155 135.089208,99.8187151 134.795679,100.04112 L131.540432,102.507476 C131.299756,102.69028 131.005757,102.789084 130.703528,102.788733 L130.703528,102.788733 Z" id="Path" fill="#FF9E2D"></path>
                <polygon id="Rectangle" fill="#3F3D56" transform="translate(121.179614, 85.045679) rotate(-37.150040) translate(-121.179614, -85.045679) " points="117.667362 81.5334265 124.691866 81.5334265 124.691866 88.5579305 117.667362 88.5579305"></polygon>
                <polygon id="Rectangle" fill="#D0CDE1" transform="translate(95.671062, 63.318273) rotate(-75.000000) translate(-95.671062, -63.318273) " points="91.9730336 59.6202465 99.3690914 59.6202465 99.3690914 67.0162994 91.9730336 67.0162994"></polygon>
                <path d="M95.2553188,68.9154623 L87.7957708,66.9166887 L89.7945445,59.4569823 L97.2540924,61.4557559 L95.2553188,68.9154623 Z M88.1958768,66.685687 L95.0243155,68.515358 L96.8539865,61.6867575 L90.0255461,59.8570882 L88.1958768,66.685687 Z" id="Shape" fill="#2F2E41"></path>
                <path d="M63.8329853,86.2542728 C64.2303524,85.8736033 64.4386979,85.336477 64.4019606,84.787423 C64.3652233,84.238369 64.0871768,83.7337873 63.6426376,83.4094499 L60.6427169,59.227147 L56.7667655,60.3795937 L60.9512086,83.9130922 C60.4447172,84.71358 60.6169939,85.7663835 61.3522137,86.3636825 C62.0874335,86.9609816 63.1532033,86.9139778 63.8329853,86.2542728 Z" id="Path" fill="#FFB8B8"></path>
                <polygon id="Path" fill="#FFB8B8" points="67.4257643 109.368098 69.6927188 109.368098 70.7717153 100.624224 67.4257643 100.624224"></polygon>
                <path d="M66.9400525,108.720444 L74.0647554,108.720444 L74.0647554,111.47317 L69.4409589,111.47317 C68.0597465,111.47317 66.9400525,110.353476 66.9400525,108.972264 L66.9400525,108.720444 L66.9400525,108.720444 Z" id="Path" fill="#2F2E41" transform="translate(70.502404, 110.096807) rotate(-180.000000) translate(-70.502404, -110.096807) "></path>
                <polygon id="Path" fill="#FFB8B8" points="51.7491949 105.837223 53.8740257 106.627561 57.9335356 98.8083081 54.7976663 97.6417503"></polygon>
                <path d="M50.8164293,106.216352 L57.9411322,106.216352 L57.9411322,108.969077 L53.3173357,108.969077 C51.9361233,108.969077 50.8164293,107.849384 50.8164293,106.468171 L50.8164293,106.216352 L50.8164293,106.216352 Z" id="Path" fill="#2F2E41" transform="translate(54.378781, 107.592715) rotate(-159.596430) translate(-54.378781, -107.592715) "></path>
                <circle id="Oval" fill="#FFB8B8" cx="63.3590861" cy="48.6631407" r="4.28638506"></circle>
                <path d="M56.6546266,59.6641365 C56.5204063,55.7160091 60.6698658,52.9770651 64.1610623,54.8256369 C64.6058719,55.061162 69.1987099,58.9631711 69.371797,61.3863767 C69.544884,63.8095823 69.8910548,67.7905615 69.8910548,67.7905615 L74.737466,103.965554 L64.3523085,103.446296 L65.6065011,92.8934959 L58.8561438,103.624832 L50.6785069,101.02309 L60.7175034,72.1177132 C60.7175034,72.1177132 56.8580317,65.6473722 56.6546266,59.6641365 Z" id="Path" fill="#2F2E41"></path>
                <path d="M56.7363804,61.038618 L57.4032509,69.7079375 C57.4176949,69.895696 57.5742605,70.04068 57.7625739,70.04068 L60.6968056,70.04068 C60.8172312,70.04068 60.9296987,69.9805289 60.9965535,69.8803653 C61.0634083,69.7802017 61.0758145,69.6532639 61.0296184,69.5420513 L57.4285162,60.8727335 C57.3605883,60.7091976 57.183913,60.6192439 57.0117074,60.6605165 C56.8395018,60.7017891 56.7227973,60.8620572 56.7363804,61.038618 Z" id="Path" fill="#2F2E41"></path>
                <path d="M71.8048842,84.75213 C72.1549726,84.327573 72.2990275,83.7697544 72.1982867,83.2287722 C72.0975459,82.68779 71.7623577,82.2192153 71.2829146,81.9491323 L65.4735599,58.2840845 L61.7591132,59.8822163 L68.6689169,82.7642933 C68.2595933,83.6185557 68.5538996,84.643959 69.3539687,85.1511072 C70.1540379,85.6582554 71.20698,85.4868466 71.8048842,84.7521218 L71.8048842,84.75213 Z" id="Path" fill="#FFB8B8"></path>
                <path d="M62.2752672,56.193793 C62.2752672,56.193793 61.0636644,58.6169986 62.2752672,62.9441503 C63.48687,67.271302 64.3523085,70.9061104 64.3523085,70.9061104 C64.3523085,70.9061104 67.1216849,69.1752497 68.3332877,69.6945076 C69.5448905,70.2137655 66.4166959,58.159473 66.4166959,58.159473 C66.4166959,58.159473 64.5253858,54.1167615 62.2752672,56.193793 Z" id="Path" fill="#2F2E41"></path>
                <path d="M64.3648954,49.3319895 C64.4227937,48.4425827 65.5448586,48.4121062 66.4361097,48.4036849 C67.3273608,48.3952637 68.3929013,48.4270798 68.8972019,47.6921795 C69.2304737,47.2065085 69.1668138,46.5322672 68.8914842,46.0115603 C68.6161547,45.4908534 68.163267,45.0903701 67.7177239,44.7050973 C66.5674385,43.7104226 65.381926,42.7236383 64.0009118,42.0869797 C62.6198975,41.4503211 61.0015384,41.1930707 59.5692877,41.7041442 C57.8098814,42.3319519 55.431484,45.5636812 55.2261022,47.4204177 C55.0207204,49.2771543 55.7627515,51.1699543 57.0135755,52.557431 C58.2643995,53.9449078 61.1273015,53.3850973 62.9289741,53.8786912 C61.8336579,52.3284583 62.5556299,49.5116436 64.3103069,48.7877228 L64.3648954,49.3319895 Z" id="Path" fill="#2F2E41"></path>
            </g>
        </g>
    </g>
</svg>