<?xml version="1.0" encoding="UTF-8"?>
<svg width="140px" height="71px" viewBox="0 0 140 71" version="1.1" xmlns="http://www.w3.org/2000/svg" xmlns:xlink="http://www.w3.org/1999/xlink">
    <title>Enter a Donation from an Organization</title>
    <g id="Getting-Started-Page---End-User" stroke="none" stroke-width="1" fill="none" fill-rule="evenodd">
        <g id="Getting-Started-Tab---End-User-Dec-2020" transform="translate(-186.000000, -2184.000000)" fill-rule="nonzero">
            <g id="Enter-a-Donation-from-an-Organization" transform="translate(186.000000, 2184.000000)">
                <rect id="Rectangle" fill="#3F3D56" x="0.00335524476" y="67.6959147" width="41.8181818" height="1"></rect>
                <path d="M4.53953287,68.1066727 L4.46,67.9317455 C4.44257622,67.8932517 2.72606294,64.0444993 3.83993846,60.3236126 C4.95387133,56.6025538 8.50284056,54.3301734 8.5384965,54.3077147 L8.7010951,54.2051972 L8.78057063,54.3800657 C8.79799441,54.4185594 10.514449,58.2672545 9.40063217,61.9881986 C8.2866979,65.7092587 4.73773007,67.9816378 4.70207273,68.0040965 L4.53953287,68.1066727 Z M4.1611986,60.4198196 C3.21935664,63.5657958 4.37056923,66.8124322 4.68852867,67.608751 C5.3915958,67.1175427 8.13851329,65.0350252 9.07937203,61.8920014 C10.0201133,58.7493259 8.86965455,55.5002 8.55204196,54.7030699 C7.84856923,55.1945664 5.1019986,57.2769678 4.1611986,60.4198168 L4.1611986,60.4198196 Z" id="Shape" fill="#3F3D56"></path>
                <path d="M5.56554965,60.5903622 C6.49875245,64.3423049 4.60155524,68.0438993 4.60155524,68.0438993 C4.60155524,68.0438993 1.19133706,65.662393 0.258134266,61.9104517 C-0.675068531,58.1585105 1.22212727,54.4569147 1.22212727,54.4569147 C1.22212727,54.4569147 4.63234545,56.838421 5.56554965,60.5903622 Z" id="Path" fill="#FF9E2D"></path>
                <path d="M126.97888,56.0839161 L44.4613972,56.0839161 C43.9981511,56.0839161 43.6222364,55.7080014 43.6222364,55.2447552 L43.6222364,4.47552448 C43.6222364,4.01227867 43.9981514,3.63636364 44.4613972,3.63636364 L126.97888,3.63636364 C127.442126,3.63636364 127.818041,4.01227867 127.818041,4.47552448 L127.818041,55.2447552 C127.818041,55.7080014 127.442126,56.0839161 126.97888,56.0839161 L126.97888,56.0839161 Z M44.4613972,3.91608392 C44.152573,3.91608392 43.9019566,4.16670032 43.9019566,4.47552448 L43.9019566,55.2447552 C43.9019566,55.5535896 44.1525628,55.8041958 44.4613972,55.8041958 L126.97888,55.8041958 C127.287722,55.8041958 127.53832,55.5535979 127.53832,55.2447552 L127.53832,4.47552448 C127.53832,4.16669075 127.287713,3.91608392 126.97888,3.91608392 L44.4613972,3.91608392 Z" id="Shape" fill="#3F3D56"></path>
                <path d="M127.391467,-8.78755312e-06 L44.0488098,-8.78755312e-06 C43.66067,-0.00192039941 43.3444578,0.311160984 43.3425161,0.699300699 L43.3425161,5.45454545 L128.097761,5.45454545 L128.097761,0.699300699 C128.095819,0.311160984 127.779607,-0.00192039941 127.391467,-8.78755312e-06 Z" id="Path" fill="#FF9E2D"></path>
                <circle id="Oval" fill="#D0CDE1" cx="117.91461" cy="2.65734266" r="1"></circle>
                <circle id="Oval" fill="#D0CDE1" cx="120.685173" cy="2.65734266" r="1"></circle>
                <circle id="Oval" fill="#D0CDE1" cx="123.455736" cy="2.65734266" r="1"></circle>
                <path d="M87.9579007,41.6783217 L49.0767818,41.6783217 L49.0767818,13.1468531 L87.9579007,13.1468531 L87.9579007,41.6783217 Z M49.3565021,41.3986014 L87.6781804,41.3986014 L87.6781804,13.4265734 L49.3565021,13.4265734 L49.3565021,41.3986014 Z" id="Shape" fill="#3F3D56"></path>
                <rect id="Rectangle" fill="#3F3D56" x="97.0488098" y="20" width="8.95104895" height="1.53846154"></rect>
                <rect id="Rectangle" fill="#3F3D56" x="104.461397" y="34.5454545" width="8.95104895" height="1.53846154"></rect>
                <rect id="Rectangle" fill="#3F3D56" x="97.0488098" y="24.4755245" width="25.1748252" height="1.53846154"></rect>
                <rect id="Rectangle" fill="#3F3D56" x="97.0488098" y="26.993007" width="25.1748252" height="1.53846154"></rect>
                <rect id="Rectangle" fill="#3F3D56" x="97.0488098" y="29.5104895" width="25.1748252" height="1.53846154"></rect>
                <path d="M121.588119,50.4225678 C122.32045,49.7840503 123.501892,49.1812224 124.454083,48.8282364 C123.501892,48.4749231 122.32045,47.8720965 121.588119,47.233579 L122.104274,48.6605846 L119.426432,48.6605846 L119.426432,48.9958895 L122.104264,48.9958895 L121.588119,50.4225678 Z" id="Path" fill="#3F3D56"></path>
                <rect id="Rectangle" fill="#3F3D56" x="31.5592993" y="55.8041958" width="108.321678" height="1"></rect>
                <rect id="Rectangle" fill="#FF9E2D" x="60.4434126" y="21.3722755" width="16.7072979" height="15.6213231"></rect>
                <rect id="Rectangle" fill="#3F3D56" x="67.0427944" y="20.954593" width="3.50853287" height="16.5402252"></rect>
                <path d="M68.2941007,17.8258587 C69.4144266,18.7873566 69.0713245,21.0248098 69.0713245,21.0248098 C69.0713245,21.0248098 66.9118154,21.7033664 65.7914895,20.7418727 C64.6711636,19.780379 65.0142671,17.5429203 65.0142671,17.5429203 C65.0142671,17.5429203 67.1737762,16.8643594 68.2941007,17.8258587 Z" id="Path" fill="#3F3D56"></path>
                <path d="M72.0132322,20.5306112 C71.055235,21.6539329 68.8167217,21.3178168 68.8167217,21.3178168 C68.8167217,21.3178168 68.1314266,19.1604364 69.0894238,18.0371175 C70.047421,16.9137986 72.2859343,17.2499119 72.2859343,17.2499119 C72.2859343,17.2499119 72.971228,19.4072895 72.0132322,20.5306112 Z" id="Path" fill="#3F3D56"></path>
                <polygon id="Path" fill="#FFB8B8" points="14.3215385 64.4055944 14.4613986 65.6643357 13.2026573 65.5244755 13.2026573 63.986014"></polygon>
                <polygon id="Path" fill="#FFB8B8" points="27.4683916 64.4055944 27.3285315 65.6643357 28.5872727 65.5244755 28.5872727 63.986014"></polygon>
                <path d="M14.1816769,37.2727273 L13.6222364,51.6783217 C13.6222364,51.6783217 11.8040545,62.4475524 12.223635,62.7272727 C12.6432154,63.006993 12.223635,64.5454545 12.223635,64.5454545 L14.6012573,64.8251748 C14.6012573,64.8251748 14.6012573,63.7062937 15.1606979,63.2867133 C15.7201385,62.8671329 20.8949636,43.1468531 20.8949636,43.1468531 L26.209649,62.1678322 C26.209649,62.1678322 26.0697888,63.2867133 26.4893692,63.2867133 C26.9089497,63.2867133 27.0488098,64.8251748 27.0488098,64.8251748 L29.4264322,64.8251748 L29.4264322,63.2867133 C29.4264322,63.2867133 30.1257329,63.1468531 29.7061524,62.027972 C29.286572,60.9090909 27.7481105,37.2727273 27.7481105,37.2727273 L14.1816769,37.2727273 Z" id="Path" fill="#2F2E41"></path>
                <path d="M13.4823762,64.4055944 C13.4823762,64.4055944 12.7830755,63.986014 12.5033552,64.2657343 C12.223635,64.5454545 9.98587273,67.3426573 9.98587273,67.3426573 C9.98587273,67.3426573 6.90894965,69.3006993 9.70615245,69.8601399 C12.5033552,70.4195804 14.6012573,67.7622378 14.7411175,67.4825175 C14.8809776,67.2027972 14.6012573,64.965035 14.4613972,65.2447552 C14.3215371,65.5244755 13.9019566,65.3846154 13.7620965,65.2447552 C13.6222364,65.1048951 13.4823762,64.4055944 13.4823762,64.4055944 Z" id="Path" fill="#2F2E41"></path>
                <path d="M28.307551,64.4055944 C28.307551,64.4055944 29.0068517,63.986014 29.286572,64.2657343 C29.5662923,64.5454545 31.8040545,67.3426573 31.8040545,67.3426573 C31.8040545,67.3426573 34.8809776,69.3006993 32.0837748,69.8601399 C29.286572,70.4195804 27.1886699,67.7622378 27.0488098,67.4825175 C26.9089497,67.2027972 27.1886699,64.965035 27.3285301,65.2447552 C27.4683902,65.5244755 27.8879706,65.3846154 28.0278308,65.2447552 C28.1676909,65.1048951 28.307551,64.4055944 28.307551,64.4055944 Z" id="Path" fill="#2F2E41"></path>
                <circle id="Oval" fill="#FFB8B8" cx="22.6432154" cy="13.7062937" r="2.86713287"></circle>
                <polygon id="Path" fill="#FFB8B8" points="20.7551049 15.3146853 20.3355245 19.6503497 23.6921678 20.3496503 24.5313287 15.1748252"></polygon>
                <path d="M24.251607,18.6713287 C24.251607,18.6713287 23.4124462,20.4895105 20.3355231,18.5314685 L14.6012573,37.2727273 C14.6012573,37.2727273 22.293565,41.8881119 27.1886699,38.3916084 L25.5103483,19.5104895 L24.251607,18.6713287 Z" id="Path" fill="#575A89"></path>
                <path d="M20.8949636,16.5734266 L18.237621,16.1538462 L17.9579007,17.972028 C17.9579007,17.972028 14.3215371,18.3916084 13.9019566,19.7902098 L14.3215371,30.1398601 C14.3215371,30.1398601 13.0627958,32.3776224 14.1816769,33.7762238 C14.1816769,33.7762238 12.3634951,37.5524476 13.7620965,38.2517483 C13.7620965,38.2517483 16.9788797,36.7132867 18.9369217,37.1328671 C18.9369217,37.1328671 20.0558028,36.8531469 20.0558028,36.013986 C20.0558028,35.1748252 20.8949636,16.5734266 20.8949636,16.5734266 Z" id="Path" fill="#2F2E41"></path>
                <path d="M24.1117469,16.8531469 L25.6502084,17.2727273 L25.7900685,19.2307692 C25.7900685,19.2307692 29.5662923,21.6083916 29.7061524,23.006993 C29.8460126,24.4055944 26.9089497,31.1188811 26.9089497,31.1188811 C26.9089497,31.1188811 28.0278308,33.0769231 27.6082503,34.3356643 C27.6082503,34.3356643 29.4264322,37.972028 28.307551,38.951049 C28.307551,38.951049 26.209649,39.5104895 25.9299287,38.6713287 C25.6502084,37.8321678 23.1327259,28.1818182 24.251607,23.5664336 C24.251607,23.5664336 23.1327259,17.6923077 24.1117469,16.8531469 Z" id="Path" fill="#2F2E41"></path>
                <path d="M25.7201385,21.4079301 L25.6674965,21.4079301 L25.6674965,19.9658168 C25.6674965,19.7444518 25.5795594,19.5321533 25.4230304,19.3756249 C25.2665015,19.2190965 25.0542028,19.1311608 24.8328378,19.1311608 L21.7775273,19.1311608 C21.5561623,19.1311608 21.3438635,19.2190965 21.1873346,19.3756249 C21.0308056,19.5321533 20.9428685,19.7444518 20.9428685,19.9658168 L20.9428685,27.8773636 C20.9428685,28.0987289 21.0308051,28.3110277 21.1873341,28.4675564 C21.3438631,28.6240851 21.556162,28.712021 21.7775273,28.712021 L24.8328378,28.712021 C25.054203,28.712021 25.2665019,28.6240851 25.4230309,28.4675564 C25.5795599,28.3110277 25.6674969,28.0987289 25.6674965,27.8773636 L25.6674965,22.4344517 L25.7201385,22.4344517 L25.7201385,21.4079301 Z" id="Path" fill="#3F3D56"></path>
                <path d="M27.0488098,27.0629371 C27.0488098,27.0629371 25.9299287,23.4265734 24.251607,24.5454545 C22.5732853,25.6643357 25.3704881,28.7412587 25.3704881,28.7412587 L27.0488098,27.0629371 Z" id="Path" fill="#FFB8B8"></path>
                <path d="M19.3565021,24.4055944 C19.3565021,24.4055944 21.3145441,22.027972 22.293565,23.1468531 C23.272586,24.2657343 20.6152434,26.7832168 20.6152434,26.7832168 L19.3565021,24.4055944 Z" id="Path" fill="#FFB8B8"></path>
                <path d="M14.3215371,19.6503497 C14.3215371,19.6503497 13.6222364,19.5104895 13.2026559,20.7692308 C12.7830755,22.027972 11.244614,26.7832168 11.244614,27.6223776 C11.244614,28.4615385 11.8040545,31.8181818 14.8809776,31.2587413 C17.9579007,30.6993007 21.5942643,26.7832168 21.5942643,26.7832168 L19.6362224,23.8461538 L15.4404182,26.3636364 L14.3215371,19.6503497 Z" id="Path" fill="#2F2E41"></path>
                <polygon id="Path" fill="#000000" opacity="0.1" points="14.9258741 23.2762238 15.5103497 26.2937063 19.846014 23.7762238 15.7900699 25.3146853 14.8958042 23.0962238"></polygon>
                <polygon id="Path" fill="#000000" opacity="0.1" points="27.2586014 26.2937063 27.818042 26.7132867 28.0977622 24.7552448"></polygon>
                <path d="M14.251607,31.6083916 C14.251607,31.6083916 18.3596825,30.4908112 20.2916587,28.0426084 C20.2916587,28.0426084 18.307551,31.3286713 14.251607,31.6083916 Z" id="Path" fill="#000000" opacity="0.1"></path>
                <path d="M24.6012573,29.0909091 C24.6012573,29.0909091 25.4663049,33.3244909 27.6911245,33.4454629 C27.6911245,33.4454629 25.0208378,34.2657343 24.6012573,29.0909091 Z" id="Path" fill="#000000" opacity="0.1"></path>
                <path d="M29.1467119,22.4475524 C29.1467119,22.4475524 29.5662923,22.7272727 29.8460126,23.986014 C30.1257329,25.2447552 31.9439147,30 31.244614,31.1188811 C30.5453133,32.2377622 29.4264322,34.7552448 27.0488098,33.0769231 L24.6711874,28.7412587 L27.0488098,26.5034965 L28.0278308,27.2027972 L29.1467119,22.4475524 Z" id="Path" fill="#2F2E41"></path>
                <path d="M19.8907678,14.4334657 C19.8907678,14.4334657 17.486172,10.5363538 20.0473958,10.3336615 C20.902106,10.2738807 21.7366955,10.0464733 22.5035888,9.6644028 C23.3525748,9.23238601 24.421249,8.90400979 24.9899399,9.56904615 C25.2381141,9.87314172 25.5274454,10.1411784 25.8495902,10.3654266 C26.3491441,10.6967245 26.9271483,11.233793 26.6070839,11.8099021 L26.082372,12.7543776 L25.3477706,14.6433399 C25.5188406,13.828579 25.5231427,13.1444881 25.085414,12.8068476 C25.085414,12.8068476 22.6432224,13.8461483 21.4124462,11.9673091 C20.0346671,10.9335762 19.5963231,14.1873343 19.8907678,14.4334657 Z" id="Path" fill="#2F2E41"></path>
                <circle id="Oval" fill="#FF9E2D" cx="23.3425161" cy="21.958042" r="1"></circle>
            </g>
        </g>
    </g>
</svg>