<?xml version="1.0" encoding="UTF-8"?>
<svg width="137px" height="137px" viewBox="0 0 137 137" version="1.1" xmlns="http://www.w3.org/2000/svg" xmlns:xlink="http://www.w3.org/1999/xlink">
    <title>managing_change_illustration_2</title>
    <g id="managing_change_illustration_2" stroke="none" stroke-width="1" fill="none" fill-rule="evenodd">
        <g id="undraw_buy_house_560d-(5)" transform="translate(-765.000000, 87.000000)"></g>
        <g id="undraw_online_organizer_ofxm" transform="translate(0.000000, 27.000000)" fill-rule="nonzero">
            <path d="M37.575495,82.0921273 L34.0172195,72.1289527 C34.0172195,72.1289527 37.931323,74.0860044 38.1092376,76.5767974 C38.1092376,76.5767974 37.2196684,64.1228258 35.44053,61.4541236 C35.44053,61.4541236 38.2871509,61.8099515 41.4895998,75.6872282 C41.4895998,75.6872282 42.023341,59.6749852 37.2196684,55.0492258 C37.2196684,55.0492258 43.8024795,60.3866411 44.3362207,71.9510381 L44.3362207,82.0921273 L37.575495,82.0921273 Z" id="Path" fill="#F2F2F2"></path>
            <path d="M104.306734,82.0921326 L103.451181,79.6965789 C103.451181,79.6965789 104.392289,80.1671322 104.435066,80.7660197 C104.435066,80.7660197 104.221179,77.7715851 103.793403,77.1299215 C103.793403,77.1299215 104.477844,77.2154793 105.247842,80.5521318 C105.247842,80.5521318 105.376174,76.7021443 104.221179,75.5899273 C104.221179,75.5899273 105.80395,76.873256 105.932283,79.6538013 L105.932283,82.0921326 L104.306734,82.0921326 Z" id="Path" fill="#F2F2F2"></path>
            <circle id="Oval" fill="#F2F2F2" cx="88.4566933" cy="45.8464563" r="15.6417319"></circle>
            <rect id="Rectangle" fill="#F2F2F2" x="0" y="1.18661475" width="36.892914" height="20.4960636"></rect>
            <rect id="Rectangle" fill="#F2F2F2" x="50.0535437" y="1.18661475" width="36.892914" height="20.4960636"></rect>
            <rect id="Rectangle" fill="#F2F2F2" x="100.107086" y="1.18661475" width="36.892914" height="20.4960636"></rect>
            <path d="M94.8370613,82.1483805 C94.812306,82.1079279 94.2285852,81.1332696 94.0262161,79.1093673 C93.8405945,77.2525432 93.9599537,74.1227218 95.5831203,69.7568796 C98.6581619,61.4860822 94.8744596,54.8127464 94.8357988,54.7462732 L95.022472,54.6379787 C95.0322689,54.6548337 96.0086128,56.3562716 96.5853801,59.0655541 C97.3474708,62.6574901 97.0699649,66.3922362 95.7853847,69.8320967 C92.715611,78.0887777 94.9978201,81.99742 95.0212068,82.0359761 L94.8370613,82.1483805 Z" id="Path" fill="#3F3D56"></path>
            <circle id="Oval" fill="#AB6ACB" cx="93.6346459" cy="52.8582681" r="1.40236155"></circle>
            <circle id="Oval" fill="#3F3D56" cx="98.05748" cy="58.0362207" r="1.40236155"></circle>
            <circle id="Oval" fill="#AB6ACB" cx="95.0370075" cy="61.4881896" r="1.40236155"></circle>
            <circle id="Oval" fill="#AB6ACB" cx="98.7047244" cy="64.4007867" r="1.40236155"></circle>
            <circle id="Oval" fill="#3F3D56" cx="93.9582681" cy="68.9314963" r="1.40236155"></circle>
            <path d="M95.6842519,82.2 C95.6842519,82.2 94.2818903,78.7480311 98.4889763,76.1590548 L95.6842519,82.2 Z" id="Path" fill="#3F3D56"></path>
            <path d="M93.9595696,82.1373829 C93.9595696,82.1373829 93.3213417,78.4665015 88.3815663,78.4979632 L93.9595696,82.1373829 Z" id="Path" fill="#3F3D56"></path>
            <rect id="Rectangle" fill="#3F3D56" x="0.0539363627" y="0" width="36.7850399" height="1.83385782"></rect>
            <rect id="Rectangle" fill="#3F3D56" x="50.10748" y="0" width="36.892914" height="1.83385782"></rect>
            <rect id="Rectangle" fill="#3F3D56" x="100.161024" y="0" width="36.7850399" height="1.83385782"></rect>
            <rect id="Rectangle" fill="#FFFFFF" x="2.80472444" y="4.69251997" width="6.68818957" height="4.74645633"></rect>
            <rect id="Rectangle" fill="#FFFFFF" x="15.6417319" y="4.69251997" width="18.4464563" height="1"></rect>
            <rect id="Rectangle" fill="#FFFFFF" x="15.6417319" y="6.85" width="18.4464563" height="1"></rect>
            <rect id="Rectangle" fill="#FFFFFF" x="15.6417319" y="9.00748003" width="18.4464563" height="1"></rect>
            <rect id="Rectangle" fill="#FFFFFF" x="52.8582681" y="4.69251997" width="6.68818957" height="4.74645633"></rect>
            <rect id="Rectangle" fill="#FFFFFF" x="65.6952756" y="4.69251997" width="18.4464563" height="1"></rect>
            <rect id="Rectangle" fill="#FFFFFF" x="65.6952756" y="6.85" width="18.4464563" height="1"></rect>
            <rect id="Rectangle" fill="#FFFFFF" x="65.6952756" y="9.00748003" width="18.4464563" height="1"></rect>
            <rect id="Rectangle" fill="#FFFFFF" x="102.91181" y="4.69251997" width="6.68818957" height="4.74645633"></rect>
            <circle id="Oval" fill="#AB6ACB" cx="6.14881923" cy="7.1196845" r="2.15748003"></circle>
            <circle id="Oval" fill="#AB6ACB" cx="106.255905" cy="7.1196845" r="2.15748003"></circle>
            <rect id="Rectangle" fill="#3F3D56" x="17.0194442" y="21.682677" width="1" height="1"></rect>
            <path d="M18.0194442,48.2196845 L17.0194442,48.2196845 L17.0194442,46.925197 L18.0194442,46.925197 L18.0194442,48.2196845 Z M18.0194442,45.6307082 L17.0194442,45.6307082 L17.0194442,44.3362207 L18.0194442,44.3362207 L18.0194442,45.6307082 Z M18.0194442,43.0417319 L17.0194442,43.0417319 L17.0194442,41.7472444 L18.0194442,41.7472444 L18.0194442,43.0417319 Z M18.0194442,40.4527556 L17.0194442,40.4527556 L17.0194442,39.1582681 L18.0194442,39.1582681 L18.0194442,40.4527556 Z M18.0194442,37.8637793 L17.0194442,37.8637793 L17.0194442,36.5692918 L18.0194442,36.5692918 L18.0194442,37.8637793 Z M18.0194442,35.274803 L17.0194442,35.274803 L17.0194442,33.9803155 L18.0194442,33.9803155 L18.0194442,35.274803 Z M18.0194442,32.6858267 L17.0194442,32.6858267 L17.0194442,31.3913392 L18.0194442,31.3913392 L18.0194442,32.6858267 Z M18.0194442,30.0968504 L17.0194442,30.0968504 L17.0194442,28.8023615 L18.0194442,28.8023615 L18.0194442,30.0968504 Z M18.0194442,27.5078741 L17.0194442,27.5078741 L17.0194442,26.2133852 L18.0194442,26.2133852 L18.0194442,27.5078741 Z M18.0194442,24.9188978 L17.0194442,24.9188978 L17.0194442,23.6244089 L18.0194442,23.6244089 L18.0194442,24.9188978 Z" id="Shape" fill="#3F3D56"></path>
            <polygon id="Path" fill="#3F3D56" points="17.7745412 50.2693294 17.0194294 50.2693294 17.0194294 49.5142176 17.2351373 49.5142176 17.2351373 50.0534873 17.7745412 50.0534873"></polygon>
            <path d="M116.605911,51.0535437 L115.305523,51.0535437 L115.305523,50.0535437 L116.605911,50.0535437 L116.605911,51.0535437 Z M114.005137,51.0535437 L112.704749,51.0535437 L112.704749,50.0535437 L114.005137,50.0535437 L114.005137,51.0535437 Z M111.404361,51.0535437 L110.103869,51.0535437 L110.103869,50.0535437 L111.404361,50.0535437 L111.404361,51.0535437 Z M108.803481,51.0535437 L107.503094,51.0535437 L107.503094,50.0535437 L108.803481,50.0535437 L108.803481,51.0535437 Z M106.202706,51.0535437 L104.902214,51.0535437 L104.902214,50.0535437 L106.202706,50.0535437 L106.202706,51.0535437 Z M103.601826,51.0535437 L102.301438,51.0535437 L102.301438,50.0535437 L103.601826,50.0535437 L103.601826,51.0535437 Z M101.00105,51.0535437 L99.7005573,51.0535437 L99.7005573,50.0535437 L101.00105,50.0535437 L101.00105,51.0535437 Z M98.4001694,51.0535437 L97.0997829,51.0535437 L97.0997829,50.0535437 L98.4001694,50.0535437 L98.4001694,51.0535437 Z M95.799395,51.0535437 L94.4989023,51.0535437 L94.4989023,50.0535437 L95.799395,50.0535437 L95.799395,51.0535437 Z M93.1985145,51.0535437 L91.8981225,51.0535437 L91.8981225,50.0535437 L93.1985145,50.0535437 L93.1985145,51.0535437 Z M90.5977387,51.0535437 L89.297246,51.0535437 L89.297246,50.0535437 L90.5977387,50.0535437 L90.5977387,51.0535437 Z M87.9968595,51.0535437 L86.6964716,51.0535437 L86.6964716,50.0535437 L87.9968595,50.0535437 L87.9968595,51.0535437 Z M85.3960837,51.0535437 L84.0955911,51.0535437 L84.0955911,50.0535437 L85.3960837,50.0535437 L85.3960837,51.0535437 Z M82.7952032,51.0535437 L81.4948153,51.0535437 L81.4948153,50.0535437 L82.7952032,50.0535437 L82.7952032,51.0535437 Z M80.1944288,51.0535437 L78.8939348,51.0535437 L78.8939348,50.0535437 L80.1944288,50.0535437 L80.1944288,51.0535437 Z M77.5935483,51.0535437 L76.2931604,51.0535437 L76.2931604,50.0535437 L77.5935483,50.0535437 L77.5935483,51.0535437 Z M74.9927725,51.0535437 L73.6922799,51.0535437 L73.6922799,50.0535437 L74.9927725,50.0535437 L74.9927725,51.0535437 Z M72.391892,51.0535437 L71.0915041,51.0535437 L71.0915041,50.0535437 L72.391892,50.0535437 L72.391892,51.0535437 Z M69.7911175,51.0535437 L68.4906773,51.0535437 L68.4906773,50.0535437 L69.7911175,50.0535437 L69.7911175,51.0535437 Z M67.1902894,51.0535437 L65.8898491,51.0535437 L65.8898491,50.0535437 L67.1902894,50.0535437 L67.1902894,51.0535437 Z M64.5894613,51.0535437 L63.289021,51.0535437 L63.289021,50.0535437 L64.5894613,50.0535437 L64.5894613,51.0535437 Z M61.9886345,51.0535437 L60.6881942,51.0535437 L60.6881942,50.0535437 L61.9886345,50.0535437 L61.9886345,51.0535437 Z M59.3878063,51.0535437 L58.087366,51.0535437 L58.087366,50.0535437 L59.3878063,50.0535437 L59.3878063,51.0535437 Z M56.7869782,51.0535437 L55.4865379,51.0535437 L55.4865379,50.0535437 L56.7869782,50.0535437 L56.7869782,51.0535437 Z M54.18615,51.0535437 L52.8857097,51.0535437 L52.8857097,50.0535437 L54.18615,50.0535437 L54.18615,51.0535437 Z M51.5853232,51.0535437 L50.2848829,51.0535437 L50.2848829,50.0535437 L51.5853232,50.0535437 L51.5853232,51.0535437 Z M48.9844991,51.0535437 L47.6840588,51.0535437 L47.6840588,50.0535437 L48.9844991,50.0535437 L48.9844991,51.0535437 Z M46.3836669,51.0535437 L45.0832266,51.0535437 L45.0832266,50.0535437 L46.3836669,50.0535437 L46.3836669,51.0535437 Z M43.7828388,51.0535437 L42.4823998,51.0535437 L42.4823998,50.0535437 L43.7828388,50.0535437 L43.7828388,51.0535437 Z M41.182012,51.0535437 L39.8815717,51.0535437 L39.8815717,50.0535437 L41.182012,50.0535437 L41.182012,51.0535437 Z M38.5811838,51.0535437 L37.2807435,51.0535437 L37.2807435,50.0535437 L38.5811838,50.0535437 L38.5811838,51.0535437 Z M35.9803557,51.0535437 L34.6799691,51.0535437 L34.6799691,50.0535437 L35.9803557,50.0535437 L35.9803557,51.0535437 Z M33.3795289,51.0535437 L32.079141,51.0535437 L32.079141,50.0535437 L33.3795289,50.0535437 L33.3795289,51.0535437 Z M30.7787007,51.0535437 L29.4783128,51.0535437 L29.4783128,50.0535437 L30.7787007,50.0535437 L30.7787007,51.0535437 Z M28.1778726,51.0535437 L26.8774847,51.0535437 L26.8774847,50.0535437 L28.1778726,50.0535437 L28.1778726,51.0535437 Z M25.5770444,51.0535437 L24.2766579,51.0535437 L24.2766579,50.0535437 L25.5770444,50.0535437 L25.5770444,51.0535437 Z M22.9762176,51.0535437 L21.6758297,51.0535437 L21.6758297,50.0535437 L22.9762176,50.0535437 L22.9762176,51.0535437 Z M20.3753922,51.0535437 L19.0750016,51.0535437 L19.0750016,50.0535437 L20.3753922,50.0535437 L20.3753922,51.0535437 Z" id="Shape" fill="#3F3D56"></path>
            <rect id="Rectangle" fill="#3F3D56" x="50.0535437" y="43.6889763" width="36.892914" height="38.4031496"></rect>
            <rect id="Rectangle" fill="#FFFFFF" x="52.8582681" y="48.7051185" width="6.68818957" height="4.74645633"></rect>
            <rect id="Rectangle" fill="#FFFFFF" x="65.6952756" y="48.7051185" width="18.4464563" height="1"></rect>
            <rect id="Rectangle" fill="#FFFFFF" x="65.6952756" y="50.8625985" width="18.4464563" height="1"></rect>
            <rect id="Rectangle" fill="#FFFFFF" x="65.6952756" y="53.0200785" width="18.4464563" height="1"></rect>
            <rect id="Rectangle" fill="#FFFFFF" x="52.8582681" y="65.8031496" width="6.68818957" height="4.74645633"></rect>
            <rect id="Rectangle" fill="#FFFFFF" x="65.6952756" y="65.8031496" width="18.4464563" height="1"></rect>
            <rect id="Rectangle" fill="#FFFFFF" x="65.6952756" y="67.9606297" width="18.4464563" height="1"></rect>
            <rect id="Rectangle" fill="#FFFFFF" x="65.6952756" y="70.1181097" width="18.4464563" height="1"></rect>
            <polygon id="Path" fill="#AB6ACB" points="56.2307098 52.2787971 53.9413324 49.2263833 54.4836912 48.8196814 56.3486373 51.3063657 61.1024029 47.4562627 61.5316696 47.9808922"></polygon>
            <polygon id="Path" fill="#AB6ACB" points="56.2307098 69.2150863 53.9413324 66.1626725 54.4836912 65.7559706 56.3486373 68.2425206 61.1024029 64.3924176 61.5316696 64.9171814"></polygon>
            <rect id="Rectangle" fill="#3F3D56" x="0.970866618" y="81.9842519" width="133.224409" height="1"></rect>
            <path d="M73.1437453,22.8692918 C73.1437453,22.8692918 76.7035869,21.3181214 78.3756343,22.9566991 C80.0476816,24.5952769 73.8988624,24.0559052 73.1437453,22.8692918 Z" id="Path" fill="#3F3D56"></path>
            <path d="M79.2906546,15.5127894 C78.0943477,13.4914027 75.7275519,13.3971964 75.7275519,13.3971964 C75.7275519,13.3971964 73.4212509,13.102269 71.9417637,16.1808658 C70.5627647,19.0503711 68.6595795,21.8209369 71.6353645,22.4926707 L72.1728787,20.8196885 L72.5057578,22.6172225 C72.9294525,22.6476963 73.3544975,22.6549601 73.7789861,22.6389814 C76.9658129,22.5360971 80.0007833,22.6690851 79.903062,21.5255206 C79.7731578,20.0053028 80.4417407,17.4577676 79.2906546,15.5127894 Z" id="Path" fill="#2F2E41"></path>
            <path d="M80.9646106,52.157086 C80.9646106,52.157086 79.4543749,54.9618104 78.4835083,54.9618104 C77.5126417,54.9618104 77.6205158,56.7956696 77.8362639,57.2271659 C78.052012,57.6586621 78.5913824,58.6295274 77.7283898,60.0318903 C77.4269469,60.5217325 77.4808711,61.0773884 77.6786817,61.5931101 C78.2329219,63.0380921 80.3889003,62.6003126 80.3201209,61.0542125 C80.3193616,61.0371681 80.3184433,61.0200158 80.3173661,61.0027556 C80.2094921,59.2767718 81.0724846,56.5799215 81.9354772,55.9326811 C82.7984697,55.2854407 83.5535869,53.5594529 83.5535869,53.5594529 L80.9646106,52.157086 Z" id="Path" fill="#FFB8B8"></path>
            <path d="M70.6087053,51.5098429 C70.6087053,51.5098429 72.118941,54.3145674 73.0898076,54.3145674 C74.0606742,54.3145674 73.9528001,56.1484252 73.737052,56.5799215 C73.5213039,57.0114177 72.9819402,57.982283 73.8449261,59.3846459 C74.146369,59.8744881 74.0924448,60.4301439 73.8946342,60.9458657 C73.340394,62.390849 71.1844156,61.9530682 71.253195,60.4069681 C71.2539534,60.3899237 71.2548717,60.3727714 71.2559498,60.3555112 C71.3638238,58.6295274 70.500838,55.932677 69.6378387,55.2854367 C68.7748395,54.6381963 68.019729,52.9122085 68.019729,52.9122085 L70.6087053,51.5098429 Z" id="Path" fill="#FFB8B8"></path>
            <path d="M71.7953188,37.7019689 L71.1480757,39.1043304 C71.1480757,39.1043304 61.6551617,42.232677 62.5181502,45.900394 C63.3811387,49.568111 67.5882247,55.2854313 68.2354731,55.0696845 C68.8827216,54.8539377 72.3346851,54.2066933 72.4425591,52.3728341 C72.5504332,50.538975 69.9614569,47.3027596 69.9614569,47.3027596 L73.5212998,44.0665389 L78.7014471,43.9586648 L83.1220906,47.3027556 C83.1220906,47.3027556 78.4835083,51.4019689 80.5331143,53.0200785 C82.5827202,54.6381882 85.6031888,55.7169289 86.0346891,55.0696845 C86.4661894,54.4224401 91.3205158,44.8216534 90.5653986,43.9586608 C89.8102815,43.0956683 82.1512253,39.8594489 82.1512253,39.8594489 L80.101618,36.9468557 L72.118941,36.5153595 L71.7953188,37.7019689 Z" id="Path" fill="#2F2E41"></path>
            <path d="M73.737052,19.9027556 C73.737052,19.9027556 74.2764223,23.4625985 73.1976816,23.8940948 C72.118941,24.3255911 75.355163,26.1594489 75.355163,26.1594489 L77.1890235,26.1594489 L78.3756369,23.6783466 C78.3756369,23.6783466 77.2968963,21.7366148 77.9441407,19.9027556 C78.5913851,18.0688964 73.737052,19.9027556 73.737052,19.9027556 Z" id="Path" fill="#FFB8B8"></path>
            <path d="M73.737052,19.9027556 C73.737052,19.9027556 74.2764223,23.4625985 73.1976816,23.8940948 C72.118941,24.3255911 75.355163,26.1594489 75.355163,26.1594489 L77.1890235,26.1594489 L78.3756369,23.6783466 C78.3756369,23.6783466 77.2968963,21.7366148 77.9441407,19.9027556 C78.5913851,18.0688964 73.737052,19.9027556 73.737052,19.9027556 Z" id="Path" fill="#000000" opacity="0.1"></path>
            <path d="M72.9819335,22.9232282 C72.9819335,22.9232282 74.1685483,24.217717 74.3842964,24.4334651 C74.6000445,24.6492133 75.5709098,25.8358267 77.6205158,24.1098429 C79.6701217,22.3838592 79.8858712,24.4334651 79.8858712,24.4334651 L79.8858712,37.3783534 C79.8858712,37.3783534 78.1598861,36.6232416 76.7575246,37.3783534 C75.355163,38.1334651 72.4425618,37.1626052 72.4425618,37.1626052 L71.9031915,23.7862274 L72.9819335,22.9232282 Z" id="Path" fill="#FFFFFF"></path>
            <path d="M73.7743106,22.9232282 C73.7743106,22.9232282 72.7661854,22.4917319 71.9031861,22.9232282 C71.0401868,23.3547244 68.0197223,25.5122045 68.2354705,26.4830711 C68.4512186,27.4539377 71.2559498,34.25 69.3142165,37.4862207 C67.3724833,40.7224414 67.0488624,41.5854326 67.0488624,41.5854326 L71.7953188,39.1043304 C71.7953188,39.1043304 75.4630357,36.8389763 75.1394135,35.4366148 C74.8157913,34.0342532 73.7743106,22.9232282 73.7743106,22.9232282 Z" id="Path" fill="#AB6ACB"></path>
            <path d="M78.0532853,22.9232282 C78.0532853,22.9232282 80.3173661,23.1389763 80.4252402,23.3547244 C80.5331143,23.5704726 83.8232727,24.4874015 83.6075246,25.4582681 C83.3917764,26.4291347 80.4252402,35.1129925 81.719729,36.7311022 C83.0142179,38.3492119 85.1716979,40.6145674 84.4165794,40.8303155 C83.6614609,41.0460636 82.3669735,40.5066933 81.0724846,40.8303155 C79.7779958,41.1539377 76.7575219,38.457086 77.0811468,35.5444888 C77.4047717,32.6318917 77.0836907,23.6783466 78.0532853,22.9232282 Z" id="Path" fill="#AB6ACB"></path>
            <path d="M72.6583113,43.5271659 L72.6583113,44.6059052 C72.6583113,44.6059052 72.118941,47.0870075 73.8449261,46.9791334 C75.5709112,46.8712593 74.4921705,43.9586608 74.4921705,43.9586608 L74.3842964,42.9877955 L72.6583113,43.5271659 Z" id="Path" fill="#FFB8B8"></path>
            <path d="M77.5126417,43.6350373 C77.5126417,43.6350373 76.3260283,46.1161395 77.5126417,46.3318876 C78.6992551,46.5476358 79.562249,44.929518 79.562249,44.4980285 C79.562249,44.0665389 77.5126417,43.6350373 77.5126417,43.6350373 Z" id="Path" fill="#FFB8B8"></path>
            <ellipse id="Oval" fill="#FFB8B8" cx="79.076815" cy="18.4464563" rx="1" ry="1"></ellipse>
            <ellipse id="Oval" fill="#FFB8B8" cx="72.712249" cy="18.4464563" rx="1" ry="1"></ellipse>
            <path d="M80.9646106,24.3255911 C80.9646106,24.3255911 83.6614609,24.3255911 83.5535869,25.4043304 C83.4457128,26.4830697 79.8858712,45.0374069 79.8858712,45.0374069 C79.8858712,45.0374069 78.3756343,43.6350453 77.0811468,43.9586662 L80.9646106,24.3255911 Z" id="Path" fill="#AB6ACB"></path>
            <path d="M70.5008313,24.6492133 C70.5008313,24.6492133 67.8039809,25.1885823 67.8039809,26.8066946 C67.8039809,28.424807 71.687446,43.9586621 72.226815,43.9586621 C72.766184,43.9586621 74.8157913,43.6350413 74.8157913,43.0956709 C74.8157913,42.5563006 70.5008313,24.6492133 70.5008313,24.6492133 Z" id="Path" fill="#AB6ACB"></path>
            <path d="M71.0941353,27.8314963 L73.5213012,37.3234473 C73.5213012,37.3234473 72.3886268,29.0181097 71.0941353,27.8314963 Z" id="Path" fill="#000000" opacity="0.2"></path>
            <path d="M80.5349504,26.497765 L78.080183,38.9079785 C78.080183,38.9079785 78.8647377,27.2136397 80.5349504,26.497765 Z" id="Path" fill="#000000" opacity="0.2"></path>
            <circle id="Oval" fill="#FFB8B8" cx="75.894532" cy="18.500394" r="3.12834665"></circle>
            <polygon id="Path" fill="#2F2E41" points="78.7617029 15.3179431 76.4234353 14.0931363 73.194399 14.5941265 72.5263225 17.5448647 74.1893951 17.4809314 74.6539863 16.3968853 74.6539863 17.4630676 75.4213206 17.4335186 75.8667049 15.7075873 76.1451373 17.5448647 78.873049 17.4892588"></polygon>
        </g>
        <rect id="Rectangle" fill="#FFFFFF" fill-rule="nonzero" x="115.748819" y="31.69252" width="18.4464563" height="1"></rect>
        <rect id="Rectangle" fill="#FFFFFF" fill-rule="nonzero" x="115.748819" y="33.85" width="18.4464563" height="1"></rect>
        <rect id="Rectangle" fill="#FFFFFF" fill-rule="nonzero" x="115.748819" y="36.00748" width="18.4464563" height="1"></rect>
        <polygon id="Path" fill="#3F3D56" fill-rule="nonzero" points="118.661475 77.2693294 117.906364 77.2693294 117.906364 77.0534873 118.445633 77.0534873 118.445633 76.5142176 118.661475 76.5142176"></polygon>
        <path d="M119.44567,75.2196845 L118.44567,75.2196845 L118.44567,73.925197 L119.44567,73.925197 L119.44567,75.2196845 Z M119.44567,72.6307082 L118.44567,72.6307082 L118.44567,71.3362207 L119.44567,71.3362207 L119.44567,72.6307082 Z M119.44567,70.0417319 L118.44567,70.0417319 L118.44567,68.7472444 L119.44567,68.7472444 L119.44567,70.0417319 Z M119.44567,67.4527556 L118.44567,67.4527556 L118.44567,66.1582681 L119.44567,66.1582681 L119.44567,67.4527556 Z M119.44567,64.8637793 L118.44567,64.8637793 L118.44567,63.5692918 L119.44567,63.5692918 L119.44567,64.8637793 Z M119.44567,62.274803 L118.44567,62.274803 L118.44567,60.9803155 L119.44567,60.9803155 L119.44567,62.274803 Z M119.44567,59.6858267 L118.44567,59.6858267 L118.44567,58.3913392 L119.44567,58.3913392 L119.44567,59.6858267 Z M119.44567,57.0968504 L118.44567,57.0968504 L118.44567,55.8023615 L119.44567,55.8023615 L119.44567,57.0968504 Z M119.44567,54.5078741 L118.44567,54.5078741 L118.44567,53.2133852 L119.44567,53.2133852 L119.44567,54.5078741 Z M119.44567,51.9188978 L118.44567,51.9188978 L118.44567,50.6244089 L119.44567,50.6244089 L119.44567,51.9188978 Z" id="Shape" fill="#3F3D56" fill-rule="nonzero"></path>
        <rect id="Rectangle" fill="#3F3D56" fill-rule="nonzero" x="118.44567" y="48.682677" width="1" height="1"></rect>
    </g>
</svg>