<?xml version="1.0" encoding="UTF-8"?>
<svg width="137px" height="137px" viewBox="0 0 137 137" version="1.1" xmlns="http://www.w3.org/2000/svg" xmlns:xlink="http://www.w3.org/1999/xlink">
    <title>report_illustrations</title>
    <g id="report_illustrations" stroke="none" stroke-width="1" fill="none" fill-rule="evenodd">
        <g id="undraw_buy_house_560d-(5)" transform="translate(-765.000000, 87.000000)"></g>
        <g id="undraw_data_reports_706v" transform="translate(0.000000, 24.000000)" fill-rule="nonzero">
            <ellipse id="Oval" fill="#E6E6E6" cx="19.618932" cy="88.1575996" rx="19.618932" ry="1.49635922"></ellipse>
            <path d="M25.9731383,22.5220053 L18.1462103,20.387389 C20.2362118,18.4151875 21.1454002,16.5572802 20.8737756,14.813667 L25.9731383,14.813667 L25.9731383,22.5220053 Z" id="Path" fill="#9F616A"></path>
            <polygon id="Path" fill="#2F2E41" points="26.8032852 82.528534 24.2751032 82.8841687 21.2295133 54.8970971 16.3673434 82.7656238 13.758358 82.8841687 13.758358 47.5444867 29.8866165 47.5444867"></polygon>
            <path d="M15.0713816,88.1703669 L15.0713816,88.1703669 C15.8879384,88.1936967 16.6153554,87.6576871 16.8349358,86.870862 L17.0196064,84.1151021 L16.6473355,82.1606807 C15.6651386,81.3534963 14.6721813,81.3703104 13.6691717,82.1606807 L13.3493532,86.254377 C13.3114332,86.7397498 13.4741784,87.2194436 13.7996184,87.5815396 C14.1250583,87.9436356 14.5847284,88.1564632 15.0713816,88.1703669 L15.0713816,88.1703669 Z" id="Path" fill="#2F2E41"></path>
            <path d="M25.5072851,88.1703669 L25.5072851,88.1703669 C26.3238419,88.1936967 27.0512589,87.6576871 27.2708393,86.870862 L27.4555099,84.1151021 L27.0832407,82.1606807 C26.1010421,81.3534963 25.1080864,81.3703104 24.1050752,82.1606807 L23.785255,86.2543787 C23.747336,86.7397514 23.9100818,87.2194447 24.235522,87.5815403 C24.5609622,87.9436359 25.0206321,88.1564631 25.5072851,88.1703669 L25.5072851,88.1703669 Z" id="Path" fill="#2F2E41"></path>
            <circle id="Oval" fill="#9F616A" cx="24.9058319" cy="13.9835401" r="4.50641382"></circle>
            <path d="M30.5981436,48.1374057 L13.4026186,48.1374057 C15.6313425,37.8085068 15.6250977,29.4897388 13.8498122,22.7620363 C13.6156584,21.8750991 14.0868257,20.9541173 14.9430888,20.6250291 L19.5692895,18.8457217 C20.9581752,20.6393576 22.9180916,21.4227848 25.97314,20.2687992 L28.3973716,20.7660776 C29.6181244,21.0149659 30.4672713,22.1274726 30.385368,23.3706438 C30.2069438,26.0018402 30.2772976,28.6531676 30.1237911,30.9418889 C29.6484211,38.0293512 29.4431206,43.5545894 30.5981436,48.1374057 Z" id="Path" fill="#E6E6E6"></path>
            <path d="M22.534036,8.05404877 C22.534036,8.05404877 25.1430115,5.08930227 28.2263527,7.93545898 L29.0564813,8.17263857 L28.4635323,8.64699774 C28.4635323,8.64699774 31.5468636,10.0700753 31.309689,13.0348218 C31.309689,13.0348218 30.8353299,12.916232 30.5981503,13.0348218 C30.3609707,13.1534116 30.2423792,14.4578993 30.2423792,14.4578993 C30.2423792,14.4578993 29.8866099,13.5091809 29.7680201,13.3905912 C29.6494303,13.2720014 27.9891815,14.6950839 25.2616079,12.5604626 C25.2616079,12.5604626 24.4314793,14.6950789 23.4827693,14.4578993 C22.5340593,14.2207197 21.2295616,14.3393095 20.6366126,15.8809785 C20.6365976,15.8809785 17.4346732,9.00276712 22.534036,8.05404877 Z" id="Path" fill="#2F2E41"></path>
            <path d="M31.4282722,45.5284385 L29.9059478,47.5688075 C29.5856705,47.9980742 29.4509833,48.5378804 29.5320612,49.0672893 C29.6131391,49.5966983 29.9032044,50.0714545 30.3372717,50.385195 L30.3372717,50.385195 C30.8999659,50.7919048 31.6333535,50.8776281 32.2746758,50.6116518 C32.915998,50.3456754 33.373454,49.7660721 33.4831458,49.0805027 L33.9186545,46.3585721 L34.7487864,34.6181675 L34.1558374,28.6886762 L30.3609624,30.1117537 L31.4282722,35.2111165 L31.4282722,45.5284385 Z" id="Path" fill="#9F616A"></path>
            <path d="M29.8866032,31.5348312 L34.5116068,29.400215 L34.2744272,27.7199997 C34.2744264,24.8727185 32.5249875,22.3180117 29.8702929,21.2886395 L28.4635257,20.7431584 L29.8866032,31.5348312 Z" id="Path" fill="#E6E6E6"></path>
            <path d="M13.0468492,45.0540711 L14.5691736,47.09444 C14.8894508,47.5237067 15.024138,48.0635129 14.9430601,48.5929219 C14.8619823,49.1223308 14.5719169,49.5970871 14.1378497,49.9108275 L14.1378497,49.9108275 C13.5751555,50.3175374 12.8417678,50.4032606 12.2004456,50.1372843 C11.5591233,49.8713079 11.1016674,49.2917046 10.9919755,48.6061352 L10.5564668,45.8842046 L9.72633495,34.143805 L10.3192839,28.2143137 L14.114159,29.6373912 L13.0468492,34.736754 L13.0468492,45.0540711 Z" id="Path" fill="#9F616A"></path>
            <path d="M14.5885182,31.0604737 L9.96351454,28.9258575 L10.2006941,27.2456422 C10.200695,24.398361 11.9501339,21.8436542 14.6048285,20.814282 L16.0115957,20.2688008 L14.5885182,31.0604737 Z" id="Path" fill="#E6E6E6"></path>
            <path d="M135.669903,76.4361174 L56.5291262,76.4361174 C55.8407574,76.435366 55.2821602,75.8775202 55.2821602,75.1891514 L55.2821602,40.7728892 C55.2821602,40.0845204 55.8407574,39.5266746 56.5291262,39.5259232 L135.669903,39.5259232 C136.358272,39.5266746 136.916869,40.0845204 136.916869,40.7728892 L136.916869,75.1891514 C136.916869,75.8775202 136.358272,76.435366 135.669903,76.4361174 L135.669903,76.4361174 Z M56.5291262,40.0247096 C56.1161049,40.0251604 55.7809466,40.3598679 55.7809466,40.7728892 L55.7809466,75.1891514 C55.7809466,75.602173 56.1161045,75.9368811 56.5291262,75.937331 L135.669903,75.937331 C136.082925,75.9368811 136.418083,75.602173 136.418083,75.1891514 L136.418083,40.7728892 C136.418083,40.3598679 136.082924,40.0251604 135.669903,40.0247096 L56.5291262,40.0247096 Z" id="Shape" fill="#E6E6E6"></path>
            <path d="M59.7712379,43.7656077 C59.3580297,43.7656077 59.0230583,44.1005791 59.0230583,44.5137873 C59.0230583,44.9269955 59.3580297,45.2619669 59.7712379,45.2619669 L70.2457524,45.2619669 C70.6589606,45.2619669 70.993932,44.9269955 70.993932,44.5137873 C70.993932,44.1005791 70.6589606,43.7656077 70.2457524,43.7656077 L59.7712379,43.7656077 Z" id="Path" fill="#E6E6E6"></path>
            <path d="M131.478493,48.9688062 L131.478493,62.8433099 L60.8452214,62.8433099 L60.8452214,55.5381407 C61.3343347,55.2240516 61.8264058,54.9114372 62.3229061,54.609146 C64.4433785,53.3115017 66.713106,52.0979094 69.1867474,51.6481487 C70.3566037,51.4300262 71.5552923,51.4150622 72.7302291,51.603913 C73.9714874,51.8088843 75.1595417,52.2365222 76.3357798,52.6656265 C77.4957575,53.0903115 78.6586946,53.5282626 79.8718762,53.7745267 C81.0540995,54.0066041 82.2677575,54.0305561 83.458217,53.8453045 C85.7294159,53.5046733 87.8631909,52.5918958 89.9880909,51.766125 C92.1263034,50.935925 94.3295278,50.151437 96.6435825,50.0482132 C98.9280758,49.9449893 101.184502,50.4846979 103.35226,51.1541623 C107.772016,52.5181669 112.284859,54.5413194 116.964688,53.1537172 C121.716913,51.7469533 126.087903,47.6859042 131.354361,48.890658 C131.404208,48.8998799 131.448628,48.9278452 131.478493,48.9688062 Z" id="Path" fill="#E6E6E6"></path>
            <path d="M131.478493,49.2106461 C131.432134,49.2977045 131.33212,49.3416105 131.236656,49.3168128 C130.609122,49.172963 129.966317,49.1066042 129.32263,49.1192218 C124.142364,49.2106461 120.159473,53.3808064 115.09423,54.004567 C110.527394,54.5663884 106.228944,52.3456433 101.934915,51.1851353 C99.7038432,50.5820211 97.4034686,50.2620363 95.1075165,50.6719689 C92.8292697,51.0774822 90.6910954,52.0094314 88.5440859,52.8366886 C86.4766961,53.6329662 84.3282052,54.3732167 82.0897665,54.410082 C79.6286613,54.4513666 77.4123355,53.4368417 75.1296594,52.6641534 C73.9426093,52.2615912 72.7245895,51.9430745 71.4667616,51.9121115 C70.2408552,51.897416 69.0210087,52.0862717 67.856938,52.4709817 C65.4312216,53.2422019 63.2458738,54.6165198 61.118021,55.9820008 C61.0815584,56.007753 61.0371577,56.0197683 60.9926843,56.0159182 C60.8986512,56.0033428 60.8221812,55.9339492 60.8005625,55.8415749 C60.7789438,55.7492006 60.8166776,55.6530795 60.8953644,55.6000817 L60.9926843,55.5381407 C61.4807751,55.2240516 61.9718187,54.9114372 62.4672815,54.609146 C64.5833279,53.3115017 66.848317,52.0979094 69.3167943,51.6481487 C70.4841613,51.4300268 71.6804209,51.4150619 72.8528791,51.603913 C74.0915453,51.8088843 75.277119,52.2365222 76.4509031,52.6656265 C77.6084583,53.0903115 78.7689663,53.5282626 79.9796157,53.7745267 C81.1593158,54.006603 82.3705163,54.0305565 83.5584697,53.8453045 C85.8249269,53.5046733 87.9542477,52.5918958 90.0747118,51.766125 C92.2084602,50.935925 94.4070824,50.151437 96.7163088,50.0482132 C98.9960321,49.9449893 101.247748,50.4846979 103.410982,51.1541623 C107.821511,52.5181669 112.324932,54.5413194 116.994991,53.1537172 C121.737296,51.7469533 126.099161,47.6859042 131.354624,48.890658 C131.40439,48.8998981 131.44872,48.9278647 131.478489,48.9688012 C131.524958,49.0427194 131.524959,49.1367265 131.478493,49.2106461 Z" id="Path" fill="#AB6ACB"></path>
            <circle id="Oval" fill="#AB6ACB" cx="70.5775717" cy="51.7838203" r="1.03221852"></circle>
            <circle id="Oval" fill="#AB6ACB" cx="96.6779671" cy="50.456681" r="1.03221852"></circle>
            <circle id="Oval" fill="#AB6ACB" cx="128.529295" cy="49.1295417" r="1.03221852"></circle>
            <path d="M69.9963592,68.7049281 C69.583151,68.7049281 69.2481796,69.0398995 69.2481796,69.4531077 C69.2481796,69.8663159 69.583151,70.2012873 69.9963592,70.2012873 L80.4708738,70.2012873 C80.884082,70.2012873 81.2190534,69.8663159 81.2190534,69.4531077 C81.2190534,69.0398995 80.884082,68.7049281 80.4708738,68.7049281 L69.9963592,68.7049281 Z" id="Path" fill="#E6E6E6"></path>
            <circle id="Oval" fill="#AB6ACB" cx="63.2627427" cy="69.3699783" r="2.82645631"></circle>
            <path d="M95.2682039,68.7049281 C94.8549957,68.7049281 94.5200243,69.0398995 94.5200243,69.4531077 C94.5200243,69.8663159 94.8549957,70.2012873 95.2682039,70.2012873 L105.742718,70.2012873 C106.155927,70.2012873 106.490898,69.8663159 106.490898,69.4531077 C106.490898,69.0398995 106.155927,68.7049281 105.742718,68.7049281 L95.2682039,68.7049281 Z" id="Path" fill="#E6E6E6"></path>
            <circle id="Oval" fill="#AB6ACB" cx="88.5345874" cy="69.3699783" r="2.82645631"></circle>
            <path d="M120.540049,68.7049281 C120.12684,68.7049281 119.791869,69.0398995 119.791869,69.4531077 C119.791869,69.8663159 120.12684,70.2012873 120.540049,70.2012873 L131.014563,70.2012873 C131.427771,70.2012873 131.762743,69.8663159 131.762743,69.4531077 C131.762743,69.0398995 131.427771,68.7049281 131.014563,68.7049281 L120.540049,68.7049281 Z" id="Path" fill="#E6E6E6"></path>
            <circle id="Oval" fill="#AB6ACB" cx="113.806432" cy="69.3699783" r="2.82645631"></circle>
            <path d="M130.252916,30.233436 L91.2082488,30.233436 C90.4471007,30.233436 89.8302682,29.7940052 89.8294369,29.2524894 L89.8294369,20.7661375 C89.8302682,20.2246217 90.4471007,19.7851908 91.2082488,19.7851908 L130.252916,19.7851908 C131.014064,19.7851908 131.630897,20.2246217 131.631728,20.7661375 L131.631728,29.2523231 C131.631063,29.7938406 131.014064,30.2327709 130.252916,30.233436 Z M91.2082488,20.177237 C90.7515267,20.177237 90.3814272,20.4409287 90.3809284,20.7658049 L90.3809284,29.2519906 C90.3809284,29.5768668 90.7515267,29.840226 91.2082488,29.8405586 L130.252916,29.8405586 C130.709638,29.8405586 131.079738,29.5768668 131.080237,29.2519906 L131.080237,20.7661375 C131.080237,20.4412612 130.709638,20.177902 130.252916,20.1775695 L91.2082488,20.177237 Z" id="e1cfef3e-7788-4f0f-b252-d185c9336b04" fill="#E6E6E6"></path>
            <path d="M100.036444,24.6079849 C99.5775475,24.6085245 99.2056729,24.9803991 99.2051333,25.4392956 L99.2051333,31.2584703 C99.2056729,31.7173668 99.5775475,32.0892414 100.036444,32.089781 L129.797366,32.089781 C130.256263,32.0892414 130.628137,31.7173668 130.628677,31.2584703 L130.628677,25.4392956 C130.628138,24.9803987 130.256263,24.6085236 129.797366,24.6079849 L100.036444,24.6079849 Z" id="Path" fill="#AB6ACB"></path>
            <circle id="Oval" fill="#FFFFFF" cx="104.192997" cy="28.432014" r="1.8288835"></circle>
            <path d="M112.528032,27.6381805 C112.114824,27.6381805 111.779853,27.9731519 111.779853,28.3863601 C111.779853,28.7995683 112.114824,29.1345397 112.528032,29.1345397 L123.002547,29.1345397 C123.415755,29.1345397 123.750727,28.7995683 123.750727,28.3863601 C123.750727,27.9731519 123.415755,27.6381805 123.002547,27.6381805 L112.528032,27.6381805 Z" id="Path" fill="#FFFFFF"></path>
            <path d="M100.99078,10.4482418 L61.9461129,10.4482418 C61.1849648,10.4482418 60.5681323,10.008811 60.567301,9.46729522 L60.567301,0.980943277 C60.5681323,0.4394275 61.1849648,-3.32524272e-06 61.9461129,-3.32524272e-06 L100.99078,-3.32524272e-06 C101.751928,-3.32524272e-06 102.368761,0.4394275 102.369592,0.980943277 L102.369592,9.46712896 C102.368927,10.0086464 101.751928,10.4475768 100.99078,10.4482418 Z M61.9461129,0.392042791 C61.4893908,0.392042791 61.1192913,0.655734539 61.1187925,0.980610752 L61.1187925,9.46679643 C61.1187925,9.79167265 61.4893908,10.0550319 61.9461129,10.0553644 L100.99078,10.0553644 C101.447502,10.0553644 101.817602,9.79167265 101.818101,9.46679643 L101.818101,0.980943277 C101.818101,0.656067063 101.447502,0.39270784 100.99078,0.392375316 L61.9461129,0.392042791 Z" id="b00e8b21-64f0-4b6c-8490-a93637cb24e1" fill="#E6E6E6"></path>
            <path d="M70.7743081,4.82279072 C70.3154116,4.82333034 69.943537,5.19520489 69.9429974,5.6541014 L69.9429974,11.4732762 C69.943537,11.9321727 70.3154116,12.3040472 70.7743081,12.3045868 L100.53523,12.3045868 C100.994127,12.3040472 101.366001,11.9321727 101.366541,11.4732762 L101.366541,5.6541014 C101.366002,5.19520451 100.994127,4.82332943 100.53523,4.82279072 L70.7743081,4.82279072 Z" id="Path" fill="#AB6ACB"></path>
            <circle id="Oval" fill="#FFFFFF" cx="74.9308615" cy="8.64681984" r="1.8288835"></circle>
            <path d="M83.2658966,7.85298631 C82.8526884,7.85298631 82.517717,8.18795773 82.517717,8.60116592 C82.517717,9.01437411 82.8526884,9.34934553 83.2658966,9.34934553 L93.7404111,9.34934553 C94.1536193,9.34934553 94.4885908,9.01437411 94.4885908,8.60116592 C94.4885908,8.18795773 94.1536193,7.85298631 93.7404111,7.85298631 L83.2658966,7.85298631 Z" id="Path" fill="#FFFFFF"></path>
        </g>
    </g>
</svg>