<?xml version="1.0" encoding="UTF-8"?>
<svg width="140px" height="112px" viewBox="0 0 140 112" version="1.1" xmlns="http://www.w3.org/2000/svg" xmlns:xlink="http://www.w3.org/1999/xlink">
    <title>Run a Prebuilt NPSP Report</title>
    <defs>
        <linearGradient x1="50.0748148%" y1="100.108673%" x2="50.0748148%" y2="-0.00135473328%" id="linearGradient-1">
            <stop stop-color="#808080" stop-opacity="0.25" offset="0%"></stop>
            <stop stop-color="#808080" stop-opacity="0.12" offset="54%"></stop>
            <stop stop-color="#808080" stop-opacity="0.1" offset="100%"></stop>
        </linearGradient>
        <linearGradient x1="50.0072835%" y1="99.9864746%" x2="50.0072835%" y2="-0.000567339517%" id="linearGradient-2">
            <stop stop-color="#808080" stop-opacity="0.25" offset="0%"></stop>
            <stop stop-color="#808080" stop-opacity="0.12" offset="54%"></stop>
            <stop stop-color="#808080" stop-opacity="0.1" offset="100%"></stop>
        </linearGradient>
    </defs>
    <g id="Getting-Started-Page---End-User" stroke="none" stroke-width="1" fill="none" fill-rule="evenodd">
        <g id="Getting-Started-Tab---End-User-Dec-2020" transform="translate(-186.000000, -3810.000000)">
            <g id="Run-a-Prebuilt-NPSP-Report" transform="translate(186.000000, 3811.000000)">
                <g id="Group" opacity="0.5" transform="translate(91.893004, 0.000000)">
                    <path d="M8.06440329,0.0144032922 C7.51563786,0.00576131687 6.82283951,0.158436214 6.39938272,0.917489712 C5.56975309,2.40967078 6.90493827,3.87736626 6.21646091,5.46748971 C6.02081298,5.9002075 5.71236887,6.2723304 5.32345679,6.54485597 C4.65802469,7.0244856 3.97962963,7.16707819 3.30699588,7.4537037 C2.49886123,7.77570008 1.83020731,8.37243928 1.41872428,9.13888889 C1.0094189,9.96683377 0.870370847,10.9023853 1.02119342,11.8135802 C1.1537037,12.608642 1.46625514,13.2395062 1.72407407,13.9193416 C2.03709589,14.7611989 2.26343854,15.632787 2.39958848,16.5205761 C2.47660727,16.9345206 2.4988831,17.3567929 2.46584362,17.7765432 C2.39057702,18.3112381 2.26075024,18.8368194 2.07839506,19.3450617 L0.597736626,23.9814815 C0.384657383,24.5855458 0.225597467,25.2073254 0.122427984,25.8395062 C0.0574578302,26.4994252 0.0768180463,27.1649327 0.180041152,27.8199588 C0.341358025,29.176749 0.521399177,30.5882716 1.16378601,31.4366255 C1.80617284,32.2849794 3.06646091,32.3397119 3.9882716,31.137037 C4.8654321,29.9847737 5.09156379,28.2419753 5.89526749,26.9888889 C7.16131687,25.0127572 9.18641975,25.1841564 10.5432099,23.3333333 C11.8395062,21.5588477 11.8193416,18.9979424 12.6331276,16.8144033 C13.2092593,15.2502058 14.2174897,13.9337449 14.8973251,12.4141975 C15.8781893,10.2234568 16.1028807,7.76337449 15.7615226,5.8218107 C15.456535,4.11500991 14.7034722,2.51990856 13.5794239,1.19979424 C13.1588477,0.689917695 12.700823,0.216049383 12.1174897,0.0475308642 C11.4967078,-0.136831276 10.8773663,0.335596708 10.2378601,0.378806584 C9.49897119,0.416255144 8.8090535,0.0259259259 8.06440329,0.0144032922 Z" id="Path" fill="#FF9E2D" fill-rule="nonzero"></path>
                    <path d="M11.5442387,0.0288065844 C11.5442387,0.0288065844 7.97222222,20.7191358 2.03806584,32.0156379" id="Path" stroke="#535461" stroke-width="0.5"></path>
                    <path d="M6.3590535,1.01255144 C6.3590535,1.01255144 10.7174897,5.47757202 9.04958848,11.6479424" id="Path" stroke="#535461" stroke-width="0.5"></path>
                    <path d="M1.22139918,9.59547325 C1.22139918,9.59547325 8.89115226,12.6518519 7.87716049,16.1259259" id="Path" stroke="#535461" stroke-width="0.5"></path>
                    <path d="M15.7845679,5.77572016 C15.7845679,5.77572016 12.3652263,7.16851852 8.82201646,12.5611111" id="Path" stroke="#535461" stroke-width="0.5"></path>
                    <path d="M10.4927984,23.3549383 C10.4927984,23.3549383 8.1781893,24.158642 6.99567901,19.1779835" id="Path" stroke="#535461" stroke-width="2"></path>
                    <path d="M0.864197531,23.8288066 C0.864197531,23.8288066 5.31769547,24.4222222 5.98024691,22.3884774" id="Path" stroke="#535461" stroke-width="2"></path>
                </g>
                <g id="Group" opacity="0.5" transform="translate(14.115226, 21.460905)">
                    <path d="M0.463786008,4.16255144 C0.155555556,4.61769547 -0.0979423868,5.27880658 0.305349794,6.04938272 C1.09753086,7.5617284 3.0563786,7.25061728 4.00843621,8.69814815 C4.26282858,9.09926783 4.40461534,9.56144293 4.41893004,10.036214 C4.45493827,10.8557613 4.20144033,11.5010288 4.07037037,12.2226337 C3.89728212,13.0735823 4.02935325,13.9583059 4.44341564,14.7216049 C4.9107724,15.5174854 5.61604291,16.1466874 6.45987654,16.5205761 C7.1973251,16.8460905 7.90020576,16.9296296 8.60596708,17.0880658 C9.48149793,17.2888475 10.3342653,17.578412 11.1510288,17.9522634 C11.5392287,18.1150292 11.904357,18.3281015 12.237037,18.5860082 C12.64281,18.942115 13.0110541,19.3388341 13.3360082,19.7699588 L16.3995885,23.5522634 C16.7888528,24.0621563 17.2226576,24.5364496 17.6958848,24.9695473 C18.2121778,25.386005 18.779435,25.7349747 19.3839506,26.0080247 C20.6067901,26.617284 21.8858025,27.2409465 22.9473251,27.1703704 C24.0088477,27.0997942 24.7462963,26.0757202 24.2436214,24.6440329 C23.7683128,23.2814815 22.4288066,22.1335391 21.8209877,20.7738683 C20.8631687,18.6306584 22.1176955,17.0290123 21.3154321,14.8829218 C20.5462963,12.8203704 18.3901235,11.4376543 17.0131687,9.5537037 C16.0251029,8.20843621 15.4748971,6.65 14.577572,5.24567901 C13.2812757,3.22921811 11.3512346,1.68662551 9.53641975,0.905967078 C7.94171971,0.224285458 6.19448342,-0.0212720749 4.47366255,0.194444444 C3.81687243,0.266460905 3.17016461,0.388888889 2.70349794,0.782098765 C2.20802469,1.19979424 2.27139918,1.98045267 1.94876543,2.53497942 C1.58868313,3.18312757 0.882921811,3.54609053 0.463786008,4.16255144 Z" id="Path" fill="#FF9E2D" fill-rule="nonzero"></path>
                    <path d="M2.38662551,1.2617284 C2.38662551,1.2617284 17.723251,15.6002058 23.9080247,26.7641975" id="Path" stroke="#535461" stroke-width="0.5"></path>
                    <path d="M0.364403292,6.13580247 C0.364403292,6.13580247 6.49300412,4.94465021 10.7347737,9.72222222" id="Path" stroke="#535461" stroke-width="0.5"></path>
                    <path d="M4.71995885,15.1378601 C4.71995885,15.1378601 11.4895062,10.4034979 13.8314815,13.1574074" id="Path" stroke="#535461" stroke-width="0.5"></path>
                    <path d="M9.5191358,0.878600823 C9.5191358,0.878600823 8.80617284,4.50246914 11.3713992,10.4222222" id="Path" stroke="#535461" stroke-width="0.5"></path>
                    <path d="M21.3111111,14.9376543 C21.3111111,14.9376543 20.7119342,17.3141975 15.8954733,15.5670782" id="Path" stroke="#535461" stroke-width="0.5"></path>
                    <path d="M16.4226337,23.2497942 C16.4226337,23.2497942 19.3623457,19.8520576 18.0257202,18.1841564" id="Path" stroke="#535461" stroke-width="0.5"></path>
                </g>
                <path d="M11.6969136,8.99197531 C10.976749,9.84320988 10.3026749,11.0213992 10.832716,12.1837449 C11.8611111,14.4609053 15.6333333,13.3504115 16.9800412,15.4734568 C17.3833333,16.108642 17.4380658,16.8849794 17.3444444,17.5777778 C17.162963,18.9331276 16.4917695,20.0839506 16.0279835,21.3226337 C15.5641975,22.5613169 15.3236626,24.0592593 15.977572,25.3670782 C16.6069959,26.6331276 17.9335391,27.4325103 19.2183128,27.750823 C20.5030864,28.0691358 21.7907407,27.9971193 23.0740741,28.0388889 C24.5986747,28.0986823 26.1124702,28.321768 27.5895062,28.704321 C28.2394528,28.844438 28.8628197,29.0875608 29.4360082,29.4244856 C30.091358,29.8436214 30.6213992,30.458642 31.1399177,31.0635802 L35.7489712,36.4345679 C36.3611111,37.1547325 36.986214,37.8748971 37.7452675,38.4034979 C38.6209877,39.0127572 39.6176955,39.322428 40.5985597,39.6205761 C42.708642,40.2658436 44.9195473,40.9168724 46.9360082,40.4746914 C48.9524691,40.0325103 50.644856,38.1053498 50.1407407,35.8742798 C49.6611111,33.7497942 47.4977366,32.2432099 46.76893,30.1619342 C45.6166667,26.8823045 48.4613169,23.8403292 47.6072016,20.5030864 C46.7890947,17.3026749 43.1623457,15.6520576 41.1458848,12.9427984 C39.7055556,11.0012346 39.1380658,8.57283951 37.8792181,6.50740741 C36.0658436,3.53168724 32.9028807,1.55699588 29.741358,0.808024691 C26.5798354,0.0590534979 23.4010288,0.420576132 20.4425926,1.16666667 C19.1895062,1.48497942 17.9364198,1.88683128 16.9425926,2.681893 C15.8868313,3.52736626 15.7644033,4.80925926 14.9952675,5.83045267 C14.1037037,7.02016461 12.6676955,7.8382716 11.6969136,8.99197531 Z" id="Path" fill="#FF9E2D" fill-rule="nonzero"></path>
                <path d="M16.1835391,3.57633745 C16.1835391,3.57633745 40.6216049,22.8047325 48.8444444,39.5211934" id="Path" stroke="#535461" stroke-width="0.5"></path>
                <path d="M10.9104938,12.3090535 C10.9104938,12.3090535 22.7744856,8.46625514 29.281893,15.1378601" id="Path" stroke="#535461" stroke-width="0.5"></path>
                <path d="M16.3549383,25.9835391 C16.3549383,25.9835391 30.4860082,16.0452675 34.0580247,19.9211934" id="Path" stroke="#535461" stroke-width="0.5"></path>
                <path d="M29.6909465,0.764814815 C29.6909465,0.764814815 27.2553498,7.01440329 30.2670782,16.0985597" id="Path" stroke="#535461" stroke-width="0.5"></path>
                <path d="M47.5582305,20.6111111 C47.5582305,20.6111111 45.7131687,24.749177 37.2022634,23.3016461" id="Path" stroke="#535461" stroke-width="2"></path>
                <path d="M35.8613169,35.940535 C35.8613169,35.940535 42.4104938,29.3899177 40.4084362,27.0104938" id="Path" stroke="#535461" stroke-width="2"></path>
                <ellipse id="Oval" fill="#FF9E2D" fill-rule="nonzero" opacity="0.1" cx="69.9783951" cy="104.154527" rx="69.9783951" ry="5.91687243"></ellipse>
                <path d="M124.304733,57.5037037 C124.006584,56.6308642 123.575926,55.5246914 123.236008,55.2639918 C123.215278,55.2472928 123.192536,55.2332601 123.168313,55.2222222 L123.126543,55.2222222 L123.126543,54.1434156 L122.32284,54.2716049 C122.19511,53.8819183 122.09878,53.4826321 122.034774,53.077572 C122.193039,53.2360906 122.431133,53.2838231 122.638272,53.1985597 C122.625309,53.1769547 122.613786,53.1539095 122.602263,53.1308642 L122.638272,53.1150206 C122.511694,52.8918715 122.444728,52.6398808 122.443827,52.3833333 C122.450241,52.1490071 122.487531,51.9165501 122.554733,51.6919753 C122.698765,51.1950617 122.942181,50.7312757 123.077572,50.2314815 C123.163986,49.9099106 123.204715,49.5777784 123.19856,49.244856 C123.203009,48.6804808 123.07473,48.1229623 122.824074,47.617284 C122.760683,47.4712485 122.661632,47.3434719 122.536008,47.245679 C122.422897,47.1829253 122.306548,47.1261932 122.187449,47.0757202 C121.987664,46.9411873 121.815553,46.7695653 121.680453,46.5701646 C121.109524,45.8748102 120.345089,45.3645184 119.483951,45.1039095 C119.259464,45.0200753 119.016022,45.0006198 118.78107,45.0477366 C118.240947,45.1917695 118.045062,45.8615226 117.607202,46.212963 C117.221193,46.5226282 116.691152,46.554321 116.205761,46.6580247 C115.72037,46.7617284 115.232099,46.9676955 114.900823,47.3421811 C114.672574,47.603188 114.548036,47.9388771 114.550823,48.2855967 C114.52379,48.6149542 114.670006,48.9346646 114.936831,49.1296296 C115.239586,49.3280715 115.615159,49.3808947 115.960905,49.2736626 C115.691046,50.2056706 115.822227,51.2080043 116.322843,52.0391758 C116.82346,52.8703473 117.648123,53.4549954 118.598148,53.6522634 L118.69177,53.8207819 L118.69177,53.8207819 C118.981231,54.3596826 119.200964,54.9332159 119.345679,55.527572 C118.60535,55.9467078 117.797325,56.3399177 117.309053,56.3773663 C117.289375,56.5682185 117.253722,56.7570836 117.202469,56.9419753 C117.08828,57.4056595 116.868979,57.8368698 116.561523,58.2022634 C115.897531,58.9483539 112.911728,64.5886831 112.911728,64.5886831 C112.911728,64.5886831 112.818107,64.8133745 112.663992,65.1965021 C110.810288,65.4240741 107.784156,65.7524691 106.940123,65.5839506 L103.627366,62.4325103 C103.627366,62.4325103 102.555761,63.2506173 102.649383,64.2444444 L102.060288,63.6769547 C102.060288,63.6769547 98.9088477,66.0823045 103.885185,67.6580247 L111.456996,68.5366255 C110.736831,70.712963 110.062757,73.2465021 110.271605,74.6248971 L110.333539,74.6248971 C110.478202,74.6247857 110.622649,74.6137114 110.765638,74.5917695 L110.752675,74.8366255 L110.019547,87.8989712 C110.019547,87.8989712 109.853909,90.304321 112.093621,91.3816872 C112.093621,91.3816872 114.830247,99.4259259 113.752881,100.339095 C113.752881,100.339095 113.88107,100.40679 114.097119,100.500412 L111.845885,102.495267 C111.845885,102.495267 110.186626,102.910082 109.274897,102.826543 C108.943178,102.781024 108.630144,102.991779 108.547531,103.316255 C108.547531,103.333539 108.547531,103.350823 108.538889,103.368107 L108.538889,103.389712 C108.538889,103.406996 108.538889,103.42428 108.538889,103.443004 C108.538889,103.461728 108.538889,103.455967 108.538889,103.463169 C108.538889,103.47037 108.538889,103.493416 108.538889,103.509259 C108.538889,103.525103 108.538889,103.522222 108.538889,103.527984 C108.538889,103.533745 108.538889,103.563992 108.548971,103.581276 L108.548971,103.60144 C108.553772,103.620645 108.560014,103.639849 108.567695,103.659053 L108.574897,103.676337 C108.582099,103.695062 108.590741,103.713786 108.600823,103.73251 L108.600823,103.745473 C108.610905,103.764198 108.622428,103.781481 108.633951,103.800206 L108.644033,103.816049 C108.657476,103.835254 108.672359,103.854458 108.688683,103.873663 L108.701646,103.888066 C108.71893,103.90823 108.737654,103.926955 108.756379,103.945679 L108.765021,103.952881 L108.826955,104.006173 L108.839918,104.016255 C108.862963,104.034979 108.888889,104.052263 108.914815,104.069547 L108.932099,104.08107 C108.959465,104.098354 108.988272,104.115638 109.018519,104.131481 L109.031481,104.131481 L109.125103,104.177572 L109.138066,104.177572 L109.247531,104.220782 L109.270576,104.229424 L109.390123,104.268313 L109.410288,104.268313 L109.541358,104.302881 L109.55144,104.302881 L109.695473,104.331687 L109.72428,104.331687 L109.879835,104.354733 L109.910082,104.354733 L110.085802,104.372016 C110.42716,104.397942 110.886626,104.408025 111.418107,104.405144 L111.418107,104.405144 C111.418107,104.405144 111.418107,104.418107 111.418107,104.425309 C111.418107,104.43251 111.418107,104.455556 111.418107,104.471399 L111.418107,104.490123 C111.418107,104.507407 111.418107,104.526132 111.428189,104.543416 L111.428189,104.56358 C111.43299,104.582785 111.439232,104.601989 111.446914,104.621193 L111.454115,104.638477 C111.461317,104.657202 111.469959,104.675926 111.480041,104.69465 L111.480041,104.707613 C111.490123,104.726337 111.501646,104.743621 111.513169,104.762346 L111.523251,104.778189 C111.536694,104.797394 111.551578,104.816598 111.567901,104.835802 L111.580864,104.850206 C111.598148,104.87037 111.616872,104.889095 111.635597,104.907819 L111.644239,104.915021 L111.706173,104.968313 L111.719136,104.978395 C111.742181,104.997119 111.768107,105.014403 111.794033,105.031687 L111.812757,105.04321 C111.840123,105.060494 111.86893,105.077778 111.899177,105.093621 L111.91214,105.093621 L112.005761,105.139712 L112.018724,105.139712 L112.128189,105.182922 L112.151235,105.191564 L112.270782,105.230453 L112.290947,105.230453 L112.422016,105.265021 L112.432099,105.265021 L112.576132,105.293827 L112.604938,105.293827 L112.760494,105.316872 L112.790741,105.316872 L112.966461,105.334156 C115.126955,105.499794 122.005967,105.002881 122.005967,105.002881 L122.005967,104.984156 L122.005967,104.984156 L122.005967,104.959671 L122.005967,104.959671 C122.073663,104.638477 122.404938,102.771811 121.22963,101.391975 C121.264198,101.355967 121.298765,101.317078 121.330453,101.276749 C121.330453,101.276749 120.418724,99.7010288 120.915638,99.2026749 C121.412551,98.704321 118.428189,90.0796296 118.428189,90.0796296 C118.428189,90.0796296 116.852469,87.5921811 117.764198,84.7720165 C118.675926,81.9518519 117.680658,78.8839506 117.680658,78.8839506 C117.680658,78.8839506 119.855556,78.2372428 119.900206,75.5596708 C119.900206,75.4790123 119.900206,75.3954733 119.900206,75.3104938 C119.947899,75.3173122 119.996072,75.3202026 120.044239,75.3191358 C120.074926,75.3213383 120.105732,75.3213383 120.13642,75.3191358 C120.13642,75.3191358 119.721605,73.8269547 120.219959,72.7481481 C120.718313,71.6693416 121.795679,72.6646091 122.790947,68.2701646 C123.511111,65.0899177 124.144856,61.4314815 124.440123,59.6512346 C124.567798,58.9348878 124.521363,58.1983438 124.304733,57.5037037 Z M105.377366,66.8341564 L104.621193,66.1139918 C104.871811,66.2176955 105.149794,66.3199588 105.460905,66.4179012 L108.312757,66.749177 C107.039506,66.8644033 105.856996,66.9292181 105.377366,66.8341564 Z" id="Shape" fill="url(#linearGradient-1)" fill-rule="nonzero"></path>
                <path d="M112.596296,66.4135802 C112.596296,66.4135802 106.729835,67.2288066 105.506996,66.9897119 L102.24177,63.8843621 C102.24177,63.8843621 99.1450617,66.2479424 104.034979,67.794856 L113.166667,68.8621399 L112.596296,66.4135802 Z" id="Path" fill="#FDC2CC" fill-rule="nonzero"></path>
                <path d="M112.596296,66.4135802 C112.596296,66.4135802 106.729835,67.2288066 105.506996,66.9897119 L102.24177,63.8843621 C102.24177,63.8843621 99.1450617,66.2479424 104.034979,67.794856 L113.166667,68.8621399 L112.596296,66.4135802 Z" id="Path" fill="#000000" fill-rule="nonzero" opacity="0.05"></path>
                <path d="M114.715021,99.4907407 L111.863169,102.017078 C111.863169,102.017078 110.234156,102.424691 109.336831,102.342593 C108.439506,102.260494 108.033333,103.728189 110.152058,103.890947 C112.270782,104.053704 119.033128,103.565432 119.033128,103.565432 C119.033128,103.565432 119.685597,100.958436 117.72963,99.4907407 L114.715021,99.4907407 Z" id="Path" fill="#47465A" fill-rule="nonzero"></path>
                <path d="M114.715021,99.4907407 L111.863169,102.017078 C111.863169,102.017078 110.234156,102.424691 109.336831,102.342593 C108.439506,102.260494 108.033333,103.728189 110.152058,103.890947 C112.270782,104.053704 119.033128,103.565432 119.033128,103.565432 C119.033128,103.565432 119.685597,100.958436 117.72963,99.4907407 L114.715021,99.4907407 Z" id="Path" fill="#000000" fill-rule="nonzero" opacity="0.05"></path>
                <path d="M119.135391,102.437654 C119.130564,102.734618 119.096308,103.030371 119.033128,103.320576 C119.033128,103.320576 112.26358,103.808848 110.152058,103.646091 C109.133745,103.568313 108.700206,103.188066 108.622428,102.823663 C108.530247,103.241358 108.898971,103.794444 110.152058,103.890947 C112.270782,104.053704 119.033128,103.565432 119.033128,103.565432 C119.112462,103.194989 119.146798,102.816325 119.135391,102.437654 Z" id="Path" fill="#FFFFFF" fill-rule="nonzero" opacity="0.3"></path>
                <path d="M118.055144,53.2921811 C118.055144,53.2921811 119.848354,55.8185185 119.195885,57.5296296 C118.543416,59.2407407 122.618107,55.7364198 122.618107,55.7364198 C122.618107,55.7364198 121.314609,53.4549383 121.965638,51.0106996 L118.055144,53.2921811 Z" id="Path" fill="#FDC2CC" fill-rule="nonzero"></path>
                <path d="M117.566872,100.468724 L114.715021,102.997942 C114.715021,102.997942 113.086008,103.405556 112.188683,103.323457 C111.291358,103.241358 110.883745,104.706173 113.003909,104.87037 C115.124074,105.034568 121.884979,104.544856 121.884979,104.544856 C121.884979,104.544856 122.537449,101.93786 120.581481,100.470165 L117.566872,100.468724 Z" id="Path" fill="#47465A" fill-rule="nonzero"></path>
                <path d="M118.382099,99.8983539 C117.957202,100.422634 117.358025,100.618519 116.731481,100.654527 C115.306996,100.722222 113.738477,99.8983539 113.738477,99.8983539 C114.797119,99.0024691 112.109465,91.0979424 112.109465,91.0979424 C109.910082,90.0393004 110.07284,87.6757202 110.07284,87.6757202 L110.793004,74.8467078 L110.973045,71.6246914 L113.254527,70.2390947 L115.053498,71.61893 L116.758848,72.9281893 C116.869704,73.3444872 116.941076,73.7703073 116.972016,74.2 C117.169342,77.1944444 114.802881,77.8987654 114.802881,77.8987654 C114.802881,77.8987654 115.780864,80.9133745 114.884979,83.6831276 C113.989095,86.4528807 115.537449,88.8971193 115.537449,88.8971193 C115.537449,88.8971193 118.471399,97.3705761 117.986008,97.8602881 C117.500617,98.35 118.382099,99.8983539 118.382099,99.8983539 Z" id="Path" fill="#565171" fill-rule="nonzero"></path>
                <path d="M118.382099,99.8983539 C117.957202,100.422634 117.358025,100.618519 116.731481,100.654527 C115.306996,100.722222 113.738477,99.8983539 113.738477,99.8983539 C114.797119,99.0024691 112.109465,91.0979424 112.109465,91.0979424 C109.910082,90.0393004 110.07284,87.6757202 110.07284,87.6757202 L110.793004,74.8467078 L110.973045,71.6246914 L113.254527,70.2390947 L115.053498,71.61893 L116.758848,72.9281893 C116.869704,73.3444872 116.941076,73.7703073 116.972016,74.2 C117.169342,77.1944444 114.802881,77.8987654 114.802881,77.8987654 C114.802881,77.8987654 115.780864,80.9133745 114.884979,83.6831276 C113.989095,86.4528807 115.537449,88.8971193 115.537449,88.8971193 C115.537449,88.8971193 118.471399,97.3705761 117.986008,97.8602881 C117.500617,98.35 118.382099,99.8983539 118.382099,99.8983539 Z" id="Path" fill="#000000" fill-rule="nonzero" opacity="0.05"></path>
                <path d="M121.233951,100.876337 C119.848354,102.587449 116.590329,100.876337 116.590329,100.876337 C116.656706,100.816093 116.706331,100.739671 116.734362,100.654527 C117.332099,99.0298354 114.717901,91.2621399 114.717901,91.2621399 C112.518519,90.2034979 112.269342,87.6771605 112.269342,87.6771605 L111.69321,74.6205761 L111.618313,72.9296296 L115.046296,71.6203704 L116.099177,71.2185185 L119.603498,73.9032922 C119.755209,74.4584666 119.830797,75.0316775 119.828189,75.6072016 C119.784979,78.2415638 117.653292,78.876749 117.653292,78.876749 C117.653292,78.876749 118.631276,81.891358 117.735391,84.6611111 C116.839506,87.4308642 118.38786,89.8751029 118.38786,89.8751029 C118.38786,89.8751029 121.321811,98.3485597 120.83642,98.8382716 C120.351029,99.3279835 121.233951,100.876337 121.233951,100.876337 Z" id="Path" fill="#565171" fill-rule="nonzero"></path>
                <path d="M119.828268,75.6100823 C119.123868,75.5092593 117.697942,74.6609053 116.964815,74.2 C116.685391,74.0242798 116.50679,73.9119342 116.50679,73.9119342 C116.50679,73.9119342 115.773663,71.8753086 113.817695,73.4236626 C113.181644,73.9396332 112.463508,74.3451974 111.69321,74.6234568 C111.398568,74.7276725 111.094753,74.8038672 110.785802,74.8510288 L110.965844,71.6290123 L113.247325,70.2434156 L115.046296,71.623251 L116.099177,71.2213992 L119.603498,73.9032922 C119.755468,74.4593966 119.831058,75.0335941 119.828268,75.6100823 Z" id="Path" fill="#000000" fill-rule="nonzero" opacity="0.1"></path>
                <path d="M124.238477,59.9796296 C123.950412,61.7281893 123.325309,65.3218107 122.618107,68.4473251 C121.640123,72.7683128 120.581481,71.7874486 120.09177,72.8475309 C119.602058,73.9076132 120.009671,75.3738683 120.009671,75.3738683 C119.194444,75.4559671 116.50535,73.6627572 116.50535,73.6627572 C116.50535,73.6627572 115.772222,71.6261317 113.816255,73.1744856 C111.860288,74.7228395 110.311934,74.6407407 110.311934,74.6407407 C109.904321,71.9516461 112.91893,64.7816872 112.91893,64.7816872 C112.91893,64.7816872 115.855761,59.2407407 116.501029,58.5076132 C116.803063,58.1484586 117.018425,57.7246345 117.130453,57.26893 C117.180457,57.0873107 117.215146,56.9018188 117.234156,56.7144033 C118.292798,56.6323045 120.901235,54.8419753 120.901235,54.8419753 L122.93786,54.5164609 L122.93786,55.5751029 C122.961534,55.5857428 122.98379,55.5992902 123.004115,55.6154321 C123.339712,55.8718107 123.761728,56.9592593 124.054115,57.8162551 C124.292635,58.5112262 124.355962,59.25432 124.238477,59.9796296 Z" id="Path" fill="#F68080" fill-rule="nonzero"></path>
                <path d="M122.618107,56.6337449 C122.618107,56.6337449 120.499383,54.9226337 117.322016,60.4635802 C114.14465,66.0045267 113.411523,65.1072016 113.411523,65.1072016 C113.411523,65.1072016 114.063992,67.5557613 113.737037,68.0411523 C113.737037,68.0411523 115.93642,67.8783951 116.751646,68.0411523 C117.566872,68.2039095 122.618107,61.8477366 122.618107,61.8477366 C122.618107,61.8477366 125.226543,58.2627572 122.618107,56.6337449 Z" id="Path" fill="#000000" fill-rule="nonzero" opacity="0.1"></path>
                <path d="M122.537449,56.3067901 C122.537449,56.3067901 120.418724,54.6028807 117.241358,60.1366255 C114.063992,65.6703704 113.332305,64.7816872 113.332305,64.7816872 C113.332305,64.7816872 115.855761,67.5514403 116.670988,67.7098765 C117.486214,67.8683128 122.537449,61.5164609 122.537449,61.5164609 C122.537449,61.5164609 125.143004,57.9372428 122.537449,56.3067901 Z" id="Path" fill="#000000" fill-rule="nonzero" opacity="0.1"></path>
                <path d="M113.66214,67.5111111 C113.695267,66.9076132 113.467695,65.8460905 113.336626,65.2958848 C113.832099,65.23107 114.14465,65.1878601 114.14465,65.1878601 L114.720782,67.6364198 L113.66214,67.5111111 Z" id="Path" fill="#000000" fill-rule="nonzero" opacity="0.1"></path>
                <path d="M122.047737,51.1734568 L118.137243,53.4506173 C118.301871,53.6912024 118.453794,53.9402399 118.592387,54.1967078 C118.818027,54.2426545 119.047713,54.2658436 119.277984,54.2658436 C120.322222,54.2658436 120.809053,53.1697531 121.438477,52.4323045 C121.398148,51.8446502 121.873457,51.8302469 122.047737,51.1734568 Z" id="Path" fill="#000000" fill-rule="nonzero" opacity="0.1"></path>
                <circle id="Oval" fill="#FDC2CC" fill-rule="nonzero" cx="119.197325" cy="50.6851852" r="3.42222222"></circle>
                <path d="M114.867695,47.9168724 C115.213116,47.5627498 115.661914,47.3272567 116.149588,47.2442387 C116.624897,47.1419753 117.146296,47.1102881 117.526543,46.8121399 C117.958642,46.4679012 118.148765,45.8139918 118.678807,45.6685185 C118.90939,45.6221778 119.148332,45.6411335 119.368724,45.723251 C120.215671,45.9787335 120.967639,46.4800454 121.529218,47.1635802 C121.661574,47.3594551 121.830257,47.5281377 122.026132,47.6604938 C122.143269,47.7100925 122.257695,47.7658634 122.36893,47.827572 C122.490965,47.9238738 122.587014,48.0491326 122.648354,48.1919753 C123.030517,48.9634552 123.118586,49.8477232 122.896091,50.6794239 C122.76358,51.1705761 122.524486,51.6257202 122.383333,52.1197531 C122.242181,52.613786 122.206173,53.1625514 122.465432,53.5989712 C122.214815,53.7271605 121.897942,53.5658436 121.745267,53.3325103 C121.592593,53.099177 121.540741,52.8111111 121.457202,52.5417695 C121.294228,52.0119666 120.988801,51.5371351 120.57428,51.1691358 C120.317901,50.9415638 119.854115,50.7888889 119.679835,51.082716 C119.6107,51.1965021 119.615021,51.340535 119.555967,51.458642 C119.4393,51.6890947 119.102263,51.7351852 118.879012,51.6026749 C118.663835,51.4541223 118.512615,51.2298649 118.455556,50.9746914 C118.119959,49.8397119 117.548148,49.1253086 116.333951,49.6106996 C115.881687,49.7921811 115.348765,49.9146091 114.913786,49.6034979 C114.340535,49.1930041 114.457202,48.3806584 114.867695,47.9168724 Z" id="Path" fill="#000000" fill-rule="nonzero" opacity="0.1"></path>
                <path d="M114.867695,47.8333333 C115.213116,47.4792107 115.661914,47.2437176 116.149588,47.1606996 C116.624897,47.0584362 117.146296,47.026749 117.526543,46.7286008 C117.958642,46.3843621 118.148765,45.7304527 118.678807,45.5849794 C118.90939,45.5386387 119.148332,45.5575944 119.368724,45.6397119 C120.215671,45.8951944 120.967639,46.3965063 121.529218,47.0800412 C121.661574,47.275916 121.830257,47.4445986 122.026132,47.5769547 C122.143269,47.6265534 122.257695,47.6823243 122.36893,47.7440329 C122.490965,47.8403347 122.587014,47.9655935 122.648354,48.1084362 C123.030517,48.8799161 123.118586,49.7641841 122.896091,50.5958848 C122.76358,51.087037 122.524486,51.5421811 122.383333,52.036214 C122.242181,52.5302469 122.206173,53.0790123 122.465432,53.5154321 C122.214815,53.6436214 121.897942,53.4823045 121.745267,53.2489712 C121.592593,53.0156379 121.540741,52.727572 121.457202,52.4582305 C121.294228,51.9284275 120.988801,51.453596 120.57428,51.0855967 C120.317901,50.8580247 119.854115,50.7053498 119.679835,50.999177 C119.6107,51.112963 119.615021,51.2569959 119.555967,51.3751029 C119.4393,51.6055556 119.102263,51.6516461 118.879012,51.5191358 C118.663835,51.3705832 118.512615,51.1463258 118.455556,50.8911523 C118.119959,49.7561728 117.548148,49.0417695 116.333951,49.5271605 C115.881687,49.708642 115.348765,49.83107 114.913786,49.5199588 C114.340535,49.1109053 114.457202,48.3 114.867695,47.8333333 Z" id="Path" fill="#B96B6B" fill-rule="nonzero"></path>
                <path d="M123.011317,55.6111111 L121.354938,55.6111111 C121.354938,55.6111111 118.095473,57.2401235 118.014815,57.159465 C117.960082,57.1047325 117.455967,57.1983539 117.136214,57.2660494 C117.186218,57.0844301 117.220907,56.8989382 117.239918,56.7115226 C118.29856,56.6294239 120.906996,54.8390947 120.906996,54.8390947 L122.943621,54.5135802 L122.943621,55.5722222 C122.967723,55.5823049 122.990466,55.5953698 123.011317,55.6111111 Z" id="Path" fill="#000000" fill-rule="nonzero" opacity="0.05"></path>
                <path d="M121.987243,103.415638 C121.982415,103.712601 121.94816,104.008355 121.884979,104.29856 C121.884979,104.29856 115.115432,104.786831 113.003909,104.624074 C111.985597,104.546296 111.552058,104.166049 111.47428,103.801646 C111.382099,104.219342 111.750823,104.772428 113.003909,104.86893 C115.122634,105.031687 121.884979,104.543416 121.884979,104.543416 C121.964314,104.172973 121.99865,103.794309 121.987243,103.415638 Z" id="Path" fill="#FFFFFF" fill-rule="nonzero" opacity="0.3"></path>
                <g id="Group" opacity="0.05" transform="translate(110.329218, 55.452675)" fill="#000000" fill-rule="nonzero">
                    <path d="M2.71502058,17.6397119 C1.61604938,18.5039095 0.64382716,18.8654321 0.00576131687,19.009465 C0.00576131687,19.0699588 0.0172839506,19.1304527 0.0259259259,19.1880658 C0.0259259259,19.1880658 1.57427984,19.2701646 3.53024691,17.7218107 C3.83317292,17.4621871 4.19127812,17.2750069 4.57736626,17.1744856 C4.15534979,16.9713992 3.54176955,16.9843621 2.71502058,17.6397119 Z" id="Path"></path>
                    <path d="M13.772428,2.36213992 C13.4843621,1.49794239 13.0522634,0.417695473 12.722428,0.161316872 C12.7021031,0.145174956 12.6798467,0.131627591 12.6561728,0.120987654 C12.6561728,0.120987654 11.9820988,0.144032922 12.0037037,0.161316872 C12.3393004,0.417695473 12.6648148,1.42304527 12.9572016,2.28004115 C13.1928309,2.97471928 13.2536775,3.7167514 13.1343621,4.44053498 C12.8462963,6.18909465 12.2211934,9.78271605 11.5139918,12.9082305 C10.5360082,17.2292181 9.47736626,16.2483539 8.98765432,17.3084362 C8.5872428,18.1726337 8.78744856,19.3162551 8.87386831,19.700823 C9.22242798,19.844856 9.52489712,19.9355967 9.72078189,19.9154321 C9.72078189,19.9154321 9.31316872,18.449177 9.80288066,17.3890947 C10.2925926,16.3290123 11.3512346,17.3069959 12.3292181,12.9888889 C13.0364198,9.86481481 13.658642,6.26975309 13.9495885,4.52119342 C14.0686633,3.79787768 14.0078191,3.05637007 13.772428,2.36213992 Z" id="Path"></path>
                </g>
                <path d="M40.9355967,103.113169 C40.9355967,103.113169 39.0631687,103.242798 37.8965021,101.240741 C37.6702526,100.836433 37.4028534,100.456571 37.0985597,100.107202 C36.7249084,99.4946554 36.5307766,98.7894926 36.5382716,98.0720165 C36.6030864,96.5855967 35.0518519,88.4390947 35.0518519,88.4390947 C35.0518519,88.4390947 35.2462963,85.3351852 33.6936214,83.3979424 C32.672428,82.1218107 31.2032922,78.4633745 30.3174897,76.1127572 C30.3771174,76.1657595 30.4488242,76.2033437 30.5263374,76.2222222 L30.4903292,76.0191358 L30.5263374,76.0277778 L30.0740741,73.5057613 C29.4074487,72.7389334 28.8456102,71.8869732 28.4032922,70.9722222 L28.5069959,70.9506173 L29.8796296,70.6625514 C29.8796296,70.6625514 32.1106996,67.4938272 32.2475309,65.9325103 L32.4290123,65.9411523 L32.6853909,65.9411523 C35.5242798,65.8792181 38.8658436,66.2652263 38.8658436,66.2652263 L38.8658436,66.2652263 C38.8658436,66.255144 38.85,66.2148148 38.832716,66.1514403 L38.832716,66.1514403 C38.7460058,65.8376447 38.6791382,65.5187011 38.6325103,65.1965021 L38.7606996,65.1878601 L40.03107,65.1028807 C40.03107,65.1028807 44.4269547,60.1899177 42.8109053,59.2839506 C41.194856,58.3779835 39.5139918,63.3572016 39.5139918,63.3572016 L38.9709877,63.4565844 L38.8269547,63.4839506 C38.841358,63.4623457 38.8557613,63.4421811 38.8730453,63.4220165 C38.8903292,63.4018519 31.6958848,63.0993827 30.5969136,61.3537037 C30.5969136,61.3537037 27.4281893,58.8316872 27.3,57.150823 C27.2308642,56.2592593 26.6720165,55.7853909 26.1606996,55.5376543 C25.7696484,55.3513083 25.3366925,55.2703773 24.9047325,55.3028807 L23.4211934,55.405144 L23.5263374,55.5923868 L23.4845679,55.5923868 C23.3915786,55.3791622 23.3136107,55.1596971 23.2512346,54.9355967 L23.2814815,54.9355967 C23.2713992,54.8895062 23.2613169,54.8434156 23.2526749,54.7915638 C24.1711733,54.574777 24.9627884,53.9953908 25.4471385,53.1854272 C25.9314885,52.3754637 26.0673131,51.4039213 25.8236626,50.4921811 C25.9674211,50.5107794 26.1131983,50.506892 26.2557613,50.4806584 C26.8002058,50.3683128 27.1876543,49.8152263 27.2020576,49.2592593 C27.2020576,49.223251 27.2020576,49.1872428 27.2020576,49.1512346 C27.2020576,49.1512346 27.2020576,49.1368313 27.2020576,49.1296296 C27.1912594,48.5655406 26.9266853,48.0363924 26.481893,47.6893004 C26.1851852,47.4430041 25.8323045,47.267284 25.562963,46.9936214 C25.2432099,46.6666667 25.06893,46.2288066 24.8197531,45.841358 C24.4042946,45.2041826 23.7878412,44.7240992 23.0683128,44.4773663 C22.5325103,44.2958848 21.8771605,44.2757202 21.4666667,44.6646091 C21.2549383,44.8648148 21.1325103,45.1514403 20.890535,45.3199588 C20.549177,45.5633745 20.0853909,45.491358 19.6676955,45.5403292 C18.9100823,45.6296296 18.2446502,46.1697531 17.9104938,46.8567901 C17.70558,47.290687 17.6068393,47.7671109 17.622428,48.2467078 C17.6178626,48.5759544 17.6570953,48.9043463 17.7390947,49.223251 C17.8197531,49.5415638 17.9393004,49.8483539 18.0271605,50.163786 C18.208642,50.8205761 18.2504115,51.5119342 18.4592593,52.1615226 C18.6007484,52.642108 18.8826303,53.069445 19.2687243,53.3886831 L19.2067901,53.6565844 C19.1664609,53.6652263 18.1596708,53.8812757 17.4625514,55.4022634 C16.9123457,56.6006173 15.0514403,57.8393004 14.2333333,58.3390947 C13.9250154,58.5277382 13.7054708,58.8324019 13.6240741,59.1845679 C13.5455088,59.5371115 13.5106785,59.8979918 13.5203704,60.2590535 C13.5059671,61.0382716 13.6644033,62.1156379 14.2952675,63.4825103 C15.7183128,66.5864198 16.7524691,67.9475309 16.7524691,67.9475309 C16.7524691,67.9475309 16.8316872,68.8981481 16.8360082,69.9006173 C16.8360082,70.6467078 16.7812757,71.3899177 16.6228395,71.7615226 C16.4888889,72.0755144 16.4471193,72.8777778 16.45,73.7923868 C16.45,75.5481481 16.6228395,77.8397119 16.6228395,77.8397119 C16.6228395,77.8397119 17.1168724,77.9333333 17.8831276,78.045679 L18.3598765,86.4269547 C18.4197546,87.4418432 18.094118,88.4419026 17.4481481,89.2269547 C17.1124794,89.6387953 16.7252117,90.0057314 16.2958848,90.3187243 C14.9376543,91.2880658 12.0281893,101.504321 12.0281893,101.504321 C12.0281893,101.504321 12.1722222,101.512963 12.4055556,101.531687 L11.5111111,104.026337 C11.5111111,104.026337 15.0831276,106.762963 17.2580247,106.015432 C17.4903301,105.939828 17.7340198,105.905224 17.9781893,105.913169 C18.4102881,105.913169 19.3248971,105.574691 18.8135802,105.126749 C17.8845679,104.314403 16.7711934,103.084362 16.0265432,102.228807 C16.0967624,102.262807 16.1641873,102.302299 16.2281893,102.346914 L16.2281893,102.326749 L16.2584362,102.346914 C16.2584362,102.346914 16.2656379,102.246091 16.2814815,102.083333 L16.2497942,102.073251 C16.3160494,101.400617 16.5234568,99.7096708 16.9368313,99.5022634 C17.4539095,99.2430041 21.2679012,91.6798354 21.2679012,91.6798354 L25.081893,81.8524691 C25.081893,81.8524691 28.1209877,87.0895062 30.7063786,87.9940329 L30.7063786,90.1790123 C30.7063786,90.1790123 32.1294239,96.6446502 32.6465021,97.3561728 C33.1635802,98.0676955 32.6465021,100.912346 32.6465021,100.912346 C32.7487256,101.029459 32.8659186,101.132608 32.9950617,101.219136 L32.5816872,103.562551 C32.5816872,103.562551 35.5559671,103.432922 40.5985597,104.985597 C40.6115226,104.988477 42.5516461,104.150206 40.9355967,103.113169 Z M29.0384774,69.2942387 L28.4090535,69.4512346 L28.2851852,69.4829218 C28.2722222,69.405144 28.2635802,69.3590535 28.2635802,69.3590535 C28.1194968,69.4237742 27.9647141,69.4613713 27.8069959,69.4699588 C27.5838768,68.7631008 27.4550546,68.0298798 27.4238683,67.2893004 C27.4238683,67.2893004 27.0580247,65.795679 27.0378601,64.5886831 C27.0450617,64.1176955 27.1156379,63.7072016 27.2942387,63.4753086 L27.5045267,63.4925926 L27.6485597,63.6366255 L27.658642,63.6467078 L27.7335391,63.7144033 L27.7335391,63.7144033 L27.8113169,63.7849794 L27.8242798,63.7965021 L27.9092593,63.8699588 L27.9236626,63.8829218 L28.0100823,63.9563786 L28.0187243,63.9635802 L28.1152263,64.0427984 L28.1368313,64.0600823 L28.2390947,64.1421811 L28.2477366,64.1421811 L28.3485597,64.2213992 L28.3716049,64.2386831 L28.4825103,64.3236626 L28.5055556,64.3409465 L28.6121399,64.4187243 L28.6308642,64.4316872 L28.7518519,64.518107 L28.7806584,64.5382716 L28.9074074,64.6261317 L28.91893,64.6333333 L29.0427984,64.7154321 L29.0730453,64.7355967 L29.2069959,64.8205761 L29.2358025,64.8378601 L29.3611111,64.9141975 L29.3841564,64.9286008 L29.5281893,65.0121399 L29.5627572,65.0323045 L29.7067901,65.1158436 L29.7183128,65.1158436 L29.8623457,65.1921811 L29.8983539,65.2109053 L30.0510288,65.2872428 L30.082716,65.3016461 L30.226749,65.3679012 L30.2541152,65.3808642 L30.4139918,65.45 L30.4528807,65.4658436 L30.6199588,65.5320988 L30.6199588,65.5320988 C29.5685185,66.6541152 29.0384774,69.2942387 29.0384774,69.2942387 Z" id="Shape" fill="url(#linearGradient-2)" fill-rule="nonzero"></path>
                <path d="M13.0925926,99.990535 L11.8927984,103.33642 C11.8927984,103.33642 15.1781893,105.855556 17.3127572,105.334156 C17.6342664,105.254241 17.9618737,105.201246 18.2921811,105.17572 C18.7343621,105.142593 19.494856,104.821399 19.0253086,104.410905 C17.5100823,103.085802 15.4907407,100.62428 15.4907407,100.62428 L13.0925926,99.990535 Z" id="Path" fill="#4F4D59" fill-rule="nonzero"></path>
                <path d="M33.0382716,99.6736626 L32.4707819,102.892798 C32.4707819,102.892798 35.3744856,102.766049 40.2975309,104.281276 C40.2975309,104.281276 42.1915638,103.460288 40.612963,102.450617 C40.612963,102.450617 38.7823045,102.577366 37.6458848,100.619959 C36.509465,98.6625514 35.8152263,98.9160494 35.8152263,98.9160494 L33.0382716,99.6736626 Z" id="Path" fill="#4F4D59" fill-rule="nonzero"></path>
                <path d="M18.0156379,76.3201646 L18.5716049,86.1144033 C18.6311658,87.1582723 18.2848766,88.1847538 17.605144,88.9792181 C17.2978489,89.3439935 16.9477268,89.6704194 16.5623457,89.9514403 C15.2372428,90.8977366 12.3969136,100.870576 12.3969136,100.870576 C12.3969136,100.870576 15.6160494,101.059259 16.4989712,101.691564 C16.4989712,101.691564 16.6876543,99.1666667 17.1932099,98.9146091 C17.6987654,98.6625514 21.4220165,91.2808642 21.4220165,91.2808642 L25.1481481,81.68107 C25.1481481,81.68107 28.1152263,86.7942387 30.6401235,87.6771605 L30.6401235,89.823251 C30.6401235,89.823251 32.0286008,96.1347737 32.5341564,96.8290123 C33.0397119,97.523251 32.5341564,100.300206 32.5341564,100.300206 C32.5341564,100.300206 33.9860082,102.130864 37.3304527,100.173457 C37.3304527,100.173457 36.2574074,98.9736626 36.3222222,97.5218107 C36.387037,96.0699588 34.8703704,88.1179012 34.8703704,88.1179012 C34.8703704,88.1179012 35.0590535,85.0932099 33.5452675,83.194856 C32.0314815,81.2965021 29.505144,74.0473251 29.505144,74.0473251 L27.768107,70.3096708 L18.0156379,76.3201646 Z" id="Path" fill="#787C9C" fill-rule="nonzero"></path>
                <g id="Group" opacity="0.1" transform="translate(12.386831, 70.288066)" fill="#000000" fill-rule="nonzero">
                    <path d="M0.610699588,30.5853909 C0.610699588,30.5853909 3.45102881,20.6125514 4.77613169,19.6662551 C5.18350103,19.3684152 5.55175921,19.0204813 5.87222222,18.6306584 C6.52062388,17.8469421 6.84658082,16.845899 6.78395062,15.8306584 L6.22798354,6.03641975 L15.5339506,0.29526749 L15.4072016,0.0230452675 L5.65761317,6.03209877 L6.21358025,15.8263374 C6.27855973,16.8417885 5.95464715,17.8439091 5.30761317,18.6292181 C4.98715016,19.019041 4.61889198,19.3669748 4.21152263,19.6648148 C2.88641975,20.6111111 0.046090535,30.5839506 0.046090535,30.5839506 C0.046090535,30.5839506 3.26522634,30.7726337 4.14814815,31.4049383 C4.14814815,31.4049383 4.15534979,31.3069959 4.17119342,31.1471193 C2.92674897,30.7222222 0.610699588,30.5853909 0.610699588,30.5853909 Z" id="Path"></path>
                    <path d="M20.7465021,30.0179012 C20.7465021,30.0179012 21.2520576,27.2409465 20.7465021,26.5467078 C20.2409465,25.8524691 18.8467078,19.5395062 18.8467078,19.5395062 L18.8467078,17.3934156 C16.327572,16.5104938 13.3604938,11.3930041 13.3604938,11.3930041 L13.1401235,11.9691358 C13.995679,13.3259259 16.2786008,16.694856 18.2835391,17.3962963 L18.2835391,19.5423868 C18.2835391,19.5423868 19.6720165,25.8539095 20.177572,26.5481481 C20.6831276,27.2423868 20.177572,30.0193416 20.177572,30.0193416 C20.177572,30.0193416 20.881893,30.905144 22.4374486,30.7855967 C21.2779835,30.6934156 20.7465021,30.0179012 20.7465021,30.0179012 Z" id="Path"></path>
                </g>
                <path d="M39.7314815,65.3376543 L38.491358,65.4197531 L37.8374486,65.462963 L37.8374486,63.8786008 L38.7016461,63.7230453 L39.2331276,63.6265432 C39.2331276,63.6265432 40.8736626,58.7668724 42.4522634,59.6497942 C44.0308642,60.532716 39.7314815,65.3376543 39.7314815,65.3376543 Z" id="Path" fill="#714B4F" fill-rule="nonzero"></path>
                <path d="M19.8462963,52.3358025 C19.8462963,52.3358025 19.0253086,55.4915638 18.773251,57.4489712 C18.5211934,59.4063786 24.6425926,57.8277778 24.6425926,57.8277778 C24.6425926,57.8277778 22.3078189,54.9874486 23.6343621,53.4722222 L19.8462963,52.3358025 Z" id="Path" fill="#714B4F" fill-rule="nonzero"></path>
                <path d="M26.4804527,65.4644033 L26.6072016,66.6641975 L24.6512346,66.5374486 L22.6866255,64.8292181 L20.7306584,59.3415638 L19.46893,57.3855967 L18.5211934,56.1872428 L18.9,54.7353909 C18.9,54.7353909 19.0728395,54.8794239 19.3652263,55.1098765 C20.3259259,55.8458848 22.5814815,57.3740741 24.2292181,56.9520576 C24.3054592,56.9330467 24.3804911,56.909479 24.4539095,56.8814815 L26.9125514,61.1088477 L26.4804527,65.4644033 Z" id="Path" fill="#E6E6F0" fill-rule="nonzero"></path>
                <path d="M19.4041152,54.355144 C19.4041152,54.355144 18.3958848,54.5438272 17.7002058,56.0590535 C17.1658436,57.2242798 15.3639918,58.4255144 14.5588477,58.9195473 C14.2487346,59.1092367 14.0284808,59.4162415 13.9481481,59.7707819 C13.7853909,60.4909465 13.7234568,61.8304527 14.6078189,63.7604938 C15.9962963,66.7851852 17.0059671,68.1160494 17.0059671,68.1160494 C17.0059671,68.1160494 17.2580247,71.1407407 16.8792181,72.0294239 C16.5004115,72.918107 16.8792181,77.7734568 16.8792181,77.7734568 C16.8792181,77.7734568 23.5047325,79.0351852 25.7156379,77.7734568 C27.9265432,76.5117284 27.6096708,71.6506173 27.6096708,71.6506173 C27.6096708,71.6506173 29.6923868,76.063786 30.45,76.194856 L30.0078189,73.7333333 C30.0078189,73.7333333 27.5462963,71.0816872 27.4152263,67.6738683 C27.4152263,67.6738683 26.6576132,64.5814815 27.2884774,63.7604938 C27.2884774,63.7604938 37.9555556,64.644856 38.5864198,63.8872428 C38.5864198,63.8872428 31.5806584,63.5718107 30.5076132,61.8707819 C30.5076132,61.8707819 27.4152263,59.4092593 27.2884774,57.7687243 C27.250884,57.1430862 26.8931261,56.5811286 26.3421811,56.2823045 C25.9128196,56.0382024 25.4201719,55.9283349 24.9277778,55.9668724 L23.5018519,56.0648148 C23.5018519,56.0648148 25.9633745,60.4203704 25.8366255,60.9878601 C25.7098765,61.5553498 25.9633745,66.162963 25.9633745,66.162963 C25.9633745,66.162963 23.1288066,60.0358025 21.8713992,59.3415638 C20.6139918,58.6473251 19.1578189,55.7969136 19.1578189,55.7969136 L19.4098765,54.3565844" id="Path" fill="#000000" fill-rule="nonzero" opacity="0.1"></path>
                <path d="M26.4804527,65.4644033 L26.6072016,66.6641975 L24.6512346,66.5374486 L22.6866255,64.8292181 L20.7306584,59.3415638 L19.46893,57.3855967 L18.5211934,56.1872428 L18.9,54.7353909 C18.9,54.7353909 19.0728395,54.8794239 19.3652263,55.1098765 L19.2788066,55.6111111 C19.2788066,55.6111111 20.7306584,58.4615226 21.9923868,59.1557613 C23.2541152,59.85 26.0944444,65.9728395 26.0944444,65.9728395 C26.0944444,65.9728395 25.8423868,61.363786 25.9676955,60.7977366 C26.0541152,60.4117284 24.9479424,58.2843621 24.2292181,56.9549383 C24.3054592,56.9359274 24.3804911,56.9123597 24.4539095,56.8843621 L26.9125514,61.1088477 L26.4804527,65.4644033 Z" id="Path" fill="#000000" fill-rule="nonzero" opacity="0.1"></path>
                <path d="M38.4884774,65.4211934 L37.8345679,65.4644033 L37.8345679,63.8800412 L38.6987654,63.7244856 C38.394856,64.1263374 38.4049383,64.8292181 38.4884774,65.4211934 Z" id="Path" fill="#000000" fill-rule="nonzero" opacity="0.1"></path>
                <path d="M19.4041152,54.1707819 C19.4041152,54.1707819 18.3958848,54.359465 17.7002058,55.8746914 C17.1658436,57.0399177 15.3639918,58.2411523 14.5588477,58.7351852 C14.2487346,58.9248746 14.0284808,59.2318794 13.9481481,59.5864198 C13.7853909,60.3065844 13.7234568,61.6460905 14.6078189,63.5761317 C15.9962963,66.600823 17.0059671,67.9316872 17.0059671,67.9316872 C17.0059671,67.9316872 17.2580247,70.9563786 16.8792181,71.8450617 C16.5004115,72.7337449 16.8792181,77.5890947 16.8792181,77.5890947 C16.8792181,77.5890947 23.5047325,78.850823 25.7156379,77.5890947 C27.9265432,76.3273663 27.6096708,71.4547325 27.6096708,71.4547325 C27.6096708,71.4547325 29.6923868,75.8736626 30.45,75.9989712 L30.0078189,73.5374486 C30.0078189,73.5374486 27.5462963,70.8858025 27.4152263,67.4779835 C27.4152263,67.4779835 26.6576132,64.3855967 27.2884774,63.5646091 C27.2884774,63.5646091 29.75,66.2162551 32.5269547,66.1572016 C35.3039095,66.0981481 38.5864198,66.4726337 38.5864198,66.4726337 C38.5864198,66.4726337 37.9555556,64.4561728 38.5864198,63.695679 C38.5864198,63.695679 31.5806584,63.3802469 30.5076132,61.6792181 C30.5076132,61.6792181 27.4152263,59.2176955 27.2884774,57.5771605 C27.250884,56.9515225 26.8931261,56.3895648 26.3421811,56.0907407 C25.9128196,55.8466386 25.4201719,55.7367711 24.9277778,55.7753086 L23.5018519,55.873251 C23.5018519,55.873251 25.9691358,60.2201646 25.8423868,60.7962963 C25.7156379,61.372428 25.9691358,65.9713992 25.9691358,65.9713992 C25.9691358,65.9713992 23.1288066,59.8471193 21.8713992,59.1528807 C20.6139918,58.458642 19.1520576,55.6111111 19.1520576,55.6111111 L19.4041152,54.1707819" id="Path" fill="#787C9C" fill-rule="nonzero"></path>
                <path d="M18.0156379,60.7962963 C18.0156379,60.7962963 19.5308642,65.909465 20.413786,66.5403292 C21.2967078,67.1711934 26.6619342,70.3903292 28.240535,69.632716 C28.240535,69.632716 28.6193416,71.526749 28.0518519,71.9674897 C28.0518519,71.9674897 22.1666667,71.737037 22.1191358,71.7154321 C22.1191358,71.7154321 18.2691358,71.2098765 17.6382716,69.317284 C17.0074074,67.4246914 16.2497942,64.2041152 16.2497942,64.2041152 L18.0156379,60.7962963 Z" id="Path" fill="#000000" fill-rule="nonzero" opacity="0.1"></path>
                <ellipse id="Oval" fill="#BA7855" fill-rule="nonzero" cx="26.0958848" cy="66.2537037" rx="1" ry="1"></ellipse>
                <ellipse id="Oval" fill="#BA7855" fill-rule="nonzero" cx="26.726749" cy="68.4631687" rx="1" ry="1"></ellipse>
                <g id="Group" opacity="0.1" transform="translate(13.827160, 54.156379)" fill="#000000" fill-rule="nonzero">
                    <path d="M3.49423868,23.3635802 C3.49423868,23.3635802 3.1154321,18.5039095 3.49423868,17.6195473 C3.87304527,16.7351852 3.62098765,13.7061728 3.62098765,13.7061728 C3.62098765,13.7061728 2.6127572,12.38107 1.22283951,9.35061728 C0.338477366,7.42057613 0.401851852,6.08106996 0.563168724,5.36090535 C0.643847193,5.0061189 0.864649649,4.6990736 1.17530864,4.50967078 C1.98045267,4.01563786 3.78230453,2.81440329 4.31522634,1.64917695 C4.70699588,0.795061728 5.19814815,0.361522634 5.55390947,0.14691358 L5.57839506,0.00288065844 C5.57839506,0.00288065844 4.57016461,0.191563786 3.8744856,1.70679012 C3.34012346,2.87201646 1.5382716,4.07325103 0.734567901,4.56728395 C0.423908908,4.75668677 0.203106453,5.06373207 0.122427984,5.41851852 C-0.0403292181,6.13868313 -0.102263374,7.4781893 0.782098765,9.40823045 C2.17057613,12.4329218 3.18024691,13.763786 3.18024691,13.763786 C3.18024691,13.763786 3.43230453,16.7884774 3.05349794,17.6771605 C2.67469136,18.5658436 3.05349794,23.4211934 3.05349794,23.4211934 C3.05349794,23.4211934 7.78786008,24.3228395 10.5878601,23.8403292 C7.75617284,24.1759259 3.49423868,23.3635802 3.49423868,23.3635802 Z" id="Path"></path>
                    <path d="M12.0152263,6.6399177 C11.9288066,7.02880658 12.0152263,9.31604938 12.0858025,10.7160494 C12.3911523,11.3397119 12.582716,11.7516461 12.582716,11.7516461 C12.582716,11.7516461 12.3306584,7.14259259 12.4559671,6.57654321 C12.5755144,6.03641975 10.3588477,2.0755144 10.1384774,1.67942387 L9.67901235,1.71111111 C9.67901235,1.71111111 12.1419753,6.06378601 12.0152263,6.6399177 Z" id="Path"></path>
                    <path d="M19.1477366,11.9388889 C16.3707819,12.0022634 13.9092593,9.3462963 13.9092593,9.3462963 C13.8348183,9.44945312 13.7805717,9.5657657 13.7493827,9.68909465 C14.4695473,10.3674897 16.4860082,12.0483539 18.7055556,11.9936214 C21.4825103,11.9302469 24.7650206,12.3090535 24.7650206,12.3090535 C24.7650206,12.3090535 24.7520576,12.267284 24.731893,12.1952675 C22.8767072,12.006251 21.0124374,11.920659 19.1477366,11.9388889 Z" id="Path"></path>
                    <path d="M14.2246914,17.2407407 C14.2246914,17.2407407 14.2506173,17.6353909 14.236214,18.2273663 C14.8930041,19.5236626 16.0884774,21.7590535 16.6228395,21.8483539 L16.5292181,21.3298354 C15.6074074,20.1790123 14.2246914,17.2407407 14.2246914,17.2407407 Z" id="Path"></path>
                </g>
                <path d="M29.8191358,70.7662551 L28.4781893,71.054321 L27.4209877,71.277572 L27.9884774,69.6932099 L28.3831276,69.5938272 L28.9981481,69.4411523 C28.9981481,69.4411523 29.8825103,65.0222222 31.6497942,65.3390947 C33.4170782,65.6559671 29.8191358,70.7662551 29.8191358,70.7662551 Z" id="Path" fill="#714B4F" fill-rule="nonzero"></path>
                <path d="M28.4781893,71.0485597 L27.4209877,71.2718107 L27.9884774,69.6874486 L28.3831276,69.5880658 C28.4714093,70.0695554 28.5033115,70.5596888 28.4781893,71.0485597 Z" id="Path" fill="#000000" fill-rule="nonzero" opacity="0.1"></path>
                <path d="M18.0156379,60.6666667 C18.0156379,60.6666667 19.5308642,65.7798354 20.413786,66.4106996 C21.2967078,67.0415638 26.6619342,70.2606996 28.240535,69.5030864 C28.240535,69.5030864 28.6193416,71.3971193 28.0518519,71.8378601 C28.0518519,71.8378601 22.1666667,71.6074074 22.1191358,71.5858025 C22.1191358,71.5858025 18.2691358,71.0802469 17.6382716,69.1876543 C17.0074074,67.2950617 16.2497942,64.0744856 16.2497942,64.0744856 L18.0156379,60.6666667 Z" id="Path" fill="#787C9C" fill-rule="nonzero"></path>
                <path d="M19.9096708,52.4625514 C19.9096708,52.4625514 19.7814815,52.9565844 19.6100823,53.6753086 C20.3299656,55.0348712 21.8717607,55.7431997 23.3722222,55.4037037 C23.2209877,54.7555556 23.2541152,54.1074074 23.6977366,53.5932099 L19.9096708,52.4625514 Z" id="Path" fill="#000000" fill-rule="nonzero" opacity="0.1"></path>
                <circle id="Oval" fill="#714B4F" fill-rule="nonzero" cx="22.5613169" cy="51.9569959" r="3.40781893"></circle>
                <path d="M25.5197531,51.0193416 C25.7671847,51.0880407 26.0263296,51.1037464 26.2802469,51.0654321 C26.8117284,50.9559671 27.190535,50.4158436 27.2034979,49.8728395 C27.1927323,49.3219421 26.9345979,48.8051443 26.5006173,48.4656379 C26.2125514,48.2251029 25.8668724,48.0537037 25.6032922,47.7858025 C25.2907407,47.4674897 25.1207819,47.0382716 24.8831276,46.663786 C24.4759708,46.0410563 23.8720751,45.5725428 23.1676955,45.3329218 C22.644856,45.1557613 22.0053498,45.1355967 21.6034979,45.5158436 C21.3975309,45.7102881 21.2765432,45.9911523 21.0460905,46.1553498 C20.7119342,46.3930041 20.2596708,46.322428 19.8520572,46.3699588 C19.1017538,46.4853017 18.4583641,46.9671686 18.1366255,47.6547325 C17.8271061,48.3405955 17.7679808,49.1133018 17.9695473,49.8382716 C18.0487654,50.1479424 18.1639918,50.4489712 18.2489712,50.7572016 C18.4261317,51.3995885 18.4679012,52.0736626 18.672428,52.7074074 C18.8769547,53.3411523 19.2989712,53.9604938 19.937037,54.1477366 C19.8865553,53.4372571 20.0267798,52.7261894 20.3432099,52.0880658 C20.3955917,51.9490404 20.4984507,51.8348669 20.6312757,51.7683128 C20.7451392,51.7391072 20.8645316,51.7391072 20.9783951,51.7683128 C21.7775012,51.8868178 22.5928748,51.7217046 23.2829218,51.3016461 C23.5248971,51.1576132 23.9022634,50.6520576 24.1615226,50.6016461 C24.4927984,50.5425926 25.1740741,50.9415638 25.5197531,51.0193416 Z" id="Path" fill="#000000" fill-rule="nonzero" opacity="0.1"></path>
                <path d="M25.5197531,50.8925926 C25.7671847,50.9612917 26.0263296,50.9769975 26.2802469,50.9386831 C26.8117284,50.8292181 27.190535,50.2890947 27.2034979,49.7460905 C27.1927323,49.1951932 26.9345979,48.6783953 26.5006173,48.3388889 C26.2125514,48.0983539 25.8668724,47.9269547 25.6032922,47.6590535 C25.2907407,47.3407407 25.1207819,46.9115226 24.8831276,46.537037 C24.4759708,45.9143074 23.8720751,45.4457938 23.1676955,45.2061728 C22.644856,45.0290123 22.0053498,45.0088477 21.6034979,45.3890947 C21.3975309,45.5835391 21.2765432,45.8644033 21.0460905,46.0286008 C20.7119342,46.2662551 20.2596708,46.195679 19.8520576,46.2432099 C19.1017538,46.3585527 18.4583641,46.8404197 18.1366255,47.5279835 C17.8284817,48.2121644 17.7693755,48.9825826 17.9695473,49.7057613 C18.0487654,50.0154321 18.1639918,50.3164609 18.2489712,50.6246914 C18.4261317,51.2670782 18.4679012,51.9411523 18.672428,52.5748971 C18.8769547,53.208642 19.2989712,53.8279835 19.937037,54.0152263 C19.8865553,53.3047468 20.0267798,52.5936791 20.3432099,51.9555556 C20.3955917,51.8165301 20.4984507,51.7023566 20.6312757,51.6358025 C20.7451392,51.6065969 20.8645316,51.6065969 20.9783951,51.6358025 C21.7775012,51.7543075 22.5928748,51.5891943 23.2829218,51.1691358 C23.5248971,51.0251029 23.9022634,50.5195473 24.1615226,50.4691358 C24.4927984,50.4158436 25.1740741,50.8162551 25.5197531,50.8925926 Z" id="Path" fill="#503F43" fill-rule="nonzero"></path>
                <rect id="Rectangle" fill="#FAFBFC" fill-rule="nonzero" x="32.5989712" y="15.5325103" width="74.4290123" height="89.0123457"></rect>
                <rect id="Rectangle" fill="#7983A6" fill-rule="nonzero" x="32.5989712" y="15.5325103" width="74.4290123" height="3.01748971"></rect>
                <g id="Group" opacity="0.5" transform="translate(42.633745, 45.802469)" stroke="#7983A6">
                    <line x1="0.0230452675" y1="0.32" x2="0.887242798" y2="0.32" id="Path"></line>
                    <line x1="2.58395062" y1="0.32" x2="52.6238683" y2="0.32" id="Path" stroke-dasharray="11.78"></line>
                    <line x1="53.4722222" y1="0.32" x2="54.3364198" y2="0.32" id="Path"></line>
                </g>
                <g id="Group" opacity="0.5" transform="translate(42.633745, 39.897119)" stroke="#7983A6">
                    <line x1="0.0230452675" y1="0.31" x2="0.887242798" y2="0.31" id="Path"></line>
                    <line x1="2.58395062" y1="0.31" x2="52.6238683" y2="0.31" id="Path" stroke-dasharray="11.78"></line>
                    <line x1="53.4722222" y1="0.31" x2="54.3364198" y2="0.31" id="Path"></line>
                </g>
                <g id="Group" opacity="0.5" transform="translate(42.633745, 33.991770)" stroke="#7983A6">
                    <line x1="0.0230452675" y1="0.295" x2="0.887242798" y2="0.295" id="Path"></line>
                    <line x1="2.58395062" y1="0.295" x2="52.6238683" y2="0.295" id="Path" stroke-dasharray="11.78"></line>
                    <line x1="53.4722222" y1="0.295" x2="54.3364198" y2="0.295" id="Path"></line>
                </g>
                <g id="Group" opacity="0.5" transform="translate(42.633745, 28.086420)" stroke="#7983A6">
                    <line x1="0.0230452675" y1="0.285" x2="0.887242798" y2="0.285" id="Path"></line>
                    <line x1="2.58395062" y1="0.285" x2="52.6238683" y2="0.285" id="Path" stroke-dasharray="11.78"></line>
                    <line x1="53.4722222" y1="0.285" x2="54.3364198" y2="0.285" id="Path"></line>
                </g>
                <g id="Group" opacity="0.3" transform="translate(45.226337, 39.897119)" fill="#FF9E2D" fill-rule="nonzero">
                    <rect id="Rectangle" x="0.133950617" y="0.0893004115" width="3.89753086" height="11.8179012"></rect>
                </g>
                <rect id="Rectangle" fill="#FF9E2D" fill-rule="nonzero" x="56.2347737" y="34.0133745" width="3.89753086" height="17.8528807"></rect>
                <g id="Group" opacity="0.3" transform="translate(66.975309, 45.802469)" fill="#FF9E2D" fill-rule="nonzero">
                    <rect id="Rectangle" x="0.135390947" y="0.0288065844" width="3.89753086" height="6.09691358"></rect>
                </g>
                <rect id="Rectangle" fill="#FF9E2D" fill-rule="nonzero" x="77.9851852" y="27.9798354" width="3.89753086" height="23.8878601"></rect>
                <g id="Group" opacity="0.3" transform="translate(88.724280, 33.703704)" fill="#FF9E2D" fill-rule="nonzero">
                    <rect id="Rectangle" x="0.135390947" y="0.0590534979" width="3.89753086" height="18.0415638"></rect>
                </g>
                <circle id="Oval" fill="#FF9E2D" fill-rule="nonzero" cx="47.3090535" cy="54.5063786" r="1.00534979"></circle>
                <circle id="Oval" fill="#FF9E2D" fill-rule="nonzero" cx="58.2469136" cy="54.5063786" r="1.00534979"></circle>
                <circle id="Oval" fill="#FF9E2D" fill-rule="nonzero" cx="69.1847737" cy="54.5063786" r="1.00534979"></circle>
                <circle id="Oval" fill="#FF9E2D" fill-rule="nonzero" cx="80.1226337" cy="54.5063786" r="1.00534979"></circle>
                <circle id="Oval" fill="#FF9E2D" fill-rule="nonzero" cx="91.0604938" cy="54.5063786" r="1.00534979"></circle>
                <g id="Group" opacity="0.5" transform="translate(42.633745, 83.683128)" stroke="#7983A6">
                    <line x1="0.0230452675" y1="0.625" x2="0.887242798" y2="0.625" id="Path"></line>
                    <line x1="2.58395062" y1="0.625" x2="52.6238683" y2="0.625" id="Path" stroke-dasharray="11.78"></line>
                    <line x1="53.4722222" y1="0.625" x2="54.3364198" y2="0.625" id="Path"></line>
                </g>
                <g id="Group" opacity="0.5" transform="translate(42.633745, 77.777778)" stroke="#7983A6">
                    <line x1="0.0230452675" y1="0.615" x2="0.887242798" y2="0.615" id="Path"></line>
                    <line x1="2.58395062" y1="0.615" x2="52.6238683" y2="0.615" id="Path" stroke-dasharray="11.78"></line>
                    <line x1="53.4722222" y1="0.615" x2="54.3364198" y2="0.615" id="Path"></line>
                </g>
                <g id="Group" opacity="0.5" transform="translate(42.633745, 71.872428)" stroke="#7983A6">
                    <line x1="0.0230452675" y1="0.6" x2="0.887242798" y2="0.6" id="Path"></line>
                    <line x1="2.58395062" y1="0.6" x2="52.6238683" y2="0.6" id="Path" stroke-dasharray="11.78"></line>
                    <line x1="53.4722222" y1="0.6" x2="54.3364198" y2="0.6" id="Path"></line>
                </g>
                <g id="Group" opacity="0.5" transform="translate(42.633745, 65.967078)" stroke="#7983A6">
                    <line x1="0.0230452675" y1="0.59" x2="0.887242798" y2="0.59" id="Path"></line>
                    <line x1="2.58395062" y1="0.59" x2="52.6238683" y2="0.59" id="Path" stroke-dasharray="11.78"></line>
                    <line x1="53.4722222" y1="0.59" x2="54.3364198" y2="0.59" id="Path"></line>
                </g>
                <rect id="Rectangle" fill="#FF9E2D" fill-rule="nonzero" x="45.3602881" y="77.9549383" width="3.89753086" height="11.8179012"></rect>
                <rect id="Rectangle" fill="#FF9E2D" fill-rule="nonzero" x="56.2347737" y="77.8915638" width="3.89753086" height="11.9432099"></rect>
                <rect id="Rectangle" fill="#FF9E2D" fill-rule="nonzero" x="67.1106996" y="83.8012346" width="3.89753086" height="6.09691358"></rect>
                <rect id="Rectangle" fill="#FF9E2D" fill-rule="nonzero" x="77.9851852" y="65.9483539" width="3.89753086" height="23.8878601"></rect>
                <rect id="Rectangle" fill="#FF9E2D" fill-rule="nonzero" x="103.695062" y="51.8547325" width="3.89753086" height="18.0415638"></rect>
                <g id="Group" opacity="0.7" transform="translate(46.234568, 91.460905)" fill="#FF9E2D" fill-rule="nonzero">
                    <circle id="Oval" cx="1.0744856" cy="1.01399177" r="1.00534979"></circle>
                </g>
                <g id="Group" opacity="0.7" transform="translate(57.181070, 91.460905)" fill="#FF9E2D" fill-rule="nonzero">
                    <circle id="Oval" cx="1.06584362" cy="1.01399177" r="1.00534979"></circle>
                </g>
                <g id="Group" opacity="0.7" transform="translate(68.127572, 91.460905)" fill="#FF9E2D" fill-rule="nonzero">
                    <circle id="Oval" cx="1.05720165" cy="1.01399177" r="1.00534979"></circle>
                </g>
                <g id="Group" opacity="0.7" transform="translate(79.074074, 91.460905)" fill="#FF9E2D" fill-rule="nonzero">
                    <circle id="Oval" cx="1.04855967" cy="1.01399177" r="1.00534979"></circle>
                </g>
                <g id="Group" opacity="0.7" transform="translate(90.020576, 91.460905)" fill="#FF9E2D" fill-rule="nonzero">
                    <circle id="Oval" cx="1.0399177" cy="1.01399177" r="1.00534979"></circle>
                </g>
                <path d="M27.0853909,104.219342 C27.3493701,104.004136 27.5417455,103.713815 27.637037,103.386831 C27.7090535,103.055556 27.5679012,102.659465 27.2510288,102.538477 C26.8967078,102.403086 26.5179012,102.647942 26.2312757,102.897119 C25.9446502,103.146296 25.6148148,103.428601 25.2388889,103.375309 C25.6319156,103.01904 25.809084,102.482614 25.7055556,101.962346 C25.6893059,101.856334 25.6444926,101.756749 25.5759259,101.67428 C25.3786008,101.463992 25.0228395,101.554733 24.7866255,101.72037 C24.0376543,102.247531 23.8288066,103.264403 23.8244856,104.180453 C23.7495885,103.850617 23.812963,103.506379 23.8100823,103.172222 C23.8072016,102.838066 23.7150206,102.452058 23.4298354,102.276337 C23.2529905,102.181317 23.0543884,102.134149 22.8537037,102.139506 C22.5166667,102.126543 22.1421811,102.161111 21.9117284,102.407407 C21.6236626,102.712757 21.7,103.226955 21.949177,103.559671 C22.1983539,103.892387 22.5757202,104.106996 22.9242798,104.340329 C23.2036364,104.50641 23.441925,104.733375 23.6213992,105.004321 C23.6425082,105.041897 23.6598755,105.081456 23.673251,105.122428 L25.7833333,105.122428 C26.2561066,104.881518 26.6941008,104.577732 27.0853909,104.219342 L27.0853909,104.219342 Z" id="Path" fill="#FF9E2D" fill-rule="nonzero"></path>
                <path d="M129.636831,102.490947 C129.90081,102.275741 130.093186,101.98542 130.188477,101.658436 C130.260494,101.32716 130.119342,100.93107 129.802469,100.810082 C129.448148,100.674691 129.069342,100.919547 128.782716,101.168724 C128.496091,101.417901 128.166255,101.700206 127.790329,101.646914 C128.183356,101.290645 128.360524,100.754219 128.256996,100.233951 C128.240746,100.127939 128.195933,100.028354 128.127366,99.9458848 C127.930041,99.7355967 127.57428,99.8263374 127.338066,99.9919753 C126.589095,100.519136 126.380247,101.536008 126.375926,102.452058 C126.301029,102.122222 126.364403,101.777984 126.361523,101.443827 C126.358642,101.109671 126.266461,100.723663 125.981276,100.547942 C125.804431,100.452922 125.605829,100.405754 125.405144,100.411111 C125.068107,100.398148 124.693621,100.432716 124.463169,100.679012 C124.175103,100.984362 124.25144,101.49856 124.500617,101.831276 C124.749794,102.163992 125.12716,102.378601 125.47572,102.611934 C125.755077,102.778015 125.993365,103.00498 126.17284,103.275926 C126.193948,103.313502 126.211316,103.353061 126.224691,103.394033 L128.334774,103.394033 C128.807547,103.153123 129.245541,102.849337 129.636831,102.490947 L129.636831,102.490947 Z" id="Path" fill="#FF9E2D" fill-rule="nonzero"></path>
                <path d="M114.715021,67.6320988 L113.66214,67.5096708 L105.596296,66.5720165 C100.700617,65.0251029 103.797325,62.6687243 103.797325,62.6687243 L107.05679,65.7654321 C107.997325,65.9541152 111.684568,65.5148148 113.336626,65.3030864 C113.832099,65.2382716 114.14465,65.1950617 114.14465,65.1950617 L114.715021,67.6320988 Z" id="Path" fill="#FDC2CC" fill-rule="nonzero"></path>
                <path d="M122.618107,56.4753086 C122.618107,56.4753086 120.499383,54.7641975 117.322016,60.305144 C114.14465,65.8460905 113.411523,64.9487654 113.411523,64.9487654 C113.411523,64.9487654 114.063992,67.3973251 113.737037,67.882716 C113.737037,67.882716 115.93642,67.7199588 116.751646,67.882716 C117.566872,68.0454733 122.618107,61.6893004 122.618107,61.6893004 C122.618107,61.6893004 125.226543,58.1 122.618107,56.4753086 Z" id="Path" fill="#F68080" fill-rule="nonzero"></path>
                <line x1="42.6567901" y1="51.804321" x2="96.9701646" y2="51.804321" id="Path" stroke="#7983A6" stroke-width="0.5"></line>
                <line x1="42.6567901" y1="89.7728395" x2="96.9701646" y2="89.7728395" id="Path" stroke="#7983A6" stroke-width="0.5"></line>
            </g>
        </g>
    </g>
</svg>