<?xml version="1.0" encoding="UTF-8"?>
<svg width="137px" height="137px" viewBox="0 0 137 137" version="1.1" xmlns="http://www.w3.org/2000/svg" xmlns:xlink="http://www.w3.org/1999/xlink">
    <title>visualize_process_illustration_2</title>
    <g id="visualize_process_illustration_2" stroke="none" stroke-width="1" fill="none" fill-rule="evenodd">
        <g id="undraw_buy_house_560d-(5)" transform="translate(-765.000000, 87.000000)"></g>
        <g id="undraw_quiz_nlyh" transform="translate(0.000000, 25.000000)" fill-rule="nonzero">
            <rect id="Rectangle" fill="#3F3D56" x="5.94889538" y="65.2857422" width="103.767515" height="1"></rect>
            <rect id="Rectangle" x="0" y="0" width="118.883212" height="57.8522583"></rect>
            <path d="M118.883214,4.45017351 L118.883214,2.86082554 L115.227713,2.86082554 L115.227713,0 L113.638366,0 L113.638366,2.86082554 L5.24484881,2.86082554 L5.24484881,0 L3.65550085,0 L3.65550085,2.86082554 L0,2.86082554 L0,4.45017351 L3.65550085,4.45017351 L3.65550085,53.4020848 L0,53.4020848 L0,54.9914301 L3.65550085,54.9914301 L3.65550085,57.8522556 L5.24484881,57.8522556 L5.24484881,54.9914301 L113.638366,54.9914301 L113.638366,57.8522556 L115.227713,57.8522556 L115.227713,54.9914301 L118.883214,54.9914301 L118.883214,53.4020848 L115.227713,53.4020848 L115.227713,4.45017351 L118.883214,4.45017351 Z M113.638373,53.4020848 L5.24484881,53.4020848 L5.24484881,4.45017351 L113.638373,4.45017351 L113.638373,53.4020848 Z" id="Shape" fill="#000000" opacity="0.1"></path>
            <rect id="Rectangle" fill="#D0CDE1" x="52.5460276" y="7.62886944" width="18.744953" height="17.8307812"></rect>
            <rect id="Rectangle" fill="#AB6ACB" x="54.6761359" y="9.75897768" width="14.4847365" height="11.0765636"></rect>
            <rect id="Rectangle" fill="#F2F2F2" x="57.8634772" y="11.579281" width="5.07798361" height="5.07798361"></rect>
            <path d="M59.8074002,12.8491071 L59.8074002,19.015238 L65.9735337,19.015238 L65.9735337,12.8491071 L59.8074002,12.8491071 Z M65.7060733,18.7477696 L60.0748567,18.7477696 L60.0748567,13.1165636 L65.7060733,13.1165636 L65.7060733,18.7477696 Z" id="Shape" fill="#3F3D56"></path>
            <rect id="Rectangle" fill="#F2F2F2" x="54.6617899" y="21.9349617" width="7.87871675" height="1"></rect>
            <circle id="Oval" fill="#3F3D56" cx="61.9185028" cy="8.66554197" r="1"></circle>
            <rect id="Rectangle" fill="#D0CDE1" x="59.6156808" y="33.3462162" width="18.744953" height="17.8307812"></rect>
            <rect id="Rectangle" fill="#AB6ACB" x="61.745789" y="35.4763244" width="14.4847365" height="11.0765636"></rect>
            <rect id="Rectangle" fill="#F2F2F2" x="61.7314443" y="47.8596434" width="7.87871675" height="1"></rect>
            <rect id="Rectangle" fill="#F2F2F2" x="61.7314443" y="49.103651" width="7.87871675" height="1"></rect>
            <circle id="Oval" fill="#3F3D56" cx="64.3231276" cy="41.0175992" r="1.65867763"></circle>
            <circle id="Oval" fill="#F2F2F2" cx="68.9881573" cy="41.0175992" r="1.65867763"></circle>
            <circle id="Oval" fill="#FF6584" cx="73.6531883" cy="41.0175992" r="1.65867763"></circle>
            <circle id="Oval" fill="#3F3D56" cx="68.9881573" cy="34.38289" r="1"></circle>
            <rect id="Rectangle" fill="#D0CDE1" x="30.9276271" y="27.7749969" width="18.744953" height="17.8307812"></rect>
            <rect id="Rectangle" fill="#AB6ACB" x="33.0577354" y="29.9051051" width="14.4847365" height="11.0765636"></rect>
            <circle id="Oval" fill="#F2F2F2" cx="39.3356329" cy="36.7378883" r="3.5166777"></circle>
            <path d="M40.3721614,39.4503879 C37.9370879,39.4503879 35.9630707,37.4763707 35.9630707,35.0412972 C35.9630707,32.6062237 37.9370879,30.6322065 40.3721614,30.6322065 C42.807235,30.6322065 44.7812521,32.6062237 44.7812521,35.0412972 C44.7785029,37.4752311 42.8060953,39.4476387 40.3721614,39.4503879 Z M40.3721614,30.7925375 C38.6536979,30.7925375 37.1044453,31.827715 36.4468179,33.4153684 C35.7891905,35.0030217 36.1526967,36.8304897 37.3678341,38.0456267 C38.5829715,39.2607638 40.4104396,39.6242694 41.9980928,38.9666415 C43.5857459,38.3090136 44.6209225,36.7597608 44.6209225,35.0412972 C44.6182876,32.6958637 42.7175949,30.7951716 40.3721614,30.7925375 L40.3721614,30.7925375 Z" id="Shape" fill="#3F3D56"></path>
            <rect id="Rectangle" fill="#F2F2F2" x="33.0433907" y="43.3250967" width="7.87871675" height="1"></rect>
            <rect id="Rectangle" fill="#F2F2F2" x="33.0433907" y="42.0810891" width="10.988737" height="1"></rect>
            <circle id="Oval" fill="#3F3D56" cx="40.3001036" cy="28.8116707" r="1"></circle>
            <rect id="Rectangle" fill="#D0CDE1" x="10.3249713" y="7.31099905" width="18.744953" height="17.8307812"></rect>
            <rect id="Rectangle" fill="#AB6ACB" x="12.4550795" y="9.44110861" width="14.4847365" height="11.0765636"></rect>
            <rect id="Rectangle" fill="#3F3D56" x="18.139413" y="18.1124146" width="3.1160683" height="1"></rect>
            <rect id="Rectangle" fill="#3F3D56" x="14.3722274" y="10.9229453" width="10.6504408" height="1"></rect>
            <rect id="Rectangle" fill="#3F3D56" x="14.3722274" y="12.1761557" width="10.6504408" height="1"></rect>
            <rect id="Rectangle" fill="#3F3D56" x="14.3722274" y="13.4293662" width="10.6504408" height="1"></rect>
            <rect id="Rectangle" fill="#3F3D56" x="14.3722274" y="14.6825767" width="10.6504408" height="1"></rect>
            <rect id="Rectangle" fill="#3F3D56" x="14.3722274" y="15.9357872" width="10.6504408" height="1"></rect>
            <rect id="Rectangle" fill="#F2F2F2" x="12.4407335" y="21.6170913" width="7.87871675" height="1"></rect>
            <rect id="Rectangle" fill="#F2F2F2" x="12.4407335" y="22.6537651" width="10.988737" height="1"></rect>
            <circle id="Oval" fill="#3F3D56" cx="19.6974478" cy="8.3476729" r="1"></circle>
            <path d="M86.5056141,18.95936 L100.081122,19.9568045 L103.920261,20.2388766 L103.681859,20.0004741 L104.402854,30.4295099 L104.763352,35.6440285 C104.777917,35.8547152 104.792862,36.0653795 104.807048,36.2760913 C104.818841,36.4512716 104.867079,36.6200511 104.659577,36.6632847 C104.246978,36.7492486 103.817363,36.7850443 103.399371,36.8377939 C102.549726,36.9450186 101.698166,37.0352448 100.844691,37.1084726 C97.4299044,37.4016127 93.9972322,37.4231331 90.5790389,37.1728309 C89.7249419,37.1102795 88.8723214,37.0306808 88.0211776,36.9340348 C87.7046375,36.8981122 87.3117501,36.8846249 87.1961588,36.5296945 C87.0769662,36.1637103 87.0565073,35.7476689 87.0026321,35.3679451 C86.7626042,33.6761717 86.5990343,31.9757269 86.5119224,30.2666107 C86.3345295,26.8603584 86.4552269,23.4451189 86.8726367,20.0598875 C86.923808,19.6453301 86.9796843,19.2314096 87.0402655,18.8181258 C87.0840421,18.5179769 86.6246825,18.3883963 86.5804938,18.6913711 C86.0679697,22.1896429 85.8708327,25.7268936 85.9914611,29.2604521 C86.0530464,31.0282911 86.1945659,32.7909126 86.4160198,34.5483165 C86.4720502,34.9921886 86.5328868,35.4354239 86.5985297,35.8780224 C86.6508565,36.2301943 86.663744,36.6455104 86.8733501,36.948143 C87.0755737,37.2401195 87.4151672,37.3337854 87.748899,37.3782754 C88.1736558,37.4348999 88.6012279,37.4754767 89.0276678,37.5170854 C92.5681908,37.8623088 96.1311509,37.9150137 99.680336,37.6746644 C100.573602,37.6141484 101.465353,37.5351301 102.355591,37.4376095 C102.794132,37.3895411 103.232148,37.3369729 103.66964,37.2799049 C103.883774,37.2519712 104.097781,37.2230828 104.311663,37.1932396 C104.511334,37.1790605 104.709048,37.1446365 104.901761,37.0904975 C105.303487,36.9456633 105.303354,36.5581739 105.27839,36.1970725 L105.185535,34.8539401 L104.999824,32.1676727 L104.251519,21.3435973 L104.158663,20.0004635 C104.154995,19.8703475 104.050377,19.7657295 103.920261,19.7620624 L90.344753,18.7646178 L86.5056141,18.4825432 C86.199495,18.4600511 86.2009245,18.9369604 86.5056141,18.9593468 L86.5056141,18.95936 Z" id="Path" fill="#D0CDE1"></path>
            <path d="M92.3233144,24.5883623 C92.391858,24.4063664 92.2194957,24.7983634 92.3060554,24.6249322 C92.3290587,24.578841 92.3505572,24.5322478 92.3749464,24.4868251 C92.4235185,24.396485 92.477326,24.309059 92.5360938,24.224994 C92.5946062,24.1412033 92.6835135,24.1088848 92.51048,24.254628 C92.5463083,24.2179382 92.5798402,24.1790742 92.610885,24.1382572 C92.6916526,24.0497285 92.7777718,23.9662348 92.8687581,23.8882461 C92.9341178,23.8321527 93.0578471,23.7844154 92.8364765,23.9086495 C92.8802492,23.8840767 92.9208722,23.8472941 92.9626896,23.819178 C93.0484478,23.7615218 93.1368954,23.7081644 93.2280323,23.659106 C93.2735757,23.634572 93.3196942,23.6111494 93.3663878,23.5888384 C93.4456734,23.5509487 93.5777086,23.5379172 93.3280899,23.6017853 C93.4352405,23.5743708 93.5389325,23.5236729 93.6461016,23.4932528 C93.7371707,23.467402 93.8292479,23.4456454 93.922333,23.4279829 C94.0054868,23.4123131 94.1563903,23.4241517 93.872433,23.4306793 C93.9232102,23.4295128 93.9751817,23.419714 94.0259959,23.4162791 C94.128396,23.4092968 94.2310947,23.4077582 94.333658,23.4116697 C94.3849266,23.4136514 94.4358122,23.4187351 94.4869831,23.4217908 C94.6569806,23.4319423 94.2297018,23.3745714 94.4869276,23.4235796 C94.5878253,23.442752 94.6874965,23.4678944 94.7854158,23.4988741 C94.8328709,23.5192521 94.8816603,23.5363708 94.9314443,23.5501111 L94.7995465,23.4932832 C94.8319042,23.5073399 94.8639634,23.5220483 94.8957239,23.5374085 C94.9902831,23.58316 95.0820421,23.634486 95.1705166,23.6911154 C95.2145878,23.7193041 95.2567447,23.7499052 95.2999677,23.7793001 C95.4356863,23.8716066 95.1180814,23.6239444 95.3105539,23.7926632 C95.3758576,23.8499116 95.4384976,23.9100322 95.4984737,23.9730249 C95.534483,24.0107939 95.5694865,24.04949 95.6034842,24.0891129 C95.6607071,24.1557515 95.7044678,24.2774609 95.5851206,24.0593125 C95.6943652,24.2589969 95.8308949,24.4401183 95.933781,24.6459803 C96.0215416,24.8215754 95.8538018,24.4278795 95.9204536,24.6127396 C95.9384208,24.6625828 95.9577435,24.7118037 95.9747,24.762026 C96.0086166,24.8624971 96.0378825,24.9643822 96.0624976,25.0676814 C96.0871457,25.1711355 96.0992141,25.2767523 96.121936,25.3802858 C96.0594009,25.095335 96.1051327,25.2601564 96.1112905,25.337578 C96.1168929,25.4080112 96.1202719,25.4785739 96.1214274,25.5492661 C96.1228366,25.6374631 96.1206968,25.7256372 96.1150081,25.8137884 C96.1116432,25.8653992 96.1000795,25.9202705 96.1007704,25.9717942 C96.0971902,25.7042676 96.120134,25.8375038 96.1034972,25.9273649 C96.0842823,26.0314039 96.059571,26.1343523 96.029467,26.2357774 C96.0143622,26.2865788 95.9978878,26.336932 95.9800439,26.3868368 C95.9641852,26.4311039 95.9474704,26.4750443 95.9298996,26.518658 C95.9811422,26.3992817 95.9852267,26.3879364 95.9421529,26.484622 C95.678817,27.0112978 95.3507238,27.5023735 95.0917145,28.0308764 C94.4491809,29.3485734 94.2330886,30.8337028 94.4734693,32.2798673 C94.5396489,32.5197125 94.6969057,32.7242162 94.9117095,32.8497741 C95.1344015,32.9774125 95.3984835,33.0119611 95.6465157,32.9459053 C96.1840246,32.7719602 96.3953455,32.3026646 96.3125523,31.7728537 C96.2833873,31.5862167 96.3278495,31.9392724 96.3087739,31.7513459 C96.3005935,31.6707511 96.2924132,31.5903016 96.2867112,31.5094782 C96.2753267,31.3479327 96.2706883,31.186122 96.2727959,31.0240463 C96.2745759,30.8852329 96.2812502,30.7466141 96.2928188,30.6081899 C96.2931966,30.5270196 96.3015917,30.4460851 96.3178817,30.3665652 C96.3177271,30.3670792 96.2871644,30.5582926 96.307931,30.4482302 C96.3165011,30.4028114 96.322614,30.3568207 96.3307468,30.3112976 C96.3855421,30.0036511 96.4647275,29.7008519 96.5675533,29.4057659 C96.590439,29.3402173 96.6154637,29.2755366 96.6395833,29.2104491 C96.7032494,29.0386389 96.5733623,29.3483738 96.6503148,29.1820807 C96.7189548,29.0337442 96.7899993,28.8873523 96.8681672,28.743756 C97.1964414,28.1406825 97.5677484,27.5756229 97.8069013,26.9269537 C97.9893113,26.4181547 98.0614392,25.8763824 98.0184996,25.3375819 C97.9300256,24.225389 97.4584576,23.0969172 96.5795662,22.376823 C95.6584111,21.6100006 94.4263987,21.3292757 93.2639681,21.6213347 C91.9870005,21.9300721 90.9459337,22.8513947 90.4842249,24.08135 C90.3080656,24.5490908 90.6796527,25.1472114 91.1502628,25.2544016 C91.6927313,25.3779579 92.1347023,25.0891733 92.3233144,24.5883637 L92.3233144,24.5883623 Z" id="Path" fill="#D0CDE1"></path>
            <path d="M95.6549589,35.9497948 C96.0927391,35.9497948 96.4476301,35.5949038 96.4476301,35.1571236 C96.4476301,34.7193434 96.0927391,34.3644525 95.6549589,34.3644525 C95.2171787,34.3644525 94.8622878,34.7193434 94.8622878,35.1571236 C94.867112,35.5928899 95.2191926,35.9449705 95.6549589,35.9497948 L95.6549589,35.9497948 Z" id="Path" fill="#D0CDE1"></path>
            <rect id="Rectangle" fill="#AB6ACB" x="5.2566649" y="63.6765669" width="4.45017351" height="4.45017351"></rect>
            <path d="M12.4087307,65.5837839 L7.00494872,65.5837839 L7.00494872,60.1800019 L12.4087307,60.1800019 L12.4087307,65.5837839 Z M7.23989513,65.3488375 L12.173783,65.3488375 L12.173783,60.4149496 L7.23989513,60.4149496 L7.23989513,65.3488375 Z" id="Shape" fill="#3F3D56"></path>
            <path d="M108.790856,39.6542272 L108.155118,41.5614443 C108.155118,41.5614443 104.181748,46.1705523 107.042573,46.8062918 C109.903399,47.4420312 110.221269,41.879312 110.221269,41.879312 L111.015943,40.2899641 L108.790856,39.6542272 Z" id="Path" fill="#FFB8B8"></path>
            <path d="M113.241029,16.6086844 C113.241029,16.6086844 112.287419,16.4497538 111.96955,20.2641839 C111.651681,24.078614 111.492747,30.7538789 111.492747,30.7538789 L107.837246,40.1310308 L112.446355,41.5614443 L114.671441,30.9128134 L113.241029,16.6086844 Z" id="Path" fill="#575A89"></path>
            <polygon id="Path" fill="#FFB8B8" points="111.174905 73.3483732 110.698114 76.3681861 114.989371 76.3681861 114.830441 73.3483732"></polygon>
            <polygon id="Path" fill="#FFB8B8" points="125.002261 76.6860473 124.684268 80.8183742 127.54515 81.1362353 127.54515 76.3681861"></polygon>
            <path d="M112.923159,33.9325748 L109.267659,54.9119648 L110.221268,73.9841377 L115.148248,73.9841377 L115.148248,56.6602473 L119.91629,47.7599003 L123.730726,58.8853347 L124.684334,77.4807041 L130.088116,76.5270942 L128.816636,58.4085298 C128.816636,58.4085298 127.863027,34.2504439 126.909418,33.9325748 C125.955808,33.6147058 112.923159,33.9325748 112.923159,33.9325748 Z" id="Path" fill="#2F2E41"></path>
            <path d="M111.651681,75.4145512 C111.651681,75.4145512 111.651681,73.8252032 110.380202,74.7788117 C109.108724,75.7324202 107.519377,77.4807001 107.519377,77.4807001 C107.519377,77.4807001 101.479855,80.8183292 105.771094,81.2951342 C110.062333,81.7719391 112.764224,79.0700467 112.764224,79.0700467 L113.241029,79.5468517 C113.241029,79.5468517 115.783984,79.0700467 115.783984,78.4343086 C115.765578,77.9016368 115.712489,77.3707298 115.625054,76.8449606 C115.625054,76.8449606 115.290771,74.1490702 114.901641,74.7023414 C114.512511,75.2556127 112.287419,76.3681597 111.651681,75.4145512 Z" id="Path" fill="#2F2E41"></path>
            <path d="M127.704093,79.8647247 C127.704093,79.8647247 124.843267,78.4343126 124.207528,79.7057941 C123.571788,80.9772757 123.094985,83.5202295 123.094985,83.5202295 C123.094985,83.5202295 121.028833,87.4935902 124.684333,87.175729 C128.339832,86.8578679 128.180898,84.7917071 128.180898,84.3149035 C128.180898,83.8380999 128.021967,82.7255555 128.180898,82.2487506 C128.339828,81.7719457 127.704093,79.8647247 127.704093,79.8647247 Z" id="Path" fill="#2F2E41"></path>
            <circle id="Oval" fill="#FFB8B8" cx="121.426169" cy="5.88058694" r="4.45017351"></circle>
            <polygon id="Path" fill="#FFB8B8" points="118.485844 8.0261919 118.326913 13.7478245 124.048546 13.2710328 124.048546 8.0261919"></polygon>
            <path d="M124.366462,10.4102284 C124.366462,10.4102284 121.664571,12.1585109 120.869897,12.4763799 C120.075223,12.794249 118.326941,11.2049024 118.326941,11.2049024 C118.326941,11.2049024 117.850137,11.5227714 117.850137,11.8406405 C117.850137,12.1585096 117.532268,13.4299885 117.532268,13.4299885 L113.717836,25.9858363 L114.035705,34.8861833 C114.035705,34.8861833 125.637944,35.9987264 126.909422,34.5683143 C128.180899,33.1379022 126.273683,12.6353145 126.273683,12.6353145 L124.366462,10.4102284 Z" id="Path" fill="#D0CDE1"></path>
            <path d="M123.571795,13.7478575 C123.571795,13.7478575 119.280556,15.3372055 117.850143,13.9067881 C117.850143,13.9067934 119.916289,14.383597 123.571795,13.7478575 Z" id="Path" fill="#000000" opacity="0.1"></path>
            <path d="M134.856159,48.2367052 C133.107876,49.3492482 127.386224,50.7796617 127.386224,50.7796617 C127.386224,50.7796617 126.761599,37.3258376 124.525398,35.2040524 C122.301901,33.0918136 118.671818,17.8642636 121.936344,15.2164143 C121.950917,15.2027711 121.966312,15.1900328 121.982442,15.178271 L124.048593,10.4102218 C124.048593,10.4102218 124.366462,9.93341686 125.002202,10.5691523 C125.516466,11.1202319 125.994283,11.7042294 126.432615,12.3174348 L126.523219,12.3539862 L130.882789,14.0657173 L129.134506,21.8535213 C129.134506,21.8535213 136.604441,47.1241608 134.856159,48.2367052 Z" id="Path" fill="#575A89"></path>
            <path d="M126.523219,12.3539968 L125.320076,16.7676189 L121.936348,15.2164143 C121.950921,15.2027711 121.966316,15.1900328 121.982446,15.178271 L124.048597,10.4102218 C124.048597,10.4102218 124.366466,9.93341686 125.002206,10.5691523 C125.51647,11.1202319 125.994286,11.7042294 126.432619,12.3174348 L126.523219,12.3539968 Z" id="Path" fill="#000000" opacity="0.1"></path>
            <path d="M118.247474,11.1254344 L117.770669,16.5292165 L117.745254,16.7755641 L114.11517,51.3359332 C114.11517,51.3359332 110.936474,50.2233888 109.823931,48.9519113 C108.711388,47.6804337 112.366887,33.5352378 112.366887,33.5352378 L112.684756,15.7345425 C112.684756,15.7345425 115.504259,13.7494495 116.656536,12.6591488 C116.926716,12.4048572 117.104742,12.1998355 117.134931,12.0790456 C117.293866,11.4433035 118.247474,11.1254344 118.247474,11.1254344 Z" id="Path" fill="#575A89"></path>
            <path d="M118.247474,11.1254344 L117.770669,16.5292165 L117.745254,16.7755641 L115.466115,16.4497499 L116.656536,12.6591488 C116.926716,12.4048572 117.104742,12.1998355 117.134931,12.0790456 C117.293866,11.4433035 118.247474,11.1254344 118.247474,11.1254344 Z" id="Path" fill="#000000" opacity="0.1"></path>
            <path d="M126.750484,37.9059447 L125.002202,39.4952914 C125.002202,39.4952914 125.796876,42.8329219 126.750484,42.9918564 C126.750484,42.9918564 127.386224,42.0382479 127.545158,41.2435739 C127.704093,40.4488999 129.134506,39.6542272 129.134506,39.6542272 L126.750484,37.9059447 Z" id="Path" fill="#FFB8B8"></path>
            <path d="M128.816636,13.7478575 L130.882788,14.0657279 C130.882788,14.0657279 137.716983,25.6679659 136.922309,29.8002704 C136.127635,33.9325748 129.770244,41.0846394 129.770244,41.0846394 L125.796875,37.9059447 L131.677461,29.9592049 L128.657705,20.4231184 L128.816636,13.7478575 Z" id="Path" fill="#575A89"></path>
            <path d="M116.965948,6.38043085 C116.965948,6.38043085 116.965948,2.45584324 117.919655,1.56389662 L119.064101,1.56389662 C119.064101,1.56389662 120.39929,-0.39839785 122.115961,0.315163414 C123.832631,1.02872468 126.69375,2.27745788 126.50301,4.23975102 C126.312269,6.20204417 125.717409,7.46994019 125.717409,7.46994019 C125.717409,7.46994019 125.399539,7.46994019 124.691016,6.40318183 C123.744241,4.97770674 125.930835,5.4220346 123.069716,4.88686398 C120.208597,4.35169337 118.491926,3.63813078 118.110444,4.35169204 C117.728962,5.06525331 116.965948,6.38043085 116.965948,6.38043085 Z" id="Path" fill="#2F2E41"></path>
            <path d="M119.045246,1.83022356 C119.045246,1.83022356 119.197669,0.683244233 119.825117,0.436276962 L119.045246,1.83022356 Z" id="Path" fill="#2F2E41"></path>
            <path d="M119.042502,2.06616477 C119.042502,2.06616477 118.724137,0.953763086 119.200729,0.476745468 L119.042502,2.06616477 Z" id="Path" fill="#2F2E41"></path>
        </g>
    </g>
</svg>