<?xml version="1.0" encoding="UTF-8"?>
<svg width="140px" height="102px" viewBox="0 0 140 102" version="1.1" xmlns="http://www.w3.org/2000/svg" xmlns:xlink="http://www.w3.org/1999/xlink">
    <title>Work with Multiple Records Using List Views</title>
    <g id="Getting-Started-Page---End-User" stroke="none" stroke-width="1" fill="none" fill-rule="evenodd">
        <g id="Getting-Started-Tab---End-User-Dec-2020" transform="translate(-187.000000, -3515.000000)" fill-rule="nonzero">
            <g id="Work-with-Multiple-Records-Using-List-Views" transform="translate(187.000000, 3515.000000)">
                <rect id="Rectangle" fill="#FF9E2D" x="112.921267" y="91.2399154" width="17.0691676" height="9.84759672"></rect>
                <path d="M94.9394736,98.8092246 C94.7863008,99.3303955 94.7152077,99.9381154 95.033354,100.37841 C95.2092193,100.598929 95.4407536,100.768515 95.7040542,100.86966 C96.3813752,101.13474 97.1102745,101.241689 97.8351955,101.182356 C98.1158828,101.195352 98.3892208,101.090405 98.5890882,100.892902 C100.270968,99.500493 101.408486,97.5600232 101.801867,95.4122863 C101.833654,95.3014016 101.82764,95.1830917 101.784771,95.0760023 C101.729407,94.9930372 101.651871,94.9272738 101.560983,94.8861916 C101.186813,94.6516864 100.783397,94.4674639 100.361135,94.3382729 C98.0505067,93.7417285 95.5119686,96.8613355 94.9394736,98.8092246 Z" id="Path" fill="#2F2E41"></path>
                <path d="M119.171496,91.5060171 C119.481981,91.8665459 119.864623,92.1579538 120.294718,92.3614253 C120.73187,92.5637125 121.237504,92.5551048 121.667517,92.3380553 C122.303179,91.9761791 122.483253,91.1352863 122.432526,90.4055465 C122.338698,89.0559039 121.693986,87.839683 120.953089,86.7371937 C120.718676,86.388377 120.199766,85.3502286 119.74435,85.3372792 C119.52801,85.3311719 118.718951,86.1155789 118.499109,86.2648832 C117.695937,86.8103351 117.139608,87.2005855 117.306755,88.2475984 C117.493195,89.4153953 118.38562,90.6651407 119.171496,91.5060171 Z" id="Path" fill="#2F2E41"></path>
                <path d="M112.129575,35.6848331 C108.710355,35.4196882 105.444409,35.5179491 102.019047,35.3420872 C101.731254,35.3273653 101.869943,38.6224237 101.571735,40.4116713 C101.418467,41.3312842 96.262495,95.20323 96.9024607,95.3124005 C98.5457958,95.6562409 100.208054,95.9024456 101.880503,96.0497974 C102.558924,96.1094485 108.882637,61.0077048 108.579619,58.1550382 C109.407561,59.3693339 112.323694,64.9760138 113.798257,71.425287 C115.743813,79.9345707 116.316527,89.5593967 117.525856,89.0195515 C118.304439,87.9505376 119.360806,87.1150546 120.580429,86.6036832 C122.579189,85.8602471 119.339983,44.9280253 115.917555,43.0462349 C115.875446,41.8482108 115.831526,40.6207587 115.380019,39.5102699 C114.743181,37.9439341 113.486744,36.6932664 112.129575,35.6848331 Z" id="Path" fill="#2F2E41"></path>
                <polygon id="Path" fill="#3F3D56" points="139.800914 101.385932 45.5789449 101.385932 45.5789449 101.027808 139.865744 101.027808"></polygon>
                <rect id="Rectangle" fill="#E6E6E6" x="0" y="48.313675" width="77.3057925" height="15.2629395"></rect>
                <rect id="Rectangle" fill="#E6E6E6" x="0" y="24.1965315" width="77.3057925" height="15.2629362"></rect>
                <rect id="Rectangle" fill="#E6E6E6" x="0" y="0" width="77.3057925" height="15.2629362"></rect>
                <polygon id="Path" fill="#FFFFFF" points="1.64800516 13.6148572 75.6578185 13.6148572 75.6578185 1.64804291 1.64800516 1.64804291"></polygon>
                <polygon id="Path" fill="#FFFFFF" points="1.64800516 37.8646232 75.6578185 37.8646232 75.6578185 25.8978073 1.64800516 25.8978073"></polygon>
                <polygon id="Path" fill="#FFFFFF" points="1.64799039 61.9285536 75.6578021 61.9285536 75.6578021 49.9617376 1.64799039 49.9617376"></polygon>
                <circle id="Oval" fill="#FF9E2D" cx="8.12701641" cy="7.53235944" r="4.55905651"></circle>
                <rect id="Rectangle" fill="#FF9E2D" x="19.0291151" y="5.74837866" width="44.9959261" height="1"></rect>
                <rect id="Rectangle" fill="#FF9E2D" x="19.0291151" y="8.32523705" width="44.9959261" height="1"></rect>
                <circle id="Oval" fill="#CCCCCC" cx="8.12701641" cy="31.9271083" r="4.55905651"></circle>
                <rect id="Rectangle" fill="#CCCCCC" x="19.0291151" y="30.1431308" width="44.9959261" height="1"></rect>
                <rect id="Rectangle" fill="#CCCCCC" x="19.0291151" y="32.7199892" width="44.9959261" height="1"></rect>
                <circle id="Oval" fill="#CCCCCC" cx="8.12701641" cy="56.0442584" r="4.55905815"></circle>
                <rect id="Rectangle" fill="#CCCCCC" x="19.0291151" y="54.2602776" width="44.9959261" height="1"></rect>
                <rect id="Rectangle" fill="#CCCCCC" x="19.0291151" y="56.8371376" width="44.9959261" height="1"></rect>
                <path d="M111.287126,9.55476694 C109.512502,6.55620492 106.001558,6.41645932 106.001558,6.41645932 C106.001558,6.41645932 102.580339,5.97895686 100.385653,10.5458028 C98.3400277,14.8024757 95.5168005,18.9123834 99.9311383,19.9088403 L100.728493,17.4271097 L101.222293,20.0935993 C101.85081,20.1388043 102.48133,20.14958 103.111024,20.1258781 C107.838415,19.9732502 112.340546,20.1705336 112.195596,18.4741456 C112.002877,16.2190377 112.994668,12.4399782 111.287126,9.55476694 Z" id="Path" fill="#2F2E41"></path>
                <path d="M104.740394,19.7711742 C104.748977,20.1086875 104.74641,20.4646485 104.57869,20.7576654 C104.246206,21.3385472 103.434539,21.4254966 102.946315,21.8833327 C102.432878,22.364803 102.374767,23.1462066 102.350296,23.8496483 C102.324713,24.5850996 102.303009,25.3446431 102.571417,26.0298438 C102.735803,26.4072954 102.943608,26.7643084 103.190629,27.0936617 C103.488709,27.5233451 103.789544,27.9510919 104.093133,28.376902 C104.255274,28.6167293 104.435961,28.8434806 104.633535,29.0550732 C105.17724,29.6089069 105.923028,29.9154741 106.667679,30.1342056 C107.148795,30.2755285 107.668275,30.3856082 108.145628,30.2320727 C108.461463,30.1088215 108.752578,29.9298138 109.005091,29.703585 C109.374084,29.4389548 109.701912,29.1212108 109.977939,28.7606645 C110.378787,28.1791967 110.489736,27.451287 110.572826,26.7499494 C110.81846,24.6760361 110.914042,22.5870945 110.858824,20.4994155 C110.8689,20.271924 110.828132,20.0450477 110.739488,19.8352952 C110.492267,19.3525627 109.830121,19.2495043 109.481229,18.834264 C109.182934,18.4792467 109.170771,17.9725763 109.173315,17.5088776 L109.179794,16.3284232 C109.190192,16.2289617 109.170189,16.1286849 109.122424,16.0408258 C109.035034,15.9452562 108.913191,15.8884097 108.783809,15.8828424 C108.050135,15.7610882 107.306318,15.7113254 106.562963,15.7342635 C105.96029,15.7526785 104.803934,15.7022342 104.282823,16.0378978 C103.80981,16.3425824 104.402052,17.184094 104.511615,17.6567836 C104.65892,18.3520721 104.735569,19.0604693 104.740394,19.7711742 L104.740394,19.7711742 Z" id="Path" fill="#FFB8B8"></path>
                <circle id="Oval" fill="#FFB8B8" cx="106.123696" cy="12.9727168" r="4.77132638"></circle>
                <path d="M105.04319,23.291498 C102.580603,15.4876059 101.283192,26.4488525 99.7305494,29.4417308 C99.7449826,31.5052652 99.8009154,37.2126188 100.283518,39.375906 C102.158263,47.7795004 111.442445,47.1197836 114.23428,40.0324124 C115.721458,36.2570392 112.422342,26.9003812 112.534155,22.5346035 C108.445687,18.3918788 108.193407,31.534721 105.04319,23.291498 Z" id="Path" fill="#FF9E2D"></path>
                <path d="M102.339929,20.6147029 C97.0039763,23.2081627 99.549603,30.1759791 97.6154842,34.7360532 C96.0707245,40.9923447 92.142144,42.9596795 101.124498,43.1053419 C103.059864,37.3867702 101.169469,31.1750621 103.808288,25.3521798 C103.989991,23.0715897 104.772222,22.213951 104.702911,20.2826469 C104.185553,19.4810985 102.845177,20.3663843 102.339929,20.6147029 Z" id="Path" fill="#575A88"></path>
                <polygon id="Path" fill="#2F2E41" points="110.502509 9.26576788 107.033857 7.44872216 102.243822 8.19205158 101.252825 12.5693083 103.719812 12.474279 104.40898 10.8661665 104.40898 12.4476905 105.547198 12.4040328 106.208136 9.84382181 106.620914 12.5693083 110.667784 12.4865885"></polygon>
                <path d="M108.357049,22.8111208 C111.103457,22.4905946 108.425874,19.192344 110.605766,19.2483834 C117.133245,18.150483 119.086076,22.1933925 116.603643,27.8361836 C114.32807,32.3558694 122.377635,38.7048957 117.880745,41.2338767 C116.28483,41.8197135 113.999596,43.6624893 112.439861,42.8601941 C109.935711,36.5662045 109.845231,29.375038 108.357049,22.8111208 Z" id="Path" fill="#575A88"></path>
                <path d="M116.001238,40.7789111 C115.044985,41.2362286 114.288536,41.9634753 113.64845,42.808363 C113.512947,42.9872216 113.694691,43.320827 114.100768,43.3153615 C114.478611,43.3102736 114.70434,42.8257965 115.08217,42.8207086 C115.197687,43.8306128 115.4068,44.8275979 115.706811,45.7988056 C116.460612,45.1368518 116.911993,44.2050246 117.343851,43.2995447 L118.197503,41.5096652 C118.510904,40.8525482 118.824434,40.1951407 119.106928,39.5241599 C119.183724,39.3672721 119.231179,39.1976617 119.24695,39.0237001 C119.284126,37.8690136 118.14568,37.862012 117.654703,38.5846516 C117.117704,39.375046 116.950454,40.3249336 116.001238,40.7789111 Z" id="Path" fill="#FFB8B8"></path>
                <path d="M116.197563,20.9273576 C116.927462,21.6857768 117.662478,22.450638 118.229089,23.337721 C118.7957,24.224804 121.726593,32.2029362 121.84542,32.3720933 C122.268573,32.9965442 121.774299,34.6108509 121.749331,34.7032886 C121.700378,34.993174 121.088956,37.8878373 120.935755,38.5270579 C120.828551,38.9743702 120.829915,39.440114 120.759751,39.8947069 C120.689587,40.3492999 120.531753,40.8167702 120.181595,41.1150408 C120.136988,41.1578459 120.082168,41.1885218 120.022353,41.2041484 C119.828137,41.2420485 119.695838,41.0173723 119.627847,40.8315383 C119.416158,40.25291 119.20243,39.6630291 118.829207,39.1728026 C118.455983,38.6825761 117.890276,38.2986511 117.27414,38.3005222 C117.170776,38.0532212 117.193244,37.77122 117.334463,37.5434061 C117.457922,37.310563 117.638905,37.1132302 117.775082,36.8875906 C117.947602,36.5801362 118.064921,36.2448328 118.121717,35.8968879 C118.426006,34.2984341 118.119746,32.6439854 117.263437,31.2603735 C117.064398,30.9322663 116.823661,30.6313488 116.547244,30.3651449 C116.2464,30.0832131 115.894409,29.8565494 115.616646,29.551845 C115.188376,29.044902 114.929453,28.416664 114.876165,27.7551756 C114.824955,27.0981014 114.842452,26.4374768 114.928373,25.7840347 C115.053325,24.4872703 115.213855,23.1886202 115.399088,21.8990839 C115.413393,21.7311074 115.456904,21.566916 115.527662,21.4138994 C115.673083,21.1426638 115.91903,21.058237 116.197563,20.9273576 Z" id="Path" fill="#575A88"></path>
                <path d="M100.267432,38.8437353 C99.7764556,38.1210989 98.6380094,38.1280973 98.6751857,39.2827838 C98.6909567,39.4567454 98.7384112,39.6263558 98.815207,39.7832436 C99.0977067,40.4542244 99.4112361,41.1116319 99.7246326,41.7687489 L100.578285,43.5586284 C101.01014,44.4641149 101.461524,45.3959355 102.215325,46.0578893 C102.515335,45.0866816 102.724448,44.0896965 102.839966,43.0797923 C103.217795,43.0848802 103.443527,43.5693623 103.821369,43.5744453 C104.227446,43.5799107 104.409189,43.2463053 104.273686,43.0674467 C103.6336,42.222559 102.877152,41.4953123 101.920898,41.0379948 C100.971686,40.5840174 100.804435,39.6341297 100.267432,38.8437353 Z" id="Path" fill="#FFB8B8"></path>
                <path d="M102.394485,21.6729766 C102.465242,21.8259935 102.508752,21.9901847 102.523057,22.1581611 C102.708285,23.4477039 102.868816,24.7463475 102.993772,26.0431118 C103.079695,26.6965539 103.097193,27.3571785 103.045982,28.0142528 C102.992692,28.6757411 102.733769,29.3039789 102.305499,29.8109222 C102.027741,30.1156265 101.675745,30.3422903 101.374901,30.624222 C101.098484,30.8904259 100.857747,31.1913435 100.658708,31.5194506 C99.8023996,32.9030625 99.4961392,34.5575112 99.8004279,36.1559651 C99.8572253,36.5039097 99.974544,36.8392129 100.147063,37.1466678 C100.283241,37.3723074 100.464223,37.5696401 100.587683,37.8024832 C100.728901,38.0302971 100.75137,38.3122983 100.648006,38.5595993 C100.031874,38.5577283 99.4661775,38.9416549 99.0929388,39.4318797 C98.7197001,39.9221046 98.5059794,40.5119871 98.2942905,41.0906155 C98.2262994,41.2764495 98.0940002,41.5011257 97.8997843,41.4632256 C97.8399691,41.4475989 97.7851489,41.416923 97.7405421,41.3741179 C97.3903845,41.0758408 97.2325522,40.608377 97.162388,40.1537841 C97.0922239,39.6991911 97.0935862,39.2334474 96.9863819,38.7861351 C96.8331878,38.1469144 96.2217653,35.2522511 96.1728063,34.9623658 C96.1478394,34.869928 95.6535639,33.2556131 96.0767184,32.6311705 C96.1955461,32.4620134 99.126437,24.4838729 99.6930481,23.5967981 C100.259659,22.7097233 100.994677,21.9448638 101.724574,21.1864429 C102.003109,21.3173175 102.249057,21.401754 102.394485,21.6729766 Z" id="Path" fill="#575A88"></path>
            </g>
        </g>
    </g>
</svg>