<?xml version="1.0" encoding="UTF-8"?>
<svg width="137px" height="137px" viewBox="0 0 137 137" version="1.1" xmlns="http://www.w3.org/2000/svg" xmlns:xlink="http://www.w3.org/1999/xlink">
    <title>gift_illustration</title>
    <defs>
        <linearGradient x1="50.0001583%" y1="100.00015%" x2="50.0001583%" y2="0.0041204196%" id="linearGradient-1">
            <stop stop-color="#808080" stop-opacity="0.25" offset="0%"></stop>
            <stop stop-color="#808080" stop-opacity="0.12" offset="54%"></stop>
            <stop stop-color="#808080" stop-opacity="0.1" offset="100%"></stop>
        </linearGradient>
        <linearGradient x1="50%" y1="100%" x2="50%" y2="0%" id="linearGradient-2">
            <stop stop-color="#808080" stop-opacity="0.25" offset="0%"></stop>
            <stop stop-color="#808080" stop-opacity="0.12" offset="54%"></stop>
            <stop stop-color="#808080" stop-opacity="0.1" offset="100%"></stop>
        </linearGradient>
        <linearGradient x1="50.0007275%" y1="100.000882%" x2="50.0007275%" y2="0.00286298858%" id="linearGradient-3">
            <stop stop-color="#808080" stop-opacity="0.25" offset="0%"></stop>
            <stop stop-color="#808080" stop-opacity="0.12" offset="54%"></stop>
            <stop stop-color="#808080" stop-opacity="0.1" offset="100%"></stop>
        </linearGradient>
    </defs>
    <g id="gift_illustration" stroke="none" stroke-width="1" fill="none" fill-rule="evenodd">
        <g id="undraw_buy_house_560d-(5)" transform="translate(-765.000000, 87.000000)"></g>
        <g id="undraw_gift1_sgf8-(1)" transform="translate(0.000000, 5.000000)" fill-rule="nonzero">
            <g id="Group" opacity="0.5" transform="translate(15.789290, 6.060536)" fill="#47E6B1">
                <rect id="Rectangle" x="1.32374854" y="0.13556461" width="1" height="3.00953434"></rect>
                <polygon id="Rectangle" transform="translate(1.589296, 1.640332) rotate(90.000000) translate(-1.589296, -1.640332) " points="1.32374854 0.13556461 1.85484284 0.13556461 1.85484284 3.14509895 1.32374854 3.14509895"></polygon>
            </g>
            <g id="Group" opacity="0.5" transform="translate(128.068685, 122.805588)" fill="#47E6B1">
                <rect id="Rectangle" x="1.38116414" y="0.0845285215" width="1" height="3.00953434"></rect>
                <polygon id="Rectangle" transform="translate(1.646711, 1.589296) rotate(90.000000) translate(-1.646711, -1.589296) " points="1.38116414 0.0845285215 1.91225844 0.0845285215 1.91225844 3.09406286 1.38116414 3.09406286"></polygon>
            </g>
            <g id="Group" opacity="0.5" transform="translate(128.387660, 34.449360)" fill="#47E6B1">
                <rect id="Rectangle" x="1.27271246" y="0.054225844" width="1" height="3.00953434"></rect>
                <polygon id="Rectangle" transform="translate(1.538260, 1.558993) rotate(90.000000) translate(-1.538260, -1.558993) " points="1.27271246 0.054225844 1.80380675 0.054225844 1.80380675 3.06376019 1.27271246 3.06376019"></polygon>
            </g>
            <g id="Group" opacity="0.5" transform="translate(133.810244, 7.336438)" fill="#47E6B1">
                <rect id="Rectangle" x="1.27271246" y="0.054225844" width="1" height="3.00953434"></rect>
                <polygon id="Rectangle" transform="translate(1.538260, 1.558993) rotate(90.000000) translate(-1.538260, -1.558993) " points="1.27271246 0.054225844 1.80380675 0.054225844 1.80380675 3.06376019 1.27271246 3.06376019"></polygon>
            </g>
            <g id="Group" opacity="0.5" transform="translate(41.307334, 5.901048)" fill="#47E6B1">
                <rect id="Rectangle" x="1.28866123" y="0.0430616997" width="1" height="3.00953434"></rect>
                <polygon id="Rectangle" transform="translate(1.552614, 1.547829) rotate(90.000000) translate(-1.552614, -1.547829) " points="1.28706636 0.0430616997 1.81816065 0.0430616997 1.81816065 3.05259604 1.28706636 3.05259604"></polygon>
            </g>
            <path d="M9.7622468,50.9084983 C9.45946243,50.7763172 9.30378609,50.4382183 9.40020955,50.1222235 C9.40773208,50.0989303 9.41254841,50.0748487 9.41456345,50.050454 L9.41456345,50.050454 C9.43665141,49.9012865 9.35126379,49.7570299 9.20986625,49.7046319 C9.06846871,49.6522339 8.90969523,49.7060112 8.82924331,49.8335506 L8.82924331,49.8335506 C8.81459566,49.8533293 8.80228637,49.8747367 8.79256112,49.8973458 C8.66038004,50.2001301 8.32228121,50.3558065 8.00628638,50.259383 C7.98299321,50.2518605 7.95891155,50.2470441 7.93451688,50.2450291 L7.93451688,50.2450291 C7.7853494,50.2229411 7.64109279,50.3083288 7.58869479,50.4497263 C7.53629679,50.5911238 7.59007409,50.7498973 7.7176135,50.8303492 L7.7176135,50.8303492 C7.73739214,50.8449969 7.7587996,50.8573062 7.78140861,50.8670314 C8.08419299,50.9992125 8.23986933,51.3373113 8.14344587,51.6533062 C8.13592334,51.6765993 8.131107,51.700681 8.12909197,51.7250757 L8.12909197,51.7250757 C8.10700401,51.8742431 8.19239162,52.0184998 8.33378916,52.0708978 C8.47518671,52.1232958 8.63396018,52.0695185 8.71441211,51.941979 L8.71441211,51.941979 C8.72905975,51.9222004 8.74136904,51.9007929 8.7510943,51.8781839 C8.88327537,51.5753996 9.22137421,51.4197232 9.53736903,51.5161467 C9.56066221,51.5236692 9.58474386,51.5284855 9.60913853,51.5305006 L9.60913853,51.5305006 C9.75830601,51.5525885 9.90256262,51.4672009 9.95496062,51.3258034 C10.0073586,51.1844058 9.95358133,51.0256324 9.82604191,50.9451804 L9.82604191,50.9451804 C9.80626327,50.9305328 9.78485581,50.9182235 9.7622468,50.9084983 Z" id="Path" fill="#4D8AF0" opacity="0.5"></path>
            <path d="M19.5675553,111.249104 C19.2647709,111.116923 19.1090946,110.778824 19.205518,110.462829 C19.2130406,110.439536 19.2178569,110.415454 19.2198719,110.391059 L19.2198719,110.391059 C19.2419599,110.241892 19.1565723,110.097635 19.0151747,110.045237 C18.8737772,109.992839 18.7150037,110.046617 18.6345518,110.174156 L18.6345518,110.174156 C18.6199042,110.193935 18.6075949,110.215342 18.5978696,110.237951 C18.4656885,110.540735 18.1275897,110.696412 17.8115949,110.599988 C17.7883017,110.592466 17.76422,110.587649 17.7398254,110.585634 L17.7398254,110.585634 C17.5906579,110.563546 17.4464013,110.648934 17.3940033,110.790332 C17.3416053,110.931729 17.3953826,111.090503 17.522922,111.170955 L17.522922,111.170955 C17.5427006,111.185602 17.5641081,111.197912 17.5867171,111.207637 C17.8895015,111.339818 18.0451778,111.677917 17.9487544,111.993912 C17.9412318,112.017205 17.9364155,112.041286 17.9344005,112.065681 L17.9344005,112.065681 C17.9123125,112.214849 17.9977001,112.359105 18.1390977,112.411503 C18.2804952,112.463901 18.4392687,112.410124 18.5197206,112.282584 L18.5197206,112.282584 C18.5343682,112.262806 18.5466775,112.241398 18.5564028,112.218789 C18.6885839,111.916005 19.0266827,111.760329 19.3426775,111.856752 C19.3659707,111.864275 19.3900524,111.869091 19.414447,111.871106 L19.414447,111.871106 C19.5636145,111.893194 19.7078711,111.807806 19.7602691,111.666409 C19.8126671,111.525011 19.7588898,111.366238 19.6313504,111.285786 L19.6313504,111.285786 C19.6115718,111.271138 19.5901643,111.258829 19.5675553,111.249104 Z" id="Path" fill="#4D8AF0" opacity="0.5"></path>
            <path d="M108.721222,31.3457276 C108.418438,31.2135465 108.262762,30.8754477 108.359185,30.5594529 C108.366708,30.5361597 108.371524,30.512078 108.373539,30.4876834 L108.373539,30.4876834 C108.395627,30.3385159 108.310239,30.1942593 108.168842,30.1418613 C108.027444,30.0894633 107.868671,30.1432406 107.788219,30.27078 L107.788219,30.27078 C107.773571,30.2905586 107.761262,30.3119661 107.751537,30.3345751 C107.619356,30.6373595 107.281257,30.7930358 106.965262,30.6966123 C106.941969,30.6890898 106.917887,30.6842735 106.893492,30.6822584 L106.893492,30.6822584 C106.744325,30.6601705 106.600068,30.7455581 106.54767,30.8869556 C106.495272,31.0283532 106.54905,31.1871267 106.676589,31.2675786 L106.676589,31.2675786 C106.696368,31.2822262 106.717775,31.2945355 106.740384,31.3042608 C107.043169,31.4364418 107.198845,31.7745407 107.102421,32.0905355 C107.094899,32.1138287 107.090083,32.1379103 107.088068,32.162305 L107.088068,32.162305 C107.06598,32.3114725 107.151367,32.4557291 107.292765,32.5081271 C107.434162,32.5605251 107.592936,32.5067478 107.673388,32.3792084 L107.673388,32.3792084 C107.688035,32.3594297 107.700345,32.3380223 107.71007,32.3154133 C107.842251,32.0126289 108.18035,31.8569526 108.496345,31.953376 C108.519638,31.9608986 108.543719,31.9657149 108.568114,31.9677299 L108.568114,31.9677299 C108.717282,31.9898179 108.861538,31.9044303 108.913936,31.7630327 C108.966334,31.6216352 108.912557,31.4628617 108.785017,31.3824098 L108.785017,31.3824098 C108.765239,31.3677621 108.743831,31.3554528 108.721222,31.3457276 Z" id="Path" fill="#4D8AF0" opacity="0.5"></path>
            <path d="M107.533038,45.7618277 C107.230254,45.6296466 107.074578,45.2915478 107.171001,44.975553 C107.178524,44.9522598 107.18334,44.9281781 107.185355,44.9037835 L107.185355,44.9037835 C107.207443,44.754616 107.122055,44.6103594 106.980658,44.5579614 C106.83926,44.5055634 106.680487,44.5593407 106.600035,44.6868801 L106.600035,44.6868801 C106.585387,44.7066587 106.573078,44.7280662 106.563353,44.7506752 C106.431172,45.0534596 106.093073,45.2091359 105.777078,45.1127125 C105.753785,45.1051899 105.729703,45.1003736 105.705308,45.0983586 L105.705308,45.0983586 C105.556141,45.0762706 105.411884,45.1616582 105.359486,45.3030558 C105.307088,45.4444533 105.360866,45.6032268 105.488405,45.6836787 L105.488405,45.6836787 C105.508184,45.6983263 105.529591,45.7106356 105.5522,45.7203609 C105.854985,45.852542 106.010661,46.1906408 105.914237,46.5066356 C105.906715,46.5299288 105.901899,46.5540105 105.899884,46.5784051 L105.899884,46.5784051 C105.877796,46.7275726 105.963183,46.8718292 106.104581,46.9242272 C106.245978,46.9766252 106.404752,46.9228479 106.485204,46.7953085 L106.485204,46.7953085 C106.499851,46.7755299 106.512161,46.7541224 106.521886,46.7315134 C106.654067,46.428729 106.992166,46.2730527 107.308161,46.3694761 C107.331454,46.3769987 107.355535,46.381815 107.37993,46.38383 L107.37993,46.38383 C107.529098,46.405918 107.673354,46.3205304 107.725752,46.1791328 C107.77815,46.0377353 107.724373,45.8789618 107.596834,45.7985099 L107.596834,45.7985099 C107.577055,45.7838623 107.555647,45.771553 107.533038,45.7618277 Z" id="Path" fill="#4D8AF0" opacity="0.5"></path>
            <path d="M107.617567,1.36521537 C107.314783,1.23303429 107.159106,0.894935454 107.25553,0.578940629 C107.263052,0.555647456 107.267869,0.531565801 107.269884,0.507171129 L107.269884,0.507171129 C107.291972,0.358003649 107.206584,0.213747041 107.065186,0.161349042 C106.923789,0.108951043 106.765015,0.162728337 106.684563,0.290267753 L106.684563,0.290267753 C106.669916,0.310046389 106.657607,0.331453854 106.647881,0.354062864 C106.516357,0.656699253 106.179127,0.812976752 105.863201,0.717694994 C105.839908,0.710172463 105.815827,0.705356132 105.791432,0.703341094 L105.791432,0.703341094 C105.642264,0.681253134 105.498008,0.76664075 105.44561,0.908038291 C105.393212,1.04943583 105.446989,1.20820931 105.574529,1.28866123 L105.574529,1.28866123 C105.594307,1.30330888 105.615715,1.31561817 105.638324,1.32534342 C105.941108,1.4575245 106.096784,1.79562334 106.000361,2.11161816 C105.992838,2.13491133 105.988022,2.15899299 105.986007,2.18338766 L105.986007,2.18338766 C105.963919,2.33255514 106.049307,2.47681175 106.190704,2.52920975 C106.332102,2.58160775 106.490875,2.52783045 106.571327,2.40029104 L106.571327,2.40029104 C106.585975,2.3805124 106.598284,2.35910494 106.608009,2.33649593 C106.736393,2.03303416 107.071349,1.87343349 107.387905,1.96488941 C107.411198,1.97241194 107.435279,1.97722827 107.459674,1.97924331 L107.459674,1.97924331 C107.608842,2.00133127 107.753098,1.91594365 107.805496,1.77454611 C107.857894,1.63314857 107.804117,1.47437509 107.676577,1.39392317 L107.676577,1.39392317 C107.657947,1.38235059 107.638172,1.37273043 107.617567,1.36521537 L107.617567,1.36521537 Z" id="Path" fill="#4D8AF0" opacity="0.5"></path>
            <path d="M134.437031,74.2575087 C134.134247,74.1253277 133.978571,73.7872288 134.074994,73.471234 C134.082517,73.4479408 134.087333,73.4238592 134.089348,73.3994645 L134.089348,73.3994645 C134.111436,73.250297 134.026048,73.1060404 133.884651,73.0536424 C133.743253,73.0012444 133.58448,73.0550217 133.504028,73.1825611 L133.504028,73.1825611 C133.48938,73.2023398 133.477071,73.2237472 133.467346,73.2463562 C133.335165,73.5491406 132.997066,73.7048169 132.681071,73.6083935 C132.657778,73.6008709 132.633696,73.5960546 132.609302,73.5940396 L132.609302,73.5940396 C132.460134,73.5719516 132.315877,73.6573392 132.263479,73.7987368 C132.211081,73.9401343 132.264859,74.0989078 132.392398,74.1793597 L132.392398,74.1793597 C132.412177,74.1940074 132.433584,74.2063167 132.456193,74.2160419 C132.762253,74.3491735 132.917961,74.6922817 132.816636,75.010291 C132.809113,75.0335842 132.804297,75.0576659 132.802282,75.0820605 L132.802282,75.0820605 C132.780194,75.231228 132.865581,75.3754846 133.006979,75.4278826 C133.148376,75.4802806 133.30715,75.4265033 133.387602,75.2989639 L133.387602,75.2989639 C133.40225,75.2791853 133.414559,75.2577778 133.424284,75.2351688 C133.556465,74.9323844 133.894564,74.7767081 134.210559,74.8731315 C134.233852,74.8806541 134.257934,74.8854704 134.282328,74.8874854 L134.282328,74.8874854 C134.431496,74.9095734 134.575752,74.8241858 134.62815,74.6827883 C134.680548,74.5413907 134.626771,74.3826172 134.499232,74.3021653 L134.499232,74.3021653 C134.480367,74.2848362 134.459483,74.2698427 134.437031,74.2575087 L134.437031,74.2575087 Z" id="Path" fill="#4D8AF0" opacity="0.5"></path>
            <circle id="Oval" fill="#F55F44" opacity="0.5" cx="9.85155995" cy="26.6535972" r="1.06218859"></circle>
            <circle id="Oval" fill="#F55F44" opacity="0.5" cx="2.06377183" cy="102.938196" r="1.06218859"></circle>
            <circle id="Oval" fill="#F55F44" opacity="0.5" cx="70.1203958" cy="7.44488941" r="1.06218859"></circle>
            <circle id="Oval" fill="#F55F44" opacity="0.5" cx="80.8060768" cy="27.699837" r="1.06218859"></circle>
            <circle id="Oval" fill="#F55F44" opacity="0.5" cx="1.06218859" cy="76.5030966" r="1.06218859"></circle>
            <circle id="Oval" fill="#47E6B1" opacity="0.5" cx="42.6629802" cy="24.934319" r="1.06218859"></circle>
            <circle id="Oval" fill="#F55F44" opacity="0.5" cx="115.724331" cy="95.4933062" r="1.06218859"></circle>
            <g id="Group" opacity="0.5" transform="translate(45.772992, 31.419092)" fill="url(#linearGradient-1)">
                <path d="M41.074482,2.88194412 C39.0170896,0.818172293 36.0171246,-0.00318975553 32.6216298,0.569371362 C29.4494179,1.10525029 26.2756112,2.82293364 23.6903143,5.40663562 C22.9402622,6.16129456 22.3099228,7.02612881 21.8211176,7.97119907 C21.344977,6.99471623 20.7197436,6.09829725 19.9678696,5.31413271 L19.9678696,5.31413271 C17.4160652,2.68736903 14.2789406,0.915459837 11.116298,0.323760186 C7.73675204,-0.31419092 4.72402794,0.460919674 2.63154831,2.48960419 C0.539068685,4.51828871 -0.326949942,7.50549476 0.199359721,10.8962049 C0.690582072,14.0859604 2.35563446,17.2757159 4.90743888,19.9056694 C10.2630384,25.430326 20.9503143,23.2724563 21.4032596,23.1767637 L21.5372293,23.1496508 L21.9487078,23.2437485 C22.4000582,23.3458207 33.0474622,25.6871013 38.4955646,20.2565425 C41.087241,17.6744354 42.8144936,14.5054133 43.3615367,11.3347963 C43.9436671,7.94887078 43.1318743,4.94571595 41.074482,2.88194412 Z M19.5930733,19.9870081 C17.0109662,20.3346915 10.5740396,20.8067753 7.37790454,17.510163 C5.32370198,15.3905704 3.97922002,12.8547148 3.59644936,10.373085 C3.24557625,8.10835856 3.75593714,6.18334109 5.02227008,4.95050058 C5.5190264,4.47335491 6.11316036,4.10936625 6.7638766,3.88352736 C7.82925495,3.50554133 9.09718277,3.43536671 10.4831315,3.69533178 C12.9520023,4.15625146 15.4432014,5.57888242 17.5005937,7.69847497 C20.6967288,11.0030617 20.0205006,17.4224447 19.5930733,19.9870081 Z M39.9724214,10.7478813 C39.5465891,13.2231315 38.1590454,15.7334692 36.0681607,17.8179744 C32.81461,21.0603609 26.3872526,20.4766356 23.8131199,20.0842957 C23.4287544,17.5069732 22.8657625,11.078021 26.1177183,7.83563446 C28.208603,5.75112922 30.7237253,4.37315483 33.2005704,3.95370198 C34.5913038,3.71925495 35.8576368,3.81016298 36.9166356,4.20569267 C37.5632276,4.4429066 38.1508302,4.81723126 38.6391036,5.30296857 C39.8878929,6.56132712 40.3615716,8.49431898 39.9724214,10.751071 L39.9724214,10.7478813 Z" id="Shape"></path>
            </g>
            <path d="M68.2097322,53.9020838 L67.1922002,54.1173923 C66.7599884,54.2083003 56.5336321,56.2720722 51.4029104,50.9866473 C48.9659371,48.4731199 47.3662747,45.4125495 46.8957858,42.3743073 C46.3933993,39.1239464 47.2147614,36.2643306 49.2211176,34.3233644 C51.2274738,32.3823981 54.1078231,31.6471595 57.3406403,32.2500233 C60.370908,32.8162049 63.3756577,34.51156 65.8110361,37.0250873 L65.8110361,37.0250873 C70.9337835,42.3121071 68.5510361,52.4682887 68.4457742,52.8973108 L68.2097322,53.9020838 Z M53.1843888,35.6582771 C52.5617049,35.8742908 51.9931433,36.2225008 51.5177416,36.6789988 C50.3024447,37.8560186 49.8176019,39.6981024 50.1525262,41.8655413 C50.5193481,44.2403143 51.8048196,46.6661234 53.7713038,48.6948079 C56.8286845,51.8494761 62.9881024,51.4061001 65.4585681,51.0647963 C65.8684517,48.6070896 66.5127823,42.4636205 63.4554016,39.3089523 L63.4554016,39.3089523 C61.4889173,37.2802678 59.1045751,35.919837 56.7425611,35.4812456 C55.4188126,35.2292549 54.2051106,35.2978347 53.1843888,35.6582771 Z" id="Shape" fill="#AB6ACB"></path>
            <path d="M66.7009779,53.9467404 L66.4697206,52.9323981 C66.3724331,52.5001863 64.1651222,42.3041327 69.3787776,37.108021 L69.3787776,37.108021 C71.8572177,34.6359604 74.8954598,32.9932363 77.9305122,32.4828754 C81.1728987,31.9342375 84.0436787,32.7205122 86.0133527,34.6949709 C87.9830268,36.6694296 88.7581374,39.5433993 88.1999302,42.7841909 C87.6768102,45.8144587 86.022922,48.8447264 83.544482,51.3215716 C78.3340163,56.509709 68.1459371,54.2768801 67.7137253,54.1779977 L66.7009779,53.9467404 Z M82.0389173,35.9644936 C81.0245751,35.5849127 79.8060885,35.4971944 78.4839348,35.7220722 C76.1139464,36.1223865 73.6993015,37.4413504 71.7057043,39.4365425 L71.7057043,39.4365425 C68.5940978,42.5385797 69.1315716,48.6868335 69.4999884,51.1572992 C71.9640745,51.5320955 78.1123283,52.0918976 81.2271246,48.9882654 C83.2286962,46.9930733 84.5556345,44.5911874 84.9639232,42.2227939 C85.3371246,40.0617346 84.8841793,38.2116764 83.688021,37.0139232 C83.2200218,36.5490217 82.6568785,36.191004 82.0373225,35.9644936 L82.0389173,35.9644936 Z" id="Shape" fill="#AB6ACB"></path>
            <g id="Group" opacity="0.5" transform="translate(17.384168, 51.195576)" fill="url(#linearGradient-2)">
                <polygon id="Path" points="99.1806636 0.0334924331 0.0334924331 0.0334924331 0.0334924331 19.8721769 5.18494761 19.8721769 5.18494761 77.2893714 94.0292084 77.2893714 94.0292084 19.8721769 99.1806636 19.8721769"></polygon>
            </g>
            <rect id="Rectangle" fill="#F5F5F5" x="23.6935041" y="57.227404" width="86.5954831" height="70.2814785"></rect>
            <rect id="Rectangle" fill="#AB6ACB" x="58.8334459" y="69.7774971" width="16.3155995" height="57.7313853"></rect>
            <rect id="Rectangle" fill="#000000" opacity="0.1" x="23.6935041" y="53.4618976" width="86.5954831" height="17.5707683"></rect>
            <rect id="Rectangle" fill="#F5F5F5" x="18.6728289" y="52.2067288" width="96.6352386" height="17.5707683"></rect>
            <rect id="Rectangle" fill="#AB6ACB" x="58.8334459" y="52.2067288" width="16.3155995" height="17.5707683"></rect>
            <path d="M124.829488,53.7856577 C124.523271,52.9005006 121.174028,55.3932945 121.174028,55.3932945 L120.402107,55.3470431 L118.917276,53.9722584 L119.953946,52.9355879 L111.247509,45.4731548 C110.777725,45.0703733 110.159813,44.8844788 109.545774,44.9611991 L102.309814,45.8654948 C102.279511,45.4508265 102.022736,44.9580093 101.662293,44.4556228 C100.920675,43.2387311 99.357695,41.8623516 98.7787544,41.3727241 L97.896787,35.4222352 L98.6463795,34.2978463 C98.5077899,34.2599141 98.371473,34.2141201 98.2380908,34.1606868 L98.3975786,33.9230501 L98.3385681,33.9071013 L98.4135274,33.8209779 L98.4039581,33.8209779 L100.281129,31.6551339 C100.569009,31.3214346 100.541534,30.8198407 100.218929,30.5195809 L96.0387544,27.3489639 C96.1657529,27.0463456 96.2266534,26.7200929 96.2173807,26.3920373 C96.2492782,25.7540861 95.9685797,25.116135 95.0212224,24.647241 C94.4353085,24.3681941 93.8216108,24.1516892 93.1903027,24.0013155 C92.1498723,23.7333874 91.0566297,23.7493592 90.0244703,24.0475669 L89.9702445,23.9837718 C88.6831781,22.5132945 86.9973923,24.6217229 86.9320023,24.7094412 L80.3387776,32.0458789 C79.9656956,32.6352102 80.1072192,33.4122028 80.6641327,33.832142 L84.1537253,36.4493364 L84.1425611,36.4716647 L84.340326,36.6199884 C84.1904075,36.9134459 83.9910477,37.1096158 83.7247031,37.1383236 L84.2589872,37.4062631 C84.1747515,37.4650026 84.0771597,37.5017366 83.975099,37.5131199 L86.4216414,38.7363912 C86.4216414,40.0122934 86.5524214,45.8288126 88.6209779,48.6868335 C88.8331867,49.0364554 89.0852702,49.3602569 89.3721653,49.6517346 C89.3721653,49.6517346 89.5476019,49.5560419 89.8697672,49.4013388 L90.2397788,50.1397672 C91.0719125,51.8052514 92.8767517,52.7510411 94.7197905,52.4874272 L106.20291,50.846298 L106.0817,51.211525 L106.14709,51.2019558 L102.424645,62.3661001 L103.040268,62.5718393 L103.029104,62.5941676 L103.115227,62.6308498 L102.341711,64.0933527 L99.9047381,65.9673341 C99.9047381,65.9673341 107.027462,69.5382654 107.777055,68.9752736 C108.526647,68.4122817 105.151886,65.9753085 105.151886,65.9753085 L104.96369,65.2257159 L105.783458,63.4952736 L106.47085,63.724936 L111.990722,52.6820023 L111.990722,52.6820023 L112.178917,52.3072061 L115.910931,56.978603 L116.963551,55.9259837 L117.076787,56.0408149 L117.086356,56.0312456 L118.545669,57.5081024 L119.603073,60.3948312 C119.603073,60.3948312 125.140489,54.66922 124.829488,53.7856577 Z M95.8537485,32.3170081 L95.7803842,32.2324796 C95.1932925,32.9266248 94.4766044,33.4997586 93.6703609,33.9198603 L93.6703609,33.3058324 L93.7118277,33.2691502 L93.7118277,33.0028056 C94.8442967,31.9608431 95.288591,30.3671923 94.8585448,28.8896158 L97.2811641,30.7540279 L95.8537485,32.3170081 Z M87.6225844,25.3952386 L87.5635739,25.3362282 L87.6225844,25.3936438 L87.6225844,25.3952386 Z M85.6848079,29.2994994 C85.6688591,29.4930113 85.6624796,29.6886496 85.6656694,29.8864144 C85.6615183,30.1726663 85.6775065,30.4588556 85.7135157,30.7428638 C85.8379162,31.7348778 86.191979,32.5450757 86.9256228,32.9310361 C87.5635739,33.2659604 87.9830268,33.2500116 88.2509662,33.0187544 L88.279674,33.0442724 C88.3018906,33.4326663 88.4028158,33.8124926 88.5763213,34.1606868 C87.2097137,33.8754765 85.9045474,33.350062 84.7215017,32.6088708 C84.7215017,32.6088708 84.7215017,32.658312 84.731071,32.7476251 L83.7278929,31.744447 L85.6848079,29.2994994 Z" id="Shape" fill="url(#linearGradient-3)"></path>
            <polygon id="Path" fill="#FDA57D" points="103.984435 60.4937136 102.344901 63.5893714 104.893516 64.6818626 106.53305 61.2225728"></polygon>
            <path d="M104.893516,64.6818626 L105.075332,65.4107218 C105.075332,65.4107218 108.352806,67.7775204 107.627136,68.3245634 C106.901467,68.8716065 99.9717229,65.4107218 99.9717229,65.4107218 L102.338522,63.5893714 L104.893516,64.6818626 Z" id="Path" fill="#333333"></path>
            <polygon id="Path" fill="#000000" opacity="0.1" points="106.357614 61.5431432 103.780291 60.6835041 103.013155 62.1316531 105.561769 63.2257392"></polygon>
            <polygon id="Path" fill="#FDA57D" points="115.628638 54.6947381 118.089534 57.1859371 119.896531 55.0822934 117.087951 52.4810477"></polygon>
            <polygon id="Path" fill="#000000" opacity="0.1" points="117.188428 52.6022584 115.729115 54.8159488 116.662119 55.7617113 118.555239 53.8685914"></polygon>
            <path d="M119.898126,55.0822934 L120.647718,55.1269499 C120.647718,55.1269499 123.88851,52.7107101 124.191537,53.5687544 C124.494563,54.4267986 119.119825,59.9913271 119.119825,59.9913271 L118.092724,57.187532 L119.898126,55.0822934 Z" id="Path" fill="#333333"></path>
            <path d="M96.5586845,36.4493364 L100.341735,32.0729919 C100.620088,31.7487409 100.593359,31.2627044 100.281129,30.9709313 L92.0499651,24.7285797 L91.0483818,26.2883702 L97.4278929,31.1989988 L94.7166007,34.1686612 L96.5586845,36.4493364 Z" id="Path" fill="#FDA57D"></path>
            <path d="M96.1248778,32.6359837 L94.8011292,34.0873225 L96.6400233,36.3695925 L98.5363329,34.1814203 C97.6107312,33.8870126 96.7790099,33.3539848 96.1248778,32.6359837 Z" id="Path" fill="#000000" opacity="0.1"></path>
            <path d="M85.5731665,37.3998836 L81.2909197,34.1814203 C80.7498462,33.7744805 80.6111497,33.0206649 80.9719441,32.4477881 L87.380163,25.3170896 L88.6911525,26.6280792 L84.2653667,32.1527357 L86.884156,34.7794994 L85.5731665,37.3998836 Z" id="Path" fill="#FDA57D"></path>
            <path d="M84.6704657,36.7539581 L85.370617,37.2802678 L86.6816065,34.6598836 L85.0356927,33.0139697 C85.07078,33.5721769 85.1696624,35.738021 84.6704657,36.7539581 Z" id="Path" fill="#000000" opacity="0.1"></path>
            <polygon id="Path" fill="#4D8AF0" points="106.357614 50.1190338 102.42624 61.91156 106.357614 63.2225495 112.909371 50.1190338 107.668603 48.8096391"></polygon>
            <polygon id="Path" fill="#000000" opacity="0.1" points="106.175797 50.4826659 105.979627 51.0727707 110.107171 50.4826659 111.719593 52.4985914 112.727555 50.4826659 107.485192 49.1732712"></polygon>
            <path d="M87.3737835,25.3314435 C87.3737835,25.3314435 89.0531898,23.1671944 90.3274971,24.6233178 C91.6018044,26.0794412 88.319546,26.2612573 88.319546,26.2612573 L87.3737835,25.3314435 Z" id="Path" fill="#FDA57D"></path>
            <path d="M89.3227241,47.4986496 L90.589057,50.0329104 C91.3979028,51.6495976 93.1503033,52.5675523 94.9398836,52.3119907 L110.287392,50.1190338 L115.529756,56.6691967 L119.461129,52.7378231 L111.008277,45.4891036 C110.552226,45.0978391 109.952258,44.9171539 109.355984,44.9915017 L89.3227241,47.4986496 Z" id="Path" fill="#4D8AF0"></path>
            <path d="M85.4710943,33.363248 C85.4710943,33.363248 85.8155879,37.6183818 84.5061932,37.7651106 L87.1265774,39.0761001 C87.1265774,39.0761001 86.9814435,46.7921187 89.7469616,49.5592317 C89.7469616,49.5592317 94.8505704,46.7937136 100.230093,46.9388475 C105.609616,47.0839814 98.9191036,41.6980792 98.9191036,41.6980792 L98.0339464,35.7332363 L98.7628056,34.6407451 C97.7747801,34.345444 96.8902339,33.777123 96.2110012,33.0012107 L96.2110012,33.0012107 C95.482142,33.9118859 93.8186845,35.1463213 92.364156,35.1463213 L91.737369,35.1463213 C89.5794994,35.1463213 87.2844703,34.7109197 85.4663097,33.5514435 L85.4710943,33.363248 Z" id="Path" fill="#000000" opacity="0.1"></path>
            <path d="M85.2286729,32.9996158 C85.2286729,32.9996158 85.5731665,37.2547497 84.2637718,37.4014785 L86.884156,38.7108731 C86.884156,38.7108731 86.7390221,46.4268917 89.5045402,49.1940047 C89.5045402,49.1940047 94.608149,46.4284866 99.9876717,46.5736205 C105.367194,46.7187544 98.6766822,41.3328522 98.6766822,41.3328522 L97.791525,35.3680093 L98.5203842,34.275518 C97.5323587,33.9802169 96.6478125,33.411896 95.9685797,32.6359837 L95.9685797,32.6359837 C95.2397206,33.5466589 93.5762631,34.7810943 92.1217346,34.7810943 L91.4949476,34.7810943 C89.2796548,34.7816081 87.108058,34.1647023 85.2238882,32.9996158 L85.2286729,32.9996158 Z" id="Path" fill="#3AD29F"></path>
            <path d="M88.6799884,31.8002678 L88.6799884,33.2627707 C88.6799884,34.0038588 88.974319,34.714609 89.4981607,35.2388242 L92.6097672,38.3504307 L93.6464377,36.2770896 C93.8269448,35.9161027 93.920867,35.5180255 93.9207568,35.1144237 L93.9207568,31.797078 L88.6799884,31.8002678 Z" id="Path" fill="#FDA57D"></path>
            <path d="M88.7198603,33.4844587 C88.7198603,33.5386845 88.7198603,33.5913155 88.7198603,33.6439464 C90.2110331,34.9759884 92.4646712,34.9759884 93.955844,33.6439464 L93.955844,32.0219558 L88.7198603,32.0219558 L88.7198603,33.4844587 Z" id="Path" fill="#000000" opacity="0.1"></path>
            <circle id="Oval" fill="#FDA57D" cx="91.3003725" cy="30.4892782" r="3.93137369"></circle>
            <path d="M88.6799884,29.3808382 L95.2317462,29.3808382 C95.2317462,29.3808382 97.8521304,26.760454 95.2317462,25.4494645 C94.6627134,25.1780923 94.0666562,24.9674676 93.4534575,24.8210827 C89.4662631,23.8099302 85.6800233,27.1065425 86.191979,31.1862398 C86.3131898,32.1431665 86.6592782,32.9406054 87.3689988,33.310617 C90.1361118,34.7683353 88.6799884,29.3808382 88.6799884,29.3808382 Z" id="Path" fill="#000000" opacity="0.1"></path>
            <path d="M88.6799884,29.1990221 L95.2317462,29.1990221 C95.2317462,29.1990221 97.8521304,26.578638 95.2317462,25.2676484 C94.6627134,24.9962762 94.0666562,24.7856515 93.4534575,24.6392666 C89.4662631,23.6281141 85.6800233,26.9247264 86.191979,31.0044237 C86.3131898,31.9613504 86.6592782,32.7587893 87.3689988,33.1288009 C90.1361118,34.5865192 88.6799884,29.1990221 88.6799884,29.1990221 Z" id="Path" fill="#333333"></path>
            <ellipse id="Oval" fill="#FDA57D" cx="88.8713737" cy="30.5403143" rx="1" ry="1"></ellipse>
            <polygon id="Path" fill="#000000" opacity="0.1" points="86.8682072 38.6438882 87.0500233 38.0968452 87.5954715 38.4620722"></polygon>
            <path d="M98.6862515,41.334447 C98.6862515,41.334447 96.7038184,42.2913737 96.1567753,43.1956694" id="Path" fill="#000000" opacity="0.1"></path>
            <polygon id="Path" fill="#000000" opacity="0.1" points="97.7931199 35.3664144 97.6113038 35.9118626 97.2460768 35.3664144"></polygon>
            <path d="M88.6799884,29.1990221 L95.2317462,29.1990221 C95.2317462,29.1990221 97.8521304,26.578638 95.2317462,25.2676484 C94.6627134,24.9962762 94.0666562,24.7856515 93.4534575,24.6392666 C89.4662631,23.6281141 85.6800233,26.9247264 86.191979,31.0044237 C86.3131898,31.9613504 86.6592782,32.7587893 87.3689988,33.1288009 C90.1361118,34.5865192 88.6799884,29.1990221 88.6799884,29.1990221 Z" id="Path" fill="#333333"></path>
        </g>
    </g>
</svg>